<svg xmlns="http://www.w3.org/2000/svg" width="60" height="60" viewBox="0 0 60 60">
  <g id="Grupo_1103297" data-name="Grupo 1103297" transform="translate(-495 -2425)">
    <circle id="Elipse_11572" data-name="Elipse 11572" cx="30" cy="30" r="30" transform="translate(495 2425)" fill="#00ffdf"/>
    <g id="Grupo_1104053" data-name="Grupo 1104053" transform="translate(506.189 2403.903)">
      <g id="Grupo_1104052" data-name="Grupo 1104052" transform="translate(0 34.847)">
        <path id="Trazado_880308" data-name="Trazado 880308" d="M53.924,126.226v-.883c0-.3.346-.555.755-.555a.551.551,0,0,0,0-1.1,1.767,1.767,0,0,0-1.857,1.657v.829a.444.444,0,0,1-.328.382.551.551,0,0,0,0,1.042.444.444,0,0,1,.328.382v.829a1.767,1.767,0,0,0,1.857,1.657.551.551,0,1,0,0-1.1c-.409,0-.755-.254-.755-.555v-.883a.547.547,0,0,0-.009-.1,1.705,1.705,0,0,0-.318-.751,1.706,1.706,0,0,0,.318-.751A.547.547,0,0,0,53.924,126.226Z" transform="translate(-48.292 -117.158)" fill="#0b47db"/>
        <path id="Trazado_880309" data-name="Trazado 880309" d="M317.772,171.12a.444.444,0,0,1-.328-.382v-.829a1.767,1.767,0,0,0-1.857-1.657.551.551,0,0,0,0,1.1c.41,0,.755.254.755.555v.883a.547.547,0,0,0,.009.1,1.705,1.705,0,0,0,.318.751,1.706,1.706,0,0,0-.318.751.547.547,0,0,0-.009.1v.883c0,.3-.346.555-.755.555a.551.551,0,0,0,0,1.1,1.767,1.767,0,0,0,1.857-1.657v-.829a.444.444,0,0,1,.328-.382.551.551,0,0,0,0-1.042Z" transform="translate(-291.888 -158.45)" fill="#0b47db"/>
        <path id="Trazado_880310" data-name="Trazado 880310" d="M112.455,140.708h1.59a.551.551,0,1,0,0-1.1h-1.59a.551.551,0,1,0,0,1.1Z" transform="translate(-103.681 -131.909)" fill="#0b47db"/>
        <path id="Trazado_880311" data-name="Trazado 880311" d="M121.1,282.826h-8.648a.551.551,0,0,0,0,1.1H121.1a.551.551,0,0,0,0-1.1Z" transform="translate(-103.681 -264.605)" fill="#0b47db"/>
        <path id="Trazado_880312" data-name="Trazado 880312" d="M112.455,198h1.59a.551.551,0,1,0,0-1.1h-1.59a.551.551,0,1,0,0,1.1Z" transform="translate(-103.681 -184.988)" fill="#0b47db"/>
        <path id="Trazado_880313" data-name="Trazado 880313" d="M112.455,226.64h1.59a.551.551,0,0,0,0-1.1h-1.59a.551.551,0,0,0,0,1.1Z" transform="translate(-103.681 -211.527)" fill="#0b47db"/>
        <path id="Trazado_880314" data-name="Trazado 880314" d="M210.106,254.182h-1.59a.551.551,0,1,0,0,1.1h1.59a.551.551,0,1,0,0-1.1Z" transform="translate(-192.684 -238.066)" fill="#0b47db"/>
        <path id="Trazado_880315" data-name="Trazado 880315" d="M112.455,255.283h4.72a.551.551,0,0,0,0-1.1h-4.72a.551.551,0,0,0,0,1.1Z" transform="translate(-103.681 -238.066)" fill="#0b47db"/>
        <path id="Trazado_880316" data-name="Trazado 880316" d="M167.622,198a.551.551,0,1,0,0-1.1h-1.59a.551.551,0,1,0,0,1.1Z" transform="translate(-153.323 -184.988)" fill="#0b47db"/>
        <path id="Trazado_880317" data-name="Trazado 880317" d="M218.558,196.9h-4.5a.551.551,0,0,0,0,1.1h4.5a.551.551,0,0,0,0-1.1Z" transform="translate(-197.823 -184.988)" fill="#0b47db"/>
        <path id="Trazado_880318" data-name="Trazado 880318" d="M114.044,316.1h-1.59a.551.551,0,1,0,0,1.1h1.59a.551.551,0,1,0,0-1.1Z" transform="translate(-103.681 -295.43)" fill="#0b47db"/>
        <path id="Trazado_880319" data-name="Trazado 880319" d="M114.044,344.74h-1.59a.551.551,0,0,0,0,1.1h1.59a.551.551,0,0,0,0-1.1Z" transform="translate(-103.681 -321.969)" fill="#0b47db"/>
        <path id="Trazado_880320" data-name="Trazado 880320" d="M167.622,316.1h-1.59a.551.551,0,1,0,0,1.1h1.59a.551.551,0,1,0,0-1.1Z" transform="translate(-153.323 -295.43)" fill="#0b47db"/>
        <path id="Trazado_880321" data-name="Trazado 880321" d="M215.245,316.1h-1.182a.551.551,0,1,0,0,1.1h1.182a.551.551,0,1,0,0-1.1Z" transform="translate(-197.823 -295.43)" fill="#0b47db"/>
        <path id="Trazado_880322" data-name="Trazado 880322" d="M166.033,140.708H177.01a.551.551,0,1,0,0-1.1H166.033a.551.551,0,1,0,0,1.1Z" transform="translate(-153.323 -131.909)" fill="#0b47db"/>
        <path id="Trazado_880323" data-name="Trazado 880323" d="M124.416,168.251H112.455a.551.551,0,0,0,0,1.1h11.962a.551.551,0,1,0,0-1.1Z" transform="translate(-103.681 -158.449)" fill="#0b47db"/>
        <path id="Trazado_880324" data-name="Trazado 880324" d="M35.512,55.781H34.026l-1.293-1.954a1.69,1.69,0,0,0-1.412-.759H30.086V36.433A1.588,1.588,0,0,0,28.5,34.847H8.377a.551.551,0,0,0,0,1.1H28.5a.485.485,0,0,1,.485.485v2.152H1.1V36.433a.485.485,0,0,1,.485-.485h4.2a.551.551,0,1,0,0-1.1h-4.2A1.588,1.588,0,0,0,0,36.433V59.922a1.588,1.588,0,0,0,1.586,1.586H19.268v3.73a2.112,2.112,0,0,0,2.109,2.109h7.372a.551.551,0,0,0,0-1.1H21.377a1.009,1.009,0,0,1-1.008-1.008V54.762a.593.593,0,0,1,.593-.593h3.617a.591.591,0,0,1,.494.265l1.46,2.2a.551.551,0,0,0,.459.246h8.52a1.009,1.009,0,0,1,1.008,1.008v7.347a1.009,1.009,0,0,1-1.008,1.008H31.3a.551.551,0,0,0,0,1.1h4.21a2.112,2.112,0,0,0,2.109-2.109V57.891a2.112,2.112,0,0,0-2.109-2.109Zm-14.55-2.713a1.7,1.7,0,0,0-1.694,1.694v5.645H1.586a.485.485,0,0,1-.485-.485V39.7H28.985v13.37Zm6.325,2.713-1.069-1.612h5.1a.591.591,0,0,1,.494.266l.891,1.346Z" transform="translate(0 -34.847)" fill="#0b47db"/>
      </g>
    </g>
  </g>
</svg>
