<svg xmlns="http://www.w3.org/2000/svg" width="44" height="42" viewBox="0 0 44 42">
  <path id="Trazado_879538" data-name="Trazado 879538" d="M26.71,35.29A1.009,1.009,0,0,1,27,36a.99.99,0,0,1-1,1,1.009,1.009,0,0,1-.71-.29,1,1,0,0,1,1.42-1.42Zm-5.42,0a1,1,0,1,0,1.42,0,1.05,1.05,0,0,0-1.42,0ZM46,44a1,1,0,0,1-1,1H3a1,1,0,0,1,0-2H7.8L5.461,30.553A3,3,0,0,1,8.41,27h.649A9.011,9.011,0,0,1,18,19h.356a9,9,0,1,1,11.289,0H30a9.009,9.009,0,0,1,8.939,8h.65a3,3,0,0,1,2.948,3.553L40.2,43H45a1,1,0,0,1,1,1ZM24,19a7,7,0,1,0-7-7A7.008,7.008,0,0,0,24,19ZM11.071,27H36.929A7.011,7.011,0,0,0,30,21H18a7.011,7.011,0,0,0-6.929,6Zm27.1,16,2.4-12.816A1,1,0,0,0,39.59,29H8.41a1,1,0,0,0-.982,1.184L9.83,43Z" transform="translate(-2 -3)" fill="#fff"/>
</svg>
