<svg xmlns="http://www.w3.org/2000/svg" width="92" height="89.005" viewBox="0 0 92 89.005">
  <g id="_x30_4_Software_Development" transform="translate(-6 -14.141)">
    <g id="Grupo_1103855" data-name="Grupo 1103855" transform="translate(6 14.141)">
      <path id="Trazado_879922" data-name="Trazado 879922" d="M94.657,87.365h-3.2V42.333a6.054,6.054,0,0,0-6.047-6.047h-8.22V19.22a5.084,5.084,0,0,0-5.078-5.079H31.893a5.085,5.085,0,0,0-5.078,5.079V36.286h-8.22a6.054,6.054,0,0,0-6.048,6.047v27.6a1.34,1.34,0,1,0,2.68,0v-27.6a3.372,3.372,0,0,1,3.368-3.367h8.22v3.46H23.17a4.885,4.885,0,0,0-4.879,4.879V79.027a4.885,4.885,0,0,0,4.879,4.88H80.83a4.885,4.885,0,0,0,4.88-4.88V47.305a4.885,4.885,0,0,0-4.88-4.879H77.186v-3.46h8.22a3.371,3.371,0,0,1,3.367,3.367V87.365H15.227V76.8a1.34,1.34,0,0,0-2.68,0V87.365h-3.2A3.346,3.346,0,0,0,6,90.707a12.452,12.452,0,0,0,12.438,12.438H85.562A12.452,12.452,0,0,0,98,90.707a3.346,3.346,0,0,0-3.343-3.343ZM29.495,19.22a2.4,2.4,0,0,1,2.4-2.4H72.108a2.4,2.4,0,0,1,2.4,2.4V47.469a2.4,2.4,0,0,1-2.4,2.4H45.935a1.34,1.34,0,0,0-1.213.771l-3.107,6.629a.184.184,0,0,1-.333,0L38.176,50.64a1.34,1.34,0,0,0-1.213-.772H31.894a2.4,2.4,0,0,1-2.4-2.4V19.22ZM80.83,45.106a2.2,2.2,0,0,1,2.2,2.2V79.027a2.2,2.2,0,0,1-2.2,2.2H23.17a2.2,2.2,0,0,1-2.2-2.2V47.305a2.2,2.2,0,0,1,2.2-2.2h3.645v2.363a5.084,5.084,0,0,0,5.078,5.078H36.11l2.745,5.858a2.839,2.839,0,0,0,2.593,1.648h0a2.839,2.839,0,0,0,2.592-1.649l2.745-5.858H72.108a5.084,5.084,0,0,0,5.078-5.078V45.106Zm-19.2,44.942-.387,1.994a1.544,1.544,0,0,1-1.513,1.249H44.273a1.544,1.544,0,0,1-1.513-1.248l-.386-1.994Zm23.936,10.418H18.438A9.769,9.769,0,0,1,8.68,90.707a.664.664,0,0,1,.663-.663l30.3,0,.484,2.5a4.228,4.228,0,0,0,4.144,3.418H59.727a4.228,4.228,0,0,0,4.144-3.418l.485-2.5,30.3,0a.664.664,0,0,1,.663.663A9.769,9.769,0,0,1,85.562,100.465Z" transform="translate(-6 -14.141)" fill="#a854f3"/>
      <path id="Trazado_879923" data-name="Trazado 879923" d="M366.419,444.3h-2.251a1.34,1.34,0,0,0,0,2.68h2.251a1.34,1.34,0,0,0,0-2.68Z" transform="translate(-297.172 -365.151)" fill="#a854f3"/>
      <path id="Trazado_879924" data-name="Trazado 879924" d="M404.282,444.3h-2.251a1.34,1.34,0,0,0,0,2.68h2.251a1.34,1.34,0,0,0,0-2.68Z" transform="translate(-328.068 -365.151)" fill="#a854f3"/>
      <path id="Trazado_879925" data-name="Trazado 879925" d="M442.15,444.3H439.9a1.34,1.34,0,0,0,0,2.68h2.25a1.34,1.34,0,0,0,0-2.68Z" transform="translate(-358.969 -365.151)" fill="#a854f3"/>
      <path id="Trazado_879926" data-name="Trazado 879926" d="M189.048,281.722a1.34,1.34,0,0,0-1.895,0l-5.335,5.335a1.34,1.34,0,0,0,0,1.895l5.335,5.335a1.34,1.34,0,0,0,1.895-1.895L184.66,288l4.387-4.387a1.339,1.339,0,0,0,0-1.894Z" transform="translate(-149.148 -232.167)" fill="#a854f3"/>
      <path id="Trazado_879927" data-name="Trazado 879927" d="M289.305,281.722a1.34,1.34,0,0,0-1.895,1.895L291.8,288l-4.388,4.388a1.34,1.34,0,0,0,1.895,1.895l5.335-5.335a1.34,1.34,0,0,0,0-1.895Z" transform="translate(-235.311 -232.167)" fill="#a854f3"/>
      <path id="Trazado_879928" data-name="Trazado 879928" d="M244.019,271.045a1.34,1.34,0,0,0-1.63.965L238.68,286.48a1.34,1.34,0,0,0,2.6.666l3.709-14.47a1.34,1.34,0,0,0-.966-1.631Z" transform="translate(-195.832 -223.74)" fill="#a854f3"/>
      <path id="Trazado_879929" data-name="Trazado 879929" d="M180.5,55.7h.423c.1.257.2.511.315.762l-.3.3a2.8,2.8,0,0,0,0,3.96l1.962,1.962a2.867,2.867,0,0,0,3.959,0l.3-.3q.376.171.762.316v.423a2.8,2.8,0,0,0,2.8,2.8h2.775a2.8,2.8,0,0,0,2.8-2.8V62.7c.257-.1.512-.2.762-.316l.3.3a2.867,2.867,0,0,0,3.96,0l1.962-1.961a2.8,2.8,0,0,0,0-3.961l-.3-.3q.171-.376.316-.762h.422a2.8,2.8,0,0,0,2.8-2.8V50.129a2.8,2.8,0,0,0-2.8-2.8h-.423c-.1-.257-.2-.511-.315-.762l.3-.3a2.8,2.8,0,0,0,0-3.96l-1.962-1.962a2.868,2.868,0,0,0-3.959,0l-.3.3q-.376-.171-.762-.316v-.422a2.8,2.8,0,0,0-2.8-2.8h-2.775a2.8,2.8,0,0,0-2.8,2.8v.423q-.386.145-.762.316l-.3-.3a2.867,2.867,0,0,0-3.96,0l-1.962,1.961a2.8,2.8,0,0,0,0,3.961l.3.3q-.171.375-.316.761H180.5a2.8,2.8,0,0,0-2.8,2.8V52.9a2.8,2.8,0,0,0,2.8,2.8Zm-.12-5.575a.121.121,0,0,1,.12-.12h1.394a1.34,1.34,0,0,0,1.291-.98,9.189,9.189,0,0,1,.855-2.061,1.34,1.34,0,0,0-.219-1.608l-.987-.986a.136.136,0,0,1,0-.171l1.962-1.962a.135.135,0,0,1,.17,0l.987.987a1.34,1.34,0,0,0,1.607.219,9.221,9.221,0,0,1,2.061-.855,1.34,1.34,0,0,0,.98-1.291V39.908a.121.121,0,0,1,.12-.12h2.775a.121.121,0,0,1,.12.12V41.3a1.34,1.34,0,0,0,.981,1.291,9.209,9.209,0,0,1,2.061.854,1.342,1.342,0,0,0,1.607-.219l.987-.986a.134.134,0,0,1,.169,0l1.962,1.962a.135.135,0,0,1,0,.17l-.986.986a1.339,1.339,0,0,0-.22,1.606,9.227,9.227,0,0,1,.855,2.062,1.34,1.34,0,0,0,1.291.98h1.394a.121.121,0,0,1,.12.12V52.9a.121.121,0,0,1-.12.12h-1.394a1.339,1.339,0,0,0-1.291.982,9.147,9.147,0,0,1-.854,2.06,1.34,1.34,0,0,0,.219,1.608l.986.985a.136.136,0,0,1,0,.171l-1.962,1.962a.134.134,0,0,1-.17,0l-.986-.985a1.34,1.34,0,0,0-1.607-.219,9.192,9.192,0,0,1-2.061.854,1.34,1.34,0,0,0-.981,1.291v1.393a.121.121,0,0,1-.12.12h-2.775a.121.121,0,0,1-.12-.12V61.73a1.34,1.34,0,0,0-.98-1.291,9.2,9.2,0,0,1-2.061-.855,1.339,1.339,0,0,0-1.607.219l-.987.987a.134.134,0,0,1-.169,0l-1.962-1.962a.135.135,0,0,1,0-.17l.986-.986a1.339,1.339,0,0,0,.22-1.606A9.226,9.226,0,0,1,183.181,54a1.34,1.34,0,0,0-1.291-.98H180.5a.121.121,0,0,1-.12-.12V50.129Z" transform="translate(-146.104 -32.882)" fill="#a854f3"/>
      <path id="Trazado_879930" data-name="Trazado 879930" d="M226.175,92.314a6.725,6.725,0,1,0-6.725-6.725A6.733,6.733,0,0,0,226.175,92.314Zm0-10.771a4.046,4.046,0,1,1-4.046,4.046A4.051,4.051,0,0,1,226.175,81.544Z" transform="translate(-180.175 -66.955)" fill="#a854f3"/>
    </g>
  </g>
</svg>
