<svg xmlns="http://www.w3.org/2000/svg" width="70" height="70" viewBox="0 0 70 70">
  <g id="Grupo_1103901" data-name="Grupo 1103901" transform="translate(-830 -10651)">
    <g id="Elipse_11753" data-name="Elipse 11753" transform="translate(830 10651)" fill="#fff" stroke="#a854f3" stroke-width="3">
      <circle cx="35" cy="35" r="35" stroke="none"/>
      <circle cx="35" cy="35" r="33.5" fill="none"/>
    </g>
    <g id="Grupo_1103897" data-name="Grupo 1103897" transform="translate(844.97 10630.051)">
      <g id="Grupo_1103896" data-name="Grupo 1103896" transform="translate(0 38.969)">
        <path id="Trazado_880024" data-name="Trazado 880024" d="M229,71.84a.587.587,0,0,0,.781.875,1.7,1.7,0,0,1,2.291.029.586.586,0,1,0,.8-.855A2.87,2.87,0,0,0,229,71.84Z" transform="translate(-210.901 -68.596)" fill="#a854f3"/>
        <path id="Trazado_880025" data-name="Trazado 880025" d="M207.65,41.224a4.262,4.262,0,0,1,5.754.073.586.586,0,0,0,.8-.855,5.435,5.435,0,0,0-7.338-.092.587.587,0,0,0,.781.875Z" transform="translate(-190.502 -38.969)" fill="#a854f3"/>
        <path id="Trazado_880026" data-name="Trazado 880026" d="M87.306,142.907H59.372a1.54,1.54,0,0,0-1.538,1.538v16.174a1.54,1.54,0,0,0,1.538,1.538H87.306a1.54,1.54,0,0,0,1.538-1.538V144.445A1.54,1.54,0,0,0,87.306,142.907Zm.365,17.712a.365.365,0,0,1-.365.365H59.372a.365.365,0,0,1-.365-.365V144.445a.365.365,0,0,1,.365-.365H87.306a.365.365,0,0,1,.365.365Z" transform="translate(-53.309 -134.775)" fill="#a854f3"/>
        <path id="Trazado_880027" data-name="Trazado 880027" d="M38.5,131h-.93a2.651,2.651,0,0,0,.459-1.494v-2.861a.586.586,0,0,0-1.173,0v2.861A1.5,1.5,0,0,1,35.367,131H4.693A1.5,1.5,0,0,1,3.2,129.51V110.032a1.5,1.5,0,0,1,1.494-1.494H35.367a1.5,1.5,0,0,1,1.494,1.494v13.885a.586.586,0,1,0,1.173,0V110.032a2.67,2.67,0,0,0-2.667-2.667H4.693a2.67,2.67,0,0,0-2.667,2.667V129.51A2.652,2.652,0,0,0,2.485,131h-.93A1.557,1.557,0,0,0,0,132.558a3.421,3.421,0,0,0,3.417,3.417H36.643a3.421,3.421,0,0,0,3.417-3.417A1.556,1.556,0,0,0,38.5,131Zm-22.011,1.173h7.072v.148a.579.579,0,0,1-.579.579H17.073a.579.579,0,0,1-.579-.579v-.148ZM36.643,134.8H3.417a2.246,2.246,0,0,1-2.244-2.244.382.382,0,0,1,.382-.382H15.321v.148a1.754,1.754,0,0,0,1.752,1.751h5.914a1.754,1.754,0,0,0,1.752-1.751v-.148H38.5a.382.382,0,0,1,.382.382,2.246,2.246,0,0,1-2.244,2.244Z" transform="translate(0 -102.014)" fill="#a854f3"/>
        <path id="Trazado_880028" data-name="Trazado 880028" d="M118.158,188.538h-7.075v-2.374a1,1,0,0,0-1-1h-9.5a.586.586,0,1,0,0,1.173h9.324v2.2h-7.075a1,1,0,0,0-1,1v.975h-.846a1,1,0,0,0-.605.2l-2.547,1.947v-1.156a1,1,0,0,0-1-1h-1.9v-4.169h2.947a.587.587,0,0,0,0-1.173H94.764a1,1,0,0,0-1,1v4.522a1,1,0,0,0,1,1h1.9v1.336a1,1,0,0,0,1.6.792l2.783-2.128h.787v2.373a1,1,0,0,0,1,1h9.034l2.783,2.128a1,1,0,0,0,1.6-.791v-1.336h1.9a1,1,0,0,0,1-1v-4.522a1,1,0,0,0-1-1Zm-.177,5.342h-1.9a1,1,0,0,0-1,1v1.156l-2.547-1.947a1,1,0,0,0-.605-.2h-8.918v-4.169h14.969Z" transform="translate(-86.431 -173.729)" fill="#a854f3"/>
      </g>
    </g>
  </g>
</svg>
