<svg xmlns="http://www.w3.org/2000/svg" width="51.685" height="51.629" viewBox="0 0 51.685 51.629">
  <g id="Grupo_1103622" data-name="Grupo 1103622" transform="translate(0 -0.277)">
    <g id="Grupo_1103621" data-name="Grupo 1103621" transform="translate(0 0.277)">
      <path id="Trazado_879518" data-name="Trazado 879518" d="M46.133,33.735a5.561,5.561,0,0,0-5.34,4.038h-5.36V31.862H40.9a10.78,10.78,0,0,0,3.132-21.1A12.323,12.323,0,0,0,32.1,1.44a12.19,12.19,0,0,0-6.171,1.652A10.784,10.784,0,0,0,7.885,10.7a10.78,10.78,0,0,0,2.9,21.164h5.473v5.911h-5.36a5.552,5.552,0,1,0,0,3.028h6.874a1.514,1.514,0,0,0,1.514-1.514V31.862h5.047v9.151a5.552,5.552,0,1,0,3.028,0V31.862H32.4v7.425A1.514,1.514,0,0,0,33.918,40.8h6.874a5.552,5.552,0,1,0,5.34-7.066ZM5.552,41.811a2.524,2.524,0,1,1,2.524-2.524A2.527,2.527,0,0,1,5.552,41.811Zm22.814,4.543a2.524,2.524,0,1,1-2.524-2.524A2.527,2.527,0,0,1,28.366,46.354ZM10.78,28.834A7.752,7.752,0,0,1,9.651,13.413a1.514,1.514,0,0,0,1.289-1.638c-.022-.237-.033-.478-.033-.718A7.754,7.754,0,0,1,24.558,6.025a1.514,1.514,0,0,0,2.054.237A9.162,9.162,0,0,1,32.1,4.468a9.292,9.292,0,0,1,9.152,7.776,1.514,1.514,0,0,0,1.194,1.241A7.752,7.752,0,0,1,40.9,28.834ZM46.133,41.811a2.524,2.524,0,1,1,2.524-2.524A2.527,2.527,0,0,1,46.133,41.811Z" transform="translate(0 -0.277)" fill="#fff"/>
    </g>
  </g>
</svg>
