<svg xmlns="http://www.w3.org/2000/svg" width="40" height="40" viewBox="0 0 40 40">
  <g id="Grupo_1104212" data-name="Grupo 1104212" transform="translate(-810 -11792)">
    <path id="Rectángulo_403759" data-name="Rectángulo 403759" d="M10,0H40a0,0,0,0,1,0,0V40a0,0,0,0,1,0,0H0a0,0,0,0,1,0,0V10A10,10,0,0,1,10,0Z" transform="translate(810 11792)" fill="#00ffdf"/>
    <path id="Trazado_880514" data-name="Trazado 880514" d="M10.791,19H.869V16.852l4.57-4.8Q7.129,10.123,7.129,8.99a2.126,2.126,0,0,0-.4-1.4,1.43,1.43,0,0,0-1.162-.479,1.447,1.447,0,0,0-1.221.64,2.629,2.629,0,0,0-.469,1.6H.576A4.67,4.67,0,0,1,1.23,6.935,4.588,4.588,0,0,1,3.047,5.2a5.4,5.4,0,0,1,2.6-.625,5.308,5.308,0,0,1,3.55,1.064A3.8,3.8,0,0,1,10.439,8.7a4.439,4.439,0,0,1-.312,1.636A7.173,7.173,0,0,1,9.155,12a24.477,24.477,0,0,1-2.124,2.339L5.2,16.461h5.6Z" transform="translate(824 11800)" fill="#12263f"/>
  </g>
</svg>
