<svg xmlns="http://www.w3.org/2000/svg" width="104" height="104" viewBox="0 0 104 104">
  <g id="Grupo_1103143" data-name="Grupo 1103143" transform="translate(-1141 -5505)">
    <g id="Grupo_1102853" data-name="Grupo 1102853" transform="translate(1143 5507)">
      <circle id="Elipse_11549" data-name="Elipse 11549" cx="50" cy="50" r="50" transform="translate(0)" fill="#fff" stroke="#8722e2" stroke-width="4"/>
    </g>
    <g id="Data_Process" data-name="Data Process" transform="translate(1166.942 5531)">
      <path id="Trazado_879126" data-name="Trazado 879126" d="M48.6,15.171V43.4H31.229l-1.086,2.171H21.457L20.372,43.4H3V15.171A2.171,2.171,0,0,1,5.171,13H46.429A2.171,2.171,0,0,1,48.6,15.171Z" transform="translate(0.257 1.124)" fill="#ccd3eb"/>
      <path id="Trazado_879127" data-name="Trazado 879127" d="M45.344,13V35.8A4.343,4.343,0,0,1,41,40.143H3V15.171A2.171,2.171,0,0,1,5.171,13Z" transform="translate(0.257 1.124)" fill="#f5f7ff"/>
      <path id="Trazado_879128" data-name="Trazado 879128" d="M27.514,31v6.514L21,35.343V31Z" transform="translate(1.8 2.667)" fill="#96a1c3"/>
      <path id="Trazado_879129" data-name="Trazado 879129" d="M24.257,31v5.429L21,35.343V31Z" transform="translate(1.8 2.667)" fill="#ccd3eb"/>
      <path id="Trazado_879130" data-name="Trazado 879130" d="M50.945,41v2.171A4.343,4.343,0,0,1,46.6,47.514H5.344a4.343,4.343,0,0,1-3.778-2.171C.849,44.051,1,43.041,1,41H20.544l1.086,2.171h8.686L31.4,41Z" transform="translate(0.085 3.524)" fill="#647499"/>
      <path id="Trazado_879131" data-name="Trazado 879131" d="M47.688,41a4.343,4.343,0,0,1-4.343,4.343H1.566C.849,44.051,1,43.041,1,41H20.544l1.086,2.171h8.686L31.4,41Z" transform="translate(0.085 3.524)" fill="#96a1c3"/>
      <rect id="Rectángulo_403472" data-name="Rectángulo 403472" width="24" height="5" rx="1" transform="translate(14 19.116)" fill="#a854f3"/>
      <path id="Trazado_879132" data-name="Trazado 879132" d="M34.543,22l-6.514,9.772H21.514L15,22Z" transform="translate(1.286 1.895)" fill="#96a1c3"/>
      <path id="Trazado_879133" data-name="Trazado 879133" d="M31.286,22l-6.514,9.772H21.514L15,22Z" transform="translate(1.286 1.895)" fill="#ccd3eb"/>
      <g id="Grupo_1103147" data-name="Grupo 1103147" transform="translate(13.029 1.095)">
        <path id="Trazado_879134" data-name="Trazado 879134" d="M29.943,32.171H19.086a1.086,1.086,0,1,1,0-2.171H29.943a1.086,1.086,0,0,1,0,2.171Z" transform="translate(-11.486 1.486)" fill="#0074ff"/>
        <ellipse id="Elipse_11687" data-name="Elipse 11687" cx="2" cy="2.5" rx="2" ry="2.5" transform="translate(-0.029 4.021)" fill="#a854f3"/>
        <path id="Trazado_879174" data-name="Trazado 879174" d="M2,0A2,2,0,1,1,0,2,2,2,0,0,1,2,0Z" transform="translate(10.971 0.021)" fill="#a854f3"/>
        <ellipse id="Elipse_11689" data-name="Elipse 11689" cx="2" cy="2.5" rx="2" ry="2.5" transform="translate(22.971 3.021)" fill="#a854f3"/>
      </g>
      <path id="Trazado_879135" data-name="Trazado 879135" d="M34,7.6a3.257,3.257,0,1,0,0-2.171H31.63A2.171,2.171,0,0,0,29.458,7.6V18.458H26.2V6.32a3.257,3.257,0,1,0-2.171,0V18.458H20.772V8.687A2.171,2.171,0,0,0,18.6,6.515H17.32a3.257,3.257,0,1,0,0,2.171H18.6v9.772H14.258a2.171,2.171,0,0,0-2.171,2.171V22.8a2.171,2.171,0,0,0,2.171,2.171c.706,0-.25-1.086,5.57,7.6a1.088,1.088,0,1,0-.141,2.171h1.086c0,3.387-.2,3.963.738,4.343,7,2.334,6.6,2.171,6.862,2.171a1.086,1.086,0,0,0,1.086-1.086V34.744h1.086a1.086,1.086,0,1,0,0-2.171c-.206,0-.706.847,4.929-7.6h.5A2.171,2.171,0,0,0,38.144,22.8V20.63a2.171,2.171,0,0,0-2.171-2.171H31.63V7.6Zm3.062-2.171a1.086,1.086,0,1,1-1.086,1.086A1.086,1.086,0,0,1,37.058,5.429Zm-22.8,3.257A1.086,1.086,0,1,1,15.344,7.6,1.086,1.086,0,0,1,14.258,8.687ZM25.115,2.172A1.086,1.086,0,1,1,24.03,3.258,1.086,1.086,0,0,1,25.115,2.172Zm2.171,36.491L22.944,37.22V34.744h4.343Zm.5-6.091H22.444l-5.07-7.6H32.857ZM35.973,20.63V22.8H14.258V20.63Z" transform="translate(0.942 0.008)" fill="#033c59"/>
      <path id="Trazado_879136" data-name="Trazado 879136" d="M16.286,12H5.429a3.257,3.257,0,0,0-3.257,3.257v6.514a1.086,1.086,0,0,0,2.171,0V15.257a1.086,1.086,0,0,1,1.086-1.086H16.286a1.086,1.086,0,1,0,0-2.171ZM51.03,42.4H49.944V15.257A3.257,3.257,0,0,0,46.687,12H35.829a1.086,1.086,0,1,0,0,2.171H46.687a1.086,1.086,0,0,1,1.086,1.086V42.4H31.486c-.836,0-.945.543-1.759,2.171h-7.34L21.6,43c-.4-.847.119-.6-17.252-.6V30.457a1.086,1.086,0,0,0-2.171,0V42.4H1.086A1.086,1.086,0,0,0,0,43.486v2.171a5.429,5.429,0,0,0,5.429,5.429H46.687a5.429,5.429,0,0,0,5.429-5.429V43.486A1.086,1.086,0,0,0,51.03,42.4Zm-1.086,3.257a3.257,3.257,0,0,1-3.257,3.257H5.429a3.257,3.257,0,0,1-3.257-3.257V44.572H19.956l.793,1.574c.38.793.185.6,9.652.6.836,0,.945-.543,1.759-2.171H49.944ZM3.257,25.029a1.086,1.086,0,1,0,1.086,1.086A1.086,1.086,0,0,0,3.257,25.029Z" transform="translate(0 1.038)" fill="#033c59"/>
    </g>
  </g>
</svg>
