<svg xmlns="http://www.w3.org/2000/svg" width="104" height="104" viewBox="0 0 104 104">
  <g id="Grupo_1103146" data-name="Grupo 1103146" transform="translate(-1141 -5505)">
    <g id="Grupo_1102853" data-name="Grupo 1102853" transform="translate(1143 5507)">
      <circle id="Elipse_11549" data-name="Elipse 11549" cx="50" cy="50" r="50" transform="translate(0)" fill="#fff" stroke="#8722e2" stroke-width="4"/>
    </g>
    <g id="Database_Network" data-name="Database Network" transform="translate(1168.032 5530.946)">
      <path id="Trazado_879149" data-name="Trazado 879149" d="M36.544,24.772a57.273,57.273,0,0,1-22.171,0C-.034,21.514,8.228,15,25.459,15,42.885,15,50.81,21.58,36.544,24.772Z" transform="translate(-0.478 1.279)" fill="#f5f7ff"/>
      <path id="Trazado_879150" data-name="Trazado 879150" d="M22,15c15.819.543,22.627,6.666,8.914,9.772A49.3,49.3,0,0,1,22,25.86a53.972,53.972,0,0,0,13.257-1.086C50.663,21.333,40.088,14.416,22,15Z" transform="translate(0.81 1.276)" fill="#ccd3eb"/>
      <path id="Trazado_879151" data-name="Trazado 879151" d="M43.915,20v8.686c0,1.227-1.379,2.356-3.7,3.257C29.714,36.08,7,33.887,7,28.686V20c0,1.77,2.9,3.344,7.372,4.343C26.3,26.992,43.915,24.517,43.915,20Z" transform="translate(-0.476 1.707)" fill="#96a1c3"/>
      <path id="Trazado_879152" data-name="Trazado 879152" d="M38.286,23.5v5.19c0,1.227-1.379,2.356-3.7,3.257-6.276,2.475-17.263,2.171-10.412,2.171,6.037,0,11.389-.847,14.755-2.171,2.323-.9,3.7-2.03,3.7-3.257V20C42.629,21.325,40.99,22.551,38.286,23.5Z" transform="translate(0.81 1.707)" fill="#647499"/>
      <path id="Trazado_879153" data-name="Trazado 879153" d="M36.55,38.6C19.58,42.368-1.907,35.9,10.71,31c7.361,2.9,22.16,2.888,29.51,0C46.886,33.584,43.922,36.95,36.55,38.6Z" transform="translate(-0.484 2.65)" fill="#f5f7ff"/>
      <path id="Trazado_879154" data-name="Trazado 879154" d="M38.927,31a23.148,23.148,0,0,1-2.606.825c4.81,2.8.076,5.548-5.429,6.775A49.3,49.3,0,0,1,22,39.686C37.928,40.185,48.731,34.8,38.927,31Z" transform="translate(0.81 2.65)" fill="#ccd3eb"/>
      <path id="Trazado_879155" data-name="Trazado 879155" d="M43.915,34v8.686c0,3-8.262,5.429-18.457,5.429S7,45.682,7,42.686V34c0,1.77,2.9,3.344,7.372,4.343a57.273,57.273,0,0,0,22.171,0C41.016,37.344,43.915,35.77,43.915,34Z" transform="translate(-0.476 2.908)" fill="#96a1c3"/>
      <path id="Trazado_879156" data-name="Trazado 879156" d="M38.286,37.5v5.19c0,2.779-7.112,5.07-16.286,5.429h2.171c10.2,0,18.457-2.432,18.457-5.429V34C42.629,35.325,40.989,36.551,38.286,37.5Z" transform="translate(0.81 2.908)" fill="#647499"/>
      <g id="Grupo_1103149" data-name="Grupo 1103149" transform="translate(1.095 1.078)">
        <ellipse id="Elipse_11693" data-name="Elipse 11693" cx="2.171" cy="2.171" rx="2.171" ry="2.171" transform="translate(21.715)" fill="#a854f3"/>
        <ellipse id="Elipse_11694" data-name="Elipse 11694" cx="2.171" cy="2.171" rx="2.171" ry="2.171" transform="translate(36.915 3.257)" fill="#a854f3"/>
        <ellipse id="Elipse_11695" data-name="Elipse 11695" cx="2.171" cy="2.171" rx="2.171" ry="2.171" transform="translate(43.429 10.857)" fill="#a854f3"/>
        <ellipse id="Elipse_11696" data-name="Elipse 11696" cx="2.171" cy="2.171" rx="2.171" ry="2.171" transform="translate(6.514 3.257)" fill="#a854f3"/>
        <ellipse id="Elipse_11697" data-name="Elipse 11697" cx="2.171" cy="2.171" rx="2.171" ry="2.171" transform="translate(0 10.857)" fill="#a854f3"/>
      </g>
      <path id="Trazado_879157" data-name="Trazado 879157" d="M50.879,13.484a3.257,3.257,0,0,0-6.254-.456H39a3.257,3.257,0,0,0-3.257,2.986c-1.086-.185-2.171-.337-3.257-.467V8.685A1.086,1.086,0,0,1,33.573,7.6h4.538a3.257,3.257,0,1,0,0-2.171H33.573a3.257,3.257,0,0,0-3.257,3.257v6.666c-1.086-.065-2.171-.119-3.257-.141V6.318a3.257,3.257,0,1,0-2.171,0V15.2c-1.086,0-2.171.076-3.257.141V8.685a3.257,3.257,0,0,0-3.257-3.257H13.834a3.257,3.257,0,1,0,0,2.171h4.538a1.086,1.086,0,0,1,1.086,1.086v6.862c-1.086.13-2.237.282-3.257.467a3.257,3.257,0,0,0-3.257-2.986H7.32a3.257,3.257,0,1,0,0,2.171h5.624a1.086,1.086,0,0,1,1.086,1.259c-4.473,1.086-7.6,2.845-7.6,5.255V30.4c0,1.259.869,2.345,2.334,3.257-1.542.934-2.334,2.019-2.334,3.257V45.6c0,3.626,7.068,5.787,15.135,6.352a1.088,1.088,0,1,0,.13-2.171C13.074,49.2,8.6,46.914,8.6,45.6c0-6.145-.065-5.526.141-5.429,4.766,3.062,15.2,3.539,21.66,3.105a1.089,1.089,0,1,0-.174-2.171,54.938,54.938,0,0,1-15.113-.934C10.327,39.086,8.6,37.631,8.6,36.914c0-.467.717-1.281,2.638-2.085,7.6,2.769,21.867,2.779,29.467,0,1.922.8,2.638,1.618,2.638,2.085,0,.738-1.737,2.171-6.514,3.257-.738.163-1.509.315-2.313.434a1.1,1.1,0,1,0,.3,2.171,27.48,27.48,0,0,0,7.937-2.345c.814-.434.6-1.162.6,5.157,0,1.314-4.473,3.6-13.094,4.191a1.088,1.088,0,1,0,.13,2.171c8.056-.565,15.124-2.725,15.124-6.352V36.914c0-1.238-.793-2.323-2.334-3.257,1.466-.912,2.334-2,2.334-3.257V21.714c0-2.41-3.127-4.18-7.6-5.255,0-1.259.966-1.259,1.086-1.259h5.624a3.257,3.257,0,0,0,6.254-1.715ZM41.173,5.428a1.086,1.086,0,1,1-1.086,1.086A1.086,1.086,0,0,1,41.173,5.428ZM10.772,7.6a1.086,1.086,0,1,1,1.086-1.086A1.086,1.086,0,0,1,10.772,7.6ZM4.258,15.2a1.086,1.086,0,1,1,1.086-1.086A1.086,1.086,0,0,1,4.258,15.2ZM25.973,2.171a1.086,1.086,0,1,1-1.086,1.086A1.086,1.086,0,0,1,25.973,2.171ZM43.344,21.714c0,.738-1.737,2.171-6.514,3.257a55.85,55.85,0,0,1-16.167.825,1.091,1.091,0,1,0-.217,2.171c7.872.717,15.526-.293,18.664-1.335A15.667,15.667,0,0,0,43.344,24.9v5.5c0,1.086-2.921,2.269-3.062,2.269-2.845,1.086-7.6,2.074-14.31,2.074-10.054,0-14.115-2.085-14.332-2.085C9.687,31.877,8.6,31.03,8.6,30.4V24.9a21.563,21.563,0,0,0,7.416,2.5,1.1,1.1,0,1,0,.369-2.171l-1.27-.25C10.327,23.886,8.6,22.431,8.6,21.714s1.846-2.085,5.429-3.029v3.029a1.086,1.086,0,0,0,2.171,0V18.207q1.487-.293,3.257-.489v1.824a1.086,1.086,0,0,0,2.171,0V17.523c1.021-.076,2.117-.119,3.257-.13v5.429a1.086,1.086,0,0,0,2.171,0v-5.45c1.14,0,2.237.054,3.257.13v2.041a1.086,1.086,0,0,0,2.171,0V17.719q1.77.2,3.257.489v3.507a1.086,1.086,0,0,0,2.171,0V18.685C41.5,19.629,43.344,20.878,43.344,21.714ZM47.687,15.2a1.086,1.086,0,1,1,1.086-1.086A1.086,1.086,0,0,1,47.687,15.2Z" transform="translate(-0.992 -0.007)" fill="#033c59"/>
      <path id="Trazado_879158" data-name="Trazado 879158" d="M25.171,47.086a1.086,1.086,0,1,0-1.086,1.086A1.086,1.086,0,0,0,25.171,47.086Z" transform="translate(0.895 3.936)" fill="#033c59"/>
    </g>
  </g>
</svg>
