<svg xmlns="http://www.w3.org/2000/svg" width="60" height="60" viewBox="0 0 60 60">
  <g id="view-configuration-seting-web_bdesign-adjustment" data-name="view-configuration-seting-web bdesign-adjustment" transform="translate(-2 -2)">
    <path id="Trazado_880237" data-name="Trazado 880237" d="M59,2H5A3.009,3.009,0,0,0,2,5V49a3.009,3.009,0,0,0,3,3H17v7a3.009,3.009,0,0,0,3,3H44a3.009,3.009,0,0,0,3-3V52H59a3.009,3.009,0,0,0,3-3V5a3.009,3.009,0,0,0-3-3ZM45,59a1,1,0,0,1-1,1H20a1,1,0,0,1-1-1V47a1,1,0,0,1,1-1H44a1,1,0,0,1,1,1ZM60,49a1,1,0,0,1-1,1H47V47a3.009,3.009,0,0,0-3-3H20a3.009,3.009,0,0,0-3,3v3H5a1,1,0,0,1-1-1V12H60Zm0-39H4V5A1,1,0,0,1,5,4H59a1,1,0,0,1,1,1Z" fill="#fff"/>
    <path id="Trazado_880238" data-name="Trazado 880238" d="M8,6H7A1,1,0,0,0,7,8H8A1,1,0,0,0,8,6Z" fill="#fff"/>
    <path id="Trazado_880239" data-name="Trazado 880239" d="M12,6H11a1,1,0,0,0,0,2h1a1,1,0,0,0,0-2Z" fill="#fff"/>
    <path id="Trazado_880240" data-name="Trazado 880240" d="M16,6H15a1,1,0,0,0,0,2h1a1,1,0,0,0,0-2Z" fill="#fff"/>
    <path id="Trazado_880241" data-name="Trazado 880241" d="M57,6H22a1,1,0,0,0,0,2H57a1,1,0,0,0,0-2Z" fill="#fff"/>
    <path id="Trazado_880242" data-name="Trazado 880242" d="M55,16H52.97a4.94,4.94,0,0,0-7.94,0H9a3,3,0,1,0,0,6H45.03a4.94,4.94,0,0,0,7.94,0H55a3,3,0,0,0,0-6ZM44.1,20H9a1,1,0,0,1-1-1,.949.949,0,0,1,.31-.71A.928.928,0,0,1,9,18H44.1a5.05,5.05,0,0,0,0,2ZM49,22a3,3,0,1,1,3-3,3,3,0,0,1-3,3Zm6.69-2.29A.928.928,0,0,1,55,20H53.9a5.05,5.05,0,0,0,0-2H55a1,1,0,0,1,1,1,.949.949,0,0,1-.31.71Z" fill="#fff"/>
    <path id="Trazado_880243" data-name="Trazado 880243" d="M55,26H35.97a4.94,4.94,0,0,0-7.94,0H9a3,3,0,0,0,0,6H28.03a4.94,4.94,0,0,0,7.94,0H55a3,3,0,0,0,0-6ZM27.1,30H9a1,1,0,0,1-1-1,.949.949,0,0,1,.31-.71A.928.928,0,0,1,9,28H27.1a5.05,5.05,0,0,0,0,2ZM32,32a3,3,0,1,1,3-3A3,3,0,0,1,32,32Zm23.69-2.29A.928.928,0,0,1,55,30H36.9a5.05,5.05,0,0,0,0-2H55a1,1,0,0,1,1,1,.949.949,0,0,1-.31.71Z" fill="#fff"/>
    <path id="Trazado_880244" data-name="Trazado 880244" d="M55,36H18.97a4.94,4.94,0,0,0-7.94,0H9a3,3,0,0,0,0,6h2.03a4.94,4.94,0,0,0,7.94,0H55a3,3,0,0,0,0-6ZM10.1,40H9a1,1,0,0,1-1-1,.949.949,0,0,1,.31-.71A.928.928,0,0,1,9,38h1.1A5.05,5.05,0,0,0,10.1,40ZM15,42a3,3,0,1,1,3-3,3,3,0,0,1-3,3Zm40.69-2.29A.928.928,0,0,1,55,40H19.9a5.05,5.05,0,0,0,0-2H55a1,1,0,0,1,1,1A.949.949,0,0,1,55.69,39.71Z" fill="#fff"/>
    <path id="Trazado_880245" data-name="Trazado 880245" d="M42.483,52.125C41.72,51.7,34.935,48,32,48s-9.72,3.7-10.483,4.125a1,1,0,0,0,0,1.75C22.28,54.3,29.065,58,32,58s9.72-3.7,10.483-4.125a1,1,0,0,0,0-1.75ZM32,55a2,2,0,1,1,2-2A2,2,0,0,1,32,55Zm-3.418-4.047a3.891,3.891,0,0,0,0,4.094c-1.507-.6-3.148-1.387-4.442-2.047C25.434,52.34,27.075,51.556,28.582,50.953Zm6.836,4.094a3.891,3.891,0,0,0,0-4.094c1.507.6,3.148,1.387,4.442,2.047-1.294.66-2.935,1.444-4.442,2.047Z" fill="#fff"/>
  </g>
</svg>
