<svg xmlns="http://www.w3.org/2000/svg" width="50" height="50" viewBox="0 0 50 50">
  <g id="Grupo_1104217" data-name="Grupo 1104217" transform="translate(-495 -5215)">
    <circle id="Elipse_11716" data-name="Elipse 11716" cx="25" cy="25" r="25" transform="translate(495 5215)" fill="#00ffdf"/>
    <path id="Trazado_880545" data-name="Trazado 880545" d="M3.489,9.362h1.4A1.453,1.453,0,0,0,6.548,7.736a1.406,1.406,0,0,0-.4-1.033,1.5,1.5,0,0,0-1.116-.4,1.606,1.606,0,0,0-1.024.343,1.046,1.046,0,0,0-.435.853H.615a3.032,3.032,0,0,1,.563-1.8,3.715,3.715,0,0,1,1.56-1.235,5.334,5.334,0,0,1,2.193-.444,5.241,5.241,0,0,1,3.357.976A3.243,3.243,0,0,1,9.51,7.675,2.7,2.7,0,0,1,9,9.235a3.6,3.6,0,0,1-1.472,1.191,3.441,3.441,0,0,1,1.6,1.121,2.951,2.951,0,0,1,.58,1.859,3.3,3.3,0,0,1-1.318,2.742,5.472,5.472,0,0,1-3.463,1.028A5.675,5.675,0,0,1,2.6,16.7,3.656,3.656,0,0,1,.967,15.37,3.45,3.45,0,0,1,.413,13.44H3.393a1.334,1.334,0,0,0,.475,1.02,1.676,1.676,0,0,0,1.169.431,1.755,1.755,0,0,0,1.248-.435,1.454,1.454,0,0,0,.466-1.112,1.7,1.7,0,0,0-.483-1.371,2.021,2.021,0,0,0-1.336-.4H3.489Z" transform="translate(515 5229)" fill="#12263f"/>
  </g>
</svg>
