<svg xmlns="http://www.w3.org/2000/svg" xmlns:xlink="http://www.w3.org/1999/xlink" width="351" height="854.672" viewBox="0 0 351 854.672">
  <defs>
    <clipPath id="clip-path">
      <rect id="Rectángulo_403656" data-name="Rectángulo 403656" width="84.269" height="84.269" fill="none"/>
    </clipPath>
    <clipPath id="clip-path-2">
      <rect id="Rectángulo_403655" data-name="Rectángulo 403655" width="84.269" height="84.26" fill="none"/>
    </clipPath>
  </defs>
  <g id="Grupo_1103376" data-name="Grupo 1103376" transform="translate(4377 3666)">
    <path id="Trazado_880521" data-name="Trazado 880521" d="M5.188,12.656a.665.665,0,0,0-.27-.645,3.385,3.385,0,0,0-1.285-.473,4.649,4.649,0,0,1-2.125-.9A1.721,1.721,0,0,1,.961,9.008a2.747,2.747,0,0,1,1.18-1.863A4.2,4.2,0,0,1,4.7,6.391a3.565,3.565,0,0,1,2.441.77,1.95,1.95,0,0,1,.676,1.9L7.8,9.109H5.6a1.018,1.018,0,0,0-.215-.832,1.143,1.143,0,0,0-.9-.316,1.458,1.458,0,0,0-.9.273.994.994,0,0,0-.418.672.658.658,0,0,0,.242.641A3.3,3.3,0,0,0,4.7,9.984a4.721,4.721,0,0,1,2.184.918,1.784,1.784,0,0,1,.535,1.668,2.67,2.67,0,0,1-1.238,1.879,4.719,4.719,0,0,1-2.684.715A3.458,3.458,0,0,1,.965,14.3a2.086,2.086,0,0,1-.684-1.941L.3,12.313H2.391A1.041,1.041,0,0,0,2.7,13.3a1.648,1.648,0,0,0,1.059.3,1.741,1.741,0,0,0,.992-.254A.969.969,0,0,0,5.188,12.656Zm7,2.508A3.361,3.361,0,0,1,9.395,14a3.71,3.71,0,0,1-.668-2.98l.047-.312a5.35,5.35,0,0,1,1.48-3.129,4.072,4.072,0,0,1,3.012-1.184A2.829,2.829,0,0,1,15.7,7.438a3.7,3.7,0,0,1,.523,2.8l-.172,1.18H11.008l-.016.039a1.957,1.957,0,0,0,.32,1.418,1.6,1.6,0,0,0,1.359.535,4.993,4.993,0,0,0,1.266-.141,9.4,9.4,0,0,0,1.2-.422l.352,1.438a5.365,5.365,0,0,1-1.418.617A6.622,6.622,0,0,1,12.188,15.164Zm.82-7.016a1.462,1.462,0,0,0-1.109.473,2.765,2.765,0,0,0-.641,1.246l.016.047h2.766l.031-.172a1.857,1.857,0,0,0-.141-1.176A.973.973,0,0,0,13.008,8.148Zm8.078-3.672-.3,2.07h1.43l-.234,1.6H20.555l-.625,4.3a.887.887,0,0,0,.1.711.65.65,0,0,0,.52.2,2.284,2.284,0,0,0,.313-.02,2.514,2.514,0,0,0,.313-.066l-.047,1.648a5.04,5.04,0,0,1-.7.176,4.184,4.184,0,0,1-.719.059A2.116,2.116,0,0,1,18,14.508a2.538,2.538,0,0,1-.352-2.047l.625-4.312H17.039l.234-1.6H18.5l.3-2.07Zm7.734,8.07H25.133L24.008,15H21.625L27.109,3.625h2.336L31.617,15H29.234Zm-2.867-1.789h2.563l-.672-4L27.8,6.75Zm10.3-6.281-.3,2.07h1.43l-.234,1.6H35.727l-.625,4.3a.887.887,0,0,0,.1.711.65.65,0,0,0,.52.2,2.284,2.284,0,0,0,.313-.02,2.514,2.514,0,0,0,.313-.066L36.3,14.93a5.04,5.04,0,0,1-.7.176,4.184,4.184,0,0,1-.719.059,2.116,2.116,0,0,1-1.711-.656,2.538,2.538,0,0,1-.352-2.047l.625-4.312H32.211l.234-1.6h1.227l.3-2.07Zm5.492,0-.3,2.07h1.43l-.234,1.6H41.219l-.625,4.3a.887.887,0,0,0,.1.711.65.65,0,0,0,.52.2,2.284,2.284,0,0,0,.313-.02,2.514,2.514,0,0,0,.313-.066l-.047,1.648a5.04,5.04,0,0,1-.7.176,4.184,4.184,0,0,1-.719.059,2.116,2.116,0,0,1-1.711-.656,2.538,2.538,0,0,1-.352-2.047l.625-4.312H37.7l.234-1.6h1.227l.3-2.07Zm6.656,4.031-.828-.023a1.642,1.642,0,0,0-.863.219,1.722,1.722,0,0,0-.6.617L45.3,15H43.023L44.25,6.547h2.117l-.078,1.242A3.168,3.168,0,0,1,47.2,6.754a1.971,1.971,0,0,1,1.148-.363,1.659,1.659,0,0,1,.309.027q.145.027.285.066ZM51.055,15H48.773L50,6.547h2.281ZM52.57,4.523H50.289l.25-1.711H52.82Zm8.563,6.484a5.661,5.661,0,0,1-1.281,3.043,3.333,3.333,0,0,1-2.6,1.113,2.268,2.268,0,0,1-1.234-.32,2.209,2.209,0,0,1-.8-.93L54.859,15H52.93L54.7,2.813h2.273L56.3,7.445a3.349,3.349,0,0,1,1-.781,2.669,2.669,0,0,1,1.211-.273,2.38,2.38,0,0,1,2.254,1.223,5.077,5.077,0,0,1,.395,3.23Zm-2.25-.164A4.213,4.213,0,0,0,58.8,8.875a1.075,1.075,0,0,0-1.133-.711,1.814,1.814,0,0,0-.918.23,2.063,2.063,0,0,0-.684.645L55.555,12.6a1.116,1.116,0,0,0,.492.59,1.744,1.744,0,0,0,.883.2,1.518,1.518,0,0,0,1.313-.629,3.969,3.969,0,0,0,.617-1.754Zm8.438,2.93A3.447,3.447,0,0,1,66.18,14.8a2.975,2.975,0,0,1-1.453.359,2.219,2.219,0,0,1-1.945-.91,3.9,3.9,0,0,1-.359-2.809l.711-4.9h2.273L64.7,11.461a2.546,2.546,0,0,0,.07,1.531.948.948,0,0,0,.883.4,2.366,2.366,0,0,0,.953-.184,1.982,1.982,0,0,0,.719-.527l.9-6.133H70.5L69.273,15H67.383Zm7.891-9.3-.3,2.07h1.43l-.234,1.6H74.68l-.625,4.3a.887.887,0,0,0,.1.711.65.65,0,0,0,.52.2,2.284,2.284,0,0,0,.313-.02,2.515,2.515,0,0,0,.313-.066L75.25,14.93a5.04,5.04,0,0,1-.7.176,4.184,4.184,0,0,1-.719.059,2.116,2.116,0,0,1-1.711-.656,2.538,2.538,0,0,1-.352-2.047L72.4,8.148H71.164l.234-1.6h1.227l.3-2.07Zm4.961,10.688A3.361,3.361,0,0,1,77.379,14a3.71,3.71,0,0,1-.668-2.98l.047-.312a5.35,5.35,0,0,1,1.48-3.129A4.072,4.072,0,0,1,81.25,6.391a2.829,2.829,0,0,1,2.438,1.047,3.7,3.7,0,0,1,.523,2.8l-.172,1.18H78.992l-.016.039a1.957,1.957,0,0,0,.32,1.418,1.6,1.6,0,0,0,1.359.535,4.993,4.993,0,0,0,1.266-.141,9.4,9.4,0,0,0,1.2-.422l.352,1.438a5.365,5.365,0,0,1-1.418.617A6.622,6.622,0,0,1,80.172,15.164Zm.82-7.016a1.462,1.462,0,0,0-1.109.473,2.765,2.765,0,0,0-.641,1.246l.016.047h2.766l.031-.172a1.857,1.857,0,0,0-.141-1.176A.973.973,0,0,0,80.992,8.148ZM1.039,34.383a12.079,12.079,0,0,1,.473-3.391,9.85,9.85,0,0,1,1.41-2.953,6,6,0,0,1,1.945-1.875l.3.953a6.222,6.222,0,0,0-1.871,2.672,11.583,11.583,0,0,0-.8,4.023l-.008.664a11.643,11.643,0,0,0,1.1,5.234,6.252,6.252,0,0,0,1.578,2.078l-.3.883a6.192,6.192,0,0,1-1.984-1.937A10.859,10.859,0,0,1,1.039,34.383ZM7.93,30.547l.047,1.063a3.08,3.08,0,0,1,2.531-1.219q2.68,0,2.7,3.023V39H11.766V33.406a1.946,1.946,0,0,0-.418-1.352,1.675,1.675,0,0,0-1.277-.437,2.086,2.086,0,0,0-1.234.375,2.546,2.546,0,0,0-.828.984V39H6.563V30.547ZM15.008,34.7a4.993,4.993,0,0,1,.488-2.234,3.643,3.643,0,0,1,1.359-1.531,3.7,3.7,0,0,1,1.988-.539,3.565,3.565,0,0,1,2.793,1.2,4.6,4.6,0,0,1,1.066,3.18v.1a5.036,5.036,0,0,1-.473,2.215,3.589,3.589,0,0,1-1.352,1.527,3.743,3.743,0,0,1-2.02.547,3.556,3.556,0,0,1-2.785-1.2A4.575,4.575,0,0,1,15.008,34.8Zm1.453.172a3.616,3.616,0,0,0,.652,2.258,2.211,2.211,0,0,0,3.5-.012,3.955,3.955,0,0,0,.648-2.418,3.61,3.61,0,0,0-.66-2.254,2.1,2.1,0,0,0-1.754-.863,2.075,2.075,0,0,0-1.727.852A3.925,3.925,0,0,0,16.461,34.867Zm9.414-4.32.039.938a3.122,3.122,0,0,1,2.508-1.094,2.417,2.417,0,0,1,2.414,1.359,3.2,3.2,0,0,1,1.1-.984,3.242,3.242,0,0,1,1.6-.375q2.781,0,2.828,2.945V39H34.914V33.422a1.941,1.941,0,0,0-.414-1.355,1.823,1.823,0,0,0-1.391-.449,1.916,1.916,0,0,0-1.336.48,1.949,1.949,0,0,0-.617,1.293V39H29.7V33.461a1.613,1.613,0,0,0-1.8-1.844,1.934,1.934,0,0,0-1.945,1.211V39H24.508V30.547Zm19.82,4.32A5.026,5.026,0,0,1,44.8,37.98a2.846,2.846,0,0,1-2.391,1.176,2.947,2.947,0,0,1-2.477-1.133l-.07.977H38.539V27h1.445v4.477A2.93,2.93,0,0,1,42.4,30.391a2.863,2.863,0,0,1,2.418,1.164,5.177,5.177,0,0,1,.879,3.188ZM44.25,34.7a3.906,3.906,0,0,0-.57-2.281,1.888,1.888,0,0,0-1.641-.8,2.122,2.122,0,0,0-2.055,1.328V36.6a2.181,2.181,0,0,0,2.07,1.328,1.878,1.878,0,0,0,1.617-.8A4.153,4.153,0,0,0,44.25,34.7ZM51.6,31.844a4.331,4.331,0,0,0-.711-.055A1.9,1.9,0,0,0,48.961,33v6H47.516V30.547h1.406l.023.977a2.251,2.251,0,0,1,2.016-1.133,1.477,1.477,0,0,1,.641.109Zm4.688,7.313a3.693,3.693,0,0,1-2.8-1.129,4.19,4.19,0,0,1-1.078-3.02v-.266a5.073,5.073,0,0,1,.48-2.246,3.748,3.748,0,0,1,1.344-1.547,3.378,3.378,0,0,1,1.871-.559,3.166,3.166,0,0,1,2.563,1.086,4.7,4.7,0,0,1,.914,3.109v.6H53.859a3,3,0,0,0,.73,2.02,2.3,2.3,0,0,0,1.777.77,2.517,2.517,0,0,0,1.3-.312,3.258,3.258,0,0,0,.93-.828l.883.688A3.55,3.55,0,0,1,56.289,39.156Zm-.18-7.578a1.928,1.928,0,0,0-1.469.637A3.1,3.1,0,0,0,53.906,34h4.234v-.109a2.753,2.753,0,0,0-.594-1.707A1.815,1.815,0,0,0,56.109,31.578Zm5.1,9.688-.82-.562a3.77,3.77,0,0,0,.766-2.109v-1.3H62.57v1.133A3.559,3.559,0,0,1,62.184,40,3.7,3.7,0,0,1,61.211,41.266Zm6.766-6.57a4.993,4.993,0,0,1,.488-2.234,3.643,3.643,0,0,1,1.359-1.531,3.7,3.7,0,0,1,1.988-.539,3.565,3.565,0,0,1,2.793,1.2,4.6,4.6,0,0,1,1.066,3.18v.1a5.036,5.036,0,0,1-.473,2.215,3.589,3.589,0,0,1-1.352,1.527,3.743,3.743,0,0,1-2.02.547,3.556,3.556,0,0,1-2.785-1.2A4.575,4.575,0,0,1,67.977,34.8Zm1.453.172a3.616,3.616,0,0,0,.652,2.258,2.211,2.211,0,0,0,3.5-.012,3.955,3.955,0,0,0,.648-2.418,3.61,3.61,0,0,0-.66-2.254,2.1,2.1,0,0,0-1.754-.863,2.075,2.075,0,0,0-1.727.852A3.925,3.925,0,0,0,69.43,34.867Zm15.211,0a5.026,5.026,0,0,1-.891,3.113,2.846,2.846,0,0,1-2.391,1.176,2.947,2.947,0,0,1-2.477-1.133l-.07.977H77.484V27H78.93v4.477a2.93,2.93,0,0,1,2.414-1.086,2.863,2.863,0,0,1,2.418,1.164,5.177,5.177,0,0,1,.879,3.188ZM83.2,34.7a3.906,3.906,0,0,0-.57-2.281,1.888,1.888,0,0,0-1.641-.8,2.122,2.122,0,0,0-2.055,1.328V36.6A2.181,2.181,0,0,0,81,37.93a1.878,1.878,0,0,0,1.617-.8A4.153,4.153,0,0,0,83.2,34.7Zm4.758-4.156v9.43q0,2.438-2.211,2.438a2.7,2.7,0,0,1-.883-.14V41.125a2.794,2.794,0,0,0,.656.063.982.982,0,0,0,.738-.262,1.3,1.3,0,0,0,.254-.911V30.547ZM86.359,28.3a.867.867,0,0,1,.215-.59.79.79,0,0,1,.629-.246.819.819,0,0,1,.641.242.854.854,0,0,1,.219.594.826.826,0,0,1-.219.586.834.834,0,0,1-.641.234.808.808,0,0,1-.633-.234A.843.843,0,0,1,86.359,28.3Zm7.43,10.852a3.693,3.693,0,0,1-2.8-1.129,4.19,4.19,0,0,1-1.078-3.02v-.266a5.073,5.073,0,0,1,.48-2.246,3.748,3.748,0,0,1,1.344-1.547,3.378,3.378,0,0,1,1.871-.559,3.166,3.166,0,0,1,2.563,1.086,4.7,4.7,0,0,1,.914,3.109v.6H91.359a3,3,0,0,0,.73,2.02,2.3,2.3,0,0,0,1.777.77,2.517,2.517,0,0,0,1.3-.312,3.259,3.259,0,0,0,.93-.828l.883.688A3.55,3.55,0,0,1,93.789,39.156Zm-.18-7.578a1.928,1.928,0,0,0-1.469.637A3.1,3.1,0,0,0,91.406,34h4.234v-.109a2.753,2.753,0,0,0-.594-1.707A1.815,1.815,0,0,0,93.609,31.578Zm7.109-3.078v2.047H102.3v1.117h-1.578v5.249a1.173,1.173,0,0,0,.211.763.888.888,0,0,0,.719.254,3.5,3.5,0,0,0,.688-.094V39a4.215,4.215,0,0,1-1.109.155,1.8,1.8,0,0,1-1.461-.586,2.517,2.517,0,0,1-.492-1.664V31.664H97.734V30.547h1.539V28.5Zm2.727,6.2a4.993,4.993,0,0,1,.488-2.234,3.643,3.643,0,0,1,1.359-1.531,3.7,3.7,0,0,1,1.988-.539,3.565,3.565,0,0,1,2.793,1.2,4.6,4.6,0,0,1,1.066,3.18v.1a5.036,5.036,0,0,1-.473,2.215,3.589,3.589,0,0,1-1.352,1.527,3.743,3.743,0,0,1-2.02.547,3.556,3.556,0,0,1-2.785-1.2,4.575,4.575,0,0,1-1.066-3.164Zm1.453.172a3.616,3.616,0,0,0,.652,2.258,2.211,2.211,0,0,0,3.5-.012A3.955,3.955,0,0,0,109.7,34.7a3.61,3.61,0,0,0-.66-2.254,2.1,2.1,0,0,0-1.754-.863,2.075,2.075,0,0,0-1.727.852A3.925,3.925,0,0,0,104.9,34.867Zm11.391-.406a12.085,12.085,0,0,1-.457,3.34,9.876,9.876,0,0,1-1.4,2.949,6.127,6.127,0,0,1-1.973,1.922l-.3-.883a6.281,6.281,0,0,0,1.934-2.863,12.387,12.387,0,0,0,.746-4.309v-.25a12.861,12.861,0,0,0-.344-3.051,10.3,10.3,0,0,0-.957-2.527,5.838,5.838,0,0,0-1.379-1.742l.3-.883a6.1,6.1,0,0,1,1.965,1.906,9.9,9.9,0,0,1,1.4,2.945A12.363,12.363,0,0,1,116.289,34.461ZM.516,82.844a6.245,6.245,0,0,1,1.332-3.25,3.308,3.308,0,0,1,2.621-1.2,2.11,2.11,0,0,1,1.191.328,2.308,2.308,0,0,1,.793.93l.344-1.1H8.758L7.539,86.961a3.715,3.715,0,0,1-1.445,2.57,5.16,5.16,0,0,1-3.141.883,5.372,5.372,0,0,1-1.328-.18,5.757,5.757,0,0,1-1.266-.477l.625-1.7a4.665,4.665,0,0,0,1.031.379,5.107,5.107,0,0,0,1.188.129,2.269,2.269,0,0,0,1.422-.395,1.808,1.808,0,0,0,.633-1.215l.109-.766a3.158,3.158,0,0,1-.988.727,2.833,2.833,0,0,1-1.2.25A2.455,2.455,0,0,1,.938,86.016a4.36,4.36,0,0,1-.445-3.008Zm2.258.164a3.248,3.248,0,0,0,.117,1.758,1.109,1.109,0,0,0,1.125.625,2,2,0,0,0,.906-.2,1.845,1.845,0,0,0,.672-.574l.531-3.633a1.272,1.272,0,0,0-.5-.609,1.539,1.539,0,0,0-.84-.211,1.528,1.528,0,0,0-1.316.746A4.6,4.6,0,0,0,2.8,82.844Zm10.2,4.156A3.361,3.361,0,0,1,10.176,86a3.71,3.71,0,0,1-.668-2.98l.047-.312a5.35,5.35,0,0,1,1.48-3.129,4.072,4.072,0,0,1,3.012-1.184,2.829,2.829,0,0,1,2.438,1.047,3.7,3.7,0,0,1,.523,2.8l-.172,1.18H11.789l-.016.039a1.957,1.957,0,0,0,.32,1.418,1.6,1.6,0,0,0,1.359.535,4.993,4.993,0,0,0,1.266-.141,9.4,9.4,0,0,0,1.2-.422l.352,1.438a5.365,5.365,0,0,1-1.418.617A6.622,6.622,0,0,1,12.969,87.164Zm.82-7.016a1.462,1.462,0,0,0-1.109.473,2.765,2.765,0,0,0-.641,1.246l.016.047H14.82l.031-.172a1.857,1.857,0,0,0-.141-1.176A.973.973,0,0,0,13.789,80.148Zm8.078-3.672-.3,2.07h1.43l-.234,1.6H21.336l-.625,4.3a.887.887,0,0,0,.1.711.65.65,0,0,0,.52.2,2.283,2.283,0,0,0,.313-.02,2.515,2.515,0,0,0,.313-.066l-.047,1.648a5.04,5.04,0,0,1-.7.176,4.184,4.184,0,0,1-.719.059,2.116,2.116,0,0,1-1.711-.656,2.538,2.538,0,0,1-.352-2.047l.625-4.312H17.82l.234-1.6h1.227l.3-2.07Zm7.734,8.07H25.914L24.789,87H22.406l5.484-11.375h2.336L32.4,87H30.016Zm-2.867-1.789H29.3l-.672-4-.047-.008Zm10.3-6.281-.3,2.07h1.43l-.234,1.6H36.508l-.625,4.3a.887.887,0,0,0,.1.711.65.65,0,0,0,.52.2,2.283,2.283,0,0,0,.313-.02,2.515,2.515,0,0,0,.313-.066l-.047,1.648a5.04,5.04,0,0,1-.7.176,4.184,4.184,0,0,1-.719.059,2.116,2.116,0,0,1-1.711-.656,2.538,2.538,0,0,1-.352-2.047l.625-4.312H32.992l.234-1.6h1.227l.3-2.07Zm5.492,0-.3,2.07h1.43l-.234,1.6H42l-.625,4.3a.887.887,0,0,0,.1.711.65.65,0,0,0,.52.2,2.283,2.283,0,0,0,.313-.02,2.515,2.515,0,0,0,.313-.066L42.57,86.93a5.04,5.04,0,0,1-.7.176,4.184,4.184,0,0,1-.719.059,2.116,2.116,0,0,1-1.711-.656,2.538,2.538,0,0,1-.352-2.047l.625-4.312H38.484l.234-1.6h1.227l.3-2.07Zm6.656,4.031-.828-.023a1.642,1.642,0,0,0-.863.219,1.722,1.722,0,0,0-.6.617L46.078,87H43.8l1.227-8.453h2.117l-.078,1.242a3.168,3.168,0,0,1,.914-1.035,1.971,1.971,0,0,1,1.148-.363,1.66,1.66,0,0,1,.309.027q.145.027.285.066ZM51.836,87H49.555l1.227-8.453h2.281Zm1.516-10.477H51.07l.25-1.711H53.6Zm8.563,6.484a5.661,5.661,0,0,1-1.281,3.043,3.333,3.333,0,0,1-2.6,1.113,2.268,2.268,0,0,1-1.234-.32,2.209,2.209,0,0,1-.8-.93L55.641,87h-1.93l1.766-12.187H57.75l-.672,4.633a3.349,3.349,0,0,1,1-.781,2.67,2.67,0,0,1,1.211-.273,2.38,2.38,0,0,1,2.254,1.223,5.077,5.077,0,0,1,.395,3.23Zm-2.25-.164a4.213,4.213,0,0,0-.078-1.969,1.075,1.075,0,0,0-1.133-.711,1.814,1.814,0,0,0-.918.23,2.063,2.063,0,0,0-.684.645L56.336,84.6a1.116,1.116,0,0,0,.492.59,1.744,1.744,0,0,0,.883.2,1.517,1.517,0,0,0,1.313-.629,3.969,3.969,0,0,0,.617-1.754Zm8.438,2.93A3.447,3.447,0,0,1,66.961,86.8a2.975,2.975,0,0,1-1.453.359,2.219,2.219,0,0,1-1.945-.91,3.9,3.9,0,0,1-.359-2.809l.711-4.9h2.273l-.711,4.914a2.546,2.546,0,0,0,.07,1.531.948.948,0,0,0,.883.4,2.366,2.366,0,0,0,.953-.184,1.982,1.982,0,0,0,.719-.527l.9-6.133h2.281L70.055,87H68.164Zm7.891-9.3-.3,2.07h1.43l-.234,1.6H75.461l-.625,4.3a.887.887,0,0,0,.1.711.65.65,0,0,0,.52.2,2.283,2.283,0,0,0,.313-.02,2.515,2.515,0,0,0,.313-.066l-.047,1.648a5.04,5.04,0,0,1-.7.176,4.184,4.184,0,0,1-.719.059,2.116,2.116,0,0,1-1.711-.656,2.538,2.538,0,0,1-.352-2.047l.625-4.312H71.945l.234-1.6h1.227l.3-2.07Zm4.961,10.688A3.361,3.361,0,0,1,78.16,86a3.71,3.71,0,0,1-.668-2.98l.047-.312a5.35,5.35,0,0,1,1.48-3.129,4.072,4.072,0,0,1,3.012-1.184,2.829,2.829,0,0,1,2.438,1.047,3.7,3.7,0,0,1,.523,2.8l-.172,1.18H79.773l-.016.039a1.957,1.957,0,0,0,.32,1.418,1.6,1.6,0,0,0,1.359.535,4.993,4.993,0,0,0,1.266-.141,9.4,9.4,0,0,0,1.2-.422l.352,1.438a5.365,5.365,0,0,1-1.418.617A6.622,6.622,0,0,1,80.953,87.164Zm.82-7.016a1.462,1.462,0,0,0-1.109.473,2.765,2.765,0,0,0-.641,1.246l.016.047H82.8l.031-.172a1.857,1.857,0,0,0-.141-1.176A.973.973,0,0,0,81.773,80.148ZM1.039,106.383a12.079,12.079,0,0,1,.473-3.391,9.85,9.85,0,0,1,1.41-2.953,6,6,0,0,1,1.945-1.875l.3.953a6.222,6.222,0,0,0-1.871,2.672,11.583,11.583,0,0,0-.8,4.023l-.008.664a11.643,11.643,0,0,0,1.1,5.234,6.252,6.252,0,0,0,1.578,2.078l-.3.883a6.192,6.192,0,0,1-1.984-1.937A10.859,10.859,0,0,1,1.039,106.383Zm6.891-3.836.047,1.063a3.08,3.08,0,0,1,2.531-1.219q2.68,0,2.7,3.023V111H11.766v-5.594a1.946,1.946,0,0,0-.418-1.352,1.675,1.675,0,0,0-1.277-.437,2.086,2.086,0,0,0-1.234.375,2.546,2.546,0,0,0-.828.984V111H6.563v-8.453Zm7.078,4.148a4.993,4.993,0,0,1,.488-2.234,3.643,3.643,0,0,1,1.359-1.531,3.7,3.7,0,0,1,1.988-.539,3.565,3.565,0,0,1,2.793,1.2,4.6,4.6,0,0,1,1.066,3.18v.1a5.036,5.036,0,0,1-.473,2.215,3.589,3.589,0,0,1-1.352,1.527,3.743,3.743,0,0,1-2.02.547,3.556,3.556,0,0,1-2.785-1.2,4.575,4.575,0,0,1-1.066-3.164Zm1.453.172a3.616,3.616,0,0,0,.652,2.258,2.211,2.211,0,0,0,3.5-.012,3.955,3.955,0,0,0,.648-2.418,3.61,3.61,0,0,0-.66-2.254,2.1,2.1,0,0,0-1.754-.863,2.075,2.075,0,0,0-1.727.852A3.925,3.925,0,0,0,16.461,106.867Zm9.414-4.32.039.938a3.122,3.122,0,0,1,2.508-1.094,2.417,2.417,0,0,1,2.414,1.359,3.2,3.2,0,0,1,1.1-.984,3.242,3.242,0,0,1,1.6-.375q2.781,0,2.828,2.945V111H34.914v-5.578a1.941,1.941,0,0,0-.414-1.355,1.823,1.823,0,0,0-1.391-.449,1.916,1.916,0,0,0-1.336.48,1.949,1.949,0,0,0-.617,1.293V111H29.7v-5.539a1.613,1.613,0,0,0-1.8-1.844,1.934,1.934,0,0,0-1.945,1.211V111H24.508v-8.453Zm19.82,4.32a5.026,5.026,0,0,1-.891,3.113,2.846,2.846,0,0,1-2.391,1.176,2.947,2.947,0,0,1-2.477-1.133l-.07.977H38.539V99h1.445v4.477a2.93,2.93,0,0,1,2.414-1.086,2.863,2.863,0,0,1,2.418,1.164,5.177,5.177,0,0,1,.879,3.188ZM44.25,106.7a3.906,3.906,0,0,0-.57-2.281,1.888,1.888,0,0,0-1.641-.8,2.122,2.122,0,0,0-2.055,1.328V108.6a2.181,2.181,0,0,0,2.07,1.328,1.878,1.878,0,0,0,1.617-.8A4.153,4.153,0,0,0,44.25,106.7Zm7.352-2.859a4.331,4.331,0,0,0-.711-.055A1.9,1.9,0,0,0,48.961,105v6H47.516v-8.453h1.406l.023.977a2.251,2.251,0,0,1,2.016-1.133,1.477,1.477,0,0,1,.641.109Zm4.688,7.313a3.693,3.693,0,0,1-2.8-1.129,4.19,4.19,0,0,1-1.078-3.02v-.266a5.073,5.073,0,0,1,.48-2.246,3.748,3.748,0,0,1,1.344-1.547,3.378,3.378,0,0,1,1.871-.559,3.166,3.166,0,0,1,2.563,1.086,4.7,4.7,0,0,1,.914,3.109v.6H53.859a3,3,0,0,0,.73,2.02,2.3,2.3,0,0,0,1.777.77,2.517,2.517,0,0,0,1.3-.312,3.259,3.259,0,0,0,.93-.828l.883.688A3.55,3.55,0,0,1,56.289,111.156Zm-.18-7.578a1.928,1.928,0,0,0-1.469.637A3.1,3.1,0,0,0,53.906,106h4.234v-.109a2.753,2.753,0,0,0-.594-1.707A1.815,1.815,0,0,0,56.109,103.578Zm5.1,9.688-.82-.562a3.77,3.77,0,0,0,.766-2.109v-1.3H62.57v1.133A3.559,3.559,0,0,1,62.184,112,3.7,3.7,0,0,1,61.211,113.266Zm6.766-6.57a4.993,4.993,0,0,1,.488-2.234,3.643,3.643,0,0,1,1.359-1.531,3.7,3.7,0,0,1,1.988-.539,3.565,3.565,0,0,1,2.793,1.2,4.6,4.6,0,0,1,1.066,3.18v.1a5.036,5.036,0,0,1-.473,2.215,3.589,3.589,0,0,1-1.352,1.527,3.743,3.743,0,0,1-2.02.547,3.556,3.556,0,0,1-2.785-1.2,4.575,4.575,0,0,1-1.066-3.164Zm1.453.172a3.616,3.616,0,0,0,.652,2.258,2.211,2.211,0,0,0,3.5-.012,3.955,3.955,0,0,0,.648-2.418,3.61,3.61,0,0,0-.66-2.254,2.1,2.1,0,0,0-1.754-.863,2.075,2.075,0,0,0-1.727.852A3.925,3.925,0,0,0,69.43,106.867Zm15.211,0a5.026,5.026,0,0,1-.891,3.113,2.846,2.846,0,0,1-2.391,1.176,2.947,2.947,0,0,1-2.477-1.133l-.07.977H77.484V99H78.93v4.477a2.93,2.93,0,0,1,2.414-1.086,2.863,2.863,0,0,1,2.418,1.164,5.177,5.177,0,0,1,.879,3.188ZM83.2,106.7a3.906,3.906,0,0,0-.57-2.281,1.888,1.888,0,0,0-1.641-.8,2.122,2.122,0,0,0-2.055,1.328V108.6A2.181,2.181,0,0,0,81,109.93a1.878,1.878,0,0,0,1.617-.8A4.153,4.153,0,0,0,83.2,106.7Zm4.758-4.156v9.43q0,2.438-2.211,2.438a2.7,2.7,0,0,1-.883-.14v-1.149a2.794,2.794,0,0,0,.656.063.982.982,0,0,0,.738-.262,1.3,1.3,0,0,0,.254-.911v-9.468ZM86.359,100.3a.867.867,0,0,1,.215-.59.79.79,0,0,1,.629-.246.819.819,0,0,1,.641.242.854.854,0,0,1,.219.594.826.826,0,0,1-.219.586.834.834,0,0,1-.641.234.808.808,0,0,1-.633-.234A.843.843,0,0,1,86.359,100.3Zm7.43,10.852a3.693,3.693,0,0,1-2.8-1.129,4.19,4.19,0,0,1-1.078-3.02v-.266a5.073,5.073,0,0,1,.48-2.246,3.748,3.748,0,0,1,1.344-1.547,3.378,3.378,0,0,1,1.871-.559,3.166,3.166,0,0,1,2.563,1.086,4.7,4.7,0,0,1,.914,3.109v.6H91.359a3,3,0,0,0,.73,2.02,2.3,2.3,0,0,0,1.777.77,2.517,2.517,0,0,0,1.3-.312,3.259,3.259,0,0,0,.93-.828l.883.688A3.55,3.55,0,0,1,93.789,111.156Zm-.18-7.578a1.928,1.928,0,0,0-1.469.637A3.1,3.1,0,0,0,91.406,106h4.234v-.109a2.753,2.753,0,0,0-.594-1.707A1.815,1.815,0,0,0,93.609,103.578Zm7.109-3.078v2.047H102.3v1.117h-1.578v5.249a1.173,1.173,0,0,0,.211.763.888.888,0,0,0,.719.254,3.5,3.5,0,0,0,.688-.094V111a4.215,4.215,0,0,1-1.109.155,1.8,1.8,0,0,1-1.461-.586,2.517,2.517,0,0,1-.492-1.664v-5.242H97.734v-1.117h1.539V100.5Zm2.727,6.2a4.993,4.993,0,0,1,.488-2.234,3.643,3.643,0,0,1,1.359-1.531,3.7,3.7,0,0,1,1.988-.539,3.565,3.565,0,0,1,2.793,1.2,4.6,4.6,0,0,1,1.066,3.18v.1a5.036,5.036,0,0,1-.473,2.215,3.589,3.589,0,0,1-1.352,1.527,3.743,3.743,0,0,1-2.02.547,3.556,3.556,0,0,1-2.785-1.2,4.575,4.575,0,0,1-1.066-3.164Zm1.453.172a3.616,3.616,0,0,0,.652,2.258,2.211,2.211,0,0,0,3.5-.012,3.955,3.955,0,0,0,.648-2.418,3.61,3.61,0,0,0-.66-2.254,2.1,2.1,0,0,0-1.754-.863,2.075,2.075,0,0,0-1.727.852A3.925,3.925,0,0,0,104.9,106.867Zm11.391-.406a12.084,12.084,0,0,1-.457,3.34,9.876,9.876,0,0,1-1.4,2.949,6.127,6.127,0,0,1-1.973,1.922l-.3-.883a6.281,6.281,0,0,0,1.934-2.863,12.387,12.387,0,0,0,.746-4.309v-.25a12.861,12.861,0,0,0-.344-3.051,10.3,10.3,0,0,0-.957-2.527,5.838,5.838,0,0,0-1.379-1.742l.3-.883a6.1,6.1,0,0,1,1.965,1.906,9.9,9.9,0,0,1,1.4,2.945A12.363,12.363,0,0,1,116.289,106.461ZM2.648,159H.367l1.227-8.453H3.875Zm1.516-10.477H1.883l.25-1.711H4.414Zm5.3,8.133a.665.665,0,0,0-.27-.645,3.385,3.385,0,0,0-1.285-.473,4.649,4.649,0,0,1-2.125-.9,1.721,1.721,0,0,1-.547-1.633,2.747,2.747,0,0,1,1.18-1.863,4.2,4.2,0,0,1,2.563-.754,3.565,3.565,0,0,1,2.441.77,1.95,1.95,0,0,1,.676,1.9l-.016.047h-2.2a1.018,1.018,0,0,0-.215-.832,1.143,1.143,0,0,0-.9-.316,1.458,1.458,0,0,0-.9.273.994.994,0,0,0-.418.672.658.658,0,0,0,.242.641,3.3,3.3,0,0,0,1.289.438,4.721,4.721,0,0,1,2.184.918,1.784,1.784,0,0,1,.535,1.668,2.67,2.67,0,0,1-1.238,1.879,4.719,4.719,0,0,1-2.684.715,3.458,3.458,0,0,1-2.527-.863,2.086,2.086,0,0,1-.684-1.941l.023-.047H6.664a1.041,1.041,0,0,0,.309.984,1.648,1.648,0,0,0,1.059.3,1.741,1.741,0,0,0,.992-.254A.969.969,0,0,0,9.461,156.656ZM26.117,159H23.844l-3.477-7.672-.047.008L19.211,159H16.922l1.648-11.375h2.289l3.477,7.656.047-.008,1.109-7.648h2.273Zm5.539.164A3.361,3.361,0,0,1,28.863,158a3.71,3.71,0,0,1-.668-2.98l.047-.312a5.35,5.35,0,0,1,1.48-3.129,4.072,4.072,0,0,1,3.012-1.184,2.829,2.829,0,0,1,2.438,1.047,3.7,3.7,0,0,1,.523,2.8l-.172,1.18H30.477l-.016.039a1.956,1.956,0,0,0,.32,1.418,1.6,1.6,0,0,0,1.359.535,4.993,4.993,0,0,0,1.266-.141,9.4,9.4,0,0,0,1.2-.422l.352,1.438a5.365,5.365,0,0,1-1.418.617A6.622,6.622,0,0,1,31.656,159.164Zm.82-7.016a1.462,1.462,0,0,0-1.109.473,2.765,2.765,0,0,0-.641,1.246l.016.047h2.766l.031-.172a1.857,1.857,0,0,0-.141-1.176A.973.973,0,0,0,32.477,152.148Zm11.672,3.7H44.2l1.789-5.3H48.2L44.828,159H42.922l-.859-4.867-.047-.008L39.734,159h-1.9l-.922-8.453h2.219l.266,5.273.047.008,2.352-5.281H43.32Zm8.727-1.469a11.791,11.791,0,0,1,1.91-5.234,7.279,7.279,0,0,1,3.082-2.734l.047.008.25,1.133a6.907,6.907,0,0,0-2.066,2.469,12.687,12.687,0,0,0-1.3,4.344l-.023.2a11.194,11.194,0,0,0,.07,4.379,4.805,4.805,0,0,0,1.383,2.457l-.578,1.117h-.039a4.87,4.87,0,0,1-2.3-2.766,9.829,9.829,0,0,1-.453-5.2Zm9.266.172a11.55,11.55,0,0,1-1.957,5.2,7.5,7.5,0,0,1-3.152,2.777l-.047-.008-.266-1.117a7.043,7.043,0,0,0,2.059-2.477,12.77,12.77,0,0,0,1.316-4.359l.023-.2a11.078,11.078,0,0,0-.09-4.371,4.964,4.964,0,0,0-1.363-2.473l.586-1.109H59.3a4.951,4.951,0,0,1,2.355,2.8,9.67,9.67,0,0,1,.512,5.164ZM.516,202.844a6.245,6.245,0,0,1,1.332-3.25,3.308,3.308,0,0,1,2.621-1.2,2.11,2.11,0,0,1,1.191.328,2.308,2.308,0,0,1,.793.93l.344-1.1H8.758l-1.219,8.414a3.715,3.715,0,0,1-1.445,2.57,5.16,5.16,0,0,1-3.141.883,5.372,5.372,0,0,1-1.328-.18,5.757,5.757,0,0,1-1.266-.477l.625-1.7a4.665,4.665,0,0,0,1.031.379,5.107,5.107,0,0,0,1.188.129,2.269,2.269,0,0,0,1.422-.395,1.808,1.808,0,0,0,.633-1.215l.109-.766a3.158,3.158,0,0,1-.988.727,2.833,2.833,0,0,1-1.2.25,2.455,2.455,0,0,1-2.242-1.148,4.36,4.36,0,0,1-.445-3.008Zm2.258.164a3.248,3.248,0,0,0,.117,1.758,1.109,1.109,0,0,0,1.125.625,2,2,0,0,0,.906-.2,1.845,1.845,0,0,0,.672-.574l.531-3.633a1.272,1.272,0,0,0-.5-.609,1.539,1.539,0,0,0-.84-.211,1.528,1.528,0,0,0-1.316.746,4.6,4.6,0,0,0-.676,1.934Zm10.2,4.156A3.361,3.361,0,0,1,10.176,206a3.71,3.71,0,0,1-.668-2.98l.047-.312a5.35,5.35,0,0,1,1.48-3.129,4.072,4.072,0,0,1,3.012-1.184,2.829,2.829,0,0,1,2.438,1.047,3.7,3.7,0,0,1,.523,2.8l-.172,1.18H11.789l-.016.039a1.956,1.956,0,0,0,.32,1.418,1.6,1.6,0,0,0,1.359.535,4.993,4.993,0,0,0,1.266-.141,9.4,9.4,0,0,0,1.2-.422l.352,1.438a5.365,5.365,0,0,1-1.418.617A6.622,6.622,0,0,1,12.969,207.164Zm.82-7.016a1.462,1.462,0,0,0-1.109.473,2.765,2.765,0,0,0-.641,1.246l.016.047H14.82l.031-.172a1.857,1.857,0,0,0-.141-1.176A.973.973,0,0,0,13.789,200.148Zm8.078-3.672-.3,2.07h1.43l-.234,1.6H21.336l-.625,4.3a.887.887,0,0,0,.1.711.65.65,0,0,0,.52.2,2.284,2.284,0,0,0,.313-.02,2.514,2.514,0,0,0,.313-.066l-.047,1.648a5.04,5.04,0,0,1-.7.176,4.184,4.184,0,0,1-.719.059,2.116,2.116,0,0,1-1.711-.656,2.538,2.538,0,0,1-.352-2.047l.625-4.312H17.82l.234-1.6h1.227l.3-2.07ZM25.539,207H23.258l1.766-12.187H27.3Zm2.125-4.156A6.245,6.245,0,0,1,29,199.594a3.3,3.3,0,0,1,2.613-1.2,2.064,2.064,0,0,1,1.09.281,2.3,2.3,0,0,1,.777.8l.68-4.656h2.289L34.68,207H32.734l-.047-1.039a3.411,3.411,0,0,1-1.07.895,2.77,2.77,0,0,1-1.3.309,2.446,2.446,0,0,1-2.238-1.148,4.376,4.376,0,0,1-.441-3.008Zm2.25.164a3.217,3.217,0,0,0,.121,1.758,1.116,1.116,0,0,0,1.129.625,1.908,1.908,0,0,0,.887-.2,1.971,1.971,0,0,0,.684-.594l.523-3.586a1.389,1.389,0,0,0-.5-.621,1.433,1.433,0,0,0-.816-.223,1.537,1.537,0,0,0-1.32.746,4.567,4.567,0,0,0-.68,1.934Zm11.3-.633a11.791,11.791,0,0,1,1.91-5.234,7.279,7.279,0,0,1,3.082-2.734l.047.008.25,1.133a6.907,6.907,0,0,0-2.066,2.469,12.687,12.687,0,0,0-1.3,4.344l-.023.2a11.194,11.194,0,0,0,.07,4.379,4.805,4.805,0,0,0,1.383,2.457l-.578,1.117h-.039a4.87,4.87,0,0,1-2.3-2.766,9.829,9.829,0,0,1-.453-5.2Zm9.266.172a11.55,11.55,0,0,1-1.957,5.2,7.5,7.5,0,0,1-3.152,2.777l-.047-.008-.266-1.117a7.043,7.043,0,0,0,2.059-2.477,12.77,12.77,0,0,0,1.316-4.359l.023-.2a11.078,11.078,0,0,0-.09-4.371A4.964,4.964,0,0,0,47,195.516l.586-1.109h.047a4.951,4.951,0,0,1,2.355,2.8,9.67,9.67,0,0,1,.512,5.164ZM2.859,255H.578l1.648-11.375H4.508Zm5.258-7.266a3.689,3.689,0,0,1,1.176-.992,3.048,3.048,0,0,1,1.441-.352,2.151,2.151,0,0,1,1.863.832,3.572,3.572,0,0,1,.355,2.6L12.2,255H9.914l.75-5.172a1.9,1.9,0,0,0-.125-1.3,1.022,1.022,0,0,0-.9-.367A2.122,2.122,0,0,0,8,248.906L7.117,255H4.836l1.227-8.453H8.188Zm9.3,4.117.031.773.047.008.273-.781,2.164-5.3h2.383L18.211,255h-2.18l-1.648-8.453h2.383ZM26.781,255a2.968,2.968,0,0,1-.105-.582,5.226,5.226,0,0,1-.012-.676,3.9,3.9,0,0,1-1.078,1.02,2.608,2.608,0,0,1-1.43.4,2.5,2.5,0,0,1-1.93-.687,2.165,2.165,0,0,1-.469-1.859A2.655,2.655,0,0,1,23,250.68a5.344,5.344,0,0,1,2.895-.672h1.273l.1-.672a1.2,1.2,0,0,0-.184-.953,1.106,1.106,0,0,0-.9-.328,1.421,1.421,0,0,0-.891.27,1.068,1.068,0,0,0-.414.738h-2.2l-.008-.047a2.552,2.552,0,0,1,1.2-1.863,4.6,4.6,0,0,1,2.7-.762,3.341,3.341,0,0,1,2.332.77,2.327,2.327,0,0,1,.645,2.191l-.508,3.492a5.949,5.949,0,0,0-.074,1.125A5.6,5.6,0,0,0,29.1,255Zm-1.82-1.523a2.178,2.178,0,0,0,1.1-.3,1.969,1.969,0,0,0,.75-.691l.172-1.187H25.7a1.723,1.723,0,0,0-1.145.363,1.361,1.361,0,0,0-.5.879.76.76,0,0,0,.172.688A.979.979,0,0,0,24.961,253.477ZM32.836,255H30.555l1.766-12.187H34.6Zm4.273,0H34.828l1.227-8.453h2.281Zm1.516-10.477H36.344l.25-1.711h2.281Zm.609,6.32a6.245,6.245,0,0,1,1.332-3.25,3.3,3.3,0,0,1,2.613-1.2,2.064,2.064,0,0,1,1.09.281,2.3,2.3,0,0,1,.777.8l.68-4.656h2.289L46.25,255H44.3l-.047-1.039a3.411,3.411,0,0,1-1.07.895,2.77,2.77,0,0,1-1.3.309,2.446,2.446,0,0,1-2.238-1.148,4.376,4.376,0,0,1-.441-3.008Zm2.25.164a3.217,3.217,0,0,0,.121,1.758,1.116,1.116,0,0,0,1.129.625,1.908,1.908,0,0,0,.887-.2,1.971,1.971,0,0,0,.684-.594l.523-3.586a1.389,1.389,0,0,0-.5-.621,1.433,1.433,0,0,0-.816-.223,1.537,1.537,0,0,0-1.32.746,4.567,4.567,0,0,0-.68,1.934ZM52.953,255a2.968,2.968,0,0,1-.105-.582,5.226,5.226,0,0,1-.012-.676,3.9,3.9,0,0,1-1.078,1.02,2.608,2.608,0,0,1-1.43.4,2.5,2.5,0,0,1-1.93-.687,2.165,2.165,0,0,1-.469-1.859,2.655,2.655,0,0,1,1.238-1.937,5.344,5.344,0,0,1,2.895-.672h1.273l.1-.672a1.2,1.2,0,0,0-.184-.953,1.106,1.106,0,0,0-.9-.328,1.421,1.421,0,0,0-.891.27,1.068,1.068,0,0,0-.414.738h-2.2l-.008-.047a2.552,2.552,0,0,1,1.2-1.863,4.6,4.6,0,0,1,2.7-.762,3.341,3.341,0,0,1,2.332.77,2.327,2.327,0,0,1,.645,2.191l-.508,3.492a5.949,5.949,0,0,0-.074,1.125A5.6,5.6,0,0,0,55.273,255Zm-1.82-1.523a2.178,2.178,0,0,0,1.1-.3,1.969,1.969,0,0,0,.75-.691l.172-1.187H51.875a1.723,1.723,0,0,0-1.145.363,1.361,1.361,0,0,0-.5.879.76.76,0,0,0,.172.688A.979.979,0,0,0,51.133,253.477Zm9.7-9-.3,2.07h1.43l-.234,1.6H60.3l-.625,4.3a.887.887,0,0,0,.1.711.65.65,0,0,0,.52.2,2.284,2.284,0,0,0,.313-.02,2.513,2.513,0,0,0,.313-.066l-.047,1.648a5.04,5.04,0,0,1-.7.176,4.184,4.184,0,0,1-.719.059,2.116,2.116,0,0,1-1.711-.656,2.538,2.538,0,0,1-.352-2.047l.625-4.312H56.781l.234-1.6h1.227l.3-2.07Zm4.961,10.688A3.361,3.361,0,0,1,63,254a3.71,3.71,0,0,1-.668-2.98l.047-.312a5.35,5.35,0,0,1,1.48-3.129,4.072,4.072,0,0,1,3.012-1.184,2.829,2.829,0,0,1,2.438,1.047,3.7,3.7,0,0,1,.523,2.8l-.172,1.18H64.609l-.016.039a1.956,1.956,0,0,0,.32,1.418,1.6,1.6,0,0,0,1.359.535,4.993,4.993,0,0,0,1.266-.141,9.4,9.4,0,0,0,1.2-.422l.352,1.438a5.365,5.365,0,0,1-1.418.617A6.622,6.622,0,0,1,65.789,255.164Zm.82-7.016a1.462,1.462,0,0,0-1.109.473,2.765,2.765,0,0,0-.641,1.246l.016.047h2.766l.031-.172a1.857,1.857,0,0,0-.141-1.176A.973.973,0,0,0,66.609,248.148Zm8.625,2.227a11.791,11.791,0,0,1,1.91-5.234,7.279,7.279,0,0,1,3.082-2.734l.047.008.25,1.133a6.907,6.907,0,0,0-2.066,2.469,12.687,12.687,0,0,0-1.3,4.344l-.023.2a11.194,11.194,0,0,0,.07,4.379,4.805,4.805,0,0,0,1.383,2.457l-.578,1.117h-.039a4.87,4.87,0,0,1-2.3-2.766,9.829,9.829,0,0,1-.453-5.2Zm9.266.172a11.55,11.55,0,0,1-1.957,5.2,7.5,7.5,0,0,1-3.152,2.777l-.047-.008-.266-1.117a7.043,7.043,0,0,0,2.059-2.477,12.77,12.77,0,0,0,1.316-4.359l.023-.2a11.078,11.078,0,0,0-.09-4.371,4.964,4.964,0,0,0-1.363-2.473l.586-1.109h.047a4.951,4.951,0,0,1,2.355,2.8,9.67,9.67,0,0,1,.512,5.164ZM5.188,300.656a.665.665,0,0,0-.27-.645,3.385,3.385,0,0,0-1.285-.473,4.649,4.649,0,0,1-2.125-.9,1.721,1.721,0,0,1-.547-1.633,2.747,2.747,0,0,1,1.18-1.863,4.2,4.2,0,0,1,2.563-.754,3.565,3.565,0,0,1,2.441.77,1.95,1.95,0,0,1,.676,1.9l-.016.047H5.6a1.018,1.018,0,0,0-.215-.832,1.143,1.143,0,0,0-.9-.316,1.458,1.458,0,0,0-.9.273.994.994,0,0,0-.418.672.658.658,0,0,0,.242.641,3.3,3.3,0,0,0,1.289.438,4.721,4.721,0,0,1,2.184.918,1.784,1.784,0,0,1,.535,1.668,2.67,2.67,0,0,1-1.238,1.879,4.719,4.719,0,0,1-2.684.715A3.458,3.458,0,0,1,.965,302.3a2.086,2.086,0,0,1-.684-1.941l.023-.047H2.391a1.041,1.041,0,0,0,.309.984,1.648,1.648,0,0,0,1.059.3,1.74,1.74,0,0,0,.992-.254A.969.969,0,0,0,5.188,300.656Zm7,2.508A3.361,3.361,0,0,1,9.395,302a3.71,3.71,0,0,1-.668-2.98l.047-.312a5.35,5.35,0,0,1,1.48-3.129,4.072,4.072,0,0,1,3.012-1.184,2.829,2.829,0,0,1,2.438,1.047,3.7,3.7,0,0,1,.523,2.8l-.172,1.18H11.008l-.016.039a1.957,1.957,0,0,0,.32,1.418,1.6,1.6,0,0,0,1.359.535,4.993,4.993,0,0,0,1.266-.141,9.4,9.4,0,0,0,1.2-.422l.352,1.438a5.365,5.365,0,0,1-1.418.617A6.622,6.622,0,0,1,12.188,303.164Zm.82-7.016a1.462,1.462,0,0,0-1.109.473,2.765,2.765,0,0,0-.641,1.246l.016.047h2.766l.031-.172a1.857,1.857,0,0,0-.141-1.176A.973.973,0,0,0,13.008,296.148Zm8.078-3.672-.3,2.07h1.43l-.234,1.6H20.555l-.625,4.3a.887.887,0,0,0,.1.711.65.65,0,0,0,.52.2,2.282,2.282,0,0,0,.313-.02,2.516,2.516,0,0,0,.313-.066l-.047,1.648a5.04,5.04,0,0,1-.7.176,4.184,4.184,0,0,1-.719.059A2.116,2.116,0,0,1,18,302.508a2.538,2.538,0,0,1-.352-2.047l.625-4.312H17.039l.234-1.6H18.5l.3-2.07Zm7.75,7.531.047.008,4.133-8.391h2.977L34.344,303H32.063l1.117-7.758-.039-.008L29.2,303H27.656l-1.68-7.8H25.93L24.8,303H22.516l1.648-11.375h2.992ZM41.133,303a2.968,2.968,0,0,1-.105-.582,5.226,5.226,0,0,1-.012-.676,3.9,3.9,0,0,1-1.078,1.02,2.608,2.608,0,0,1-1.43.4,2.5,2.5,0,0,1-1.93-.687,2.165,2.165,0,0,1-.469-1.859,2.655,2.655,0,0,1,1.238-1.937,5.344,5.344,0,0,1,2.895-.672h1.273l.1-.672a1.2,1.2,0,0,0-.184-.953,1.106,1.106,0,0,0-.9-.328,1.421,1.421,0,0,0-.891.27,1.068,1.068,0,0,0-.414.738h-2.2l-.008-.047a2.552,2.552,0,0,1,1.2-1.863,4.6,4.6,0,0,1,2.7-.762,3.341,3.341,0,0,1,2.332.77,2.327,2.327,0,0,1,.645,2.191l-.508,3.492a5.949,5.949,0,0,0-.074,1.125A5.6,5.6,0,0,0,43.453,303Zm-1.82-1.523a2.178,2.178,0,0,0,1.1-.3,1.969,1.969,0,0,0,.75-.691l.172-1.187H40.055a1.723,1.723,0,0,0-1.145.363,1.361,1.361,0,0,0-.5.879.76.76,0,0,0,.172.688A.979.979,0,0,0,39.313,301.477Zm9.492-4.25.047.008,1.688-2.687h2.578l-3.156,4.18L51.977,303h-2.57l-.977-2.8L46.641,303H44.063l3.25-4.273-1.945-4.18H47.93ZM55.57,303H53.289l1.648-11.375h2.281Zm5.258-7.266A3.689,3.689,0,0,1,62,294.742a3.048,3.048,0,0,1,1.441-.352,2.151,2.151,0,0,1,1.863.832,3.572,3.572,0,0,1,.355,2.6l-.75,5.18H62.625l.75-5.172a1.9,1.9,0,0,0-.125-1.3,1.022,1.022,0,0,0-.9-.367,2.122,2.122,0,0,0-1.641.742L59.828,303H57.547l1.227-8.453H60.9ZM71.555,303a2.968,2.968,0,0,1-.105-.582,5.227,5.227,0,0,1-.012-.676,3.9,3.9,0,0,1-1.078,1.02,2.608,2.608,0,0,1-1.43.4,2.5,2.5,0,0,1-1.93-.687,2.165,2.165,0,0,1-.469-1.859,2.655,2.655,0,0,1,1.238-1.937,5.344,5.344,0,0,1,2.895-.672h1.273l.1-.672a1.2,1.2,0,0,0-.184-.953,1.106,1.106,0,0,0-.9-.328,1.421,1.421,0,0,0-.891.27,1.068,1.068,0,0,0-.414.738h-2.2l-.008-.047a2.552,2.552,0,0,1,1.2-1.863,4.6,4.6,0,0,1,2.7-.762,3.341,3.341,0,0,1,2.332.77,2.327,2.327,0,0,1,.645,2.191l-.508,3.492a5.949,5.949,0,0,0-.074,1.125A5.6,5.6,0,0,0,73.875,303Zm-1.82-1.523a2.178,2.178,0,0,0,1.1-.3,1.969,1.969,0,0,0,.75-.691l.172-1.187H70.477a1.723,1.723,0,0,0-1.145.363,1.361,1.361,0,0,0-.5.879.76.76,0,0,0,.172.688A.979.979,0,0,0,69.734,301.477Zm9.234-.062a1.458,1.458,0,0,0,.988-.355,1.524,1.524,0,0,0,.5-.949h2.07l.016.047a3.137,3.137,0,0,1-1.262,2.16,4.079,4.079,0,0,1-2.566.848,3.113,3.113,0,0,1-2.707-1.207,4.035,4.035,0,0,1-.6-3.059l.031-.234a5.28,5.28,0,0,1,1.465-3.086,4.158,4.158,0,0,1,3.066-1.187,3.048,3.048,0,0,1,2.348.895,2.627,2.627,0,0,1,.59,2.348l-.016.039H80.813a1.534,1.534,0,0,0-.191-1.094,1,1,0,0,0-.9-.43,1.545,1.545,0,0,0-1.348.715,4.218,4.218,0,0,0-.645,1.8l-.031.234a3.623,3.623,0,0,0,.1,1.832A1.124,1.124,0,0,0,78.969,301.414Zm8.711-8.937-.3,2.07H88.8l-.234,1.6H87.148l-.625,4.3a.887.887,0,0,0,.1.711.65.65,0,0,0,.52.2,2.282,2.282,0,0,0,.313-.02,2.516,2.516,0,0,0,.313-.066l-.047,1.648a5.04,5.04,0,0,1-.7.176,4.184,4.184,0,0,1-.719.059,2.116,2.116,0,0,1-1.711-.656,2.538,2.538,0,0,1-.352-2.047l.625-4.312H83.633l.234-1.6h1.227l.3-2.07ZM91.352,303H89.07l1.227-8.453h2.281Zm1.516-10.477H90.586l.25-1.711h2.281Zm3.867,7.328.031.773.047.008.273-.781,2.164-5.3h2.383L97.531,303h-2.18L93.7,294.547h2.383Zm8.141,3.313A3.361,3.361,0,0,1,102.082,302a3.71,3.71,0,0,1-.668-2.98l.047-.312a5.35,5.35,0,0,1,1.48-3.129,4.072,4.072,0,0,1,3.012-1.184,2.829,2.829,0,0,1,2.438,1.047,3.7,3.7,0,0,1,.523,2.8l-.172,1.18H103.7l-.016.039a1.957,1.957,0,0,0,.32,1.418,1.6,1.6,0,0,0,1.359.535,4.993,4.993,0,0,0,1.266-.141,9.4,9.4,0,0,0,1.2-.422l.352,1.438a5.365,5.365,0,0,1-1.418.617A6.622,6.622,0,0,1,104.875,303.164Zm.82-7.016a1.462,1.462,0,0,0-1.109.473,2.765,2.765,0,0,0-.641,1.246l.016.047h2.766l.031-.172a1.857,1.857,0,0,0-.141-1.176A.973.973,0,0,0,105.7,296.148ZM112.164,303h-2.281l1.648-11.375h2.281Zm5.258-7.266a3.689,3.689,0,0,1,1.176-.992,3.048,3.048,0,0,1,1.441-.352,2.151,2.151,0,0,1,1.863.832,3.572,3.572,0,0,1,.355,2.6l-.75,5.18h-2.289l.75-5.172a1.9,1.9,0,0,0-.125-1.3,1.022,1.022,0,0,0-.9-.367,2.122,2.122,0,0,0-1.641.742L116.422,303h-2.281l1.227-8.453h2.125Zm10.008-3.258-.3,2.07h1.43l-.234,1.6H126.9l-.625,4.3a.887.887,0,0,0,.1.711.65.65,0,0,0,.52.2,2.282,2.282,0,0,0,.313-.02,2.516,2.516,0,0,0,.313-.066l-.047,1.648a5.04,5.04,0,0,1-.7.176,4.184,4.184,0,0,1-.719.059,2.116,2.116,0,0,1-1.711-.656,2.538,2.538,0,0,1-.352-2.047l.625-4.312h-1.234l.234-1.6h1.227l.3-2.07Zm4.961,10.688A3.361,3.361,0,0,1,129.6,302a3.71,3.71,0,0,1-.668-2.98l.047-.312a5.35,5.35,0,0,1,1.48-3.129,4.072,4.072,0,0,1,3.012-1.184,2.829,2.829,0,0,1,2.438,1.047,3.7,3.7,0,0,1,.523,2.8l-.172,1.18h-5.047l-.016.039a1.957,1.957,0,0,0,.32,1.418,1.6,1.6,0,0,0,1.359.535,4.993,4.993,0,0,0,1.266-.141,9.4,9.4,0,0,0,1.2-.422l.352,1.438a5.365,5.365,0,0,1-1.418.617A6.622,6.622,0,0,1,132.391,303.164Zm.82-7.016a1.462,1.462,0,0,0-1.109.473,2.765,2.765,0,0,0-.641,1.246l.016.047h2.766l.031-.172a1.857,1.857,0,0,0-.141-1.176A.973.973,0,0,0,133.211,296.148Zm9.242.359-.828-.023a1.642,1.642,0,0,0-.863.219,1.722,1.722,0,0,0-.6.617l-.82,5.68H137.07l1.227-8.453h2.117l-.078,1.242a3.168,3.168,0,0,1,.914-1.035,1.971,1.971,0,0,1,1.148-.363,1.66,1.66,0,0,1,.309.027q.145.027.285.066Zm4.039,3.344.031.773.047.008.273-.781,2.164-5.3h2.383l-4.1,8.453h-2.18l-1.648-8.453h2.383ZM155.859,303a2.969,2.969,0,0,1-.105-.582,5.224,5.224,0,0,1-.012-.676,3.9,3.9,0,0,1-1.078,1.02,2.608,2.608,0,0,1-1.43.4,2.5,2.5,0,0,1-1.93-.687,2.165,2.165,0,0,1-.469-1.859,2.655,2.655,0,0,1,1.238-1.937,5.344,5.344,0,0,1,2.895-.672h1.273l.1-.672a1.2,1.2,0,0,0-.184-.953,1.106,1.106,0,0,0-.9-.328,1.421,1.421,0,0,0-.891.27,1.068,1.068,0,0,0-.414.738h-2.2l-.008-.047a2.552,2.552,0,0,1,1.2-1.863,4.6,4.6,0,0,1,2.7-.762,3.341,3.341,0,0,1,2.332.77,2.327,2.327,0,0,1,.645,2.191l-.508,3.492a5.949,5.949,0,0,0-.074,1.125A5.6,5.6,0,0,0,158.18,303Zm-1.82-1.523a2.178,2.178,0,0,0,1.1-.3,1.969,1.969,0,0,0,.75-.691l.172-1.187h-1.281a1.723,1.723,0,0,0-1.145.363,1.361,1.361,0,0,0-.5.879.76.76,0,0,0,.172.688A.979.979,0,0,0,154.039,301.477ZM161.914,303h-2.281l1.766-12.187h2.281ZM1.039,322.383a12.079,12.079,0,0,1,.473-3.391,9.849,9.849,0,0,1,1.41-2.953,6,6,0,0,1,1.945-1.875l.3.953a6.222,6.222,0,0,0-1.871,2.672,11.583,11.583,0,0,0-.8,4.023l-.008.664a11.643,11.643,0,0,0,1.1,5.234,6.252,6.252,0,0,0,1.578,2.078l-.3.883a6.192,6.192,0,0,1-1.984-1.937A10.859,10.859,0,0,1,1.039,322.383ZM8.523,316.5v2.047H10.1v1.117H8.523v5.249a1.173,1.173,0,0,0,.211.763.888.888,0,0,0,.719.254,3.5,3.5,0,0,0,.688-.094V327a4.215,4.215,0,0,1-1.109.155,1.8,1.8,0,0,1-1.461-.586,2.517,2.517,0,0,1-.492-1.664v-5.242H5.539v-1.117H7.078V316.5ZM13.359,327H11.914v-8.453h1.445ZM11.8,316.3a.863.863,0,0,1,.215-.594.807.807,0,0,1,.637-.242.819.819,0,0,1,.641.242.854.854,0,0,1,.219.594.826.826,0,0,1-.219.586.834.834,0,0,1-.641.234.821.821,0,0,1-.637-.234A.834.834,0,0,1,11.8,316.3Zm7.383,10.852a3.693,3.693,0,0,1-2.8-1.129,4.19,4.19,0,0,1-1.078-3.02v-.266a5.073,5.073,0,0,1,.48-2.246,3.748,3.748,0,0,1,1.344-1.547A3.378,3.378,0,0,1,19,318.391a3.166,3.166,0,0,1,2.563,1.086,4.7,4.7,0,0,1,.914,3.109v.6H16.75a3,3,0,0,0,.73,2.02,2.3,2.3,0,0,0,1.777.77,2.517,2.517,0,0,0,1.3-.312,3.259,3.259,0,0,0,.93-.828l.883.688A3.55,3.55,0,0,1,19.18,327.156ZM19,319.578a1.928,1.928,0,0,0-1.469.637A3.1,3.1,0,0,0,16.8,322h4.234v-.109a2.753,2.753,0,0,0-.594-1.707A1.815,1.815,0,0,0,19,319.578Zm6.508-1.031.039.938a3.122,3.122,0,0,1,2.508-1.094,2.417,2.417,0,0,1,2.414,1.359,3.2,3.2,0,0,1,1.1-.984,3.242,3.242,0,0,1,1.6-.375q2.781,0,2.828,2.945V327H34.547v-5.578a1.941,1.941,0,0,0-.414-1.355,1.824,1.824,0,0,0-1.391-.449,1.916,1.916,0,0,0-1.336.48,1.949,1.949,0,0,0-.617,1.293V327H29.336v-5.539a1.613,1.613,0,0,0-1.8-1.844,1.934,1.934,0,0,0-1.945,1.211V327H24.141v-8.453Zm19.8,4.32a5.062,5.062,0,0,1-.883,3.109,2.829,2.829,0,0,1-2.391,1.18,3.1,3.1,0,0,1-2.422-.977v4.07H38.172v-11.7h1.32l.07.938a2.977,2.977,0,0,1,2.453-1.094,2.882,2.882,0,0,1,2.41,1.148,5.117,5.117,0,0,1,.887,3.2Zm-1.445-.164a3.735,3.735,0,0,0-.609-2.258,1.963,1.963,0,0,0-1.672-.828,2.125,2.125,0,0,0-1.969,1.164v4.039a2.129,2.129,0,0,0,1.984,1.156,1.954,1.954,0,0,0,1.652-.824A4.077,4.077,0,0,0,43.867,322.7Zm2.9-.008a4.993,4.993,0,0,1,.488-2.234,3.642,3.642,0,0,1,1.359-1.531,3.7,3.7,0,0,1,1.988-.539,3.565,3.565,0,0,1,2.793,1.2,4.6,4.6,0,0,1,1.066,3.18v.1a5.036,5.036,0,0,1-.473,2.215,3.589,3.589,0,0,1-1.352,1.527,3.743,3.743,0,0,1-2.02.547,3.556,3.556,0,0,1-2.785-1.2,4.575,4.575,0,0,1-1.066-3.164Zm1.453.172a3.616,3.616,0,0,0,.652,2.258,2.211,2.211,0,0,0,3.5-.012,3.955,3.955,0,0,0,.648-2.418,3.61,3.61,0,0,0-.66-2.254,2.1,2.1,0,0,0-1.754-.863,2.075,2.075,0,0,0-1.727.852A3.925,3.925,0,0,0,48.219,322.867Zm11.391-.406a12.084,12.084,0,0,1-.457,3.34,9.876,9.876,0,0,1-1.4,2.949,6.127,6.127,0,0,1-1.973,1.922l-.3-.883a6.281,6.281,0,0,0,1.934-2.863,12.387,12.387,0,0,0,.746-4.309v-.25a12.861,12.861,0,0,0-.344-3.051,10.3,10.3,0,0,0-.957-2.527,5.838,5.838,0,0,0-1.379-1.742l.3-.883a6.1,6.1,0,0,1,1.965,1.906,9.9,9.9,0,0,1,1.4,2.945A12.363,12.363,0,0,1,59.609,322.461Z" transform="translate(-4260 -3142)" fill="#12263f"/>
    <path id="Trazado_879329" data-name="Trazado 879329" d="M0,83.936Q44.473,67.508,44.473,13.312V-26.149q0-45.389,33.042-54.365-33.042-8.3-33.042-54.365v-38.445q0-57.244-43.69-72.486l2.192-7.621q25.055,8.468,37.348,27.521T52.93-176.2v42.171Q52.93-86.1,92.079-86.1v11.178q-39.149,0-39.149,48.268V13.482q0,31.5-12.293,50.554T2.975,91.726Z" transform="translate(-4281.98 -3259.768) rotate(90)" fill="#12263f"/>
    <rect id="Rectángulo_403662" data-name="Rectángulo 403662" width="82" height="319" rx="10" transform="translate(-4042 -3468) rotate(90)" fill="#d6e1fd"/>
    <g id="Grupo_1103373" data-name="Grupo 1103373" transform="translate(-4362 -3333)">
      <rect id="Rectángulo_403664" data-name="Rectángulo 403664" width="102" height="50" rx="10" fill="#a854f3" opacity="0.5"/>
      <path id="Trazado_880522" data-name="Trazado 880522" d="M19.945,12.242a1.235,1.235,0,0,0-.355-1.152,5.335,5.335,0,0,0-1.691-.863A7.8,7.8,0,0,1,14.98,8.719a2.465,2.465,0,0,1-.746-2.312,3,3,0,0,1,1.4-2.152,5.177,5.177,0,0,1,2.914-.793,4.455,4.455,0,0,1,3.008.926,2.586,2.586,0,0,1,.8,2.559l-.016.047H20.125a1.411,1.411,0,0,0-.4-1.277,1.96,1.96,0,0,0-1.43-.5,2.116,2.116,0,0,0-1.2.336,1.167,1.167,0,0,0-.57.836A1.1,1.1,0,0,0,16.895,7.5a7.217,7.217,0,0,0,1.941.879,6.817,6.817,0,0,1,2.73,1.48,2.624,2.624,0,0,1,.66,2.371,2.963,2.963,0,0,1-1.4,2.176,5.424,5.424,0,0,1-2.965.762,5.588,5.588,0,0,1-3.164-.848,2.4,2.4,0,0,1-.969-2.637l.016-.047h2.211A1.245,1.245,0,0,0,16.484,13a3.061,3.061,0,0,0,1.625.41,2.286,2.286,0,0,0,1.227-.328A1.192,1.192,0,0,0,19.945,12.242Zm6.8,2.922A3.361,3.361,0,0,1,23.949,14a3.71,3.71,0,0,1-.668-2.98l.047-.312a5.35,5.35,0,0,1,1.48-3.129A4.072,4.072,0,0,1,27.82,6.391a2.829,2.829,0,0,1,2.438,1.047,3.7,3.7,0,0,1,.523,2.8l-.172,1.18H25.563l-.016.039a1.957,1.957,0,0,0,.32,1.418,1.6,1.6,0,0,0,1.359.535,4.993,4.993,0,0,0,1.266-.141,9.4,9.4,0,0,0,1.2-.422l.352,1.438a5.365,5.365,0,0,1-1.418.617A6.622,6.622,0,0,1,26.742,15.164Zm.82-7.016a1.462,1.462,0,0,0-1.109.473,2.765,2.765,0,0,0-.641,1.246l.016.047h2.766l.031-.172a1.857,1.857,0,0,0-.141-1.176A.973.973,0,0,0,27.563,8.148Zm8.8,4.508a.665.665,0,0,0-.27-.645,3.385,3.385,0,0,0-1.285-.473,4.649,4.649,0,0,1-2.125-.9,1.721,1.721,0,0,1-.547-1.633,2.747,2.747,0,0,1,1.18-1.863,4.2,4.2,0,0,1,2.563-.754,3.565,3.565,0,0,1,2.441.77,1.95,1.95,0,0,1,.676,1.9l-.016.047h-2.2a1.018,1.018,0,0,0-.215-.832,1.143,1.143,0,0,0-.9-.316,1.458,1.458,0,0,0-.9.273.994.994,0,0,0-.418.672.658.658,0,0,0,.242.641,3.3,3.3,0,0,0,1.289.438,4.721,4.721,0,0,1,2.184.918,1.784,1.784,0,0,1,.535,1.668,2.67,2.67,0,0,1-1.238,1.879,4.719,4.719,0,0,1-2.684.715,3.458,3.458,0,0,1-2.527-.863,2.086,2.086,0,0,1-.684-1.941l.023-.047h2.086a1.041,1.041,0,0,0,.309.984,1.648,1.648,0,0,0,1.059.3,1.741,1.741,0,0,0,.992-.254A.969.969,0,0,0,36.359,12.656Zm8.25,0a.665.665,0,0,0-.27-.645,3.385,3.385,0,0,0-1.285-.473,4.649,4.649,0,0,1-2.125-.9,1.721,1.721,0,0,1-.547-1.633,2.747,2.747,0,0,1,1.18-1.863,4.2,4.2,0,0,1,2.563-.754,3.565,3.565,0,0,1,2.441.77,1.95,1.95,0,0,1,.676,1.9l-.016.047h-2.2a1.018,1.018,0,0,0-.215-.832,1.143,1.143,0,0,0-.9-.316,1.458,1.458,0,0,0-.9.273.994.994,0,0,0-.418.672.658.658,0,0,0,.242.641,3.3,3.3,0,0,0,1.289.438A4.721,4.721,0,0,1,46.3,10.9a1.784,1.784,0,0,1,.535,1.668A2.67,2.67,0,0,1,45.6,14.449a4.719,4.719,0,0,1-2.684.715,3.458,3.458,0,0,1-2.527-.863,2.086,2.086,0,0,1-.684-1.941l.023-.047h2.086a1.041,1.041,0,0,0,.309.984,1.648,1.648,0,0,0,1.059.3,1.741,1.741,0,0,0,.992-.254A.969.969,0,0,0,44.609,12.656ZM50.32,15H48.039l1.227-8.453h2.281ZM51.836,4.523H49.555l.25-1.711h2.281Zm.633,6.172a5.257,5.257,0,0,1,1.5-3.117,4.264,4.264,0,0,1,3.1-1.187A3.2,3.2,0,0,1,59.8,7.6a4.032,4.032,0,0,1,.641,3.094l-.023.164a5.283,5.283,0,0,1-1.508,3.125,4.277,4.277,0,0,1-3.1,1.18,3.209,3.209,0,0,1-2.742-1.207,3.989,3.989,0,0,1-.625-3.1Zm2.25.164a3.448,3.448,0,0,0,.133,1.867,1.191,1.191,0,0,0,1.211.688,1.649,1.649,0,0,0,1.387-.707,4,4,0,0,0,.691-1.848l.023-.164a3.415,3.415,0,0,0-.145-1.848,1.19,1.19,0,0,0-1.207-.7,1.641,1.641,0,0,0-1.387.719,3.979,3.979,0,0,0-.684,1.828Zm9.75-3.125a3.689,3.689,0,0,1,1.176-.992,3.048,3.048,0,0,1,1.441-.352,2.151,2.151,0,0,1,1.863.832,3.572,3.572,0,0,1,.355,2.6L68.555,15H66.266l.75-5.172a1.9,1.9,0,0,0-.125-1.3,1.022,1.022,0,0,0-.9-.367,2.122,2.122,0,0,0-1.641.742L63.469,15H61.188l1.227-8.453h2.125Z" transform="translate(9 16)" fill="#12263f"/>
    </g>
    <path id="Trazado_880528" data-name="Trazado 880528" d="M38.359,7.25h5.469V22.859a7.464,7.464,0,0,1-1.008,3.875,6.881,6.881,0,0,1-2.812,2.641,8.6,8.6,0,0,1-4.023.938A8.286,8.286,0,0,1,30.2,28.438a6.814,6.814,0,0,1-2.062-5.312h5.5a3.756,3.756,0,0,0,.539,2.266,2.134,2.134,0,0,0,1.8.7,2.041,2.041,0,0,0,1.758-.852,4,4,0,0,0,.617-2.383Zm20.656,16.7a2.253,2.253,0,0,0-.852-1.875,10.584,10.584,0,0,0-2.992-1.391,28.707,28.707,0,0,1-3.5-1.391q-4.422-2.172-4.422-5.969a5.352,5.352,0,0,1,1.1-3.336,7.125,7.125,0,0,1,3.117-2.25A12.131,12.131,0,0,1,56,6.938a10.611,10.611,0,0,1,4.4.875A6.964,6.964,0,0,1,63.422,10.3,6.508,6.508,0,0,1,64.5,14H59.031a2.75,2.75,0,0,0-.852-2.156,3.319,3.319,0,0,0-2.3-.766,3.743,3.743,0,0,0-2.32.648,1.91,1.91,0,0,0,.086,3.234,11.823,11.823,0,0,0,3.3,1.469,20.2,20.2,0,0,1,3.875,1.633A6.512,6.512,0,0,1,64.5,23.922a5.555,5.555,0,0,1-2.25,4.688,10.008,10.008,0,0,1-6.172,1.7,12.245,12.245,0,0,1-5.008-.992A7.55,7.55,0,0,1,47.7,26.6a7.084,7.084,0,0,1-1.133-3.977h5.5a3.489,3.489,0,0,0,.945,2.7,4.468,4.468,0,0,0,3.07.867,3.53,3.53,0,0,0,2.148-.586A1.934,1.934,0,0,0,59.016,23.953ZM72.8,22.281V30H67.313V7.25h9.078a10.574,10.574,0,0,1,4.617.961,7.242,7.242,0,0,1,3.109,2.734,7.468,7.468,0,0,1,1.1,4.023,6.583,6.583,0,0,1-2.383,5.32A9.887,9.887,0,0,1,76.3,22.281Zm0-4.234h3.594a3.389,3.389,0,0,0,2.43-.8A2.961,2.961,0,0,0,79.656,15a3.66,3.66,0,0,0-.859-2.547,3.043,3.043,0,0,0-2.344-.969H72.8Z" transform="translate(-4201 -3446)" fill="#12263f"/>
    <g id="Grupo_1103374" data-name="Grupo 1103374" transform="translate(-4253.011 -3333)">
      <rect id="Rectángulo_403665" data-name="Rectángulo 403665" width="102" height="50" rx="10" transform="translate(0.011)" fill="#f0c518" opacity="0.5"/>
      <path id="Trazado_880523" data-name="Trazado 880523" d="M19.945,12.242a1.235,1.235,0,0,0-.355-1.152,5.335,5.335,0,0,0-1.691-.863A7.8,7.8,0,0,1,14.98,8.719a2.465,2.465,0,0,1-.746-2.312,3,3,0,0,1,1.4-2.152,5.177,5.177,0,0,1,2.914-.793,4.455,4.455,0,0,1,3.008.926,2.586,2.586,0,0,1,.8,2.559l-.016.047H20.125a1.411,1.411,0,0,0-.4-1.277,1.96,1.96,0,0,0-1.43-.5,2.116,2.116,0,0,0-1.2.336,1.167,1.167,0,0,0-.57.836A1.1,1.1,0,0,0,16.895,7.5a7.217,7.217,0,0,0,1.941.879,6.817,6.817,0,0,1,2.73,1.48,2.624,2.624,0,0,1,.66,2.371,2.963,2.963,0,0,1-1.4,2.176,5.424,5.424,0,0,1-2.965.762,5.588,5.588,0,0,1-3.164-.848,2.4,2.4,0,0,1-.969-2.637l.016-.047h2.211A1.245,1.245,0,0,0,16.484,13a3.061,3.061,0,0,0,1.625.41,2.286,2.286,0,0,0,1.227-.328A1.192,1.192,0,0,0,19.945,12.242Zm6.8,2.922A3.361,3.361,0,0,1,23.949,14a3.71,3.71,0,0,1-.668-2.98l.047-.312a5.35,5.35,0,0,1,1.48-3.129A4.072,4.072,0,0,1,27.82,6.391a2.829,2.829,0,0,1,2.438,1.047,3.7,3.7,0,0,1,.523,2.8l-.172,1.18H25.563l-.016.039a1.957,1.957,0,0,0,.32,1.418,1.6,1.6,0,0,0,1.359.535,4.993,4.993,0,0,0,1.266-.141,9.4,9.4,0,0,0,1.2-.422l.352,1.438a5.365,5.365,0,0,1-1.418.617A6.622,6.622,0,0,1,26.742,15.164Zm.82-7.016a1.462,1.462,0,0,0-1.109.473,2.765,2.765,0,0,0-.641,1.246l.016.047h2.766l.031-.172a1.857,1.857,0,0,0-.141-1.176A.973.973,0,0,0,27.563,8.148Zm8.8,4.508a.665.665,0,0,0-.27-.645,3.385,3.385,0,0,0-1.285-.473,4.649,4.649,0,0,1-2.125-.9,1.721,1.721,0,0,1-.547-1.633,2.747,2.747,0,0,1,1.18-1.863,4.2,4.2,0,0,1,2.563-.754,3.565,3.565,0,0,1,2.441.77,1.95,1.95,0,0,1,.676,1.9l-.016.047h-2.2a1.018,1.018,0,0,0-.215-.832,1.143,1.143,0,0,0-.9-.316,1.458,1.458,0,0,0-.9.273.994.994,0,0,0-.418.672.658.658,0,0,0,.242.641,3.3,3.3,0,0,0,1.289.438,4.721,4.721,0,0,1,2.184.918,1.784,1.784,0,0,1,.535,1.668,2.67,2.67,0,0,1-1.238,1.879,4.719,4.719,0,0,1-2.684.715,3.458,3.458,0,0,1-2.527-.863,2.086,2.086,0,0,1-.684-1.941l.023-.047h2.086a1.041,1.041,0,0,0,.309.984,1.648,1.648,0,0,0,1.059.3,1.741,1.741,0,0,0,.992-.254A.969.969,0,0,0,36.359,12.656Zm8.25,0a.665.665,0,0,0-.27-.645,3.385,3.385,0,0,0-1.285-.473,4.649,4.649,0,0,1-2.125-.9,1.721,1.721,0,0,1-.547-1.633,2.747,2.747,0,0,1,1.18-1.863,4.2,4.2,0,0,1,2.563-.754,3.565,3.565,0,0,1,2.441.77,1.95,1.95,0,0,1,.676,1.9l-.016.047h-2.2a1.018,1.018,0,0,0-.215-.832,1.143,1.143,0,0,0-.9-.316,1.458,1.458,0,0,0-.9.273.994.994,0,0,0-.418.672.658.658,0,0,0,.242.641,3.3,3.3,0,0,0,1.289.438A4.721,4.721,0,0,1,46.3,10.9a1.784,1.784,0,0,1,.535,1.668A2.67,2.67,0,0,1,45.6,14.449a4.719,4.719,0,0,1-2.684.715,3.458,3.458,0,0,1-2.527-.863,2.086,2.086,0,0,1-.684-1.941l.023-.047h2.086a1.041,1.041,0,0,0,.309.984,1.648,1.648,0,0,0,1.059.3,1.741,1.741,0,0,0,.992-.254A.969.969,0,0,0,44.609,12.656ZM50.32,15H48.039l1.227-8.453h2.281ZM51.836,4.523H49.555l.25-1.711h2.281Zm.633,6.172a5.257,5.257,0,0,1,1.5-3.117,4.264,4.264,0,0,1,3.1-1.187A3.2,3.2,0,0,1,59.8,7.6a4.032,4.032,0,0,1,.641,3.094l-.023.164a5.283,5.283,0,0,1-1.508,3.125,4.277,4.277,0,0,1-3.1,1.18,3.209,3.209,0,0,1-2.742-1.207,3.989,3.989,0,0,1-.625-3.1Zm2.25.164a3.448,3.448,0,0,0,.133,1.867,1.191,1.191,0,0,0,1.211.688,1.649,1.649,0,0,0,1.387-.707,4,4,0,0,0,.691-1.848l.023-.164a3.415,3.415,0,0,0-.145-1.848,1.19,1.19,0,0,0-1.207-.7,1.641,1.641,0,0,0-1.387.719,3.979,3.979,0,0,0-.684,1.828Zm9.75-3.125a3.689,3.689,0,0,1,1.176-.992,3.048,3.048,0,0,1,1.441-.352,2.151,2.151,0,0,1,1.863.832,3.572,3.572,0,0,1,.355,2.6L68.555,15H66.266l.75-5.172a1.9,1.9,0,0,0-.125-1.3,1.022,1.022,0,0,0-.9-.367,2.122,2.122,0,0,0-1.641.742L63.469,15H61.188l1.227-8.453h2.125Z" transform="translate(9.011 16)" fill="#12263f"/>
    </g>
    <g id="Grupo_1103375" data-name="Grupo 1103375" transform="translate(-4144.022 -3333)">
      <rect id="Rectángulo_403666" data-name="Rectángulo 403666" width="102" height="50" rx="10" transform="translate(0.022)" fill="#00ffdf" opacity="0.5"/>
      <path id="Trazado_880524" data-name="Trazado 880524" d="M19.945,12.242a1.235,1.235,0,0,0-.355-1.152,5.335,5.335,0,0,0-1.691-.863A7.8,7.8,0,0,1,14.98,8.719a2.465,2.465,0,0,1-.746-2.312,3,3,0,0,1,1.4-2.152,5.177,5.177,0,0,1,2.914-.793,4.455,4.455,0,0,1,3.008.926,2.586,2.586,0,0,1,.8,2.559l-.016.047H20.125a1.411,1.411,0,0,0-.4-1.277,1.96,1.96,0,0,0-1.43-.5,2.116,2.116,0,0,0-1.2.336,1.167,1.167,0,0,0-.57.836A1.1,1.1,0,0,0,16.895,7.5a7.217,7.217,0,0,0,1.941.879,6.817,6.817,0,0,1,2.73,1.48,2.624,2.624,0,0,1,.66,2.371,2.963,2.963,0,0,1-1.4,2.176,5.424,5.424,0,0,1-2.965.762,5.588,5.588,0,0,1-3.164-.848,2.4,2.4,0,0,1-.969-2.637l.016-.047h2.211A1.245,1.245,0,0,0,16.484,13a3.061,3.061,0,0,0,1.625.41,2.286,2.286,0,0,0,1.227-.328A1.192,1.192,0,0,0,19.945,12.242Zm6.8,2.922A3.361,3.361,0,0,1,23.949,14a3.71,3.71,0,0,1-.668-2.98l.047-.312a5.35,5.35,0,0,1,1.48-3.129A4.072,4.072,0,0,1,27.82,6.391a2.829,2.829,0,0,1,2.438,1.047,3.7,3.7,0,0,1,.523,2.8l-.172,1.18H25.563l-.016.039a1.957,1.957,0,0,0,.32,1.418,1.6,1.6,0,0,0,1.359.535,4.993,4.993,0,0,0,1.266-.141,9.4,9.4,0,0,0,1.2-.422l.352,1.438a5.365,5.365,0,0,1-1.418.617A6.622,6.622,0,0,1,26.742,15.164Zm.82-7.016a1.462,1.462,0,0,0-1.109.473,2.765,2.765,0,0,0-.641,1.246l.016.047h2.766l.031-.172a1.857,1.857,0,0,0-.141-1.176A.973.973,0,0,0,27.563,8.148Zm8.8,4.508a.665.665,0,0,0-.27-.645,3.385,3.385,0,0,0-1.285-.473,4.649,4.649,0,0,1-2.125-.9,1.721,1.721,0,0,1-.547-1.633,2.747,2.747,0,0,1,1.18-1.863,4.2,4.2,0,0,1,2.563-.754,3.565,3.565,0,0,1,2.441.77,1.95,1.95,0,0,1,.676,1.9l-.016.047h-2.2a1.018,1.018,0,0,0-.215-.832,1.143,1.143,0,0,0-.9-.316,1.458,1.458,0,0,0-.9.273.994.994,0,0,0-.418.672.658.658,0,0,0,.242.641,3.3,3.3,0,0,0,1.289.438,4.721,4.721,0,0,1,2.184.918,1.784,1.784,0,0,1,.535,1.668,2.67,2.67,0,0,1-1.238,1.879,4.719,4.719,0,0,1-2.684.715,3.458,3.458,0,0,1-2.527-.863,2.086,2.086,0,0,1-.684-1.941l.023-.047h2.086a1.041,1.041,0,0,0,.309.984,1.648,1.648,0,0,0,1.059.3,1.741,1.741,0,0,0,.992-.254A.969.969,0,0,0,36.359,12.656Zm8.25,0a.665.665,0,0,0-.27-.645,3.385,3.385,0,0,0-1.285-.473,4.649,4.649,0,0,1-2.125-.9,1.721,1.721,0,0,1-.547-1.633,2.747,2.747,0,0,1,1.18-1.863,4.2,4.2,0,0,1,2.563-.754,3.565,3.565,0,0,1,2.441.77,1.95,1.95,0,0,1,.676,1.9l-.016.047h-2.2a1.018,1.018,0,0,0-.215-.832,1.143,1.143,0,0,0-.9-.316,1.458,1.458,0,0,0-.9.273.994.994,0,0,0-.418.672.658.658,0,0,0,.242.641,3.3,3.3,0,0,0,1.289.438A4.721,4.721,0,0,1,46.3,10.9a1.784,1.784,0,0,1,.535,1.668A2.67,2.67,0,0,1,45.6,14.449a4.719,4.719,0,0,1-2.684.715,3.458,3.458,0,0,1-2.527-.863,2.086,2.086,0,0,1-.684-1.941l.023-.047h2.086a1.041,1.041,0,0,0,.309.984,1.648,1.648,0,0,0,1.059.3,1.741,1.741,0,0,0,.992-.254A.969.969,0,0,0,44.609,12.656ZM50.32,15H48.039l1.227-8.453h2.281ZM51.836,4.523H49.555l.25-1.711h2.281Zm.633,6.172a5.257,5.257,0,0,1,1.5-3.117,4.264,4.264,0,0,1,3.1-1.187A3.2,3.2,0,0,1,59.8,7.6a4.032,4.032,0,0,1,.641,3.094l-.023.164a5.283,5.283,0,0,1-1.508,3.125,4.277,4.277,0,0,1-3.1,1.18,3.209,3.209,0,0,1-2.742-1.207,3.989,3.989,0,0,1-.625-3.1Zm2.25.164a3.448,3.448,0,0,0,.133,1.867,1.191,1.191,0,0,0,1.211.688,1.649,1.649,0,0,0,1.387-.707,4,4,0,0,0,.691-1.848l.023-.164a3.415,3.415,0,0,0-.145-1.848,1.19,1.19,0,0,0-1.207-.7,1.641,1.641,0,0,0-1.387.719,3.979,3.979,0,0,0-.684,1.828Zm9.75-3.125a3.689,3.689,0,0,1,1.176-.992,3.048,3.048,0,0,1,1.441-.352,2.151,2.151,0,0,1,1.863.832,3.572,3.572,0,0,1,.355,2.6L68.555,15H66.266l.75-5.172a1.9,1.9,0,0,0-.125-1.3,1.022,1.022,0,0,0-.9-.367,2.122,2.122,0,0,0-1.641.742L63.469,15H61.188l1.227-8.453h2.125Z" transform="translate(9.022 16)" fill="#12263f"/>
    </g>
    <g id="Grupo_1103365" data-name="Grupo 1103365" transform="translate(-4085.857 -3590) rotate(90)">
      <path id="Trazado_879205" data-name="Trazado 879205" d="M0,0V251.907" transform="translate(0 7.071) rotate(-90)" fill="none" stroke="#0b47db" stroke-linecap="round" stroke-width="3"/>
      <path id="Trazado_879204" data-name="Trazado 879204" d="M10,0V10H0Z" transform="translate(242.726 7.071) rotate(-45)" fill="#0b47db"/>
    </g>
    <g id="Grupo_1103366" data-name="Grupo 1103366" transform="translate(-4194.857 -3590) rotate(90)">
      <path id="Trazado_879205-2" data-name="Trazado 879205" d="M0,0V251.907" transform="translate(0 7.071) rotate(-90)" fill="none" stroke="#0b47db" stroke-linecap="round" stroke-width="3"/>
      <path id="Trazado_879204-2" data-name="Trazado 879204" d="M10,0V10H0Z" transform="translate(242.726 7.071) rotate(-45)" fill="#0b47db"/>
    </g>
    <g id="Grupo_1103367" data-name="Grupo 1103367" transform="translate(-4303.857 -3590) rotate(90)">
      <path id="Trazado_879205-3" data-name="Trazado 879205" d="M0,0V251.907" transform="translate(0 7.071) rotate(-90)" fill="none" stroke="#0b47db" stroke-linecap="round" stroke-width="3"/>
      <path id="Trazado_879204-3" data-name="Trazado 879204" d="M10,0V10H0Z" transform="translate(242.726 7.071) rotate(-45)" fill="#0b47db"/>
    </g>
    <g id="Rectángulo_403658" data-name="Rectángulo 403658" transform="translate(-4375 -3664)" fill="none" stroke="#0b47db" stroke-linecap="round" stroke-width="2" stroke-dasharray="3 5">
      <rect width="347" height="169" stroke="none"/>
      <rect x="-1" y="-1" width="349" height="171" fill="none"/>
    </g>
    <g id="Rectángulo_403663" data-name="Rectángulo 403663" transform="translate(-4375 -3356)" fill="none" stroke="#0b47db" stroke-linecap="round" stroke-width="2" stroke-dasharray="3 5">
      <rect width="347" height="97" stroke="none"/>
      <rect x="-1" y="-1" width="349" height="99" fill="none"/>
    </g>
    <g id="Grupo_1103370" data-name="Grupo 1103370" transform="translate(-15 -204)">
      <rect id="Rectángulo_403659" data-name="Rectángulo 403659" width="99" height="37" rx="5" transform="translate(-4345 -3347)" fill="#beb4d0"/>
      <g id="Grupo_1103360" data-name="Grupo 1103360" transform="translate(-4338 -3441)">
        <g id="Grupo_1103361" data-name="Grupo 1103361" clip-path="url(#clip-path)">
          <path id="Trazado_879286" data-name="Trazado 879286" d="M84.269,42.139a42.108,42.108,0,0,1-2.9,15.4,41.223,41.223,0,0,1-5.856,10.293c-.425.56-.868,1.1-1.337,1.636a41.561,41.561,0,0,1-9.037,7.97c-.9.587-1.825,1.148-2.774,1.663a42.163,42.163,0,0,1-43.54-1.862c-.172-.117-.343-.235-.515-.361a38.158,38.158,0,0,1-4.374-3.443c-.154-.136-.307-.271-.452-.416-.949-.868-1.853-1.789-2.711-2.747-.036-.045-.081-.09-.117-.136a42.133,42.133,0,1,1,73.614-28" fill="#edddd6"/>
          <path id="Trazado_879287" data-name="Trazado 879287" d="M19.444,82.178a38.158,38.158,0,0,1-4.374-3.443c-.154-.136-.307-.271-.452-.416-.949-.868-1.853-1.789-2.711-2.747-.036-.045-.081-.09-.117-.136,2.648-7.239,6.922-18.128,10.175-20.2a1.294,1.294,0,0,0,.136-.1,1.361,1.361,0,0,0,.154-.09c1.383-.181-.325,12.335-2.81,27.129" transform="translate(-1.136 -5.302)" fill="#f7734f"/>
          <path id="Trazado_879288" data-name="Trazado 879288" d="M75.611,74.467a41.561,41.561,0,0,1-9.037,7.97c-.9.587-1.825,1.148-2.774,1.663a42.163,42.163,0,0,1-43.54-1.862c-.172-.117-.343-.235-.515-.361a38.158,38.158,0,0,1-4.374-3.443c-.154-.136-.307-.271-.452-.416.994-6.8,2.3-13.176,3.949-17.586,1-2.675,2.124-4.609,3.4-5.494a1.294,1.294,0,0,0,.136-.1,1.361,1.361,0,0,0,.154-.09c6.76-4.292,25.131-2.892,36.446-1.057a11,11,0,0,1,7.284,4.717c2.838,4.13,7.13,10.772,9.326,16.058" transform="translate(-1.437 -5.001)" fill="#f7734f"/>
          <path id="Trazado_879289" data-name="Trazado 879289" d="M58.169,12.745s-.373-2.38,1.9-1.407,1.3,3.355,0,3.03a3.179,3.179,0,0,1-1.9-1.623" transform="translate(-5.6 -1.07)" fill="#7772d3"/>
          <path id="Trazado_879290" data-name="Trazado 879290" d="M61.92,29.138s-.356,6.42-3.247,6.715-7.142-3.358-7.142-3.358l1.993-7.226Z" transform="translate(-4.963 -2.434)"/>
          <path id="Trazado_879291" data-name="Trazado 879291" d="M37.454,26.634S28.022,23.6,26.615,19.6s16.418,2.057,16.418,2.057Z" transform="translate(-2.556 -1.756)" fill="#5c5cc6"/>
          <path id="Trazado_879292" data-name="Trazado 879292" d="M52.2,42.741,51.47,52.948s-1.842,2.878-7.737,3.3c-4.392.318-5.925-.688-5.925-.688l.657-5.095.647-4.968,10.66-2.246Z" transform="translate(-3.642 -4.117)" fill="#f49282"/>
          <path id="Trazado_879293" data-name="Trazado 879293" d="M49.842,43.311a3.326,3.326,0,0,1-.3.969c-2.3,5.011-8.468,6.041-11.006,6.245l.648-4.968Z" transform="translate(-3.712 -4.172)"/>
          <path id="Trazado_879294" data-name="Trazado 879294" d="M36.585,19.979s-5.4,12.579-3.376,19.614,8.434,5.882,12.267,4.495a12.718,12.718,0,0,0,5.6-3.756,5.416,5.416,0,0,0,5.974-2.16c2.378-3.353.875-7.174-1.18-8.039s-4.481.631-4.481.631l1.886-3.658S45.117,8.633,36.585,19.979" transform="translate(-3.155 -1.569)" fill="#f49282"/>
          <path id="Trazado_879295" data-name="Trazado 879295" d="M53.688,37.943a.452.452,0,0,1-.26-.821L57.994,33.9a.452.452,0,0,1,.521.738L53.948,37.86a.441.441,0,0,1-.26.083" transform="translate(-5.128 -3.257)"/>
          <path id="Trazado_879296" data-name="Trazado 879296" d="M57.946,38.18a.475.475,0,0,1-.117-.015l-2.98-.8a.452.452,0,1,1,.233-.873l2.98.8a.452.452,0,0,1-.117.888" transform="translate(-5.251 -3.514)"/>
          <path id="Trazado_879297" data-name="Trazado 879297" d="M45.884,26.853a.45.45,0,0,1-.36-.179,2.021,2.021,0,0,0-1.306-.878,1.976,1.976,0,0,0-1.3.354.451.451,0,0,1-.556-.711,2.821,2.821,0,0,1,1.961-.539,2.863,2.863,0,0,1,1.919,1.229.452.452,0,0,1-.36.725" transform="translate(-4.064 -2.396)"/>
          <path id="Trazado_879298" data-name="Trazado 879298" d="M35.426,25.919a.452.452,0,0,1-.285-.8,2.1,2.1,0,0,1,1.675-.595,1.218,1.218,0,0,1,.812.568.452.452,0,0,1-.787.446.316.316,0,0,0-.211-.127c-.128-.025-.419.005-.919.412a.453.453,0,0,1-.286.1" transform="translate(-3.369 -2.359)"/>
          <path id="Trazado_879299" data-name="Trazado 879299" d="M37.356,36.965a.45.45,0,0,1-.436-.334,10.082,10.082,0,0,1,.333-5.519.451.451,0,1,1,.845.316,9.346,9.346,0,0,0-.306,4.968.45.45,0,0,1-.318.553.444.444,0,0,1-.117.016" transform="translate(-3.531 -2.968)"/>
          <path id="Trazado_879300" data-name="Trazado 879300" d="M35.429,31.068a.445.445,0,0,1-.124-.017.453.453,0,0,1-.313-.558l.652-2.3a.453.453,0,0,1,.871.246l-.652,2.3a.452.452,0,0,1-.435.329" transform="translate(-3.369 -2.683)"/>
          <path id="Trazado_879301" data-name="Trazado 879301" d="M43.606,31.293a.479.479,0,0,1-.123-.016.453.453,0,0,1-.312-.558l.65-2.3a.452.452,0,0,1,.87.246l-.651,2.3a.45.45,0,0,1-.435.329" transform="translate(-4.156 -2.705)"/>
          <path id="Trazado_879302" data-name="Trazado 879302" d="M36.2,21.654s.746-1,3.258-1a5.433,5.433,0,0,1,3.964,1.787s.211,4.555,3.607,6.832,4.695,1.339,4.695,1.339l2.486-.861,1.849-3.6-7.1-7.789-8.532-3.642-4.227,4.7Z" transform="translate(-3.486 -1.417)"/>
          <path id="Trazado_879303" data-name="Trazado 879303" d="M40.169,40.567a2.549,2.549,0,0,1-.284-.013.451.451,0,0,1,.092-.9,2.968,2.968,0,0,0,2.879-1.587.452.452,0,1,1,.815.392,3.778,3.778,0,0,1-3.5,2.106" transform="translate(-3.803 -3.642)"/>
          <path id="Trazado_879304" data-name="Trazado 879304" d="M35.837,18.443S39.4,8.328,52.012,10.493s8.4,18.2,8.4,18.2l-5.751-1.868Z" transform="translate(-3.452 -0.981)" fill="#7772d3"/>
          <path id="Trazado_879305" data-name="Trazado 879305" d="M31.775,18.533s4.417.161,15.8,5.43A77.656,77.656,0,0,1,54.917,27.9s-13.1-5.5-18.191-5.439a7.137,7.137,0,0,0-3.222.755Z" transform="translate(-3.06 -1.785)" fill="#5c5cc6"/>
          <path id="Trazado_879306" data-name="Trazado 879306" d="M41.613,57.652a18.333,18.333,0,0,1-3.959-.4.452.452,0,1,1,.211-.879c.075.017,7.527,1.727,13.289-2.54a.452.452,0,1,1,.538.726,16.854,16.854,0,0,1-10.078,3.092" transform="translate(-3.593 -5.177)" fill="#46467f"/>
        </g>
      </g>
      <path id="Trazado_880525" data-name="Trazado 880525" d="M16.973,12.656H12.863L12.082,15H9.59L13.824,3.625H16L20.254,15H17.762Zm-3.477-1.9H16.34L14.91,6.5Zm9.375-4.211.07.977a2.951,2.951,0,0,1,2.43-1.133,2.453,2.453,0,0,1,2,.789,3.682,3.682,0,0,1,.672,2.359V15H25.785V9.581a1.47,1.47,0,0,0-.312-1.045,1.4,1.4,0,0,0-1.039-.325A1.553,1.553,0,0,0,23,9.025V15H20.746V6.547ZM29.4,10.711a5.094,5.094,0,0,1,.887-3.148,2.877,2.877,0,0,1,2.426-1.172,2.589,2.589,0,0,1,2.039.922V3H37.02V15H34.98l-.109-.9A2.657,2.657,0,0,1,32.7,15.156,2.869,2.869,0,0,1,30.3,13.98,5.258,5.258,0,0,1,29.4,10.711Zm2.258.161a3.355,3.355,0,0,0,.414,1.829,1.348,1.348,0,0,0,1.2.636,1.51,1.51,0,0,0,1.477-.887V9.1a1.489,1.489,0,0,0-1.461-.887Q31.66,8.211,31.66,10.872ZM43.52,8.664a6.134,6.134,0,0,0-.812-.062,1.654,1.654,0,0,0-1.68.867V15H38.77V6.547H40.9l.063,1.008a2.092,2.092,0,0,1,1.883-1.164,2.366,2.366,0,0,1,.7.1Zm4.828,6.492a4.15,4.15,0,0,1-3.027-1.141,4.054,4.054,0,0,1-1.168-3.039v-.219a5.106,5.106,0,0,1,.492-2.277,3.612,3.612,0,0,1,1.395-1.547A3.914,3.914,0,0,1,48.1,6.391a3.508,3.508,0,0,1,2.73,1.094,4.444,4.444,0,0,1,1,3.1v.922H46.441a2.1,2.1,0,0,0,.66,1.328,2,2,0,0,0,1.395.5,2.437,2.437,0,0,0,2.039-.945l1.109,1.242a3.389,3.389,0,0,1-1.375,1.121A4.511,4.511,0,0,1,48.348,15.156ZM48.09,8.211A1.411,1.411,0,0,0,47,8.666a2.357,2.357,0,0,0-.535,1.3h3.141V9.788A1.681,1.681,0,0,0,49.2,8.623,1.456,1.456,0,0,0,48.09,8.211ZM48.293,3h2.461L48.59,5.422H46.754Zm9.391,9.664a.727.727,0,0,0-.41-.652,4.659,4.659,0,0,0-1.316-.426q-3.016-.633-3.016-2.562a2.323,2.323,0,0,1,.934-1.879,3.766,3.766,0,0,1,2.441-.754,4.053,4.053,0,0,1,2.574.758,2.388,2.388,0,0,1,.965,1.969H57.6a1.092,1.092,0,0,0-.312-.8A1.322,1.322,0,0,0,56.309,8a1.351,1.351,0,0,0-.883.258.814.814,0,0,0-.312.656.7.7,0,0,0,.355.605,3.657,3.657,0,0,0,1.2.4,9.8,9.8,0,0,1,1.422.379,2.336,2.336,0,0,1,1.789,2.273,2.2,2.2,0,0,1-.992,1.871,4.28,4.28,0,0,1-2.562.715,4.47,4.47,0,0,1-1.887-.379,3.166,3.166,0,0,1-1.293-1.039,2.414,2.414,0,0,1-.469-1.426h2.141a1.179,1.179,0,0,0,.445.922,1.766,1.766,0,0,0,1.109.32,1.635,1.635,0,0,0,.98-.246A.766.766,0,0,0,57.684,12.664Z" transform="translate(-4331 -3338)" fill="#12263f"/>
    </g>
    <g id="Grupo_1103371" data-name="Grupo 1103371" transform="translate(101.269 -308)">
      <rect id="Rectángulo_403660" data-name="Rectángulo 403660" width="99" height="37" rx="5" transform="translate(-4352.269 -3243)" fill="#beb4d0"/>
      <g id="Grupo_1103359" data-name="Grupo 1103359" transform="translate(-4345.269 -3337)">
        <g id="Grupo_1103359-2" data-name="Grupo 1103359" transform="translate(0 0)" clip-path="url(#clip-path-2)">
          <path id="Trazado_879267" data-name="Trazado 879267" d="M84.269,42.13A42.133,42.133,0,0,1,8.187,67.08,42.131,42.131,0,1,1,84.269,42.13" transform="translate(0 0)" fill="#edddd6"/>
          <path id="Trazado_879268" data-name="Trazado 879268" d="M58.261,69.991,28.448,86.51a40.576,40.576,0,0,1-6.606-3.136,42.034,42.034,0,0,1-11.9-10.383c3.127-6.633,10.546-18.155,25.475-21.8a15.8,15.8,0,0,1,8.016-.018c11.151,3.045,14.829,18.815,14.829,18.815" transform="translate(-0.957 -4.88)" fill="#7c6053"/>
          <path id="Trazado_879269" data-name="Trazado 879269" d="M81.625,66.663A42.157,42.157,0,0,1,29.717,86.453a40.576,40.576,0,0,1-6.606-3.136c1.1-12.5,2.241-22.99,3.091-24.96,1.509-3.5,11.621-5.955,18.5-7.239,3.687-.687,6.443-1.039,6.443-1.039s13.573.542,24.589,9.751a33.761,33.761,0,0,1,5.892,6.832" transform="translate(-2.226 -4.824)" fill="#7c6053"/>
          <path id="Trazado_879270" data-name="Trazado 879270" d="M35.446,13.906s-4.792,5.421-2.158,11.4,5.46-10.857,5.46-10.857Z" transform="translate(-3.13 -1.339)" fill="#ada9c4"/>
          <path id="Trazado_879271" data-name="Trazado 879271" d="M52.068,40.86l.183,10.753s-1.887,3.124-8.169,3.741c-4.679.461-6.343-.571-6.343-.571l.561-5.456L38.853,44l11.316-2.691Z" transform="translate(-3.635 -3.935)" fill="#f27e64"/>
          <path id="Trazado_879272" data-name="Trazado 879272" d="M50.207,41.362c-.023.294,1.731,1.218,1.563,1.618-2.314,5.412-10.94,8.133-13.642,8.421l.762-7.349Z" transform="translate(-3.672 -3.984)"/>
          <path id="Trazado_879273" data-name="Trazado 879273" d="M37.368,14.333a10.143,10.143,0,0,0-3.12,4.658c-1.405,4.15-4.241,13.839-2.383,19.78,2.415,7.72,9.375,6.275,13.514,4.639a13.837,13.837,0,0,0,6-4.3,5.853,5.853,0,0,0,6.452-2.548c2.493-3.769.74-7.953-1.527-8.853s-4.869.817-4.869.817l1.947-4.093s-7.837-16.752-16.01-10.1" transform="translate(-3.01 -1.23)" fill="#f27e64"/>
          <path id="Trazado_879274" data-name="Trazado 879274" d="M54.167,35.585a.452.452,0,0,1-.27-.814l3.927-2.926a.452.452,0,1,1,.54.725L54.437,35.5a.451.451,0,0,1-.27.089" transform="translate(-5.174 -3.058)"/>
          <path id="Trazado_879275" data-name="Trazado 879275" d="M58.71,35.666a.421.421,0,0,1-.1-.013l-3.2-.766a.452.452,0,0,1,.21-.879l3.2.767a.452.452,0,0,1-.1.891" transform="translate(-5.303 -3.274)"/>
          <path id="Trazado_879276" data-name="Trazado 879276" d="M34.47,28.008a.432.432,0,0,1-.111-.014.45.45,0,0,1-.326-.549l.631-2.477a.452.452,0,0,1,.876.223l-.632,2.478a.45.45,0,0,1-.437.34" transform="translate(-3.276 -2.372)"/>
          <path id="Trazado_879277" data-name="Trazado 879277" d="M42.008,28.407a.432.432,0,0,1-.111-.014.451.451,0,0,1-.326-.549l.631-2.477a.447.447,0,0,1,.549-.326.452.452,0,0,1,.327.549l-.632,2.477a.45.45,0,0,1-.437.341" transform="translate(-4.003 -2.41)"/>
          <path id="Trazado_879278" data-name="Trazado 879278" d="M34.038,22.263a.452.452,0,0,1-.048-.9l2.041-.221a.452.452,0,0,1,.1.9l-2.04.22-.05,0" transform="translate(-3.235 -2.036)" fill="#6c6b7c"/>
          <path id="Trazado_879279" data-name="Trazado 879279" d="M43.983,23.976a.442.442,0,0,1-.174-.035l-2.774-1.16a.452.452,0,0,1,.35-.834l2.773,1.161a.452.452,0,0,1-.174.868" transform="translate(-3.926 -2.11)" fill="#6c6b7c"/>
          <path id="Trazado_879280" data-name="Trazado 879280" d="M51.714,28.3s-1.115,4.475-1.973,3.93-1.661-7-1.021-9.887S49.826,18,49.826,18,38.08,16.959,34.984,14.168s3.444-4.593,10.134-3.326,9.328,3.78,9.328,3.78S58.637,14,60.2,16.554s-2,12.272-2,12.272-1.056-2.438-6.49-.526" transform="translate(-3.293 -1.004)" fill="#ada9c4"/>
          <path id="Trazado_879281" data-name="Trazado 879281" d="M28.791,34.984s3.282-3.635,4.953-3.09,2.277,2.988,2.277,2.988S38,32.137,40.191,32.91s6.875,1.058,6.924,1.816-1.307,1.03-1.307,1.03-11.037,1.275-17.017-.773" transform="translate(-2.773 -3.067)" fill="#ada9c4"/>
          <path id="Trazado_879282" data-name="Trazado 879282" d="M51.406,30.2s-.2,7.257-.056,10.584-9.107,8.516-15.5,5.65S31.218,35.2,31.218,35.2l5.693.525a10.925,10.925,0,0,1,2.8-1.05,7.326,7.326,0,0,1,3.48.505Z" transform="translate(-2.986 -2.909)" fill="#ada9c4"/>
          <path id="Trazado_879283" data-name="Trazado 879283" d="M38.482,37.853a.452.452,0,0,1-.047-.9,3.664,3.664,0,0,0,2.656-1.636.452.452,0,1,1,.808.4,4.518,4.518,0,0,1-3.369,2.131l-.048,0" transform="translate(-3.663 -3.378)"/>
          <path id="Trazado_879284" data-name="Trazado 879284" d="M36.466,33.562a.452.452,0,0,1-.4-.249c-1.59-3.173.7-6.511.794-6.652a.452.452,0,0,1,.741.517c-.021.03-2.073,3.043-.727,5.73a.452.452,0,0,1-.4.654" transform="translate(-3.419 -2.549)"/>
          <path id="Trazado_879285" data-name="Trazado 879285" d="M40.85,56.862a25.1,25.1,0,0,1-5.8-.669.452.452,0,0,1,.228-.876c.112.029,11.18,2.806,16.71-3.746a.451.451,0,0,1,.69.582c-3.223,3.819-8.044,4.708-11.832,4.708" transform="translate(-3.344 -4.952)" fill="#fcb35b"/>
        </g>
      </g>
      <path id="Trazado_880526" data-name="Trazado 880526" d="M5.809,3.625H8.152V11.5a3.766,3.766,0,0,1-.48,1.918A3.261,3.261,0,0,1,6.316,14.7a4.235,4.235,0,0,1-1.977.453,4.025,4.025,0,0,1-2.812-.918,3.335,3.335,0,0,1-1.008-2.6H2.879a1.829,1.829,0,0,0,.352,1.234,1.407,1.407,0,0,0,1.109.4,1.343,1.343,0,0,0,1.07-.461,1.948,1.948,0,0,0,.4-1.312ZM13.9,15.156a4.15,4.15,0,0,1-3.027-1.141,4.054,4.054,0,0,1-1.168-3.039v-.219A5.106,5.106,0,0,1,10.2,8.48a3.612,3.612,0,0,1,1.395-1.547,3.914,3.914,0,0,1,2.059-.543,3.508,3.508,0,0,1,2.73,1.094,4.444,4.444,0,0,1,1,3.1v.922H12a2.1,2.1,0,0,0,.66,1.328,2,2,0,0,0,1.395.5,2.437,2.437,0,0,0,2.039-.945L17.2,13.633a3.389,3.389,0,0,1-1.375,1.121A4.511,4.511,0,0,1,13.9,15.156Zm-.258-6.945a1.411,1.411,0,0,0-1.09.455,2.357,2.357,0,0,0-.535,1.3H15.16V9.788a1.681,1.681,0,0,0-.406-1.165A1.456,1.456,0,0,0,13.645,8.211ZM19.277,15V8.2H18.02V6.547h1.258V5.828a2.918,2.918,0,0,1,.816-2.207,3.162,3.162,0,0,1,2.285-.785,5.321,5.321,0,0,1,1.148.155L23.5,4.727a2.878,2.878,0,0,0-.687-.07q-1.273,0-1.273,1.205v.685h1.68V8.2h-1.68V15Zm5.734,0V8.2H23.754V6.547h1.258V5.828a2.918,2.918,0,0,1,.816-2.207,3.162,3.162,0,0,1,2.285-.785,5.321,5.321,0,0,1,1.148.155l-.023,1.736a2.878,2.878,0,0,0-.687-.07q-1.273,0-1.273,1.205v.685h1.68V8.2h-1.68V15Zm8.82.156A4.15,4.15,0,0,1,30.8,14.016a4.054,4.054,0,0,1-1.168-3.039v-.219a5.106,5.106,0,0,1,.492-2.277,3.612,3.612,0,0,1,1.395-1.547,3.914,3.914,0,0,1,2.059-.543,3.508,3.508,0,0,1,2.73,1.094,4.444,4.444,0,0,1,1,3.1v.922H31.926a2.1,2.1,0,0,0,.66,1.328,2,2,0,0,0,1.395.5,2.437,2.437,0,0,0,2.039-.945l1.109,1.242a3.389,3.389,0,0,1-1.375,1.121A4.511,4.511,0,0,1,33.832,15.156Zm-.258-6.945a1.411,1.411,0,0,0-1.09.455,2.357,2.357,0,0,0-.535,1.3H35.09V9.788a1.681,1.681,0,0,0-.406-1.165A1.456,1.456,0,0,0,33.574,8.211Zm9.766.453a6.134,6.134,0,0,0-.812-.062,1.654,1.654,0,0,0-1.68.867V15H38.59V6.547h2.133l.063,1.008a2.092,2.092,0,0,1,1.883-1.164,2.366,2.366,0,0,1,.7.1Zm5.664,4a.727.727,0,0,0-.41-.652,4.659,4.659,0,0,0-1.316-.426q-3.016-.633-3.016-2.562A2.323,2.323,0,0,1,45.2,7.145a3.766,3.766,0,0,1,2.441-.754,4.053,4.053,0,0,1,2.574.758,2.388,2.388,0,0,1,.965,1.969H48.918a1.092,1.092,0,0,0-.312-.8A1.322,1.322,0,0,0,47.629,8a1.351,1.351,0,0,0-.883.258.814.814,0,0,0-.312.656.7.7,0,0,0,.355.605,3.657,3.657,0,0,0,1.2.4,9.8,9.8,0,0,1,1.422.379A2.336,2.336,0,0,1,51.2,12.57a2.2,2.2,0,0,1-.992,1.871,4.28,4.28,0,0,1-2.562.715,4.47,4.47,0,0,1-1.887-.379,3.166,3.166,0,0,1-1.293-1.039A2.414,2.414,0,0,1,44,12.313h2.141a1.179,1.179,0,0,0,.445.922,1.766,1.766,0,0,0,1.109.32,1.635,1.635,0,0,0,.98-.246A.766.766,0,0,0,49,12.664ZM52.3,10.7a5.013,5.013,0,0,1,.484-2.242A3.546,3.546,0,0,1,54.18,6.93a4.069,4.069,0,0,1,2.113-.539,3.849,3.849,0,0,1,2.793,1.047,4.2,4.2,0,0,1,1.207,2.844l.016.578a4.418,4.418,0,0,1-1.086,3.121,4.209,4.209,0,0,1-5.832,0A4.5,4.5,0,0,1,52.3,10.8Zm2.258.16a3.16,3.16,0,0,0,.453,1.843,1.628,1.628,0,0,0,2.578.008,3.457,3.457,0,0,0,.461-2.015A3.128,3.128,0,0,0,57.59,8.86a1.5,1.5,0,0,0-1.3-.649,1.474,1.474,0,0,0-1.281.646A3.516,3.516,0,0,0,54.559,10.856Zm9.219-4.309.07.977a2.951,2.951,0,0,1,2.43-1.133,2.453,2.453,0,0,1,2,.789,3.682,3.682,0,0,1,.672,2.359V15H66.691V9.581a1.47,1.47,0,0,0-.312-1.045,1.4,1.4,0,0,0-1.039-.325,1.553,1.553,0,0,0-1.43.814V15H61.652V6.547Z" transform="translate(-4337.269 -3234)" fill="#12263f"/>
    </g>
    <g id="Grupo_1103372" data-name="Grupo 1103372" transform="translate(210.634 -412)">
      <rect id="Rectángulo_403661" data-name="Rectángulo 403661" width="99" height="37" rx="5" transform="translate(-4352.634 -3139)" fill="#beb4d0"/>
      <g id="Grupo_1103361-2" data-name="Grupo 1103361" transform="translate(-4345.269 -3233)">
        <g id="Grupo_1103363" data-name="Grupo 1103363" clip-path="url(#clip-path)">
          <path id="Trazado_879307" data-name="Trazado 879307" d="M84.269,42.139a41.791,41.791,0,0,1-4.8,19.529,1.684,1.684,0,0,1-.09.181c-.172.325-.343.642-.533.958A42.166,42.166,0,0,1,57.529,81.359c-.56.217-1.13.425-1.7.624-.515.181-1.03.352-1.545.506-.533.163-1.066.307-1.6.443a42.053,42.053,0,0,1-15.209,1.075,40.971,40.971,0,0,1-5.5-.976A39.8,39.8,0,0,1,28.1,81.865c-.208-.072-.425-.145-.633-.226-.488-.181-.967-.371-1.446-.569a37.6,37.6,0,0,1-3.66-1.726c-.506-.271-1-.551-1.5-.84-.127-.072-.253-.145-.38-.226-.985-.587-1.934-1.211-2.856-1.871-.56-.4-1.112-.813-1.645-1.238A41.791,41.791,0,0,1,8.965,68.12c-.289-.371-.578-.75-.859-1.139-.506-.7-.994-1.4-1.464-2.133a42.136,42.136,0,1,1,77.626-22.71" fill="#edddd6"/>
          <path id="Trazado_879308" data-name="Trazado 879308" d="M57.932,80.418l-.886.38-2.738,1.148L38.34,88.7a40.971,40.971,0,0,1-5.5-.976,39.8,39.8,0,0,1-3.868-1.166c-.208-.072-.425-.145-.633-.226-.488-.181-.967-.371-1.446-.569a37.6,37.6,0,0,1-3.66-1.726c-.506-.271-1-.551-1.5-.84-.127-.072-.253-.145-.38-.226-.985-.587-1.934-1.211-2.856-1.871-.56-.4-1.112-.813-1.645-1.238a41.791,41.791,0,0,1-7.022-7.049c-.289-.371-.578-.75-.859-1.139C14.248,63.492,24.432,50.443,36.6,48.807a12.237,12.237,0,0,1,4.808.262c3.588.94,6.425,3.533,8.657,6.85.352.506.678,1.021.985,1.563,5.512,9.389,6.886,22.936,6.886,22.936" transform="translate(-0.864 -4.689)" fill="#5f8457"/>
          <path id="Trazado_879309" data-name="Trazado 879309" d="M34.724,26.229s-3.22-9.343-.438-13.454c2.482-3.668,14.679-1.722,19.014,1.093s4.479,6.51,4.479,6.51A3.884,3.884,0,0,1,60.4,22.766c.493,1.827-1.087,4.832-1.087,4.832a4.1,4.1,0,0,0-5.232-.991c-3.079,1.742-19.352-.378-19.352-.378" transform="translate(-3.193 -1.037)"/>
          <path id="Trazado_879310" data-name="Trazado 879310" d="M59.912,86.061c-.56.217-1.13.425-1.7.624-.515.181-1.03.352-1.545.506-.533.163-1.066.307-1.6.443A42.053,42.053,0,0,1,39.86,88.709a40.971,40.971,0,0,1-5.5-.976,39.8,39.8,0,0,1-3.868-1.166c-.208-.072-.425-.145-.633-.226-.488-.181-.967-.371-1.446-.569a37.6,37.6,0,0,1-3.66-1.726c.533-4.934,1.012-8.26,1.012-8.26L38.115,48.82l4.808.262,7.582.407a.264.264,0,0,1,.018.081c.009.027,2.042,7.925,2.042,7.925l6,23.315Z" transform="translate(-2.384 -4.702)" fill="#fff"/>
          <path id="Trazado_879311" data-name="Trazado 879311" d="M51.7,43.793l.3,7.113a10.773,10.773,0,0,1-6.031,2.552,6.7,6.7,0,0,1-6.387-3.269l-.246-8.343Z" transform="translate(-3.788 -4.03)" fill="#fca397"/>
          <path id="Trazado_879312" data-name="Trazado 879312" d="M51.7,43.864s-1.261,6.383-6.549,5.774c-4.264-.492-5.775-6.951-5.775-6.951Z" transform="translate(-3.793 -4.111)"/>
          <path id="Trazado_879313" data-name="Trazado 879313" d="M36.313,21.479s-2.028,12.812,2.316,18.767,9.661,3.985,12.01,2.05a10.885,10.885,0,0,0,3.718-6.1s4.5.739,5.869-2.956c1.437-3.882-1.45-6.879-3.693-6.986s-2.489.309-2.489.309l.519-4.112S40.46,7.8,36.313,21.479" transform="translate(-3.452 -1.506)" fill="#fca397"/>
          <path id="Trazado_879314" data-name="Trazado 879314" d="M38.2,28.551s-6.873-2.665-7.224,2.6c-.408,6.1,6.86,5.911,6.86,5.911Z" transform="translate(-2.982 -2.685)" fill="#fca397"/>
          <path id="Trazado_879315" data-name="Trazado 879315" d="M55.044,26.772s-2.329,1.065-7.44-2.413S43.8,16.524,43.8,16.524s-6.676,4.5-8.027,9.891S33.148,13.935,40.9,14.024s19.507,4.743,14.142,12.748" transform="translate(-3.347 -1.351)"/>
          <path id="Trazado_879316" data-name="Trazado 879316" d="M37.611,48.82S33.174,61.58,30,86.4a1,1,0,0,0-.018.163c-.208-.072-.425-.145-.633-.226-.488-.181-.967-.371-1.446-.569a37.6,37.6,0,0,1-3.66-1.726c-.506-.271-1-.551-1.5-.84-.127-.072-.253-.145-.38-.226-.985-.587-1.934-1.211-2.856-1.871.226-3.226.371-5.232.371-5.232Z" transform="translate(-1.879 -4.702)" fill="#5f8457"/>
          <path id="Trazado_879317" data-name="Trazado 879317" d="M84.585,66.354a1.684,1.684,0,0,1-.09.181c-.172.325-.343.642-.533.958A42.166,42.166,0,0,1,62.644,86.045c-.56.217-1.13.425-1.7.624-.515.181-1.03.352-1.545.506-.253-1.6-.533-3.362-.84-5.232-1.256-7.763-2.829-17.468-4.247-26.026-.361-2.2-.714-4.338-1.048-6.335a.615.615,0,0,0-.027-.108c-.036-.271-.081-.533-.127-.8,0,0,17.432-1.374,30.87,16.827.208.28.407.56.605.849" transform="translate(-5.115 -4.686)" fill="#5f8457"/>
          <path id="Trazado_879318" data-name="Trazado 879318" d="M56.984,34.513a.452.452,0,0,1-.344-.745l2.924-3.429a.451.451,0,1,1,.687.586l-2.923,3.429a.449.449,0,0,1-.343.159" transform="translate(-5.445 -2.907)"/>
          <path id="Trazado_879319" data-name="Trazado 879319" d="M60.324,33.7l-.046,0-2.153-.216a.451.451,0,0,1-.4-.494.459.459,0,0,1,.494-.4l2.153.216a.452.452,0,0,1-.044.9" transform="translate(-5.559 -3.138)"/>
          <path id="Trazado_879320" data-name="Trazado 879320" d="M49.353,30a.452.452,0,0,1-.452-.446l-.025-2.138a.452.452,0,1,1,.9-.011l.025,2.138a.451.451,0,0,1-.446.457Z" transform="translate(-4.708 -2.597)"/>
          <path id="Trazado_879321" data-name="Trazado 879321" d="M40.546,30.447a.454.454,0,0,1-.452-.457l.023-2.138a.452.452,0,0,1,.9.011L41,30a.452.452,0,0,1-.452.446" transform="translate(-3.862 -2.64)"/>
          <path id="Trazado_879322" data-name="Trazado 879322" d="M35.164,34.265a.448.448,0,0,1-.366-.188l-2.5-3.459a.452.452,0,0,1,.733-.528l2.494,3.459a.449.449,0,0,1-.1.63.44.44,0,0,1-.264.086" transform="translate(-3.103 -2.88)"/>
          <path id="Trazado_879323" data-name="Trazado 879323" d="M32.266,33.557a.452.452,0,0,1-.059-.9l1.983-.267a.451.451,0,0,1,.12.895l-1.984.267a.341.341,0,0,1-.061,0" transform="translate(-3.064 -3.119)"/>
          <path id="Trazado_879324" data-name="Trazado 879324" d="M44.96,36.844a.451.451,0,0,1-.369-.191c-1.807-2.547-.387-5.865-.325-6a.452.452,0,0,1,.828.362c-.013.029-1.274,2.993.235,5.12a.452.452,0,0,1-.369.713" transform="translate(-4.207 -2.926)"/>
          <path id="Trazado_879325" data-name="Trazado 879325" d="M48.238,40.1a3.139,3.139,0,0,1-1.473-.446.453.453,0,0,1-.034-.748l2.477-1.844a.451.451,0,0,1,.72.339c.065,1.269-.227,2.106-.868,2.485a1.586,1.586,0,0,1-.822.214m-.325-.947a.942.942,0,0,0,.687-.044,1.044,1.044,0,0,0,.389-.757Z" transform="translate(-4.483 -3.561)"/>
          <path id="Trazado_879326" data-name="Trazado 879326" d="M39.14,25.882a.452.452,0,0,1-.214-.849l1.824-.985a.452.452,0,1,1,.429.8l-1.825.984a.454.454,0,0,1-.214.054" transform="translate(-3.726 -2.311)"/>
          <path id="Trazado_879327" data-name="Trazado 879327" d="M49.847,25.663a.457.457,0,0,1-.164-.031l-2.73-1.067a.452.452,0,0,1,.328-.841l2.731,1.066a.452.452,0,0,1-.164.873" transform="translate(-4.495 -2.282)"/>
          <path id="Trazado_879328" data-name="Trazado 879328" d="M45.752,55.03a6.982,6.982,0,0,1-.931-.062,8.75,8.75,0,0,1-5.644-3.692.451.451,0,1,1,.758-.49,7.967,7.967,0,0,0,5.015,3.287c2.144.3,4.411-.6,6.724-2.663a.452.452,0,0,1,.6.676c-2.2,1.957-4.391,2.945-6.524,2.945" transform="translate(-3.766 -4.872)" fill="#e56445"/>
        </g>
      </g>
      <path id="Trazado_880527" data-name="Trazado 880527" d="M15.535,13.563a4.068,4.068,0,0,1-1.789,1.176,7.492,7.492,0,0,1-2.562.418,5.076,5.076,0,0,1-2.59-.645,4.3,4.3,0,0,1-1.719-1.871,6.585,6.585,0,0,1-.621-2.883V8.984a6.994,6.994,0,0,1,.574-2.949A4.248,4.248,0,0,1,8.484,4.129a4.771,4.771,0,0,1,2.535-.66,4.751,4.751,0,0,1,3.164.965,4.123,4.123,0,0,1,1.352,2.809H13.254a2.268,2.268,0,0,0-.691-1.43,2.208,2.208,0,0,0-1.473-.453,2.078,2.078,0,0,0-1.82.9A4.724,4.724,0,0,0,8.637,8.93v.727a4.5,4.5,0,0,0,.68,2.7,2.327,2.327,0,0,0,1.992.914,2.6,2.6,0,0,0,1.883-.562V10.75H11.059V9.023h4.477Zm6.813.578a2.831,2.831,0,0,1-2.312,1.016,2.67,2.67,0,0,1-2.074-.781,3.335,3.335,0,0,1-.73-2.289V6.547h2.258v5.467q0,1.322,1.2,1.322a1.63,1.63,0,0,0,1.578-.8V6.547h2.266V15H22.41Zm8.469-1.477a.727.727,0,0,0-.41-.652,4.659,4.659,0,0,0-1.316-.426q-3.016-.633-3.016-2.562a2.323,2.323,0,0,1,.934-1.879,3.766,3.766,0,0,1,2.441-.754,4.053,4.053,0,0,1,2.574.758,2.388,2.388,0,0,1,.965,1.969H30.73a1.092,1.092,0,0,0-.312-.8A1.322,1.322,0,0,0,29.441,8a1.351,1.351,0,0,0-.883.258.814.814,0,0,0-.312.656.7.7,0,0,0,.355.605,3.657,3.657,0,0,0,1.2.4,9.8,9.8,0,0,1,1.422.379,2.336,2.336,0,0,1,1.789,2.273,2.2,2.2,0,0,1-.992,1.871,4.28,4.28,0,0,1-2.562.715,4.47,4.47,0,0,1-1.887-.379,3.166,3.166,0,0,1-1.293-1.039,2.414,2.414,0,0,1-.469-1.426h2.141a1.179,1.179,0,0,0,.445.922,1.766,1.766,0,0,0,1.109.32,1.635,1.635,0,0,0,.98-.246A.766.766,0,0,0,30.816,12.664Zm6.352-8.2V6.547h1.445V8.2H37.168v4.219a1.007,1.007,0,0,0,.18.672.9.9,0,0,0,.688.2,3.6,3.6,0,0,0,.664-.055v1.711a4.648,4.648,0,0,1-1.367.2,2.156,2.156,0,0,1-2.422-2.4V8.2H33.676V6.547H34.91V4.469ZM44.77,15a2.507,2.507,0,0,1-.227-.758,2.732,2.732,0,0,1-2.133.914,3,3,0,0,1-2.059-.719,2.312,2.312,0,0,1-.816-1.812,2.389,2.389,0,0,1,1-2.062,4.915,4.915,0,0,1,2.879-.727h1.039V9.352a1.393,1.393,0,0,0-.3-.937,1.183,1.183,0,0,0-.949-.352,1.345,1.345,0,0,0-.895.273.929.929,0,0,0-.324.75H39.723a2.268,2.268,0,0,1,.453-1.359,3,3,0,0,1,1.281-.98,4.669,4.669,0,0,1,1.859-.355,3.689,3.689,0,0,1,2.48.785,2.747,2.747,0,0,1,.918,2.207v3.664a4.041,4.041,0,0,0,.336,1.82V15ZM42.9,13.43a1.945,1.945,0,0,0,.922-.223,1.462,1.462,0,0,0,.625-.6V11.156h-.844q-1.7,0-1.8,1.172l-.008.133a.9.9,0,0,0,.3.7A1.153,1.153,0,0,0,42.9,13.43ZM51.5,12.242l1.57-5.7h2.359L52.574,15H50.418L47.566,6.547h2.359ZM55.949,10.7a5.013,5.013,0,0,1,.484-2.242A3.546,3.546,0,0,1,57.828,6.93a4.069,4.069,0,0,1,2.113-.539,3.849,3.849,0,0,1,2.793,1.047,4.2,4.2,0,0,1,1.207,2.844l.016.578a4.418,4.418,0,0,1-1.086,3.121,4.209,4.209,0,0,1-5.832,0,4.5,4.5,0,0,1-1.09-3.187Zm2.258.16A3.16,3.16,0,0,0,58.66,12.7a1.628,1.628,0,0,0,2.578.008,3.457,3.457,0,0,0,.461-2.015,3.128,3.128,0,0,0-.461-1.831,1.5,1.5,0,0,0-1.3-.649,1.474,1.474,0,0,0-1.281.646A3.516,3.516,0,0,0,58.207,10.856Z" transform="translate(-4338.634 -3130)" fill="#12263f"/>
    </g>
  </g>
</svg>
