<svg xmlns="http://www.w3.org/2000/svg" xmlns:xlink="http://www.w3.org/1999/xlink" width="106.136" height="106.136" viewBox="0 0 106.136 106.136">
  <defs>
    <filter id="Elipse_9685" x="0" y="0" width="106.136" height="106.136" filterUnits="userSpaceOnUse">
      <feOffset dy="3" input="SourceAlpha"/>
      <feGaussianBlur stdDeviation="3" result="blur"/>
      <feFlood flood-opacity="0.161"/>
      <feComposite operator="in" in2="blur"/>
      <feComposite in="SourceGraphic"/>
    </filter>
  </defs>
  <g id="Grupo_1103378" data-name="Grupo 1103378" transform="translate(-737.932 -9747.46)">
    <circle id="Elipse_11310" data-name="Elipse 11310" cx="50" cy="50" r="50" transform="translate(741 9747.527)" fill="#fff"/>
    <g id="Grupo_1098210" data-name="Grupo 1098210" transform="translate(746.932 9753.46)">
      <g transform="matrix(1, 0, 0, 1, -9, -6)" filter="url(#Elipse_9685)">
        <g id="Elipse_9685-2" data-name="Elipse 9685" transform="translate(9 6)" fill="#f2e5fd" stroke="#a854f3" stroke-width="5">
          <circle cx="44.068" cy="44.068" r="44.068" stroke="none"/>
          <circle cx="44.068" cy="44.068" r="41.568" fill="none"/>
        </g>
      </g>
    </g>
    <g id="Grupo_1103394" data-name="Grupo 1103394" transform="translate(768.69 9775.218)">
      <g id="Grupo_1103384" data-name="Grupo 1103384" transform="translate(28.236 5.051)">
        <g id="Grupo_1103383" data-name="Grupo 1103383">
          <path id="Trazado_879332" data-name="Trazado 879332" d="M324.871,57.959a.873.873,0,1,0,.871.874v-.005A.869.869,0,0,0,324.871,57.959Z" transform="translate(-324 -57.959)" fill="#a854f3" stroke="#a854f3" stroke-width="0.5"/>
        </g>
      </g>
      <g id="Grupo_1103386" data-name="Grupo 1103386" transform="translate(16.819 3.05)">
        <g id="Grupo_1103385" data-name="Grupo 1103385">
          <path id="Trazado_879333" data-name="Trazado 879333" d="M201.936,35.573A50.776,50.776,0,0,0,193.871,35a.871.871,0,0,0,0,1.743,49.029,49.029,0,0,1,7.774.548.871.871,0,1,0,.291-1.718Z" transform="translate(-193 -35)" fill="#a854f3" stroke="#a854f3" stroke-width="0.5"/>
        </g>
      </g>
      <g id="Grupo_1103388" data-name="Grupo 1103388" transform="translate(28.933 28.933)">
        <g id="Grupo_1103387" data-name="Grupo 1103387">
          <path id="Trazado_879334" data-name="Trazado 879334" d="M341.935,336.53a.872.872,0,0,0-.871.871,3.66,3.66,0,1,1-3.421-3.652.871.871,0,0,0,.113-1.739,5.4,5.4,0,1,0,5.051,5.392A.871.871,0,0,0,341.935,336.53Z" transform="translate(-332 -331.999)" fill="#a854f3" stroke="#a854f3" stroke-width="0.5"/>
        </g>
      </g>
      <g id="Grupo_1103390" data-name="Grupo 1103390" transform="translate(36.653 30.245)">
        <g id="Grupo_1103389" data-name="Grupo 1103389">
          <path id="Trazado_879335" data-name="Trazado 879335" d="M422.1,347.326l-.014-.014-.62.612.616-.616a.872.872,0,1,0-1.233,1.233l.013.013a.871.871,0,1,0,1.238-1.227Z" transform="translate(-420.594 -347.053)" fill="#a854f3" stroke="#a854f3" stroke-width="0.5"/>
        </g>
      </g>
      <g id="Grupo_1103392" data-name="Grupo 1103392">
        <g id="Grupo_1103391" data-name="Grupo 1103391">
          <path id="Trazado_879336" data-name="Trazado 879336" d="M43.958,32.054l-1.265-.315-.612-1.476.671-1.117a.871.871,0,0,0-.131-1.065L40.591,26.05a.871.871,0,0,0-1.065-.131l-1.117.671-1.476-.612-.315-1.265a.871.871,0,0,0-.846-.661h-.39V5.925c0-1.793-1.918-3.318-5.547-4.408A44,44,0,0,0,17.691,0,44,44,0,0,0,5.547,1.517C1.918,2.607,0,4.132,0,5.925V38.694c0,1.793,1.918,3.318,5.547,4.408a44,44,0,0,0,12.144,1.517,54.271,54.271,0,0,0,5.64-.286.871.871,0,1,0-.182-1.733,52.534,52.534,0,0,1-5.458.277A42.239,42.239,0,0,1,6.049,41.433c-3.178-.955-4.306-2.072-4.306-2.739v-8.21a13.526,13.526,0,0,0,3.8,1.7A44,44,0,0,0,17.691,33.7c1.336,0,2.666-.047,3.955-.138a.871.871,0,1,0-.124-1.738c-1.248.089-2.537.134-3.831.134A42.239,42.239,0,0,1,6.049,30.51c-3.178-.955-4.306-2.072-4.306-2.739V19.561a13.528,13.528,0,0,0,3.8,1.7,43.994,43.994,0,0,0,12.144,1.517,44,44,0,0,0,12.144-1.517,13.531,13.531,0,0,0,3.8-1.7v4.492H32.9a.871.871,0,0,0-.846.661l-.315,1.265-1.476.612-1.117-.671a.871.871,0,0,0-1.065.131L26.05,28.081a.871.871,0,0,0-.131,1.065l.671,1.117-.612,1.476-1.265.315a.871.871,0,0,0-.661.846v2.872a.871.871,0,0,0,.661.846l1.265.315.612,1.476-.671,1.117a.872.872,0,0,0,.131,1.065l2.031,2.031a.872.872,0,0,0,1.065.131l1.117-.671,1.476.612.315,1.265a.871.871,0,0,0,.846.661h2.872a.871.871,0,0,0,.846-.661l.315-1.265,1.476-.612,1.117.671a.872.872,0,0,0,1.065-.131l2.031-2.031a.872.872,0,0,0,.131-1.065l-.671-1.117.612-1.476,1.265-.315a.871.871,0,0,0,.661-.846V32.9A.872.872,0,0,0,43.958,32.054ZM6.049,3.186A42.239,42.239,0,0,1,17.691,1.743,42.239,42.239,0,0,1,29.333,3.186c3.178.955,4.306,2.072,4.306,2.739s-1.128,1.784-4.306,2.739a42.238,42.238,0,0,1-11.642,1.443A42.238,42.238,0,0,1,6.049,8.664C2.871,7.709,1.743,6.592,1.743,5.925S2.871,4.141,6.049,3.186Zm23.285,16.4A42.238,42.238,0,0,1,17.691,21.03,42.239,42.239,0,0,1,6.049,19.587c-3.178-.955-4.306-2.072-4.306-2.739V8.638a13.528,13.528,0,0,0,3.8,1.7A43.994,43.994,0,0,0,17.691,11.85a44,44,0,0,0,12.144-1.517,13.531,13.531,0,0,0,3.8-1.7v8.211C33.639,17.515,32.511,18.632,29.333,19.587Zm13.543,15.5-1.031.257a.871.871,0,0,0-.594.512L40.3,38.148a.871.871,0,0,0,.058.783l.547.91L39.84,40.908l-.91-.547a.872.872,0,0,0-.783-.058l-2.288.948a.871.871,0,0,0-.512.594l-.257,1.031h-1.51l-.257-1.031a.871.871,0,0,0-.512-.594L30.524,40.3a.871.871,0,0,0-.783.058l-.91.547L27.764,39.84l.547-.91a.871.871,0,0,0,.058-.783l-.948-2.288a.872.872,0,0,0-.594-.512L25.8,35.091v-1.51l1.031-.257a.872.872,0,0,0,.594-.512l.948-2.288a.871.871,0,0,0-.058-.783l-.547-.91,1.068-1.068.91.547a.871.871,0,0,0,.783.058l2.288-.948a.871.871,0,0,0,.512-.594l.257-1.031h1.51l.257,1.031a.871.871,0,0,0,.512.594l2.288.948a.872.872,0,0,0,.783-.058l.91-.547,1.068,1.068-.547.91a.871.871,0,0,0-.058.783l.948,2.288a.872.872,0,0,0,.594.512l1.031.257Z" fill="#a854f3" stroke="#a854f3" stroke-width="0.5"/>
        </g>
      </g>
    </g>
  </g>
</svg>
