<svg xmlns="http://www.w3.org/2000/svg" width="334" height="314.164" viewBox="0 0 334 314.164">
  <g id="Grupo_1103199" data-name="Grupo 1103199" transform="translate(4024 8011)">
    <rect id="Rectángulo_403513" data-name="Rectángulo 403513" width="132" height="40" rx="10" transform="translate(-3822 -7872)" fill="#d6e1fd"/>
    <path id="Trazado_880529" data-name="Trazado 880529" d="M8.461,12.242a1.235,1.235,0,0,0-.355-1.152,5.335,5.335,0,0,0-1.691-.863A7.8,7.8,0,0,1,3.5,8.719,2.465,2.465,0,0,1,2.75,6.406a3,3,0,0,1,1.4-2.152,5.177,5.177,0,0,1,2.914-.793,4.455,4.455,0,0,1,3.008.926,2.586,2.586,0,0,1,.8,2.559l-.016.047H8.641a1.411,1.411,0,0,0-.4-1.277,1.96,1.96,0,0,0-1.43-.5,2.116,2.116,0,0,0-1.2.336,1.167,1.167,0,0,0-.57.836A1.1,1.1,0,0,0,5.41,7.5a7.217,7.217,0,0,0,1.941.879,6.817,6.817,0,0,1,2.73,1.48,2.624,2.624,0,0,1,.66,2.371A2.963,2.963,0,0,1,9.34,14.4a5.424,5.424,0,0,1-2.965.762,5.588,5.588,0,0,1-3.164-.848,2.4,2.4,0,0,1-.969-2.637l.016-.047H4.469A1.245,1.245,0,0,0,5,13a3.061,3.061,0,0,0,1.625.41,2.286,2.286,0,0,0,1.227-.328A1.192,1.192,0,0,0,8.461,12.242Zm6.8,2.922A3.361,3.361,0,0,1,12.465,14a3.71,3.71,0,0,1-.668-2.98l.047-.312a5.35,5.35,0,0,1,1.48-3.129,4.072,4.072,0,0,1,3.012-1.184,2.829,2.829,0,0,1,2.438,1.047,3.7,3.7,0,0,1,.523,2.8l-.172,1.18H14.078l-.016.039a1.957,1.957,0,0,0,.32,1.418,1.6,1.6,0,0,0,1.359.535,4.993,4.993,0,0,0,1.266-.141,9.4,9.4,0,0,0,1.2-.422l.352,1.438a5.365,5.365,0,0,1-1.418.617A6.622,6.622,0,0,1,15.258,15.164Zm.82-7.016a1.462,1.462,0,0,0-1.109.473,2.765,2.765,0,0,0-.641,1.246l.016.047h2.766l.031-.172A1.857,1.857,0,0,0,17,8.566.973.973,0,0,0,16.078,8.148Zm9.242.359-.828-.023a1.642,1.642,0,0,0-.863.219,1.722,1.722,0,0,0-.6.617L22.211,15H19.938l1.227-8.453h2.117L23.2,7.789a3.168,3.168,0,0,1,.914-1.035,1.971,1.971,0,0,1,1.148-.363,1.659,1.659,0,0,1,.309.027q.145.027.285.066Zm4.039,3.344.031.773.047.008.273-.781,2.164-5.3h2.383L30.156,15h-2.18L26.328,6.547h2.383ZM36.422,15H34.141L35.906,2.813h2.281Zm5.563.164A3.361,3.361,0,0,1,39.191,14a3.71,3.71,0,0,1-.668-2.98l.047-.312a5.35,5.35,0,0,1,1.48-3.129,4.072,4.072,0,0,1,3.012-1.184A2.829,2.829,0,0,1,45.5,7.438a3.7,3.7,0,0,1,.523,2.8l-.172,1.18H40.8l-.016.039a1.957,1.957,0,0,0,.32,1.418,1.6,1.6,0,0,0,1.359.535,4.993,4.993,0,0,0,1.266-.141,9.4,9.4,0,0,0,1.2-.422l.352,1.438a5.365,5.365,0,0,1-1.418.617A6.622,6.622,0,0,1,41.984,15.164Zm.82-7.016a1.462,1.462,0,0,0-1.109.473,2.765,2.765,0,0,0-.641,1.246l.016.047h2.766l.031-.172a1.857,1.857,0,0,0-.141-1.176A.973.973,0,0,0,42.8,8.148Zm8.078-3.672-.3,2.07h1.43l-.234,1.6H50.352l-.625,4.3a.887.887,0,0,0,.1.711.65.65,0,0,0,.52.2,2.284,2.284,0,0,0,.313-.02,2.514,2.514,0,0,0,.313-.066l-.047,1.648a5.04,5.04,0,0,1-.7.176,4.184,4.184,0,0,1-.719.059,2.116,2.116,0,0,1-1.711-.656,2.538,2.538,0,0,1-.352-2.047l.625-4.312H46.836l.234-1.6H48.3l.3-2.07Zm8.289,6.4L58.578,15H56.3L57.945,3.625H62.3a3.943,3.943,0,0,1,2.918,1.008,2.935,2.935,0,0,1,.777,2.625A3.947,3.947,0,0,1,64.48,9.9a5.125,5.125,0,0,1-3.23.977Zm.258-1.758H61.5a2.1,2.1,0,0,0,2.2-1.844A1.74,1.74,0,0,0,63.41,5.91a1.633,1.633,0,0,0-1.371-.527h-2.07Zm12.242-.609-.828-.023a1.642,1.642,0,0,0-.863.219,1.722,1.722,0,0,0-.6.617L68.563,15H66.289l1.227-8.453h2.117l-.078,1.242a3.168,3.168,0,0,1,.914-1.035,1.971,1.971,0,0,1,1.148-.363,1.659,1.659,0,0,1,.309.027q.145.027.285.066Zm.211,2.188a5.257,5.257,0,0,1,1.5-3.117,4.264,4.264,0,0,1,3.1-1.187A3.2,3.2,0,0,1,79.219,7.6a4.032,4.032,0,0,1,.641,3.094l-.023.164a5.283,5.283,0,0,1-1.508,3.125,4.277,4.277,0,0,1-3.1,1.18,3.209,3.209,0,0,1-2.742-1.207,3.989,3.989,0,0,1-.625-3.1Zm2.25.164a3.448,3.448,0,0,0,.133,1.867,1.191,1.191,0,0,0,1.211.688,1.649,1.649,0,0,0,1.387-.707,4,4,0,0,0,.691-1.848l.023-.164a3.415,3.415,0,0,0-.145-1.848,1.19,1.19,0,0,0-1.207-.7,1.641,1.641,0,0,0-1.387.719,3.979,3.979,0,0,0-.684,1.828Zm6.773-.016a6.245,6.245,0,0,1,1.332-3.25,3.308,3.308,0,0,1,2.621-1.2,2.11,2.11,0,0,1,1.191.328,2.308,2.308,0,0,1,.793.93l.344-1.1h1.961L87.93,14.961a3.715,3.715,0,0,1-1.445,2.57,5.16,5.16,0,0,1-3.141.883,5.372,5.372,0,0,1-1.328-.18,5.757,5.757,0,0,1-1.266-.477l.625-1.7a4.665,4.665,0,0,0,1.031.379,5.107,5.107,0,0,0,1.188.129,2.269,2.269,0,0,0,1.422-.395,1.808,1.808,0,0,0,.633-1.215l.109-.766a3.158,3.158,0,0,1-.988.727,2.833,2.833,0,0,1-1.2.25,2.455,2.455,0,0,1-2.242-1.148,4.36,4.36,0,0,1-.445-3.008Zm2.258.164a3.248,3.248,0,0,0,.117,1.758,1.109,1.109,0,0,0,1.125.625,2,2,0,0,0,.906-.2,1.845,1.845,0,0,0,.672-.574l.531-3.633a1.272,1.272,0,0,0-.5-.609,1.61,1.61,0,0,0-2.156.535,4.6,4.6,0,0,0-.676,1.934Zm11.891-2.5-.828-.023a1.642,1.642,0,0,0-.863.219,1.722,1.722,0,0,0-.6.617L91.945,15H89.672L90.9,6.547h2.117l-.078,1.242a3.168,3.168,0,0,1,.914-1.035A1.971,1.971,0,0,1,95,6.391a1.659,1.659,0,0,1,.309.027q.145.027.285.066ZM100.242,15a2.967,2.967,0,0,1-.105-.582,5.227,5.227,0,0,1-.012-.676,3.9,3.9,0,0,1-1.078,1.02,2.608,2.608,0,0,1-1.43.4,2.5,2.5,0,0,1-1.93-.687,2.165,2.165,0,0,1-.469-1.859,2.655,2.655,0,0,1,1.238-1.937,5.344,5.344,0,0,1,2.895-.672h1.273l.1-.672a1.2,1.2,0,0,0-.184-.953,1.106,1.106,0,0,0-.9-.328,1.421,1.421,0,0,0-.891.27,1.068,1.068,0,0,0-.414.738h-2.2l-.008-.047a2.552,2.552,0,0,1,1.2-1.863,4.6,4.6,0,0,1,2.7-.762,3.341,3.341,0,0,1,2.332.77,2.327,2.327,0,0,1,.645,2.191l-.508,3.492a5.949,5.949,0,0,0-.074,1.125A5.6,5.6,0,0,0,102.563,15Zm-1.82-1.523a2.178,2.178,0,0,0,1.1-.3,1.969,1.969,0,0,0,.75-.691l.172-1.187H99.164a1.723,1.723,0,0,0-1.145.363,1.361,1.361,0,0,0-.5.879.76.76,0,0,0,.172.688A.979.979,0,0,0,98.422,13.477Zm8.758-5.836a3.362,3.362,0,0,1,1.145-.926,3.3,3.3,0,0,1,1.473-.324,2.308,2.308,0,0,1,1.316.359,1.814,1.814,0,0,1,.73,1.078,3.527,3.527,0,0,1,1.168-1.059,3.113,3.113,0,0,1,1.535-.379,2.056,2.056,0,0,1,1.828.891,3.875,3.875,0,0,1,.344,2.7L115.992,15h-2.281l.727-5.023a2.254,2.254,0,0,0-.1-1.426.961.961,0,0,0-.875-.387,1.744,1.744,0,0,0-.867.219,2,2,0,0,0-.664.609q-.008.109-.02.227t-.027.227l-.8,5.555H108.8l.727-5.023a2.213,2.213,0,0,0-.105-1.414.96.96,0,0,0-.879-.4,1.876,1.876,0,0,0-.836.184,1.994,1.994,0,0,0-.656.52L106.172,15H103.9l1.227-8.453h2.117Z" transform="translate(-3815 -7861)" fill="#12263f"/>
    <path id="Trazado_880531" data-name="Trazado 880531" d="M6.3,3.625a4.059,4.059,0,0,1,3.211,1.34,4.041,4.041,0,0,1,.883,3.41l-.273,1.883A5.363,5.363,0,0,1,8.277,13.7,5.42,5.42,0,0,1,4.652,15H.676L2.324,3.625ZM4.355,5.383,3.215,13.25H4.9a2.6,2.6,0,0,0,1.918-.844,3.785,3.785,0,0,0,1.02-2.148l.273-1.9a2.963,2.963,0,0,0-.379-2.152,1.917,1.917,0,0,0-1.691-.824ZM16,15a2.968,2.968,0,0,1-.105-.582,5.226,5.226,0,0,1-.012-.676,3.9,3.9,0,0,1-1.078,1.02,2.608,2.608,0,0,1-1.43.4,2.5,2.5,0,0,1-1.93-.687,2.165,2.165,0,0,1-.469-1.859,2.655,2.655,0,0,1,1.238-1.937,5.344,5.344,0,0,1,2.895-.672h1.273l.1-.672a1.2,1.2,0,0,0-.184-.953,1.106,1.106,0,0,0-.9-.328,1.421,1.421,0,0,0-.891.27,1.068,1.068,0,0,0-.414.738H11.9l-.008-.047a2.552,2.552,0,0,1,1.2-1.863,4.6,4.6,0,0,1,2.7-.762,3.341,3.341,0,0,1,2.332.77,2.327,2.327,0,0,1,.645,2.191l-.508,3.492a5.949,5.949,0,0,0-.074,1.125A5.6,5.6,0,0,0,18.324,15Zm-1.82-1.523a2.178,2.178,0,0,0,1.1-.3,1.969,1.969,0,0,0,.75-.691l.172-1.187H14.926a1.723,1.723,0,0,0-1.145.363,1.361,1.361,0,0,0-.5.879.76.76,0,0,0,.172.688A.979.979,0,0,0,14.184,13.477Zm9.7-9-.3,2.07H25l-.234,1.6H23.348l-.625,4.3a.887.887,0,0,0,.1.711.65.65,0,0,0,.52.2,2.284,2.284,0,0,0,.313-.02,2.514,2.514,0,0,0,.313-.066l-.047,1.648a5.04,5.04,0,0,1-.7.176,4.184,4.184,0,0,1-.719.059,2.116,2.116,0,0,1-1.711-.656,2.538,2.538,0,0,1-.352-2.047l.625-4.312H19.832l.234-1.6h1.227l.3-2.07ZM30.09,15a2.968,2.968,0,0,1-.105-.582,5.226,5.226,0,0,1-.012-.676,3.9,3.9,0,0,1-1.078,1.02,2.608,2.608,0,0,1-1.43.4,2.5,2.5,0,0,1-1.93-.687,2.165,2.165,0,0,1-.469-1.859A2.655,2.655,0,0,1,26.3,10.68a5.344,5.344,0,0,1,2.895-.672h1.273l.1-.672a1.2,1.2,0,0,0-.184-.953,1.106,1.106,0,0,0-.9-.328,1.421,1.421,0,0,0-.891.27,1.068,1.068,0,0,0-.414.738h-2.2l-.008-.047a2.552,2.552,0,0,1,1.2-1.863,4.6,4.6,0,0,1,2.7-.762,3.341,3.341,0,0,1,2.332.77,2.327,2.327,0,0,1,.645,2.191l-.508,3.492a5.949,5.949,0,0,0-.074,1.125A5.6,5.6,0,0,0,32.41,15Zm-1.82-1.523a2.178,2.178,0,0,0,1.1-.3,1.969,1.969,0,0,0,.75-.691l.172-1.187H29.012a1.723,1.723,0,0,0-1.145.363,1.361,1.361,0,0,0-.5.879.76.76,0,0,0,.172.688A.979.979,0,0,0,28.27,13.477Zm13.68-2.469a5.661,5.661,0,0,1-1.281,3.043,3.333,3.333,0,0,1-2.6,1.113,2.268,2.268,0,0,1-1.234-.32,2.209,2.209,0,0,1-.8-.93L35.676,15h-1.93L35.512,2.813h2.273l-.672,4.633a3.349,3.349,0,0,1,1-.781,2.669,2.669,0,0,1,1.211-.273,2.38,2.38,0,0,1,2.254,1.223,5.077,5.077,0,0,1,.395,3.23Zm-2.25-.164a4.213,4.213,0,0,0-.078-1.969,1.075,1.075,0,0,0-1.133-.711,1.814,1.814,0,0,0-.918.23,2.063,2.063,0,0,0-.684.645L36.371,12.6a1.116,1.116,0,0,0,.492.59,1.744,1.744,0,0,0,.883.2,1.518,1.518,0,0,0,1.313-.629,3.969,3.969,0,0,0,.617-1.754ZM47.715,15a2.968,2.968,0,0,1-.105-.582,5.226,5.226,0,0,1-.012-.676,3.9,3.9,0,0,1-1.078,1.02,2.608,2.608,0,0,1-1.43.4,2.5,2.5,0,0,1-1.93-.687,2.165,2.165,0,0,1-.469-1.859A2.655,2.655,0,0,1,43.93,10.68a5.344,5.344,0,0,1,2.895-.672H48.1l.1-.672a1.2,1.2,0,0,0-.184-.953,1.106,1.106,0,0,0-.9-.328,1.421,1.421,0,0,0-.891.27,1.068,1.068,0,0,0-.414.738h-2.2l-.008-.047a2.552,2.552,0,0,1,1.2-1.863,4.6,4.6,0,0,1,2.7-.762,3.341,3.341,0,0,1,2.332.77,2.327,2.327,0,0,1,.645,2.191l-.508,3.492a5.949,5.949,0,0,0-.074,1.125A5.6,5.6,0,0,0,50.035,15Zm-1.82-1.523a2.178,2.178,0,0,0,1.1-.3,1.969,1.969,0,0,0,.75-.691l.172-1.187H46.637a1.723,1.723,0,0,0-1.145.363,1.361,1.361,0,0,0-.5.879.76.76,0,0,0,.172.688A.979.979,0,0,0,45.895,13.477Zm10.414-.82a.665.665,0,0,0-.27-.645,3.385,3.385,0,0,0-1.285-.473,4.649,4.649,0,0,1-2.125-.9,1.721,1.721,0,0,1-.547-1.633,2.747,2.747,0,0,1,1.18-1.863,4.2,4.2,0,0,1,2.563-.754,3.565,3.565,0,0,1,2.441.77,1.95,1.95,0,0,1,.676,1.9l-.016.047h-2.2a1.018,1.018,0,0,0-.215-.832,1.143,1.143,0,0,0-.9-.316,1.458,1.458,0,0,0-.9.273.994.994,0,0,0-.418.672.658.658,0,0,0,.242.641,3.3,3.3,0,0,0,1.289.438A4.721,4.721,0,0,1,58,10.9a1.784,1.784,0,0,1,.535,1.668A2.67,2.67,0,0,1,57.3,14.449a4.719,4.719,0,0,1-2.684.715,3.458,3.458,0,0,1-2.527-.863,2.086,2.086,0,0,1-.684-1.941l.023-.047h2.086a1.041,1.041,0,0,0,.309.984,1.648,1.648,0,0,0,1.059.3,1.741,1.741,0,0,0,.992-.254A.969.969,0,0,0,56.309,12.656Zm7,2.508A3.361,3.361,0,0,1,60.516,14a3.71,3.71,0,0,1-.668-2.98l.047-.312a5.35,5.35,0,0,1,1.48-3.129,4.072,4.072,0,0,1,3.012-1.184,2.829,2.829,0,0,1,2.438,1.047,3.7,3.7,0,0,1,.523,2.8l-.172,1.18H62.129l-.016.039a1.957,1.957,0,0,0,.32,1.418,1.6,1.6,0,0,0,1.359.535,4.993,4.993,0,0,0,1.266-.141,9.4,9.4,0,0,0,1.2-.422l.352,1.438a5.365,5.365,0,0,1-1.418.617A6.622,6.622,0,0,1,63.309,15.164Zm.82-7.016a1.462,1.462,0,0,0-1.109.473,2.765,2.765,0,0,0-.641,1.246l.016.047H65.16l.031-.172a1.857,1.857,0,0,0-.141-1.176A.973.973,0,0,0,64.129,8.148Z" transform="translate(-3790 -7712)" fill="#12263f"/>
    <path id="Trazado_880530" data-name="Trazado 880530" d="M15.555,15H13.281l.68-4.727H9.328L8.648,15H6.359L8.008,3.625H10.3L9.586,8.516h4.633l.711-4.891H17.2ZM26.969,5.383h-3.25L22.328,15H20.047l1.391-9.617h-3.2l.258-1.758h8.734Zm9.43,0h-3.25L31.758,15H29.477l1.391-9.617h-3.2l.258-1.758h8.734Zm2.719,5.492L38.523,15H36.242L37.891,3.625h4.352A3.943,3.943,0,0,1,45.16,4.633a2.935,2.935,0,0,1,.777,2.625A3.947,3.947,0,0,1,44.426,9.9a5.125,5.125,0,0,1-3.23.977Zm.258-1.758h2.07a2.1,2.1,0,0,0,2.2-1.844,1.74,1.74,0,0,0-.293-1.363,1.633,1.633,0,0,0-1.371-.527h-2.07Zm17.578,3.125A1.235,1.235,0,0,0,56.6,11.09a5.335,5.335,0,0,0-1.691-.863,7.8,7.8,0,0,1-2.918-1.508,2.465,2.465,0,0,1-.746-2.312,3,3,0,0,1,1.4-2.152,5.177,5.177,0,0,1,2.914-.793,4.455,4.455,0,0,1,3.008.926,2.586,2.586,0,0,1,.8,2.559l-.016.047H57.133a1.411,1.411,0,0,0-.4-1.277,1.96,1.96,0,0,0-1.43-.5,2.116,2.116,0,0,0-1.2.336,1.167,1.167,0,0,0-.57.836A1.1,1.1,0,0,0,53.9,7.5a7.217,7.217,0,0,0,1.941.879,6.817,6.817,0,0,1,2.73,1.48,2.624,2.624,0,0,1,.66,2.371,2.963,2.963,0,0,1-1.4,2.176,5.424,5.424,0,0,1-2.965.762,5.588,5.588,0,0,1-3.164-.848,2.4,2.4,0,0,1-.969-2.637l.016-.047h2.211A1.245,1.245,0,0,0,53.492,13a3.061,3.061,0,0,0,1.625.41,2.286,2.286,0,0,0,1.227-.328A1.192,1.192,0,0,0,56.953,12.242Zm6.8,2.922A3.361,3.361,0,0,1,60.957,14a3.71,3.71,0,0,1-.668-2.98l.047-.312a5.35,5.35,0,0,1,1.48-3.129,4.072,4.072,0,0,1,3.012-1.184,2.829,2.829,0,0,1,2.438,1.047,3.7,3.7,0,0,1,.523,2.8l-.172,1.18H62.57l-.016.039a1.957,1.957,0,0,0,.32,1.418,1.6,1.6,0,0,0,1.359.535,4.993,4.993,0,0,0,1.266-.141,9.4,9.4,0,0,0,1.2-.422l.352,1.438a5.365,5.365,0,0,1-1.418.617A6.622,6.622,0,0,1,63.75,15.164Zm.82-7.016a1.462,1.462,0,0,0-1.109.473,2.765,2.765,0,0,0-.641,1.246l.016.047H65.6l.031-.172a1.857,1.857,0,0,0-.141-1.176A.973.973,0,0,0,64.57,8.148Zm9.242.359-.828-.023a1.642,1.642,0,0,0-.863.219,1.722,1.722,0,0,0-.6.617L70.7,15H68.43l1.227-8.453h2.117L71.7,7.789a3.168,3.168,0,0,1,.914-1.035,1.971,1.971,0,0,1,1.148-.363,1.659,1.659,0,0,1,.309.027q.145.027.285.066Zm4.039,3.344.031.773.047.008.273-.781,2.164-5.3H82.75L78.648,15h-2.18L74.82,6.547H77.2Zm8.141,3.313A3.361,3.361,0,0,1,83.2,14a3.71,3.71,0,0,1-.668-2.98l.047-.312a5.35,5.35,0,0,1,1.48-3.129A4.072,4.072,0,0,1,87.07,6.391a2.829,2.829,0,0,1,2.438,1.047,3.7,3.7,0,0,1,.523,2.8l-.172,1.18H84.813l-.016.039a1.957,1.957,0,0,0,.32,1.418,1.6,1.6,0,0,0,1.359.535,4.993,4.993,0,0,0,1.266-.141,9.4,9.4,0,0,0,1.2-.422l.352,1.438a5.365,5.365,0,0,1-1.418.617A6.622,6.622,0,0,1,85.992,15.164Zm.82-7.016a1.462,1.462,0,0,0-1.109.473,2.765,2.765,0,0,0-.641,1.246l.016.047h2.766l.031-.172a1.857,1.857,0,0,0-.141-1.176A.973.973,0,0,0,86.813,8.148Zm9.242.359-.828-.023a1.642,1.642,0,0,0-.863.219,1.722,1.722,0,0,0-.6.617L92.945,15H90.672L91.9,6.547h2.117l-.078,1.242a3.168,3.168,0,0,1,.914-1.035A1.971,1.971,0,0,1,96,6.391a1.659,1.659,0,0,1,.309.027q.145.027.285.066Z" transform="translate(-3807 -7925)" fill="#12263f"/>
    <path id="Trazado_880528" data-name="Trazado 880528" d="M25.922,11.336h.047L28.6,3.625h2.352L26.648,15H24.531l-1-7.484-.047-.008L20.3,15H18.188L17.18,3.625h2.352l.4,7.7.047.008,3.164-7.7h1.844Zm7.617,3.828A3.361,3.361,0,0,1,30.746,14a3.71,3.71,0,0,1-.668-2.98l.047-.312a5.35,5.35,0,0,1,1.48-3.129,4.072,4.072,0,0,1,3.012-1.184,2.829,2.829,0,0,1,2.438,1.047,3.7,3.7,0,0,1,.523,2.8l-.172,1.18H32.359l-.016.039a1.957,1.957,0,0,0,.32,1.418,1.6,1.6,0,0,0,1.359.535,4.993,4.993,0,0,0,1.266-.141,9.4,9.4,0,0,0,1.2-.422l.352,1.438a5.365,5.365,0,0,1-1.418.617A6.622,6.622,0,0,1,33.539,15.164Zm.82-7.016a1.462,1.462,0,0,0-1.109.473,2.765,2.765,0,0,0-.641,1.246l.016.047h2.766l.031-.172a1.857,1.857,0,0,0-.141-1.176A.973.973,0,0,0,34.359,8.148Zm12.063,2.859a5.661,5.661,0,0,1-1.281,3.043,3.333,3.333,0,0,1-2.6,1.113,2.268,2.268,0,0,1-1.234-.32,2.209,2.209,0,0,1-.8-.93L40.148,15h-1.93L39.984,2.813h2.273l-.672,4.633a3.349,3.349,0,0,1,1-.781A2.669,2.669,0,0,1,43.8,6.391a2.38,2.38,0,0,1,2.254,1.223,5.077,5.077,0,0,1,.395,3.23Zm-2.25-.164a4.213,4.213,0,0,0-.078-1.969,1.075,1.075,0,0,0-1.133-.711,1.814,1.814,0,0,0-.918.23,2.063,2.063,0,0,0-.684.645L40.844,12.6a1.116,1.116,0,0,0,.492.59,1.744,1.744,0,0,0,.883.2,1.518,1.518,0,0,0,1.313-.629,3.969,3.969,0,0,0,.617-1.754ZM2.7,35,4.344,23.625H8.07a4.87,4.87,0,0,1,3,.789,2.289,2.289,0,0,1,.8,2.328,2.876,2.876,0,0,1-.605,1.406,3,3,0,0,1-1.316.922A2.036,2.036,0,0,1,11.41,30a2.554,2.554,0,0,1,.293,1.688,3.475,3.475,0,0,1-1.43,2.488A5.482,5.482,0,0,1,7.094,35ZM5.7,29.969,5.227,33.25H7.344a2.35,2.35,0,0,0,1.43-.4,1.7,1.7,0,0,0,.656-1.164,1.489,1.489,0,0,0-.277-1.281A1.764,1.764,0,0,0,7.8,29.969Zm.227-1.578H7.461a2.514,2.514,0,0,0,1.445-.379,1.541,1.541,0,0,0,.664-1.09,1.217,1.217,0,0,0-.328-1.172,2.221,2.221,0,0,0-1.43-.367H6.367Zm12.188.117-.828-.023a1.642,1.642,0,0,0-.863.219,1.722,1.722,0,0,0-.6.617L15.008,35H12.734l1.227-8.453h2.117L16,27.789a3.168,3.168,0,0,1,.914-1.035,1.971,1.971,0,0,1,1.148-.363,1.659,1.659,0,0,1,.309.027q.145.027.285.066Zm.211,2.188a5.257,5.257,0,0,1,1.5-3.117,4.264,4.264,0,0,1,3.1-1.187A3.2,3.2,0,0,1,25.664,27.6,4.032,4.032,0,0,1,26.3,30.7l-.023.164a5.283,5.283,0,0,1-1.508,3.125,4.277,4.277,0,0,1-3.1,1.18,3.209,3.209,0,0,1-2.742-1.207,3.989,3.989,0,0,1-.625-3.1Zm2.25.164a3.448,3.448,0,0,0,.133,1.867,1.191,1.191,0,0,0,1.211.688,1.649,1.649,0,0,0,1.387-.707A4,4,0,0,0,24,30.859l.023-.164a3.415,3.415,0,0,0-.145-1.848,1.19,1.19,0,0,0-1.207-.7,1.641,1.641,0,0,0-1.387.719A3.979,3.979,0,0,0,20.6,30.7Zm14.172.984H34.8l1.789-5.3H38.8L35.43,35H33.523l-.859-4.867-.047-.008L30.336,35h-1.9l-.922-8.453h2.219L30,31.82l.047.008L32.4,26.547h1.523Zm8.9.813a.665.665,0,0,0-.27-.645,3.385,3.385,0,0,0-1.285-.473,4.649,4.649,0,0,1-2.125-.9,1.721,1.721,0,0,1-.547-1.633,2.747,2.747,0,0,1,1.18-1.863,4.2,4.2,0,0,1,2.563-.754,3.565,3.565,0,0,1,2.441.77,1.95,1.95,0,0,1,.676,1.9l-.016.047h-2.2a1.018,1.018,0,0,0-.215-.832,1.143,1.143,0,0,0-.9-.316,1.458,1.458,0,0,0-.9.273.994.994,0,0,0-.418.672.658.658,0,0,0,.242.641,3.3,3.3,0,0,0,1.289.438,4.721,4.721,0,0,1,2.184.918,1.784,1.784,0,0,1,.535,1.668,2.67,2.67,0,0,1-1.238,1.879,4.719,4.719,0,0,1-2.684.715,3.458,3.458,0,0,1-2.527-.863,2.086,2.086,0,0,1-.684-1.941l.023-.047h2.086a1.041,1.041,0,0,0,.309.984,1.648,1.648,0,0,0,1.059.3,1.741,1.741,0,0,0,.992-.254A.969.969,0,0,0,43.648,32.656Zm7,2.508A3.361,3.361,0,0,1,47.855,34a3.71,3.71,0,0,1-.668-2.98l.047-.312a5.35,5.35,0,0,1,1.48-3.129,4.072,4.072,0,0,1,3.012-1.184,2.829,2.829,0,0,1,2.438,1.047,3.7,3.7,0,0,1,.523,2.8l-.172,1.18H49.469l-.016.039a1.957,1.957,0,0,0,.32,1.418,1.6,1.6,0,0,0,1.359.535,4.993,4.993,0,0,0,1.266-.141,9.4,9.4,0,0,0,1.2-.422l.352,1.438a5.365,5.365,0,0,1-1.418.617A6.622,6.622,0,0,1,50.648,35.164Zm.82-7.016a1.462,1.462,0,0,0-1.109.473,2.765,2.765,0,0,0-.641,1.246l.016.047H52.5l.031-.172a1.857,1.857,0,0,0-.141-1.176A.973.973,0,0,0,51.469,28.148Zm9.242.359-.828-.023a1.642,1.642,0,0,0-.863.219,1.722,1.722,0,0,0-.6.617L57.6,35H55.328l1.227-8.453h2.117l-.078,1.242a3.168,3.168,0,0,1,.914-1.035,1.971,1.971,0,0,1,1.148-.363,1.659,1.659,0,0,1,.309.027q.145.027.285.066Z" transform="translate(-4013 -7813)" fill="#12263f"/>
    <g id="Grupo_1103187" data-name="Grupo 1103187" transform="translate(-4624 -8496)">
      <circle id="Elipse_11685" data-name="Elipse 11685" cx="42.5" cy="42.5" r="42.5" transform="translate(600 588)" fill="#00ffdf"/>
      <g id="Grupo_1103196" data-name="Grupo 1103196" transform="translate(617.628 605.628)">
        <path id="Trazado_879224" data-name="Trazado 879224" d="M117.944,102h23.318a1.949,1.949,0,0,1,1.943,1.943v17.779a1.949,1.949,0,0,1-1.943,1.943H117.944A1.949,1.949,0,0,1,116,121.726V103.947A1.949,1.949,0,0,1,117.944,102Z" transform="translate(-104.731 -92.094)" fill="#a4fbc4" fill-rule="evenodd"/>
        <g id="Grupo_1103195" data-name="Grupo 1103195" transform="translate(0 0)">
          <path id="Trazado_879225" data-name="Trazado 879225" d="M48.773,42.943H47.8V11.853a2.918,2.918,0,0,0-2.915-2.915H43.332V.972A.972.972,0,0,0,42.36,0H7.384a.972.972,0,0,0-.972.972V8.939H4.858a2.918,2.918,0,0,0-2.915,2.915v31.09H.972A.972.972,0,0,0,0,43.915V46.83a2.918,2.918,0,0,0,2.915,2.915H46.83a2.918,2.918,0,0,0,2.915-2.915V43.915A.972.972,0,0,0,48.773,42.943ZM44.886,10.882a.973.973,0,0,1,.972.971v27.2H43.332V10.882ZM8.356,6.315H41.389V39.057H8.356ZM41.389,1.943V4.372H8.356V1.943ZM4.858,10.882H6.412V39.057H3.886v-27.2a.973.973,0,0,1,.972-.971ZM3.886,41H45.858v1.943H30.7a.972.972,0,0,0-.972.972H20.014a.972.972,0,0,0-.972-.972H3.886ZM47.8,46.83a.973.973,0,0,1-.972.972H2.915a.973.973,0,0,1-.972-.972V44.886H18.332a1.944,1.944,0,0,0,1.682.972H29.73a1.944,1.944,0,0,0,1.682-.972H47.8Z" transform="translate(0 0)" fill="#020288"/>
          <path id="Trazado_879226" data-name="Trazado 879226" d="M226.235,177.054a.972.972,0,0,0,1.327-.356l3.935-6.815a.972.972,0,1,0-1.683-.972l-3.935,6.815A.971.971,0,0,0,226.235,177.054Z" transform="translate(-203.816 -152.062)" fill="#020288"/>
          <path id="Trazado_879227" data-name="Trazado 879227" d="M155.625,176.9A.972.972,0,0,0,157,175.528l-2.721-2.721L157,170.087a.972.972,0,1,0-1.374-1.374l-3.408,3.408a.972.972,0,0,0,0,1.374Z" transform="translate(-137.172 -152.064)" fill="#020288"/>
          <path id="Trazado_879228" data-name="Trazado 879228" d="M305.281,176.9a.972.972,0,0,0,1.374,0l3.408-3.408a.972.972,0,0,0,0-1.374l-3.408-3.408a.972.972,0,1,0-1.374,1.374L308,172.808l-2.721,2.721A.972.972,0,0,0,305.281,176.9Z" transform="translate(-275.364 -152.065)" fill="#020288"/>
          <path id="Trazado_879229" data-name="Trazado 879229" d="M134.176,355h-27.2a.972.972,0,0,0,0,1.943h27.2A.972.972,0,0,0,134.176,355Z" transform="translate(-95.702 -320.508)" fill="#020288"/>
        </g>
      </g>
    </g>
    <g id="Grupo_1103175" data-name="Grupo 1103175" transform="translate(-4713 -8386)">
      <circle id="Elipse_11686" data-name="Elipse 11686" cx="42.5" cy="42.5" r="42.5" transform="translate(915 588)" fill="#00ffdf"/>
      <g id="Grupo_1103128" data-name="Grupo 1103128" transform="translate(933 606)">
        <g id="Grupo_1103133" data-name="Grupo 1103133" transform="translate(0 3.622)">
          <g id="Grupo_1103128-2" data-name="Grupo 1103128" transform="translate(0.002 31.531)">
            <path id="Trazado_879113" data-name="Trazado 879113" d="M17.477,360.742c-4.946-.035-16.781-.687-17.446-5.09a.856.856,0,0,1,1.708-.114c1.439,2.752,11.306,3.517,15.738,3.491,4.435.025,14.3-.738,15.738-3.491a.856.856,0,1,1,1.708.113C34.275,360.047,22.41,360.711,17.477,360.742Z" transform="translate(-0.029 -354.739)" fill="#020288"/>
          </g>
          <g id="Grupo_1103129" data-name="Grupo 1103129" transform="translate(0.002 22.767)">
            <path id="Trazado_879114" data-name="Trazado 879114" d="M17.477,274.015C12.531,273.98.7,273.327.031,268.925a.856.856,0,0,1,1.708-.113c1.439,2.752,11.306,3.517,15.738,3.492,4.435.025,14.3-.738,15.738-3.491a.856.856,0,1,1,1.708.113C34.275,273.32,22.41,273.984,17.477,274.015Z" transform="translate(-0.029 -268.012)" fill="#020288"/>
          </g>
          <g id="Grupo_1103130" data-name="Grupo 1103130" transform="translate(0.004 14.009)">
            <path id="Trazado_879115" data-name="Trazado 879115" d="M17.492,187.348c-4.939-.034-16.783-.688-17.446-5.09a.856.856,0,0,1,1.708-.114c.027.4.964,1.4,4.321,2.266,6.216,1.713,18.3,1.626,24.084-.363a.856.856,0,0,1,.532,1.627A45.5,45.5,0,0,1,17.492,187.348Z" transform="translate(-0.045 -181.351)" fill="#020288"/>
          </g>
          <g id="Grupo_1103131" data-name="Grupo 1103131" transform="translate(0.004 4.443)">
            <path id="Trazado_879116" data-name="Trazado 879116" d="M17.492,100.62C12.556,100.586.707,99.932.046,95.53a.856.856,0,0,1,1.708-.113c.027.4.964,1.4,4.321,2.266,4.852,1.3,12.857,1.55,18.437.809a.856.856,0,1,1,.213,1.7,58.466,58.466,0,0,1-7.233.429Z" transform="translate(-0.045 -94.623)" fill="#020288"/>
          </g>
          <g id="Grupo_1103132" data-name="Grupo 1103132">
            <path id="Trazado_879117" data-name="Trazado 879117" d="M17.451,89.016C12.557,88.994.341,88.183,0,82.991c0,0,0-34.255,0-34.255,0-1.89,1.85-3.409,5.5-4.517,5.457-1.715,14.545-1.941,20.618-.779,1.114.254.858,2.107-.267,1.951-5.838-1.119-14.685-.907-19.915.739-3.34,1.014-4.222,2.149-4.222,2.607V82.991c0,.458.882,1.593,4.222,2.607,6,1.909,17.036,1.909,23.032,0,3.34-1.014,4.222-2.149,4.222-2.607V61A.864.864,0,1,1,34.9,61V82.991c-.336,5.195-12.566,6-17.45,6.025Z" transform="translate(0 -42.718)" fill="#020288"/>
          </g>
        </g>
        <path id="Trazado_879118" data-name="Trazado 879118" d="M277.6,21.3a10.5,10.5,0,0,0,10.481-10.481c-.536-13.883-20.428-13.879-20.962,0A10.5,10.5,0,0,0,277.6,21.3Z" transform="translate(-238.085 -0.407)" fill="#e2c4ff" fill-rule="evenodd"/>
        <g id="Grupo_1103134" data-name="Grupo 1103134" transform="translate(31.478 2.568)">
          <path id="Trazado_879119" data-name="Trazado 879119" d="M311.665,37.487l-1.08-3.323a.856.856,0,0,0-1.027-.565l-1.528.393a6.122,6.122,0,0,0-1.665-1.211l-.1-1.574a.856.856,0,0,0-.854-.8H301.92a.856.856,0,0,0-.854.8l-.1,1.574a6.116,6.116,0,0,0-1.664,1.211l-1.528-.393a.856.856,0,0,0-1.027.565l-1.08,3.323a.856.856,0,0,0,.5,1.061l1.467.58a6.09,6.09,0,0,0,.636,1.958l-.845,1.331a.856.856,0,0,0,.219,1.151l2.826,2.053a.856.856,0,0,0,1.163-.147l1-1.215a6.154,6.154,0,0,0,2.059,0l1,1.215a.856.856,0,0,0,1.163.147l2.826-2.053a.856.856,0,0,0,.219-1.151l-.845-1.331a6.093,6.093,0,0,0,.636-1.958l1.467-.58a.856.856,0,0,0,.5-1.061Zm-3.081.24a.856.856,0,0,0-.54.752,4.372,4.372,0,0,1-.7,2.158.856.856,0,0,0-.005.926l.694,1.093-1.525,1.108-.824-1a.856.856,0,0,0-.881-.282,4.434,4.434,0,0,1-2.272,0,.856.856,0,0,0-.881.282l-.824,1L299.3,42.655l.694-1.092a.856.856,0,0,0-.005-.926,4.374,4.374,0,0,1-.7-2.158.856.856,0,0,0-.54-.752l-1.2-.476.583-1.793,1.254.323a.856.856,0,0,0,.878-.29,4.4,4.4,0,0,1,1.837-1.336.856.856,0,0,0,.547-.746l.081-1.291h1.885l.081,1.291a.856.856,0,0,0,.547.746,4.4,4.4,0,0,1,1.837,1.336.856.856,0,0,0,.878.29l1.254-.323.583,1.793Z" transform="translate(-295.625 -30.406)" fill="#020288"/>
          <path id="Trazado_879120" data-name="Trazado 879120" d="M361.759,91.626a2.6,2.6,0,1,0,2.6,2.6A2.606,2.606,0,0,0,361.759,91.626Zm0,3.493a.891.891,0,1,1,.891-.891A.892.892,0,0,1,361.759,95.119Z" transform="translate(-353.718 -86.386)" fill="#020288"/>
        </g>
      </g>
    </g>
    <g id="Grupo_1103190" data-name="Grupo 1103190" transform="translate(-4713 -8599)">
      <circle id="Elipse_11686-2" data-name="Elipse 11686" cx="42.5" cy="42.5" r="42.5" transform="translate(915 588)" fill="#00ffdf"/>
      <g id="Grupo_1103194" data-name="Grupo 1103194" transform="translate(933.696 606.696)">
        <g id="Grupo_1103192" data-name="Grupo 1103192" transform="translate(0 0)">
          <path id="Trazado_879209" data-name="Trazado 879209" d="M36.771,10.636V2.887A2.89,2.89,0,0,0,33.884,0h-31A2.89,2.89,0,0,0,0,2.887v7.749a2.892,2.892,0,0,0,1.937,2.726v2.3A2.892,2.892,0,0,0,0,18.386v7.749a2.892,2.892,0,0,0,1.937,2.726v2.3A2.892,2.892,0,0,0,0,33.884v7.749A2.89,2.89,0,0,0,2.887,44.52H31.052a.949.949,0,0,0,0-1.9H2.887a.989.989,0,0,1-.988-.988V33.884a.989.989,0,0,1,.988-.988H32A.949.949,0,1,0,32,31H3.836V29.022h29.1v1.718a.949.949,0,0,0,1.9,0V28.861a2.892,2.892,0,0,0,1.937-2.726V18.386a2.892,2.892,0,0,0-1.937-2.726v-2.3A2.892,2.892,0,0,0,36.771,10.636ZM1.9,2.887A.989.989,0,0,1,2.887,1.9h31a.989.989,0,0,1,.988.988v7.749a.989.989,0,0,1-.988.988h-31a.989.989,0,0,1-.988-.988ZM3.836,15.5V13.523h29.1V15.5ZM34.872,26.135a.989.989,0,0,1-.988.988h-31a.989.989,0,0,1-.988-.988V18.386a.989.989,0,0,1,.988-.988h31a.989.989,0,0,1,.988.988Z" transform="translate(0 0)" fill="#020288"/>
          <path id="Trazado_879210" data-name="Trazado 879210" d="M41.822,83.524H68.945a.949.949,0,0,0,0-1.9H41.822A.949.949,0,0,0,41.822,83.524Z" transform="translate(-36.998 -73.876)" fill="#020288"/>
          <path id="Trazado_879211" data-name="Trazado 879211" d="M41.766,42.767a.95.95,0,1,0-.95-.949A.949.949,0,0,0,41.766,42.767Z" transform="translate(-36.941 -36.994)" fill="#020288"/>
          <path id="Trazado_879212" data-name="Trazado 879212" d="M87.681,42.767a.95.95,0,1,0-.95-.949A.949.949,0,0,0,87.681,42.767Z" transform="translate(-78.497 -36.994)" fill="#020288"/>
          <path id="Trazado_879213" data-name="Trazado 879213" d="M133.595,42.767a.95.95,0,1,0-.95-.949A.949.949,0,0,0,133.595,42.767Z" transform="translate(-120.052 -36.994)" fill="#020288"/>
          <path id="Trazado_879214" data-name="Trazado 879214" d="M68.945,244.877H41.822a.949.949,0,0,0,0,1.9H68.945A.949.949,0,0,0,68.945,244.877Z" transform="translate(-36.998 -221.629)" fill="#020288"/>
          <path id="Trazado_879215" data-name="Trazado 879215" d="M41.766,206.018a.95.95,0,1,0-.95-.949A.949.949,0,0,0,41.766,206.018Z" transform="translate(-36.941 -184.746)" fill="#020288"/>
          <path id="Trazado_879216" data-name="Trazado 879216" d="M87.681,206.018a.95.95,0,1,0-.95-.949A.949.949,0,0,0,87.681,206.018Z" transform="translate(-78.497 -184.746)" fill="#020288"/>
          <path id="Trazado_879217" data-name="Trazado 879217" d="M133.595,206.018a.95.95,0,1,0-.95-.949A.949.949,0,0,0,133.595,206.018Z" transform="translate(-120.052 -184.746)" fill="#020288"/>
          <path id="Trazado_879218" data-name="Trazado 879218" d="M41.822,410.027H66.746a.949.949,0,0,0,0-1.9H41.822A.949.949,0,0,0,41.822,410.027Z" transform="translate(-36.997 -369.381)" fill="#020288"/>
          <path id="Trazado_879219" data-name="Trazado 879219" d="M41.766,369.27a.95.95,0,1,0-.95-.949A.949.949,0,0,0,41.766,369.27Z" transform="translate(-36.941 -332.499)" fill="#020288"/>
          <path id="Trazado_879220" data-name="Trazado 879220" d="M88.688,368.264a.949.949,0,1,0-.949.949A.949.949,0,0,0,88.688,368.264Z" transform="translate(-78.554 -332.443)" fill="#020288"/>
          <path id="Trazado_879221" data-name="Trazado 879221" d="M134.6,368.264a.949.949,0,1,0-.949.949A.949.949,0,0,0,134.6,368.264Z" transform="translate(-120.11 -332.443)" fill="#020288"/>
        </g>
        <path id="Trazado_879222" data-name="Trazado 879222" d="M307.9,318.719a10.191,10.191,0,0,0,10.171-10.171c-.52-13.473-19.824-13.469-20.342,0A10.191,10.191,0,0,0,307.9,318.719Z" transform="translate(-269.467 -270.111)" fill="#a4fbc4" fill-rule="evenodd"/>
        <g id="Grupo_1103193" data-name="Grupo 1103193" transform="translate(33.608 34.905)">
          <path id="Trazado_879223" data-name="Trazado 879223" d="M357.54,374.724a.946.946,0,0,1-.671-.278l-2.583-2.583a.949.949,0,0,1,1.343-1.343l1.912,1.912,4.495-4.495a.949.949,0,0,1,1.343,1.343l-5.166,5.166A.948.948,0,0,1,357.54,374.724Z" transform="translate(-354.003 -367.659)" fill="#020288"/>
        </g>
      </g>
    </g>
    <path id="Trazado_879196" data-name="Trazado 879196" d="M-3820-9842.4h92.217v-96.68h33.086" transform="translate(-115.071 1976.899)" fill="none" stroke="#0b47db" stroke-linecap="round" stroke-width="3"/>
    <path id="Trazado_879198" data-name="Trazado 879198" d="M10,10V0H0Z" transform="translate(-3931.929 -7858.857) rotate(-135)" fill="#0b47db"/>
    <path id="Trazado_879208" data-name="Trazado 879208" d="M10,10V0H0Z" transform="translate(-3814.768 -7969.251) rotate(45)" fill="#0b47db"/>
    <g id="Grupo_1103188" data-name="Grupo 1103188" transform="translate(-59.426 1999.494)">
      <path id="Trazado_879205" data-name="Trazado 879205" d="M-3820-9939.078v24.418" transform="translate(121 112.205)" fill="none" stroke="#0b47db" stroke-linecap="round" stroke-width="3"/>
      <path id="Trazado_879204" data-name="Trazado 879204" d="M10,0V10H0Z" transform="translate(-3699 -9811.637) rotate(45)" fill="#0b47db"/>
      <path id="Trazado_879206" data-name="Trazado 879206" d="M10,10V0H0Z" transform="translate(-3706.071 -9824.423) rotate(-45)" fill="#0b47db"/>
    </g>
    <g id="Grupo_1103191" data-name="Grupo 1103191" transform="translate(-59.426 1926.494)">
      <path id="Trazado_879205-2" data-name="Trazado 879205" d="M-3820-9939.078v24.418" transform="translate(121 112.205)" fill="none" stroke="#0b47db" stroke-linecap="round" stroke-width="3"/>
      <path id="Trazado_879204-2" data-name="Trazado 879204" d="M10,0V10H0Z" transform="translate(-3699 -9811.637) rotate(45)" fill="#0b47db"/>
      <path id="Trazado_879206-2" data-name="Trazado 879206" d="M10,10V0H0Z" transform="translate(-3706.071 -9824.423) rotate(-45)" fill="#0b47db"/>
    </g>
    <path id="Trazado_880527" data-name="Trazado 880527" d="M24.574,15H22.3l.68-4.727H18.348L17.668,15H15.379L17.027,3.625h2.289l-.711,4.891h4.633l.711-4.891h2.273ZM35.988,5.383h-3.25L31.348,15H29.066l1.391-9.617h-3.2l.258-1.758h8.734Zm9.43,0h-3.25L40.777,15H38.5l1.391-9.617h-3.2l.258-1.758h8.734Zm2.719,5.492L47.543,15H45.262L46.91,3.625h4.352A3.943,3.943,0,0,1,54.18,4.633a2.935,2.935,0,0,1,.777,2.625A3.947,3.947,0,0,1,53.445,9.9a5.125,5.125,0,0,1-3.23.977Zm.258-1.758h2.07a2.1,2.1,0,0,0,2.2-1.844,1.74,1.74,0,0,0-.293-1.363A1.633,1.633,0,0,0,51,5.383h-2.07ZM7.992,27.875,7.4,32H5.117L6.766,20.625h4.352a3.943,3.943,0,0,1,2.918,1.008,2.935,2.935,0,0,1,.777,2.625A3.947,3.947,0,0,1,13.3,26.9a5.125,5.125,0,0,1-3.23.977Zm.258-1.758h2.07a2.1,2.1,0,0,0,2.2-1.844,1.74,1.74,0,0,0-.293-1.363,1.633,1.633,0,0,0-1.371-.527H8.789Zm12.242-.609-.828-.023a1.642,1.642,0,0,0-.863.219,1.722,1.722,0,0,0-.6.617L17.383,32H15.109l1.227-8.453h2.117l-.078,1.242a3.168,3.168,0,0,1,.914-1.035,1.971,1.971,0,0,1,1.148-.363,1.659,1.659,0,0,1,.309.027q.145.027.285.066ZM20.7,27.7a5.257,5.257,0,0,1,1.5-3.117,4.264,4.264,0,0,1,3.1-1.187A3.2,3.2,0,0,1,28.039,24.6,4.032,4.032,0,0,1,28.68,27.7l-.023.164a5.283,5.283,0,0,1-1.508,3.125,4.277,4.277,0,0,1-3.1,1.18A3.209,3.209,0,0,1,21.3,30.957a3.989,3.989,0,0,1-.625-3.1Zm2.25.164a3.448,3.448,0,0,0,.133,1.867,1.191,1.191,0,0,0,1.211.688,1.649,1.649,0,0,0,1.387-.707,4,4,0,0,0,.691-1.848L26.4,27.7a3.415,3.415,0,0,0-.145-1.848,1.19,1.19,0,0,0-1.207-.7,1.641,1.641,0,0,0-1.387.719,3.979,3.979,0,0,0-.684,1.828ZM33.68,21.477l-.3,2.07H34.8l-.234,1.6H33.148l-.625,4.3a.887.887,0,0,0,.1.711.65.65,0,0,0,.52.2,2.283,2.283,0,0,0,.313-.02,2.515,2.515,0,0,0,.313-.066l-.047,1.648a5.04,5.04,0,0,1-.7.176,4.184,4.184,0,0,1-.719.059,2.116,2.116,0,0,1-1.711-.656,2.538,2.538,0,0,1-.352-2.047l.625-4.312H29.633l.234-1.6h1.227l.3-2.07ZM35.227,27.7a5.257,5.257,0,0,1,1.5-3.117,4.264,4.264,0,0,1,3.1-1.187A3.2,3.2,0,0,1,42.563,24.6,4.032,4.032,0,0,1,43.2,27.7l-.023.164a5.283,5.283,0,0,1-1.508,3.125,4.277,4.277,0,0,1-3.1,1.18,3.209,3.209,0,0,1-2.742-1.207,3.989,3.989,0,0,1-.625-3.1Zm2.25.164a3.448,3.448,0,0,0,.133,1.867,1.191,1.191,0,0,0,1.211.688,1.649,1.649,0,0,0,1.387-.707,4,4,0,0,0,.691-1.848l.023-.164a3.415,3.415,0,0,0-.145-1.848,1.19,1.19,0,0,0-1.207-.7,1.641,1.641,0,0,0-1.387.719A3.979,3.979,0,0,0,37.5,27.7Zm10.266,2.555a1.458,1.458,0,0,0,.988-.355,1.524,1.524,0,0,0,.5-.949H51.3l.016.047a3.137,3.137,0,0,1-1.262,2.16,4.079,4.079,0,0,1-2.566.848,3.113,3.113,0,0,1-2.707-1.207,4.035,4.035,0,0,1-.6-3.059l.031-.234a5.28,5.28,0,0,1,1.465-3.086,4.158,4.158,0,0,1,3.066-1.187,3.048,3.048,0,0,1,2.348.895,2.627,2.627,0,0,1,.59,2.348l-.016.039H49.586a1.534,1.534,0,0,0-.191-1.094,1,1,0,0,0-.9-.43,1.545,1.545,0,0,0-1.348.715,4.218,4.218,0,0,0-.645,1.8l-.031.234a3.623,3.623,0,0,0,.1,1.832A1.124,1.124,0,0,0,47.742,30.414ZM52.508,27.7a5.257,5.257,0,0,1,1.5-3.117,4.264,4.264,0,0,1,3.1-1.187A3.2,3.2,0,0,1,59.844,24.6a4.032,4.032,0,0,1,.641,3.094l-.023.164a5.283,5.283,0,0,1-1.508,3.125,4.277,4.277,0,0,1-3.1,1.18,3.209,3.209,0,0,1-2.742-1.207,3.989,3.989,0,0,1-.625-3.1Zm2.25.164a3.448,3.448,0,0,0,.133,1.867,1.191,1.191,0,0,0,1.211.688,1.649,1.649,0,0,0,1.387-.707,4,4,0,0,0,.691-1.848L58.2,27.7a3.415,3.415,0,0,0-.145-1.848,1.19,1.19,0,0,0-1.207-.7,1.641,1.641,0,0,0-1.387.719,3.979,3.979,0,0,0-.684,1.828ZM63.664,32H61.383l1.766-12.187H65.43Z" transform="translate(-3925 -7915)" fill="#12263f"/>
  </g>
</svg>
