<svg xmlns="http://www.w3.org/2000/svg" width="308.5" height="80" viewBox="0 0 308.5 80">
  <g id="Grupo_1103517" data-name="Grupo 1103517" transform="translate(-590 -1168)">
    <g id="Grupo_1103515" data-name="Grupo 1103515" transform="translate(0 8.512)">
      <g id="Grupo_1103506" data-name="Grupo 1103506" transform="translate(10521.873 -2490.929) rotate(-90)">
        <path id="Trazado_879205" data-name="Trazado 879205" d="M-3820-9939.078v24.418" transform="translate(121 112.205)" fill="none" stroke="#0b47db" stroke-linecap="round" stroke-width="3"/>
        <path id="Trazado_879204" data-name="Trazado 879204" d="M10,0V10H0Z" transform="translate(-3699 -9811.637) rotate(45)" fill="#0b47db"/>
      </g>
      <g id="Grupo_1103507" data-name="Grupo 1103507" transform="translate(695 1198.632) rotate(-90)">
        <path id="Trazado_879205-2" data-name="Trazado 879205" d="M0,24.418V0" transform="translate(7.071 4.961)" fill="none" stroke="#0b47db" stroke-linecap="round" stroke-width="3"/>
        <path id="Trazado_879204-2" data-name="Trazado 879204" d="M10,10V0H0Z" transform="translate(0 7.071) rotate(-45)" fill="#0b47db"/>
      </g>
    </g>
    <g id="Grupo_1103516" data-name="Grupo 1103516" transform="translate(88 8.512)">
      <g id="Grupo_1103506-2" data-name="Grupo 1103506" transform="translate(10521.873 -2490.929) rotate(-90)">
        <path id="Trazado_879205-3" data-name="Trazado 879205" d="M-3820-9939.078v24.418" transform="translate(121 112.205)" fill="none" stroke="#0b47db" stroke-linecap="round" stroke-width="3"/>
        <path id="Trazado_879204-3" data-name="Trazado 879204" d="M10,0V10H0Z" transform="translate(-3699 -9811.637) rotate(45)" fill="#0b47db"/>
      </g>
      <g id="Grupo_1103507-2" data-name="Grupo 1103507" transform="translate(695 1198.632) rotate(-90)">
        <path id="Trazado_879205-4" data-name="Trazado 879205" d="M0,24.418V0" transform="translate(7.071 4.961)" fill="none" stroke="#0b47db" stroke-linecap="round" stroke-width="3"/>
        <path id="Trazado_879204-4" data-name="Trazado 879204" d="M10,10V0H0Z" transform="translate(0 7.071) rotate(-45)" fill="#0b47db"/>
      </g>
    </g>
    <rect id="Rect치ngulo_403779" data-name="Rect치ngulo 403779" width="105" height="80" rx="10" transform="translate(590 1168)" fill="#debefb"/>
    <rect id="Rect치ngulo_403781" data-name="Rect치ngulo 403781" width="56" height="80" rx="10" transform="translate(727 1168)" fill="#aec4fa"/>
    <path id="Trazado_880525" data-name="Trazado 880525" d="M23.082,3.625v7.734a3.628,3.628,0,0,1-1.012,2.633,4.077,4.077,0,0,1-2.723,1.148l-.4.016a4.258,4.258,0,0,1-2.977-1.008,3.6,3.6,0,0,1-1.125-2.773V3.625h1.484v7.7a2.6,2.6,0,0,0,.68,1.918,2.612,2.612,0,0,0,1.938.684,2.63,2.63,0,0,0,1.949-.68,2.6,2.6,0,0,0,.676-1.914V3.625ZM29.621,10.4H26.949V15H25.441V3.625h3.766a4.457,4.457,0,0,1,2.957.875A3.148,3.148,0,0,1,33.2,7.047,3.062,3.062,0,0,1,32.625,8.9a3.428,3.428,0,0,1-1.6,1.18L33.7,14.906V15H32.09ZM26.949,9.172h2.3a2.6,2.6,0,0,0,1.777-.579,1.959,1.959,0,0,0,.66-1.55,2.062,2.062,0,0,0-.629-1.62,2.663,2.663,0,0,0-1.816-.571h-2.3Zm9.859,4.6H42.2V15H35.3V3.625h1.508ZM52.637,3.625h1.508V11.68a3.336,3.336,0,0,1-.98,2.555,3.66,3.66,0,0,1-2.613.922,3.762,3.762,0,0,1-2.641-.867,3.132,3.132,0,0,1-.945-2.43h1.5A2.086,2.086,0,0,0,49,13.383a2.073,2.073,0,0,0,1.551.547,2.012,2.012,0,0,0,1.5-.586,2.27,2.27,0,0,0,.582-1.641ZM56.7,15V3.625H59.91a5.169,5.169,0,0,1,2.625.656A4.438,4.438,0,0,1,64.3,6.148a6.078,6.078,0,0,1,.629,2.781v.727a6.1,6.1,0,0,1-.621,2.82,4.369,4.369,0,0,1-1.773,1.859A5.5,5.5,0,0,1,59.848,15ZM58.2,4.852v8.922h1.578a3.434,3.434,0,0,0,2.7-1.079,4.458,4.458,0,0,0,.965-3.073V8.957a4.529,4.529,0,0,0-.91-3.014,3.239,3.239,0,0,0-2.582-1.091ZM67.191,15V3.625H70.91a4.317,4.317,0,0,1,2.785.766,2.759,2.759,0,0,1,.934,2.266,2.31,2.31,0,0,1-.453,1.41,2.937,2.937,0,0,1-1.234.949A2.638,2.638,0,0,1,74.4,10a2.814,2.814,0,0,1,.535,1.723,3.042,3.042,0,0,1-.992,2.406,4.1,4.1,0,0,1-2.8.875Zm1.5-5.32v4.094h2.477a2.385,2.385,0,0,0,1.652-.543,1.907,1.907,0,0,0,.605-1.5q0-2.055-2.234-2.055Zm0-1.2h2.266a2.375,2.375,0,0,0,1.574-.493,1.654,1.654,0,0,0,.59-1.339,1.626,1.626,0,0,0-.547-1.366,2.686,2.686,0,0,0-1.664-.427H68.691ZM85.52,11.391a4.185,4.185,0,0,1-1.332,2.785,4.365,4.365,0,0,1-2.98.98,4.008,4.008,0,0,1-3.23-1.445,5.815,5.815,0,0,1-1.215-3.867V8.75a6.481,6.481,0,0,1,.566-2.789,4.231,4.231,0,0,1,1.605-1.848,4.47,4.47,0,0,1,2.406-.645A4.11,4.11,0,0,1,84.246,4.48a4.235,4.235,0,0,1,1.273,2.8H84.012a3.268,3.268,0,0,0-.848-1.975A2.565,2.565,0,0,0,81.34,4.7a2.684,2.684,0,0,0-2.254,1.063,4.882,4.882,0,0,0-.816,3.026v1.1a5.018,5.018,0,0,0,.773,2.948,2.5,2.5,0,0,0,2.164,1.095,2.886,2.886,0,0,0,1.918-.566,3.143,3.143,0,0,0,.887-1.973ZM29.8,31.164a3.07,3.07,0,0,1-2.477.992,2.628,2.628,0,0,1-2.059-.785,3.4,3.4,0,0,1-.715-2.324v-5.5H26v5.461q0,1.922,1.563,1.922a2.163,2.163,0,0,0,2.2-1.234V23.547h1.445V32H29.836Zm8.523-1.406a1.064,1.064,0,0,0-.441-.91,4.249,4.249,0,0,0-1.539-.559,7.277,7.277,0,0,1-1.742-.562,2.479,2.479,0,0,1-.953-.781,1.869,1.869,0,0,1-.309-1.078,2.193,2.193,0,0,1,.879-1.758,3.432,3.432,0,0,1,2.246-.719,3.532,3.532,0,0,1,2.332.742,2.357,2.357,0,0,1,.895,1.9H38.242a1.3,1.3,0,0,0-.5-1.023,1.888,1.888,0,0,0-1.27-.43,1.976,1.976,0,0,0-1.234.344,1.082,1.082,0,0,0-.445.9.877.877,0,0,0,.414.789,5.1,5.1,0,0,0,1.5.508,7.8,7.8,0,0,1,1.754.578,2.558,2.558,0,0,1,1,.809,1.988,1.988,0,0,1,.324,1.152,2.163,2.163,0,0,1-.906,1.816,3.8,3.8,0,0,1-2.352.684,4.257,4.257,0,0,1-1.8-.359,2.922,2.922,0,0,1-1.223-1,2.42,2.42,0,0,1-.441-1.395H34.5a1.5,1.5,0,0,0,.582,1.152,2.258,2.258,0,0,0,1.434.426,2.331,2.331,0,0,0,1.316-.332A1.02,1.02,0,0,0,38.328,29.758Zm8.547,1.406a3.07,3.07,0,0,1-2.477.992,2.628,2.628,0,0,1-2.059-.785,3.4,3.4,0,0,1-.715-2.324v-5.5H43.07v5.461q0,1.922,1.563,1.922a2.163,2.163,0,0,0,2.2-1.234V23.547h1.445V32H46.906ZM55.7,32a3.036,3.036,0,0,1-.2-.891,3.225,3.225,0,0,1-2.406,1.047,2.984,2.984,0,0,1-2.051-.707,2.287,2.287,0,0,1-.8-1.793,2.39,2.39,0,0,1,1-2.051,4.733,4.733,0,0,1,2.824-.73h1.406v-.664A1.623,1.623,0,0,0,55.016,25a1.821,1.821,0,0,0-1.336-.449,2.107,2.107,0,0,0-1.3.391,1.151,1.151,0,0,0-.523.945H50.406a2,2,0,0,1,.449-1.223,3.066,3.066,0,0,1,1.219-.934,4.1,4.1,0,0,1,1.691-.344,3.342,3.342,0,0,1,2.289.73,2.635,2.635,0,0,1,.859,2.012v3.891a4.757,4.757,0,0,0,.3,1.852V32Zm-2.4-1.1a2.54,2.54,0,0,0,1.289-.352,2.127,2.127,0,0,0,.883-.914V27.9H54.336q-2.656,0-2.656,1.555a1.316,1.316,0,0,0,.453,1.063A1.742,1.742,0,0,0,53.3,30.9Zm9.969-6.055a4.331,4.331,0,0,0-.711-.055A1.9,1.9,0,0,0,60.625,26v6H59.18V23.547h1.406l.023.977a2.251,2.251,0,0,1,2.016-1.133,1.477,1.477,0,0,1,.641.109ZM66.164,32H64.719V23.547h1.445ZM64.6,21.3a.863.863,0,0,1,.215-.594.807.807,0,0,1,.637-.242.819.819,0,0,1,.641.242.854.854,0,0,1,.219.594.826.826,0,0,1-.219.586.834.834,0,0,1-.641.234.821.821,0,0,1-.637-.234A.834.834,0,0,1,64.6,21.3ZM68.094,27.7a4.993,4.993,0,0,1,.488-2.234,3.643,3.643,0,0,1,1.359-1.531,3.7,3.7,0,0,1,1.988-.539,3.565,3.565,0,0,1,2.793,1.2,4.6,4.6,0,0,1,1.066,3.18v.1a5.036,5.036,0,0,1-.473,2.215,3.589,3.589,0,0,1-1.352,1.527,3.743,3.743,0,0,1-2.02.547,3.556,3.556,0,0,1-2.785-1.2A4.575,4.575,0,0,1,68.094,27.8Zm1.453.172a3.616,3.616,0,0,0,.652,2.258,2.211,2.211,0,0,0,3.5-.012,3.955,3.955,0,0,0,.648-2.418,3.61,3.61,0,0,0-.66-2.254,2.1,2.1,0,0,0-1.754-.863,2.075,2.075,0,0,0-1.727.852A3.925,3.925,0,0,0,69.547,27.867ZM23.824,44.813a7.591,7.591,0,0,1-.2,1.043,6.447,6.447,0,0,1-.363,1.016,5.17,5.17,0,0,1-.531.91,3.66,3.66,0,0,1-.711.734,3.191,3.191,0,0,1-.9.488,3,3,0,0,1-1.09.16,3.586,3.586,0,0,1-1.246-.246,2.451,2.451,0,0,1-1-.746L17.02,52.25H15.605l2.031-11.7,1.281-.008-.156.945a3.519,3.519,0,0,1,1.129-.828,3.144,3.144,0,0,1,1.379-.266,2.668,2.668,0,0,1,1,.2,2.262,2.262,0,0,1,.734.5,2.558,2.558,0,0,1,.492.734,4.145,4.145,0,0,1,.281.887,5.583,5.583,0,0,1,.105.965,7.833,7.833,0,0,1-.035.965Zm-1.391-.164q.031-.312.035-.656a4.538,4.538,0,0,0-.043-.68,2.962,2.962,0,0,0-.16-.637,1.843,1.843,0,0,0-.309-.535,1.443,1.443,0,0,0-.484-.375,1.714,1.714,0,0,0-.687-.156,2.119,2.119,0,0,0-1.2.309,3.416,3.416,0,0,0-.914.855l-.711,4.055a1.866,1.866,0,0,0,.668.848,1.909,1.909,0,0,0,1.043.309,2.07,2.07,0,0,0,1.129-.27,2.719,2.719,0,0,0,.816-.746,3.78,3.78,0,0,0,.527-1.031,6.293,6.293,0,0,0,.27-1.125ZM30.1,49a1.894,1.894,0,0,1-.055-.445,4.326,4.326,0,0,1,.023-.445,4.514,4.514,0,0,1-1.133.77,2.923,2.923,0,0,1-1.336.277,2.882,2.882,0,0,1-.992-.184,2.357,2.357,0,0,1-.8-.5,2.161,2.161,0,0,1-.516-.766,2.276,2.276,0,0,1-.148-.992,2.59,2.59,0,0,1,.426-1.352,2.918,2.918,0,0,1,.957-.879,4.286,4.286,0,0,1,1.281-.477,6.93,6.93,0,0,1,1.4-.145l1.477.008.094-.672a2,2,0,0,0-.031-.668,1.255,1.255,0,0,0-.25-.52,1.192,1.192,0,0,0-.465-.34,1.774,1.774,0,0,0-.66-.129,2.374,2.374,0,0,0-.648.074,2.086,2.086,0,0,0-.59.25,1.75,1.75,0,0,0-.465.422,1.435,1.435,0,0,0-.266.59l-1.422.008a2.191,2.191,0,0,1,.41-1.105A3.079,3.079,0,0,1,27.242,41a3.834,3.834,0,0,1,1.105-.469,4.48,4.48,0,0,1,1.164-.145,3.457,3.457,0,0,1,1.16.215,2.426,2.426,0,0,1,.879.566,2.225,2.225,0,0,1,.527.887,2.906,2.906,0,0,1,.105,1.176l-.648,3.93a6.4,6.4,0,0,0-.082.859,3.046,3.046,0,0,0,.1.852L31.535,49Zm-2.219-1.094a2.431,2.431,0,0,0,.691-.082,2.611,2.611,0,0,0,.629-.262,3.1,3.1,0,0,0,.551-.406,3.444,3.444,0,0,0,.457-.516l.3-1.742-1.07-.008a7.38,7.38,0,0,0-.9.059,3.3,3.3,0,0,0-.891.234,2.033,2.033,0,0,0-.707.492,1.443,1.443,0,0,0-.355.832,1.331,1.331,0,0,0,.043.574,1.146,1.146,0,0,0,.254.438,1.128,1.128,0,0,0,.426.281A1.686,1.686,0,0,0,27.879,47.906Zm10.82-1.2a.953.953,0,0,0-.086-.6,1.14,1.14,0,0,0-.375-.4,2.124,2.124,0,0,0-.543-.254q-.3-.094-.582-.164-.469-.117-.949-.289a3.592,3.592,0,0,1-.863-.441,2.129,2.129,0,0,1-.617-.668,1.752,1.752,0,0,1-.211-.977,2.212,2.212,0,0,1,.336-1.1,2.75,2.75,0,0,1,.773-.8,3.5,3.5,0,0,1,1.043-.48,4.008,4.008,0,0,1,1.137-.152,3.6,3.6,0,0,1,1.121.188,2.716,2.716,0,0,1,.918.52,2.363,2.363,0,0,1,.609.828,2.538,2.538,0,0,1,.2,1.113l-1.406-.008a1.453,1.453,0,0,0-.1-.594,1.262,1.262,0,0,0-.312-.453,1.418,1.418,0,0,0-.48-.289,1.88,1.88,0,0,0-.605-.109,2.355,2.355,0,0,0-.613.066,1.913,1.913,0,0,0-.566.234,1.524,1.524,0,0,0-.434.4,1.264,1.264,0,0,0-.223.578.808.808,0,0,0,.031.395.846.846,0,0,0,.188.3,1.106,1.106,0,0,0,.293.215,2.81,2.81,0,0,0,.359.152q.191.066.383.113t.355.094a9.008,9.008,0,0,1,.965.309,3.567,3.567,0,0,1,.863.469,2.12,2.12,0,0,1,.605.7,1.85,1.85,0,0,1,.191,1,2.332,2.332,0,0,1-.355,1.152,2.712,2.712,0,0,1-.8.8,3.508,3.508,0,0,1-1.082.465,4.439,4.439,0,0,1-1.191.133,3.824,3.824,0,0,1-1.176-.2,3.058,3.058,0,0,1-.984-.539,2.457,2.457,0,0,1-.9-2.031l1.414.008a1.664,1.664,0,0,0,.129.676,1.415,1.415,0,0,0,.352.492,1.479,1.479,0,0,0,.531.3,2.178,2.178,0,0,0,.684.1,2.863,2.863,0,0,0,.641-.059,2.257,2.257,0,0,0,.609-.215,1.556,1.556,0,0,0,.48-.391A1.153,1.153,0,0,0,38.7,46.711Zm8.078,0a.953.953,0,0,0-.086-.6,1.14,1.14,0,0,0-.375-.4,2.124,2.124,0,0,0-.543-.254q-.3-.094-.582-.164-.469-.117-.949-.289a3.592,3.592,0,0,1-.863-.441,2.129,2.129,0,0,1-.617-.668,1.752,1.752,0,0,1-.211-.977,2.212,2.212,0,0,1,.336-1.1,2.75,2.75,0,0,1,.773-.8,3.5,3.5,0,0,1,1.043-.48,4.008,4.008,0,0,1,1.137-.152,3.6,3.6,0,0,1,1.121.188,2.716,2.716,0,0,1,.918.52,2.363,2.363,0,0,1,.609.828,2.538,2.538,0,0,1,.2,1.113l-1.406-.008a1.453,1.453,0,0,0-.1-.594,1.262,1.262,0,0,0-.312-.453,1.418,1.418,0,0,0-.48-.289,1.88,1.88,0,0,0-.605-.109,2.355,2.355,0,0,0-.613.066,1.913,1.913,0,0,0-.566.234,1.524,1.524,0,0,0-.434.4,1.264,1.264,0,0,0-.223.578.808.808,0,0,0,.031.395.846.846,0,0,0,.188.3,1.106,1.106,0,0,0,.293.215,2.81,2.81,0,0,0,.359.152q.191.066.383.113t.355.094a9.008,9.008,0,0,1,.965.309,3.567,3.567,0,0,1,.863.469,2.12,2.12,0,0,1,.605.7,1.85,1.85,0,0,1,.191,1,2.332,2.332,0,0,1-.355,1.152,2.712,2.712,0,0,1-.8.8,3.508,3.508,0,0,1-1.082.465,4.439,4.439,0,0,1-1.191.133,3.824,3.824,0,0,1-1.176-.2,3.058,3.058,0,0,1-.984-.539,2.457,2.457,0,0,1-.9-2.031l1.414.008a1.664,1.664,0,0,0,.129.676,1.415,1.415,0,0,0,.352.492,1.479,1.479,0,0,0,.531.3,2.178,2.178,0,0,0,.684.1,2.863,2.863,0,0,0,.641-.059,2.257,2.257,0,0,0,.609-.215,1.556,1.556,0,0,0,.48-.391A1.153,1.153,0,0,0,46.777,46.711ZM57.223,47l2.7-6.453h1.461L57.527,49H56.379L55.5,42.609,52.457,49H51.309l-.914-8.453h1.352l.516,6.3,3-6.3H56.4Zm4.539-2.25a6.158,6.158,0,0,1,.246-1.121,5.613,5.613,0,0,1,.449-1.039,4.911,4.911,0,0,1,.645-.9,4.089,4.089,0,0,1,.828-.7,3.871,3.871,0,0,1,1-.453,3.774,3.774,0,0,1,1.168-.145,3.129,3.129,0,0,1,1.523.395,2.969,2.969,0,0,1,1.016.969,3.809,3.809,0,0,1,.527,1.359,5.28,5.28,0,0,1,.059,1.559l-.016.18A5.87,5.87,0,0,1,68.75,46.5a4.987,4.987,0,0,1-.906,1.387,4.137,4.137,0,0,1-1.312.949,3.723,3.723,0,0,1-1.676.324,3.145,3.145,0,0,1-1.512-.387,2.923,2.923,0,0,1-1.012-.957,3.823,3.823,0,0,1-.531-1.344,5.1,5.1,0,0,1-.062-1.547Zm1.4.172a5.253,5.253,0,0,0-.035.68,4.271,4.271,0,0,0,.063.688,2.994,2.994,0,0,0,.184.637,1.85,1.85,0,0,0,.332.531,1.562,1.562,0,0,0,.508.371,1.824,1.824,0,0,0,.707.156,2.162,2.162,0,0,0,1.148-.254,2.809,2.809,0,0,0,.855-.73,3.854,3.854,0,0,0,.57-1.02,5.193,5.193,0,0,0,.293-1.129l.023-.172A5.291,5.291,0,0,0,67.844,44a4.368,4.368,0,0,0-.062-.7,3.145,3.145,0,0,0-.184-.648,1.832,1.832,0,0,0-.336-.543,1.616,1.616,0,0,0-.516-.379,1.808,1.808,0,0,0-.711-.16,2.115,2.115,0,0,0-1.152.262,2.832,2.832,0,0,0-.848.746,3.928,3.928,0,0,0-.562,1.035,5.48,5.48,0,0,0-.289,1.137Zm12.406-3.086a5.626,5.626,0,0,0-.664-.07,2.338,2.338,0,0,0-1.238.32,2.8,2.8,0,0,0-.9.906L71.723,49H70.309l1.469-8.453,1.367-.008-.211.984a3.41,3.41,0,0,1,.914-.844,2.137,2.137,0,0,1,1.2-.3,1.637,1.637,0,0,1,.344.035q.164.035.328.082Zm.328,2.922A7.322,7.322,0,0,1,76.1,43.7a6.19,6.19,0,0,1,.375-1.02,5.374,5.374,0,0,1,.547-.914,3.686,3.686,0,0,1,.727-.738,3.294,3.294,0,0,1,.91-.488,3.059,3.059,0,0,1,1.1-.16,3.183,3.183,0,0,1,1.211.262,2.414,2.414,0,0,1,.961.77L82.746,37H84.16L82.082,49H80.793l.148-.906a3.268,3.268,0,0,1-1.109.809,3.189,3.189,0,0,1-1.359.254,2.487,2.487,0,0,1-.973-.207,2.318,2.318,0,0,1-.723-.512,2.827,2.827,0,0,1-.5-.738,4.057,4.057,0,0,1-.3-.883,5.483,5.483,0,0,1-.121-.953,6.586,6.586,0,0,1,.027-.941Zm1.4.164a5.607,5.607,0,0,0-.043.648,4.753,4.753,0,0,0,.039.672,3.2,3.2,0,0,0,.148.633,1.742,1.742,0,0,0,.293.535,1.437,1.437,0,0,0,.473.375,1.566,1.566,0,0,0,.684.152,2.057,2.057,0,0,0,.668-.074,2.393,2.393,0,0,0,.578-.254,2.586,2.586,0,0,0,.5-.4,4.834,4.834,0,0,0,.434-.508l.672-3.906a1.918,1.918,0,0,0-.66-.863,1.836,1.836,0,0,0-1.043-.324,2.088,2.088,0,0,0-1.133.266,2.642,2.642,0,0,0-.8.734,3.8,3.8,0,0,0-.52,1.02,5.762,5.762,0,0,0-.262,1.121Z" transform="translate(593 1182)" fill="#12263f"/>
    <path id="Trazado_880526" data-name="Trazado 880526" d="M9.238,3.625h1.508V11.68a3.336,3.336,0,0,1-.98,2.555,3.66,3.66,0,0,1-2.613.922,3.762,3.762,0,0,1-2.641-.867,3.132,3.132,0,0,1-.945-2.43h1.5A2.086,2.086,0,0,0,5.6,13.383a2.073,2.073,0,0,0,1.551.547,2.012,2.012,0,0,0,1.5-.586A2.27,2.27,0,0,0,9.238,11.7ZM13.3,15V3.625h3.211a5.169,5.169,0,0,1,2.625.656A4.438,4.438,0,0,1,20.9,6.148a6.078,6.078,0,0,1,.629,2.781v.727a6.1,6.1,0,0,1-.621,2.82,4.369,4.369,0,0,1-1.773,1.859A5.5,5.5,0,0,1,16.449,15ZM14.8,4.852v8.922h1.578a3.434,3.434,0,0,0,2.7-1.079,4.458,4.458,0,0,0,.965-3.073V8.957a4.529,4.529,0,0,0-.91-3.014,3.239,3.239,0,0,0-2.582-1.091ZM23.793,15V3.625h3.719a4.317,4.317,0,0,1,2.785.766,2.759,2.759,0,0,1,.934,2.266,2.31,2.31,0,0,1-.453,1.41,2.937,2.937,0,0,1-1.234.949A2.638,2.638,0,0,1,31,10a2.814,2.814,0,0,1,.535,1.723,3.042,3.042,0,0,1-.992,2.406,4.1,4.1,0,0,1-2.8.875Zm1.5-5.32v4.094H27.77a2.385,2.385,0,0,0,1.652-.543,1.907,1.907,0,0,0,.605-1.5q0-2.055-2.234-2.055Zm0-1.2h2.266a2.375,2.375,0,0,0,1.574-.493,1.654,1.654,0,0,0,.59-1.339,1.626,1.626,0,0,0-.547-1.366,2.686,2.686,0,0,0-1.664-.427H25.293Zm16.828,2.914a4.185,4.185,0,0,1-1.332,2.785,4.365,4.365,0,0,1-2.98.98,4.008,4.008,0,0,1-3.23-1.445,5.815,5.815,0,0,1-1.215-3.867V8.75a6.481,6.481,0,0,1,.566-2.789,4.231,4.231,0,0,1,1.605-1.848,4.47,4.47,0,0,1,2.406-.645A4.11,4.11,0,0,1,40.848,4.48a4.235,4.235,0,0,1,1.273,2.8H40.613a3.268,3.268,0,0,0-.848-1.975A2.565,2.565,0,0,0,37.941,4.7a2.684,2.684,0,0,0-2.254,1.063,4.882,4.882,0,0,0-.816,3.026v1.1a5.018,5.018,0,0,0,.773,2.948,2.5,2.5,0,0,0,2.164,1.095,2.887,2.887,0,0,0,1.918-.566,3.143,3.143,0,0,0,.887-1.973Z" transform="translate(732 1199)" fill="#12263f"/>
    <path id="Icon_fa-solid-database" data-name="Icon fa-solid-database" d="M72.5,9.375V15c0,5.18-16.232,9.375-36.25,9.375S0,20.18,0,15V9.375C0,4.2,16.232,0,36.25,0S72.5,4.2,72.5,9.375Zm-8.868,4.118A37.072,37.072,0,0,0,72.5,10.142V50.417c0,5.18-16.232,9.375-36.25,9.375S0,55.6,0,50.417V10.142a36.581,36.581,0,0,0,8.868,3.352A114.32,114.32,0,0,0,36.25,16.458,114.32,114.32,0,0,0,63.632,13.493ZM0,40.559A36.581,36.581,0,0,0,8.868,43.91,114.32,114.32,0,0,0,36.25,46.875,114.32,114.32,0,0,0,63.632,43.91,37.072,37.072,0,0,0,72.5,40.559V50.625C72.5,55.8,56.268,60,36.25,60S0,55.8,0,50.625Z" transform="translate(826 1178)" fill="#f0c518"/>
    <path id="Trazado_880527" data-name="Trazado 880527" d="M1.395,15V3.625H5.113A4.317,4.317,0,0,1,7.9,4.391a2.759,2.759,0,0,1,.934,2.266,2.31,2.31,0,0,1-.453,1.41,2.938,2.938,0,0,1-1.234.949A2.638,2.638,0,0,1,8.6,10a2.814,2.814,0,0,1,.535,1.723,3.042,3.042,0,0,1-.992,2.406A4.1,4.1,0,0,1,5.34,15Zm1.5-5.32v4.094H5.371a2.385,2.385,0,0,0,1.652-.543,1.907,1.907,0,0,0,.605-1.5q0-2.055-2.234-2.055Zm0-1.2H5.16a2.375,2.375,0,0,0,1.574-.493,1.654,1.654,0,0,0,.59-1.339,1.626,1.626,0,0,0-.547-1.366,2.686,2.686,0,0,0-1.664-.427H2.895ZM16.348,15a3.036,3.036,0,0,1-.2-.891,3.225,3.225,0,0,1-2.406,1.047,2.984,2.984,0,0,1-2.051-.707,2.287,2.287,0,0,1-.8-1.793,2.39,2.39,0,0,1,1-2.051,4.733,4.733,0,0,1,2.824-.73h1.406V9.211A1.623,1.623,0,0,0,15.668,8a1.821,1.821,0,0,0-1.336-.449,2.107,2.107,0,0,0-1.3.391,1.151,1.151,0,0,0-.523.945H11.059a2,2,0,0,1,.449-1.223,3.066,3.066,0,0,1,1.219-.934,4.1,4.1,0,0,1,1.691-.344,3.342,3.342,0,0,1,2.289.73,2.635,2.635,0,0,1,.859,2.012v3.891a4.757,4.757,0,0,0,.3,1.852V15Zm-2.4-1.1a2.54,2.54,0,0,0,1.289-.352,2.127,2.127,0,0,0,.883-.914V10.9H14.988q-2.656,0-2.656,1.555a1.316,1.316,0,0,0,.453,1.063A1.742,1.742,0,0,0,13.949,13.9Zm10.8-1.141a1.064,1.064,0,0,0-.441-.91,4.249,4.249,0,0,0-1.539-.559,7.277,7.277,0,0,1-1.742-.562,2.479,2.479,0,0,1-.953-.781,1.869,1.869,0,0,1-.309-1.078,2.193,2.193,0,0,1,.879-1.758,3.432,3.432,0,0,1,2.246-.719,3.532,3.532,0,0,1,2.332.742,2.357,2.357,0,0,1,.895,1.9H24.668a1.3,1.3,0,0,0-.5-1.023,1.888,1.888,0,0,0-1.27-.43,1.976,1.976,0,0,0-1.234.344,1.082,1.082,0,0,0-.445.9.877.877,0,0,0,.414.789,5.1,5.1,0,0,0,1.5.508,7.8,7.8,0,0,1,1.754.578,2.558,2.558,0,0,1,1,.809,1.988,1.988,0,0,1,.324,1.152,2.163,2.163,0,0,1-.906,1.816,3.8,3.8,0,0,1-2.352.684,4.257,4.257,0,0,1-1.8-.359,2.922,2.922,0,0,1-1.223-1A2.42,2.42,0,0,1,19.48,12.4h1.445a1.5,1.5,0,0,0,.582,1.152,2.258,2.258,0,0,0,1.434.426,2.331,2.331,0,0,0,1.316-.332A1.02,1.02,0,0,0,24.754,12.758Zm6.836,2.4a3.693,3.693,0,0,1-2.8-1.129,4.19,4.19,0,0,1-1.078-3.02v-.266A5.073,5.073,0,0,1,28.2,8.5a3.748,3.748,0,0,1,1.344-1.547,3.378,3.378,0,0,1,1.871-.559,3.166,3.166,0,0,1,2.563,1.086,4.7,4.7,0,0,1,.914,3.109v.6H29.16a3,3,0,0,0,.73,2.02,2.3,2.3,0,0,0,1.777.77,2.517,2.517,0,0,0,1.3-.312,3.259,3.259,0,0,0,.93-.828l.883.688A3.55,3.55,0,0,1,31.59,15.156Zm-.18-7.578a1.928,1.928,0,0,0-1.469.637A3.1,3.1,0,0,0,29.207,10h4.234V9.891a2.753,2.753,0,0,0-.594-1.707A1.815,1.815,0,0,0,31.41,7.578ZM40.168,10.7a4.952,4.952,0,0,1,.922-3.129,3.137,3.137,0,0,1,4.766-.168V3H47.3V15H45.973l-.07-.906a2.943,2.943,0,0,1-2.414,1.063,2.887,2.887,0,0,1-2.395-1.2,5.008,5.008,0,0,1-.926-3.141Zm1.445.164a3.749,3.749,0,0,0,.594,2.25,1.92,1.92,0,0,0,1.641.813A2.108,2.108,0,0,0,45.855,12.7V8.813a2.125,2.125,0,0,0-1.992-1.2,1.929,1.929,0,0,0-1.656.82A4.128,4.128,0,0,0,41.613,10.867Zm11.438,4.289a3.693,3.693,0,0,1-2.8-1.129,4.19,4.19,0,0,1-1.078-3.02v-.266a5.073,5.073,0,0,1,.48-2.246A3.748,3.748,0,0,1,51,6.949a3.378,3.378,0,0,1,1.871-.559,3.166,3.166,0,0,1,2.563,1.086,4.7,4.7,0,0,1,.914,3.109v.6H50.621a3,3,0,0,0,.73,2.02,2.3,2.3,0,0,0,1.777.77,2.517,2.517,0,0,0,1.3-.312,3.259,3.259,0,0,0,.93-.828l.883.688A3.55,3.55,0,0,1,53.051,15.156Zm-.18-7.578a1.928,1.928,0,0,0-1.469.637A3.1,3.1,0,0,0,50.668,10H54.9V9.891a2.753,2.753,0,0,0-.594-1.707A1.815,1.815,0,0,0,52.871,7.578ZM9.156,27.7a4.952,4.952,0,0,1,.922-3.129,2.915,2.915,0,0,1,2.414-1.184,2.932,2.932,0,0,1,2.352,1.016V20h1.445V32H14.961l-.07-.906a2.943,2.943,0,0,1-2.414,1.063,2.887,2.887,0,0,1-2.395-1.2,5.008,5.008,0,0,1-.926-3.141Zm1.445.164a3.749,3.749,0,0,0,.594,2.25,1.92,1.92,0,0,0,1.641.813A2.108,2.108,0,0,0,14.844,29.7V25.813a2.125,2.125,0,0,0-1.992-1.2,1.929,1.929,0,0,0-1.656.82A4.128,4.128,0,0,0,10.6,27.867ZM23.75,32a3.036,3.036,0,0,1-.2-.891,3.225,3.225,0,0,1-2.406,1.047,2.984,2.984,0,0,1-2.051-.707,2.287,2.287,0,0,1-.8-1.793,2.39,2.39,0,0,1,1-2.051,4.733,4.733,0,0,1,2.824-.73h1.406v-.664A1.623,1.623,0,0,0,23.07,25a1.821,1.821,0,0,0-1.336-.449,2.108,2.108,0,0,0-1.3.391,1.151,1.151,0,0,0-.523.945H18.461a2,2,0,0,1,.449-1.223,3.066,3.066,0,0,1,1.219-.934,4.1,4.1,0,0,1,1.691-.344,3.342,3.342,0,0,1,2.289.73,2.635,2.635,0,0,1,.859,2.012v3.891a4.757,4.757,0,0,0,.3,1.852V32Zm-2.4-1.1a2.54,2.54,0,0,0,1.289-.352,2.127,2.127,0,0,0,.883-.914V27.9H22.391q-2.656,0-2.656,1.555a1.316,1.316,0,0,0,.453,1.063A1.742,1.742,0,0,0,21.352,30.9ZM29.2,21.5v2.047h1.578v1.117H29.2v5.249a1.173,1.173,0,0,0,.211.763.888.888,0,0,0,.719.254,3.5,3.5,0,0,0,.688-.094V32a4.215,4.215,0,0,1-1.109.155,1.8,1.8,0,0,1-1.461-.586,2.517,2.517,0,0,1-.492-1.664V24.664H26.211V23.547H27.75V21.5Zm2.727,6.2a4.993,4.993,0,0,1,.488-2.234A3.643,3.643,0,0,1,33.77,23.93a3.7,3.7,0,0,1,1.988-.539,3.565,3.565,0,0,1,2.793,1.2,4.6,4.6,0,0,1,1.066,3.18v.1a5.036,5.036,0,0,1-.473,2.215,3.589,3.589,0,0,1-1.352,1.527,3.743,3.743,0,0,1-2.02.547,3.556,3.556,0,0,1-2.785-1.2A4.575,4.575,0,0,1,31.922,27.8Zm1.453.172a3.616,3.616,0,0,0,.652,2.258,2.211,2.211,0,0,0,3.5-.012,3.955,3.955,0,0,0,.648-2.418,3.61,3.61,0,0,0-.66-2.254,2.1,2.1,0,0,0-1.754-.863,2.075,2.075,0,0,0-1.727.852A3.925,3.925,0,0,0,33.375,27.867Zm12.977,1.891a1.064,1.064,0,0,0-.441-.91,4.249,4.249,0,0,0-1.539-.559,7.277,7.277,0,0,1-1.742-.562,2.479,2.479,0,0,1-.953-.781,1.869,1.869,0,0,1-.309-1.078,2.193,2.193,0,0,1,.879-1.758,3.432,3.432,0,0,1,2.246-.719,3.532,3.532,0,0,1,2.332.742,2.357,2.357,0,0,1,.895,1.9H46.266a1.3,1.3,0,0,0-.5-1.023,1.888,1.888,0,0,0-1.27-.43,1.976,1.976,0,0,0-1.234.344,1.082,1.082,0,0,0-.445.9.877.877,0,0,0,.414.789,5.1,5.1,0,0,0,1.5.508,7.8,7.8,0,0,1,1.754.578,2.558,2.558,0,0,1,1,.809,1.988,1.988,0,0,1,.324,1.152,2.163,2.163,0,0,1-.906,1.816,3.8,3.8,0,0,1-2.352.684,4.257,4.257,0,0,1-1.8-.359,2.922,2.922,0,0,1-1.223-1,2.42,2.42,0,0,1-.441-1.395h1.445a1.5,1.5,0,0,0,.582,1.152,2.258,2.258,0,0,0,1.434.426,2.331,2.331,0,0,0,1.316-.332A1.02,1.02,0,0,0,46.352,29.758Z" transform="translate(833 1190)" fill="#12263f"/>
  </g>
</svg>
