<svg xmlns="http://www.w3.org/2000/svg" width="70" height="70" viewBox="0 0 70 70">
  <g id="Grupo_1103544" data-name="Grupo 1103544" transform="translate(-615 -1219)">
    <circle id="Elipse_11440" data-name="Elipse 11440" cx="35" cy="35" r="35" transform="translate(615 1219)" fill="#00ffdf"/>
    <path id="Trazado_879494" data-name="Trazado 879494" d="M21.323,21.595a7.516,7.516,0,1,0,7.516,7.516,7.524,7.524,0,0,0-7.516-7.516Zm-2.579,2.21v1.1c0,.4-.856,1.09-2.723,1.616A5.938,5.938,0,0,1,18.745,23.805Zm0,10.611a5.917,5.917,0,0,1-1.251-.823A8.07,8.07,0,0,0,18.745,33Zm-3.267-6.093a11.057,11.057,0,0,0,3.267-1.172V30.76c0,.329-.65.976-2.394,1.519a5.856,5.856,0,0,1-.873-3.956Zm5.846,6.687a5.911,5.911,0,0,1-.963-.08V23.29a5.9,5.9,0,1,1,.963,11.72Zm19.433,9.069-6.934-6.934a2.089,2.089,0,0,0-1.912-.565l-1.556-1.556a10.794,10.794,0,0,0-9.032-16.714c-.325,0-.646.015-.963.043V13.205c0-2.572-5.01-3.917-9.96-3.917a24.018,24.018,0,0,0-6.937.949C.6,11.149,0,12.354,0,13.205V36.611c0,.851.6,2.057,3.464,2.968a24.015,24.015,0,0,0,6.937.949,20.241,20.241,0,0,0,7.4-1.207,10.786,10.786,0,0,0,9.432-1.179L28.793,39.7a2.118,2.118,0,0,0-.045.434,2.075,2.075,0,0,0,.61,1.477l6.934,6.934a2.093,2.093,0,0,0,2.955,0l1.509-1.509a2.092,2.092,0,0,0,0-2.955Zm-26.647-23a23.959,23.959,0,0,1-3.708.277,22.356,22.356,0,0,1-6.447-.873c-1.7-.542-2.337-1.164-2.338-1.428V15.388a9.372,9.372,0,0,0,1.848.786,24.018,24.018,0,0,0,6.937.949c3.222,0,6.469-.57,8.344-1.678v3.178A10.787,10.787,0,0,0,14.109,21.081ZM11.266,33.046c-.287.009-.576.015-.865.015a22.353,22.353,0,0,1-6.447-.873c-1.7-.542-2.336-1.162-2.338-1.427V27.091a9.371,9.371,0,0,0,1.848.786,24.018,24.018,0,0,0,6.937.949h.127q0,.143,0,.286A10.744,10.744,0,0,0,11.266,33.046Zm-.574-5.839-.291,0a22.356,22.356,0,0,1-6.447-.873c-1.7-.542-2.337-1.163-2.338-1.428v-3.67a9.37,9.37,0,0,0,1.848.786,24.018,24.018,0,0,0,6.937.949c.714,0,1.414-.027,2.1-.08a10.742,10.742,0,0,0-1.805,4.313ZM3.954,11.776A22.353,22.353,0,0,1,10.4,10.9a20.1,20.1,0,0,1,6.211.868c1.687.573,2.132,1.188,2.132,1.434s-.446.861-2.132,1.434a20.1,20.1,0,0,1-6.211.868,22.355,22.355,0,0,1-6.447-.873c-1.7-.543-2.338-1.164-2.338-1.429S2.251,12.319,3.954,11.776ZM10.4,38.913a22.353,22.353,0,0,1-6.447-.873c-1.7-.543-2.338-1.164-2.338-1.429V32.943a9.37,9.37,0,0,0,1.848.786,24.018,24.018,0,0,0,6.937.949c.551,0,1.1-.016,1.642-.049a10.884,10.884,0,0,0,3.642,3.689,22.1,22.1,0,0,1-5.284.6Zm1.739-9.8a9.184,9.184,0,1,1,9.184,9.184,9.194,9.194,0,0,1-9.184-9.184Zm17.221,7.205,1.168,1.168-.832.832-1.168-1.168A10.924,10.924,0,0,0,29.361,36.316Zm10.253,9.576L38.1,47.4a.477.477,0,0,1-.67,0L30.5,40.467a.48.48,0,0,1,0-.67l1.509-1.509a.48.48,0,0,1,.67,0l6.934,6.934a.48.48,0,0,1,0,.67Z" transform="translate(629.317 1224.779)" fill="#a854f3"/>
  </g>
</svg>
