<svg xmlns="http://www.w3.org/2000/svg" width="65" height="65" viewBox="0 0 65 65">
  <g id="Grupo_1103869" data-name="Grupo 1103869" transform="translate(-600 -14805)">
    <rect id="Rectángulo_403836" data-name="Rectángulo 403836" width="65" height="65" rx="10" transform="translate(600 14805)" fill="#00ffdf"/>
    <g id="Grupo_1103868" data-name="Grupo 1103868" transform="translate(610.24 14784.792)">
      <path id="Trazado_879973" data-name="Trazado 879973" d="M42.2,35.012H36.068a.652.652,0,0,0,0,1.3H42.2a1.014,1.014,0,0,1,1.013,1.013V60.155H41.583V39.544a1.533,1.533,0,0,0-1.532-1.532H30.283v-1.7h2.742a.652.652,0,0,0,0-1.3H30.283V34a.652.652,0,0,0-.652-.652H14.889a.652.652,0,0,0-.652.652v1.012H2.317A2.32,2.32,0,0,0,0,37.329V63.454a2.319,2.319,0,0,0,2.317,2.317H18.324a19.679,19.679,0,0,1-1.468,4.993H13.232a.652.652,0,0,0,0,1.3H31.287a.652.652,0,0,0,0-1.3H27.663a19.714,19.714,0,0,1-1.468-4.993H42.2a2.319,2.319,0,0,0,2.317-2.317V37.329A2.32,2.32,0,0,0,42.2,35.012Zm-26.661-.36H28.979v4.962H15.541Zm-.652,6.267h6.719v5.764H10.55a.652.652,0,0,0-.652.652V52.1H5.906a.652.652,0,0,0-.652.652V56.7a.652.652,0,0,0,.652.652h9.287a.652.652,0,0,0,.652-.652V52.757a.652.652,0,0,0-.652-.652H11.2V47.987H21.608V52.1H17.616a.652.652,0,0,0-.652.652V56.7a.652.652,0,0,0,.652.652h1.465a.652.652,0,0,0,0-1.3h-.813V53.409h7.983v2.643H22.068a.652.652,0,0,0,0,1.3H26.9a.652.652,0,0,0,.652-.652V52.757A.652.652,0,0,0,26.9,52.1H22.912V47.987H33.318V52.1H29.326a.652.652,0,0,0-.652.652V56.7a.652.652,0,0,0,.652.652h9.287a.652.652,0,0,0,.652-.652V52.757a.652.652,0,0,0-.652-.652H34.622v-4.77a.652.652,0,0,0-.652-.652H22.912V40.919h6.719a.652.652,0,0,0,.652-.652v-.95h9.769a.228.228,0,0,1,.227.227V60.155H4.24V39.544a.228.228,0,0,1,.227-.227h9.769v.95A.652.652,0,0,0,14.889,40.919Zm-.348,12.49v2.643H6.558V53.409Zm23.42,0v2.643H29.978V53.409ZM1.3,37.329a1.014,1.014,0,0,1,1.013-1.013h11.92v1.7H4.467a1.533,1.533,0,0,0-1.532,1.532V60.155H1.3ZM26.222,70.764H18.3a23.718,23.718,0,0,0,1.352-4.993H24.87A23.729,23.729,0,0,0,26.222,70.764Zm16.992-7.309A1.014,1.014,0,0,1,42.2,64.467H2.317A1.014,1.014,0,0,1,1.3,63.454v-2H43.215v2Z" fill="#a854f3"/>
    </g>
  </g>
</svg>
