<svg xmlns="http://www.w3.org/2000/svg" width="60" height="60" viewBox="0 0 60 60">
  <g id="database-coding-web_design-programing-developer" data-name="database-coding-web design-programing-developer" transform="translate(-2 -2)">
    <path id="Trazado_880246" data-name="Trazado 880246" d="M27.781,37.375a1,1,0,0,0-1.406-.156l-5,4a1,1,0,0,0,0,1.562l5,4a1,1,0,0,0,1.25-1.562L23.6,42l4.024-3.219A1,1,0,0,0,27.781,37.375Z" fill="#fff"/>
    <path id="Trazado_880247" data-name="Trazado 880247" d="M37.625,37.219a1,1,0,1,0-1.25,1.562L40.4,42l-4.024,3.219a1,1,0,1,0,1.25,1.562l5-4a1,1,0,0,0,0-1.562Z" fill="#fff"/>
    <path id="Trazado_880248" data-name="Trazado 880248" d="M34.316,35.051a1,1,0,0,0-1.264.633l-4,12a1,1,0,1,0,1.9.632l4-12a1,1,0,0,0-.636-1.265Z" fill="#fff"/>
    <path id="Trazado_880249" data-name="Trazado 880249" d="M14,33V51a1,1,0,0,0,1,1H49a1,1,0,0,0,1-1V33a1,1,0,0,0-1-1H15A1,1,0,0,0,14,33Zm2,1H48V50H16Z" fill="#fff"/>
    <path id="Trazado_880250" data-name="Trazado 880250" d="M53,2c-4.47,0-9,1.37-9,4v8c0,2.43,3.88,3.79,8,3.97V21a1,1,0,0,1-1,1H42a3.009,3.009,0,0,0-3,3v3H33V17.97c4.12-.18,8-1.54,8-3.97V6c0-2.63-4.53-4-9-4s-9,1.37-9,4v8c0,2.43,3.88,3.79,8,3.97V28H25V25a3.009,3.009,0,0,0-3-3H13a1,1,0,0,1-1-1V17.97c4.12-.18,8-1.54,8-3.97V6c0-2.63-4.53-4-9-4S2,3.37,2,6v8c0,2.43,3.88,3.79,8,3.97V21a3.009,3.009,0,0,0,3,3h9a1,1,0,0,1,1,1v3H15a5,5,0,0,0-5,5V54H9a1,1,0,0,0-1,1v2a5,5,0,0,0,5,5H51a5,5,0,0,0,5-5V55a1,1,0,0,0-1-1H54V33a5,5,0,0,0-5-5H41V25a1,1,0,0,1,1-1h9a3.009,3.009,0,0,0,3-3V17.97c4.12-.18,8-1.54,8-3.97V6c0-2.63-4.53-4-9-4ZM11,4c4.55,0,7,1.42,7,2s-2.45,2-7,2S4,6.58,4,6,6.45,4,11,4ZM4,8.6A15.9,15.9,0,0,0,11,10a15.9,15.9,0,0,0,7-1.4V10c0,.58-2.45,2-7,2s-7-1.42-7-2ZM4,14V12.6A15.9,15.9,0,0,0,11,14a15.9,15.9,0,0,0,7-1.4V14c0,.58-2.45,2-7,2S4,14.58,4,14ZM32,4c4.55,0,7,1.42,7,2s-2.45,2-7,2-7-1.42-7-2S27.45,4,32,4ZM25,8.6A15.9,15.9,0,0,0,32,10a15.9,15.9,0,0,0,7-1.4V10c0,.58-2.45,2-7,2s-7-1.42-7-2ZM25,14V12.6A15.9,15.9,0,0,0,32,14a15.9,15.9,0,0,0,7-1.4V14c0,.58-2.45,2-7,2S25,14.58,25,14ZM54,56v1a3.009,3.009,0,0,1-3,3H13a3.009,3.009,0,0,1-3-3V56H26a3.009,3.009,0,0,0,3,3h6a3.009,3.009,0,0,0,3-3ZM28,56h8a1,1,0,0,1-1,1H29A1,1,0,0,1,28,56ZM49,30a3.009,3.009,0,0,1,3,3V54H12V33a3.009,3.009,0,0,1,3-3ZM60,14c0,.58-2.45,2-7,2s-7-1.42-7-2V12.6A15.9,15.9,0,0,0,53,14a15.9,15.9,0,0,0,7-1.4Zm0-4c0,.58-2.45,2-7,2s-7-1.42-7-2V8.6A15.9,15.9,0,0,0,53,10a15.9,15.9,0,0,0,7-1.4ZM53,8c-4.55,0-7-1.42-7-2s2.45-2,7-2,7,1.42,7,2S57.55,8,53,8Z" fill="#fff"/>
  </g>
</svg>
