<svg xmlns="http://www.w3.org/2000/svg" width="60" height="60.001" viewBox="0 0 60 60.001">
  <g id="file-folder-transfer-web_design-share" data-name="file-folder-transfer-web design-share" transform="translate(-2 -2)">
    <path id="Trazado_880251" data-name="Trazado 880251" d="M55,51a7.008,7.008,0,0,0,7-7V9a1,1,0,0,0-1-1H53.68L49.82,2.43a1.033,1.033,0,0,0-1.64,0L44.32,8H24V7a5,5,0,0,0-5-5H7A5,5,0,0,0,2,7V46a5,5,0,0,0,5,5H31v3.14A4.017,4.017,0,0,0,28.14,57H3a1,1,0,0,0,0,2H28.14a3.983,3.983,0,0,0,7.72,0H61a1,1,0,0,0,0-2H35.86A4.017,4.017,0,0,0,33,54.14V51Zm5-41V44a5,5,0,0,1-10,0V33h4a1,1,0,0,0,1-1V17h3a1.02,1.02,0,0,0,.89-.54,1,1,0,0,0-.07-1.03L55.06,10ZM49,4.76,56.09,15H54a1,1,0,0,0-1,1V31H45V16a1,1,0,0,0-1-1H41.91ZM24,10H42.94l-3.76,5.43a1,1,0,0,0-.07,1.03A1.02,1.02,0,0,0,40,17h3v3H38V13a1,1,0,0,0-1-1H27a1,1,0,0,0-1,1v7H25a1,1,0,0,1-1-1ZM37,28h2.09L32,38.24,24.91,28H27a1,1,0,0,0,1-1V14h8V27A1,1,0,0,0,37,28ZM34,58a2,2,0,1,1-2-2A2,2,0,0,1,34,58ZM7,49a3.009,3.009,0,0,1-3-3V7A3.009,3.009,0,0,1,7,4H19a3.009,3.009,0,0,1,3,3V19a3.009,3.009,0,0,0,3,3h1v4H23a1.02,1.02,0,0,0-.89.54,1,1,0,0,0,.07,1.03l9,13a1,1,0,0,0,1.64,0l9-13a1,1,0,0,0,.07-1.03A1.02,1.02,0,0,0,41,26H38V22h5V32a1,1,0,0,0,1,1h4V44a6.97,6.97,0,0,0,2.11,5Z" fill="#fff"/>
    <path id="Trazado_880252" data-name="Trazado 880252" d="M14,45H9a1,1,0,0,1-1-1V40a1,1,0,0,0-2,0v4a3,3,0,0,0,3,3h5a1,1,0,0,0,0-2Z" fill="#fff"/>
  </g>
</svg>
