<svg xmlns="http://www.w3.org/2000/svg" width="397" height="200" viewBox="0 0 397 200">
  <g id="Grupo_1103163" data-name="Grupo 1103163" transform="translate(-655 -528)">
    <rect id="Rectángulo_403460" data-name="Rectángulo 403460" width="320" height="200" rx="10" transform="translate(732 528)" fill="#3a1d71"/>
    <path id="Trazado_879179" data-name="Trazado 879179" d="M18.76,10.085a.715.715,0,0,1-.518.219h-3.8a.539.539,0,0,0-.536.542V76.322a.722.722,0,0,1-.719.726H5.8a.722.722,0,0,1-.719-.726V10.846a.539.539,0,0,0-.536-.542H.732A.722.722,0,0,1,0,9.592a.73.73,0,0,1,.217-.534L8.972.217a.708.708,0,0,1,1.019,0l8.755,8.841A.731.731,0,0,1,18.76,10.085Z" transform="translate(732.048 617.018) rotate(90)" fill="#0b47db"/>
    <path id="Trazado_879180" data-name="Trazado 879180" d="M18.76,10.085a.715.715,0,0,1-.518.219h-3.8a.539.539,0,0,0-.536.542V76.322a.722.722,0,0,1-.719.726H5.8a.722.722,0,0,1-.719-.726V10.846a.539.539,0,0,0-.536-.542H.732A.722.722,0,0,1,0,9.592a.73.73,0,0,1,.217-.534L8.972.217a.708.708,0,0,1,1.019,0l8.755,8.841A.731.731,0,0,1,18.76,10.085Z" transform="translate(922.048 617) rotate(90)" fill="#a854f3"/>
    <path id="Trazado_879181" data-name="Trazado 879181" d="M18.76,10.085a.715.715,0,0,1-.518.219h-3.8a.539.539,0,0,0-.536.542v68.3a.722.722,0,0,1-.719.726H5.8a.722.722,0,0,1-.719-.726v-68.3a.539.539,0,0,0-.536-.542H.732A.722.722,0,0,1,0,9.592a.73.73,0,0,1,.217-.534L8.972.217a.708.708,0,0,1,1.019,0l8.755,8.841A.731.731,0,0,1,18.76,10.085Z" transform="translate(915.036 558.537) rotate(45)" fill="#a854f3"/>
    <path id="Trazado_879182" data-name="Trazado 879182" d="M18.76,66.963a.715.715,0,0,0-.518-.219h-3.8a.539.539,0,0,1-.536-.542V-2.1a.722.722,0,0,0-.719-.726H5.8a.722.722,0,0,0-.719.726V66.2a.539.539,0,0,1-.536.542H.732A.722.722,0,0,0,0,67.456a.73.73,0,0,0,.217.534l8.755,8.841a.708.708,0,0,0,1.019,0l8.755-8.841A.731.731,0,0,0,18.76,66.963Z" transform="translate(860.555 639.374) rotate(-45)" fill="#a854f3"/>
    <rect id="Rectángulo_403512" data-name="Rectángulo 403512" width="114" height="40" rx="10" transform="translate(755 607)" fill="#debefb"/>
    <rect id="Rectángulo_403513" data-name="Rectángulo 403513" width="102" height="40" rx="10" transform="translate(922.048 547)" fill="#d6e1fd"/>
    <rect id="Rectángulo_403514" data-name="Rectángulo 403514" width="102" height="40" rx="10" transform="translate(922 607)" fill="#d6e1fd"/>
    <rect id="Rectángulo_403515" data-name="Rectángulo 403515" width="102" height="40" rx="10" transform="translate(922.048 667)" fill="#d6e1fd"/>
    <path id="Trazado_880514" data-name="Trazado 880514" d="M9.922,11.336h.047L12.6,3.625h2.352L10.648,15H8.531l-1-7.484-.047-.008L4.3,15H2.188L1.18,3.625H3.531l.4,7.7.047.008,3.164-7.7H8.984Zm7.617,3.828A3.361,3.361,0,0,1,14.746,14a3.71,3.71,0,0,1-.668-2.98l.047-.312a5.35,5.35,0,0,1,1.48-3.129,4.072,4.072,0,0,1,3.012-1.184,2.829,2.829,0,0,1,2.438,1.047,3.7,3.7,0,0,1,.523,2.8l-.172,1.18H16.359l-.016.039a1.957,1.957,0,0,0,.32,1.418,1.6,1.6,0,0,0,1.359.535,4.993,4.993,0,0,0,1.266-.141,9.4,9.4,0,0,0,1.2-.422l.352,1.438a5.365,5.365,0,0,1-1.418.617A6.622,6.622,0,0,1,17.539,15.164Zm.82-7.016a1.462,1.462,0,0,0-1.109.473,2.765,2.765,0,0,0-.641,1.246l.016.047h2.766l.031-.172a1.857,1.857,0,0,0-.141-1.176A.973.973,0,0,0,18.359,8.148Zm12.063,2.859a5.661,5.661,0,0,1-1.281,3.043,3.333,3.333,0,0,1-2.6,1.113,2.268,2.268,0,0,1-1.234-.32,2.209,2.209,0,0,1-.8-.93L24.148,15h-1.93L23.984,2.813h2.273l-.672,4.633a3.349,3.349,0,0,1,1-.781A2.669,2.669,0,0,1,27.8,6.391a2.38,2.38,0,0,1,2.254,1.223,5.077,5.077,0,0,1,.395,3.23Zm-2.25-.164a4.213,4.213,0,0,0-.078-1.969,1.075,1.075,0,0,0-1.133-.711,1.814,1.814,0,0,0-.918.23,2.063,2.063,0,0,0-.684.645L24.844,12.6a1.116,1.116,0,0,0,.492.59,1.744,1.744,0,0,0,.883.2,1.518,1.518,0,0,0,1.313-.629,3.969,3.969,0,0,0,.617-1.754Zm13.523,1.7H38.008L36.883,15H34.5L39.984,3.625H42.32L44.492,15H42.109Zm-2.867-1.789h2.563l-.672-4-.047-.008Zm14.789.25a5.586,5.586,0,0,1-1.3,3.035,3.351,3.351,0,0,1-2.586,1.121A2.354,2.354,0,0,1,48.6,14.91a2.107,2.107,0,0,1-.785-.746l-.594,4.086H44.945l1.7-11.7H48.7l-.008,1a3.327,3.327,0,0,1,1.023-.855,2.687,2.687,0,0,1,1.273-.3,2.384,2.384,0,0,1,2.234,1.234,5,5,0,0,1,.422,3.219Zm-2.258-.164a3.941,3.941,0,0,0-.113-1.949,1.089,1.089,0,0,0-1.113-.73,1.83,1.83,0,0,0-.9.219A2.028,2.028,0,0,0,48.555,9l-.531,3.688a1.167,1.167,0,0,0,.5.539,1.75,1.75,0,0,0,.859.188,1.555,1.555,0,0,0,1.3-.656,3.738,3.738,0,0,0,.652-1.75Zm11.289.164a5.586,5.586,0,0,1-1.3,3.035,3.351,3.351,0,0,1-2.586,1.121,2.354,2.354,0,0,1-1.129-.254,2.107,2.107,0,0,1-.785-.746L56.25,18.25H53.977l1.7-11.7h2.055l-.008,1a3.327,3.327,0,0,1,1.023-.855,2.687,2.687,0,0,1,1.273-.3A2.384,2.384,0,0,1,62.25,7.625a5,5,0,0,1,.422,3.219Zm-2.258-.164a3.941,3.941,0,0,0-.113-1.949,1.089,1.089,0,0,0-1.113-.73,1.83,1.83,0,0,0-.9.219A2.028,2.028,0,0,0,57.586,9l-.531,3.688a1.167,1.167,0,0,0,.5.539,1.75,1.75,0,0,0,.859.188,1.555,1.555,0,0,0,1.3-.656,3.738,3.738,0,0,0,.652-1.75Z" transform="translate(755 548)" fill="#f7eefe"/>
    <path id="Trazado_880516" data-name="Trazado 880516" d="M13.254,12.242A1.235,1.235,0,0,0,12.9,11.09a5.335,5.335,0,0,0-1.691-.863A7.8,7.8,0,0,1,8.289,8.719a2.465,2.465,0,0,1-.746-2.312,3,3,0,0,1,1.4-2.152,5.177,5.177,0,0,1,2.914-.793,4.455,4.455,0,0,1,3.008.926,2.586,2.586,0,0,1,.8,2.559l-.016.047H13.434a1.411,1.411,0,0,0-.4-1.277,1.96,1.96,0,0,0-1.43-.5,2.116,2.116,0,0,0-1.2.336,1.167,1.167,0,0,0-.57.836A1.1,1.1,0,0,0,10.2,7.5a7.217,7.217,0,0,0,1.941.879,6.817,6.817,0,0,1,2.73,1.48,2.624,2.624,0,0,1,.66,2.371,2.963,2.963,0,0,1-1.4,2.176,5.424,5.424,0,0,1-2.965.762A5.588,5.588,0,0,1,8,14.316a2.4,2.4,0,0,1-.969-2.637l.016-.047H9.262A1.245,1.245,0,0,0,9.793,13a3.061,3.061,0,0,0,1.625.41,2.286,2.286,0,0,0,1.227-.328A1.192,1.192,0,0,0,13.254,12.242Zm6.8,2.922A3.361,3.361,0,0,1,17.258,14a3.71,3.71,0,0,1-.668-2.98l.047-.312a5.35,5.35,0,0,1,1.48-3.129,4.072,4.072,0,0,1,3.012-1.184,2.829,2.829,0,0,1,2.438,1.047,3.7,3.7,0,0,1,.523,2.8l-.172,1.18H18.871l-.016.039a1.957,1.957,0,0,0,.32,1.418,1.6,1.6,0,0,0,1.359.535,4.993,4.993,0,0,0,1.266-.141,9.4,9.4,0,0,0,1.2-.422l.352,1.438a5.365,5.365,0,0,1-1.418.617A6.622,6.622,0,0,1,20.051,15.164Zm.82-7.016a1.462,1.462,0,0,0-1.109.473,2.765,2.765,0,0,0-.641,1.246l.016.047H21.9l.031-.172a1.857,1.857,0,0,0-.141-1.176A.973.973,0,0,0,20.871,8.148Zm9.242.359-.828-.023a1.642,1.642,0,0,0-.863.219,1.722,1.722,0,0,0-.6.617L27,15H24.73l1.227-8.453h2.117L28,7.789a3.168,3.168,0,0,1,.914-1.035,1.971,1.971,0,0,1,1.148-.363,1.659,1.659,0,0,1,.309.027q.145.027.285.066Zm4.039,3.344.031.773.047.008.273-.781,2.164-5.3h2.383L34.949,15H32.77L31.121,6.547H33.5ZM41.215,15H38.934L40.7,2.813H42.98Zm5.563.164A3.361,3.361,0,0,1,43.984,14a3.71,3.71,0,0,1-.668-2.98l.047-.312a5.35,5.35,0,0,1,1.48-3.129,4.072,4.072,0,0,1,3.012-1.184,2.829,2.829,0,0,1,2.438,1.047,3.7,3.7,0,0,1,.523,2.8l-.172,1.18H45.6l-.016.039a1.957,1.957,0,0,0,.32,1.418,1.6,1.6,0,0,0,1.359.535,4.993,4.993,0,0,0,1.266-.141,9.4,9.4,0,0,0,1.2-.422l.352,1.438a5.365,5.365,0,0,1-1.418.617A6.622,6.622,0,0,1,46.777,15.164Zm.82-7.016a1.462,1.462,0,0,0-1.109.473,2.765,2.765,0,0,0-.641,1.246l.016.047h2.766l.031-.172a1.857,1.857,0,0,0-.141-1.176A.973.973,0,0,0,47.6,8.148Zm8.078-3.672-.3,2.07H56.8l-.234,1.6H55.145l-.625,4.3a.887.887,0,0,0,.1.711.65.65,0,0,0,.52.2,2.284,2.284,0,0,0,.313-.02,2.514,2.514,0,0,0,.313-.066l-.047,1.648a5.04,5.04,0,0,1-.7.176,4.184,4.184,0,0,1-.719.059,2.116,2.116,0,0,1-1.711-.656,2.538,2.538,0,0,1-.352-2.047l.625-4.312H51.629l.234-1.6H53.09l.3-2.07Z" transform="translate(942.048 558)" fill="#12263f"/>
    <path id="Trazado_880515" data-name="Trazado 880515" d="M6.953,12.242A1.235,1.235,0,0,0,6.6,11.09a5.335,5.335,0,0,0-1.691-.863A7.8,7.8,0,0,1,1.988,8.719a2.465,2.465,0,0,1-.746-2.312,3,3,0,0,1,1.4-2.152,5.177,5.177,0,0,1,2.914-.793,4.455,4.455,0,0,1,3.008.926,2.586,2.586,0,0,1,.8,2.559l-.016.047H7.133a1.411,1.411,0,0,0-.4-1.277,1.96,1.96,0,0,0-1.43-.5,2.116,2.116,0,0,0-1.2.336,1.167,1.167,0,0,0-.57.836A1.1,1.1,0,0,0,3.9,7.5a7.217,7.217,0,0,0,1.941.879,6.817,6.817,0,0,1,2.73,1.48,2.624,2.624,0,0,1,.66,2.371,2.963,2.963,0,0,1-1.4,2.176,5.424,5.424,0,0,1-2.965.762A5.588,5.588,0,0,1,1.7,14.316,2.4,2.4,0,0,1,.734,11.68l.016-.047H2.961A1.245,1.245,0,0,0,3.492,13a3.061,3.061,0,0,0,1.625.41,2.286,2.286,0,0,0,1.227-.328A1.192,1.192,0,0,0,6.953,12.242Zm6.8,2.922A3.361,3.361,0,0,1,10.957,14a3.71,3.71,0,0,1-.668-2.98l.047-.312a5.35,5.35,0,0,1,1.48-3.129,4.072,4.072,0,0,1,3.012-1.184,2.829,2.829,0,0,1,2.438,1.047,3.7,3.7,0,0,1,.523,2.8l-.172,1.18H12.57l-.016.039a1.957,1.957,0,0,0,.32,1.418,1.6,1.6,0,0,0,1.359.535,4.993,4.993,0,0,0,1.266-.141,9.4,9.4,0,0,0,1.2-.422l.352,1.438a5.365,5.365,0,0,1-1.418.617A6.622,6.622,0,0,1,13.75,15.164Zm.82-7.016a1.462,1.462,0,0,0-1.109.473,2.765,2.765,0,0,0-.641,1.246l.016.047H15.6l.031-.172a1.857,1.857,0,0,0-.141-1.176A.973.973,0,0,0,14.57,8.148Zm9.242.359-.828-.023a1.642,1.642,0,0,0-.863.219,1.722,1.722,0,0,0-.6.617L20.7,15H18.43l1.227-8.453h2.117L21.7,7.789a3.168,3.168,0,0,1,.914-1.035,1.971,1.971,0,0,1,1.148-.363,1.659,1.659,0,0,1,.309.027q.145.027.285.066Zm4.039,3.344.031.773.047.008.273-.781,2.164-5.3H32.75L28.648,15h-2.18L24.82,6.547H27.2Zm8.141,3.313A3.361,3.361,0,0,1,33.2,14a3.71,3.71,0,0,1-.668-2.98l.047-.312a5.35,5.35,0,0,1,1.48-3.129A4.072,4.072,0,0,1,37.07,6.391a2.829,2.829,0,0,1,2.438,1.047,3.7,3.7,0,0,1,.523,2.8l-.172,1.18H34.813l-.016.039a1.957,1.957,0,0,0,.32,1.418,1.6,1.6,0,0,0,1.359.535,4.993,4.993,0,0,0,1.266-.141,9.4,9.4,0,0,0,1.2-.422l.352,1.438a5.365,5.365,0,0,1-1.418.617A6.622,6.622,0,0,1,35.992,15.164Zm.82-7.016a1.462,1.462,0,0,0-1.109.473,2.765,2.765,0,0,0-.641,1.246l.016.047h2.766l.031-.172a1.857,1.857,0,0,0-.141-1.176A.973.973,0,0,0,36.813,8.148ZM43.07,15H40.789L42.555,2.813h2.281Zm5.563.164A3.361,3.361,0,0,1,45.84,14a3.71,3.71,0,0,1-.668-2.98l.047-.312A5.35,5.35,0,0,1,46.7,7.574a4.072,4.072,0,0,1,3.012-1.184,2.829,2.829,0,0,1,2.438,1.047,3.7,3.7,0,0,1,.523,2.8l-.172,1.18H47.453l-.016.039a1.957,1.957,0,0,0,.32,1.418,1.6,1.6,0,0,0,1.359.535,4.993,4.993,0,0,0,1.266-.141,9.4,9.4,0,0,0,1.2-.422l.352,1.438a5.365,5.365,0,0,1-1.418.617A6.622,6.622,0,0,1,48.633,15.164Zm.82-7.016a1.462,1.462,0,0,0-1.109.473A2.765,2.765,0,0,0,47.7,9.867l.016.047h2.766l.031-.172a1.857,1.857,0,0,0-.141-1.176A.973.973,0,0,0,49.453,8.148Zm8.078-3.672-.3,2.07h1.43l-.234,1.6H57l-.625,4.3a.887.887,0,0,0,.1.711.65.65,0,0,0,.52.2,2.284,2.284,0,0,0,.313-.02,2.514,2.514,0,0,0,.313-.066L57.57,14.93a5.04,5.04,0,0,1-.7.176,4.184,4.184,0,0,1-.719.059,2.116,2.116,0,0,1-1.711-.656,2.538,2.538,0,0,1-.352-2.047l.625-4.312H53.484l.234-1.6h1.227l.3-2.07Zm8.773,5.8H61.922L61.242,15H58.961L60.609,3.625h7.453L67.8,5.383H62.633L62.18,8.516h4.375ZM70.031,15H67.75l1.227-8.453h2.281ZM71.547,4.523H69.266l.25-1.711H71.8ZM74.3,15H72.023L73.789,2.813H76.07ZM80.4,4.477l-.3,2.07h1.43l-.234,1.6H79.867l-.625,4.3a.887.887,0,0,0,.1.711.65.65,0,0,0,.52.2,2.284,2.284,0,0,0,.313-.02,2.515,2.515,0,0,0,.313-.066l-.047,1.648a5.04,5.04,0,0,1-.7.176,4.184,4.184,0,0,1-.719.059,2.116,2.116,0,0,1-1.711-.656,2.538,2.538,0,0,1-.352-2.047l.625-4.312H76.352l.234-1.6h1.227l.3-2.07Zm4.961,10.688A3.361,3.361,0,0,1,82.566,14a3.71,3.71,0,0,1-.668-2.98l.047-.312a5.35,5.35,0,0,1,1.48-3.129,4.072,4.072,0,0,1,3.012-1.184,2.829,2.829,0,0,1,2.438,1.047,3.7,3.7,0,0,1,.523,2.8l-.172,1.18H84.18l-.016.039a1.957,1.957,0,0,0,.32,1.418,1.6,1.6,0,0,0,1.359.535,4.993,4.993,0,0,0,1.266-.141,9.4,9.4,0,0,0,1.2-.422l.352,1.438a5.365,5.365,0,0,1-1.418.617A6.622,6.622,0,0,1,85.359,15.164Zm.82-7.016a1.462,1.462,0,0,0-1.109.473,2.765,2.765,0,0,0-.641,1.246l.016.047h2.766l.031-.172A1.857,1.857,0,0,0,87.1,8.566.973.973,0,0,0,86.18,8.148Zm9.242.359-.828-.023a1.642,1.642,0,0,0-.863.219,1.722,1.722,0,0,0-.6.617L92.313,15H90.039l1.227-8.453h2.117L93.3,7.789a3.168,3.168,0,0,1,.914-1.035,1.971,1.971,0,0,1,1.148-.363,1.659,1.659,0,0,1,.309.027q.145.027.285.066Z" transform="translate(761 618)" fill="#12263f"/>
    <path id="Trazado_880513" data-name="Trazado 880513" d="M24.574,15H22.3l.68-4.727H18.348L17.668,15H15.379L17.027,3.625h2.289l-.711,4.891h4.633l.711-4.891h2.273ZM35.988,5.383h-3.25L31.348,15H29.066l1.391-9.617h-3.2l.258-1.758h8.734Zm9.43,0h-3.25L40.777,15H38.5l1.391-9.617h-3.2l.258-1.758h8.734Zm2.719,5.492L47.543,15H45.262L46.91,3.625h4.352A3.943,3.943,0,0,1,54.18,4.633a2.935,2.935,0,0,1,.777,2.625A3.947,3.947,0,0,1,53.445,9.9a5.125,5.125,0,0,1-3.23.977Zm.258-1.758h2.07a2.1,2.1,0,0,0,2.2-1.844,1.74,1.74,0,0,0-.293-1.363A1.633,1.633,0,0,0,51,5.383h-2.07ZM9.051,27.453,8.395,32H6.105L7.754,20.625H11.73a4.193,4.193,0,0,1,2.891.891,2.622,2.622,0,0,1,.773,2.469,2.9,2.9,0,0,1-.687,1.535,3.971,3.971,0,0,1-1.516,1.02,2.071,2.071,0,0,1,1.3,1,2.827,2.827,0,0,1,.211,1.7l-.117.836a4,4,0,0,0-.016,1,1.164,1.164,0,0,0,.328.766L14.871,32H12.52a1.082,1.082,0,0,1-.281-.816,7.448,7.448,0,0,1,.07-1.129l.117-.8a1.616,1.616,0,0,0-.273-1.332,1.559,1.559,0,0,0-1.25-.465ZM9.3,25.7h1.656a2.4,2.4,0,0,0,1.48-.41,1.752,1.752,0,0,0,.66-1.2,1.492,1.492,0,0,0-.293-1.25,1.7,1.7,0,0,0-1.332-.453H9.785Zm10.4,6.469A3.361,3.361,0,0,1,16.906,31a3.71,3.71,0,0,1-.668-2.98l.047-.312a5.35,5.35,0,0,1,1.48-3.129,4.072,4.072,0,0,1,3.012-1.184,2.829,2.829,0,0,1,2.438,1.047,3.7,3.7,0,0,1,.523,2.8l-.172,1.18H18.52l-.016.039a1.957,1.957,0,0,0,.32,1.418,1.6,1.6,0,0,0,1.359.535,4.993,4.993,0,0,0,1.266-.141,9.4,9.4,0,0,0,1.2-.422L23,31.289a5.365,5.365,0,0,1-1.418.617A6.622,6.622,0,0,1,19.7,32.164Zm.82-7.016a1.462,1.462,0,0,0-1.109.473,2.765,2.765,0,0,0-.641,1.246l.016.047h2.766l.031-.172a1.857,1.857,0,0,0-.141-1.176A.973.973,0,0,0,20.52,25.148Zm4.109,2.7a6.245,6.245,0,0,1,1.332-3.25,3.3,3.3,0,0,1,2.613-1.2,2.115,2.115,0,0,1,1.176.316,2.321,2.321,0,0,1,.793.9l.367-1.062h1.938l-1.7,11.7H28.871l.586-4.039a3.118,3.118,0,0,1-.984.711,2.865,2.865,0,0,1-1.187.242,2.446,2.446,0,0,1-2.238-1.148,4.376,4.376,0,0,1-.441-3.008Zm2.25.164A3.3,3.3,0,0,0,27,29.777a1.105,1.105,0,0,0,1.125.637,1.965,1.965,0,0,0,.891-.2,1.925,1.925,0,0,0,.672-.562l.531-3.719a1.272,1.272,0,0,0-.492-.582,1.51,1.51,0,0,0-.82-.207,1.534,1.534,0,0,0-1.32.754,4.63,4.63,0,0,0-.68,1.941ZM38.77,30.773A3.447,3.447,0,0,1,37.629,31.8a2.975,2.975,0,0,1-1.453.359,2.219,2.219,0,0,1-1.945-.91,3.9,3.9,0,0,1-.359-2.809l.711-4.9h2.273l-.711,4.914a2.546,2.546,0,0,0,.07,1.531.948.948,0,0,0,.883.4,2.366,2.366,0,0,0,.953-.184,1.982,1.982,0,0,0,.719-.527l.9-6.133h2.281L40.723,32H38.832Zm7.359,1.391A3.361,3.361,0,0,1,43.336,31a3.71,3.71,0,0,1-.668-2.98l.047-.312a5.35,5.35,0,0,1,1.48-3.129,4.072,4.072,0,0,1,3.012-1.184,2.829,2.829,0,0,1,2.438,1.047,3.7,3.7,0,0,1,.523,2.8L50,28.422H44.949l-.016.039a1.957,1.957,0,0,0,.32,1.418,1.6,1.6,0,0,0,1.359.535,4.993,4.993,0,0,0,1.266-.141,9.4,9.4,0,0,0,1.2-.422l.352,1.438a5.365,5.365,0,0,1-1.418.617A6.622,6.622,0,0,1,46.129,32.164Zm.82-7.016a1.462,1.462,0,0,0-1.109.473,2.765,2.765,0,0,0-.641,1.246l.016.047H47.98l.031-.172a1.857,1.857,0,0,0-.141-1.176A.973.973,0,0,0,46.949,25.148Zm8.8,4.508a.665.665,0,0,0-.27-.645,3.385,3.385,0,0,0-1.285-.473,4.649,4.649,0,0,1-2.125-.9,1.721,1.721,0,0,1-.547-1.633,2.747,2.747,0,0,1,1.18-1.863,4.2,4.2,0,0,1,2.563-.754,3.565,3.565,0,0,1,2.441.77,1.95,1.95,0,0,1,.676,1.9l-.016.047h-2.2a1.018,1.018,0,0,0-.215-.832,1.143,1.143,0,0,0-.9-.316,1.458,1.458,0,0,0-.9.273.994.994,0,0,0-.418.672.658.658,0,0,0,.242.641,3.3,3.3,0,0,0,1.289.438,4.721,4.721,0,0,1,2.184.918,1.784,1.784,0,0,1,.535,1.668,2.67,2.67,0,0,1-1.238,1.879,4.719,4.719,0,0,1-2.684.715,3.458,3.458,0,0,1-2.527-.863,2.086,2.086,0,0,1-.684-1.941l.023-.047h2.086a1.041,1.041,0,0,0,.309.984,1.648,1.648,0,0,0,1.059.3,1.741,1.741,0,0,0,.992-.254A.969.969,0,0,0,55.746,29.656Zm7.531-8.18-.3,2.07H64.4l-.234,1.6H62.746l-.625,4.3a.887.887,0,0,0,.1.711.65.65,0,0,0,.52.2,2.283,2.283,0,0,0,.313-.02,2.515,2.515,0,0,0,.313-.066l-.047,1.648a5.04,5.04,0,0,1-.7.176,4.184,4.184,0,0,1-.719.059,2.116,2.116,0,0,1-1.711-.656,2.538,2.538,0,0,1-.352-2.047l.625-4.312H59.23l.234-1.6h1.227l.3-2.07Z" transform="translate(652 581)" fill="#12263f"/>
    <path id="Trazado_880517" data-name="Trazado 880517" d="M23.652,3.625h2.273l-1.141,7.852a4.167,4.167,0,0,1-1.418,2.707,4.225,4.225,0,0,1-2.809.98,3.78,3.78,0,0,1-2.707-.895,2.742,2.742,0,0,1-.668-2.582l.023-.047h2.219a1.6,1.6,0,0,0,.242,1.352,1.463,1.463,0,0,0,1.141.422,1.448,1.448,0,0,0,1.09-.523,2.6,2.6,0,0,0,.613-1.414Zm9.234,8.617a1.235,1.235,0,0,0-.355-1.152,5.335,5.335,0,0,0-1.691-.863,7.8,7.8,0,0,1-2.918-1.508,2.465,2.465,0,0,1-.746-2.312,3,3,0,0,1,1.4-2.152,5.177,5.177,0,0,1,2.914-.793,4.455,4.455,0,0,1,3.008.926,2.586,2.586,0,0,1,.8,2.559l-.016.047H33.066a1.411,1.411,0,0,0-.4-1.277,1.96,1.96,0,0,0-1.43-.5,2.116,2.116,0,0,0-1.2.336,1.167,1.167,0,0,0-.57.836A1.1,1.1,0,0,0,29.836,7.5a7.217,7.217,0,0,0,1.941.879,6.817,6.817,0,0,1,2.73,1.48,2.624,2.624,0,0,1,.66,2.371,2.963,2.963,0,0,1-1.4,2.176,5.424,5.424,0,0,1-2.965.762,5.588,5.588,0,0,1-3.164-.848,2.4,2.4,0,0,1-.969-2.637l.016-.047h2.211A1.245,1.245,0,0,0,29.426,13a3.061,3.061,0,0,0,1.625.41,2.286,2.286,0,0,0,1.227-.328A1.192,1.192,0,0,0,32.887,12.242Zm6.164-1.367L38.457,15H36.176L37.824,3.625h4.352a3.943,3.943,0,0,1,2.918,1.008,2.935,2.935,0,0,1,.777,2.625A3.947,3.947,0,0,1,44.359,9.9a5.125,5.125,0,0,1-3.23.977Zm.258-1.758h2.07a2.1,2.1,0,0,0,2.2-1.844,1.74,1.74,0,0,0-.293-1.363,1.633,1.633,0,0,0-1.371-.527h-2.07Z" transform="translate(942 617)" fill="#12263f"/>
    <path id="Trazado_880518" data-name="Trazado 880518" d="M11.621,12.242a1.235,1.235,0,0,0-.355-1.152,5.335,5.335,0,0,0-1.691-.863A7.8,7.8,0,0,1,6.656,8.719,2.465,2.465,0,0,1,5.91,6.406a3,3,0,0,1,1.4-2.152,5.177,5.177,0,0,1,2.914-.793,4.455,4.455,0,0,1,3.008.926,2.586,2.586,0,0,1,.8,2.559l-.016.047H11.8a1.411,1.411,0,0,0-.4-1.277,1.96,1.96,0,0,0-1.43-.5,2.116,2.116,0,0,0-1.2.336,1.167,1.167,0,0,0-.57.836A1.1,1.1,0,0,0,8.57,7.5a7.217,7.217,0,0,0,1.941.879,6.817,6.817,0,0,1,2.73,1.48,2.624,2.624,0,0,1,.66,2.371A2.963,2.963,0,0,1,12.5,14.4a5.424,5.424,0,0,1-2.965.762,5.588,5.588,0,0,1-3.164-.848A2.4,2.4,0,0,1,5.4,11.68l.016-.047H7.629A1.245,1.245,0,0,0,8.16,13a3.061,3.061,0,0,0,1.625.41,2.286,2.286,0,0,0,1.227-.328A1.192,1.192,0,0,0,11.621,12.242Zm7.352-7.766-.3,2.07H20.1l-.234,1.6H18.441l-.625,4.3a.887.887,0,0,0,.1.711.65.65,0,0,0,.52.2,2.284,2.284,0,0,0,.313-.02,2.514,2.514,0,0,0,.313-.066l-.047,1.648a5.04,5.04,0,0,1-.7.176,4.184,4.184,0,0,1-.719.059,2.116,2.116,0,0,1-1.711-.656,2.538,2.538,0,0,1-.352-2.047l.625-4.312H14.926l.234-1.6h1.227l.3-2.07ZM25.184,15a2.968,2.968,0,0,1-.105-.582,5.226,5.226,0,0,1-.012-.676,3.9,3.9,0,0,1-1.078,1.02,2.608,2.608,0,0,1-1.43.4,2.5,2.5,0,0,1-1.93-.687,2.165,2.165,0,0,1-.469-1.859A2.655,2.655,0,0,1,21.4,10.68a5.344,5.344,0,0,1,2.895-.672h1.273l.1-.672a1.2,1.2,0,0,0-.184-.953,1.106,1.106,0,0,0-.9-.328,1.421,1.421,0,0,0-.891.27,1.068,1.068,0,0,0-.414.738h-2.2l-.008-.047a2.552,2.552,0,0,1,1.2-1.863,4.6,4.6,0,0,1,2.7-.762,3.341,3.341,0,0,1,2.332.77,2.327,2.327,0,0,1,.645,2.191l-.508,3.492a5.949,5.949,0,0,0-.074,1.125A5.6,5.6,0,0,0,27.5,15Zm-1.82-1.523a2.178,2.178,0,0,0,1.1-.3,1.969,1.969,0,0,0,.75-.691l.172-1.187H24.105a1.723,1.723,0,0,0-1.145.363,1.361,1.361,0,0,0-.5.879.76.76,0,0,0,.172.688A.979.979,0,0,0,23.363,13.477Zm9.7-9-.3,2.07h1.43l-.234,1.6H32.527l-.625,4.3a.887.887,0,0,0,.1.711.65.65,0,0,0,.52.2,2.284,2.284,0,0,0,.313-.02,2.514,2.514,0,0,0,.313-.066L33.1,14.93a5.04,5.04,0,0,1-.7.176,4.184,4.184,0,0,1-.719.059,2.116,2.116,0,0,1-1.711-.656,2.538,2.538,0,0,1-.352-2.047l.625-4.312H29.012l.234-1.6h1.227l.3-2.07ZM36.73,15H34.449l1.227-8.453h2.281ZM38.246,4.523H35.965l.25-1.711H38.5Zm4.117,8.891a1.458,1.458,0,0,0,.988-.355,1.524,1.524,0,0,0,.5-.949h2.07l.016.047a3.137,3.137,0,0,1-1.262,2.16,4.079,4.079,0,0,1-2.566.848,3.113,3.113,0,0,1-2.707-1.207,4.035,4.035,0,0,1-.6-3.059l.031-.234A5.28,5.28,0,0,1,40.3,7.578a4.158,4.158,0,0,1,3.066-1.187,3.048,3.048,0,0,1,2.348.895,2.627,2.627,0,0,1,.59,2.348l-.016.039H44.207a1.534,1.534,0,0,0-.191-1.094,1,1,0,0,0-.9-.43,1.545,1.545,0,0,0-1.348.715,4.218,4.218,0,0,0-.645,1.8l-.031.234a3.623,3.623,0,0,0,.1,1.832A1.124,1.124,0,0,0,42.363,13.414ZM58.34,10.273H53.957L53.277,15H51L52.645,3.625H60.1L59.84,5.383H54.668l-.453,3.133H58.59ZM62.066,15H59.785l1.227-8.453h2.281ZM63.582,4.523H61.3l.25-1.711h2.281ZM66.34,15H64.059L65.824,2.813h2.281Zm5.563.164A3.361,3.361,0,0,1,69.109,14a3.71,3.71,0,0,1-.668-2.98l.047-.312a5.35,5.35,0,0,1,1.48-3.129A4.072,4.072,0,0,1,72.98,6.391a2.829,2.829,0,0,1,2.438,1.047,3.7,3.7,0,0,1,.523,2.8l-.172,1.18H70.723l-.016.039a1.957,1.957,0,0,0,.32,1.418,1.6,1.6,0,0,0,1.359.535,4.993,4.993,0,0,0,1.266-.141,9.4,9.4,0,0,0,1.2-.422l.352,1.438a5.365,5.365,0,0,1-1.418.617A6.622,6.622,0,0,1,71.9,15.164Zm.82-7.016a1.462,1.462,0,0,0-1.109.473,2.765,2.765,0,0,0-.641,1.246l.016.047h2.766l.031-.172a1.857,1.857,0,0,0-.141-1.176A.973.973,0,0,0,72.723,8.148Z" transform="translate(932.048 678)" fill="#12263f"/>
  </g>
</svg>
