<svg xmlns="http://www.w3.org/2000/svg" width="58.636" height="52.813" viewBox="0 0 58.636 52.813">
  <g id="Grupo_1103625" data-name="Grupo 1103625" transform="translate(0 -25.337)">
    <path id="Trazado_879528" data-name="Trazado 879528" d="M191.876,26.338H165.113a.862.862,0,1,0,0,1.724h26.763A1.941,1.941,0,0,1,193.814,30V66.923a1.941,1.941,0,0,1-1.939,1.939H165.113a.862.862,0,1,0,0,1.724H172.5v3h-7.391a.862.862,0,0,0,0,1.724h7.69l.88,2H155.54a.862.862,0,1,0,0,1.724h21.6a.862.862,0,1,0,0-1.724h-1.575l-1.339-3.043V70.585h17.648a3.667,3.667,0,0,0,3.663-3.663V30A3.667,3.667,0,0,0,191.876,26.338Z" transform="translate(-136.902 -0.886)" fill="#fff"/>
    <path id="Trazado_879529" data-name="Trazado 879529" d="M238.839,88.74a.862.862,0,0,0,0,1.724h26.116a.862.862,0,0,0,.862-.862V57.2a.862.862,0,0,0-.862-.862h-2.69a.862.862,0,0,0,0,1.724h1.828V88.74Z" transform="translate(-210.628 -27.438)" fill="#fff"/>
    <path id="Trazado_879530" data-name="Trazado 879530" d="M258.591,56.338H238.839a.862.862,0,1,0,0,1.724h19.752a.862.862,0,0,0,0-1.724Z" transform="translate(-210.628 -27.438)" fill="#fff"/>
    <circle id="Elipse_11739" data-name="Elipse 11739" cx="1.145" cy="1.145" r="1.145" transform="translate(28.211 64.28)" fill="#fff"/>
    <path id="Trazado_879531" data-name="Trazado 879531" d="M19.274,70.568a1.6,1.6,0,0,0,1.6,1.6h3.5a.862.862,0,1,0,0-1.724H21V67.962a.862.862,0,0,0-.718-.85,18.394,18.394,0,0,1-7.634-3.163.862.862,0,0,0-1.108.093L9.785,65.8,6.368,62.38l1.753-1.753a.862.862,0,0,0,.093-1.108,18.4,18.4,0,0,1-3.163-7.634.862.862,0,0,0-.85-.718H1.724V46.335H4.2a.862.862,0,0,0,.85-.718,18.392,18.392,0,0,1,3.163-7.634.862.862,0,0,0-.093-1.108L6.369,35.122l3.416-3.416,1.753,1.753a.862.862,0,0,0,1.108.093,18.393,18.393,0,0,1,7.634-3.163A.862.862,0,0,0,21,29.54V27.061h3.376a.862.862,0,0,0,0-1.724h-3.5a1.6,1.6,0,0,0-1.6,1.6v1.891a20.419,20.419,0,0,0-7.023,2.909L10.914,30.4a1.6,1.6,0,0,0-2.259,0l-3.6,3.6a1.6,1.6,0,0,0,0,2.259L6.4,37.589a20.419,20.419,0,0,0-2.909,7.023H1.6a1.6,1.6,0,0,0-1.6,1.6v5.085a1.6,1.6,0,0,0,1.6,1.6H3.488A20.417,20.417,0,0,0,6.4,59.913L5.06,61.251a1.6,1.6,0,0,0,0,2.259l3.6,3.6a1.6,1.6,0,0,0,2.259,0l1.338-1.338a20.421,20.421,0,0,0,7.023,2.909v1.891Z" fill="#fff"/>
    <path id="Trazado_879532" data-name="Trazado 879532" d="M82.475,93.791a.862.862,0,1,0,0-1.724,15.746,15.746,0,0,0-13,24.627.862.862,0,1,0,1.423-.974A14.022,14.022,0,0,1,82.475,93.791Z" transform="translate(-59.061 -59.061)" fill="#fff"/>
    <path id="Trazado_879533" data-name="Trazado 879533" d="M111.093,320.4a15.73,15.73,0,0,0,10.387,3.913.862.862,0,1,0,0-1.724,14.008,14.008,0,0,1-9.25-3.485.862.862,0,0,0-1.138,1.295Z" transform="translate(-98.067 -259.82)" fill="#fff"/>
    <path id="Trazado_879534" data-name="Trazado 879534" d="M185.162,99.54V97.468a1.539,1.539,0,0,0-1.537-1.537h-2.072a1.539,1.539,0,0,0-1.537,1.537v.174H172.63a.862.862,0,0,0-.609.252l-3.848,3.848H155.539a.862.862,0,1,0,0,1.724h12.99a.862.862,0,0,0,.609-.252l3.848-3.848h7.028v.174a1.539,1.539,0,0,0,1.537,1.537h2.072A1.539,1.539,0,0,0,185.162,99.54Zm-1.724-.186h-1.7v-1.7h1.7Z" transform="translate(-136.901 -62.481)" fill="#fff"/>
    <path id="Trazado_879535" data-name="Trazado 879535" d="M188.227,183.816H189.9a1.539,1.539,0,0,0,1.537-1.537V180.6a1.539,1.539,0,0,0-1.537-1.537h-1.676a1.539,1.539,0,0,0-1.531,1.408h-3.868a.862.862,0,0,0-.609.252l-2.661,2.661H163.582a.862.862,0,1,0,0,1.724h16.333a.862.862,0,0,0,.609-.252l2.661-2.661h3.5v.082A1.539,1.539,0,0,0,188.227,183.816Zm.187-3.027h1.3v1.3h-1.3Z" transform="translate(-144.02 -136.061)" fill="#fff"/>
    <path id="Trazado_879536" data-name="Trazado 879536" d="M214.236,260.152H212.56a1.539,1.539,0,0,0-1.536,1.514h-3.5L204.864,259a.862.862,0,0,0-.609-.252H188.286a.862.862,0,1,0,0,1.724H203.9l2.661,2.661a.861.861,0,0,0,.609.253h3.856a1.538,1.538,0,0,0,1.536,1.514h1.676a1.539,1.539,0,0,0,1.537-1.537V261.69A1.539,1.539,0,0,0,214.236,260.152Zm-.186,3.027h-1.3v-1.3h1.3Z" transform="translate(-165.885 -206.59)" fill="#fff"/>
    <path id="Trazado_879537" data-name="Trazado 879537" d="M182.937,183.787a.862.862,0,1,0,0-1.724H171.155a.862.862,0,1,0,0,1.724Z" transform="translate(-150.722 -138.715)" fill="#fff"/>
  </g>
</svg>
