<svg xmlns="http://www.w3.org/2000/svg" width="65" height="65" viewBox="0 0 65 65">
  <g id="Grupo_1103867" data-name="Grupo 1103867" transform="translate(-600 -14720)">
    <rect id="Rectángulo_403835" data-name="Rectángulo 403835" width="65" height="65" rx="10" transform="translate(600 14720)" fill="#00ffdf"/>
    <g id="Grupo_1103865" data-name="Grupo 1103865" transform="translate(607.714 14696.241)">
      <g id="Grupo_1103864" data-name="Grupo 1103864" transform="translate(0 34.847)">
        <path id="Trazado_879956" data-name="Trazado 879956" d="M54.5,127.032v-1.164c0-.4.456-.732,1-.732a.725.725,0,1,0,0-1.451,2.329,2.329,0,0,0-2.446,2.183v1.092a.585.585,0,0,1-.432.5.726.726,0,0,0,0,1.373.585.585,0,0,1,.432.5v1.092a2.328,2.328,0,0,0,2.446,2.183.725.725,0,1,0,0-1.451c-.54,0-1-.335-1-.732v-1.164a.721.721,0,0,0-.012-.129,2.247,2.247,0,0,0-.42-.99,2.248,2.248,0,0,0,.42-.99A.72.72,0,0,0,54.5,127.032Z" transform="translate(-47.076 -115.085)" fill="#a854f3"/>
        <path id="Trazado_879957" data-name="Trazado 879957" d="M318.641,172.031a.585.585,0,0,1-.432-.5v-1.092a2.328,2.328,0,0,0-2.446-2.183.725.725,0,0,0,0,1.451c.54,0,1,.335,1,.732V171.6a.721.721,0,0,0,.012.129,2.247,2.247,0,0,0,.42.99,2.247,2.247,0,0,0-.42.99.721.721,0,0,0-.012.129V175c0,.4-.456.732-1,.732a.725.725,0,0,0,0,1.451A2.329,2.329,0,0,0,318.209,175v-1.092a.585.585,0,0,1,.432-.5.726.726,0,0,0,0-1.373Z" transform="translate(-284.535 -155.336)" fill="#a854f3"/>
        <path id="Trazado_879958" data-name="Trazado 879958" d="M112.629,141.058h2.095a.725.725,0,1,0,0-1.451h-2.095a.725.725,0,1,0,0,1.451Z" transform="translate(-101.069 -129.464)" fill="#a854f3"/>
        <path id="Trazado_879959" data-name="Trazado 879959" d="M124.025,282.826h-11.4a.725.725,0,1,0,0,1.451h11.4a.725.725,0,0,0,0-1.451Z" transform="translate(-101.069 -258.817)" fill="#a854f3"/>
        <path id="Trazado_879960" data-name="Trazado 879960" d="M112.629,198.346h2.095a.725.725,0,1,0,0-1.451h-2.095a.725.725,0,1,0,0,1.451Z" transform="translate(-101.069 -181.206)" fill="#a854f3"/>
        <path id="Trazado_879961" data-name="Trazado 879961" d="M112.629,226.99h2.095a.725.725,0,1,0,0-1.451h-2.095a.725.725,0,1,0,0,1.451Z" transform="translate(-101.069 -207.076)" fill="#a854f3"/>
        <path id="Trazado_879962" data-name="Trazado 879962" d="M210.785,254.182h-2.1a.725.725,0,0,0,0,1.451h2.1a.725.725,0,0,0,0-1.451Z" transform="translate(-187.83 -232.946)" fill="#a854f3"/>
        <path id="Trazado_879963" data-name="Trazado 879963" d="M112.629,255.633h6.219a.725.725,0,0,0,0-1.451h-6.219a.725.725,0,1,0,0,1.451Z" transform="translate(-101.07 -232.946)" fill="#a854f3"/>
        <path id="Trazado_879964" data-name="Trazado 879964" d="M168.3,198.346a.725.725,0,0,0,0-1.451h-2.095a.725.725,0,1,0,0,1.451Z" transform="translate(-149.46 -181.206)" fill="#a854f3"/>
        <path id="Trazado_879965" data-name="Trazado 879965" d="M220.161,196.895h-5.924a.725.725,0,1,0,0,1.451h5.924a.725.725,0,0,0,0-1.451Z" transform="translate(-192.84 -181.206)" fill="#a854f3"/>
        <path id="Trazado_879966" data-name="Trazado 879966" d="M114.724,316.1h-2.095a.725.725,0,1,0,0,1.451h2.095a.725.725,0,1,0,0-1.451Z" transform="translate(-101.069 -288.866)" fill="#a854f3"/>
        <path id="Trazado_879967" data-name="Trazado 879967" d="M114.724,344.74h-2.095a.725.725,0,1,0,0,1.451h2.095a.725.725,0,1,0,0-1.451Z" transform="translate(-101.069 -314.736)" fill="#a854f3"/>
        <path id="Trazado_879968" data-name="Trazado 879968" d="M168.3,316.1h-2.095a.725.725,0,1,0,0,1.451H168.3a.725.725,0,0,0,0-1.451Z" transform="translate(-149.46 -288.866)" fill="#a854f3"/>
        <path id="Trazado_879969" data-name="Trazado 879969" d="M215.8,316.1h-1.558a.725.725,0,0,0,0,1.451H215.8a.725.725,0,0,0,0-1.451Z" transform="translate(-192.84 -288.866)" fill="#a854f3"/>
        <path id="Trazado_879970" data-name="Trazado 879970" d="M166.207,141.058h14.465a.725.725,0,0,0,0-1.451H166.207a.725.725,0,1,0,0,1.451Z" transform="translate(-149.46 -129.464)" fill="#a854f3"/>
        <path id="Trazado_879971" data-name="Trazado 879971" d="M128.391,168.251H112.629a.725.725,0,1,0,0,1.451h15.762a.725.725,0,1,0,0-1.451Z" transform="translate(-101.07 -155.335)" fill="#a854f3"/>
        <path id="Trazado_879972" data-name="Trazado 879972" d="M46.793,62.431H44.835l-1.7-2.575a2.226,2.226,0,0,0-1.861-1H39.644V36.937a2.092,2.092,0,0,0-2.09-2.09H11.038a.725.725,0,0,0,0,1.451H37.554a.639.639,0,0,1,.639.639v2.836H1.451V36.937A.639.639,0,0,1,2.09,36.3H7.63a.725.725,0,1,0,0-1.451H2.09A2.092,2.092,0,0,0,0,36.937V67.887a2.092,2.092,0,0,0,2.09,2.09h23.3v4.915a2.782,2.782,0,0,0,2.779,2.779H37.88a.725.725,0,0,0,0-1.451H28.167a1.33,1.33,0,0,1-1.328-1.328v-13.8a.782.782,0,0,1,.781-.781h4.766a.779.779,0,0,1,.651.349l1.924,2.9a.726.726,0,0,0,.6.325H46.793a1.33,1.33,0,0,1,1.328,1.328v9.681a1.33,1.33,0,0,1-1.328,1.328H41.245a.725.725,0,0,0,0,1.451h5.547a2.782,2.782,0,0,0,2.779-2.779V65.21a2.782,2.782,0,0,0-2.779-2.779ZM27.62,58.856a2.234,2.234,0,0,0-2.232,2.232v7.438H2.09a.639.639,0,0,1-.639-.639V41.239H38.193V58.856Zm8.335,3.575-1.409-2.124H41.27a.779.779,0,0,1,.651.35L43.1,62.431Z" transform="translate(0 -34.847)" fill="#a854f3"/>
      </g>
    </g>
  </g>
</svg>
