<svg xmlns="http://www.w3.org/2000/svg" width="275" height="130" viewBox="0 0 275 130">
  <g id="Grupo_1104212" data-name="Grupo 1104212" transform="translate(-663 -8569)">
    <path id="Rectángulo_404065" data-name="Rectángulo 404065" d="M14,0H261a14,14,0,0,1,14,14V130a0,0,0,0,1,0,0H0a0,0,0,0,1,0,0V14A14,14,0,0,1,14,0Z" transform="translate(663 8569)" fill="#aec4fa"/>
    <g id="Grupo_1103846" data-name="Grupo 1103846" transform="translate(358)">
      <circle id="Elipse_11750" data-name="Elipse 11750" cx="50.5" cy="50.5" r="50.5" transform="translate(392 8584)" fill="#00ffdf"/>
      <g id="Grupo_1103848" data-name="Grupo 1103848" transform="translate(415.218 8607.218)">
        <path id="Trazado_879849" data-name="Trazado 879849" d="M369.032,364.511a3.2,3.2,0,1,1-4.521,4.521L354.22,358.741a26.921,26.921,0,0,0,4.521-4.521Z" transform="translate(-316.471 -316.471)" fill="#4dbbeb"/>
        <path id="Trazado_879850" data-name="Trazado 879850" d="M315.931,311.41l4.562,4.562a26.919,26.919,0,0,1-4.521,4.521l-4.562-4.562h0a20.385,20.385,0,0,0,4.52-4.52Z" transform="translate(-278.223 -278.223)" fill="#fff5cd"/>
        <path id="Trazado_879851" data-name="Trazado 879851" d="M50.5,30.248a20.139,20.139,0,0,1-3.856,11.873,20.385,20.385,0,0,1-4.52,4.52A20.242,20.242,0,1,1,50.5,30.248Z" transform="translate(-8.934 -8.934)" fill="#4dbbeb"/>
        <path id="Trazado_879852" data-name="Trazado 879852" d="M65.985,50A15.985,15.985,0,1,1,50,65.985,16,16,0,0,1,65.985,50Z" transform="translate(-44.672 -44.672)" fill="#bee7f4"/>
        <path id="Trazado_879853" data-name="Trazado 879853" d="M53.315,47.287,39.09,33.062a21.123,21.123,0,0,0,3.538-11.748A21.314,21.314,0,1,0,21.314,42.628,21.124,21.124,0,0,0,33.062,39.09l3.932,3.932,0,0L47.287,53.315a4.262,4.262,0,1,0,6.028-6.028ZM34.8,37.81A21.386,21.386,0,0,0,37.81,34.8l3.023,3.023a25.867,25.867,0,0,1-3.013,3.013ZM2.131,21.314a19.179,19.179,0,1,1,30.429,15.53h0A19.173,19.173,0,0,1,2.131,21.314ZM51.807,51.807a2.13,2.13,0,0,1-3.014,0l-9.463-9.463a28,28,0,0,0,3.013-3.013l9.463,9.463a2.13,2.13,0,0,1,0,3.013Z"/>
        <path id="Trazado_879854" data-name="Trazado 879854" d="M74.1,57.051A17.051,17.051,0,1,0,57.051,74.1,17.07,17.07,0,0,0,74.1,57.051ZM57.051,71.971a14.92,14.92,0,1,1,14.92-14.92A14.937,14.937,0,0,1,57.051,71.971Z" transform="translate(-35.737 -35.737)"/>
        <path id="Trazado_879855" data-name="Trazado 879855" d="M202.4,89.591a1.066,1.066,0,0,0,.613-1.377A12.808,12.808,0,0,0,191.066,80a1.066,1.066,0,1,0,0,2.131,10.73,10.73,0,0,1,9.953,6.847,1.065,1.065,0,0,0,1.377.613Z" transform="translate(-169.752 -71.474)"/>
        <path id="Trazado_879856" data-name="Trazado 879856" d="M301.066,190a1.066,1.066,0,1,0,1.066,1.066A1.066,1.066,0,0,0,301.066,190Z" transform="translate(-268.029 -169.752)"/>
      </g>
    </g>
  </g>
</svg>
