<svg xmlns="http://www.w3.org/2000/svg" width="65" height="65" viewBox="0 0 65 65">
  <g id="Grupo_1103866" data-name="Grupo 1103866" transform="translate(-600 -14635)">
    <rect id="Rectángulo_403834" data-name="Rectángulo 403834" width="65" height="65" rx="10" transform="translate(600 14635)" fill="#00ffdf"/>
    <g id="Grupo_1103863" data-name="Grupo 1103863" transform="translate(610.115 14617.008)">
      <g id="Grupo_1103862" data-name="Grupo 1103862" transform="translate(0 30.801)">
        <g id="Grupo_1103861" data-name="Grupo 1103861" transform="translate(0 0)">
          <path id="Trazado_879947" data-name="Trazado 879947" d="M112.9,99.191a13.7,13.7,0,0,0-4.321.695.657.657,0,1,0,.414,1.248,12.406,12.406,0,1,1-2.634,1.236.657.657,0,1,0-.695-1.116,13.714,13.714,0,1,0,7.236-2.063Z" transform="translate(-90.517 -93.211)" fill="#a854f3"/>
          <path id="Trazado_879948" data-name="Trazado 879948" d="M375.468,38.907a.657.657,0,0,0,.926-.087l4.344-5.241h2.315a2.121,2.121,0,1,0,0-1.315h-2.624a.658.658,0,0,0-.506.238l-4.541,5.479A.657.657,0,0,0,375.468,38.907Zm9.6-6.791a.806.806,0,1,1-.806.806A.807.807,0,0,1,385.068,32.116Z" transform="translate(-342.42 -30.801)" fill="#a854f3"/>
          <path id="Trazado_879949" data-name="Trazado 879949" d="M436.749,231.746a2.124,2.124,0,0,0-2.016,1.463H432.52a.657.657,0,0,0,0,1.315h2.213a2.121,2.121,0,1,0,2.016-2.778Zm0,2.927a.806.806,0,1,1,.806-.806A.807.807,0,0,1,436.749,234.673Z" transform="translate(-394.101 -214.175)" fill="#a854f3"/>
          <path id="Trazado_879950" data-name="Trazado 879950" d="M385.067,390.78a2.124,2.124,0,0,0-2.016,1.463h-2.315L376.393,387a.657.657,0,0,0-1.012.839l4.541,5.479a.658.658,0,0,0,.506.238h2.624a2.121,2.121,0,1,0,2.016-2.778Zm0,2.927a.806.806,0,1,1,.806-.806A.807.807,0,0,1,385.067,393.707Z" transform="translate(-342.419 -355.639)" fill="#a854f3"/>
          <path id="Trazado_879951" data-name="Trazado 879951" d="M11.721,386.917A.658.658,0,0,0,10.8,387l-4.344,5.241H4.137a2.121,2.121,0,1,0,0,1.315H6.761a.658.658,0,0,0,.506-.238l4.541-5.479A.657.657,0,0,0,11.721,386.917Zm-9.6,6.791a.806.806,0,1,1,.806-.806A.807.807,0,0,1,2.121,393.708Z" transform="translate(0 -355.64)" fill="#a854f3"/>
          <path id="Trazado_879952" data-name="Trazado 879952" d="M2.121,35.044A2.124,2.124,0,0,0,4.137,33.58H6.452L10.8,38.821a.657.657,0,1,0,1.012-.839L7.267,32.5a.657.657,0,0,0-.506-.238H4.137a2.121,2.121,0,1,0-2.016,2.778Zm0-2.927a.806.806,0,1,1-.806.806A.807.807,0,0,1,2.121,32.117Z" transform="translate(0 -30.802)" fill="#a854f3"/>
          <path id="Trazado_879953" data-name="Trazado 879953" d="M2.121,235.988a2.124,2.124,0,0,0,2.016-1.463H6.35a.657.657,0,1,0,0-1.315H4.137a2.121,2.121,0,1,0-2.016,2.778Zm0-2.927a.806.806,0,1,1-.806.806.807.807,0,0,1,.806-.806Z" transform="translate(0 -214.175)" fill="#a854f3"/>
          <path id="Trazado_879954" data-name="Trazado 879954" d="M152.529,141.423h-2.172a1.151,1.151,0,0,0-1.15,1.15v1.336a7.783,7.783,0,0,0-1.51.626l-.945-.945a1.151,1.151,0,0,0-1.626,0l-1.535,1.535a1.151,1.151,0,0,0,0,1.626l.945.945a7.779,7.779,0,0,0-.626,1.51h-1.336a1.151,1.151,0,0,0-1.15,1.15v2.171a1.151,1.151,0,0,0,1.15,1.15h1.336a7.782,7.782,0,0,0,.626,1.51l-.945.945a1.15,1.15,0,0,0,0,1.626l1.535,1.535a1.15,1.15,0,0,0,1.626,0l.945-.945a7.778,7.778,0,0,0,1.51.626v1.336a1.151,1.151,0,0,0,1.15,1.15h2.172a1.151,1.151,0,0,0,1.15-1.15v-1.336a7.789,7.789,0,0,0,1.51-.626l.945.945a1.151,1.151,0,0,0,1.626,0l1.535-1.535a1.15,1.15,0,0,0,0-1.626l-.945-.945a7.776,7.776,0,0,0,.626-1.51h1.336a1.151,1.151,0,0,0,1.15-1.15v-2.171a1.151,1.151,0,0,0-1.15-1.15h-1.336a7.785,7.785,0,0,0-.626-1.51l.945-.945a1.151,1.151,0,0,0,0-1.626l-1.536-1.536a1.151,1.151,0,0,0-1.626,0l-.945.945a7.783,7.783,0,0,0-1.51-.626v-1.336a1.151,1.151,0,0,0-1.15-1.15Zm2.413,4.491a.658.658,0,0,0,.817-.09l1.188-1.188,1.3,1.3-1.188,1.188a.658.658,0,0,0-.09.817,6.487,6.487,0,0,1,.855,2.064.658.658,0,0,0,.642.514h1.679v1.841h-1.679a.658.658,0,0,0-.642.514,6.484,6.484,0,0,1-.855,2.064.657.657,0,0,0,.09.817l1.188,1.188-1.3,1.3-1.188-1.188a.658.658,0,0,0-.817-.09,6.484,6.484,0,0,1-2.064.855.658.658,0,0,0-.514.642v1.679h-1.841v-1.679a.657.657,0,0,0-.514-.642,6.484,6.484,0,0,1-2.064-.855.657.657,0,0,0-.817.09l-1.188,1.188-1.3-1.3,1.188-1.188a.657.657,0,0,0,.09-.817,6.484,6.484,0,0,1-.855-2.064.658.658,0,0,0-.642-.514H142.74v-1.841h1.679a.658.658,0,0,0,.642-.514,6.487,6.487,0,0,1,.855-2.064.657.657,0,0,0-.09-.817l-1.188-1.188,1.3-1.3,1.188,1.188a.658.658,0,0,0,.817.09,6.485,6.485,0,0,1,2.064-.855.657.657,0,0,0,.514-.642v-1.679h1.841v1.679a.658.658,0,0,0,.514.642A6.482,6.482,0,0,1,154.942,145.914Z" transform="translate(-129.059 -131.75)" fill="#a854f3"/>
          <path id="Trazado_879955" data-name="Trazado 879955" d="M203.929,199.224a4.965,4.965,0,0,0,.267,9.923q.123,0,.246-.006a.657.657,0,1,0-.065-1.313,3.65,3.65,0,0,1-3.833-3.834,3.65,3.65,0,0,1,6.285-2.332,3.715,3.715,0,0,1-.124,5.135.657.657,0,1,0,.933.926,5.2,5.2,0,0,0,1.479-3.367,4.821,4.821,0,0,0-1.338-3.6A4.971,4.971,0,0,0,203.929,199.224Z" transform="translate(-181.805 -184.491)" fill="#a854f3"/>
        </g>
      </g>
    </g>
  </g>
</svg>
