<svg xmlns="http://www.w3.org/2000/svg" width="65" height="65" viewBox="0 0 65 65">
  <g id="Grupo_1103872" data-name="Grupo 1103872" transform="translate(-600 -14890)">
    <rect id="Rectángulo_403837" data-name="Rectángulo 403837" width="65" height="65" rx="10" transform="translate(600 14890)" fill="#00ffdf"/>
    <g id="Grupo_1103871" data-name="Grupo 1103871" transform="translate(543.551 14900.51)">
      <g id="Grupo_1103870" data-name="Grupo 1103870" transform="translate(73.252 0)">
        <path id="Trazado_879974" data-name="Trazado 879974" d="M104.488,8.49,97.266.22A.643.643,0,0,0,96.782,0H83.187a.643.643,0,1,0,0,1.286H96.139V8.913a.643.643,0,0,0,.643.643h6.579V42.7H74.538V1.286h5.669a.643.643,0,1,0,0-1.286H73.895a.643.643,0,0,0-.643.643v42.7a.643.643,0,0,0,.643.643H104a.643.643,0,0,0,.643-.643V8.913A.643.643,0,0,0,104.488,8.49Zm-7.064-.22V2.356l5.164,5.914Z" transform="translate(-73.252 0)" fill="#a854f3"/>
        <path id="Trazado_879975" data-name="Trazado 879975" d="M144.462,380.109h1.055a.643.643,0,1,0,0-1.286h-1.055a.643.643,0,0,0,0,1.286Z" transform="translate(-137.757 -346.279)" fill="#a854f3"/>
        <path id="Trazado_879976" data-name="Trazado 879976" d="M144.462,407.214h1.055a.643.643,0,1,0,0-1.286h-1.055a.643.643,0,0,0,0,1.286Z" transform="translate(-137.757 -371.055)" fill="#a854f3"/>
        <path id="Trazado_879977" data-name="Trazado 879977" d="M144.462,434.319h1.055a.643.643,0,1,0,0-1.286h-1.055a.643.643,0,0,0,0,1.286Z" transform="translate(-137.757 -395.832)" fill="#a854f3"/>
        <path id="Trazado_879978" data-name="Trazado 879978" d="M242.3,380.109h1.055a.643.643,0,0,0,0-1.286H242.3a.643.643,0,1,0,0,1.286Z" transform="translate(-227.194 -346.279)" fill="#a854f3"/>
        <path id="Trazado_879979" data-name="Trazado 879979" d="M242.3,407.214h1.055a.643.643,0,0,0,0-1.286H242.3a.643.643,0,0,0,0,1.286Z" transform="translate(-227.194 -371.055)" fill="#a854f3"/>
        <path id="Trazado_879980" data-name="Trazado 879980" d="M242.3,434.319h1.055a.643.643,0,0,0,0-1.286H242.3a.643.643,0,0,0,0,1.286Z" transform="translate(-227.194 -395.832)" fill="#a854f3"/>
        <path id="Trazado_879981" data-name="Trazado 879981" d="M123.884,136.453a3.346,3.346,0,1,0-3.988,3.283v4.645a.643.643,0,0,0,.643.643h2.05v1.135h-2.05a.643.643,0,0,0-.643.643v5.086h-2.183a.643.643,0,0,0-.643.643v9.314a.643.643,0,0,0,.643.643h5.651a.643.643,0,0,0,.643-.643v-9.314a.643.643,0,0,0-.643-.643h-2.183v-4.443h1.408v.465a.643.643,0,0,0,.643.643H128.3v3.335h-2.183a.643.643,0,0,0-.643.643v9.314a.643.643,0,0,0,.643.643h5.651a.643.643,0,0,0,.643-.643v-9.314a.643.643,0,0,0-.643-.643h-2.183v-3.335h5.069a.643.643,0,0,0,.643-.643v-.465h1.408v4.443h-2.064a.643.643,0,0,0-.643.643v9.314a.643.643,0,0,0,.643.643h5.651a.643.643,0,0,0,.643-.643v-2.329a.643.643,0,1,0-1.286,0V161.2h-4.365v-8.028h4.365v3.345a.643.643,0,0,0,1.286,0v-3.988a.643.643,0,0,0-.643-.643h-2.3V146.8a.643.643,0,0,0-.643-.643H135.3v-1.135h2.051a.643.643,0,0,0,.643-.643v-4.645a3.346,3.346,0,1,0-1.286,0v4H135.3v-.486a.643.643,0,0,0-.643-.643h-5.069v-2.873a3.346,3.346,0,1,0-1.286,0v2.873h-5.069a.643.643,0,0,0-.643.643v.486h-1.408v-4a3.351,3.351,0,0,0,2.7-3.283Zm-1.163,16.721V161.2h-4.365v-8.028Zm12.569-16.721a2.06,2.06,0,1,1,2.06,2.06A2.062,2.062,0,0,1,135.29,136.453Zm-4.163,16.721V161.2h-4.365v-8.028Zm-4.243-16.721a2.06,2.06,0,1,1,2.06,2.06A2.062,2.062,0,0,1,126.884,136.453Zm-3.01,7.442h10.139v3.373H123.875Zm-3.336-5.382a2.06,2.06,0,1,1,2.06-2.06A2.062,2.062,0,0,1,120.538,138.512Z" transform="translate(-113.306 -121.672)" fill="#a854f3"/>
        <path id="Trazado_879982" data-name="Trazado 879982" d="M342.58,378.824h-1.055a.643.643,0,1,0,0,1.286h1.055a.643.643,0,0,0,0-1.286Z" transform="translate(-317.89 -346.28)" fill="#a854f3"/>
        <path id="Trazado_879983" data-name="Trazado 879983" d="M342.58,405.928h-1.055a.643.643,0,1,0,0,1.286h1.055a.643.643,0,0,0,0-1.286Z" transform="translate(-317.89 -371.055)" fill="#a854f3"/>
        <path id="Trazado_879984" data-name="Trazado 879984" d="M342.58,433.033h-1.055a.643.643,0,1,0,0,1.286h1.055a.643.643,0,0,0,0-1.286Z" transform="translate(-317.89 -395.832)" fill="#a854f3"/>
      </g>
    </g>
  </g>
</svg>
