<svg xmlns="http://www.w3.org/2000/svg" width="475.813" height="222.531" viewBox="0 0 475.813 222.531">
  <g id="Grupo_1103358" data-name="Grupo 1103358" transform="translate(4217.813 8113.531)">
    <g id="Grupo_1103353" data-name="Grupo 1103353" transform="translate(5831.494 -11670) rotate(-90)">
      <path id="Trazado_879205" data-name="Trazado 879205" d="M-3820-9939.078v24.418" transform="translate(121 112.205)" fill="none" stroke="#0b47db" stroke-linecap="round" stroke-width="3"/>
      <path id="Trazado_879204" data-name="Trazado 879204" d="M10,0V10H0Z" transform="translate(-3699 -9811.637) rotate(45)" fill="#0b47db"/>
    </g>
    <g id="Grupo_1103354" data-name="Grupo 1103354" transform="translate(5699.494 -11670) rotate(-90)">
      <path id="Trazado_879205-2" data-name="Trazado 879205" d="M-3820-9939.078v113.352" transform="translate(121 23.271)" fill="none" stroke="#0b47db" stroke-linecap="round" stroke-width="3"/>
      <path id="Trazado_879204-2" data-name="Trazado 879204" d="M10,0V10H0Z" transform="translate(-3699 -9811.637) rotate(45)" fill="#0b47db"/>
    </g>
    <g id="Grupo_1103355" data-name="Grupo 1103355" transform="translate(5699.494 -11729.5) rotate(-90)">
      <path id="Trazado_879205-3" data-name="Trazado 879205" d="M-3820-9939.078v113.352" transform="translate(121 23.271)" fill="none" stroke="#0b47db" stroke-linecap="round" stroke-width="3"/>
      <path id="Trazado_879204-3" data-name="Trazado 879204" d="M10,0V10H0Z" transform="translate(-3699 -9811.637) rotate(45)" fill="#0b47db"/>
    </g>
    <rect id="Rectángulo_403649" data-name="Rectángulo 403649" width="102" height="40" rx="10" transform="translate(-4098 -8051)" fill="#debefb"/>
    <rect id="Rectángulo_403650" data-name="Rectángulo 403650" width="102" height="40" rx="10" transform="translate(-4098 -7991)" fill="#debefb"/>
    <rect id="Rectángulo_403652" data-name="Rectángulo 403652" width="102" height="40" rx="10" transform="translate(-3966 -7991)" fill="#debefb"/>
    <rect id="Rectángulo_403653" data-name="Rectángulo 403653" width="102" height="40" rx="10" transform="translate(-3844 -8051)" fill="#debefb"/>
    <rect id="Rectángulo_403654" data-name="Rectángulo 403654" width="102" height="40" rx="10" transform="translate(-3844 -7931)" fill="#debefb"/>
    <rect id="Rectángulo_403651" data-name="Rectángulo 403651" width="102" height="40" rx="10" transform="translate(-4098 -7931)" fill="#debefb"/>
    <path id="Trazado_880538" data-name="Trazado 880538" d="M24.785,15H22.5L24.152,3.625h2.281Zm5.258-7.266a3.689,3.689,0,0,1,1.176-.992,3.048,3.048,0,0,1,1.441-.352,2.151,2.151,0,0,1,1.863.832,3.572,3.572,0,0,1,.355,2.6L34.129,15H31.84l.75-5.172a1.9,1.9,0,0,0-.125-1.3,1.022,1.022,0,0,0-.9-.367,2.122,2.122,0,0,0-1.641.742L29.043,15H26.762l1.227-8.453h2.125ZM40.051,4.477l-.3,2.07h1.43l-.234,1.6H39.52l-.625,4.3a.887.887,0,0,0,.1.711.65.65,0,0,0,.52.2,2.284,2.284,0,0,0,.313-.02,2.514,2.514,0,0,0,.313-.066L40.09,14.93a5.04,5.04,0,0,1-.7.176,4.184,4.184,0,0,1-.719.059,2.116,2.116,0,0,1-1.711-.656,2.538,2.538,0,0,1-.352-2.047l.625-4.312H36l.234-1.6h1.227l.3-2.07Z" transform="translate(-4078 -8040)" fill="#12263f"/>
    <path id="Trazado_880532" data-name="Trazado 880532" d="M11.367,9.93A7.053,7.053,0,0,1,8.559,8.566a2.6,2.6,0,0,1-.879-2A2.751,2.751,0,0,1,8.754,4.348a4.269,4.269,0,0,1,2.793-.879,4.66,4.66,0,0,1,2.09.453,3.436,3.436,0,0,1,1.422,1.25,3.2,3.2,0,0,1,.5,1.742H14.055A2.08,2.08,0,0,0,13.4,5.287,2.669,2.669,0,0,0,11.547,4.7a2.732,2.732,0,0,0-1.73.489A1.632,1.632,0,0,0,9.2,6.542a1.468,1.468,0,0,0,.59,1.178,5.785,5.785,0,0,0,2.008.88,9.316,9.316,0,0,1,2.219.88A3.367,3.367,0,0,1,15.2,10.6a2.861,2.861,0,0,1,.387,1.508,2.658,2.658,0,0,1-1.078,2.215,4.6,4.6,0,0,1-2.883.832,5.347,5.347,0,0,1-2.187-.449,3.681,3.681,0,0,1-1.566-1.23A3,3,0,0,1,7.32,11.7H8.828a1.959,1.959,0,0,0,.762,1.629,3.207,3.207,0,0,0,2.035.6,2.948,2.948,0,0,0,1.82-.484,1.573,1.573,0,0,0,.633-1.32,1.545,1.545,0,0,0-.586-1.293A6.755,6.755,0,0,0,11.367,9.93Zm9.422,5.227a3.693,3.693,0,0,1-2.8-1.129,4.19,4.19,0,0,1-1.078-3.02v-.266a5.073,5.073,0,0,1,.48-2.246,3.748,3.748,0,0,1,1.344-1.547,3.378,3.378,0,0,1,1.871-.559,3.166,3.166,0,0,1,2.563,1.086,4.7,4.7,0,0,1,.914,3.109v.6H18.359a3,3,0,0,0,.73,2.02,2.3,2.3,0,0,0,1.777.77,2.517,2.517,0,0,0,1.3-.312,3.259,3.259,0,0,0,.93-.828l.883.688A3.55,3.55,0,0,1,20.789,15.156Zm-.18-7.578a1.928,1.928,0,0,0-1.469.637A3.1,3.1,0,0,0,18.406,10h4.234V9.891a2.753,2.753,0,0,0-.594-1.707A1.815,1.815,0,0,0,20.609,7.578ZM31.289,15H29.844V6.547h1.445ZM29.727,4.3a.863.863,0,0,1,.215-.594.807.807,0,0,1,.637-.242.819.819,0,0,1,.641.242.854.854,0,0,1,.219.594.826.826,0,0,1-.219.586.834.834,0,0,1-.641.234.821.821,0,0,1-.637-.234A.834.834,0,0,1,29.727,4.3Zm5.242,2.242.047,1.063a3.08,3.08,0,0,1,2.531-1.219q2.68,0,2.7,3.023V15H38.8V9.406a1.946,1.946,0,0,0-.418-1.352,1.675,1.675,0,0,0-1.277-.437,2.086,2.086,0,0,0-1.234.375,2.546,2.546,0,0,0-.828.984V15H33.6V6.547Zm12.383,6.211a1.064,1.064,0,0,0-.441-.91,4.249,4.249,0,0,0-1.539-.559,7.277,7.277,0,0,1-1.742-.562,2.479,2.479,0,0,1-.953-.781,1.869,1.869,0,0,1-.309-1.078,2.193,2.193,0,0,1,.879-1.758,3.432,3.432,0,0,1,2.246-.719,3.532,3.532,0,0,1,2.332.742,2.357,2.357,0,0,1,.895,1.9H47.266a1.3,1.3,0,0,0-.5-1.023,1.888,1.888,0,0,0-1.27-.43,1.976,1.976,0,0,0-1.234.344,1.082,1.082,0,0,0-.445.9.877.877,0,0,0,.414.789,5.1,5.1,0,0,0,1.5.508,7.8,7.8,0,0,1,1.754.578,2.558,2.558,0,0,1,1,.809,1.988,1.988,0,0,1,.324,1.152,2.163,2.163,0,0,1-.906,1.816,3.8,3.8,0,0,1-2.352.684,4.257,4.257,0,0,1-1.8-.359,2.922,2.922,0,0,1-1.223-1,2.42,2.42,0,0,1-.441-1.395h1.445a1.5,1.5,0,0,0,.582,1.152,2.258,2.258,0,0,0,1.434.426,2.331,2.331,0,0,0,1.316-.332A1.02,1.02,0,0,0,47.352,12.758ZM52.641,4.5V6.547h1.578V7.664H52.641v5.249a1.173,1.173,0,0,0,.211.763.888.888,0,0,0,.719.254,3.5,3.5,0,0,0,.688-.094V15a4.215,4.215,0,0,1-1.109.155,1.8,1.8,0,0,1-1.461-.586,2.517,2.517,0,0,1-.492-1.664V7.664H49.656V6.547H51.2V4.5ZM61.125,15a3.036,3.036,0,0,1-.2-.891,3.225,3.225,0,0,1-2.406,1.047,2.984,2.984,0,0,1-2.051-.707,2.287,2.287,0,0,1-.8-1.793,2.39,2.39,0,0,1,1-2.051,4.733,4.733,0,0,1,2.824-.73H60.9V9.211A1.623,1.623,0,0,0,60.445,8a1.821,1.821,0,0,0-1.336-.449,2.107,2.107,0,0,0-1.3.391,1.151,1.151,0,0,0-.523.945H55.836a2,2,0,0,1,.449-1.223A3.066,3.066,0,0,1,57.5,6.734,4.1,4.1,0,0,1,59.2,6.391a3.342,3.342,0,0,1,2.289.73,2.635,2.635,0,0,1,.859,2.012v3.891a4.757,4.757,0,0,0,.3,1.852V15Zm-2.4-1.1a2.54,2.54,0,0,0,1.289-.352,2.127,2.127,0,0,0,.883-.914V10.9H59.766q-2.656,0-2.656,1.555a1.316,1.316,0,0,0,.453,1.063A1.742,1.742,0,0,0,58.727,13.9Zm7.25-7.352.047,1.063a3.08,3.08,0,0,1,2.531-1.219q2.68,0,2.7,3.023V15H69.813V9.406a1.946,1.946,0,0,0-.418-1.352,1.675,1.675,0,0,0-1.277-.437,2.086,2.086,0,0,0-1.234.375,2.546,2.546,0,0,0-.828.984V15H64.609V6.547Zm10.852,7.43a2.082,2.082,0,0,0,1.352-.469,1.649,1.649,0,0,0,.641-1.172h1.367a2.621,2.621,0,0,1-.5,1.383,3.293,3.293,0,0,1-1.23,1.047,3.55,3.55,0,0,1-1.629.391A3.482,3.482,0,0,1,74.082,14a4.59,4.59,0,0,1-1.02-3.152v-.242a5.089,5.089,0,0,1,.453-2.2,3.451,3.451,0,0,1,1.3-1.492,3.7,3.7,0,0,1,2-.531,3.39,3.39,0,0,1,2.363.852,3.043,3.043,0,0,1,1,2.211H78.82A1.992,1.992,0,0,0,78.2,8.105a1.932,1.932,0,0,0-1.379-.527,2.023,2.023,0,0,0-1.707.793,3.724,3.724,0,0,0-.605,2.293v.273a3.65,3.65,0,0,0,.6,2.25A2.033,2.033,0,0,0,76.828,13.977ZM83.383,15H81.938V6.547h1.445ZM81.82,4.3a.863.863,0,0,1,.215-.594.807.807,0,0,1,.637-.242.819.819,0,0,1,.641.242.854.854,0,0,1,.219.594.826.826,0,0,1-.219.586.834.834,0,0,1-.641.234.821.821,0,0,1-.637-.234A.834.834,0,0,1,81.82,4.3ZM90.914,15a3.036,3.036,0,0,1-.2-.891A3.225,3.225,0,0,1,88.3,15.156a2.984,2.984,0,0,1-2.051-.707,2.288,2.288,0,0,1-.8-1.793,2.39,2.39,0,0,1,1-2.051,4.733,4.733,0,0,1,2.824-.73h1.406V9.211A1.623,1.623,0,0,0,90.234,8,1.821,1.821,0,0,0,88.9,7.555a2.108,2.108,0,0,0-1.3.391,1.151,1.151,0,0,0-.523.945H85.625a2,2,0,0,1,.449-1.223,3.066,3.066,0,0,1,1.219-.934,4.1,4.1,0,0,1,1.691-.344,3.342,3.342,0,0,1,2.289.73,2.635,2.635,0,0,1,.859,2.012v3.891a4.757,4.757,0,0,0,.3,1.852V15Zm-2.4-1.1a2.54,2.54,0,0,0,1.289-.352,2.127,2.127,0,0,0,.883-.914V10.9H89.555q-2.656,0-2.656,1.555a1.316,1.316,0,0,0,.453,1.063A1.742,1.742,0,0,0,88.516,13.9ZM24.145,32.156a3.693,3.693,0,0,1-2.8-1.129,4.19,4.19,0,0,1-1.078-3.02v-.266a5.073,5.073,0,0,1,.48-2.246,3.748,3.748,0,0,1,1.344-1.547,3.378,3.378,0,0,1,1.871-.559,3.166,3.166,0,0,1,2.563,1.086,4.7,4.7,0,0,1,.914,3.109v.6H21.715a3,3,0,0,0,.73,2.02,2.3,2.3,0,0,0,1.777.77,2.517,2.517,0,0,0,1.3-.312,3.259,3.259,0,0,0,.93-.828l.883.688A3.55,3.55,0,0,1,24.145,32.156Zm-.18-7.578a1.928,1.928,0,0,0-1.469.637A3.1,3.1,0,0,0,21.762,27H26v-.109a2.753,2.753,0,0,0-.594-1.707A1.815,1.815,0,0,0,23.965,24.578ZM30.684,32H29.238V20h1.445Zm5.891-4.3a4.993,4.993,0,0,1,.488-2.234,3.643,3.643,0,0,1,1.359-1.531,3.7,3.7,0,0,1,1.988-.539,3.565,3.565,0,0,1,2.793,1.2,4.6,4.6,0,0,1,1.066,3.18v.1a5.036,5.036,0,0,1-.473,2.215,3.589,3.589,0,0,1-1.352,1.527,3.743,3.743,0,0,1-2.02.547,3.556,3.556,0,0,1-2.785-1.2A4.575,4.575,0,0,1,36.574,27.8Zm1.453.172a3.616,3.616,0,0,0,.652,2.258,2.211,2.211,0,0,0,3.5-.012,3.955,3.955,0,0,0,.648-2.418,3.61,3.61,0,0,0-.66-2.254,2.1,2.1,0,0,0-1.754-.863,2.075,2.075,0,0,0-1.727.852A3.925,3.925,0,0,0,38.027,27.867Zm15.211,0a5.026,5.026,0,0,1-.891,3.113,2.846,2.846,0,0,1-2.391,1.176,2.947,2.947,0,0,1-2.477-1.133L47.41,32H46.082V20h1.445v4.477a2.93,2.93,0,0,1,2.414-1.086,2.863,2.863,0,0,1,2.418,1.164,5.177,5.177,0,0,1,.879,3.188ZM51.793,27.7a3.906,3.906,0,0,0-.57-2.281,1.888,1.888,0,0,0-1.641-.8,2.122,2.122,0,0,0-2.055,1.328V29.6A2.181,2.181,0,0,0,49.6,30.93a1.878,1.878,0,0,0,1.617-.8A4.153,4.153,0,0,0,51.793,27.7Zm4.758-4.156v9.43q0,2.438-2.211,2.438a2.7,2.7,0,0,1-.883-.14V34.125a2.794,2.794,0,0,0,.656.063.982.982,0,0,0,.738-.262,1.3,1.3,0,0,0,.254-.911V23.547ZM54.957,21.3a.867.867,0,0,1,.215-.59.79.79,0,0,1,.629-.246.819.819,0,0,1,.641.242.854.854,0,0,1,.219.594.826.826,0,0,1-.219.586.834.834,0,0,1-.641.234.808.808,0,0,1-.633-.234A.843.843,0,0,1,54.957,21.3Zm7.43,10.852a3.693,3.693,0,0,1-2.8-1.129,4.19,4.19,0,0,1-1.078-3.02v-.266a5.073,5.073,0,0,1,.48-2.246,3.748,3.748,0,0,1,1.344-1.547,3.378,3.378,0,0,1,1.871-.559,3.166,3.166,0,0,1,2.563,1.086,4.7,4.7,0,0,1,.914,3.109v.6H59.957a3,3,0,0,0,.73,2.02,2.3,2.3,0,0,0,1.777.77,2.517,2.517,0,0,0,1.3-.312,3.259,3.259,0,0,0,.93-.828l.883.688A3.55,3.55,0,0,1,62.387,32.156Zm-.18-7.578a1.928,1.928,0,0,0-1.469.637A3.1,3.1,0,0,0,60,27h4.234v-.109a2.753,2.753,0,0,0-.594-1.707A1.815,1.815,0,0,0,62.207,24.578ZM69.316,21.5v2.047h1.578v1.117H69.316v5.249a1.173,1.173,0,0,0,.211.763.888.888,0,0,0,.719.254,3.5,3.5,0,0,0,.688-.094V32a4.215,4.215,0,0,1-1.109.155,1.8,1.8,0,0,1-1.461-.586,2.517,2.517,0,0,1-.492-1.664V24.664H66.332V23.547h1.539V21.5Zm2.727,6.2a4.993,4.993,0,0,1,.488-2.234,3.643,3.643,0,0,1,1.359-1.531,3.7,3.7,0,0,1,1.988-.539,3.565,3.565,0,0,1,2.793,1.2,4.6,4.6,0,0,1,1.066,3.18v.1a5.036,5.036,0,0,1-.473,2.215,3.589,3.589,0,0,1-1.352,1.527,3.743,3.743,0,0,1-2.02.547,3.556,3.556,0,0,1-2.785-1.2A4.575,4.575,0,0,1,72.043,27.8Zm1.453.172a3.616,3.616,0,0,0,.652,2.258,2.211,2.211,0,0,0,3.5-.012,3.955,3.955,0,0,0,.648-2.418,3.61,3.61,0,0,0-.66-2.254,2.1,2.1,0,0,0-1.754-.863,2.075,2.075,0,0,0-1.727.852A3.925,3.925,0,0,0,73.5,27.867Z" transform="translate(-4097 -8117)" fill="#12263f"/>
    <path id="Trazado_880533" data-name="Trazado 880533" d="M24.973,10.547V15h-1.5V3.625h4.2a4.215,4.215,0,0,1,2.926.953A3.231,3.231,0,0,1,31.652,7.1a3.189,3.189,0,0,1-1.035,2.551,4.4,4.4,0,0,1-2.965.895Zm0-1.227h2.7a2.7,2.7,0,0,0,1.844-.567,2.075,2.075,0,0,0,.641-1.64,2.143,2.143,0,0,0-.641-1.628,2.525,2.525,0,0,0-1.758-.634H24.973ZM37.426,7.844a4.331,4.331,0,0,0-.711-.055A1.9,1.9,0,0,0,34.785,9v6H33.34V6.547h1.406l.023.977a2.251,2.251,0,0,1,2.016-1.133,1.477,1.477,0,0,1,.641.109ZM40.324,15H38.879V6.547h1.445ZM38.762,4.3a.863.863,0,0,1,.215-.594.807.807,0,0,1,.637-.242.819.819,0,0,1,.641.242.854.854,0,0,1,.219.594.826.826,0,0,1-.219.586.834.834,0,0,1-.641.234.821.821,0,0,1-.637-.234A.834.834,0,0,1,38.762,4.3ZM44,6.547l.039.938a3.122,3.122,0,0,1,2.508-1.094A2.417,2.417,0,0,1,48.957,7.75a3.2,3.2,0,0,1,1.1-.984,3.242,3.242,0,0,1,1.6-.375q2.781,0,2.828,2.945V15H53.035V9.422a1.941,1.941,0,0,0-.414-1.355,1.823,1.823,0,0,0-1.391-.449,1.917,1.917,0,0,0-1.336.48,1.949,1.949,0,0,0-.617,1.293V15H47.824V9.461a1.613,1.613,0,0,0-1.8-1.844,1.934,1.934,0,0,0-1.945,1.211V15H42.629V6.547Zm16.172,8.609a3.693,3.693,0,0,1-2.8-1.129,4.19,4.19,0,0,1-1.078-3.02v-.266a5.073,5.073,0,0,1,.48-2.246,3.748,3.748,0,0,1,1.344-1.547,3.378,3.378,0,0,1,1.871-.559,3.166,3.166,0,0,1,2.563,1.086,4.7,4.7,0,0,1,.914,3.109v.6H57.738a3,3,0,0,0,.73,2.02,2.3,2.3,0,0,0,1.777.77,2.517,2.517,0,0,0,1.3-.312,3.259,3.259,0,0,0,.93-.828l.883.688A3.55,3.55,0,0,1,60.168,15.156Zm-.18-7.578a1.928,1.928,0,0,0-1.469.637A3.1,3.1,0,0,0,57.785,10H62.02V9.891a2.753,2.753,0,0,0-.594-1.707A1.815,1.815,0,0,0,59.988,7.578Zm9.234.266a4.331,4.331,0,0,0-.711-.055A1.9,1.9,0,0,0,66.582,9v6H65.137V6.547h1.406l.023.977a2.251,2.251,0,0,1,2.016-1.133,1.477,1.477,0,0,1,.641.109ZM75.457,15a3.036,3.036,0,0,1-.2-.891,3.225,3.225,0,0,1-2.406,1.047,2.984,2.984,0,0,1-2.051-.707,2.288,2.288,0,0,1-.8-1.793,2.39,2.39,0,0,1,1-2.051,4.733,4.733,0,0,1,2.824-.73H75.23V9.211A1.623,1.623,0,0,0,74.777,8a1.821,1.821,0,0,0-1.336-.449,2.108,2.108,0,0,0-1.3.391,1.151,1.151,0,0,0-.523.945H70.168a2,2,0,0,1,.449-1.223,3.066,3.066,0,0,1,1.219-.934,4.1,4.1,0,0,1,1.691-.344,3.342,3.342,0,0,1,2.289.73,2.635,2.635,0,0,1,.859,2.012v3.891a4.757,4.757,0,0,0,.3,1.852V15Zm-2.4-1.1a2.54,2.54,0,0,0,1.289-.352,2.127,2.127,0,0,0,.883-.914V10.9H74.1q-2.656,0-2.656,1.555a1.316,1.316,0,0,0,.453,1.063A1.742,1.742,0,0,0,73.059,13.9ZM29.848,27.867a5.062,5.062,0,0,1-.883,3.109,2.829,2.829,0,0,1-2.391,1.18,3.1,3.1,0,0,1-2.422-.977v4.07H22.707v-11.7h1.32l.07.938a2.977,2.977,0,0,1,2.453-1.094,2.882,2.882,0,0,1,2.41,1.148,5.117,5.117,0,0,1,.887,3.2ZM28.4,27.7a3.735,3.735,0,0,0-.609-2.258,1.963,1.963,0,0,0-1.672-.828,2.125,2.125,0,0,0-1.969,1.164V29.82a2.129,2.129,0,0,0,1.984,1.156,1.954,1.954,0,0,0,1.652-.824A4.077,4.077,0,0,0,28.4,27.7Zm6.789,4.453a3.693,3.693,0,0,1-2.8-1.129,4.19,4.19,0,0,1-1.078-3.02v-.266A5.073,5.073,0,0,1,31.8,25.5a3.748,3.748,0,0,1,1.344-1.547,3.378,3.378,0,0,1,1.871-.559,3.166,3.166,0,0,1,2.563,1.086,4.7,4.7,0,0,1,.914,3.109v.6H32.762a3,3,0,0,0,.73,2.02,2.3,2.3,0,0,0,1.777.77,2.517,2.517,0,0,0,1.3-.312,3.259,3.259,0,0,0,.93-.828l.883.688A3.55,3.55,0,0,1,35.191,32.156Zm-.18-7.578a1.928,1.928,0,0,0-1.469.637A3.1,3.1,0,0,0,32.809,27h4.234v-.109a2.753,2.753,0,0,0-.594-1.707A1.815,1.815,0,0,0,35.012,24.578ZM42.121,21.5v2.047H43.7v1.117H42.121v5.249a1.173,1.173,0,0,0,.211.763.888.888,0,0,0,.719.254,3.5,3.5,0,0,0,.688-.094V32a4.215,4.215,0,0,1-1.109.155,1.8,1.8,0,0,1-1.461-.586,2.517,2.517,0,0,1-.492-1.664V24.664H39.137V23.547h1.539V21.5ZM46.957,32H45.512V23.547h1.445ZM45.395,21.3a.863.863,0,0,1,.215-.594.807.807,0,0,1,.637-.242.819.819,0,0,1,.641.242.854.854,0,0,1,.219.594.826.826,0,0,1-.219.586.834.834,0,0,1-.641.234.821.821,0,0,1-.637-.234A.834.834,0,0,1,45.395,21.3Zm7.266,9.672a2.082,2.082,0,0,0,1.352-.469,1.649,1.649,0,0,0,.641-1.172H56.02a2.621,2.621,0,0,1-.5,1.383,3.293,3.293,0,0,1-1.23,1.047,3.55,3.55,0,0,1-1.629.391A3.482,3.482,0,0,1,49.914,31a4.59,4.59,0,0,1-1.02-3.152v-.242a5.089,5.089,0,0,1,.453-2.2,3.451,3.451,0,0,1,1.3-1.492,3.7,3.7,0,0,1,2-.531,3.39,3.39,0,0,1,2.363.852,3.043,3.043,0,0,1,1,2.211H54.652a1.992,1.992,0,0,0-.621-1.348,1.932,1.932,0,0,0-1.379-.527,2.023,2.023,0,0,0-1.707.793,3.724,3.724,0,0,0-.605,2.293v.273a3.65,3.65,0,0,0,.6,2.25A2.033,2.033,0,0,0,52.66,30.977ZM59.215,32H57.77V23.547h1.445ZM57.652,21.3a.863.863,0,0,1,.215-.594.807.807,0,0,1,.637-.242.819.819,0,0,1,.641.242.854.854,0,0,1,.219.594.826.826,0,0,1-.219.586.834.834,0,0,1-.641.234.821.821,0,0,1-.637-.234A.834.834,0,0,1,57.652,21.3ZM61.145,27.7a4.993,4.993,0,0,1,.488-2.234,3.643,3.643,0,0,1,1.359-1.531,3.7,3.7,0,0,1,1.988-.539,3.565,3.565,0,0,1,2.793,1.2,4.6,4.6,0,0,1,1.066,3.18v.1a5.036,5.036,0,0,1-.473,2.215,3.589,3.589,0,0,1-1.352,1.527,3.743,3.743,0,0,1-2.02.547,3.556,3.556,0,0,1-2.785-1.2A4.575,4.575,0,0,1,61.145,27.8Zm1.453.172a3.616,3.616,0,0,0,.652,2.258,2.211,2.211,0,0,0,3.5-.012,3.955,3.955,0,0,0,.648-2.418,3.61,3.61,0,0,0-.66-2.254,2.1,2.1,0,0,0-1.754-.863,2.075,2.075,0,0,0-1.727.852A3.925,3.925,0,0,0,62.6,27.867Zm3.039-7.852h1.75l-2.094,2.3-1.164,0Zm6.383,3.531.047,1.063A3.08,3.08,0,0,1,74.6,23.391q2.68,0,2.7,3.023V32H75.855V26.406a1.946,1.946,0,0,0-.418-1.352,1.675,1.675,0,0,0-1.277-.437,2.086,2.086,0,0,0-1.234.375,2.546,2.546,0,0,0-.828.984V32H70.652V23.547Z" transform="translate(-4216 -8074)" fill="#12263f"/>
    <path id="Trazado_880542" data-name="Trazado 880542" d="M12.215,10.055h-4.5v3.063H13V15H5.371V3.625H12.98v1.9H7.715V8.234h4.5Zm4.4-3.508v8.914a3.024,3.024,0,0,1-.742,2.176,2.821,2.821,0,0,1-2.141.777,4.591,4.591,0,0,1-1.117-.133V16.492a4.238,4.238,0,0,0,.711.07q1.023,0,1.023-1.086V6.547ZM14.168,4.359a1.112,1.112,0,0,1,.34-.836,1.47,1.47,0,0,1,1.852,0,1.112,1.112,0,0,1,.34.836,1.108,1.108,0,0,1-.348.844,1.448,1.448,0,0,1-1.836,0A1.108,1.108,0,0,1,14.168,4.359Zm8.1,10.8a4.15,4.15,0,0,1-3.027-1.141,4.054,4.054,0,0,1-1.168-3.039v-.219a5.106,5.106,0,0,1,.492-2.277,3.612,3.612,0,0,1,1.395-1.547,3.914,3.914,0,0,1,2.059-.543,3.508,3.508,0,0,1,2.73,1.094,4.444,4.444,0,0,1,1,3.1v.922H20.363a2.1,2.1,0,0,0,.66,1.328,2,2,0,0,0,1.395.5,2.437,2.437,0,0,0,2.039-.945l1.109,1.242a3.389,3.389,0,0,1-1.375,1.121A4.511,4.511,0,0,1,22.27,15.156Zm-.258-6.945a1.411,1.411,0,0,0-1.09.455,2.357,2.357,0,0,0-.535,1.3h3.141V9.788a1.681,1.681,0,0,0-.406-1.165A1.456,1.456,0,0,0,22.012,8.211Zm8.531,5.125a1.481,1.481,0,0,0,1.016-.344,1.2,1.2,0,0,0,.406-.914h2.117a2.9,2.9,0,0,1-.469,1.574,3.093,3.093,0,0,1-1.262,1.109,3.949,3.949,0,0,1-1.77.395A3.67,3.67,0,0,1,27.723,14a4.56,4.56,0,0,1-1.047-3.184v-.148a4.508,4.508,0,0,1,1.039-3.117,3.627,3.627,0,0,1,2.852-1.164,3.555,3.555,0,0,1,2.543.9,3.2,3.2,0,0,1,.973,2.4H31.965a1.551,1.551,0,0,0-.406-1.072,1.51,1.51,0,0,0-2.223.163,3.333,3.333,0,0,0-.4,1.866v.235a3.375,3.375,0,0,0,.4,1.878A1.377,1.377,0,0,0,30.543,13.336Zm9.891.8a2.831,2.831,0,0,1-2.312,1.016,2.67,2.67,0,0,1-2.074-.781,3.335,3.335,0,0,1-.73-2.289V6.547h2.258v5.467q0,1.322,1.2,1.322a1.63,1.63,0,0,0,1.578-.8V6.547h2.266V15H40.5Zm7.406-.8a1.481,1.481,0,0,0,1.016-.344,1.2,1.2,0,0,0,.406-.914h2.117a2.9,2.9,0,0,1-.469,1.574,3.093,3.093,0,0,1-1.262,1.109,3.949,3.949,0,0,1-1.77.395A3.67,3.67,0,0,1,45.02,14a4.56,4.56,0,0,1-1.047-3.184v-.148a4.508,4.508,0,0,1,1.039-3.117,3.627,3.627,0,0,1,2.852-1.164,3.555,3.555,0,0,1,2.543.9,3.2,3.2,0,0,1,.973,2.4H49.262a1.551,1.551,0,0,0-.406-1.072,1.51,1.51,0,0,0-2.223.163,3.333,3.333,0,0,0-.4,1.866v.235a3.375,3.375,0,0,0,.4,1.878A1.377,1.377,0,0,0,47.84,13.336ZM55.051,15H52.785V6.547h2.266Zm-2.4-10.641a1.112,1.112,0,0,1,.34-.836,1.465,1.465,0,0,1,1.848,0,1.105,1.105,0,0,1,.344.836,1.108,1.108,0,0,1-.348.844A1.448,1.448,0,0,1,53,5.2,1.108,1.108,0,0,1,52.652,4.359ZM56.559,10.7a5.013,5.013,0,0,1,.484-2.242A3.546,3.546,0,0,1,58.438,6.93a4.069,4.069,0,0,1,2.113-.539,3.849,3.849,0,0,1,2.793,1.047,4.2,4.2,0,0,1,1.207,2.844l.016.578A4.418,4.418,0,0,1,63.48,13.98a4.209,4.209,0,0,1-5.832,0,4.5,4.5,0,0,1-1.09-3.187Zm2.258.16A3.16,3.16,0,0,0,59.27,12.7a1.628,1.628,0,0,0,2.578.008,3.457,3.457,0,0,0,.461-2.015,3.128,3.128,0,0,0-.461-1.831,1.5,1.5,0,0,0-1.3-.649,1.474,1.474,0,0,0-1.281.646A3.516,3.516,0,0,0,58.816,10.856ZM61,3h2.461L61.293,5.422H59.457Zm7.039,3.547.07.977a2.951,2.951,0,0,1,2.43-1.133,2.453,2.453,0,0,1,2,.789,3.682,3.682,0,0,1,.672,2.359V15H70.949V9.581a1.47,1.47,0,0,0-.312-1.045A1.4,1.4,0,0,0,69.6,8.211a1.553,1.553,0,0,0-1.43.814V15H65.91V6.547Zm14.758,8.609a4.15,4.15,0,0,1-3.027-1.141A4.054,4.054,0,0,1,78.6,10.977v-.219A5.106,5.106,0,0,1,79.09,8.48a3.612,3.612,0,0,1,1.395-1.547,3.914,3.914,0,0,1,2.059-.543,3.508,3.508,0,0,1,2.73,1.094,4.444,4.444,0,0,1,1,3.1v.922H80.887a2.1,2.1,0,0,0,.66,1.328,2,2,0,0,0,1.395.5,2.437,2.437,0,0,0,2.039-.945l1.109,1.242a3.389,3.389,0,0,1-1.375,1.121A4.511,4.511,0,0,1,82.793,15.156Zm-.258-6.945a1.411,1.411,0,0,0-1.09.455,2.357,2.357,0,0,0-.535,1.3h3.141V9.788a1.681,1.681,0,0,0-.406-1.165A1.456,1.456,0,0,0,82.535,8.211Zm7.094-1.664.07.977a2.951,2.951,0,0,1,2.43-1.133,2.453,2.453,0,0,1,2,.789A3.682,3.682,0,0,1,94.8,9.539V15H92.543V9.581a1.47,1.47,0,0,0-.312-1.045,1.4,1.4,0,0,0-1.039-.325,1.553,1.553,0,0,0-1.43.814V15H87.5V6.547Zm-69.8,24.594a2.831,2.831,0,0,1-2.312,1.016,2.67,2.67,0,0,1-2.074-.781,3.335,3.335,0,0,1-.73-2.289V23.547h2.258v5.467q0,1.322,1.2,1.322a1.63,1.63,0,0,0,1.578-.8V23.547h2.266V32H19.887Zm5.969-7.594.07.977a2.951,2.951,0,0,1,2.43-1.133,2.453,2.453,0,0,1,2,.789,3.682,3.682,0,0,1,.672,2.359V32H28.707V26.581a1.47,1.47,0,0,0-.312-1.045,1.4,1.4,0,0,0-1.039-.325,1.553,1.553,0,0,0-1.43.814V32H23.668V23.547ZM44.9,22.523H41.418V32H39.074V22.523H35.637v-1.9H44.9Zm3.391,1.945a2.818,2.818,0,0,1,2.258-1.078q2.75,0,2.789,3.2V32H51.082V26.636a1.577,1.577,0,0,0-.312-1.077,1.338,1.338,0,0,0-1.039-.348,1.536,1.536,0,0,0-1.437.767V32H46.035V20h2.258Zm11.5,1.2a6.134,6.134,0,0,0-.812-.062,1.654,1.654,0,0,0-1.68.867V32H55.043V23.547h2.133l.063,1.008a2.092,2.092,0,0,1,1.883-1.164,2.366,2.366,0,0,1,.7.1Zm4.828,6.492a4.15,4.15,0,0,1-3.027-1.141,4.054,4.054,0,0,1-1.168-3.039v-.219a5.106,5.106,0,0,1,.492-2.277,3.612,3.612,0,0,1,1.395-1.547,3.914,3.914,0,0,1,2.059-.543,3.508,3.508,0,0,1,2.73,1.094,4.444,4.444,0,0,1,1,3.1v.922H62.715a2.1,2.1,0,0,0,.66,1.328,2,2,0,0,0,1.395.5,2.437,2.437,0,0,0,2.039-.945l1.109,1.242a3.389,3.389,0,0,1-1.375,1.121A4.511,4.511,0,0,1,64.621,32.156Zm-.258-6.945a1.411,1.411,0,0,0-1.09.455,2.357,2.357,0,0,0-.535,1.3h3.141v-.181a1.681,1.681,0,0,0-.406-1.165A1.456,1.456,0,0,0,64.363,25.211ZM74.277,32a2.507,2.507,0,0,1-.227-.758,2.732,2.732,0,0,1-2.133.914,3,3,0,0,1-2.059-.719,2.312,2.312,0,0,1-.816-1.812,2.389,2.389,0,0,1,1-2.062,4.915,4.915,0,0,1,2.879-.727h1.039v-.484a1.393,1.393,0,0,0-.3-.937,1.183,1.183,0,0,0-.949-.352,1.345,1.345,0,0,0-.895.273.929.929,0,0,0-.324.75H69.23a2.268,2.268,0,0,1,.453-1.359,3,3,0,0,1,1.281-.98,4.669,4.669,0,0,1,1.859-.355,3.689,3.689,0,0,1,2.48.785,2.747,2.747,0,0,1,.918,2.207v3.664a4.041,4.041,0,0,0,.336,1.82V32ZM72.41,30.43a1.945,1.945,0,0,0,.922-.223,1.462,1.462,0,0,0,.625-.6V28.156h-.844q-1.7,0-1.8,1.172l-.008.133a.9.9,0,0,0,.3.7A1.153,1.153,0,0,0,72.41,30.43Zm5.2-2.719a5.094,5.094,0,0,1,.887-3.148,2.877,2.877,0,0,1,2.426-1.172,2.589,2.589,0,0,1,2.039.922V20h2.266V32H83.184l-.109-.9A2.657,2.657,0,0,1,80.9,32.156a2.869,2.869,0,0,1-2.395-1.176A5.258,5.258,0,0,1,77.605,27.711Zm2.258.161a3.355,3.355,0,0,0,.414,1.829,1.348,1.348,0,0,0,1.2.636,1.51,1.51,0,0,0,1.477-.887V26.1a1.489,1.489,0,0,0-1.461-.887Q79.863,25.211,79.863,27.872Z" transform="translate(-3965 -8092)" fill="#12263f"/>
    <path id="Trazado_880534" data-name="Trazado 880534" d="M17.516,9.93a7.053,7.053,0,0,1-2.809-1.363,2.6,2.6,0,0,1-.879-2A2.751,2.751,0,0,1,14.9,4.348,4.269,4.269,0,0,1,17.7,3.469a4.66,4.66,0,0,1,2.09.453,3.436,3.436,0,0,1,1.422,1.25,3.2,3.2,0,0,1,.5,1.742H20.2a2.08,2.08,0,0,0-.656-1.627A2.669,2.669,0,0,0,17.7,4.7a2.732,2.732,0,0,0-1.73.489,1.632,1.632,0,0,0-.621,1.358,1.468,1.468,0,0,0,.59,1.178,5.785,5.785,0,0,0,2.008.88,9.316,9.316,0,0,1,2.219.88A3.367,3.367,0,0,1,21.348,10.6a2.861,2.861,0,0,1,.387,1.508,2.658,2.658,0,0,1-1.078,2.215,4.6,4.6,0,0,1-2.883.832,5.347,5.347,0,0,1-2.187-.449,3.681,3.681,0,0,1-1.566-1.23,3,3,0,0,1-.551-1.773h1.508a1.959,1.959,0,0,0,.762,1.629,3.207,3.207,0,0,0,2.035.6,2.948,2.948,0,0,0,1.82-.484,1.573,1.573,0,0,0,.633-1.32,1.545,1.545,0,0,0-.586-1.293A6.755,6.755,0,0,0,17.516,9.93ZM25,15H23.555V6.547H25ZM23.438,4.3a.863.863,0,0,1,.215-.594.807.807,0,0,1,.637-.242.819.819,0,0,1,.641.242.854.854,0,0,1,.219.594.826.826,0,0,1-.219.586.834.834,0,0,1-.641.234.821.821,0,0,1-.637-.234A.834.834,0,0,1,23.438,4.3Zm3.531,6.4a4.968,4.968,0,0,1,.914-3.145,3.151,3.151,0,0,1,4.836-.074l.07-.937h1.32V14.8a3.439,3.439,0,0,1-.973,2.586,3.589,3.589,0,0,1-2.613.945,4.348,4.348,0,0,1-1.789-.391,3.08,3.08,0,0,1-1.336-1.07l.75-.867a2.826,2.826,0,0,0,2.273,1.148,2.214,2.214,0,0,0,1.645-.594,2.269,2.269,0,0,0,.59-1.672v-.727a2.971,2.971,0,0,1-2.367,1,2.887,2.887,0,0,1-2.4-1.2A5.224,5.224,0,0,1,26.969,10.7Zm1.453.164a3.79,3.79,0,0,0,.586,2.246,1.9,1.9,0,0,0,1.641.816,2.117,2.117,0,0,0,2.008-1.242V8.828a2.142,2.142,0,0,0-1.992-1.211,1.921,1.921,0,0,0-1.648.82A4.128,4.128,0,0,0,28.422,10.867Zm13.086,3.3a3.07,3.07,0,0,1-2.477.992,2.628,2.628,0,0,1-2.059-.785,3.4,3.4,0,0,1-.715-2.324v-5.5H37.7v5.461q0,1.922,1.563,1.922a2.163,2.163,0,0,0,2.2-1.234V6.547h1.445V15H41.539ZM46.68,15H45.234V6.547H46.68ZM45.117,4.3a.863.863,0,0,1,.215-.594.807.807,0,0,1,.637-.242.819.819,0,0,1,.641.242.854.854,0,0,1,.219.594.826.826,0,0,1-.219.586.834.834,0,0,1-.641.234.821.821,0,0,1-.637-.234A.834.834,0,0,1,45.117,4.3ZM52.5,15.156a3.693,3.693,0,0,1-2.8-1.129,4.19,4.19,0,0,1-1.078-3.02v-.266a5.073,5.073,0,0,1,.48-2.246,3.748,3.748,0,0,1,1.344-1.547,3.378,3.378,0,0,1,1.871-.559,3.166,3.166,0,0,1,2.563,1.086,4.7,4.7,0,0,1,.914,3.109v.6H50.07a3,3,0,0,0,.73,2.02,2.3,2.3,0,0,0,1.777.77,2.517,2.517,0,0,0,1.3-.312,3.259,3.259,0,0,0,.93-.828l.883.688A3.55,3.55,0,0,1,52.5,15.156Zm-.18-7.578a1.928,1.928,0,0,0-1.469.637A3.1,3.1,0,0,0,50.117,10h4.234V9.891a2.753,2.753,0,0,0-.594-1.707A1.815,1.815,0,0,0,52.32,7.578Zm6.516-1.031.047,1.063a3.08,3.08,0,0,1,2.531-1.219q2.68,0,2.7,3.023V15H62.672V9.406a1.946,1.946,0,0,0-.418-1.352,1.675,1.675,0,0,0-1.277-.437,2.086,2.086,0,0,0-1.234.375,2.546,2.546,0,0,0-.828.984V15H57.469V6.547ZM68.258,4.5V6.547h1.578V7.664H68.258v5.249a1.173,1.173,0,0,0,.211.763.888.888,0,0,0,.719.254,3.5,3.5,0,0,0,.688-.094V15a4.215,4.215,0,0,1-1.109.155A1.8,1.8,0,0,1,67.3,14.57a2.517,2.517,0,0,1-.492-1.664V7.664H65.273V6.547h1.539V4.5Zm6.773,10.656a3.693,3.693,0,0,1-2.8-1.129,4.19,4.19,0,0,1-1.078-3.02v-.266a5.073,5.073,0,0,1,.48-2.246A3.748,3.748,0,0,1,72.98,6.949a3.378,3.378,0,0,1,1.871-.559,3.166,3.166,0,0,1,2.563,1.086,4.7,4.7,0,0,1,.914,3.109v.6H72.6a3,3,0,0,0,.73,2.02,2.3,2.3,0,0,0,1.777.77,2.517,2.517,0,0,0,1.3-.312,3.259,3.259,0,0,0,.93-.828l.883.688A3.55,3.55,0,0,1,75.031,15.156Zm-.18-7.578a1.928,1.928,0,0,0-1.469.637A3.1,3.1,0,0,0,72.648,10h4.234V9.891a2.753,2.753,0,0,0-.594-1.707A1.815,1.815,0,0,0,74.852,7.578Zm10.07,5.18a1.064,1.064,0,0,0-.441-.91,4.249,4.249,0,0,0-1.539-.559,7.277,7.277,0,0,1-1.742-.562,2.479,2.479,0,0,1-.953-.781,1.869,1.869,0,0,1-.309-1.078,2.193,2.193,0,0,1,.879-1.758,3.432,3.432,0,0,1,2.246-.719,3.532,3.532,0,0,1,2.332.742,2.357,2.357,0,0,1,.895,1.9H84.836a1.3,1.3,0,0,0-.5-1.023,1.888,1.888,0,0,0-1.27-.43,1.976,1.976,0,0,0-1.234.344,1.082,1.082,0,0,0-.445.9.877.877,0,0,0,.414.789,5.1,5.1,0,0,0,1.5.508,7.8,7.8,0,0,1,1.754.578,2.558,2.558,0,0,1,1,.809,1.988,1.988,0,0,1,.324,1.152,2.163,2.163,0,0,1-.906,1.816,3.8,3.8,0,0,1-2.352.684,4.257,4.257,0,0,1-1.8-.359,2.922,2.922,0,0,1-1.223-1,2.42,2.42,0,0,1-.441-1.395h1.445a1.5,1.5,0,0,0,.582,1.152,2.258,2.258,0,0,0,1.434.426,2.331,2.331,0,0,0,1.316-.332A1.02,1.02,0,0,0,84.922,12.758ZM21.484,27.867a5.062,5.062,0,0,1-.883,3.109,2.829,2.829,0,0,1-2.391,1.18,3.1,3.1,0,0,1-2.422-.977v4.07H14.344v-11.7h1.32l.07.938a2.977,2.977,0,0,1,2.453-1.094,2.882,2.882,0,0,1,2.41,1.148,5.117,5.117,0,0,1,.887,3.2ZM20.039,27.7a3.735,3.735,0,0,0-.609-2.258,1.963,1.963,0,0,0-1.672-.828,2.125,2.125,0,0,0-1.969,1.164V29.82a2.129,2.129,0,0,0,1.984,1.156,1.954,1.954,0,0,0,1.652-.824A4.077,4.077,0,0,0,20.039,27.7Zm6.789,4.453a3.693,3.693,0,0,1-2.8-1.129,4.19,4.19,0,0,1-1.078-3.02v-.266a5.073,5.073,0,0,1,.48-2.246,3.748,3.748,0,0,1,1.344-1.547,3.378,3.378,0,0,1,1.871-.559,3.166,3.166,0,0,1,2.563,1.086,4.7,4.7,0,0,1,.914,3.109v.6H24.4a3,3,0,0,0,.73,2.02,2.3,2.3,0,0,0,1.777.77,2.517,2.517,0,0,0,1.3-.312,3.259,3.259,0,0,0,.93-.828l.883.688A3.55,3.55,0,0,1,26.828,32.156Zm-.18-7.578a1.928,1.928,0,0,0-1.469.637A3.1,3.1,0,0,0,24.445,27H28.68v-.109a2.753,2.753,0,0,0-.594-1.707A1.815,1.815,0,0,0,26.648,24.578ZM33.758,21.5v2.047h1.578v1.117H33.758v5.249a1.173,1.173,0,0,0,.211.763.888.888,0,0,0,.719.254,3.5,3.5,0,0,0,.688-.094V32a4.215,4.215,0,0,1-1.109.155A1.8,1.8,0,0,1,32.8,31.57a2.517,2.517,0,0,1-.492-1.664V24.664H30.773V23.547h1.539V21.5ZM38.594,32H37.148V23.547h1.445ZM37.031,21.3a.863.863,0,0,1,.215-.594.807.807,0,0,1,.637-.242.819.819,0,0,1,.641.242.854.854,0,0,1,.219.594.826.826,0,0,1-.219.586.834.834,0,0,1-.641.234.821.821,0,0,1-.637-.234A.834.834,0,0,1,37.031,21.3ZM44.3,30.977a2.082,2.082,0,0,0,1.352-.469,1.649,1.649,0,0,0,.641-1.172h1.367a2.621,2.621,0,0,1-.5,1.383,3.293,3.293,0,0,1-1.23,1.047,3.55,3.55,0,0,1-1.629.391A3.482,3.482,0,0,1,41.551,31a4.59,4.59,0,0,1-1.02-3.152v-.242a5.089,5.089,0,0,1,.453-2.2,3.451,3.451,0,0,1,1.3-1.492,3.7,3.7,0,0,1,2-.531,3.39,3.39,0,0,1,2.363.852,3.043,3.043,0,0,1,1,2.211H46.289a1.992,1.992,0,0,0-.621-1.348,1.932,1.932,0,0,0-1.379-.527,2.023,2.023,0,0,0-1.707.793,3.724,3.724,0,0,0-.605,2.293v.273a3.65,3.65,0,0,0,.6,2.25A2.033,2.033,0,0,0,44.3,30.977ZM50.852,32H49.406V23.547h1.445ZM49.289,21.3a.863.863,0,0,1,.215-.594.807.807,0,0,1,.637-.242.819.819,0,0,1,.641.242A.854.854,0,0,1,51,21.3a.826.826,0,0,1-.219.586.834.834,0,0,1-.641.234.821.821,0,0,1-.637-.234A.834.834,0,0,1,49.289,21.3ZM52.781,27.7a4.993,4.993,0,0,1,.488-2.234,3.643,3.643,0,0,1,1.359-1.531,3.7,3.7,0,0,1,1.988-.539,3.565,3.565,0,0,1,2.793,1.2,4.6,4.6,0,0,1,1.066,3.18v.1A5.036,5.036,0,0,1,60,30.082a3.589,3.589,0,0,1-1.352,1.527,3.743,3.743,0,0,1-2.02.547,3.556,3.556,0,0,1-2.785-1.2A4.575,4.575,0,0,1,52.781,27.8Zm1.453.172a3.616,3.616,0,0,0,.652,2.258,2.211,2.211,0,0,0,3.5-.012,3.955,3.955,0,0,0,.648-2.418,3.61,3.61,0,0,0-.66-2.254,2.1,2.1,0,0,0-1.754-.863,2.075,2.075,0,0,0-1.727.852A3.925,3.925,0,0,0,54.234,27.867Zm9.422-4.32.047,1.063a3.08,3.08,0,0,1,2.531-1.219q2.68,0,2.7,3.023V32H67.492V26.406a1.946,1.946,0,0,0-.418-1.352,1.675,1.675,0,0,0-1.277-.437,2.086,2.086,0,0,0-1.234.375,2.547,2.547,0,0,0-.828.984V32H62.289V23.547Zm10.969,8.609a3.693,3.693,0,0,1-2.8-1.129,4.19,4.19,0,0,1-1.078-3.02v-.266a5.073,5.073,0,0,1,.48-2.246,3.748,3.748,0,0,1,1.344-1.547,3.378,3.378,0,0,1,1.871-.559,3.166,3.166,0,0,1,2.563,1.086,4.7,4.7,0,0,1,.914,3.109v.6H72.2a3,3,0,0,0,.73,2.02,2.3,2.3,0,0,0,1.777.77,2.517,2.517,0,0,0,1.3-.312,3.259,3.259,0,0,0,.93-.828l.883.688A3.55,3.55,0,0,1,74.625,32.156Zm-.18-7.578a1.928,1.928,0,0,0-1.469.637A3.1,3.1,0,0,0,72.242,27h4.234v-.109a2.753,2.753,0,0,0-.594-1.707A1.815,1.815,0,0,0,74.445,24.578Zm10.07,5.18a1.064,1.064,0,0,0-.441-.91,4.249,4.249,0,0,0-1.539-.559,7.277,7.277,0,0,1-1.742-.562,2.478,2.478,0,0,1-.953-.781,1.869,1.869,0,0,1-.309-1.078,2.193,2.193,0,0,1,.879-1.758,3.432,3.432,0,0,1,2.246-.719,3.532,3.532,0,0,1,2.332.742,2.357,2.357,0,0,1,.895,1.9H84.43a1.3,1.3,0,0,0-.5-1.023,1.888,1.888,0,0,0-1.27-.43,1.976,1.976,0,0,0-1.234.344,1.082,1.082,0,0,0-.445.9.877.877,0,0,0,.414.789,5.1,5.1,0,0,0,1.5.508,7.8,7.8,0,0,1,1.754.578,2.558,2.558,0,0,1,1,.809,1.988,1.988,0,0,1,.324,1.152,2.163,2.163,0,0,1-.906,1.816,3.8,3.8,0,0,1-2.352.684,4.257,4.257,0,0,1-1.8-.359,2.922,2.922,0,0,1-1.223-1,2.42,2.42,0,0,1-.441-1.395h1.445a1.5,1.5,0,0,0,.582,1.152,2.258,2.258,0,0,0,1.434.426,2.331,2.331,0,0,0,1.316-.332A1.02,1.02,0,0,0,84.516,29.758Z" transform="translate(-4216 -8013)" fill="#12263f"/>
    <path id="Trazado_880535" data-name="Trazado 880535" d="M14.832,9.742H9.9v4.031h5.727V15H8.4V3.625h7.148V4.852H9.9V8.516h4.93ZM18.84,15H17.395V3H18.84ZM28.5,13.977a2.082,2.082,0,0,0,1.352-.469,1.649,1.649,0,0,0,.641-1.172h1.367a2.621,2.621,0,0,1-.5,1.383,3.293,3.293,0,0,1-1.23,1.047,3.55,3.55,0,0,1-1.629.391A3.482,3.482,0,0,1,25.758,14a4.59,4.59,0,0,1-1.02-3.152v-.242a5.089,5.089,0,0,1,.453-2.2,3.451,3.451,0,0,1,1.3-1.492,3.7,3.7,0,0,1,2-.531,3.39,3.39,0,0,1,2.363.852,3.043,3.043,0,0,1,1,2.211H30.5a1.992,1.992,0,0,0-.621-1.348A1.932,1.932,0,0,0,28.5,7.578a2.023,2.023,0,0,0-1.707.793,3.724,3.724,0,0,0-.605,2.293v.273a3.65,3.65,0,0,0,.6,2.25A2.033,2.033,0,0,0,28.5,13.977Zm4.6-3.281a4.993,4.993,0,0,1,.488-2.234A3.643,3.643,0,0,1,34.953,6.93a3.7,3.7,0,0,1,1.988-.539,3.565,3.565,0,0,1,2.793,1.2,4.6,4.6,0,0,1,1.066,3.18v.1a5.036,5.036,0,0,1-.473,2.215,3.589,3.589,0,0,1-1.352,1.527,3.743,3.743,0,0,1-2.02.547,3.556,3.556,0,0,1-2.785-1.2A4.575,4.575,0,0,1,33.105,10.8Zm1.453.172a3.616,3.616,0,0,0,.652,2.258,2.211,2.211,0,0,0,3.5-.012,3.955,3.955,0,0,0,.648-2.418,3.61,3.61,0,0,0-.66-2.254,2.1,2.1,0,0,0-1.754-.863,2.075,2.075,0,0,0-1.727.852A3.925,3.925,0,0,0,34.559,10.867Zm9.422-4.32.047,1.063a3.08,3.08,0,0,1,2.531-1.219q2.68,0,2.7,3.023V15H47.816V9.406A1.946,1.946,0,0,0,47.4,8.055a1.675,1.675,0,0,0-1.277-.437,2.086,2.086,0,0,0-1.234.375,2.546,2.546,0,0,0-.828.984V15H42.613V6.547ZM53.4,4.5V6.547H54.98V7.664H53.4v5.249a1.173,1.173,0,0,0,.211.763.888.888,0,0,0,.719.254,3.5,3.5,0,0,0,.688-.094V15a4.215,4.215,0,0,1-1.109.155,1.8,1.8,0,0,1-1.461-.586,2.517,2.517,0,0,1-.492-1.664V7.664H50.418V6.547h1.539V4.5Zm6.773,10.656a3.693,3.693,0,0,1-2.8-1.129,4.19,4.19,0,0,1-1.078-3.02v-.266a5.073,5.073,0,0,1,.48-2.246,3.748,3.748,0,0,1,1.344-1.547A3.378,3.378,0,0,1,60,6.391a3.166,3.166,0,0,1,2.563,1.086,4.7,4.7,0,0,1,.914,3.109v.6H57.746a3,3,0,0,0,.73,2.02,2.3,2.3,0,0,0,1.777.77,2.517,2.517,0,0,0,1.3-.312,3.259,3.259,0,0,0,.93-.828l.883.688A3.55,3.55,0,0,1,60.176,15.156ZM60,7.578a1.928,1.928,0,0,0-1.469.637A3.1,3.1,0,0,0,57.793,10h4.234V9.891a2.753,2.753,0,0,0-.594-1.707A1.815,1.815,0,0,0,60,7.578Zm6.516-1.031.047,1.063A3.08,3.08,0,0,1,69.09,6.391q2.68,0,2.7,3.023V15H70.348V9.406a1.946,1.946,0,0,0-.418-1.352,1.675,1.675,0,0,0-1.277-.437,2.086,2.086,0,0,0-1.234.375,2.546,2.546,0,0,0-.828.984V15H65.145V6.547ZM77.48,15.156a3.693,3.693,0,0,1-2.8-1.129,4.19,4.19,0,0,1-1.078-3.02v-.266a5.073,5.073,0,0,1,.48-2.246A3.748,3.748,0,0,1,75.43,6.949,3.378,3.378,0,0,1,77.3,6.391a3.166,3.166,0,0,1,2.563,1.086,4.7,4.7,0,0,1,.914,3.109v.6H75.051a3,3,0,0,0,.73,2.02,2.3,2.3,0,0,0,1.777.77,2.517,2.517,0,0,0,1.3-.312,3.259,3.259,0,0,0,.93-.828l.883.688A3.55,3.55,0,0,1,77.48,15.156ZM77.3,7.578a1.928,1.928,0,0,0-1.469.637A3.1,3.1,0,0,0,75.1,10h4.234V9.891a2.753,2.753,0,0,0-.594-1.707A1.815,1.815,0,0,0,77.3,7.578ZM82.1,10.7a4.952,4.952,0,0,1,.922-3.129,3.137,3.137,0,0,1,4.766-.168V3H89.23V15H87.9l-.07-.906a2.943,2.943,0,0,1-2.414,1.063,2.887,2.887,0,0,1-2.395-1.2,5.008,5.008,0,0,1-.926-3.141Zm1.445.164a3.749,3.749,0,0,0,.594,2.25,1.92,1.92,0,0,0,1.641.813A2.108,2.108,0,0,0,87.785,12.7V8.813a2.125,2.125,0,0,0-1.992-1.2,1.929,1.929,0,0,0-1.656.82A4.128,4.128,0,0,0,83.543,10.867ZM91.09,10.7a4.993,4.993,0,0,1,.488-2.234A3.643,3.643,0,0,1,92.938,6.93a3.7,3.7,0,0,1,1.988-.539,3.565,3.565,0,0,1,2.793,1.2,4.6,4.6,0,0,1,1.066,3.18v.1a5.036,5.036,0,0,1-.473,2.215,3.589,3.589,0,0,1-1.352,1.527,3.743,3.743,0,0,1-2.02.547,3.556,3.556,0,0,1-2.785-1.2A4.575,4.575,0,0,1,91.09,10.8Zm1.453.172a3.616,3.616,0,0,0,.652,2.258,2.211,2.211,0,0,0,3.5-.012A3.955,3.955,0,0,0,97.34,10.7a3.61,3.61,0,0,0-.66-2.254,2.1,2.1,0,0,0-1.754-.863A2.075,2.075,0,0,0,93.2,8.43,3.925,3.925,0,0,0,92.543,10.867Zm12.141-3.023a4.331,4.331,0,0,0-.711-.055A1.9,1.9,0,0,0,102.043,9v6H100.6V6.547H102l.023.977a2.251,2.251,0,0,1,2.016-1.133,1.477,1.477,0,0,1,.641.109ZM6.184,32H4.738V20H6.184Zm3.883,0H8.621V23.547h1.445ZM8.5,21.3a.863.863,0,0,1,.215-.594.807.807,0,0,1,.637-.242.819.819,0,0,1,.641.242.854.854,0,0,1,.219.594.826.826,0,0,1-.219.586.834.834,0,0,1-.641.234.821.821,0,0,1-.637-.234A.834.834,0,0,1,8.5,21.3Zm11.031,6.563a5.026,5.026,0,0,1-.891,3.113,2.846,2.846,0,0,1-2.391,1.176,2.947,2.947,0,0,1-2.477-1.133l-.07.977H12.379V20h1.445v4.477a2.93,2.93,0,0,1,2.414-1.086,2.863,2.863,0,0,1,2.418,1.164,5.177,5.177,0,0,1,.879,3.188ZM18.09,27.7a3.906,3.906,0,0,0-.57-2.281,1.888,1.888,0,0,0-1.641-.8,2.122,2.122,0,0,0-2.055,1.328V29.6a2.181,2.181,0,0,0,2.07,1.328,1.878,1.878,0,0,0,1.617-.8A4.153,4.153,0,0,0,18.09,27.7Zm6.773,4.453a3.693,3.693,0,0,1-2.8-1.129,4.19,4.19,0,0,1-1.078-3.02v-.266a5.073,5.073,0,0,1,.48-2.246,3.748,3.748,0,0,1,1.344-1.547,3.378,3.378,0,0,1,1.871-.559,3.166,3.166,0,0,1,2.563,1.086,4.7,4.7,0,0,1,.914,3.109v.6H22.434a3,3,0,0,0,.73,2.02,2.3,2.3,0,0,0,1.777.77,2.517,2.517,0,0,0,1.3-.312,3.259,3.259,0,0,0,.93-.828l.883.688A3.55,3.55,0,0,1,24.863,32.156Zm-.18-7.578a1.928,1.928,0,0,0-1.469.637A3.1,3.1,0,0,0,22.48,27h4.234v-.109a2.753,2.753,0,0,0-.594-1.707A1.815,1.815,0,0,0,24.684,24.578Zm9.234.266a4.331,4.331,0,0,0-.711-.055A1.9,1.9,0,0,0,31.277,26v6H29.832V23.547h1.406l.023.977a2.251,2.251,0,0,1,2.016-1.133,1.477,1.477,0,0,1,.641.109ZM40.152,32a3.036,3.036,0,0,1-.2-.891,3.225,3.225,0,0,1-2.406,1.047,2.984,2.984,0,0,1-2.051-.707,2.287,2.287,0,0,1-.8-1.793,2.39,2.39,0,0,1,1-2.051,4.733,4.733,0,0,1,2.824-.73h1.406v-.664A1.623,1.623,0,0,0,39.473,25a1.821,1.821,0,0,0-1.336-.449,2.107,2.107,0,0,0-1.3.391,1.151,1.151,0,0,0-.523.945H34.863a2,2,0,0,1,.449-1.223,3.066,3.066,0,0,1,1.219-.934,4.1,4.1,0,0,1,1.691-.344,3.342,3.342,0,0,1,2.289.73,2.635,2.635,0,0,1,.859,2.012v3.891a4.757,4.757,0,0,0,.3,1.852V32Zm-2.4-1.1a2.54,2.54,0,0,0,1.289-.352,2.127,2.127,0,0,0,.883-.914V27.9H38.793q-2.656,0-2.656,1.555a1.316,1.316,0,0,0,.453,1.063A1.742,1.742,0,0,0,37.754,30.9Zm13.93-6.055a4.331,4.331,0,0,0-.711-.055A1.9,1.9,0,0,0,49.043,26v6H47.6V23.547H49l.023.977a2.251,2.251,0,0,1,2.016-1.133,1.477,1.477,0,0,1,.641.109Zm4.688,7.313a3.693,3.693,0,0,1-2.8-1.129,4.19,4.19,0,0,1-1.078-3.02v-.266a5.073,5.073,0,0,1,.48-2.246,3.748,3.748,0,0,1,1.344-1.547,3.378,3.378,0,0,1,1.871-.559,3.166,3.166,0,0,1,2.563,1.086,4.7,4.7,0,0,1,.914,3.109v.6H53.941a3,3,0,0,0,.73,2.02,2.3,2.3,0,0,0,1.777.77,2.517,2.517,0,0,0,1.3-.312,3.259,3.259,0,0,0,.93-.828l.883.688A3.55,3.55,0,0,1,56.371,32.156Zm-.18-7.578a1.928,1.928,0,0,0-1.469.637A3.1,3.1,0,0,0,53.988,27h4.234v-.109a2.753,2.753,0,0,0-.594-1.707A1.815,1.815,0,0,0,56.191,24.578Zm8.539,6.4a2.082,2.082,0,0,0,1.352-.469,1.649,1.649,0,0,0,.641-1.172H68.09a2.621,2.621,0,0,1-.5,1.383,3.293,3.293,0,0,1-1.23,1.047,3.55,3.55,0,0,1-1.629.391A3.482,3.482,0,0,1,61.984,31a4.59,4.59,0,0,1-1.02-3.152v-.242a5.089,5.089,0,0,1,.453-2.2,3.451,3.451,0,0,1,1.3-1.492,3.7,3.7,0,0,1,2-.531,3.39,3.39,0,0,1,2.363.852,3.043,3.043,0,0,1,1,2.211H66.723a1.992,1.992,0,0,0-.621-1.348,1.932,1.932,0,0,0-1.379-.527,2.023,2.023,0,0,0-1.707.793,3.724,3.724,0,0,0-.605,2.293v.273a3.65,3.65,0,0,0,.6,2.25A2.033,2.033,0,0,0,64.73,30.977Zm10.2.188a3.07,3.07,0,0,1-2.477.992,2.628,2.628,0,0,1-2.059-.785,3.4,3.4,0,0,1-.715-2.324v-5.5h1.445v5.461q0,1.922,1.563,1.922a2.163,2.163,0,0,0,2.2-1.234V23.547H76.34V32H74.965Zm7.688-6.32a4.331,4.331,0,0,0-.711-.055A1.9,1.9,0,0,0,79.98,26v6H78.535V23.547h1.406l.023.977a2.251,2.251,0,0,1,2.016-1.133,1.477,1.477,0,0,1,.641.109Zm6.25,4.914a1.064,1.064,0,0,0-.441-.91,4.249,4.249,0,0,0-1.539-.559,7.277,7.277,0,0,1-1.742-.562,2.478,2.478,0,0,1-.953-.781,1.869,1.869,0,0,1-.309-1.078,2.193,2.193,0,0,1,.879-1.758,3.432,3.432,0,0,1,2.246-.719,3.532,3.532,0,0,1,2.332.742,2.357,2.357,0,0,1,.895,1.9H88.785a1.3,1.3,0,0,0-.5-1.023,1.888,1.888,0,0,0-1.27-.43,1.976,1.976,0,0,0-1.234.344,1.082,1.082,0,0,0-.445.9.877.877,0,0,0,.414.789,5.1,5.1,0,0,0,1.5.508A7.8,7.8,0,0,1,89,27.7a2.558,2.558,0,0,1,1,.809,1.988,1.988,0,0,1,.324,1.152,2.163,2.163,0,0,1-.906,1.816,3.8,3.8,0,0,1-2.352.684,4.257,4.257,0,0,1-1.8-.359,2.922,2.922,0,0,1-1.223-1A2.42,2.42,0,0,1,83.6,29.4h1.445a1.5,1.5,0,0,0,.582,1.152,2.258,2.258,0,0,0,1.434.426,2.331,2.331,0,0,0,1.316-.332A1.02,1.02,0,0,0,88.871,29.758ZM91.816,27.7a4.993,4.993,0,0,1,.488-2.234,3.643,3.643,0,0,1,1.359-1.531,3.7,3.7,0,0,1,1.988-.539,3.565,3.565,0,0,1,2.793,1.2,4.6,4.6,0,0,1,1.066,3.18v.1a5.036,5.036,0,0,1-.473,2.215,3.589,3.589,0,0,1-1.352,1.527,3.743,3.743,0,0,1-2.02.547,3.556,3.556,0,0,1-2.785-1.2A4.575,4.575,0,0,1,91.816,27.8Zm1.453.172a3.616,3.616,0,0,0,.652,2.258,2.211,2.211,0,0,0,3.5-.012,3.955,3.955,0,0,0,.648-2.418,3.61,3.61,0,0,0-.66-2.254,2.1,2.1,0,0,0-1.754-.863,2.075,2.075,0,0,0-1.727.852A3.925,3.925,0,0,0,93.27,27.867Zm12.977,1.891a1.064,1.064,0,0,0-.441-.91,4.249,4.249,0,0,0-1.539-.559,7.277,7.277,0,0,1-1.742-.562,2.478,2.478,0,0,1-.953-.781,1.869,1.869,0,0,1-.309-1.078,2.193,2.193,0,0,1,.879-1.758,3.432,3.432,0,0,1,2.246-.719,3.532,3.532,0,0,1,2.332.742,2.357,2.357,0,0,1,.895,1.9H106.16a1.3,1.3,0,0,0-.5-1.023,1.888,1.888,0,0,0-1.27-.43,1.976,1.976,0,0,0-1.234.344,1.082,1.082,0,0,0-.445.9.877.877,0,0,0,.414.789,5.1,5.1,0,0,0,1.5.508,7.8,7.8,0,0,1,1.754.578,2.558,2.558,0,0,1,1,.809,1.988,1.988,0,0,1,.324,1.152,2.163,2.163,0,0,1-.906,1.816,3.8,3.8,0,0,1-2.352.684,4.257,4.257,0,0,1-1.8-.359,2.922,2.922,0,0,1-1.223-1,2.42,2.42,0,0,1-.441-1.395h1.445A1.5,1.5,0,0,0,103,30.551a2.258,2.258,0,0,0,1.434.426,2.331,2.331,0,0,0,1.316-.332A1.02,1.02,0,0,0,106.246,29.758Z" transform="translate(-4216 -7929)" fill="#12263f"/>
    <path id="Trazado_880537" data-name="Trazado 880537" d="M11.875,12.242a1.235,1.235,0,0,0-.355-1.152,5.335,5.335,0,0,0-1.691-.863A7.8,7.8,0,0,1,6.91,8.719a2.465,2.465,0,0,1-.746-2.312,3,3,0,0,1,1.4-2.152,5.177,5.177,0,0,1,2.914-.793,4.455,4.455,0,0,1,3.008.926,2.586,2.586,0,0,1,.8,2.559l-.016.047H12.055a1.411,1.411,0,0,0-.4-1.277,1.96,1.96,0,0,0-1.43-.5,2.116,2.116,0,0,0-1.2.336,1.167,1.167,0,0,0-.57.836A1.1,1.1,0,0,0,8.824,7.5a7.217,7.217,0,0,0,1.941.879,6.817,6.817,0,0,1,2.73,1.48,2.624,2.624,0,0,1,.66,2.371,2.963,2.963,0,0,1-1.4,2.176,5.424,5.424,0,0,1-2.965.762,5.588,5.588,0,0,1-3.164-.848,2.4,2.4,0,0,1-.969-2.637l.016-.047H7.883A1.245,1.245,0,0,0,8.414,13a3.061,3.061,0,0,0,1.625.41,2.286,2.286,0,0,0,1.227-.328A1.192,1.192,0,0,0,11.875,12.242Zm6.8,2.922A3.361,3.361,0,0,1,15.879,14a3.71,3.71,0,0,1-.668-2.98l.047-.312a5.35,5.35,0,0,1,1.48-3.129A4.072,4.072,0,0,1,19.75,6.391a2.829,2.829,0,0,1,2.438,1.047,3.7,3.7,0,0,1,.523,2.8l-.172,1.18H17.492l-.016.039a1.957,1.957,0,0,0,.32,1.418,1.6,1.6,0,0,0,1.359.535,4.993,4.993,0,0,0,1.266-.141,9.4,9.4,0,0,0,1.2-.422l.352,1.438a5.365,5.365,0,0,1-1.418.617A6.622,6.622,0,0,1,18.672,15.164Zm.82-7.016a1.462,1.462,0,0,0-1.109.473,2.765,2.765,0,0,0-.641,1.246l.016.047h2.766l.031-.172a1.857,1.857,0,0,0-.141-1.176A.973.973,0,0,0,19.492,8.148Zm9.242.359-.828-.023a1.642,1.642,0,0,0-.863.219,1.722,1.722,0,0,0-.6.617L25.625,15H23.352l1.227-8.453H26.7l-.078,1.242a3.168,3.168,0,0,1,.914-1.035,1.971,1.971,0,0,1,1.148-.363,1.659,1.659,0,0,1,.309.027q.145.027.285.066Zm4.039,3.344.031.773.047.008.273-.781,2.164-5.3h2.383L33.57,15h-2.18L29.742,6.547h2.383ZM39.836,15H37.555l1.227-8.453h2.281ZM41.352,4.523H39.07l.25-1.711H41.6Zm4.117,8.891a1.458,1.458,0,0,0,.988-.355,1.524,1.524,0,0,0,.5-.949h2.07l.016.047a3.137,3.137,0,0,1-1.262,2.16,4.079,4.079,0,0,1-2.566.848,3.113,3.113,0,0,1-2.707-1.207,4.035,4.035,0,0,1-.6-3.059l.031-.234A5.28,5.28,0,0,1,43.41,7.578a4.158,4.158,0,0,1,3.066-1.187,3.048,3.048,0,0,1,2.348.895,2.627,2.627,0,0,1,.59,2.348l-.016.039H47.313a1.534,1.534,0,0,0-.191-1.094,1,1,0,0,0-.9-.43,1.545,1.545,0,0,0-1.348.715,4.218,4.218,0,0,0-.645,1.8L44.2,10.9a3.623,3.623,0,0,0,.1,1.832A1.124,1.124,0,0,0,45.469,13.414Zm8.18,1.75A3.361,3.361,0,0,1,50.855,14a3.71,3.71,0,0,1-.668-2.98l.047-.312a5.35,5.35,0,0,1,1.48-3.129,4.072,4.072,0,0,1,3.012-1.184,2.829,2.829,0,0,1,2.438,1.047,3.7,3.7,0,0,1,.523,2.8l-.172,1.18H52.469l-.016.039a1.957,1.957,0,0,0,.32,1.418,1.6,1.6,0,0,0,1.359.535,4.993,4.993,0,0,0,1.266-.141,9.4,9.4,0,0,0,1.2-.422l.352,1.438a5.365,5.365,0,0,1-1.418.617A6.622,6.622,0,0,1,53.648,15.164Zm.82-7.016a1.462,1.462,0,0,0-1.109.473,2.765,2.765,0,0,0-.641,1.246l.016.047H55.5l.031-.172a1.857,1.857,0,0,0-.141-1.176A.973.973,0,0,0,54.469,8.148Z" transform="translate(-4078 -7981)" fill="#12263f"/>
    <path id="Trazado_880539" data-name="Trazado 880539" d="M11.875,12.242a1.235,1.235,0,0,0-.355-1.152,5.335,5.335,0,0,0-1.691-.863A7.8,7.8,0,0,1,6.91,8.719a2.465,2.465,0,0,1-.746-2.312,3,3,0,0,1,1.4-2.152,5.177,5.177,0,0,1,2.914-.793,4.455,4.455,0,0,1,3.008.926,2.586,2.586,0,0,1,.8,2.559l-.016.047H12.055a1.411,1.411,0,0,0-.4-1.277,1.96,1.96,0,0,0-1.43-.5,2.116,2.116,0,0,0-1.2.336,1.167,1.167,0,0,0-.57.836A1.1,1.1,0,0,0,8.824,7.5a7.217,7.217,0,0,0,1.941.879,6.817,6.817,0,0,1,2.73,1.48,2.624,2.624,0,0,1,.66,2.371,2.963,2.963,0,0,1-1.4,2.176,5.424,5.424,0,0,1-2.965.762,5.588,5.588,0,0,1-3.164-.848,2.4,2.4,0,0,1-.969-2.637l.016-.047H7.883A1.245,1.245,0,0,0,8.414,13a3.061,3.061,0,0,0,1.625.41,2.286,2.286,0,0,0,1.227-.328A1.192,1.192,0,0,0,11.875,12.242Zm6.8,2.922A3.361,3.361,0,0,1,15.879,14a3.71,3.71,0,0,1-.668-2.98l.047-.312a5.35,5.35,0,0,1,1.48-3.129A4.072,4.072,0,0,1,19.75,6.391a2.829,2.829,0,0,1,2.438,1.047,3.7,3.7,0,0,1,.523,2.8l-.172,1.18H17.492l-.016.039a1.957,1.957,0,0,0,.32,1.418,1.6,1.6,0,0,0,1.359.535,4.993,4.993,0,0,0,1.266-.141,9.4,9.4,0,0,0,1.2-.422l.352,1.438a5.365,5.365,0,0,1-1.418.617A6.622,6.622,0,0,1,18.672,15.164Zm.82-7.016a1.462,1.462,0,0,0-1.109.473,2.765,2.765,0,0,0-.641,1.246l.016.047h2.766l.031-.172a1.857,1.857,0,0,0-.141-1.176A.973.973,0,0,0,19.492,8.148Zm9.242.359-.828-.023a1.642,1.642,0,0,0-.863.219,1.722,1.722,0,0,0-.6.617L25.625,15H23.352l1.227-8.453H26.7l-.078,1.242a3.168,3.168,0,0,1,.914-1.035,1.971,1.971,0,0,1,1.148-.363,1.659,1.659,0,0,1,.309.027q.145.027.285.066Zm4.039,3.344.031.773.047.008.273-.781,2.164-5.3h2.383L33.57,15h-2.18L29.742,6.547h2.383ZM39.836,15H37.555l1.227-8.453h2.281ZM41.352,4.523H39.07l.25-1.711H41.6Zm4.117,8.891a1.458,1.458,0,0,0,.988-.355,1.524,1.524,0,0,0,.5-.949h2.07l.016.047a3.137,3.137,0,0,1-1.262,2.16,4.079,4.079,0,0,1-2.566.848,3.113,3.113,0,0,1-2.707-1.207,4.035,4.035,0,0,1-.6-3.059l.031-.234A5.28,5.28,0,0,1,43.41,7.578a4.158,4.158,0,0,1,3.066-1.187,3.048,3.048,0,0,1,2.348.895,2.627,2.627,0,0,1,.59,2.348l-.016.039H47.313a1.534,1.534,0,0,0-.191-1.094,1,1,0,0,0-.9-.43,1.545,1.545,0,0,0-1.348.715,4.218,4.218,0,0,0-.645,1.8L44.2,10.9a3.623,3.623,0,0,0,.1,1.832A1.124,1.124,0,0,0,45.469,13.414Zm8.18,1.75A3.361,3.361,0,0,1,50.855,14a3.71,3.71,0,0,1-.668-2.98l.047-.312a5.35,5.35,0,0,1,1.48-3.129,4.072,4.072,0,0,1,3.012-1.184,2.829,2.829,0,0,1,2.438,1.047,3.7,3.7,0,0,1,.523,2.8l-.172,1.18H52.469l-.016.039a1.957,1.957,0,0,0,.32,1.418,1.6,1.6,0,0,0,1.359.535,4.993,4.993,0,0,0,1.266-.141,9.4,9.4,0,0,0,1.2-.422l.352,1.438a5.365,5.365,0,0,1-1.418.617A6.622,6.622,0,0,1,53.648,15.164Zm.82-7.016a1.462,1.462,0,0,0-1.109.473,2.765,2.765,0,0,0-.641,1.246l.016.047H55.5l.031-.172a1.857,1.857,0,0,0-.141-1.176A.973.973,0,0,0,54.469,8.148Z" transform="translate(-3946 -7981)" fill="#12263f"/>
    <path id="Trazado_880540" data-name="Trazado 880540" d="M10.7,10.844a6.245,6.245,0,0,1,1.332-3.25,3.3,3.3,0,0,1,2.613-1.2,2.064,2.064,0,0,1,1.09.281,2.3,2.3,0,0,1,.777.8l.68-4.656h2.289L17.711,15H15.766l-.047-1.039a3.411,3.411,0,0,1-1.07.895,2.77,2.77,0,0,1-1.3.309,2.446,2.446,0,0,1-2.238-1.148,4.376,4.376,0,0,1-.441-3.008Zm2.25.164a3.217,3.217,0,0,0,.121,1.758,1.116,1.116,0,0,0,1.129.625,1.909,1.909,0,0,0,.887-.2,1.971,1.971,0,0,0,.684-.594l.523-3.586a1.389,1.389,0,0,0-.5-.621,1.433,1.433,0,0,0-.816-.223,1.537,1.537,0,0,0-1.32.746,4.567,4.567,0,0,0-.68,1.934Zm6.8-.312a5.257,5.257,0,0,1,1.5-3.117,4.264,4.264,0,0,1,3.1-1.187A3.2,3.2,0,0,1,27.086,7.6a4.032,4.032,0,0,1,.641,3.094l-.023.164A5.283,5.283,0,0,1,26.2,13.984a4.277,4.277,0,0,1-3.1,1.18,3.209,3.209,0,0,1-2.742-1.207,3.989,3.989,0,0,1-.625-3.1Zm2.25.164a3.448,3.448,0,0,0,.133,1.867,1.191,1.191,0,0,0,1.211.688,1.649,1.649,0,0,0,1.387-.707,4,4,0,0,0,.691-1.848l.023-.164A3.415,3.415,0,0,0,25.3,8.848a1.19,1.19,0,0,0-1.207-.7,1.641,1.641,0,0,0-1.387.719,3.979,3.979,0,0,0-.684,1.828Zm15.625,2.586a5.42,5.42,0,0,1-1.762,1.2,6.713,6.713,0,0,1-2.793.516,4,4,0,0,1-3.164-1.3,3.957,3.957,0,0,1-.844-3.359l.344-2.375a5.329,5.329,0,0,1,1.75-3.387,5.078,5.078,0,0,1,3.469-1.277,4.1,4.1,0,0,1,3.023,1,2.842,2.842,0,0,1,.719,2.629l-.016.047H36.2a1.674,1.674,0,0,0-.312-1.418,1.867,1.867,0,0,0-1.453-.5,2.4,2.4,0,0,0-1.8.816,3.686,3.686,0,0,0-.953,2.074L31.336,10.5a2.936,2.936,0,0,0,.34,2.117,1.844,1.844,0,0,0,1.645.8,4.242,4.242,0,0,0,1.3-.168,2.417,2.417,0,0,0,.8-.41l.32-2.2H33.555l.227-1.578h4.477Zm5.258,1.719A3.361,3.361,0,0,1,40.09,14a3.71,3.71,0,0,1-.668-2.98l.047-.312a5.35,5.35,0,0,1,1.48-3.129,4.072,4.072,0,0,1,3.012-1.184A2.829,2.829,0,0,1,46.4,7.438a3.7,3.7,0,0,1,.523,2.8l-.172,1.18H41.7l-.016.039a1.957,1.957,0,0,0,.32,1.418,1.6,1.6,0,0,0,1.359.535,4.993,4.993,0,0,0,1.266-.141,9.4,9.4,0,0,0,1.2-.422l.352,1.438a5.365,5.365,0,0,1-1.418.617A6.622,6.622,0,0,1,42.883,15.164Zm.82-7.016a1.462,1.462,0,0,0-1.109.473,2.765,2.765,0,0,0-.641,1.246l.016.047h2.766l.031-.172a1.857,1.857,0,0,0-.141-1.176A.973.973,0,0,0,43.7,8.148Zm8.078-3.672-.3,2.07h1.43l-.234,1.6H51.25l-.625,4.3a.887.887,0,0,0,.1.711.65.65,0,0,0,.52.2,2.284,2.284,0,0,0,.313-.02,2.514,2.514,0,0,0,.313-.066L51.82,14.93a5.04,5.04,0,0,1-.7.176,4.184,4.184,0,0,1-.719.059,2.116,2.116,0,0,1-1.711-.656,2.538,2.538,0,0,1-.352-2.047l.625-4.312H47.734l.234-1.6H49.2l.3-2.07Z" transform="translate(-3824 -8041)" fill="#12263f"/>
    <path id="Trazado_880541" data-name="Trazado 880541" d="M6.594,10.844a6.245,6.245,0,0,1,1.332-3.25,3.3,3.3,0,0,1,2.613-1.2,2.064,2.064,0,0,1,1.09.281,2.3,2.3,0,0,1,.777.8l.68-4.656h2.289L13.609,15H11.664l-.047-1.039a3.411,3.411,0,0,1-1.07.895,2.77,2.77,0,0,1-1.3.309,2.446,2.446,0,0,1-2.238-1.148,4.376,4.376,0,0,1-.441-3.008Zm2.25.164a3.217,3.217,0,0,0,.121,1.758,1.116,1.116,0,0,0,1.129.625,1.909,1.909,0,0,0,.887-.2,1.971,1.971,0,0,0,.684-.594l.523-3.586a1.389,1.389,0,0,0-.5-.621,1.433,1.433,0,0,0-.816-.223,1.537,1.537,0,0,0-1.32.746,4.567,4.567,0,0,0-.68,1.934Zm6.8-.312a5.257,5.257,0,0,1,1.5-3.117,4.264,4.264,0,0,1,3.1-1.187A3.2,3.2,0,0,1,22.984,7.6a4.032,4.032,0,0,1,.641,3.094l-.023.164a5.283,5.283,0,0,1-1.508,3.125,4.277,4.277,0,0,1-3.1,1.18,3.209,3.209,0,0,1-2.742-1.207,3.989,3.989,0,0,1-.625-3.1Zm2.25.164a3.448,3.448,0,0,0,.133,1.867,1.191,1.191,0,0,0,1.211.688,1.649,1.649,0,0,0,1.387-.707,4,4,0,0,0,.691-1.848l.023-.164A3.415,3.415,0,0,0,21.2,8.848a1.19,1.19,0,0,0-1.207-.7,1.641,1.641,0,0,0-1.387.719,3.979,3.979,0,0,0-.684,1.828Zm9.539.016L26.844,15H24.563L26.211,3.625h4.352A3.943,3.943,0,0,1,33.48,4.633a2.935,2.935,0,0,1,.777,2.625A3.947,3.947,0,0,1,32.746,9.9a5.125,5.125,0,0,1-3.23.977ZM27.7,9.117h2.07a2.1,2.1,0,0,0,2.2-1.844,1.74,1.74,0,0,0-.293-1.363A1.633,1.633,0,0,0,30.3,5.383h-2.07ZM34.656,10.7a5.257,5.257,0,0,1,1.5-3.117,4.264,4.264,0,0,1,3.1-1.187A3.2,3.2,0,0,1,41.992,7.6a4.032,4.032,0,0,1,.641,3.094l-.023.164A5.283,5.283,0,0,1,41.1,13.984a4.277,4.277,0,0,1-3.1,1.18,3.209,3.209,0,0,1-2.742-1.207,3.989,3.989,0,0,1-.625-3.1Zm2.25.164a3.448,3.448,0,0,0,.133,1.867,1.191,1.191,0,0,0,1.211.688,1.649,1.649,0,0,0,1.387-.707,4,4,0,0,0,.691-1.848l.023-.164a3.415,3.415,0,0,0-.145-1.848A1.19,1.19,0,0,0,39,8.148a1.641,1.641,0,0,0-1.387.719A3.979,3.979,0,0,0,36.93,10.7Zm11.445,1.8a.665.665,0,0,0-.27-.645,3.385,3.385,0,0,0-1.285-.473,4.649,4.649,0,0,1-2.125-.9,1.721,1.721,0,0,1-.547-1.633A2.747,2.747,0,0,1,45.3,7.145a4.2,4.2,0,0,1,2.563-.754,3.565,3.565,0,0,1,2.441.77,1.95,1.95,0,0,1,.676,1.9l-.016.047h-2.2a1.018,1.018,0,0,0-.215-.832,1.143,1.143,0,0,0-.9-.316,1.458,1.458,0,0,0-.9.273.994.994,0,0,0-.418.672.658.658,0,0,0,.242.641,3.3,3.3,0,0,0,1.289.438,4.721,4.721,0,0,1,2.184.918,1.784,1.784,0,0,1,.535,1.668,2.67,2.67,0,0,1-1.238,1.879,4.719,4.719,0,0,1-2.684.715,3.458,3.458,0,0,1-2.527-.863,2.086,2.086,0,0,1-.684-1.941l.023-.047h2.086a1.041,1.041,0,0,0,.309.984,1.648,1.648,0,0,0,1.059.3,1.741,1.741,0,0,0,.992-.254A.969.969,0,0,0,48.352,12.656Zm7.531-8.18-.3,2.07h1.43l-.234,1.6H55.352l-.625,4.3a.887.887,0,0,0,.1.711.65.65,0,0,0,.52.2,2.284,2.284,0,0,0,.313-.02,2.514,2.514,0,0,0,.313-.066l-.047,1.648a5.04,5.04,0,0,1-.7.176,4.184,4.184,0,0,1-.719.059,2.116,2.116,0,0,1-1.711-.656,2.538,2.538,0,0,1-.352-2.047l.625-4.312H51.836l.234-1.6H53.3l.3-2.07Z" transform="translate(-3824 -7921)" fill="#12263f"/>
    <path id="Trazado_880536" data-name="Trazado 880536" d="M14.035,3.625a4.059,4.059,0,0,1,3.211,1.34,4.041,4.041,0,0,1,.883,3.41l-.273,1.883A5.363,5.363,0,0,1,16.012,13.7,5.42,5.42,0,0,1,12.387,15H8.41L10.059,3.625ZM12.09,5.383,10.949,13.25h1.688a2.6,2.6,0,0,0,1.918-.844,3.785,3.785,0,0,0,1.02-2.148l.273-1.9a2.963,2.963,0,0,0-.379-2.152,1.917,1.917,0,0,0-1.691-.824Zm10.453,9.781A3.361,3.361,0,0,1,19.75,14a3.71,3.71,0,0,1-.668-2.98l.047-.312a5.35,5.35,0,0,1,1.48-3.129,4.072,4.072,0,0,1,3.012-1.184,2.829,2.829,0,0,1,2.438,1.047,3.7,3.7,0,0,1,.523,2.8l-.172,1.18H21.363l-.016.039a1.957,1.957,0,0,0,.32,1.418,1.6,1.6,0,0,0,1.359.535,4.993,4.993,0,0,0,1.266-.141,9.4,9.4,0,0,0,1.2-.422l.352,1.438a5.365,5.365,0,0,1-1.418.617A6.622,6.622,0,0,1,22.543,15.164Zm.82-7.016a1.462,1.462,0,0,0-1.109.473,2.765,2.765,0,0,0-.641,1.246l.016.047h2.766l.031-.172a1.857,1.857,0,0,0-.141-1.176A.973.973,0,0,0,23.363,8.148Zm8.8,4.508a.665.665,0,0,0-.27-.645,3.385,3.385,0,0,0-1.285-.473,4.649,4.649,0,0,1-2.125-.9,1.721,1.721,0,0,1-.547-1.633,2.747,2.747,0,0,1,1.18-1.863,4.2,4.2,0,0,1,2.563-.754,3.565,3.565,0,0,1,2.441.77,1.95,1.95,0,0,1,.676,1.9l-.016.047h-2.2a1.018,1.018,0,0,0-.215-.832,1.143,1.143,0,0,0-.9-.316,1.458,1.458,0,0,0-.9.273.994.994,0,0,0-.418.672.658.658,0,0,0,.242.641,3.3,3.3,0,0,0,1.289.438,4.721,4.721,0,0,1,2.184.918,1.784,1.784,0,0,1,.535,1.668,2.67,2.67,0,0,1-1.238,1.879,4.719,4.719,0,0,1-2.684.715,3.458,3.458,0,0,1-2.527-.863,2.086,2.086,0,0,1-.684-1.941l.023-.047h2.086a1.041,1.041,0,0,0,.309.984,1.648,1.648,0,0,0,1.059.3,1.741,1.741,0,0,0,.992-.254A.969.969,0,0,0,32.16,12.656Zm7.531-8.18-.3,2.07h1.43l-.234,1.6H39.16l-.625,4.3a.887.887,0,0,0,.1.711.65.65,0,0,0,.52.2,2.284,2.284,0,0,0,.313-.02,2.514,2.514,0,0,0,.313-.066L39.73,14.93a5.04,5.04,0,0,1-.7.176,4.184,4.184,0,0,1-.719.059,2.116,2.116,0,0,1-1.711-.656,2.538,2.538,0,0,1-.352-2.047l.625-4.312H35.645l.234-1.6h1.227l.3-2.07Zm6.656,4.031-.828-.023a1.642,1.642,0,0,0-.863.219,1.722,1.722,0,0,0-.6.617L43.238,15H40.965l1.227-8.453h2.117L44.23,7.789a3.168,3.168,0,0,1,.914-1.035,1.971,1.971,0,0,1,1.148-.363,1.659,1.659,0,0,1,.309.027q.145.027.285.066Zm.211,2.188a5.257,5.257,0,0,1,1.5-3.117,4.264,4.264,0,0,1,3.1-1.187A3.2,3.2,0,0,1,53.895,7.6a4.032,4.032,0,0,1,.641,3.094l-.023.164A5.283,5.283,0,0,1,53,13.984a4.277,4.277,0,0,1-3.1,1.18,3.209,3.209,0,0,1-2.742-1.207,3.989,3.989,0,0,1-.625-3.1Zm2.25.164a3.448,3.448,0,0,0,.133,1.867,1.191,1.191,0,0,0,1.211.688,1.649,1.649,0,0,0,1.387-.707,4,4,0,0,0,.691-1.848l.023-.164a3.415,3.415,0,0,0-.145-1.848,1.19,1.19,0,0,0-1.207-.7,1.641,1.641,0,0,0-1.387.719,3.979,3.979,0,0,0-.684,1.828Zm9.836.594.016.453.047.008,2.406-5.367h2.453L58.73,16.266a5.411,5.411,0,0,1-1.2,1.531,2.852,2.852,0,0,1-1.941.617,2.818,2.818,0,0,1-.527-.047q-.246-.047-.582-.133l.508-1.664q.094.016.211.031a1.611,1.611,0,0,0,.211.016,1.41,1.41,0,0,0,.9-.281,2.191,2.191,0,0,0,.574-.687l.359-.656L55.473,6.547h2.453Z" transform="translate(-4082 -7920)" fill="#12263f"/>
    <path id="Trazado_879261" data-name="Trazado 879261" d="M-3820-9939.078v25.016" transform="translate(-7866.5 -17992.766) rotate(180)" fill="none" stroke="#0b47db" stroke-linecap="round" stroke-width="3" stroke-dasharray="3 6"/>
    <path id="Trazado_879262" data-name="Trazado 879262" d="M-3820-9939.076v65.516" transform="translate(-7734.5 -17930.078) rotate(180)" fill="none" stroke="#0b47db" stroke-linecap="round" stroke-width="3" stroke-dasharray="3 6"/>
    <g id="Grupo_1103357" data-name="Grupo 1103357">
      <path id="Trazado_879263" data-name="Trazado 879263" d="M-3820-9939.076v32.777" transform="translate(459.792 -17718.346) rotate(-135)" fill="none" stroke="#0b47db" stroke-linecap="round" stroke-width="3" stroke-dasharray="3 6"/>
      <path id="Trazado_879265" data-name="Trazado 879265" d="M10,0V10H0Z" transform="translate(-3851.072 -8005.28) rotate(-90)" fill="#0b47db"/>
    </g>
    <g id="Grupo_1103356" data-name="Grupo 1103356">
      <path id="Trazado_879264" data-name="Trazado 879264" d="M0,32.778V0" transform="translate(-3843.871 -7927.822) rotate(135)" fill="none" stroke="#0b47db" stroke-linecap="round" stroke-width="3" stroke-dasharray="3 6"/>
      <path id="Trazado_879266" data-name="Trazado 879266" d="M10,10V0H0Z" transform="translate(-3841.072 -7935.822) rotate(90)" fill="#0b47db"/>
    </g>
  </g>
</svg>
