<svg xmlns="http://www.w3.org/2000/svg" width="70" height="70" viewBox="0 0 70 70">
  <g id="Grupo_1103546" data-name="Grupo 1103546" transform="translate(-1035 -1219)">
    <circle id="Elipse_11440" data-name="Elipse 11440" cx="35" cy="35" r="35" transform="translate(1035 1219)" fill="#00ffdf"/>
    <path id="Trazado_879496" data-name="Trazado 879496" d="M8.06,44.3a.859.859,0,0,1-.859.859H7.135a.859.859,0,0,1,0-1.719H7.2A.859.859,0,0,1,8.06,44.3ZM7.2,48.081H7.135a.859.859,0,0,0,0,1.719H7.2a.859.859,0,0,0,0-1.719Zm14.865-4.637H22a.859.859,0,0,0,0,1.719h.066a.859.859,0,1,0,0-1.719Zm0,4.637H22A.859.859,0,0,0,22,49.8h.066a.859.859,0,1,0,0-1.719Zm14.865-4.637h-.066a.859.859,0,0,0,0,1.719h.066a.859.859,0,0,0,0-1.719Zm0,4.637h-.066a.859.859,0,0,0,0,1.719h.066a.859.859,0,0,0,0-1.719ZM44,64.7a.859.859,0,0,1-.859.859H40.647a3.6,3.6,0,0,1-6.988,0H25.494a3.6,3.6,0,0,1-6.988,0H10.341a3.6,3.6,0,0,1-6.988,0H.859a.859.859,0,0,1,0-1.719H3.353A3.611,3.611,0,0,1,5.988,61.2V55.827H2.853a.859.859,0,0,1-.859-.859V30.2a.859.859,0,0,1,.859-.859h8.63a.859.859,0,0,1,.859.859V54.968a.859.859,0,0,1-.859.859H7.706V61.2a3.61,3.61,0,0,1,2.635,2.635h8.165A3.611,3.611,0,0,1,21.141,61.2V55.827H17.718a.859.859,0,0,1-.859-.859V30.2a.859.859,0,0,1,.859-.859h8.63a.859.859,0,0,1,.859.859V54.968a.859.859,0,0,1-.859.859H22.859V61.2a3.61,3.61,0,0,1,2.635,2.635h8.165A3.611,3.611,0,0,1,36.294,61.2V55.827h-3.71a.859.859,0,0,1-.859-.859V30.2a.859.859,0,0,1,.859-.859h8.63a.859.859,0,0,1,.859.859V54.968a.859.859,0,0,1-.859.859h-3.2V61.2a3.61,3.61,0,0,1,2.635,2.635h2.494A.859.859,0,0,1,44,64.7ZM33.443,38.807h6.879l.032,0V35.888l-.032,0H33.443Zm0-7.75v3.113h6.879l.032,0V31.058H33.443Zm0,23.051h6.911V40.525l-.032,0H33.443Zm-14.865-15.3h6.879l.032,0V35.888l-.032,0H18.577Zm0-7.75v3.113h6.879l.032,0V31.058H18.577Zm0,23.051h6.911V40.525l-.032,0H18.577ZM3.712,38.807h6.879l.032,0V35.888l-.032,0H3.712Zm0-7.75v3.113h6.879l.032,0V31.058H3.712Zm0,23.051h6.911V40.525l-.032,0H3.712ZM8.727,64.7a1.88,1.88,0,1,0-1.88,1.88A1.882,1.882,0,0,0,8.727,64.7Zm15.153,0A1.88,1.88,0,1,0,22,66.578,1.882,1.882,0,0,0,23.88,64.7Zm15.153,0a1.88,1.88,0,1,0-1.88,1.88A1.882,1.882,0,0,0,39.033,64.7Z" transform="translate(1048 1205.182)" fill="#a854f3"/>
  </g>
</svg>
