<svg xmlns="http://www.w3.org/2000/svg" width="275" height="130" viewBox="0 0 275 130">
  <g id="Grupo_1104211" data-name="Grupo 1104211" transform="translate(-305 -8569)">
    <path id="Rectángulo_404064" data-name="Rectángulo 404064" d="M14,0H261a14,14,0,0,1,14,14V130a0,0,0,0,1,0,0H0a0,0,0,0,1,0,0V14A14,14,0,0,1,14,0Z" transform="translate(305 8569)" fill="#aec4fa"/>
    <g id="Grupo_1103845" data-name="Grupo 1103845">
      <circle id="Elipse_11750" data-name="Elipse 11750" cx="50.5" cy="50.5" r="50.5" transform="translate(392 8584)" fill="#00ffdf"/>
      <g id="Grupo_1103844" data-name="Grupo 1103844" transform="translate(410.069 8601.346)">
        <path id="Trazado_879831" data-name="Trazado 879831" d="M10,42.5V53.945c0,3.448,10.249,6.243,22.891,6.243s22.891-2.795,22.891-6.243V42.5Z" transform="translate(0.04 1.579)" fill="#ffb300"/>
        <path id="Trazado_879832" data-name="Trazado 879832" d="M17.162,50v5.036A11.467,11.467,0,0,1,13,53.245V48.75A30.389,30.389,0,0,0,17.162,50Z" transform="translate(0.162 1.832)"/>
        <path id="Trazado_879833" data-name="Trazado 879833" d="M54.891,42.5V53.945c0,3.444-10.249,6.243-22.891,6.243V42.5Z" transform="translate(0.931 1.579)" fill="#ff8f00"/>
        <path id="Trazado_879834" data-name="Trazado 879834" d="M56.654,41.5H9.208A2.771,2.771,0,0,0,9,42.54V53.986c0,4.786,12.038,7.283,23.931,7.283s23.931-2.5,23.931-7.283V42.54a2.771,2.771,0,0,0-.208-1.04ZM54.781,53.986c0,2.123-8.511,5.2-21.85,5.2s-21.85-3.08-21.85-5.2v-10.4h43.7Z" transform="translate(0 1.538)"/>
        <ellipse id="Elipse_11747" data-name="Elipse 11747" cx="23" cy="6.5" rx="23" ry="6.5" transform="translate(9.931 37.654)" fill="#ff8f00"/>
        <path id="Trazado_879835" data-name="Trazado 879835" d="M54.891,42.743c0,3.444-10.249,6.243-22.891,6.243V36.5C44.642,36.5,54.891,39.3,54.891,42.743Z" transform="translate(0.931 1.336)" fill="#ff6f00"/>
        <path id="Trazado_879836" data-name="Trazado 879836" d="M56.654,41.743C55.062,37.633,43.929,35.5,32.931,35.5S10.8,37.633,9.208,41.743A2.771,2.771,0,0,0,9,42.783a3.973,3.973,0,0,0,2.081,3.163c3.964,2.716,12.944,4.12,21.85,4.12s17.886-1.4,21.85-4.12a3.973,3.973,0,0,0,2.081-3.163,2.771,2.771,0,0,0-.208-1.04Zm-2.466,2.081c-2.154,1.967-9.978,4.162-21.257,4.162s-19.1-2.2-21.257-4.162a1.209,1.209,0,0,1,0-2.081c2.154-1.967,9.978-4.162,21.257-4.162s19.1,2.2,21.257,4.162a1.209,1.209,0,0,1,0,2.081Z" transform="translate(0 1.296)"/>
        <path id="Trazado_879837" data-name="Trazado 879837" d="M10,26.5V37.945c0,3.448,10.249,6.243,22.891,6.243s22.891-2.795,22.891-6.243V26.5Z" transform="translate(0.04 0.931)" fill="#29b6f6"/>
        <path id="Trazado_879838" data-name="Trazado 879838" d="M17.162,34v5.036A11.467,11.467,0,0,1,13,37.245V32.75A30.388,30.388,0,0,0,17.162,34Z" transform="translate(0.162 1.184)"/>
        <path id="Trazado_879839" data-name="Trazado 879839" d="M54.891,26.5V37.945c0,3.444-10.249,6.243-22.891,6.243V26.5Z" transform="translate(0.931 0.931)" fill="#0288d1"/>
        <path id="Trazado_879840" data-name="Trazado 879840" d="M56.654,25.5H9.208A2.771,2.771,0,0,0,9,26.54V37.986c0,4.786,12.038,7.283,23.931,7.283s23.931-2.5,23.931-7.283V26.54a2.771,2.771,0,0,0-.208-1.04ZM54.781,37.986c0,2.123-8.511,5.2-21.85,5.2s-21.85-3.08-21.85-5.2v-10.4h43.7Z" transform="translate(0 0.891)"/>
        <ellipse id="Elipse_11748" data-name="Elipse 11748" cx="23" cy="6" rx="23" ry="6" transform="translate(9.931 21.654)" fill="#0288d1"/>
        <path id="Trazado_879841" data-name="Trazado 879841" d="M54.891,26.743c0,3.444-10.249,6.243-22.891,6.243V20.5C44.642,20.5,54.891,23.3,54.891,26.743Z" transform="translate(0.931 0.688)" fill="#01579b"/>
        <path id="Trazado_879842" data-name="Trazado 879842" d="M56.654,25.743C55.062,21.633,43.929,19.5,32.931,19.5S10.8,21.633,9.208,25.743A2.771,2.771,0,0,0,9,26.783a3.973,3.973,0,0,0,2.081,3.163c3.964,2.716,12.944,4.12,21.85,4.12s17.886-1.4,21.85-4.12a3.973,3.973,0,0,0,2.081-3.163,2.771,2.771,0,0,0-.208-1.04Zm-2.466,2.081c-2.154,1.967-9.978,4.162-21.257,4.162s-19.1-2.2-21.257-4.162a1.533,1.533,0,0,1-.593-1.04,1.533,1.533,0,0,1,.593-1.04c2.154-1.967,9.978-4.162,21.257-4.162s19.1,2.2,21.257,4.162a1.533,1.533,0,0,1,.593,1.04,1.533,1.533,0,0,1-.593,1.04Z" transform="translate(0 0.648)"/>
        <path id="Trazado_879843" data-name="Trazado 879843" d="M10,10.5V21.945c0,3.448,10.249,6.243,22.891,6.243s22.891-2.795,22.891-6.243V10.5Z" transform="translate(0.04 0.283)" fill="#ffb300"/>
        <path id="Trazado_879844" data-name="Trazado 879844" d="M17.162,18v5.036A11.467,11.467,0,0,1,13,21.245V16.75A30.388,30.388,0,0,0,17.162,18Z" transform="translate(0.162 0.536)"/>
        <path id="Trazado_879845" data-name="Trazado 879845" d="M54.891,10.5V21.945c0,3.444-10.249,6.243-22.891,6.243V10.5Z" transform="translate(0.931 0.283)" fill="#ff8f00"/>
        <path id="Trazado_879846" data-name="Trazado 879846" d="M56.654,9.5H9.208A2.73,2.73,0,0,0,9,10.54V21.986c0,4.786,12.038,7.283,23.931,7.283s23.931-2.5,23.931-7.283V10.54a2.771,2.771,0,0,0-.208-1.04ZM54.781,21.986c0,2.123-8.511,5.2-21.85,5.2s-21.85-3.08-21.85-5.2v-10.4h43.7Z" transform="translate(0 0.243)"/>
        <ellipse id="Elipse_11749" data-name="Elipse 11749" cx="23" cy="6.5" rx="23" ry="6.5" transform="translate(9.931 4.654)" fill="#ff8f00"/>
        <path id="Trazado_879847" data-name="Trazado 879847" d="M54.891,10.743c0,3.444-10.249,6.243-22.891,6.243V4.5C44.642,4.5,54.891,7.3,54.891,10.743Z" transform="translate(0.931 0.04)" fill="#ff6f00"/>
        <path id="Trazado_879848" data-name="Trazado 879848" d="M56.862,10.783a3.973,3.973,0,0,1-2.081,3.163c-3.964,2.716-12.944,4.12-21.85,4.12s-17.886-1.4-21.85-4.12A3.973,3.973,0,0,1,9,10.783a2.73,2.73,0,0,1,.208-1.04c1.342-3.434,9.344-5.327,16.877-5.962a1.04,1.04,0,1,1,.166,2.071c-8.2.687-12.923,2.456-14.536,3.891a1.516,1.516,0,0,0-.635,1.04,1.533,1.533,0,0,0,.593,1.04c2.154,1.967,9.978,4.162,21.257,4.162s19.1-2.2,21.257-4.162a1.533,1.533,0,0,0,.593-1.04,1.533,1.533,0,0,0-.593-1.04C52.035,7.776,44.21,5.581,32.931,5.581c-.52,0-1.04,0-1.55.01A1.041,1.041,0,1,1,31.35,3.51c.52-.01,1.051-.01,1.582-.01,11,0,22.131,2.133,23.723,6.243a2.771,2.771,0,0,1,.208,1.04Z" transform="translate(0 0)"/>
      </g>
    </g>
  </g>
</svg>
