<svg id="Grupo_1103860" data-name="Grupo 1103860" xmlns="http://www.w3.org/2000/svg" width="60" height="60" viewBox="0 0 60 60">
  <path id="Trazado_879936" data-name="Trazado 879936" d="M56,0H4A4,4,0,0,0,0,4V44a4,4,0,0,0,4,4H21v6H17a4,4,0,0,0-4,4,2,2,0,0,0,2,2H45a2,2,0,0,0,2-2,4,4,0,0,0-4-4H39V48H56a4,4,0,0,0,4-4V4A4,4,0,0,0,56,0ZM45,58H15a2,2,0,0,1,2-2H43A2.005,2.005,0,0,1,45,58Zm-8-4H23V48h2.1a5,5,0,0,0,9.8,0H37Zm-9.816-6h5.631a2.982,2.982,0,0,1-5.632,0ZM58,44a2,2,0,0,1-2,2H4a2,2,0,0,1-2-2V4A2,2,0,0,1,4,2H56a2,2,0,0,1,2,2Z" fill="#0b47db"/>
  <path id="Trazado_879937" data-name="Trazado 879937" d="M54,4H6A2,2,0,0,0,4,6V42a2,2,0,0,0,2,2H54a2,2,0,0,0,2-2V6A2,2,0,0,0,54,4ZM6,42V6H54l0,36Z" fill="#0b47db"/>
  <path id="Trazado_879938" data-name="Trazado 879938" d="M16,9H12a2,2,0,0,0-2,2v4a2,2,0,0,0,2,2h4a2,2,0,0,0,2-2V11A2,2,0,0,0,16,9Zm-4,6V11h4l0,4Z" fill="#0b47db"/>
  <path id="Trazado_879939" data-name="Trazado 879939" d="M16,20H12a2,2,0,0,0-2,2v4a2,2,0,0,0,2,2h4a2,2,0,0,0,2-2V22A2,2,0,0,0,16,20Zm-4,6V22h4l0,4Z" fill="#0b47db"/>
  <path id="Trazado_879940" data-name="Trazado 879940" d="M16,31H12a2,2,0,0,0-2,2v4a2,2,0,0,0,2,2h4a2,2,0,0,0,2-2V33A2,2,0,0,0,16,31Zm-4,6V33h4l0,4Z" fill="#0b47db"/>
  <path id="Trazado_879941" data-name="Trazado 879941" d="M49,10H22a1,1,0,0,0,0,2H49a1,1,0,0,0,0-2Z" fill="#0b47db"/>
  <path id="Trazado_879942" data-name="Trazado 879942" d="M22,16H35a1,1,0,0,0,0-2H22a1,1,0,0,0,0,2Z" fill="#0b47db"/>
  <path id="Trazado_879943" data-name="Trazado 879943" d="M49,21H22a1,1,0,0,0,0,2H49a1,1,0,0,0,0-2Z" fill="#0b47db"/>
  <path id="Trazado_879944" data-name="Trazado 879944" d="M22,27H35a1,1,0,0,0,0-2H22a1,1,0,0,0,0,2Z" fill="#0b47db"/>
  <path id="Trazado_879945" data-name="Trazado 879945" d="M49,32H22a1,1,0,0,0,0,2H49a1,1,0,0,0,0-2Z" fill="#0b47db"/>
  <path id="Trazado_879946" data-name="Trazado 879946" d="M35,36H22a1,1,0,0,0,0,2H35a1,1,0,0,0,0-2Z" fill="#0b47db"/>
</svg>
