<svg xmlns="http://www.w3.org/2000/svg" width="353" height="229.5" viewBox="0 0 353 229.5">
  <g id="Grupo_1103632" data-name="Grupo 1103632" transform="translate(-495 -3448.5)">
    <g id="Grupo_1103509" data-name="Grupo 1103509" transform="translate(551.929 3560.621)">
      <path id="Trazado_879205" data-name="Trazado 879205" d="M0,0V92.531" transform="translate(7.071 -58.224)" fill="none" stroke="#f0c518" stroke-linecap="round" stroke-width="3"/>
      <path id="Trazado_879204" data-name="Trazado 879204" d="M10,0V10H0Z" transform="translate(7.071 27.236) rotate(45)" fill="#f0c518"/>
    </g>
    <g id="Grupo_1103586" data-name="Grupo 1103586" transform="matrix(0.259, 0.966, -0.966, 0.259, 719.209, 3593.67)">
      <path id="Trazado_879205-2" data-name="Trazado 879205" d="M0,92.531V0" transform="translate(7.071 7.071)" fill="none" stroke="#0b47db" stroke-linecap="round" stroke-width="3"/>
      <path id="Trazado_879204-2" data-name="Trazado 879204" d="M10,10V0H0Z" transform="translate(0 7.071) rotate(-45)" fill="#0b47db"/>
    </g>
    <g id="Grupo_1103630" data-name="Grupo 1103630" transform="matrix(0.259, 0.966, -0.966, 0.259, 719.209, 3473.67)">
      <path id="Trazado_879205-3" data-name="Trazado 879205" d="M0,92.531V0" transform="translate(7.071 7.071)" fill="none" stroke="#0b47db" stroke-linecap="round" stroke-width="3"/>
      <path id="Trazado_879204-3" data-name="Trazado 879204" d="M10,10V0H0Z" transform="translate(0 7.071) rotate(-45)" fill="#0b47db"/>
    </g>
    <g id="Grupo_1103629" data-name="Grupo 1103629" transform="matrix(0.259, -0.966, 0.966, 0.259, 623, 3635.551)">
      <path id="Trazado_879205-4" data-name="Trazado 879205" d="M0,0V92.531" transform="translate(7.071 0)" fill="none" stroke="#0b47db" stroke-linecap="round" stroke-width="3"/>
      <path id="Trazado_879204-4" data-name="Trazado 879204" d="M10,0V10H0Z" transform="translate(7.071 85.46) rotate(45)" fill="#0b47db"/>
    </g>
    <g id="Grupo_1103631" data-name="Grupo 1103631" transform="matrix(0.259, -0.966, 0.966, 0.259, 623, 3515.551)">
      <path id="Trazado_879205-5" data-name="Trazado 879205" d="M0,0V92.531" transform="translate(7.071 0)" fill="none" stroke="#0b47db" stroke-linecap="round" stroke-width="3"/>
      <path id="Trazado_879204-5" data-name="Trazado 879204" d="M10,0V10H0Z" transform="translate(7.071 85.46) rotate(45)" fill="#0b47db"/>
    </g>
    <rect id="Rectángulo_403779" data-name="Rectángulo 403779" width="128" height="50" rx="10" transform="translate(495 3482)" fill="#debefb"/>
    <rect id="Rectángulo_403886" data-name="Rectángulo 403886" width="128" height="50" rx="10" transform="translate(495 3602)" fill="#debefb"/>
    <rect id="Rectángulo_403887" data-name="Rectángulo 403887" width="128" height="30" rx="10" transform="translate(720 3463)" fill="#debefb"/>
    <rect id="Rectángulo_403889" data-name="Rectángulo 403889" width="128" height="30" rx="10" transform="translate(720 3587)" fill="#debefb"/>
    <rect id="Rectángulo_403888" data-name="Rectángulo 403888" width="128" height="30" rx="10" transform="translate(720 3519)" fill="#debefb"/>
    <rect id="Rectángulo_403890" data-name="Rectángulo 403890" width="128" height="30" rx="10" transform="translate(720 3648)" fill="#debefb"/>
    <path id="Trazado_880612" data-name="Trazado 880612" d="M38.508,11.234l.016.047a4.147,4.147,0,0,1-1.516,2.871,5.172,5.172,0,0,1-3.3,1.012,3.776,3.776,0,0,1-3.09-1.324,4.154,4.154,0,0,1-.785-3.395l.32-2.258a5.57,5.57,0,0,1,1.715-3.426,4.86,4.86,0,0,1,3.418-1.3,4.231,4.231,0,0,1,3.078,1.023,3.064,3.064,0,0,1,.75,2.852l-.023.047H36.867a2.056,2.056,0,0,0-.285-1.641,1.942,1.942,0,0,0-1.551-.523,2.177,2.177,0,0,0-1.711.832,4.044,4.044,0,0,0-.891,2.121L32.1,10.445a3.21,3.21,0,0,0,.281,2.152,1.686,1.686,0,0,0,1.57.816,2.278,2.278,0,0,0,1.6-.539,2.678,2.678,0,0,0,.754-1.641Zm3.633,2.016h5.1L46.992,15H39.609L41.258,3.625h2.281Zm12.953-.7H51.406L50.281,15H47.9L53.383,3.625h2.336L57.891,15H55.508Zm-2.867-1.789h2.563l-.672-4L54.07,6.75Zm13.289,1.484a1.235,1.235,0,0,0-.355-1.152,5.335,5.335,0,0,0-1.691-.863,7.8,7.8,0,0,1-2.918-1.508A2.465,2.465,0,0,1,59.8,6.406a3,3,0,0,1,1.4-2.152,5.177,5.177,0,0,1,2.914-.793,4.455,4.455,0,0,1,3.008.926,2.586,2.586,0,0,1,.8,2.559l-.016.047H65.7a1.411,1.411,0,0,0-.4-1.277,1.96,1.96,0,0,0-1.43-.5,2.116,2.116,0,0,0-1.2.336,1.167,1.167,0,0,0-.57.836A1.1,1.1,0,0,0,62.465,7.5a7.217,7.217,0,0,0,1.941.879,6.817,6.817,0,0,1,2.73,1.48,2.624,2.624,0,0,1,.66,2.371,2.963,2.963,0,0,1-1.4,2.176,5.424,5.424,0,0,1-2.965.762,5.588,5.588,0,0,1-3.164-.848A2.4,2.4,0,0,1,59.3,11.68l.016-.047h2.211A1.245,1.245,0,0,0,62.055,13a3.061,3.061,0,0,0,1.625.41,2.286,2.286,0,0,0,1.227-.328A1.192,1.192,0,0,0,65.516,12.242Zm9.836,0A1.235,1.235,0,0,0,75,11.09a5.335,5.335,0,0,0-1.691-.863,7.8,7.8,0,0,1-2.918-1.508,2.465,2.465,0,0,1-.746-2.312,3,3,0,0,1,1.4-2.152,5.177,5.177,0,0,1,2.914-.793,4.455,4.455,0,0,1,3.008.926,2.586,2.586,0,0,1,.8,2.559l-.016.047H75.531a1.411,1.411,0,0,0-.4-1.277,1.96,1.96,0,0,0-1.43-.5,2.116,2.116,0,0,0-1.2.336,1.167,1.167,0,0,0-.57.836A1.1,1.1,0,0,0,72.3,7.5a7.217,7.217,0,0,0,1.941.879,6.817,6.817,0,0,1,2.73,1.48,2.624,2.624,0,0,1,.66,2.371,2.963,2.963,0,0,1-1.4,2.176,5.424,5.424,0,0,1-2.965.762,5.588,5.588,0,0,1-3.164-.848,2.4,2.4,0,0,1-.969-2.637l.016-.047h2.211A1.245,1.245,0,0,0,71.891,13a3.061,3.061,0,0,0,1.625.41,2.286,2.286,0,0,0,1.227-.328A1.192,1.192,0,0,0,75.352,12.242Zm14.3.414H85.547L84.766,15H82.273L86.508,3.625H88.68L92.938,15H90.445Zm-3.477-1.9h2.844L87.594,6.5Z" transform="translate(498 3498)" fill="#12263f"/>
    <path id="Trazado_880610" data-name="Trazado 880610" d="M38.508,11.234l.016.047a4.147,4.147,0,0,1-1.516,2.871,5.172,5.172,0,0,1-3.3,1.012,3.776,3.776,0,0,1-3.09-1.324,4.154,4.154,0,0,1-.785-3.395l.32-2.258a5.57,5.57,0,0,1,1.715-3.426,4.86,4.86,0,0,1,3.418-1.3,4.231,4.231,0,0,1,3.078,1.023,3.064,3.064,0,0,1,.75,2.852l-.023.047H36.867a2.056,2.056,0,0,0-.285-1.641,1.942,1.942,0,0,0-1.551-.523,2.177,2.177,0,0,0-1.711.832,4.044,4.044,0,0,0-.891,2.121L32.1,10.445a3.21,3.21,0,0,0,.281,2.152,1.686,1.686,0,0,0,1.57.816,2.278,2.278,0,0,0,1.6-.539,2.678,2.678,0,0,0,.754-1.641Zm3.633,2.016h5.1L46.992,15H39.609L41.258,3.625h2.281Zm12.953-.7H51.406L50.281,15H47.9L53.383,3.625h2.336L57.891,15H55.508Zm-2.867-1.789h2.563l-.672-4L54.07,6.75Zm13.289,1.484a1.235,1.235,0,0,0-.355-1.152,5.335,5.335,0,0,0-1.691-.863,7.8,7.8,0,0,1-2.918-1.508A2.465,2.465,0,0,1,59.8,6.406a3,3,0,0,1,1.4-2.152,5.177,5.177,0,0,1,2.914-.793,4.455,4.455,0,0,1,3.008.926,2.586,2.586,0,0,1,.8,2.559l-.016.047H65.7a1.411,1.411,0,0,0-.4-1.277,1.96,1.96,0,0,0-1.43-.5,2.116,2.116,0,0,0-1.2.336,1.167,1.167,0,0,0-.57.836A1.1,1.1,0,0,0,62.465,7.5a7.217,7.217,0,0,0,1.941.879,6.817,6.817,0,0,1,2.73,1.48,2.624,2.624,0,0,1,.66,2.371,2.963,2.963,0,0,1-1.4,2.176,5.424,5.424,0,0,1-2.965.762,5.588,5.588,0,0,1-3.164-.848A2.4,2.4,0,0,1,59.3,11.68l.016-.047h2.211A1.245,1.245,0,0,0,62.055,13a3.061,3.061,0,0,0,1.625.41,2.286,2.286,0,0,0,1.227-.328A1.192,1.192,0,0,0,65.516,12.242Zm9.836,0A1.235,1.235,0,0,0,75,11.09a5.335,5.335,0,0,0-1.691-.863,7.8,7.8,0,0,1-2.918-1.508,2.465,2.465,0,0,1-.746-2.312,3,3,0,0,1,1.4-2.152,5.177,5.177,0,0,1,2.914-.793,4.455,4.455,0,0,1,3.008.926,2.586,2.586,0,0,1,.8,2.559l-.016.047H75.531a1.411,1.411,0,0,0-.4-1.277,1.96,1.96,0,0,0-1.43-.5,2.116,2.116,0,0,0-1.2.336,1.167,1.167,0,0,0-.57.836A1.1,1.1,0,0,0,72.3,7.5a7.217,7.217,0,0,0,1.941.879,6.817,6.817,0,0,1,2.73,1.48,2.624,2.624,0,0,1,.66,2.371,2.963,2.963,0,0,1-1.4,2.176,5.424,5.424,0,0,1-2.965.762,5.588,5.588,0,0,1-3.164-.848,2.4,2.4,0,0,1-.969-2.637l.016-.047h2.211A1.245,1.245,0,0,0,71.891,13a3.061,3.061,0,0,0,1.625.41,2.286,2.286,0,0,0,1.227-.328A1.192,1.192,0,0,0,75.352,12.242Zm14.3.414H85.547L84.766,15H82.273L86.508,3.625H88.68L92.938,15H90.445Zm-3.477-1.9h2.844L87.594,6.5Z" transform="translate(498 3618)" fill="#12263f"/>
    <path id="Trazado_880603" data-name="Trazado 880603" d="M38.785,11.234l.016.047a4.147,4.147,0,0,1-1.516,2.871,5.172,5.172,0,0,1-3.3,1.012,3.776,3.776,0,0,1-3.09-1.324,4.154,4.154,0,0,1-.785-3.395l.32-2.258a5.57,5.57,0,0,1,1.715-3.426,4.86,4.86,0,0,1,3.418-1.3,4.231,4.231,0,0,1,3.078,1.023,3.064,3.064,0,0,1,.75,2.852l-.023.047H37.145a2.056,2.056,0,0,0-.285-1.641,1.942,1.942,0,0,0-1.551-.523,2.177,2.177,0,0,0-1.711.832,4.044,4.044,0,0,0-.891,2.121l-.328,2.273A3.21,3.21,0,0,0,32.66,12.6a1.686,1.686,0,0,0,1.57.816,2.278,2.278,0,0,0,1.6-.539,2.678,2.678,0,0,0,.754-1.641Zm3.633,2.016h5.1L47.27,15H39.887L41.535,3.625h2.281Zm12.953-.7H51.684L50.559,15H48.176L53.66,3.625H56L58.168,15H55.785ZM52.5,10.758h2.563l-.672-4-.047-.008Zm13.289,1.484a1.235,1.235,0,0,0-.355-1.152,5.335,5.335,0,0,0-1.691-.863,7.8,7.8,0,0,1-2.918-1.508,2.465,2.465,0,0,1-.746-2.312,3,3,0,0,1,1.4-2.152,5.177,5.177,0,0,1,2.914-.793,4.455,4.455,0,0,1,3.008.926,2.586,2.586,0,0,1,.8,2.559l-.016.047H65.973a1.411,1.411,0,0,0-.4-1.277,1.96,1.96,0,0,0-1.43-.5,2.116,2.116,0,0,0-1.2.336,1.167,1.167,0,0,0-.57.836A1.1,1.1,0,0,0,62.742,7.5a7.217,7.217,0,0,0,1.941.879,6.817,6.817,0,0,1,2.73,1.48,2.624,2.624,0,0,1,.66,2.371,2.963,2.963,0,0,1-1.4,2.176,5.424,5.424,0,0,1-2.965.762,5.588,5.588,0,0,1-3.164-.848,2.4,2.4,0,0,1-.969-2.637l.016-.047H61.8A1.245,1.245,0,0,0,62.332,13a3.061,3.061,0,0,0,1.625.41,2.286,2.286,0,0,0,1.227-.328A1.192,1.192,0,0,0,65.793,12.242Zm9.836,0a1.235,1.235,0,0,0-.355-1.152,5.335,5.335,0,0,0-1.691-.863,7.8,7.8,0,0,1-2.918-1.508,2.465,2.465,0,0,1-.746-2.312,3,3,0,0,1,1.4-2.152,5.177,5.177,0,0,1,2.914-.793,4.455,4.455,0,0,1,3.008.926,2.586,2.586,0,0,1,.8,2.559l-.016.047H75.809a1.411,1.411,0,0,0-.4-1.277,1.96,1.96,0,0,0-1.43-.5,2.116,2.116,0,0,0-1.2.336,1.167,1.167,0,0,0-.57.836A1.1,1.1,0,0,0,72.578,7.5a7.217,7.217,0,0,0,1.941.879,6.817,6.817,0,0,1,2.73,1.48,2.624,2.624,0,0,1,.66,2.371,2.963,2.963,0,0,1-1.4,2.176,5.424,5.424,0,0,1-2.965.762,5.588,5.588,0,0,1-3.164-.848,2.4,2.4,0,0,1-.969-2.637l.016-.047h2.211A1.245,1.245,0,0,0,72.168,13a3.061,3.061,0,0,0,1.625.41,2.286,2.286,0,0,0,1.227-.328A1.192,1.192,0,0,0,75.629,12.242ZM83.512,15V3.625H87.5a5.232,5.232,0,0,1,3.141.793,2.712,2.712,0,0,1,1.07,2.324,2.57,2.57,0,0,1-.43,1.473,2.482,2.482,0,0,1-1.2.934,2.4,2.4,0,0,1,1.379.883,2.61,2.61,0,0,1,.5,1.625,3,3,0,0,1-1.047,2.484A4.713,4.713,0,0,1,87.934,15Zm2.344-4.953v3.07h2.008a1.938,1.938,0,0,0,1.293-.395,1.353,1.353,0,0,0,.465-1.09A1.428,1.428,0,0,0,88,10.047Zm0-1.656H87.59q1.773-.031,1.773-1.414a1.307,1.307,0,0,0-.449-1.113,2.363,2.363,0,0,0-1.418-.34H85.855Z" transform="translate(723 3468)" fill="#12263f"/>
    <path id="Trazado_880607" data-name="Trazado 880607" d="M38.785,11.234l.016.047a4.147,4.147,0,0,1-1.516,2.871,5.172,5.172,0,0,1-3.3,1.012,3.776,3.776,0,0,1-3.09-1.324,4.154,4.154,0,0,1-.785-3.395l.32-2.258a5.57,5.57,0,0,1,1.715-3.426,4.86,4.86,0,0,1,3.418-1.3,4.231,4.231,0,0,1,3.078,1.023,3.064,3.064,0,0,1,.75,2.852l-.023.047H37.145a2.056,2.056,0,0,0-.285-1.641,1.942,1.942,0,0,0-1.551-.523,2.177,2.177,0,0,0-1.711.832,4.044,4.044,0,0,0-.891,2.121l-.328,2.273A3.21,3.21,0,0,0,32.66,12.6a1.686,1.686,0,0,0,1.57.816,2.278,2.278,0,0,0,1.6-.539,2.678,2.678,0,0,0,.754-1.641Zm3.633,2.016h5.1L47.27,15H39.887L41.535,3.625h2.281Zm12.953-.7H51.684L50.559,15H48.176L53.66,3.625H56L58.168,15H55.785ZM52.5,10.758h2.563l-.672-4-.047-.008Zm13.289,1.484a1.235,1.235,0,0,0-.355-1.152,5.335,5.335,0,0,0-1.691-.863,7.8,7.8,0,0,1-2.918-1.508,2.465,2.465,0,0,1-.746-2.312,3,3,0,0,1,1.4-2.152,5.177,5.177,0,0,1,2.914-.793,4.455,4.455,0,0,1,3.008.926,2.586,2.586,0,0,1,.8,2.559l-.016.047H65.973a1.411,1.411,0,0,0-.4-1.277,1.96,1.96,0,0,0-1.43-.5,2.116,2.116,0,0,0-1.2.336,1.167,1.167,0,0,0-.57.836A1.1,1.1,0,0,0,62.742,7.5a7.217,7.217,0,0,0,1.941.879,6.817,6.817,0,0,1,2.73,1.48,2.624,2.624,0,0,1,.66,2.371,2.963,2.963,0,0,1-1.4,2.176,5.424,5.424,0,0,1-2.965.762,5.588,5.588,0,0,1-3.164-.848,2.4,2.4,0,0,1-.969-2.637l.016-.047H61.8A1.245,1.245,0,0,0,62.332,13a3.061,3.061,0,0,0,1.625.41,2.286,2.286,0,0,0,1.227-.328A1.192,1.192,0,0,0,65.793,12.242Zm9.836,0a1.235,1.235,0,0,0-.355-1.152,5.335,5.335,0,0,0-1.691-.863,7.8,7.8,0,0,1-2.918-1.508,2.465,2.465,0,0,1-.746-2.312,3,3,0,0,1,1.4-2.152,5.177,5.177,0,0,1,2.914-.793,4.455,4.455,0,0,1,3.008.926,2.586,2.586,0,0,1,.8,2.559l-.016.047H75.809a1.411,1.411,0,0,0-.4-1.277,1.96,1.96,0,0,0-1.43-.5,2.116,2.116,0,0,0-1.2.336,1.167,1.167,0,0,0-.57.836A1.1,1.1,0,0,0,72.578,7.5a7.217,7.217,0,0,0,1.941.879,6.817,6.817,0,0,1,2.73,1.48,2.624,2.624,0,0,1,.66,2.371,2.963,2.963,0,0,1-1.4,2.176,5.424,5.424,0,0,1-2.965.762,5.588,5.588,0,0,1-3.164-.848,2.4,2.4,0,0,1-.969-2.637l.016-.047h2.211A1.245,1.245,0,0,0,72.168,13a3.061,3.061,0,0,0,1.625.41,2.286,2.286,0,0,0,1.227-.328A1.192,1.192,0,0,0,75.629,12.242ZM83.512,15V3.625H87.5a5.232,5.232,0,0,1,3.141.793,2.712,2.712,0,0,1,1.07,2.324,2.57,2.57,0,0,1-.43,1.473,2.482,2.482,0,0,1-1.2.934,2.4,2.4,0,0,1,1.379.883,2.61,2.61,0,0,1,.5,1.625,3,3,0,0,1-1.047,2.484A4.713,4.713,0,0,1,87.934,15Zm2.344-4.953v3.07h2.008a1.938,1.938,0,0,0,1.293-.395,1.353,1.353,0,0,0,.465-1.09A1.428,1.428,0,0,0,88,10.047Zm0-1.656H87.59q1.773-.031,1.773-1.414a1.307,1.307,0,0,0-.449-1.113,2.363,2.363,0,0,0-1.418-.34H85.855Z" transform="translate(723 3592)" fill="#12263f"/>
    <path id="Trazado_880605" data-name="Trazado 880605" d="M38.656,11.234l.016.047a4.147,4.147,0,0,1-1.516,2.871,5.172,5.172,0,0,1-3.3,1.012,3.776,3.776,0,0,1-3.09-1.324,4.154,4.154,0,0,1-.785-3.395l.32-2.258a5.57,5.57,0,0,1,1.715-3.426,4.86,4.86,0,0,1,3.418-1.3,4.231,4.231,0,0,1,3.078,1.023,3.064,3.064,0,0,1,.75,2.852l-.023.047H37.016a2.056,2.056,0,0,0-.285-1.641,1.942,1.942,0,0,0-1.551-.523,2.177,2.177,0,0,0-1.711.832,4.044,4.044,0,0,0-.891,2.121l-.328,2.273a3.21,3.21,0,0,0,.281,2.152,1.686,1.686,0,0,0,1.57.816,2.278,2.278,0,0,0,1.6-.539,2.678,2.678,0,0,0,.754-1.641Zm3.633,2.016h5.1L47.141,15H39.758L41.406,3.625h2.281Zm12.953-.7H51.555L50.43,15H48.047L53.531,3.625h2.336L58.039,15H55.656Zm-2.867-1.789h2.563l-.672-4-.047-.008Zm13.289,1.484a1.235,1.235,0,0,0-.355-1.152,5.335,5.335,0,0,0-1.691-.863A7.8,7.8,0,0,1,60.7,8.719a2.465,2.465,0,0,1-.746-2.312,3,3,0,0,1,1.4-2.152,5.177,5.177,0,0,1,2.914-.793,4.455,4.455,0,0,1,3.008.926,2.586,2.586,0,0,1,.8,2.559l-.016.047H65.844a1.411,1.411,0,0,0-.4-1.277,1.96,1.96,0,0,0-1.43-.5,2.116,2.116,0,0,0-1.2.336,1.167,1.167,0,0,0-.57.836A1.1,1.1,0,0,0,62.613,7.5a7.217,7.217,0,0,0,1.941.879,6.817,6.817,0,0,1,2.73,1.48,2.624,2.624,0,0,1,.66,2.371,2.963,2.963,0,0,1-1.4,2.176,5.424,5.424,0,0,1-2.965.762,5.588,5.588,0,0,1-3.164-.848,2.4,2.4,0,0,1-.969-2.637l.016-.047h2.211A1.245,1.245,0,0,0,62.2,13a3.061,3.061,0,0,0,1.625.41,2.286,2.286,0,0,0,1.227-.328A1.192,1.192,0,0,0,65.664,12.242Zm9.836,0a1.235,1.235,0,0,0-.355-1.152,5.335,5.335,0,0,0-1.691-.863,7.8,7.8,0,0,1-2.918-1.508,2.465,2.465,0,0,1-.746-2.312,3,3,0,0,1,1.4-2.152A5.177,5.177,0,0,1,74.1,3.461a4.455,4.455,0,0,1,3.008.926,2.586,2.586,0,0,1,.8,2.559l-.016.047H75.68a1.411,1.411,0,0,0-.4-1.277,1.96,1.96,0,0,0-1.43-.5,2.116,2.116,0,0,0-1.2.336,1.167,1.167,0,0,0-.57.836A1.1,1.1,0,0,0,72.449,7.5a7.217,7.217,0,0,0,1.941.879,6.817,6.817,0,0,1,2.73,1.48,2.624,2.624,0,0,1,.66,2.371,2.963,2.963,0,0,1-1.4,2.176,5.424,5.424,0,0,1-2.965.762,5.588,5.588,0,0,1-3.164-.848,2.4,2.4,0,0,1-.969-2.637l.016-.047h2.211A1.245,1.245,0,0,0,72.039,13a3.061,3.061,0,0,0,1.625.41,2.286,2.286,0,0,0,1.227-.328A1.192,1.192,0,0,0,75.5,12.242Zm16.813-1.031A4.025,4.025,0,0,1,90.957,14.1a4.76,4.76,0,0,1-3.223,1.055,4.28,4.28,0,0,1-3.441-1.473,6.038,6.038,0,0,1-1.254-4.043v-.7a6.819,6.819,0,0,1,.578-2.891A4.332,4.332,0,0,1,85.27,4.137a5.164,5.164,0,0,1,5.668.387,4.326,4.326,0,0,1,1.391,2.961H89.984a2.376,2.376,0,0,0-.613-1.6,2.271,2.271,0,0,0-1.605-.5,1.991,1.991,0,0,0-1.754.84,4.707,4.707,0,0,0-.6,2.605V9.7a5.038,5.038,0,0,0,.559,2.7,1.954,1.954,0,0,0,1.762.852,2.314,2.314,0,0,0,1.621-.5,2.241,2.241,0,0,0,.613-1.535Z" transform="translate(723 3524)" fill="#12263f"/>
    <path id="Trazado_880609" data-name="Trazado 880609" d="M38.656,11.234l.016.047a4.147,4.147,0,0,1-1.516,2.871,5.172,5.172,0,0,1-3.3,1.012,3.776,3.776,0,0,1-3.09-1.324,4.154,4.154,0,0,1-.785-3.395l.32-2.258a5.57,5.57,0,0,1,1.715-3.426,4.86,4.86,0,0,1,3.418-1.3,4.231,4.231,0,0,1,3.078,1.023,3.064,3.064,0,0,1,.75,2.852l-.023.047H37.016a2.056,2.056,0,0,0-.285-1.641,1.942,1.942,0,0,0-1.551-.523,2.177,2.177,0,0,0-1.711.832,4.044,4.044,0,0,0-.891,2.121l-.328,2.273a3.21,3.21,0,0,0,.281,2.152,1.686,1.686,0,0,0,1.57.816,2.278,2.278,0,0,0,1.6-.539,2.678,2.678,0,0,0,.754-1.641Zm3.633,2.016h5.1L47.141,15H39.758L41.406,3.625h2.281Zm12.953-.7H51.555L50.43,15H48.047L53.531,3.625h2.336L58.039,15H55.656Zm-2.867-1.789h2.563l-.672-4-.047-.008Zm13.289,1.484a1.235,1.235,0,0,0-.355-1.152,5.335,5.335,0,0,0-1.691-.863A7.8,7.8,0,0,1,60.7,8.719a2.465,2.465,0,0,1-.746-2.312,3,3,0,0,1,1.4-2.152,5.177,5.177,0,0,1,2.914-.793,4.455,4.455,0,0,1,3.008.926,2.586,2.586,0,0,1,.8,2.559l-.016.047H65.844a1.411,1.411,0,0,0-.4-1.277,1.96,1.96,0,0,0-1.43-.5,2.116,2.116,0,0,0-1.2.336,1.167,1.167,0,0,0-.57.836A1.1,1.1,0,0,0,62.613,7.5a7.217,7.217,0,0,0,1.941.879,6.817,6.817,0,0,1,2.73,1.48,2.624,2.624,0,0,1,.66,2.371,2.963,2.963,0,0,1-1.4,2.176,5.424,5.424,0,0,1-2.965.762,5.588,5.588,0,0,1-3.164-.848,2.4,2.4,0,0,1-.969-2.637l.016-.047h2.211A1.245,1.245,0,0,0,62.2,13a3.061,3.061,0,0,0,1.625.41,2.286,2.286,0,0,0,1.227-.328A1.192,1.192,0,0,0,65.664,12.242Zm9.836,0a1.235,1.235,0,0,0-.355-1.152,5.335,5.335,0,0,0-1.691-.863,7.8,7.8,0,0,1-2.918-1.508,2.465,2.465,0,0,1-.746-2.312,3,3,0,0,1,1.4-2.152A5.177,5.177,0,0,1,74.1,3.461a4.455,4.455,0,0,1,3.008.926,2.586,2.586,0,0,1,.8,2.559l-.016.047H75.68a1.411,1.411,0,0,0-.4-1.277,1.96,1.96,0,0,0-1.43-.5,2.116,2.116,0,0,0-1.2.336,1.167,1.167,0,0,0-.57.836A1.1,1.1,0,0,0,72.449,7.5a7.217,7.217,0,0,0,1.941.879,6.817,6.817,0,0,1,2.73,1.48,2.624,2.624,0,0,1,.66,2.371,2.963,2.963,0,0,1-1.4,2.176,5.424,5.424,0,0,1-2.965.762,5.588,5.588,0,0,1-3.164-.848,2.4,2.4,0,0,1-.969-2.637l.016-.047h2.211A1.245,1.245,0,0,0,72.039,13a3.061,3.061,0,0,0,1.625.41,2.286,2.286,0,0,0,1.227-.328A1.192,1.192,0,0,0,75.5,12.242Zm16.813-1.031A4.025,4.025,0,0,1,90.957,14.1a4.76,4.76,0,0,1-3.223,1.055,4.28,4.28,0,0,1-3.441-1.473,6.038,6.038,0,0,1-1.254-4.043v-.7a6.819,6.819,0,0,1,.578-2.891A4.332,4.332,0,0,1,85.27,4.137a5.164,5.164,0,0,1,5.668.387,4.326,4.326,0,0,1,1.391,2.961H89.984a2.376,2.376,0,0,0-.613-1.6,2.271,2.271,0,0,0-1.605-.5,1.991,1.991,0,0,0-1.754.84,4.707,4.707,0,0,0-.6,2.605V9.7a5.038,5.038,0,0,0,.559,2.7,1.954,1.954,0,0,0,1.762.852,2.314,2.314,0,0,0,1.621-.5,2.241,2.241,0,0,0,.613-1.535Z" transform="translate(723 3653)" fill="#12263f"/>
    <path id="Trazado_880602" data-name="Trazado 880602" d="M1.155,0V-9.953h2.81a4.523,4.523,0,0,1,2.3.574A3.884,3.884,0,0,1,7.8-7.745a5.318,5.318,0,0,1,.55,2.434v.636A5.336,5.336,0,0,1,7.81-2.208,3.823,3.823,0,0,1,6.258-.581,4.811,4.811,0,0,1,3.91,0ZM2.468-8.88v7.807H3.849A3,3,0,0,0,6.21-2.017a3.9,3.9,0,0,0,.844-2.689v-.582a3.963,3.963,0,0,0-.8-2.637A2.834,2.834,0,0,0,4-8.88ZM13.207.137A3.232,3.232,0,0,1,10.76-.851a3.666,3.666,0,0,1-.943-2.642v-.232a4.438,4.438,0,0,1,.42-1.965,3.28,3.28,0,0,1,1.176-1.354,2.956,2.956,0,0,1,1.637-.489,2.77,2.77,0,0,1,2.242.95,4.114,4.114,0,0,1,.8,2.721v.526H11.081a2.629,2.629,0,0,0,.639,1.767A2.009,2.009,0,0,0,13.275-.9a2.2,2.2,0,0,0,1.135-.273,2.851,2.851,0,0,0,.813-.725l.772.6A3.106,3.106,0,0,1,13.207.137ZM13.05-6.494a1.687,1.687,0,0,0-1.285.557,2.708,2.708,0,0,0-.643,1.562h3.705v-.1a2.409,2.409,0,0,0-.52-1.494A1.588,1.588,0,0,0,13.05-6.494ZM23.8-3.616A4.429,4.429,0,0,1,23.03-.9,2.476,2.476,0,0,1,20.938.137a2.713,2.713,0,0,1-2.119-.854V2.844H17.555V-7.4H18.71l.062.82a2.605,2.605,0,0,1,2.146-.957,2.522,2.522,0,0,1,2.109,1,4.477,4.477,0,0,1,.776,2.8ZM22.538-3.76A3.268,3.268,0,0,0,22-5.735a1.718,1.718,0,0,0-1.463-.725,1.859,1.859,0,0,0-1.723,1.019v3.534A1.863,1.863,0,0,0,20.556-.9,1.71,1.71,0,0,0,22-1.617,3.567,3.567,0,0,0,22.538-3.76Zm5.94,3.9a3.232,3.232,0,0,1-2.447-.988,3.666,3.666,0,0,1-.943-2.642v-.232a4.438,4.438,0,0,1,.42-1.965,3.28,3.28,0,0,1,1.176-1.354,2.956,2.956,0,0,1,1.637-.489,2.77,2.77,0,0,1,2.242.95,4.114,4.114,0,0,1,.8,2.721v.526H26.353a2.629,2.629,0,0,0,.639,1.767A2.009,2.009,0,0,0,28.547-.9a2.2,2.2,0,0,0,1.135-.273,2.851,2.851,0,0,0,.813-.725l.772.6A3.106,3.106,0,0,1,28.479.137Zm-.157-6.631a1.687,1.687,0,0,0-1.285.557,2.708,2.708,0,0,0-.643,1.562H30.1v-.1a2.409,2.409,0,0,0-.52-1.494A1.588,1.588,0,0,0,28.321-6.494Zm5.7-.9.041.93a2.7,2.7,0,0,1,2.215-1.066q2.345,0,2.365,2.646V0H37.379V-4.895a1.7,1.7,0,0,0-.366-1.183A1.466,1.466,0,0,0,35.9-6.46a1.825,1.825,0,0,0-1.08.328,2.228,2.228,0,0,0-.725.861V0H32.826V-7.4ZM40.243-3.76A4.333,4.333,0,0,1,41.05-6.5a2.551,2.551,0,0,1,2.112-1.036,2.565,2.565,0,0,1,2.058.889V-10.5h1.265V0H45.322l-.062-.793a2.575,2.575,0,0,1-2.112.93,2.526,2.526,0,0,1-2.1-1.053,4.382,4.382,0,0,1-.81-2.748Zm1.265.144a3.281,3.281,0,0,0,.52,1.969,1.68,1.68,0,0,0,1.436.711,1.845,1.845,0,0,0,1.757-1.08v-3.4A1.859,1.859,0,0,0,43.477-6.46a1.687,1.687,0,0,0-1.449.718A3.612,3.612,0,0,0,41.508-3.616ZM51.516.137a3.232,3.232,0,0,1-2.447-.988,3.666,3.666,0,0,1-.943-2.642v-.232a4.438,4.438,0,0,1,.42-1.965,3.28,3.28,0,0,1,1.176-1.354,2.956,2.956,0,0,1,1.637-.489,2.77,2.77,0,0,1,2.242.95,4.114,4.114,0,0,1,.8,2.721v.526H49.39a2.629,2.629,0,0,0,.639,1.767A2.009,2.009,0,0,0,51.584-.9a2.2,2.2,0,0,0,1.135-.273,2.851,2.851,0,0,0,.813-.725l.772.6A3.106,3.106,0,0,1,51.516.137Zm-.157-6.631a1.687,1.687,0,0,0-1.285.557,2.708,2.708,0,0,0-.643,1.562h3.705v-.1a2.409,2.409,0,0,0-.52-1.494A1.588,1.588,0,0,0,51.358-6.494Zm5.7-.9.041.93a2.7,2.7,0,0,1,2.215-1.066q2.345,0,2.365,2.646V0H60.416V-4.895a1.7,1.7,0,0,0-.366-1.183,1.466,1.466,0,0,0-1.118-.383,1.825,1.825,0,0,0-1.08.328,2.228,2.228,0,0,0-.725.861V0H55.863V-7.4Zm9.5,6.5a1.822,1.822,0,0,0,1.183-.41A1.443,1.443,0,0,0,68.3-2.331h1.2a2.293,2.293,0,0,1-.437,1.21,2.882,2.882,0,0,1-1.077.916,3.107,3.107,0,0,1-1.425.342,3.047,3.047,0,0,1-2.4-1.008A4.016,4.016,0,0,1,63.26-3.63v-.212a4.453,4.453,0,0,1,.4-1.921,3.02,3.02,0,0,1,1.138-1.306,3.233,3.233,0,0,1,1.753-.465,2.966,2.966,0,0,1,2.068.745,2.663,2.663,0,0,1,.878,1.935H68.3a1.743,1.743,0,0,0-.543-1.179,1.691,1.691,0,0,0-1.207-.461,1.77,1.77,0,0,0-1.494.694,3.259,3.259,0,0,0-.53,2.006v.239a3.194,3.194,0,0,0,.526,1.969A1.779,1.779,0,0,0,66.555-.9ZM72.29,0H71.025V-7.4H72.29ZM70.923-9.358a.755.755,0,0,1,.188-.52.706.706,0,0,1,.557-.212.717.717,0,0,1,.561.212.747.747,0,0,1,.191.52.722.722,0,0,1-.191.513.73.73,0,0,1-.561.205.718.718,0,0,1-.557-.205A.73.73,0,0,1,70.923-9.358ZM78.88,0A2.657,2.657,0,0,1,78.7-.779,2.822,2.822,0,0,1,76.6.137,2.611,2.611,0,0,1,74.8-.482a2,2,0,0,1-.7-1.569,2.091,2.091,0,0,1,.878-1.794,4.141,4.141,0,0,1,2.471-.639h1.23v-.581a1.42,1.42,0,0,0-.4-1.056,1.593,1.593,0,0,0-1.169-.393,1.844,1.844,0,0,0-1.135.342,1.007,1.007,0,0,0-.458.827H74.252a1.745,1.745,0,0,1,.393-1.07,2.683,2.683,0,0,1,1.066-.817,3.588,3.588,0,0,1,1.48-.3,2.924,2.924,0,0,1,2,.639,2.306,2.306,0,0,1,.752,1.76v3.4a4.162,4.162,0,0,0,.26,1.62V0Zm-2.1-.964a2.223,2.223,0,0,0,1.128-.308,1.861,1.861,0,0,0,.772-.8V-3.589H77.69q-2.324,0-2.324,1.36a1.151,1.151,0,0,0,.4.93A1.524,1.524,0,0,0,76.781-.964Z" transform="translate(720 3459)" fill="#12263f"/>
    <path id="Trazado_880606" data-name="Trazado 880606" d="M2.563,0H1.251V-9.953H2.563Zm3.4-7.4L6-6.467A2.7,2.7,0,0,1,8.217-7.533q2.345,0,2.365,2.646V0H9.317V-4.895a1.7,1.7,0,0,0-.366-1.183A1.466,1.466,0,0,0,7.834-6.46a1.825,1.825,0,0,0-1.08.328,2.228,2.228,0,0,0-.725.861V0H4.765V-7.4Zm8.948,5.544L16.632-7.4h1.354L15.012,1.142q-.69,1.846-2.194,1.846l-.239-.021-.472-.089V1.853l.342.027a1.683,1.683,0,0,0,1-.26,1.88,1.88,0,0,0,.591-.95l.28-.752L11.683-7.4h1.381ZM22.094.137a3.232,3.232,0,0,1-2.447-.988A3.666,3.666,0,0,1,18.7-3.493v-.232a4.438,4.438,0,0,1,.42-1.965A3.28,3.28,0,0,1,20.3-7.044a2.956,2.956,0,0,1,1.637-.489,2.77,2.77,0,0,1,2.242.95,4.114,4.114,0,0,1,.8,2.721v.526H19.968a2.629,2.629,0,0,0,.639,1.767A2.009,2.009,0,0,0,22.162-.9,2.2,2.2,0,0,0,23.3-1.169a2.851,2.851,0,0,0,.813-.725l.772.6A3.106,3.106,0,0,1,22.094.137Zm-.157-6.631a1.687,1.687,0,0,0-1.285.557,2.708,2.708,0,0,0-.643,1.562h3.705v-.1a2.409,2.409,0,0,0-.52-1.494A1.588,1.588,0,0,0,21.937-6.494ZM29.408-.9a1.822,1.822,0,0,0,1.183-.41,1.443,1.443,0,0,0,.561-1.025h1.2a2.293,2.293,0,0,1-.437,1.21,2.881,2.881,0,0,1-1.077.916,3.107,3.107,0,0,1-1.425.342,3.047,3.047,0,0,1-2.4-1.008,4.016,4.016,0,0,1-.892-2.758v-.212a4.453,4.453,0,0,1,.4-1.921,3.02,3.02,0,0,1,1.138-1.306A3.233,3.233,0,0,1,29.4-7.533a2.966,2.966,0,0,1,2.068.745,2.663,2.663,0,0,1,.878,1.935h-1.2a1.743,1.743,0,0,0-.543-1.179A1.691,1.691,0,0,0,29.4-6.494a1.77,1.77,0,0,0-1.494.694,3.259,3.259,0,0,0-.53,2.006v.239A3.194,3.194,0,0,0,27.9-1.586,1.779,1.779,0,0,0,29.408-.9Zm7.328,0a1.822,1.822,0,0,0,1.183-.41,1.443,1.443,0,0,0,.561-1.025h1.2a2.293,2.293,0,0,1-.437,1.21,2.881,2.881,0,0,1-1.077.916,3.107,3.107,0,0,1-1.425.342,3.047,3.047,0,0,1-2.4-1.008,4.016,4.016,0,0,1-.892-2.758v-.212a4.453,4.453,0,0,1,.4-1.921,3.02,3.02,0,0,1,1.138-1.306,3.233,3.233,0,0,1,1.753-.465,2.966,2.966,0,0,1,2.068.745,2.663,2.663,0,0,1,.878,1.935h-1.2a1.743,1.743,0,0,0-.543-1.179,1.691,1.691,0,0,0-1.207-.461,1.77,1.77,0,0,0-1.494.694,3.259,3.259,0,0,0-.53,2.006v.239a3.194,3.194,0,0,0,.526,1.969A1.779,1.779,0,0,0,36.736-.9Zm5.735.9H41.207V-7.4h1.265ZM41.1-9.358a.755.755,0,0,1,.188-.52.706.706,0,0,1,.557-.212.717.717,0,0,1,.561.212.747.747,0,0,1,.191.52.722.722,0,0,1-.191.513.73.73,0,0,1-.561.205.718.718,0,0,1-.557-.205A.73.73,0,0,1,41.1-9.358ZM44.16-3.767a4.369,4.369,0,0,1,.427-1.955,3.187,3.187,0,0,1,1.189-1.34,3.238,3.238,0,0,1,1.74-.472A3.119,3.119,0,0,1,49.96-6.487a4.024,4.024,0,0,1,.933,2.782v.089a4.407,4.407,0,0,1-.414,1.938A3.14,3.14,0,0,1,49.3-.342,3.275,3.275,0,0,1,47.53.137,3.111,3.111,0,0,1,45.093-.909a4,4,0,0,1-.933-2.769Zm1.271.15A3.164,3.164,0,0,0,46-1.641,1.827,1.827,0,0,0,47.53-.9a1.816,1.816,0,0,0,1.531-.755,3.46,3.46,0,0,0,.567-2.116,3.159,3.159,0,0,0-.578-1.972,1.836,1.836,0,0,0-1.535-.755,1.816,1.816,0,0,0-1.511.745A3.434,3.434,0,0,0,45.432-3.616Zm2.659-6.87h1.531L47.79-8.477l-1.019,0ZM53.676-7.4l.041.93a2.7,2.7,0,0,1,2.215-1.066q2.345,0,2.365,2.646V0H57.032V-4.895a1.7,1.7,0,0,0-.366-1.183,1.466,1.466,0,0,0-1.118-.383,1.825,1.825,0,0,0-1.08.328,2.228,2.228,0,0,0-.725.861V0H52.479V-7.4Z" transform="translate(720 3583)" fill="#12263f"/>
    <path id="Trazado_880604" data-name="Trazado 880604" d="M1.155,0V-9.953h2.81a4.523,4.523,0,0,1,2.3.574A3.884,3.884,0,0,1,7.8-7.745a5.318,5.318,0,0,1,.55,2.434v.636A5.336,5.336,0,0,1,7.81-2.208,3.823,3.823,0,0,1,6.258-.581,4.811,4.811,0,0,1,3.91,0ZM2.468-8.88v7.807H3.849A3,3,0,0,0,6.21-2.017a3.9,3.9,0,0,0,.844-2.689v-.582a3.963,3.963,0,0,0-.8-2.637A2.834,2.834,0,0,0,4-8.88ZM13.207.137A3.232,3.232,0,0,1,10.76-.851a3.666,3.666,0,0,1-.943-2.642v-.232a4.438,4.438,0,0,1,.42-1.965,3.28,3.28,0,0,1,1.176-1.354,2.956,2.956,0,0,1,1.637-.489,2.77,2.77,0,0,1,2.242.95,4.114,4.114,0,0,1,.8,2.721v.526H11.081a2.629,2.629,0,0,0,.639,1.767A2.009,2.009,0,0,0,13.275-.9a2.2,2.2,0,0,0,1.135-.273,2.851,2.851,0,0,0,.813-.725l.772.6A3.106,3.106,0,0,1,13.207.137ZM13.05-6.494a1.687,1.687,0,0,0-1.285.557,2.708,2.708,0,0,0-.643,1.562h3.705v-.1a2.409,2.409,0,0,0-.52-1.494A1.588,1.588,0,0,0,13.05-6.494ZM23.8-3.616A4.429,4.429,0,0,1,23.03-.9,2.476,2.476,0,0,1,20.938.137a2.713,2.713,0,0,1-2.119-.854V2.844H17.555V-7.4H18.71l.062.82a2.605,2.605,0,0,1,2.146-.957,2.522,2.522,0,0,1,2.109,1,4.477,4.477,0,0,1,.776,2.8ZM22.538-3.76A3.268,3.268,0,0,0,22-5.735a1.718,1.718,0,0,0-1.463-.725,1.859,1.859,0,0,0-1.723,1.019v3.534A1.863,1.863,0,0,0,20.556-.9,1.71,1.71,0,0,0,22-1.617,3.567,3.567,0,0,0,22.538-3.76Zm5.94,3.9a3.232,3.232,0,0,1-2.447-.988,3.666,3.666,0,0,1-.943-2.642v-.232a4.438,4.438,0,0,1,.42-1.965,3.28,3.28,0,0,1,1.176-1.354,2.956,2.956,0,0,1,1.637-.489,2.77,2.77,0,0,1,2.242.95,4.114,4.114,0,0,1,.8,2.721v.526H26.353a2.629,2.629,0,0,0,.639,1.767A2.009,2.009,0,0,0,28.547-.9a2.2,2.2,0,0,0,1.135-.273,2.851,2.851,0,0,0,.813-.725l.772.6A3.106,3.106,0,0,1,28.479.137Zm-.157-6.631a1.687,1.687,0,0,0-1.285.557,2.708,2.708,0,0,0-.643,1.562H30.1v-.1a2.409,2.409,0,0,0-.52-1.494A1.588,1.588,0,0,0,28.321-6.494Zm5.7-.9.041.93a2.7,2.7,0,0,1,2.215-1.066q2.345,0,2.365,2.646V0H37.379V-4.895a1.7,1.7,0,0,0-.366-1.183A1.466,1.466,0,0,0,35.9-6.46a1.825,1.825,0,0,0-1.08.328,2.228,2.228,0,0,0-.725.861V0H32.826V-7.4ZM40.243-3.76A4.333,4.333,0,0,1,41.05-6.5a2.551,2.551,0,0,1,2.112-1.036,2.565,2.565,0,0,1,2.058.889V-10.5h1.265V0H45.322l-.062-.793a2.575,2.575,0,0,1-2.112.93,2.526,2.526,0,0,1-2.1-1.053,4.382,4.382,0,0,1-.81-2.748Zm1.265.144a3.281,3.281,0,0,0,.52,1.969,1.68,1.68,0,0,0,1.436.711,1.845,1.845,0,0,0,1.757-1.08v-3.4A1.859,1.859,0,0,0,43.477-6.46a1.687,1.687,0,0,0-1.449.718A3.612,3.612,0,0,0,41.508-3.616ZM51.516.137a3.232,3.232,0,0,1-2.447-.988,3.666,3.666,0,0,1-.943-2.642v-.232a4.438,4.438,0,0,1,.42-1.965,3.28,3.28,0,0,1,1.176-1.354,2.956,2.956,0,0,1,1.637-.489,2.77,2.77,0,0,1,2.242.95,4.114,4.114,0,0,1,.8,2.721v.526H49.39a2.629,2.629,0,0,0,.639,1.767A2.009,2.009,0,0,0,51.584-.9a2.2,2.2,0,0,0,1.135-.273,2.851,2.851,0,0,0,.813-.725l.772.6A3.106,3.106,0,0,1,51.516.137Zm-.157-6.631a1.687,1.687,0,0,0-1.285.557,2.708,2.708,0,0,0-.643,1.562h3.705v-.1a2.409,2.409,0,0,0-.52-1.494A1.588,1.588,0,0,0,51.358-6.494Zm5.7-.9.041.93a2.7,2.7,0,0,1,2.215-1.066q2.345,0,2.365,2.646V0H60.416V-4.895a1.7,1.7,0,0,0-.366-1.183,1.466,1.466,0,0,0-1.118-.383,1.825,1.825,0,0,0-1.08.328,2.228,2.228,0,0,0-.725.861V0H55.863V-7.4Zm9.5,6.5a1.822,1.822,0,0,0,1.183-.41A1.443,1.443,0,0,0,68.3-2.331h1.2a2.293,2.293,0,0,1-.437,1.21,2.882,2.882,0,0,1-1.077.916,3.107,3.107,0,0,1-1.425.342,3.047,3.047,0,0,1-2.4-1.008A4.016,4.016,0,0,1,63.26-3.63v-.212a4.453,4.453,0,0,1,.4-1.921,3.02,3.02,0,0,1,1.138-1.306,3.233,3.233,0,0,1,1.753-.465,2.966,2.966,0,0,1,2.068.745,2.663,2.663,0,0,1,.878,1.935H68.3a1.743,1.743,0,0,0-.543-1.179,1.691,1.691,0,0,0-1.207-.461,1.77,1.77,0,0,0-1.494.694,3.259,3.259,0,0,0-.53,2.006v.239a3.194,3.194,0,0,0,.526,1.969A1.779,1.779,0,0,0,66.555-.9ZM72.29,0H71.025V-7.4H72.29ZM70.923-9.358a.755.755,0,0,1,.188-.52.706.706,0,0,1,.557-.212.717.717,0,0,1,.561.212.747.747,0,0,1,.191.52.722.722,0,0,1-.191.513.73.73,0,0,1-.561.205.718.718,0,0,1-.557-.205A.73.73,0,0,1,70.923-9.358ZM78.88,0A2.657,2.657,0,0,1,78.7-.779,2.822,2.822,0,0,1,76.6.137,2.611,2.611,0,0,1,74.8-.482a2,2,0,0,1-.7-1.569,2.091,2.091,0,0,1,.878-1.794,4.141,4.141,0,0,1,2.471-.639h1.23v-.581a1.42,1.42,0,0,0-.4-1.056,1.593,1.593,0,0,0-1.169-.393,1.844,1.844,0,0,0-1.135.342,1.007,1.007,0,0,0-.458.827H74.252a1.745,1.745,0,0,1,.393-1.07,2.683,2.683,0,0,1,1.066-.817,3.588,3.588,0,0,1,1.48-.3,2.924,2.924,0,0,1,2,.639,2.306,2.306,0,0,1,.752,1.76v3.4a4.162,4.162,0,0,0,.26,1.62V0Zm-2.1-.964a2.223,2.223,0,0,0,1.128-.308,1.861,1.861,0,0,0,.772-.8V-3.589H77.69q-2.324,0-2.324,1.36a1.151,1.151,0,0,0,.4.93A1.524,1.524,0,0,0,76.781-.964Z" transform="translate(720 3515)" fill="#12263f"/>
    <path id="Trazado_880608" data-name="Trazado 880608" d="M2.563,0H1.251V-9.953H2.563Zm3.4-7.4L6-6.467A2.7,2.7,0,0,1,8.217-7.533q2.345,0,2.365,2.646V0H9.317V-4.895a1.7,1.7,0,0,0-.366-1.183A1.466,1.466,0,0,0,7.834-6.46a1.825,1.825,0,0,0-1.08.328,2.228,2.228,0,0,0-.725.861V0H4.765V-7.4Zm8.948,5.544L16.632-7.4h1.354L15.012,1.142q-.69,1.846-2.194,1.846l-.239-.021-.472-.089V1.853l.342.027a1.683,1.683,0,0,0,1-.26,1.88,1.88,0,0,0,.591-.95l.28-.752L11.683-7.4h1.381ZM22.094.137a3.232,3.232,0,0,1-2.447-.988A3.666,3.666,0,0,1,18.7-3.493v-.232a4.438,4.438,0,0,1,.42-1.965A3.28,3.28,0,0,1,20.3-7.044a2.956,2.956,0,0,1,1.637-.489,2.77,2.77,0,0,1,2.242.95,4.114,4.114,0,0,1,.8,2.721v.526H19.968a2.629,2.629,0,0,0,.639,1.767A2.009,2.009,0,0,0,22.162-.9,2.2,2.2,0,0,0,23.3-1.169a2.851,2.851,0,0,0,.813-.725l.772.6A3.106,3.106,0,0,1,22.094.137Zm-.157-6.631a1.687,1.687,0,0,0-1.285.557,2.708,2.708,0,0,0-.643,1.562h3.705v-.1a2.409,2.409,0,0,0-.52-1.494A1.588,1.588,0,0,0,21.937-6.494ZM29.408-.9a1.822,1.822,0,0,0,1.183-.41,1.443,1.443,0,0,0,.561-1.025h1.2a2.293,2.293,0,0,1-.437,1.21,2.881,2.881,0,0,1-1.077.916,3.107,3.107,0,0,1-1.425.342,3.047,3.047,0,0,1-2.4-1.008,4.016,4.016,0,0,1-.892-2.758v-.212a4.453,4.453,0,0,1,.4-1.921,3.02,3.02,0,0,1,1.138-1.306A3.233,3.233,0,0,1,29.4-7.533a2.966,2.966,0,0,1,2.068.745,2.663,2.663,0,0,1,.878,1.935h-1.2a1.743,1.743,0,0,0-.543-1.179A1.691,1.691,0,0,0,29.4-6.494a1.77,1.77,0,0,0-1.494.694,3.259,3.259,0,0,0-.53,2.006v.239A3.194,3.194,0,0,0,27.9-1.586,1.779,1.779,0,0,0,29.408-.9Zm7.328,0a1.822,1.822,0,0,0,1.183-.41,1.443,1.443,0,0,0,.561-1.025h1.2a2.293,2.293,0,0,1-.437,1.21,2.881,2.881,0,0,1-1.077.916,3.107,3.107,0,0,1-1.425.342,3.047,3.047,0,0,1-2.4-1.008,4.016,4.016,0,0,1-.892-2.758v-.212a4.453,4.453,0,0,1,.4-1.921,3.02,3.02,0,0,1,1.138-1.306,3.233,3.233,0,0,1,1.753-.465,2.966,2.966,0,0,1,2.068.745,2.663,2.663,0,0,1,.878,1.935h-1.2a1.743,1.743,0,0,0-.543-1.179,1.691,1.691,0,0,0-1.207-.461,1.77,1.77,0,0,0-1.494.694,3.259,3.259,0,0,0-.53,2.006v.239a3.194,3.194,0,0,0,.526,1.969A1.779,1.779,0,0,0,36.736-.9Zm5.735.9H41.207V-7.4h1.265ZM41.1-9.358a.755.755,0,0,1,.188-.52.706.706,0,0,1,.557-.212.717.717,0,0,1,.561.212.747.747,0,0,1,.191.52.722.722,0,0,1-.191.513.73.73,0,0,1-.561.205.718.718,0,0,1-.557-.205A.73.73,0,0,1,41.1-9.358ZM44.16-3.767a4.369,4.369,0,0,1,.427-1.955,3.187,3.187,0,0,1,1.189-1.34,3.238,3.238,0,0,1,1.74-.472A3.119,3.119,0,0,1,49.96-6.487a4.024,4.024,0,0,1,.933,2.782v.089a4.407,4.407,0,0,1-.414,1.938A3.14,3.14,0,0,1,49.3-.342,3.275,3.275,0,0,1,47.53.137,3.111,3.111,0,0,1,45.093-.909a4,4,0,0,1-.933-2.769Zm1.271.15A3.164,3.164,0,0,0,46-1.641,1.827,1.827,0,0,0,47.53-.9a1.816,1.816,0,0,0,1.531-.755,3.46,3.46,0,0,0,.567-2.116,3.159,3.159,0,0,0-.578-1.972,1.836,1.836,0,0,0-1.535-.755,1.816,1.816,0,0,0-1.511.745A3.434,3.434,0,0,0,45.432-3.616Zm2.659-6.87h1.531L47.79-8.477l-1.019,0ZM53.676-7.4l.041.93a2.7,2.7,0,0,1,2.215-1.066q2.345,0,2.365,2.646V0H57.032V-4.895a1.7,1.7,0,0,0-.366-1.183,1.466,1.466,0,0,0-1.118-.383,1.825,1.825,0,0,0-1.08.328,2.228,2.228,0,0,0-.725.861V0H52.479V-7.4Z" transform="translate(720 3644)" fill="#12263f"/>
    <path id="Trazado_880611" data-name="Trazado 880611" d="M2.563,0H1.251V-9.953H2.563ZM4.43-3.767a4.369,4.369,0,0,1,.427-1.955,3.187,3.187,0,0,1,1.189-1.34,3.238,3.238,0,0,1,1.74-.472A3.119,3.119,0,0,1,10.23-6.487a4.024,4.024,0,0,1,.933,2.782v.089a4.407,4.407,0,0,1-.414,1.938A3.14,3.14,0,0,1,9.567-.342,3.275,3.275,0,0,1,7.8.137,3.111,3.111,0,0,1,5.363-.909,4,4,0,0,1,4.43-3.678Zm1.271.15a3.164,3.164,0,0,0,.571,1.976A1.827,1.827,0,0,0,7.8-.9a1.816,1.816,0,0,0,1.531-.755A3.46,3.46,0,0,0,9.9-3.767a3.159,3.159,0,0,0-.578-1.972,1.836,1.836,0,0,0-1.535-.755,1.816,1.816,0,0,0-1.511.745A3.434,3.434,0,0,0,5.7-3.616Zm14.567.458A3.662,3.662,0,0,1,19.1-.721,3.82,3.82,0,0,1,16.5.137a3.507,3.507,0,0,1-2.827-1.265,5.088,5.088,0,0,1-1.063-3.384v-.957a5.671,5.671,0,0,1,.5-2.44,3.7,3.7,0,0,1,1.4-1.617,3.911,3.911,0,0,1,2.105-.564,3.6,3.6,0,0,1,2.543.885,3.706,3.706,0,0,1,1.114,2.451H18.949a2.86,2.86,0,0,0-.742-1.728,2.244,2.244,0,0,0-1.6-.535,2.348,2.348,0,0,0-1.972.93,4.271,4.271,0,0,0-.714,2.648v.965A4.391,4.391,0,0,0,14.6-1.894,2.187,2.187,0,0,0,16.5-.937a2.526,2.526,0,0,0,1.678-.5,2.75,2.75,0,0,0,.776-1.726Z" transform="translate(569 3569)" fill="#12263f"/>
  </g>
</svg>
