<svg xmlns="http://www.w3.org/2000/svg" width="70" height="70" viewBox="0 0 70 70">
  <g id="Grupo_1103899" data-name="Grupo 1103899" transform="translate(-201 -10871)">
    <g id="Elipse_11756" data-name="Elipse 11756" transform="translate(201 10871)" fill="#fff" stroke="#a854f3" stroke-width="3">
      <circle cx="35" cy="35" r="35" stroke="none"/>
      <circle cx="35" cy="35" r="33.5" fill="none"/>
    </g>
    <g id="Grupo_1103898" data-name="Grupo 1103898" transform="translate(215.251 10885.252)">
      <path id="Trazado_880029" data-name="Trazado 880029" d="M35.4,29.034V26.482A3.189,3.189,0,0,0,32.215,23.3H26.853a17.956,17.956,0,0,0,1.419-3.419l2.421-1.937A2.353,2.353,0,0,0,29.3,13.749l1.419-3.9A6.593,6.593,0,0,0,24.522,1H19.114A21.574,21.574,0,0,0,7.67,4.282a.637.637,0,0,0,.136,1.147l1.536.51a1.636,1.636,0,0,1,1,2.159,2.91,2.91,0,0,0,.1,2.382l1.642,3.281a2.35,2.35,0,0,0-1.279,4.18l2.421,1.937A17.956,17.956,0,0,0,14.644,23.3H9.282A3.189,3.189,0,0,0,6.1,26.482v2.552A8.293,8.293,0,0,0,1,36.675V39.86a.637.637,0,0,0,.637.637H39.86a.637.637,0,0,0,.637-.637V36.675a8.293,8.293,0,0,0-5.1-7.641ZM25.845,13.741H22.023a.637.637,0,0,0-.637.637v.637H20.111v-.637a.637.637,0,0,0-.637-.637H13.741v-.933l3.976-2.651a5.2,5.2,0,0,1,2.891-.875A6.506,6.506,0,0,0,24.659,7.86L25.7,7.028l1.093,1.64a5.714,5.714,0,0,1,.963,3.18v1.893Zm-.637,1.274v1.911a.637.637,0,0,1-.637.637H23.3a.637.637,0,0,1-.637-.637V15.015Zm-6.37,0v1.911a.637.637,0,0,1-.637.637H16.926a.637.637,0,0,1-.637-.637V15.015ZM30.3,16.1a1.079,1.079,0,0,1-.406.846l-1.155.924a17.927,17.927,0,0,0,.277-2.853h.2A1.083,1.083,0,0,1,30.3,16.1ZM11.526,8.571A2.91,2.91,0,0,0,9.745,4.73L9.55,4.666a20.3,20.3,0,0,1,9.563-2.392h5.409a5.319,5.319,0,0,1,5,7.135l-.554,1.523a6.986,6.986,0,0,0-1.115-2.974L26.375,5.74a.638.638,0,0,0-.928-.144l-1.583,1.27a5.233,5.233,0,0,1-3.255,1.142A6.467,6.467,0,0,0,17.01,9.1l-4.26,2.84a.632.632,0,0,0-.108.093l-1.06-2.121A1.635,1.635,0,0,1,11.526,8.571Zm.074,8.375a1.083,1.083,0,0,1,.676-1.93h.2a17.927,17.927,0,0,0,.277,2.854Zm2.151-1.93h1.264v1.911a1.911,1.911,0,0,0,1.911,1.911H18.2a1.911,1.911,0,0,0,1.911-1.911v-.637h1.274v.637A1.911,1.911,0,0,0,23.3,18.837h1.274a1.911,1.911,0,0,0,1.911-1.911V15.015h1.264A16.68,16.68,0,0,1,25.382,23.3H16.115a16.68,16.68,0,0,1-2.364-8.282Zm-4.47,9.556H32.215a1.911,1.911,0,0,1,1.911,1.911V39.223H7.37V26.482a1.911,1.911,0,0,1,1.911-1.911Zm-7.008,12.1A7.018,7.018,0,0,1,6.1,30.436v8.787H2.274Zm36.949,2.548H35.4V30.436a7.018,7.018,0,0,1,3.822,6.239Z" fill="#a854f3"/>
      <path id="Trazado_880030" data-name="Trazado 880030" d="M30.548,55.1A2.548,2.548,0,1,0,28,52.548,2.548,2.548,0,0,0,30.548,55.1Zm0-3.822a1.274,1.274,0,1,1-1.274,1.274A1.274,1.274,0,0,1,30.548,51.274Z" transform="translate(-9.8 -17.785)" fill="#a854f3"/>
      <path id="Trazado_880031" data-name="Trazado 880031" d="M23.735,45.29l.9-.9-2.1-2.1,2.1-2.1-.9-.9-2.548,2.548a.637.637,0,0,0,0,.9Z" transform="translate(-7.259 -13.898)" fill="#a854f3"/>
      <path id="Trazado_880032" data-name="Trazado 880032" d="M38.194,45.29l2.548-2.548a.637.637,0,0,0,0-.9l-2.548-2.548-.9.9,2.1,2.1-2.1,2.1Z" transform="translate(-13.173 -13.898)" fill="#a854f3"/>
      <rect id="Rectángulo_404110" data-name="Rectángulo 404110" width="6.37" height="1.274" transform="matrix(0.6, -0.8, 0.8, 0.6, 18.327, 30.558)" fill="#a854f3"/>
    </g>
  </g>
</svg>
