<svg xmlns="http://www.w3.org/2000/svg" width="275" height="130" viewBox="0 0 275 130">
  <g id="Grupo_1104215" data-name="Grupo 1104215" transform="translate(-4107 2794)">
    <path id="Rectángulo_404070" data-name="Rectángulo 404070" d="M14,0H261a14,14,0,0,1,14,14V130a0,0,0,0,1,0,0H0a0,0,0,0,1,0,0V14A14,14,0,0,1,14,0Z" transform="translate(4107 -2794)" fill="#aec4fa"/>
    <g id="Grupo_1103853" data-name="Grupo 1103853" transform="translate(3802 -11363)">
      <circle id="Elipse_11750" data-name="Elipse 11750" cx="50.5" cy="50.5" r="50.5" transform="translate(392 8584)" fill="#00ffdf"/>
      <g id="Grupo_1103854" data-name="Grupo 1103854" transform="translate(417.5 8609)">
        <path id="Trazado_879912" data-name="Trazado 879912" d="M91.819,157.315a2.827,2.827,0,0,1-2.827,2.827H71.116a2.827,2.827,0,0,0-2.827,2.827v23.914a2.827,2.827,0,0,0,2.827,2.827h36.326a2.827,2.827,0,0,0,2.827-2.827V157.315a2.827,2.827,0,0,0-2.827-2.827h-12.8a2.827,2.827,0,0,0-2.827,2.827Zm0,0" transform="translate(-60.965 -138.937)" fill="#e58e13"/>
        <path id="Trazado_879913" data-name="Trazado 879913" d="M148.375,83.016h30.616v39.123H148.375Zm0,0" transform="translate(-132.989 -74.659)" fill="#cbcbcb"/>
        <path id="Trazado_879914" data-name="Trazado 879914" d="M99.441,7.605h30.616v25.96H99.441Zm0,0" transform="translate(-88.981 -6.84)" fill="#cbcbcb"/>
        <path id="Trazado_879915" data-name="Trazado 879915" d="M50.508,83.016H81.124v18.369H50.508Zm0,0" transform="translate(-44.974 -74.659)" fill="#e6e6e6"/>
        <path id="Trazado_879916" data-name="Trazado 879916" d="M31.631,157.315a2.827,2.827,0,0,1-2.827,2.827H10.928A2.827,2.827,0,0,0,8.1,162.969v23.914a2.827,2.827,0,0,0,2.827,2.827H47.255a2.827,2.827,0,0,0,2.827-2.827V157.315a2.827,2.827,0,0,0-2.827-2.827h-12.8a2.827,2.827,0,0,0-2.827,2.827Zm0,0" transform="translate(-6.836 -138.937)" fill="#f7d360"/>
        <path id="Trazado_879917" data-name="Trazado 879917" d="M230.492,251.816h15.92v5.664h-15.92Zm0,0" transform="translate(-206.84 -226.467)" fill="#fc5f61"/>
        <path id="Trazado_879918" data-name="Trazado 879918" d="M46.767,14.8V8.357A.766.766,0,0,0,46,7.591h-4.16V.766A.766.766,0,0,0,41.076,0H10.46a.765.765,0,0,0-.765.766V7.591H5.534a.765.765,0,0,0-.765.766V20.44H4.093A3.6,3.6,0,0,0,.5,24.033V47.947a3.6,3.6,0,0,0,3.592,3.593H46.478a3.6,3.6,0,0,0,3.592-3.592V18.379a3.6,3.6,0,0,0-3.3-3.58ZM11.225,1.531H40.311V14.786h-3.4V8.357a.765.765,0,0,0-.765-.766H11.225ZM2.031,47.947V24.033a2.064,2.064,0,0,1,2.062-2.062h3a.766.766,0,0,0,0-1.531H6.3V9.122H35.384v5.664H27.623a3.6,3.6,0,0,0-3.592,3.592,2.064,2.064,0,0,1-2.062,2.062H10.151a.766.766,0,0,0,0,1.531H21.969a3.6,3.6,0,0,0,3.593-3.593,2.064,2.064,0,0,1,2.062-2.062h12.8a2.064,2.064,0,0,1,2.062,2.062V47.947a2.064,2.064,0,0,1-2.06,2.062H4.093a2.064,2.064,0,0,1-2.062-2.062Zm46.508,0a2.064,2.064,0,0,1-2.062,2.062H43.358A3.571,3.571,0,0,0,44,48.245h2a.766.766,0,0,0,.766-.766V27.186a.766.766,0,0,0-1.531,0V46.714H44.012V18.378a3.6,3.6,0,0,0-2.17-3.3V9.122h3.394v15a.766.766,0,0,0,1.531,0V16.34a2.063,2.063,0,0,1,1.773,2.039Zm0,0" transform="translate(0 0)"/>
        <path id="Trazado_879919" data-name="Trazado 879919" d="M91.355,116.48h18.37a.766.766,0,0,0,0-1.531H91.355a.766.766,0,0,0,0,1.531Zm0,0" transform="translate(-81.021 -103.378)"/>
        <path id="Trazado_879920" data-name="Trazado 879920" d="M91.355,154.5h10.508a.765.765,0,0,0,0-1.531H91.355a.765.765,0,0,0,0,1.531Zm0,0" transform="translate(-81.021 -137.571)"/>
        <path id="Trazado_879921" data-name="Trazado 879921" d="M239.576,244.211h-15.92a.765.765,0,0,0-.765.766v5.664a.765.765,0,0,0,.765.766h15.92a.766.766,0,0,0,.766-.766v-5.664A.766.766,0,0,0,239.576,244.211Zm-.765,5.664h-14.39v-4.133h14.39Zm0,0" transform="translate(-200.004 -219.628)"/>
      </g>
    </g>
  </g>
</svg>
