<svg xmlns="http://www.w3.org/2000/svg" width="70" height="70" viewBox="0 0 70 70">
  <g id="Grupo_1103893" data-name="Grupo 1103893" transform="translate(-201 -10651)">
    <g id="Elipse_11751" data-name="Elipse 11751" transform="translate(201 10651)" fill="#fff" stroke="#a854f3" stroke-width="3">
      <circle cx="35" cy="35" r="35" stroke="none"/>
      <circle cx="35" cy="35" r="33.5" fill="none"/>
    </g>
    <g id="Grupo_1103892" data-name="Grupo 1103892" transform="translate(215.928 10598.498)">
      <g id="Grupo_1103891" data-name="Grupo 1103891" transform="translate(0 73.166)">
        <path id="Trazado_879998" data-name="Trazado 879998" d="M38.586,96.855h-.932a2.657,2.657,0,0,0,.46-1.5V75.839a2.676,2.676,0,0,0-2.673-2.673H4.7A2.676,2.676,0,0,0,2.03,75.839V95.358a2.657,2.657,0,0,0,.46,1.5H1.558A1.56,1.56,0,0,0,0,98.413a3.428,3.428,0,0,0,3.424,3.424H26.179a.588.588,0,1,0,0-1.175H3.424a2.251,2.251,0,0,1-2.249-2.249.383.383,0,0,1,.383-.383h13.8v.148a1.757,1.757,0,0,0,1.755,1.755h5.927a1.757,1.757,0,0,0,1.755-1.755V98.03h13.8a.383.383,0,0,1,.383.383,2.251,2.251,0,0,1-2.249,2.249H28.849a.588.588,0,1,0,0,1.175h7.871a3.428,3.428,0,0,0,3.424-3.424,1.56,1.56,0,0,0-1.558-1.558ZM23.616,98.178a.581.581,0,0,1-.58.58H17.109a.581.581,0,0,1-.58-.58V98.03h7.087v.148Zm13.323-2.821a1.5,1.5,0,0,1-1.5,1.5H4.7a1.5,1.5,0,0,1-1.5-1.5V75.839a1.5,1.5,0,0,1,1.5-1.5H35.442a1.5,1.5,0,0,1,1.5,1.5V95.358Z" transform="translate(0 -73.166)" fill="#a854f3"/>
        <path id="Trazado_879999" data-name="Trazado 879999" d="M96.111,147.112h.972a.588.588,0,0,0,0-1.175h-.972a.588.588,0,0,0,0,1.175Z" transform="translate(-88.033 -140.231)" fill="#a854f3"/>
        <path id="Trazado_880000" data-name="Trazado 880000" d="M96.111,178.428h.972a.588.588,0,1,0,0-1.175h-.972a.588.588,0,1,0,0,1.175Z" transform="translate(-88.033 -169.092)" fill="#a854f3"/>
        <path id="Trazado_880001" data-name="Trazado 880001" d="M96.111,209.745h.972a.588.588,0,1,0,0-1.175h-.972a.588.588,0,1,0,0,1.175Z" transform="translate(-88.033 -197.953)" fill="#a854f3"/>
        <path id="Trazado_880002" data-name="Trazado 880002" d="M96.111,241.061h.972a.588.588,0,1,0,0-1.175h-.972a.588.588,0,0,0,0,1.175Z" transform="translate(-88.033 -226.814)" fill="#a854f3"/>
        <path id="Trazado_880003" data-name="Trazado 880003" d="M96.111,272.377h.972a.588.588,0,1,0,0-1.175h-.972a.588.588,0,1,0,0,1.175Z" transform="translate(-88.033 -255.675)" fill="#a854f3"/>
        <path id="Trazado_880004" data-name="Trazado 880004" d="M96.111,303.693h.972a.588.588,0,1,0,0-1.175h-.972a.588.588,0,1,0,0,1.175Z" transform="translate(-88.033 -284.535)" fill="#a854f3"/>
        <path id="Trazado_880005" data-name="Trazado 880005" d="M178.862,147.112h1.855a.588.588,0,0,0,0-1.175h-1.855a.588.588,0,0,0,0,1.175Z" transform="translate(-164.296 -140.231)" fill="#a854f3"/>
        <path id="Trazado_880006" data-name="Trazado 880006" d="M192.817,302.519H178.862a.588.588,0,1,0,0,1.175h13.955a.588.588,0,0,0,0-1.175Z" transform="translate(-164.296 -284.536)" fill="#a854f3"/>
        <path id="Trazado_880007" data-name="Trazado 880007" d="M178.862,209.745h1.855a.588.588,0,0,0,0-1.175h-1.855a.588.588,0,1,0,0,1.175Z" transform="translate(-164.296 -197.953)" fill="#a854f3"/>
        <path id="Trazado_880008" data-name="Trazado 880008" d="M178.862,241.061h1.855a.588.588,0,0,0,0-1.175h-1.855a.588.588,0,0,0,0,1.175Z" transform="translate(-164.296 -226.814)" fill="#a854f3"/>
        <path id="Trazado_880009" data-name="Trazado 880009" d="M285.742,272.377a.588.588,0,0,0,0-1.175h-1.855a.588.588,0,1,0,0,1.175Z" transform="translate(-261.086 -255.675)" fill="#a854f3"/>
        <path id="Trazado_880010" data-name="Trazado 880010" d="M178.862,272.377h5.507a.588.588,0,1,0,0-1.175h-5.507a.588.588,0,1,0,0,1.175Z" transform="translate(-164.296 -255.675)" fill="#a854f3"/>
        <path id="Trazado_880011" data-name="Trazado 880011" d="M239.294,209.745a.588.588,0,0,0,0-1.175h-1.855a.588.588,0,1,0,0,1.175Z" transform="translate(-218.28 -197.953)" fill="#a854f3"/>
        <path id="Trazado_880012" data-name="Trazado 880012" d="M295.2,208.57h-5.245a.588.588,0,1,0,0,1.175H295.2a.588.588,0,1,0,0-1.175Z" transform="translate(-266.676 -197.953)" fill="#a854f3"/>
        <path id="Trazado_880013" data-name="Trazado 880013" d="M250.246,145.938H237.439a.588.588,0,1,0,0,1.175h12.807a.588.588,0,0,0,0-1.175Z" transform="translate(-218.28 -140.232)" fill="#a854f3"/>
        <path id="Trazado_880014" data-name="Trazado 880014" d="M192.817,177.254H178.862a.588.588,0,1,0,0,1.175h13.955a.588.588,0,1,0,0-1.175Z" transform="translate(-164.296 -169.093)" fill="#a854f3"/>
        <path id="Trazado_880015" data-name="Trazado 880015" d="M87.368,108.708H59.375a1.543,1.543,0,0,0-1.541,1.541v1.694a.588.588,0,0,0,1.175,0v-1.694a.366.366,0,0,1,.366-.366h5.341v16.94H59.375a.366.366,0,0,1-.366-.366V114.67a.588.588,0,0,0-1.175,0v11.787A1.543,1.543,0,0,0,59.375,128H87.368a1.543,1.543,0,0,0,1.541-1.541V110.249A1.543,1.543,0,0,0,87.368,108.708Zm.366,17.75a.366.366,0,0,1-.366.366H65.891v-16.94H87.368a.366.366,0,0,1,.366.366v16.209Z" transform="translate(-53.299 -105.921)" fill="#a854f3"/>
      </g>
    </g>
  </g>
</svg>
