<svg xmlns="http://www.w3.org/2000/svg" width="190" height="164" viewBox="0 0 190 164">
  <g id="Grupo_1104204" data-name="Grupo 1104204" transform="translate(-1230 -19759)">
    <rect id="Rect치ngulo_403857" data-name="Rect치ngulo 403857" width="190" height="164" rx="10" transform="translate(1230 19759)" fill="#f0c518"/>
    <rect id="Rect치ngulo_404304" data-name="Rect치ngulo 404304" width="160" height="124" rx="10" transform="translate(1245 19779)" fill="#fff" opacity="0.6"/>
    <g id="Grupo_1104203" data-name="Grupo 1104203" transform="translate(1290.043 19795.365)">
      <g id="Grupo_1104201" data-name="Grupo 1104201" transform="translate(1.024 18.024)">
        <g id="Grupo_1104200" data-name="Grupo 1104200">
          <g id="Grupo_1104192" data-name="Grupo 1104192" transform="translate(19.381 45.94)">
            <path id="Trazado_880463" data-name="Trazado 880463" d="M149.434,372.485h29.1l-6.062-11.547H155.5Z" transform="translate(-149.434 -360.938)" fill="#a79ba7"/>
          </g>
          <path id="Trazado_880464" data-name="Trazado 880464" d="M172.475,360.938h-4.588l3.04,5.792a1.366,1.366,0,0,1-1.209,2H151.405l-1.971,3.755h29.1Z" transform="translate(-130.053 -314.998)" fill="#918291"/>
          <path id="Trazado_880465" data-name="Trazado 880465" d="M71.951,70.577H10.914A3.414,3.414,0,0,1,7.5,67.163V27.914A3.414,3.414,0,0,1,10.914,24.5H71.951a3.414,3.414,0,0,1,3.414,3.414V67.163A3.414,3.414,0,0,1,71.951,70.577Z" transform="translate(-7.5 -24.5)" fill="#efedef"/>
          <path id="Trazado_880466" data-name="Trazado 880466" d="M71.951,24.5H69.835V64.987a1.365,1.365,0,0,1-1.365,1.365H7.5v.811a3.414,3.414,0,0,0,3.414,3.414H71.951a3.414,3.414,0,0,0,3.414-3.414V27.914A3.414,3.414,0,0,0,71.951,24.5Z" transform="translate(-7.5 -24.5)" fill="#e5e1e5"/>
          <g id="Grupo_1104194" data-name="Grupo 1104194" transform="translate(47.86 5.286)">
            <path id="Trazado_880467" data-name="Trazado 880467" d="M358.683,63.209h2.983a.683.683,0,0,1,.683.683v2.835a.683.683,0,0,1-.683.683h-2.983a.683.683,0,0,1-.683-.683V63.892A.683.683,0,0,1,358.683,63.209Z" transform="translate(-358 -63.209)" fill="#cbc4cc"/>
            <path id="Trazado_880468" data-name="Trazado 880468" d="M441.319,122.946h-2.983a.683.683,0,0,0-.683.683v2.835a.683.683,0,0,0,.683.683h2.983a.683.683,0,0,0,.683-.683v-2.835A.683.683,0,0,0,441.319,122.946Z" transform="translate(-426.776 -114.789)" fill="#fe73c5"/>
            <g id="Grupo_1104193" data-name="Grupo 1104193" transform="translate(0 16.314)">
              <path id="Trazado_880469" data-name="Trazado 880469" d="M358.683,182.683h2.983a.683.683,0,0,1,.683.683V186.2a.683.683,0,0,1-.683.683h-2.983A.683.683,0,0,1,358,186.2v-2.835A.683.683,0,0,1,358.683,182.683Z" transform="translate(-358 -182.683)" fill="#cbc4cc"/>
              <path id="Trazado_880470" data-name="Trazado 880470" d="M441.319,242.42h-2.983a.683.683,0,0,0-.683.683v2.835a.683.683,0,0,0,.683.683h2.983a.683.683,0,0,0,.683-.683V243.1A.683.683,0,0,0,441.319,242.42Z" transform="translate(-426.776 -234.263)" fill="#cbc4cc"/>
            </g>
          </g>
          <path id="Trazado_880471" data-name="Trazado 880471" d="M7.5,315.309a3.414,3.414,0,0,0,3.414,3.414H71.951a3.414,3.414,0,0,0,3.414-3.414v-3.42H7.5Z" transform="translate(-7.5 -272.646)" fill="#cbc4cc"/>
          <path id="Trazado_880472" data-name="Trazado 880472" d="M69.835,311.889v1.244a1.365,1.365,0,0,1-1.365,1.365H7.5v.811a3.414,3.414,0,0,0,3.414,3.414H71.951a3.414,3.414,0,0,0,3.414-3.414v-3.42Z" transform="translate(-7.5 -272.646)" fill="#b5adb6"/>
          <path id="Trazado_880473" data-name="Trazado 880473" d="M127.471,444.5H84.048A2.048,2.048,0,0,0,82,446.548v1.775a2.048,2.048,0,0,0,2.048,2.048h43.423a2.048,2.048,0,0,0,2.048-2.048v-1.775A2.048,2.048,0,0,0,127.471,444.5Z" transform="translate(-71.827 -387.149)" fill="#cbc4cc"/>
          <path id="Trazado_880474" data-name="Trazado 880474" d="M127.471,444.5h-4.779v1.707a1.365,1.365,0,0,1-1.365,1.366H82v.751a2.048,2.048,0,0,0,2.048,2.048h43.423a2.048,2.048,0,0,0,2.048-2.048v-1.775A2.048,2.048,0,0,0,127.471,444.5Z" transform="translate(-71.827 -387.149)" fill="#b5adb6"/>
          <g id="Grupo_1104197" data-name="Grupo 1104197" transform="translate(24.827 5.286)">
            <g id="Grupo_1104195" data-name="Grupo 1104195">
              <path id="Trazado_880475" data-name="Trazado 880475" d="M212.7,74.818V69.635a2.661,2.661,0,1,1,5.322,0v5.182h3.766V69.635a6.427,6.427,0,1,0-12.854,0v5.182Z" transform="translate(-206.255 -63.208)" fill="#b5adb6"/>
              <path id="Trazado_880476" data-name="Trazado 880476" d="M205.695,164.548H191.156a1.835,1.835,0,0,1-1.835-1.835V149.2a1.835,1.835,0,0,1,1.835-1.835h14.539a1.835,1.835,0,0,1,1.835,1.835v13.509A1.835,1.835,0,0,1,205.695,164.548Z" transform="translate(-189.32 -135.876)" fill="#8795de"/>
              <path id="Trazado_880477" data-name="Trazado 880477" d="M205.695,147.368h-2.441v11.086a1.835,1.835,0,0,1-1.835,1.835h-12.1v2.422a1.835,1.835,0,0,0,1.835,1.835h14.539a1.835,1.835,0,0,0,1.835-1.835V149.2A1.835,1.835,0,0,0,205.695,147.368Z" transform="translate(-189.32 -135.876)" fill="#6c7fd8"/>
            </g>
            <g id="Grupo_1104196" data-name="Grupo 1104196" transform="translate(6.658 15.897)">
              <circle id="Elipse_11766" data-name="Elipse 11766" cx="2.447" cy="2.447" r="2.447" fill="#4f66d0"/>
            </g>
          </g>
          <path id="Trazado_880478" data-name="Trazado 880478" d="M43.183,63.209h4.984a.683.683,0,0,1,.683.683v2.835a.683.683,0,0,1-.683.683H43.183a.683.683,0,0,1-.683-.683V63.892A.683.683,0,0,1,43.183,63.209Z" transform="translate(-37.721 -57.923)" fill="#fe73c5"/>
          <path id="Trazado_880479" data-name="Trazado 880479" d="M43.183,122.946h4.984a.683.683,0,0,1,.683.683v2.835a.683.683,0,0,1-.683.683H43.183a.683.683,0,0,1-.683-.683v-2.835A.683.683,0,0,1,43.183,122.946Z" transform="translate(-37.721 -109.503)" fill="#cbc4cc"/>
          <path id="Trazado_880480" data-name="Trazado 880480" d="M125.819,242.42h-2.983a.683.683,0,0,0-.683.683v2.835a.683.683,0,0,0,.683.683h2.983a.683.683,0,0,0,.683-.683V243.1A.683.683,0,0,0,125.819,242.42Z" transform="translate(-106.497 -212.663)" fill="#9cf8d2"/>
          <g id="Grupo_1104199" data-name="Grupo 1104199" transform="translate(8.329 8.704)">
            <g id="Grupo_1104198" data-name="Grupo 1104198">
              <path id="Trazado_880481" data-name="Trazado 880481" d="M75.386,89.705,68.9,100.945a2.928,2.928,0,0,0,2.536,4.393H84.411a2.928,2.928,0,0,0,2.536-4.393l-6.489-11.24A2.928,2.928,0,0,0,75.386,89.705Z" transform="translate(-68.5 -88.241)" fill="#ffd15b"/>
            </g>
            <path id="Trazado_880482" data-name="Trazado 880482" d="M86.952,100.947l-6.489-11.24a2.933,2.933,0,0,0-4.269-.9l6.565,11.371a1.125,1.125,0,0,1-.975,1.688H68.557a2.932,2.932,0,0,0,2.88,3.474H84.416A2.928,2.928,0,0,0,86.952,100.947Z" transform="translate(-68.504 -88.243)" fill="#ffc344"/>
          </g>
        </g>
      </g>
      <g id="Grupo_1104202" data-name="Grupo 1104202" transform="translate(0 17)">
        <path id="Trazado_880483" data-name="Trazado 880483" d="M464.048,60.934v-4.2a1.024,1.024,0,1,0-2.048,0v4.2a1.024,1.024,0,1,0,2.048,0Z" transform="translate(-398.914 -50.423)"/>
        <path id="Trazado_880484" data-name="Trazado 880484" d="M350.5,120.671a1.024,1.024,0,1,0,2.048,0v-4.2a1.024,1.024,0,1,0-2.048,0Z" transform="translate(-302.64 -102.003)"/>
        <path id="Trazado_880485" data-name="Trazado 880485" d="M462,176.207v4.2a1.024,1.024,0,1,0,2.048,0v-4.2a1.024,1.024,0,1,0-2.048,0Z" transform="translate(-398.914 -153.583)"/>
        <path id="Trazado_880486" data-name="Trazado 880486" d="M350.5,240.145a1.024,1.024,0,1,0,2.048,0v-4.2a1.024,1.024,0,1,0-2.048,0Z" transform="translate(-302.64 -205.163)"/>
        <path id="Trazado_880487" data-name="Trazado 880487" d="M438.048,60.934v-4.2a1.024,1.024,0,0,0-2.048,0v4.2a1.024,1.024,0,0,0,2.048,0Z" transform="translate(-376.465 -50.423)"/>
        <path id="Trazado_880488" data-name="Trazado 880488" d="M376.5,116.47v4.2a1.024,1.024,0,0,0,2.048,0v-4.2a1.024,1.024,0,0,0-2.048,0Z" transform="translate(-325.089 -102.003)"/>
        <path id="Trazado_880489" data-name="Trazado 880489" d="M436,176.207v4.2a1.024,1.024,0,1,0,2.048,0v-4.2a1.024,1.024,0,1,0-2.048,0Z" transform="translate(-376.465 -153.583)"/>
        <path id="Trazado_880490" data-name="Trazado 880490" d="M376.5,235.944v4.2a1.024,1.024,0,1,0,2.048,0v-4.2a1.024,1.024,0,1,0-2.048,0Z" transform="translate(-325.089 -205.163)"/>
        <path id="Trazado_880491" data-name="Trazado 880491" d="M412.048,56.733a1.024,1.024,0,1,0-2.048,0v4.2a1.024,1.024,0,1,0,2.048,0Z" transform="translate(-354.015 -50.423)"/>
        <path id="Trazado_880492" data-name="Trazado 880492" d="M402.5,116.47v4.2a1.024,1.024,0,0,0,2.048,0v-4.2a1.024,1.024,0,0,0-2.048,0Z" transform="translate(-347.539 -102.003)"/>
        <path id="Trazado_880493" data-name="Trazado 880493" d="M411.024,175.183A1.024,1.024,0,0,0,410,176.207v4.2a1.024,1.024,0,1,0,2.048,0v-4.2A1.024,1.024,0,0,0,411.024,175.183Z" transform="translate(-354.015 -153.583)"/>
        <path id="Trazado_880494" data-name="Trazado 880494" d="M402.5,240.145a1.024,1.024,0,1,0,2.048,0v-4.2a1.024,1.024,0,1,0-2.048,0Z" transform="translate(-347.539 -205.163)"/>
        <path id="Trazado_880495" data-name="Trazado 880495" d="M234.049,182.374a1.024,1.024,0,0,0,1.024-1.024v-2.434a3.471,3.471,0,1,0-2.048,0v2.434A1.024,1.024,0,0,0,234.049,182.374Zm-1.423-6.775a1.423,1.423,0,1,1,1.423,1.423A1.425,1.425,0,0,1,232.626,175.6Z" transform="translate(-199.093 -150.945)"/>
        <path id="Trazado_880496" data-name="Trazado 880496" d="M37.048,176.207a1.024,1.024,0,1,0-2.048,0v4.2a1.024,1.024,0,1,0,2.048,0Z" transform="translate(-30.221 -153.583)"/>
        <path id="Trazado_880497" data-name="Trazado 880497" d="M36.024,234.92A1.024,1.024,0,0,0,35,235.944v4.2a1.024,1.024,0,1,0,2.048,0v-4.2A1.024,1.024,0,0,0,36.024,234.92Z" transform="translate(-30.221 -205.163)"/>
        <path id="Trazado_880498" data-name="Trazado 880498" d="M46.675,56.733v3.143a3.965,3.965,0,0,0-1.1,1.227l-2.266,3.925a1.709,1.709,0,0,0-1.616-1.163H36.707A1.709,1.709,0,0,0,35,65.573v2.835a1.709,1.709,0,0,0,1.707,1.707h3.664l-1.287,2.228a3.952,3.952,0,0,0,3.423,5.929H55.048v5.3a2.863,2.863,0,0,0,2.86,2.86H72.447a2.863,2.863,0,0,0,2.859-2.86V78.143a1.024,1.024,0,1,0-2.048,0v5.426a.812.812,0,0,1-.811.811H57.908a.812.812,0,0,1-.811-.811V77.932a3.96,3.96,0,0,0,1.812-5.59l-1.618-2.8a.807.807,0,0,1,.618-.291H72.447a.812.812,0,0,1,.811.811v3.3a1.024,1.024,0,1,0,2.048,0v-3.3a2.861,2.861,0,0,0-2.678-2.85V63.16a7.451,7.451,0,1,0-14.9,0v4.048a2.85,2.85,0,0,0-1.478.528L52.419,61.1q-.069-.12-.146-.233V56.733a1.024,1.024,0,0,0-2.048,0V59.32A4,4,0,0,0,49,59.127c-.092,0-.183,0-.273.009v-2.4a1.024,1.024,0,0,0-2.049,0ZM66.814,67.2H63.54V63.16a1.637,1.637,0,0,1,3.274,0Zm-7.04-4.041a5.4,5.4,0,1,1,10.806,0V67.2H68.862V63.16a3.685,3.685,0,0,0-7.37,0V67.2H59.774V63.16ZM37.048,68.066V65.914h4.3v2.152ZM49,61.175a1.885,1.885,0,0,1,1.649.952l6.489,11.24a1.9,1.9,0,0,1-1.649,2.856H42.507a1.9,1.9,0,0,1-1.649-2.856l6.489-11.24A1.886,1.886,0,0,1,49,61.175Z" transform="translate(-30.221 -50.423)"/>
        <path id="Trazado_880499" data-name="Trazado 880499" d="M61,235.944v4.2a1.024,1.024,0,1,0,2.048,0v-4.2a1.024,1.024,0,1,0-2.048,0Z" transform="translate(-52.671 -205.163)"/>
        <path id="Trazado_880500" data-name="Trazado 880500" d="M87,235.944v4.2a1.024,1.024,0,1,0,2.048,0v-4.2a1.024,1.024,0,1,0-2.048,0Z" transform="translate(-75.12 -205.163)"/>
        <path id="Trazado_880501" data-name="Trazado 880501" d="M131.024,122.432a1.024,1.024,0,0,0,1.024-1.024v-4.691a1.024,1.024,0,1,0-2.048,0v4.691A1.024,1.024,0,0,0,131.024,122.432Z" transform="translate(-112.249 -102.217)"/>
        <path id="Trazado_880502" data-name="Trazado 880502" d="M131.024,174.037a1.024,1.024,0,0,0,1.024-1.024v-.469a1.024,1.024,0,1,0-2.048,0v.469A1.024,1.024,0,0,0,131.024,174.037Z" transform="translate(-112.249 -150.42)"/>
        <path id="Trazado_880503" data-name="Trazado 880503" d="M356.9,60.251V57.416a1.709,1.709,0,0,0-1.707-1.707h-2.983a1.709,1.709,0,0,0-1.707,1.707v2.835a1.709,1.709,0,0,0,1.707,1.707h2.983A1.709,1.709,0,0,0,356.9,60.251Zm-2.048-.341h-2.3V57.757h2.3Z" transform="translate(-302.64 -50.423)"/>
        <path id="Trazado_880504" data-name="Trazado 880504" d="M430.152,117.153v2.835a1.709,1.709,0,0,0,1.707,1.707h2.983a1.709,1.709,0,0,0,1.707-1.707v-2.835a1.709,1.709,0,0,0-1.707-1.707h-2.983A1.709,1.709,0,0,0,430.152,117.153Zm2.048.341h2.3v2.152h-2.3Z" transform="translate(-371.415 -102.003)"/>
        <path id="Trazado_880505" data-name="Trazado 880505" d="M350.5,179.724a1.709,1.709,0,0,0,1.707,1.707h2.983a1.709,1.709,0,0,0,1.707-1.707v-2.835a1.709,1.709,0,0,0-1.707-1.707h-2.983a1.709,1.709,0,0,0-1.707,1.707Zm2.048-2.493h2.3v2.152h-2.3Z" transform="translate(-302.64 -153.582)"/>
        <path id="Trazado_880506" data-name="Trazado 880506" d="M430.152,239.462a1.709,1.709,0,0,0,1.707,1.707h2.983a1.709,1.709,0,0,0,1.707-1.707v-2.835a1.709,1.709,0,0,0-1.707-1.707h-2.983a1.709,1.709,0,0,0-1.707,1.707Zm2.048-2.494h2.3v2.152h-2.3Z" transform="translate(-371.415 -205.163)"/>
        <path id="Trazado_880507" data-name="Trazado 880507" d="M36.707,61.958h4.984A1.709,1.709,0,0,0,43.4,60.251V57.416a1.709,1.709,0,0,0-1.707-1.707H36.707A1.709,1.709,0,0,0,35,57.416v2.835A1.709,1.709,0,0,0,36.707,61.958Zm.341-4.2h4.3v2.152h-4.3Z" transform="translate(-30.221 -50.423)"/>
        <path id="Trazado_880508" data-name="Trazado 880508" d="M116.36,234.92a1.709,1.709,0,0,0-1.707,1.707v2.835a1.709,1.709,0,0,0,1.707,1.707h2.983a1.709,1.709,0,0,0,1.707-1.707v-2.835a1.709,1.709,0,0,0-1.707-1.707Zm2.642,4.2h-2.3v-2.152H119Z" transform="translate(-98.997 -205.163)"/>
        <path id="Trazado_880509" data-name="Trazado 880509" d="M65.475,17H21.612a1.024,1.024,0,0,0,0,2.048H65.475a2.392,2.392,0,0,1,2.39,2.39v34.8H2.048v-34.8a2.392,2.392,0,0,1,2.39-2.39H16.833a1.024,1.024,0,0,0,0-2.048H4.438A4.443,4.443,0,0,0,0,21.438V60.687a4.443,4.443,0,0,0,4.438,4.438H24.7l-4.843,9.226H13.245a3.076,3.076,0,0,0-3.072,3.072V79.2a3.076,3.076,0,0,0,3.072,3.072H56.668A3.076,3.076,0,0,0,59.74,79.2V77.423a3.076,3.076,0,0,0-3.072-3.072H50.055l-4.843-9.226H65.475a4.443,4.443,0,0,0,4.438-4.438V21.438A4.443,4.443,0,0,0,65.475,17ZM47.742,74.351H43.969a1.024,1.024,0,1,0,0,2.048h12.7a1.025,1.025,0,0,1,1.024,1.024V79.2a1.025,1.025,0,0,1-1.024,1.024H13.245A1.025,1.025,0,0,1,12.221,79.2V77.423A1.025,1.025,0,0,1,13.245,76.4H39.19a1.024,1.024,0,0,0,0-2.048H22.171l4.843-9.226H42.9ZM67.865,60.687a2.392,2.392,0,0,1-2.39,2.39H4.438a2.392,2.392,0,0,1-2.39-2.39v-2.4H67.865Z" transform="translate(0 -17)"/>
      </g>
    </g>
  </g>
</svg>
