<svg xmlns="http://www.w3.org/2000/svg" width="70" height="70" viewBox="0 0 70 70">
  <g id="Grupo_1103911" data-name="Grupo 1103911" transform="translate(-515 -10871)">
    <g id="Elipse_11755" data-name="Elipse 11755" transform="translate(515 10871)" fill="#fff" stroke="#a854f3" stroke-width="3">
      <circle cx="35" cy="35" r="35" stroke="none"/>
      <circle cx="35" cy="35" r="33.5" fill="none"/>
    </g>
    <g id="Grupo_1103910" data-name="Grupo 1103910" transform="translate(529.997 10885.979)">
      <g id="Grupo_1103903" data-name="Grupo 1103903" transform="translate(2.516 12.83)">
        <g id="Grupo_1103902" data-name="Grupo 1103902">
          <path id="Trazado_880033" data-name="Trazado 880033" d="M34.042,167.01,34.036,167a.768.768,0,1,0-1.086,1.086l.006.006a.768.768,0,1,0,1.086-1.086Z" transform="translate(-32.725 -166.78)" fill="#a854f3"/>
        </g>
      </g>
      <g id="Grupo_1103905" data-name="Grupo 1103905" transform="translate(25.725 2.089)">
        <g id="Grupo_1103904" data-name="Grupo 1103904">
          <path id="Trazado_880034" data-name="Trazado 880034" d="M336.188,27.166a.768.768,0,1,0-1.086,1.086l0,0a.765.765,0,0,0,1.084,0A.771.771,0,0,0,336.188,27.166Z" transform="translate(-334.876 -26.941)" fill="#a854f3"/>
        </g>
      </g>
      <g id="Grupo_1103907" data-name="Grupo 1103907" transform="translate(0.002 0.021)">
        <g id="Grupo_1103906" data-name="Grupo 1103906" transform="translate(0 0)">
          <path id="Trazado_880035" data-name="Trazado 880035" d="M38.771,28.609a.768.768,0,0,0-1.427.569,6.3,6.3,0,0,1-.4,5.5,3.615,3.615,0,0,0-2.48-2.279l-.206-.054a3.2,3.2,0,0,0,.458-1.654v-.64a3.221,3.221,0,0,0-6.441,0v.64a3.2,3.2,0,0,0,.458,1.654l-.206.054a3.615,3.615,0,0,0-2.479,2.278A6.3,6.3,0,0,1,33.8,25.651a.768.768,0,0,0,.561-1.43,7.853,7.853,0,0,0-9.381,2.939l-7.008-3.747a9.423,9.423,0,0,0,0-7.453l7.011-3.749A7.834,7.834,0,1,0,28.587.58a.768.768,0,1,0,.569,1.427,6.3,6.3,0,0,1,7.784,9.012,3.615,3.615,0,0,0-2.479-2.278l-.206-.054a3.2,3.2,0,0,0,.458-1.654v-.64a3.221,3.221,0,0,0-6.441,0v.64a3.2,3.2,0,0,0,.458,1.654l-.206.054a3.615,3.615,0,0,0-2.479,2.278,6.3,6.3,0,0,1-.416-5.465.768.768,0,1,0-1.43-.561,7.836,7.836,0,0,0,.056,5.864L17.246,14.6A9.375,9.375,0,0,0,4.929,11.433a.768.768,0,0,0,.729,1.352A7.836,7.836,0,0,1,16.236,23.462a4.472,4.472,0,0,0-3.061-2.8l-.579-.153a3.936,3.936,0,0,0,.735-2.294v-.833a3.959,3.959,0,0,0-7.919,0v.833a3.936,3.936,0,0,0,.735,2.294l-.579.153a4.472,4.472,0,0,0-3.059,2.8,7.889,7.889,0,0,1-.038-7.485.768.768,0,1,0-1.352-.729A9.445,9.445,0,0,0,.091,20.984a9.372,9.372,0,0,0,17.155,3.783l7.006,3.746a7.837,7.837,0,1,0,14.519.1ZM29.809,6.393a1.684,1.684,0,1,1,3.369,0v.64a1.684,1.684,0,0,1-3.369,0Zm-2.438,6v-.16a2.077,2.077,0,0,1,1.546-2.007l1.154-.3a3.212,3.212,0,0,0,2.844,0l1.154.3a2.077,2.077,0,0,1,1.546,2.007v.38s0,0,0,0a6.293,6.293,0,0,1-8.272-.024A.759.759,0,0,0,27.371,12.393ZM6.949,17.382a2.423,2.423,0,0,1,4.846,0v.833a2.423,2.423,0,1,1-4.846,0v-.833Zm8.019,7.787-.056.057a7.843,7.843,0,0,1-11.08,0l-.056-.058v-.187A2.935,2.935,0,0,1,5.96,22.146l1.588-.419a3.945,3.945,0,0,0,3.647,0l1.588.419a2.935,2.935,0,0,1,2.184,2.835ZM29.809,30.05a1.684,1.684,0,0,1,3.369,0v.64a1.684,1.684,0,1,1-3.369,0Zm-2.465,6.2a.769.769,0,0,0,.027-.2v-.16a2.077,2.077,0,0,1,1.546-2.007l1.154-.3a3.212,3.212,0,0,0,2.844,0l1.154.3a2.077,2.077,0,0,1,1.546,2.007v.38s0,0,0,0A6.305,6.305,0,0,1,27.344,36.251Z" transform="translate(-0.002 -0.021)" fill="#a854f3"/>
        </g>
      </g>
      <g id="Grupo_1103909" data-name="Grupo 1103909" transform="translate(35.723 25.746)">
        <g id="Grupo_1103908" data-name="Grupo 1103908">
          <path id="Trazado_880036" data-name="Trazado 880036" d="M466.356,335.156a.768.768,0,0,0-1.086,0l0,0a.768.768,0,1,0,1.091,0Z" transform="translate(-465.041 -334.931)" fill="#a854f3"/>
        </g>
      </g>
    </g>
  </g>
</svg>
