<svg xmlns="http://www.w3.org/2000/svg" width="295" height="382" viewBox="0 0 295 382">
  <g id="Grupo_1103142" data-name="Grupo 1103142" transform="translate(7063 10987)">
    <rect id="Rectángulo_403459" data-name="Rectángulo 403459" width="295" height="180" rx="10" transform="translate(-7063 -10987)" fill="#3a1d71"/>
    <path id="Rectángulo_403461" data-name="Rectángulo 403461" d="M10,0H128a0,0,0,0,1,0,0V140a0,0,0,0,1,0,0H10A10,10,0,0,1,0,130V10A10,10,0,0,1,10,0Z" transform="translate(-7043 -10967)" fill="#debefb"/>
    <path id="Rectángulo_403462" data-name="Rectángulo 403462" d="M0,0H118a10,10,0,0,1,10,10V130a10,10,0,0,1-10,10H0a0,0,0,0,1,0,0V0A0,0,0,0,1,0,0Z" transform="translate(-6915 -10967)" fill="#aec4fa"/>
    <rect id="Rectángulo_403460" data-name="Rectángulo 403460" width="295" height="180" rx="10" transform="translate(-7063 -10785)" fill="#3a1d71"/>
    <path id="Trazado_880516" data-name="Trazado 880516" d="M12.238,12.656H8.129L7.348,15H4.855L9.09,3.625h2.172L15.52,15H13.027Zm-3.477-1.9h2.844L10.176,6.5Zm14.906.094a5.07,5.07,0,0,1-.887,3.129,2.843,2.843,0,0,1-2.395,1.176,2.633,2.633,0,0,1-2.07-.891V18.25H16.059V6.547h2.094l.078.828a2.654,2.654,0,0,1,2.141-.984A2.862,2.862,0,0,1,22.8,7.547a5.207,5.207,0,0,1,.867,3.188Zm-2.258-.172a3.345,3.345,0,0,0-.418-1.826,1.36,1.36,0,0,0-1.215-.643,1.478,1.478,0,0,0-1.461.815V12.5a1.5,1.5,0,0,0,1.477.839Q21.41,13.336,21.41,10.679ZM27.449,15H25.184V3h2.266Zm4.242,0H29.426V6.547h2.266Zm-2.4-10.641a1.112,1.112,0,0,1,.34-.836,1.465,1.465,0,0,1,1.848,0,1.105,1.105,0,0,1,.344.836,1.108,1.108,0,0,1-.348.844,1.448,1.448,0,0,1-1.836,0A1.108,1.108,0,0,1,29.293,4.359Zm7.773,8.977a1.481,1.481,0,0,0,1.016-.344,1.2,1.2,0,0,0,.406-.914h2.117a2.9,2.9,0,0,1-.469,1.574,3.093,3.093,0,0,1-1.262,1.109,3.949,3.949,0,0,1-1.77.395A3.67,3.67,0,0,1,34.246,14,4.56,4.56,0,0,1,33.2,10.82v-.148a4.508,4.508,0,0,1,1.039-3.117A3.627,3.627,0,0,1,37.09,6.391a3.555,3.555,0,0,1,2.543.9,3.2,3.2,0,0,1,.973,2.4H38.488a1.551,1.551,0,0,0-.406-1.072,1.51,1.51,0,0,0-2.223.163,3.333,3.333,0,0,0-.4,1.866v.235a3.375,3.375,0,0,0,.4,1.878A1.377,1.377,0,0,0,37.066,13.336ZM46.793,15a2.507,2.507,0,0,1-.227-.758,2.732,2.732,0,0,1-2.133.914,3,3,0,0,1-2.059-.719,2.312,2.312,0,0,1-.816-1.812,2.389,2.389,0,0,1,1-2.062,4.915,4.915,0,0,1,2.879-.727h1.039V9.352a1.393,1.393,0,0,0-.3-.937,1.183,1.183,0,0,0-.949-.352,1.345,1.345,0,0,0-.895.273.929.929,0,0,0-.324.75H41.746A2.268,2.268,0,0,1,42.2,7.727a3,3,0,0,1,1.281-.98,4.669,4.669,0,0,1,1.859-.355,3.689,3.689,0,0,1,2.48.785,2.747,2.747,0,0,1,.918,2.207v3.664a4.041,4.041,0,0,0,.336,1.82V15Zm-1.867-1.57a1.945,1.945,0,0,0,.922-.223,1.462,1.462,0,0,0,.625-.6V11.156h-.844q-1.7,0-1.8,1.172l-.008.133a.9.9,0,0,0,.3.7A1.153,1.153,0,0,0,44.926,13.43Zm9.063-.094A1.481,1.481,0,0,0,55,12.992a1.2,1.2,0,0,0,.406-.914h2.117a2.9,2.9,0,0,1-.469,1.574A3.093,3.093,0,0,1,55.8,14.762a3.949,3.949,0,0,1-1.77.395A3.67,3.67,0,0,1,51.168,14a4.56,4.56,0,0,1-1.047-3.184v-.148A4.508,4.508,0,0,1,51.16,7.555a3.627,3.627,0,0,1,2.852-1.164,3.555,3.555,0,0,1,2.543.9,3.2,3.2,0,0,1,.973,2.4H55.41A1.551,1.551,0,0,0,55,8.623a1.51,1.51,0,0,0-2.223.163,3.333,3.333,0,0,0-.4,1.866v.235a3.375,3.375,0,0,0,.4,1.878A1.377,1.377,0,0,0,53.988,13.336ZM61.2,15H58.934V6.547H61.2ZM58.8,4.359a1.112,1.112,0,0,1,.34-.836,1.465,1.465,0,0,1,1.848,0,1.105,1.105,0,0,1,.344.836,1.108,1.108,0,0,1-.348.844,1.448,1.448,0,0,1-1.836,0A1.108,1.108,0,0,1,58.8,4.359ZM62.707,10.7a5.013,5.013,0,0,1,.484-2.242A3.546,3.546,0,0,1,64.586,6.93,4.069,4.069,0,0,1,66.7,6.391a3.849,3.849,0,0,1,2.793,1.047A4.2,4.2,0,0,1,70.7,10.281l.016.578a4.418,4.418,0,0,1-1.086,3.121,4.209,4.209,0,0,1-5.832,0,4.5,4.5,0,0,1-1.09-3.187Zm2.258.16a3.16,3.16,0,0,0,.453,1.843A1.628,1.628,0,0,0,68,12.706a3.457,3.457,0,0,0,.461-2.015A3.128,3.128,0,0,0,68,8.86a1.5,1.5,0,0,0-1.3-.649,1.474,1.474,0,0,0-1.281.646A3.516,3.516,0,0,0,64.965,10.856ZM67.145,3h2.461L67.441,5.422H65.605Zm7.039,3.547.07.977a2.951,2.951,0,0,1,2.43-1.133,2.453,2.453,0,0,1,2,.789,3.682,3.682,0,0,1,.672,2.359V15H77.1V9.581a1.47,1.47,0,0,0-.312-1.045,1.4,1.4,0,0,0-1.039-.325,1.553,1.553,0,0,0-1.43.814V15H72.059V6.547ZM28.316,23.625H30.66V31.5a3.766,3.766,0,0,1-.48,1.918A3.261,3.261,0,0,1,28.824,34.7a4.235,4.235,0,0,1-1.977.453,4.025,4.025,0,0,1-2.812-.918,3.335,3.335,0,0,1-1.008-2.6h2.359a1.829,1.829,0,0,0,.352,1.234,1.407,1.407,0,0,0,1.109.4,1.343,1.343,0,0,0,1.07-.461,1.948,1.948,0,0,0,.4-1.312Zm10.6,9.031H34.809L34.027,35H31.535L35.77,23.625h2.172L42.2,35H39.707Zm-3.477-1.9h2.844L36.855,26.5ZM46.863,32.18l2.578-8.555h2.609L48.09,35H45.645L41.7,23.625h2.6Zm12.094.477H54.848L54.066,35H51.574l4.234-11.375H57.98L62.238,35H59.746Zm-3.477-1.9h2.844L56.895,26.5Z" transform="translate(-7021 -10881)" fill="#12263f"/>
    <path id="Trazado_880517" data-name="Trazado 880517" d="M28.094,3.625h2.344V11.5a3.766,3.766,0,0,1-.48,1.918A3.261,3.261,0,0,1,28.6,14.7a4.235,4.235,0,0,1-1.977.453,4.025,4.025,0,0,1-2.812-.918,3.335,3.335,0,0,1-1.008-2.6h2.359a1.829,1.829,0,0,0,.352,1.234,1.407,1.407,0,0,0,1.109.4,1.343,1.343,0,0,0,1.07-.461,1.948,1.948,0,0,0,.4-1.312ZM32.445,15V3.625h3.5a5.315,5.315,0,0,1,2.684.676,4.712,4.712,0,0,1,1.848,1.922,5.928,5.928,0,0,1,.664,2.832v.523a5.945,5.945,0,0,1-.652,2.82,4.672,4.672,0,0,1-1.84,1.914,5.355,5.355,0,0,1-2.68.688Zm2.344-9.477v7.594h1.133a2.545,2.545,0,0,0,2.1-.9,4.06,4.06,0,0,0,.742-2.57v-.6a4.124,4.124,0,0,0-.719-2.629,2.537,2.537,0,0,0-2.1-.895ZM42.844,15V3.625h3.984a5.232,5.232,0,0,1,3.141.793,2.712,2.712,0,0,1,1.07,2.324,2.57,2.57,0,0,1-.43,1.473,2.482,2.482,0,0,1-1.2.934,2.4,2.4,0,0,1,1.379.883,2.61,2.61,0,0,1,.5,1.625,3,3,0,0,1-1.047,2.484A4.713,4.713,0,0,1,47.266,15Zm2.344-4.953v3.07H47.2a1.938,1.938,0,0,0,1.293-.395,1.353,1.353,0,0,0,.465-1.09,1.428,1.428,0,0,0-1.617-1.586Zm0-1.656h1.734Q48.7,8.359,48.7,6.977a1.307,1.307,0,0,0-.449-1.113,2.363,2.363,0,0,0-1.418-.34H45.188Zm16.8,2.82A4.025,4.025,0,0,1,60.629,14.1a4.76,4.76,0,0,1-3.223,1.055,4.281,4.281,0,0,1-3.441-1.473,6.038,6.038,0,0,1-1.254-4.043v-.7a6.819,6.819,0,0,1,.578-2.891,4.332,4.332,0,0,1,1.652-1.918,5.164,5.164,0,0,1,5.668.387A4.326,4.326,0,0,1,62,7.484H59.656a2.376,2.376,0,0,0-.613-1.6,2.271,2.271,0,0,0-1.605-.5,1.991,1.991,0,0,0-1.754.84,4.707,4.707,0,0,0-.6,2.605V9.7a5.038,5.038,0,0,0,.559,2.7,1.954,1.954,0,0,0,1.762.852,2.314,2.314,0,0,0,1.621-.5,2.241,2.241,0,0,0,.613-1.535Z" transform="translate(-6893 -10881)" fill="#12263f"/>
    <rect id="Rectángulo_403463" data-name="Rectángulo 403463" width="256" height="140" rx="10" transform="translate(-7043 -10765)" fill="#debefb"/>
    <path id="Trazado_880518" data-name="Trazado 880518" d="M14.852,12.016A1.2,1.2,0,0,0,14.383,11a6.148,6.148,0,0,0-1.687-.75,11.963,11.963,0,0,1-1.93-.777,3.153,3.153,0,0,1-1.937-2.82A2.747,2.747,0,0,1,9.348,5,3.389,3.389,0,0,1,10.84,3.875a5.616,5.616,0,0,1,2.184-.406A5.112,5.112,0,0,1,15.2,3.91a3.458,3.458,0,0,1,1.48,1.246A3.261,3.261,0,0,1,17.2,6.984H14.859a1.534,1.534,0,0,0-.492-1.215,2.023,2.023,0,0,0-1.383-.434,2.162,2.162,0,0,0-1.336.363,1.146,1.146,0,0,0-.477.957,1.1,1.1,0,0,0,.559.93,6.311,6.311,0,0,0,1.645.7,7.106,7.106,0,0,1,2.914,1.492A2.972,2.972,0,0,1,17.2,12a2.737,2.737,0,0,1-1.117,2.316,4.891,4.891,0,0,1-3.008.84,5.808,5.808,0,0,1-2.391-.48,3.783,3.783,0,0,1-1.645-1.316,3.371,3.371,0,0,1-.566-1.937h2.352q0,1.883,2.25,1.883a2.189,2.189,0,0,0,1.3-.34A1.106,1.106,0,0,0,14.852,12.016ZM21.023,15H18.758V6.547h2.266Zm-2.4-10.641a1.112,1.112,0,0,1,.34-.836,1.465,1.465,0,0,1,1.848,0,1.105,1.105,0,0,1,.344.836,1.108,1.108,0,0,1-.348.844,1.448,1.448,0,0,1-1.836,0A1.108,1.108,0,0,1,18.625,4.359Zm8.836,8.3a.727.727,0,0,0-.41-.652,4.659,4.659,0,0,0-1.316-.426q-3.016-.633-3.016-2.562a2.323,2.323,0,0,1,.934-1.879,3.766,3.766,0,0,1,2.441-.754,4.053,4.053,0,0,1,2.574.758,2.388,2.388,0,0,1,.965,1.969H27.375a1.092,1.092,0,0,0-.312-.8A1.322,1.322,0,0,0,26.086,8a1.351,1.351,0,0,0-.883.258.814.814,0,0,0-.312.656.7.7,0,0,0,.355.605,3.657,3.657,0,0,0,1.2.4,9.8,9.8,0,0,1,1.422.379,2.336,2.336,0,0,1,1.789,2.273,2.2,2.2,0,0,1-.992,1.871,4.28,4.28,0,0,1-2.562.715,4.47,4.47,0,0,1-1.887-.379,3.166,3.166,0,0,1-1.293-1.039,2.414,2.414,0,0,1-.469-1.426h2.141a1.179,1.179,0,0,0,.445.922,1.766,1.766,0,0,0,1.109.32,1.635,1.635,0,0,0,.98-.246A.766.766,0,0,0,27.461,12.664Zm6.352-8.2V6.547h1.445V8.2H33.813v4.219a1.007,1.007,0,0,0,.18.672.9.9,0,0,0,.688.2,3.6,3.6,0,0,0,.664-.055v1.711a4.648,4.648,0,0,1-1.367.2,2.156,2.156,0,0,1-2.422-2.4V8.2H30.32V6.547h1.234V4.469Zm6.594,10.688a4.15,4.15,0,0,1-3.027-1.141,4.054,4.054,0,0,1-1.168-3.039v-.219A5.106,5.106,0,0,1,36.7,8.48,3.612,3.612,0,0,1,38.1,6.934a3.914,3.914,0,0,1,2.059-.543,3.508,3.508,0,0,1,2.73,1.094,4.444,4.444,0,0,1,1,3.1v.922H38.5a2.1,2.1,0,0,0,.66,1.328,2,2,0,0,0,1.395.5,2.437,2.437,0,0,0,2.039-.945L43.7,13.633a3.389,3.389,0,0,1-1.375,1.121A4.511,4.511,0,0,1,40.406,15.156Zm-.258-6.945a1.411,1.411,0,0,0-1.09.455,2.357,2.357,0,0,0-.535,1.3h3.141V9.788a1.681,1.681,0,0,0-.406-1.165A1.456,1.456,0,0,0,40.148,8.211Zm7.133-1.664.07.945a2.971,2.971,0,0,1,2.43-1.1A2.255,2.255,0,0,1,52.023,7.68a2.9,2.9,0,0,1,2.539-1.289,2.521,2.521,0,0,1,2.047.8,3.681,3.681,0,0,1,.672,2.41V15H55.016V9.6a1.616,1.616,0,0,0-.281-1.053,1.245,1.245,0,0,0-.992-.333,1.409,1.409,0,0,0-1.406.971L52.344,15H50.086V9.6A1.6,1.6,0,0,0,49.8,8.54a1.257,1.257,0,0,0-.984-.329,1.463,1.463,0,0,0-1.391.8V15H45.164V6.547ZM63.914,15a2.507,2.507,0,0,1-.227-.758,2.732,2.732,0,0,1-2.133.914,3,3,0,0,1-2.059-.719,2.312,2.312,0,0,1-.816-1.812,2.389,2.389,0,0,1,1-2.062,4.915,4.915,0,0,1,2.879-.727h1.039V9.352a1.393,1.393,0,0,0-.3-.937,1.183,1.183,0,0,0-.949-.352,1.345,1.345,0,0,0-.895.273.929.929,0,0,0-.324.75H58.867a2.268,2.268,0,0,1,.453-1.359,3,3,0,0,1,1.281-.98,4.669,4.669,0,0,1,1.859-.355,3.689,3.689,0,0,1,2.48.785,2.747,2.747,0,0,1,.918,2.207v3.664a4.041,4.041,0,0,0,.336,1.82V15Zm-1.867-1.57a1.945,1.945,0,0,0,.922-.223,1.462,1.462,0,0,0,.625-.6V11.156H62.75q-1.7,0-1.8,1.172l-.008.133a.9.9,0,0,0,.3.7A1.153,1.153,0,0,0,62.047,13.43Zm18.68.133a4.068,4.068,0,0,1-1.789,1.176,7.492,7.492,0,0,1-2.562.418,5.076,5.076,0,0,1-2.59-.645,4.3,4.3,0,0,1-1.719-1.871,6.585,6.585,0,0,1-.621-2.883V8.984a6.994,6.994,0,0,1,.574-2.949,4.248,4.248,0,0,1,1.656-1.906,5.453,5.453,0,0,1,5.7.3,4.123,4.123,0,0,1,1.352,2.809H78.445a2.268,2.268,0,0,0-.691-1.43,2.208,2.208,0,0,0-1.473-.453,2.078,2.078,0,0,0-1.82.9,4.724,4.724,0,0,0-.633,2.672v.727a4.5,4.5,0,0,0,.68,2.7,2.327,2.327,0,0,0,1.992.914,2.6,2.6,0,0,0,1.883-.562V10.75H76.25V9.023h4.477Zm5.641,1.594a4.15,4.15,0,0,1-3.027-1.141,4.054,4.054,0,0,1-1.168-3.039v-.219a5.106,5.106,0,0,1,.492-2.277,3.612,3.612,0,0,1,1.395-1.547,3.914,3.914,0,0,1,2.059-.543,3.508,3.508,0,0,1,2.73,1.094,4.444,4.444,0,0,1,1,3.1v.922H84.461a2.1,2.1,0,0,0,.66,1.328,2,2,0,0,0,1.395.5,2.437,2.437,0,0,0,2.039-.945l1.109,1.242a3.389,3.389,0,0,1-1.375,1.121A4.511,4.511,0,0,1,86.367,15.156Zm-.258-6.945a1.411,1.411,0,0,0-1.09.455,2.357,2.357,0,0,0-.535,1.3h3.141V9.788a1.681,1.681,0,0,0-.406-1.165A1.456,1.456,0,0,0,86.109,8.211ZM95.7,12.664a.727.727,0,0,0-.41-.652,4.659,4.659,0,0,0-1.316-.426q-3.016-.633-3.016-2.562a2.323,2.323,0,0,1,.934-1.879,3.766,3.766,0,0,1,2.441-.754,4.053,4.053,0,0,1,2.574.758,2.388,2.388,0,0,1,.965,1.969H95.617a1.092,1.092,0,0,0-.312-.8A1.322,1.322,0,0,0,94.328,8a1.351,1.351,0,0,0-.883.258.814.814,0,0,0-.312.656.7.7,0,0,0,.355.605,3.657,3.657,0,0,0,1.2.4,9.8,9.8,0,0,1,1.422.379A2.336,2.336,0,0,1,97.9,12.57a2.2,2.2,0,0,1-.992,1.871,4.28,4.28,0,0,1-2.562.715,4.47,4.47,0,0,1-1.887-.379,3.166,3.166,0,0,1-1.293-1.039,2.414,2.414,0,0,1-.469-1.426h2.141a1.179,1.179,0,0,0,.445.922,1.766,1.766,0,0,0,1.109.32,1.635,1.635,0,0,0,.98-.246A.766.766,0,0,0,95.7,12.664Zm6.352-8.2V6.547H103.5V8.2h-1.445v4.219a1.007,1.007,0,0,0,.18.672.9.9,0,0,0,.688.2,3.6,3.6,0,0,0,.664-.055v1.711a4.648,4.648,0,0,1-1.367.2,2.156,2.156,0,0,1-2.422-2.4V8.2H98.563V6.547H99.8V4.469Zm2.117,6.227a5.013,5.013,0,0,1,.484-2.242,3.546,3.546,0,0,1,1.395-1.523,4.069,4.069,0,0,1,2.113-.539,3.849,3.849,0,0,1,2.793,1.047,4.2,4.2,0,0,1,1.207,2.844l.016.578a4.418,4.418,0,0,1-1.086,3.121,4.209,4.209,0,0,1-5.832,0,4.5,4.5,0,0,1-1.09-3.187Zm2.258.16a3.16,3.16,0,0,0,.453,1.843,1.628,1.628,0,0,0,2.578.008,3.457,3.457,0,0,0,.461-2.015,3.128,3.128,0,0,0-.461-1.831,1.5,1.5,0,0,0-1.3-.649,1.474,1.474,0,0,0-1.281.646A3.516,3.516,0,0,0,106.43,10.856ZM118.32,8.664a6.134,6.134,0,0,0-.812-.062,1.654,1.654,0,0,0-1.68.867V15H113.57V6.547H115.7l.063,1.008a2.092,2.092,0,0,1,1.883-1.164,2.366,2.366,0,0,1,.7.1Zm4.719,2.047a5.094,5.094,0,0,1,.887-3.148,2.877,2.877,0,0,1,2.426-1.172,2.589,2.589,0,0,1,2.039.922V3h2.266V15h-2.039l-.109-.9a2.657,2.657,0,0,1-2.172,1.055,2.869,2.869,0,0,1-2.395-1.176A5.258,5.258,0,0,1,123.039,10.711Zm2.258.161a3.355,3.355,0,0,0,.414,1.829,1.348,1.348,0,0,0,1.2.636,1.51,1.51,0,0,0,1.477-.887V9.1a1.489,1.489,0,0,0-1.461-.887Q125.3,8.211,125.3,10.872Zm11,4.285a4.15,4.15,0,0,1-3.027-1.141,4.054,4.054,0,0,1-1.168-3.039v-.219a5.106,5.106,0,0,1,.492-2.277,3.612,3.612,0,0,1,1.395-1.547,3.914,3.914,0,0,1,2.059-.543,3.508,3.508,0,0,1,2.73,1.094,4.444,4.444,0,0,1,1,3.1v.922h-5.383a2.1,2.1,0,0,0,.66,1.328,2,2,0,0,0,1.395.5,2.437,2.437,0,0,0,2.039-.945l1.109,1.242a3.389,3.389,0,0,1-1.375,1.121A4.511,4.511,0,0,1,136.3,15.156Zm-.258-6.945a1.411,1.411,0,0,0-1.09.455,2.357,2.357,0,0,0-.535,1.3h3.141V9.788a1.681,1.681,0,0,0-.406-1.165A1.456,1.456,0,0,0,136.039,8.211ZM145.188,15V3.625h3.984a5.232,5.232,0,0,1,3.141.793,2.711,2.711,0,0,1,1.07,2.324,2.57,2.57,0,0,1-.43,1.473,2.482,2.482,0,0,1-1.2.934,2.4,2.4,0,0,1,1.379.883,2.61,2.61,0,0,1,.5,1.625,3,3,0,0,1-1.047,2.484,4.713,4.713,0,0,1-2.984.859Zm2.344-4.953v3.07h2.008a1.938,1.938,0,0,0,1.293-.395,1.353,1.353,0,0,0,.465-1.09,1.428,1.428,0,0,0-1.617-1.586Zm0-1.656h1.734q1.773-.031,1.773-1.414a1.307,1.307,0,0,0-.449-1.113,2.363,2.363,0,0,0-1.418-.34h-1.641ZM160.148,15a2.507,2.507,0,0,1-.227-.758,2.732,2.732,0,0,1-2.133.914,3,3,0,0,1-2.059-.719,2.312,2.312,0,0,1-.816-1.812,2.389,2.389,0,0,1,1-2.062,4.915,4.915,0,0,1,2.879-.727h1.039V9.352a1.393,1.393,0,0,0-.3-.937,1.183,1.183,0,0,0-.949-.352,1.345,1.345,0,0,0-.895.273.929.929,0,0,0-.324.75H155.1a2.268,2.268,0,0,1,.453-1.359,3,3,0,0,1,1.281-.98,4.669,4.669,0,0,1,1.859-.355,3.689,3.689,0,0,1,2.48.785,2.747,2.747,0,0,1,.918,2.207v3.664a4.041,4.041,0,0,0,.336,1.82V15Zm-1.867-1.57a1.945,1.945,0,0,0,.922-.223,1.462,1.462,0,0,0,.625-.6V11.156h-.844q-1.7,0-1.8,1.172l-.008.133a.9.9,0,0,0,.3.7A1.153,1.153,0,0,0,158.281,13.43Zm10.125-.766a.727.727,0,0,0-.41-.652,4.659,4.659,0,0,0-1.316-.426q-3.016-.633-3.016-2.562a2.323,2.323,0,0,1,.934-1.879,3.766,3.766,0,0,1,2.441-.754,4.053,4.053,0,0,1,2.574.758,2.388,2.388,0,0,1,.965,1.969H168.32a1.092,1.092,0,0,0-.312-.8A1.322,1.322,0,0,0,167.031,8a1.351,1.351,0,0,0-.883.258.814.814,0,0,0-.312.656.7.7,0,0,0,.355.605,3.657,3.657,0,0,0,1.2.4,9.8,9.8,0,0,1,1.422.379A2.336,2.336,0,0,1,170.6,12.57a2.205,2.205,0,0,1-.992,1.871,4.28,4.28,0,0,1-2.562.715,4.47,4.47,0,0,1-1.887-.379,3.166,3.166,0,0,1-1.293-1.039,2.414,2.414,0,0,1-.469-1.426h2.141a1.179,1.179,0,0,0,.445.922,1.766,1.766,0,0,0,1.109.32,1.635,1.635,0,0,0,.98-.246A.766.766,0,0,0,168.406,12.664Zm7.539,2.492a4.15,4.15,0,0,1-3.027-1.141,4.054,4.054,0,0,1-1.168-3.039v-.219a5.106,5.106,0,0,1,.492-2.277,3.612,3.612,0,0,1,1.395-1.547,3.914,3.914,0,0,1,2.059-.543,3.508,3.508,0,0,1,2.73,1.094,4.444,4.444,0,0,1,1,3.1v.922h-5.383a2.1,2.1,0,0,0,.66,1.328,2,2,0,0,0,1.395.5,2.437,2.437,0,0,0,2.039-.945l1.109,1.242a3.389,3.389,0,0,1-1.375,1.121A4.511,4.511,0,0,1,175.945,15.156Zm-.258-6.945a1.411,1.411,0,0,0-1.09.455,2.357,2.357,0,0,0-.535,1.3H177.2V9.788a1.681,1.681,0,0,0-.406-1.165A1.456,1.456,0,0,0,175.688,8.211Zm9.594,4.453a.727.727,0,0,0-.41-.652,4.659,4.659,0,0,0-1.316-.426q-3.016-.633-3.016-2.562a2.323,2.323,0,0,1,.934-1.879,3.766,3.766,0,0,1,2.441-.754,4.053,4.053,0,0,1,2.574.758,2.388,2.388,0,0,1,.965,1.969H185.2a1.092,1.092,0,0,0-.312-.8A1.322,1.322,0,0,0,183.906,8a1.351,1.351,0,0,0-.883.258.814.814,0,0,0-.312.656.7.7,0,0,0,.355.605,3.657,3.657,0,0,0,1.2.4,9.8,9.8,0,0,1,1.422.379,2.336,2.336,0,0,1,1.789,2.273,2.205,2.205,0,0,1-.992,1.871,4.28,4.28,0,0,1-2.562.715,4.47,4.47,0,0,1-1.887-.379,3.166,3.166,0,0,1-1.293-1.039,2.414,2.414,0,0,1-.469-1.426h2.141a1.179,1.179,0,0,0,.445.922,1.766,1.766,0,0,0,1.109.32,1.635,1.635,0,0,0,.98-.246A.766.766,0,0,0,185.281,12.664ZM27.441,30.711a5.094,5.094,0,0,1,.887-3.148,2.877,2.877,0,0,1,2.426-1.172,2.589,2.589,0,0,1,2.039.922V23h2.266V35H33.02l-.109-.9a2.657,2.657,0,0,1-2.172,1.055,2.869,2.869,0,0,1-2.395-1.176A5.258,5.258,0,0,1,27.441,30.711Zm2.258.161a3.355,3.355,0,0,0,.414,1.829,1.348,1.348,0,0,0,1.2.636,1.51,1.51,0,0,0,1.477-.887V29.1a1.489,1.489,0,0,0-1.461-.887Q29.7,28.211,29.7,30.872Zm11,4.285a4.15,4.15,0,0,1-3.027-1.141A4.054,4.054,0,0,1,36.5,30.977v-.219A5.106,5.106,0,0,1,37,28.48a3.612,3.612,0,0,1,1.395-1.547,3.914,3.914,0,0,1,2.059-.543,3.508,3.508,0,0,1,2.73,1.094,4.444,4.444,0,0,1,1,3.1v.922H38.793a2.1,2.1,0,0,0,.66,1.328,2,2,0,0,0,1.395.5,2.437,2.437,0,0,0,2.039-.945L44,33.633a3.389,3.389,0,0,1-1.375,1.121A4.511,4.511,0,0,1,40.7,35.156Zm-.258-6.945a1.411,1.411,0,0,0-1.09.455,2.357,2.357,0,0,0-.535,1.3h3.141v-.181a1.681,1.681,0,0,0-.406-1.165A1.456,1.456,0,0,0,40.441,28.211ZM49.59,35V23.625h3.5a5.315,5.315,0,0,1,2.684.676,4.712,4.712,0,0,1,1.848,1.922,5.928,5.928,0,0,1,.664,2.832v.523a5.945,5.945,0,0,1-.652,2.82,4.672,4.672,0,0,1-1.84,1.914,5.355,5.355,0,0,1-2.68.688Zm2.344-9.477v7.594h1.133a2.545,2.545,0,0,0,2.1-.9,4.06,4.06,0,0,0,.742-2.57v-.6a4.124,4.124,0,0,0-.719-2.629,2.537,2.537,0,0,0-2.1-.895ZM64.738,35a2.507,2.507,0,0,1-.227-.758,2.732,2.732,0,0,1-2.133.914,3,3,0,0,1-2.059-.719,2.312,2.312,0,0,1-.816-1.812,2.389,2.389,0,0,1,1-2.062,4.915,4.915,0,0,1,2.879-.727h1.039v-.484a1.393,1.393,0,0,0-.3-.937,1.183,1.183,0,0,0-.949-.352,1.345,1.345,0,0,0-.895.273.929.929,0,0,0-.324.75H59.691a2.268,2.268,0,0,1,.453-1.359,3,3,0,0,1,1.281-.98,4.669,4.669,0,0,1,1.859-.355,3.689,3.689,0,0,1,2.48.785,2.747,2.747,0,0,1,.918,2.207v3.664a4.041,4.041,0,0,0,.336,1.82V35Zm-1.867-1.57a1.945,1.945,0,0,0,.922-.223,1.462,1.462,0,0,0,.625-.6V31.156h-.844q-1.7,0-1.8,1.172l-.008.133a.9.9,0,0,0,.3.7A1.153,1.153,0,0,0,62.871,33.43Zm8.25-8.961v2.078h1.445V28.2H71.121v4.219a1.007,1.007,0,0,0,.18.672.9.9,0,0,0,.688.2,3.6,3.6,0,0,0,.664-.055v1.711a4.648,4.648,0,0,1-1.367.2,2.156,2.156,0,0,1-2.422-2.4V28.2H67.629V26.547h1.234V24.469ZM73.238,30.7a5.013,5.013,0,0,1,.484-2.242,3.546,3.546,0,0,1,1.395-1.523,4.069,4.069,0,0,1,2.113-.539,3.849,3.849,0,0,1,2.793,1.047,4.2,4.2,0,0,1,1.207,2.844l.016.578A4.418,4.418,0,0,1,80.16,33.98a4.209,4.209,0,0,1-5.832,0,4.5,4.5,0,0,1-1.09-3.187Zm2.258.16a3.16,3.16,0,0,0,.453,1.843,1.628,1.628,0,0,0,2.578.008,3.457,3.457,0,0,0,.461-2.015,3.128,3.128,0,0,0-.461-1.831,1.5,1.5,0,0,0-1.3-.649,1.474,1.474,0,0,0-1.281.646A3.516,3.516,0,0,0,75.5,30.856Zm11.719,1.808a.727.727,0,0,0-.41-.652,4.659,4.659,0,0,0-1.316-.426q-3.016-.633-3.016-2.562a2.323,2.323,0,0,1,.934-1.879,3.766,3.766,0,0,1,2.441-.754,4.053,4.053,0,0,1,2.574.758,2.388,2.388,0,0,1,.965,1.969H87.129a1.092,1.092,0,0,0-.312-.8A1.322,1.322,0,0,0,85.84,28a1.351,1.351,0,0,0-.883.258.814.814,0,0,0-.312.656A.7.7,0,0,0,85,29.52a3.657,3.657,0,0,0,1.2.4,9.8,9.8,0,0,1,1.422.379A2.336,2.336,0,0,1,89.41,32.57a2.2,2.2,0,0,1-.992,1.871,4.28,4.28,0,0,1-2.562.715,4.47,4.47,0,0,1-1.887-.379,3.166,3.166,0,0,1-1.293-1.039,2.414,2.414,0,0,1-.469-1.426h2.141a1.179,1.179,0,0,0,.445.922,1.766,1.766,0,0,0,1.109.32,1.635,1.635,0,0,0,.98-.246A.766.766,0,0,0,87.215,32.664Zm11.992-1.828H97.34V35H95V23.625h4.227a4.778,4.778,0,0,1,3.109.9,3.1,3.1,0,0,1,1.094,2.539,3.5,3.5,0,0,1-.5,1.941,3.437,3.437,0,0,1-1.527,1.238l2.461,4.648V35H101.34Zm-1.867-1.9H99.23a1.936,1.936,0,0,0,1.367-.449,1.606,1.606,0,0,0,.484-1.238,1.719,1.719,0,0,0-.457-1.266,1.9,1.9,0,0,0-1.4-.461H97.34Zm11.609,6.219a4.15,4.15,0,0,1-3.027-1.141,4.054,4.054,0,0,1-1.168-3.039v-.219a5.106,5.106,0,0,1,.492-2.277,3.612,3.612,0,0,1,1.395-1.547,3.914,3.914,0,0,1,2.059-.543,3.508,3.508,0,0,1,2.73,1.094,4.444,4.444,0,0,1,1,3.1v.922h-5.383a2.1,2.1,0,0,0,.66,1.328,2,2,0,0,0,1.395.5,2.437,2.437,0,0,0,2.039-.945l1.109,1.242a3.389,3.389,0,0,1-1.375,1.121A4.511,4.511,0,0,1,108.949,35.156Zm-.258-6.945a1.411,1.411,0,0,0-1.09.455,2.357,2.357,0,0,0-.535,1.3h3.141v-.181a1.681,1.681,0,0,0-.406-1.165A1.456,1.456,0,0,0,108.691,28.211ZM116.09,35h-2.266V23h2.266Zm6.758,0a2.507,2.507,0,0,1-.227-.758,2.732,2.732,0,0,1-2.133.914,3,3,0,0,1-2.059-.719,2.312,2.312,0,0,1-.816-1.812,2.389,2.389,0,0,1,1-2.062,4.915,4.915,0,0,1,2.879-.727h1.039v-.484a1.393,1.393,0,0,0-.3-.937,1.183,1.183,0,0,0-.949-.352,1.345,1.345,0,0,0-.895.273.929.929,0,0,0-.324.75H117.8a2.268,2.268,0,0,1,.453-1.359,3,3,0,0,1,1.281-.98,4.669,4.669,0,0,1,1.859-.355,3.689,3.689,0,0,1,2.48.785,2.747,2.747,0,0,1,.918,2.207v3.664a4.041,4.041,0,0,0,.336,1.82V35Zm-1.867-1.57a1.945,1.945,0,0,0,.922-.223,1.462,1.462,0,0,0,.625-.6V31.156h-.844q-1.7,0-1.8,1.172l-.008.133a.9.9,0,0,0,.3.7A1.153,1.153,0,0,0,120.98,33.43Zm9.063-.094a1.481,1.481,0,0,0,1.016-.344,1.2,1.2,0,0,0,.406-.914h2.117a2.9,2.9,0,0,1-.469,1.574,3.093,3.093,0,0,1-1.262,1.109,3.949,3.949,0,0,1-1.77.395A3.67,3.67,0,0,1,127.223,34a4.56,4.56,0,0,1-1.047-3.184v-.148a4.508,4.508,0,0,1,1.039-3.117,3.627,3.627,0,0,1,2.852-1.164,3.555,3.555,0,0,1,2.543.9,3.2,3.2,0,0,1,.973,2.4h-2.117a1.551,1.551,0,0,0-.406-1.072,1.51,1.51,0,0,0-2.223.163,3.333,3.333,0,0,0-.4,1.866v.235a3.375,3.375,0,0,0,.4,1.878A1.377,1.377,0,0,0,130.043,33.336ZM137.254,35h-2.266V26.547h2.266Zm-2.4-10.641a1.112,1.112,0,0,1,.34-.836,1.465,1.465,0,0,1,1.848,0,1.193,1.193,0,0,1,0,1.68,1.448,1.448,0,0,1-1.836,0A1.109,1.109,0,0,1,134.855,24.359Zm3.906,6.336a5.013,5.013,0,0,1,.484-2.242,3.546,3.546,0,0,1,1.395-1.523,4.069,4.069,0,0,1,2.113-.539,3.849,3.849,0,0,1,2.793,1.047,4.2,4.2,0,0,1,1.207,2.844l.016.578a4.418,4.418,0,0,1-1.086,3.121,4.209,4.209,0,0,1-5.832,0,4.5,4.5,0,0,1-1.09-3.187Zm2.258.16a3.16,3.16,0,0,0,.453,1.843,1.628,1.628,0,0,0,2.578.008,3.457,3.457,0,0,0,.461-2.015,3.128,3.128,0,0,0-.461-1.831,1.5,1.5,0,0,0-1.3-.649,1.474,1.474,0,0,0-1.281.646A3.516,3.516,0,0,0,141.02,30.856Zm9.219-4.309.07.977a2.951,2.951,0,0,1,2.43-1.133,2.453,2.453,0,0,1,2,.789,3.682,3.682,0,0,1,.672,2.359V35h-2.258V29.581a1.47,1.47,0,0,0-.312-1.045,1.4,1.4,0,0,0-1.039-.325,1.553,1.553,0,0,0-1.43.814V35h-2.258V26.547ZM162.02,35a2.507,2.507,0,0,1-.227-.758,2.732,2.732,0,0,1-2.133.914,3,3,0,0,1-2.059-.719,2.312,2.312,0,0,1-.816-1.812,2.389,2.389,0,0,1,1-2.062,4.915,4.915,0,0,1,2.879-.727H161.7v-.484a1.393,1.393,0,0,0-.3-.937,1.183,1.183,0,0,0-.949-.352,1.345,1.345,0,0,0-.895.273.929.929,0,0,0-.324.75h-2.258a2.268,2.268,0,0,1,.453-1.359,3,3,0,0,1,1.281-.98,4.669,4.669,0,0,1,1.859-.355,3.689,3.689,0,0,1,2.48.785,2.747,2.747,0,0,1,.918,2.207v3.664a4.041,4.041,0,0,0,.336,1.82V35Zm-1.867-1.57a1.945,1.945,0,0,0,.922-.223,1.462,1.462,0,0,0,.625-.6V31.156h-.844q-1.7,0-1.8,1.172l-.008.133a.9.9,0,0,0,.3.7A1.153,1.153,0,0,0,160.152,33.43Zm7.93,1.57h-2.266V23h2.266Z" transform="translate(-7013 -10679)" fill="#12263f"/>
    <g id="Grupo_1103135" data-name="Grupo 1103135" transform="translate(-7558 -11563)">
      <circle id="Elipse_11685" data-name="Elipse 11685" cx="42.5" cy="42.5" r="42.5" transform="translate(600 588)" fill="#00ffdf"/>
      <g id="Grupo_1103127" data-name="Grupo 1103127" transform="translate(618 606)">
        <path id="Trazado_879111" data-name="Trazado 879111" d="M87.134,176.508H76v11.763h29.883v-6.685a1.959,1.959,0,0,1,1.953-1.953h3.32V166.39H89.087v8.165A1.959,1.959,0,0,1,87.134,176.508Z" transform="translate(-68.579 -150.141)" fill="#debefb" fill-rule="evenodd"/>
        <path id="Trazado_879112" data-name="Trazado 879112" d="M47.461,28.542V14.089a2.726,2.726,0,0,0-2.723-2.723H21.484V2.93A2.933,2.933,0,0,0,18.555,0H2.93A2.933,2.933,0,0,0,0,2.93V24.414a2.934,2.934,0,0,0,2.539,2.9V40.29a2.726,2.726,0,0,0,2.723,2.723h15.1l-1.349,5.034h-1a.977.977,0,0,0,0,1.953H31.987a.977.977,0,0,0,0-1.953h-1L29.64,43.013h6.688V47.07A2.933,2.933,0,0,0,39.258,50H47.07A2.933,2.933,0,0,0,50,47.07V31.445a2.934,2.934,0,0,0-2.539-2.9Zm-9.18,5.833h9.766V44.14H38.281Zm9.766-2.93v.977H38.281v-.977a.978.978,0,0,1,.977-.977H47.07A.978.978,0,0,1,48.047,31.445ZM1.953,5.859H19.531V21.484H1.953ZM2.93,1.953H18.555a.978.978,0,0,1,.977.977v.977H1.953V2.93A.978.978,0,0,1,2.93,1.953ZM1.953,24.414v-.977H19.531v.977a.978.978,0,0,1-.977.977H2.93a.978.978,0,0,1-.977-.977ZM28.967,48.047H21.033l1.349-5.034h5.237ZM5.263,41.06a.771.771,0,0,1-.77-.77V27.344H18.555a2.933,2.933,0,0,0,2.93-2.93V13.319H44.738a.771.771,0,0,1,.77.77V28.516h-6.25a2.933,2.933,0,0,0-2.93,2.93V41.06H5.263ZM47.07,48.047H39.258a.978.978,0,0,1-.977-.976v-.977h9.766v.977A.978.978,0,0,1,47.07,48.047Z" transform="translate(0 0)" fill="#020288"/>
      </g>
    </g>
    <g id="Grupo_1103136" data-name="Grupo 1103136" transform="translate(-7873 -11361)">
      <circle id="Elipse_11686" data-name="Elipse 11686" cx="42.5" cy="42.5" r="42.5" transform="translate(915 588)" fill="#00ffdf"/>
      <g id="Grupo_1103128" data-name="Grupo 1103128" transform="translate(933 606)">
        <g id="Grupo_1103133" data-name="Grupo 1103133" transform="translate(0 3.622)">
          <g id="Grupo_1103128-2" data-name="Grupo 1103128" transform="translate(0.002 31.531)">
            <path id="Trazado_879113" data-name="Trazado 879113" d="M17.477,360.742c-4.946-.035-16.781-.687-17.446-5.09a.856.856,0,0,1,1.708-.114c1.439,2.752,11.306,3.517,15.738,3.491,4.435.025,14.3-.738,15.738-3.491a.856.856,0,1,1,1.708.113C34.275,360.047,22.41,360.711,17.477,360.742Z" transform="translate(-0.029 -354.739)" fill="#020288"/>
          </g>
          <g id="Grupo_1103129" data-name="Grupo 1103129" transform="translate(0.002 22.767)">
            <path id="Trazado_879114" data-name="Trazado 879114" d="M17.477,274.015C12.531,273.98.7,273.327.031,268.925a.856.856,0,0,1,1.708-.113c1.439,2.752,11.306,3.517,15.738,3.492,4.435.025,14.3-.738,15.738-3.491a.856.856,0,1,1,1.708.113C34.275,273.32,22.41,273.984,17.477,274.015Z" transform="translate(-0.029 -268.012)" fill="#020288"/>
          </g>
          <g id="Grupo_1103130" data-name="Grupo 1103130" transform="translate(0.004 14.009)">
            <path id="Trazado_879115" data-name="Trazado 879115" d="M17.492,187.348c-4.939-.034-16.783-.688-17.446-5.09a.856.856,0,0,1,1.708-.114c.027.4.964,1.4,4.321,2.266,6.216,1.713,18.3,1.626,24.084-.363a.856.856,0,0,1,.532,1.627A45.5,45.5,0,0,1,17.492,187.348Z" transform="translate(-0.045 -181.351)" fill="#020288"/>
          </g>
          <g id="Grupo_1103131" data-name="Grupo 1103131" transform="translate(0.004 4.443)">
            <path id="Trazado_879116" data-name="Trazado 879116" d="M17.492,100.62C12.556,100.586.707,99.932.046,95.53a.856.856,0,0,1,1.708-.113c.027.4.964,1.4,4.321,2.266,4.852,1.3,12.857,1.55,18.437.809a.856.856,0,1,1,.213,1.7,58.466,58.466,0,0,1-7.233.429Z" transform="translate(-0.045 -94.623)" fill="#020288"/>
          </g>
          <g id="Grupo_1103132" data-name="Grupo 1103132">
            <path id="Trazado_879117" data-name="Trazado 879117" d="M17.451,89.016C12.557,88.994.341,88.183,0,82.991c0,0,0-34.255,0-34.255,0-1.89,1.85-3.409,5.5-4.517,5.457-1.715,14.545-1.941,20.618-.779,1.114.254.858,2.107-.267,1.951-5.838-1.119-14.685-.907-19.915.739-3.34,1.014-4.222,2.149-4.222,2.607V82.991c0,.458.882,1.593,4.222,2.607,6,1.909,17.036,1.909,23.032,0,3.34-1.014,4.222-2.149,4.222-2.607V61A.864.864,0,1,1,34.9,61V82.991c-.336,5.195-12.566,6-17.45,6.025Z" transform="translate(0 -42.718)" fill="#020288"/>
          </g>
        </g>
        <path id="Trazado_879118" data-name="Trazado 879118" d="M277.6,21.3a10.5,10.5,0,0,0,10.481-10.481c-.536-13.883-20.428-13.879-20.962,0A10.5,10.5,0,0,0,277.6,21.3Z" transform="translate(-238.085 -0.407)" fill="#e2c4ff" fill-rule="evenodd"/>
        <g id="Grupo_1103134" data-name="Grupo 1103134" transform="translate(31.478 2.568)">
          <path id="Trazado_879119" data-name="Trazado 879119" d="M311.665,37.487l-1.08-3.323a.856.856,0,0,0-1.027-.565l-1.528.393a6.122,6.122,0,0,0-1.665-1.211l-.1-1.574a.856.856,0,0,0-.854-.8H301.92a.856.856,0,0,0-.854.8l-.1,1.574a6.116,6.116,0,0,0-1.664,1.211l-1.528-.393a.856.856,0,0,0-1.027.565l-1.08,3.323a.856.856,0,0,0,.5,1.061l1.467.58a6.09,6.09,0,0,0,.636,1.958l-.845,1.331a.856.856,0,0,0,.219,1.151l2.826,2.053a.856.856,0,0,0,1.163-.147l1-1.215a6.154,6.154,0,0,0,2.059,0l1,1.215a.856.856,0,0,0,1.163.147l2.826-2.053a.856.856,0,0,0,.219-1.151l-.845-1.331a6.093,6.093,0,0,0,.636-1.958l1.467-.58a.856.856,0,0,0,.5-1.061Zm-3.081.24a.856.856,0,0,0-.54.752,4.372,4.372,0,0,1-.7,2.158.856.856,0,0,0-.005.926l.694,1.093-1.525,1.108-.824-1a.856.856,0,0,0-.881-.282,4.434,4.434,0,0,1-2.272,0,.856.856,0,0,0-.881.282l-.824,1L299.3,42.655l.694-1.092a.856.856,0,0,0-.005-.926,4.374,4.374,0,0,1-.7-2.158.856.856,0,0,0-.54-.752l-1.2-.476.583-1.793,1.254.323a.856.856,0,0,0,.878-.29,4.4,4.4,0,0,1,1.837-1.336.856.856,0,0,0,.547-.746l.081-1.291h1.885l.081,1.291a.856.856,0,0,0,.547.746,4.4,4.4,0,0,1,1.837,1.336.856.856,0,0,0,.878.29l1.254-.323.583,1.793Z" transform="translate(-295.625 -30.406)" fill="#020288"/>
          <path id="Trazado_879120" data-name="Trazado 879120" d="M361.759,91.626a2.6,2.6,0,1,0,2.6,2.6A2.606,2.606,0,0,0,361.759,91.626Zm0,3.493a.891.891,0,1,1,.891-.891A.892.892,0,0,1,361.759,95.119Z" transform="translate(-353.718 -86.386)" fill="#020288"/>
        </g>
      </g>
    </g>
    <path id="Unión_7" data-name="Unión 7" d="M8782.429,11734.935l-15.06-14.914a1.223,1.223,0,0,1-.368-.875v0a1.21,1.21,0,0,1,.368-.857l15.06-14.914a1.25,1.25,0,0,1,.912-.371,1.228,1.228,0,0,1,1.211,1.249v6.484a.92.92,0,0,0,.925.916h18.3a.919.919,0,0,0,.925-.916v-6.484a1.229,1.229,0,0,1,1.213-1.249,1.249,1.249,0,0,1,.91.371l15.059,14.914a1.2,1.2,0,0,1,0,1.735l-15.059,14.914a1.247,1.247,0,0,1-1.749.021,1.2,1.2,0,0,1-.374-.881v-6.47a.919.919,0,0,0-.925-.913h-18.3a.92.92,0,0,0-.925.913v6.47a1.212,1.212,0,0,1-.374.884,1.247,1.247,0,0,1-1.749-.023Z" transform="translate(4803.653 -19599.258) rotate(90)" fill="#00ffdf"/>
  </g>
</svg>
