<svg xmlns="http://www.w3.org/2000/svg" width="60" height="60" viewBox="0 0 60 60">
  <g id="Grupo_1103997" data-name="Grupo 1103997" transform="translate(-200 -7288)">
    <rect id="Rectángulo_403641" data-name="Rectángulo 403641" width="60" height="60" rx="5" transform="translate(200 7288)" fill="#3a1d71"/>
    <g id="coding-programer-web_design-programing-developer" data-name="coding-programer-web design-programing-developer" transform="translate(205.443 7293.943)">
      <path id="Trazado_880263" data-name="Trazado 880263" d="M29.126,16.177a.752.752,0,0,0,1.043.208l2.256-1.5a.752.752,0,0,0,0-1.251l-2.256-1.5a.752.752,0,1,0-.835,1.251l1.32.878-1.317.878a.752.752,0,0,0-.211,1.043Z" transform="translate(-6.699 -2.481)" fill="#00ffdf"/>
      <path id="Trazado_880264" data-name="Trazado 880264" d="M22.376,16.664a.743.743,0,0,0,.376.1.752.752,0,0,0,.653-.376l3.008-5.263a.752.752,0,1,0-1.305-.746L22.1,15.641A.752.752,0,0,0,22.376,16.664Z" transform="translate(-4.962 -1.981)" fill="#00ffdf"/>
      <path id="Trazado_880265" data-name="Trazado 880265" d="M21.752,22.5h1.5a.752.752,0,0,0,0-1.5h-1.5a.752.752,0,1,0,0,1.5Z" transform="translate(-4.714 -4.714)" fill="#00ffdf"/>
      <path id="Trazado_880266" data-name="Trazado 880266" d="M21.752,26.5H32.279a.752.752,0,0,0,0-1.5H21.752a.752.752,0,0,0,0,1.5Z" transform="translate(-4.714 -5.706)" fill="#00ffdf"/>
      <path id="Trazado_880267" data-name="Trazado 880267" d="M27,21.752a.752.752,0,0,0,.752.752H38.279a.752.752,0,1,0,0-1.5H27.752A.752.752,0,0,0,27,21.752Z" transform="translate(-6.202 -4.714)" fill="#00ffdf"/>
      <path id="Trazado_880268" data-name="Trazado 880268" d="M41.256,25h-1.5a.752.752,0,0,0,0,1.5h1.5a.752.752,0,0,0,0-1.5Z" transform="translate(-9.18 -5.706)" fill="#00ffdf"/>
      <path id="Trazado_880269" data-name="Trazado 880269" d="M21.752,30.5h1.5a.752.752,0,0,0,0-1.5h-1.5a.752.752,0,0,0,0,1.5Z" transform="translate(-4.714 -6.699)" fill="#00ffdf"/>
      <path id="Trazado_880270" data-name="Trazado 880270" d="M38.279,29H27.752a.752.752,0,0,0,0,1.5H38.279a.752.752,0,1,0,0-1.5Z" transform="translate(-6.202 -6.699)" fill="#00ffdf"/>
      <path id="Trazado_880271" data-name="Trazado 880271" d="M44.107,29.7V4.256A2.262,2.262,0,0,0,41.851,2H7.263A2.262,2.262,0,0,0,5.008,4.256V29.7L2,38.723v1.624A2.262,2.262,0,0,0,4.256,42.6H9.519v.128a2.223,2.223,0,0,0,.662,1.594l.624.624a.744.744,0,0,1,.218.534v.88a.752.752,0,1,0,1.5,0v-.88a2.223,2.223,0,0,0-.662-1.594l-.624-.624a.744.744,0,0,1-.218-.534V35.46a.376.376,0,1,1,.752,0v2.632a.752.752,0,0,0,1.5,0V33.956a.376.376,0,1,1,.752,0v4.135a.752.752,0,0,0,1.5,0V33.2a.376.376,0,0,1,.752,0v4.887a.752.752,0,0,0,1.5,0V33.956a.376.376,0,1,1,.752,0v6.391a.752.752,0,0,0,1.5,0V38.091h.376a.376.376,0,0,1,.376.376v4.263a.744.744,0,0,1-.218.534l-.624.624a2.223,2.223,0,0,0-.662,1.594v.88a.752.752,0,1,0,1.5,0v-.88a.744.744,0,0,1,.218-.534l.624-.624a2.223,2.223,0,0,0,.662-1.594V42.6h4.511v.128a2.223,2.223,0,0,0,.662,1.594l.624.624a.744.744,0,0,1,.218.534v.88a.752.752,0,1,0,1.5,0v-.88a2.223,2.223,0,0,0-.662-1.594l-.624-.624a.744.744,0,0,1-.218-.534V38.467a.376.376,0,0,1,.376-.376h.376v2.256a.752.752,0,0,0,1.5,0V33.956a.376.376,0,1,1,.752,0v4.135a.752.752,0,0,0,1.5,0V33.2a.376.376,0,0,1,.752,0v4.887a.752.752,0,1,0,1.5,0V33.956a.376.376,0,1,1,.752,0v4.135a.752.752,0,0,0,1.5,0V35.46a.376.376,0,1,1,.752,0v7.271a.744.744,0,0,1-.218.534l-.624.624a2.223,2.223,0,0,0-.662,1.594v.88a.752.752,0,1,0,1.5,0v-.88a.744.744,0,0,1,.218-.534l.624-.624a2.223,2.223,0,0,0,.662-1.594V42.6h5.263a2.262,2.262,0,0,0,2.256-2.256V38.723ZM6.511,4.256A.752.752,0,0,1,7.263,3.5H41.851a.752.752,0,0,1,.752.752V29.069H6.511ZM9.519,41.1H4.256a.752.752,0,0,1-.752-.752V39.6H9.519Zm17.294,0H22.3V39.6h4.511Zm10.9-7.519a1.769,1.769,0,0,0-.406.045,1.88,1.88,0,0,0-1.85-1.549,1.826,1.826,0,0,0-.669.128,1.871,1.871,0,0,0-3.173,0,1.826,1.826,0,0,0-.669-.128,1.88,1.88,0,0,0-1.88,1.88v2.632h-.376a1.88,1.88,0,0,0-1.842,1.5H22.264a1.88,1.88,0,0,0-1.842-1.5h-.376V33.956a1.88,1.88,0,0,0-1.88-1.88,1.826,1.826,0,0,0-.669.128,1.871,1.871,0,0,0-3.173,0,1.826,1.826,0,0,0-.669-.128,1.88,1.88,0,0,0-1.85,1.549,1.769,1.769,0,0,0-.406-.045,1.88,1.88,0,0,0-1.88,1.88v2.632H3.8l2.5-7.519H42.813l2.5,7.519H39.6V35.46A1.88,1.88,0,0,0,37.715,33.58Zm7.895,6.767a.752.752,0,0,1-.752.752H39.6V39.6H45.61Z" fill="#00ffdf"/>
      <path id="Trazado_880272" data-name="Trazado 880272" d="M42.332,6H10.752A.752.752,0,0,0,10,6.752V27.805a.752.752,0,0,0,.752.752h31.58a.752.752,0,0,0,.752-.752V6.752A.752.752,0,0,0,42.332,6ZM41.58,27.053H11.5V7.5H41.58Z" transform="translate(-1.985 -0.992)" fill="#00ffdf"/>
      <path id="Trazado_880273" data-name="Trazado 880273" d="M10.5,42H9.752a.752.752,0,1,0,0,1.5H10.5a.752.752,0,1,0,0-1.5Z" transform="translate(-1.737 -9.924)" fill="#00ffdf"/>
      <path id="Trazado_880274" data-name="Trazado 880274" d="M9.5,46H8.752a.752.752,0,0,0,0,1.5H9.5a.752.752,0,0,0,0-1.5Z" transform="translate(-1.489 -10.916)" fill="#00ffdf"/>
      <path id="Trazado_880275" data-name="Trazado 880275" d="M52.752,43.5H53.5a.752.752,0,1,0,0-1.5h-.752a.752.752,0,1,0,0,1.5Z" transform="translate(-12.405 -9.924)" fill="#00ffdf"/>
      <path id="Trazado_880276" data-name="Trazado 880276" d="M53.752,46a.752.752,0,1,0,0,1.5H54.5a.752.752,0,1,0,0-1.5Z" transform="translate(-12.653 -10.916)" fill="#00ffdf"/>
      <path id="Trazado_880277" data-name="Trazado 880277" d="M29.5,42h-.752a.752.752,0,1,0,0,1.5H29.5a.752.752,0,1,0,0-1.5Z" transform="translate(-6.45 -9.924)" fill="#00ffdf"/>
      <path id="Trazado_880278" data-name="Trazado 880278" d="M34.5,42h-.752a.752.752,0,1,0,0,1.5H34.5a.752.752,0,1,0,0-1.5Z" transform="translate(-7.691 -9.924)" fill="#00ffdf"/>
      <path id="Trazado_880279" data-name="Trazado 880279" d="M29.5,46h-.752a.752.752,0,1,0,0,1.5H29.5a.752.752,0,1,0,0-1.5Z" transform="translate(-6.45 -10.916)" fill="#00ffdf"/>
      <path id="Trazado_880280" data-name="Trazado 880280" d="M34.5,46h-.752a.752.752,0,1,0,0,1.5H34.5a.752.752,0,1,0,0-1.5Z" transform="translate(-7.691 -10.916)" fill="#00ffdf"/>
      <path id="Trazado_880281" data-name="Trazado 880281" d="M19.633,16.177a.752.752,0,0,1-1.043.208l-2.256-1.5a.752.752,0,0,1,0-1.251l2.256-1.5a.752.752,0,1,1,.835,1.251l-1.32.878,1.317.878a.752.752,0,0,1,.211,1.043Z" transform="translate(-3.473 -2.481)" fill="#00ffdf"/>
    </g>
  </g>
</svg>
