<svg xmlns="http://www.w3.org/2000/svg" width="70" height="70" viewBox="0 0 70 70">
  <g id="Grupo_1103913" data-name="Grupo 1103913" transform="translate(-830 -10871)">
    <g id="Elipse_11754" data-name="Elipse 11754" transform="translate(830 10871)" fill="#fff" stroke="#a854f3" stroke-width="3">
      <circle cx="35" cy="35" r="35" stroke="none"/>
      <circle cx="35" cy="35" r="33.5" fill="none"/>
    </g>
    <g id="Grupo_1103912" data-name="Grupo 1103912" transform="translate(845.999 10889.5)">
      <path id="Trazado_880037" data-name="Trazado 880037" d="M36.006,4.565H22.833a.046.046,0,0,1-.042-.025L21.433,1.784A2.313,2.313,0,0,0,19.37.5H11.407a2.3,2.3,0,0,0-2.3,2.3V5.054H6.853a2.3,2.3,0,0,0-2.3,2.3V9.607H2.3a2.3,2.3,0,0,0-2.3,2.3v18.6a2.3,2.3,0,0,0,2.3,2.3H26.9a2.3,2.3,0,0,0,2.3-2.3V28.255h2.254a2.3,2.3,0,0,0,2.3-2.3V23.7h2.254a2.3,2.3,0,0,0,2.3-2.3V6.864a2.3,2.3,0,0,0-2.3-2.3ZM26.9,30.555H2.3a.046.046,0,0,1-.046-.046v-18.6A.046.046,0,0,1,2.3,11.86h7.964a.045.045,0,0,1,.021.006h0s0,0,.006.007a.05.05,0,0,1,.011.012l1.359,2.757a2.285,2.285,0,0,0,2.062,1.282H26.9a.045.045,0,0,1,.046.046c0,7.945,0,14.467,0,14.539a.046.046,0,0,1-.046.046Zm4.6-4.6a.046.046,0,0,1-.046.046H29.2V15.97a2.3,2.3,0,0,0-2.3-2.3H13.726a.046.046,0,0,1-.041-.026l-1.359-2.757a2.286,2.286,0,0,0-2.062-1.282H6.807V7.353a.046.046,0,0,1,.046-.046h7.964a.045.045,0,0,1,.041.026l1.359,2.757a2.285,2.285,0,0,0,2.062,1.282H31.453a.046.046,0,0,1,.046.046ZM36.052,21.4a.046.046,0,0,1-.046.046H33.752V11.417a2.3,2.3,0,0,0-2.3-2.3H18.279a.047.047,0,0,1-.041-.026L16.879,6.337a2.284,2.284,0,0,0-2.062-1.283H11.361V2.8a.046.046,0,0,1,.046-.046H19.37a.046.046,0,0,1,.041.026L20.77,5.536a2.286,2.286,0,0,0,2.063,1.281H36.006a.046.046,0,0,1,.046.047V21.4Zm0,0" fill="#a854f3"/>
      <path id="Trazado_880038" data-name="Trazado 880038" d="M253.67,336.766a1.127,1.127,0,0,0-1.127,1.127v.651a1.127,1.127,0,0,0,2.253,0v-.651A1.127,1.127,0,0,0,253.67,336.766Zm0,0" transform="translate(-233.649 -311.109)" fill="#a854f3"/>
      <path id="Trazado_880039" data-name="Trazado 880039" d="M297.552,336.766a1.127,1.127,0,0,0-1.127,1.127v.651a1.127,1.127,0,0,0,2.253,0v-.651A1.127,1.127,0,0,0,297.552,336.766Zm0,0" transform="translate(-274.248 -311.109)" fill="#a854f3"/>
    </g>
  </g>
</svg>
