<svg xmlns="http://www.w3.org/2000/svg" width="70" height="70" viewBox="0 0 70 70">
  <g id="Grupo_1103900" data-name="Grupo 1103900" transform="translate(-515 -10651)">
    <g id="Elipse_11752" data-name="Elipse 11752" transform="translate(515 10651)" fill="#fff" stroke="#a854f3" stroke-width="3">
      <circle cx="35" cy="35" r="35" stroke="none"/>
      <circle cx="35" cy="35" r="33.5" fill="none"/>
    </g>
    <g id="Grupo_1103895" data-name="Grupo 1103895" transform="translate(512.43 10665.861)">
      <g id="Grupo_1103894" data-name="Grupo 1103894" transform="translate(18.92)">
        <path id="Trazado_880016" data-name="Trazado 880016" d="M145.549,457.936h1.29a.59.59,0,1,0,0-1.18h-1.29a.59.59,0,1,0,0,1.18Z" transform="translate(-135.044 -420.825)" fill="#a854f3"/>
        <path id="Trazado_880017" data-name="Trazado 880017" d="M55.089,17.075H52.424a11.756,11.756,0,0,0-1.2-2.881l1.883-1.879a1.132,1.132,0,0,0,0-1.6L50.373,7.98a1.133,1.133,0,0,0-1.6,0L46.889,9.862A11.8,11.8,0,0,0,44,8.667V6.01a1.133,1.133,0,0,0-1.132-1.132H41.221V2.9a2.905,2.905,0,0,0-2.9-2.9h-16.5a2.905,2.905,0,0,0-2.9,2.9V6.775a.59.59,0,0,0,1.18,0V2.9A1.724,1.724,0,0,1,21.822,1.18h16.5A1.724,1.724,0,0,1,40.041,2.9V32.766H20.1V9.489a.59.59,0,1,0-1.18,0V37.375a2.905,2.905,0,0,0,2.9,2.9h16.5a2.905,2.905,0,0,0,2.9-2.9V35.4h1.647A1.133,1.133,0,0,0,44,34.267V31.61a11.8,11.8,0,0,0,2.888-1.2L48.774,32.3a1.133,1.133,0,0,0,1.6,0l2.738-2.732a1.132,1.132,0,0,0,0-1.6l-1.883-1.879a11.754,11.754,0,0,0,1.2-2.881h2.665A1.133,1.133,0,0,0,56.22,22.07V18.207a1.133,1.133,0,0,0-1.132-1.132Zm-15.048,20.3A1.724,1.724,0,0,1,38.319,39.1h-16.5A1.723,1.723,0,0,1,20.1,37.375V33.946h19.94Zm15-15.354H51.961a.59.59,0,0,0-.576.461,10.592,10.592,0,0,1-1.4,3.374.59.59,0,0,0,.081.734l2.176,2.172-2.668,2.663L47.4,29.253a.59.59,0,0,0-.733-.081,10.632,10.632,0,0,1-3.381,1.4.59.59,0,0,0-.462.576v3.072h-1.6V27.473a7.363,7.363,0,0,0,4.468-1.736.59.59,0,1,0-.763-.9,6.182,6.182,0,0,1-3.7,1.455V13.986a6.173,6.173,0,0,1,5.884,6.153,6.083,6.083,0,0,1-.663,2.781.59.59,0,0,0,1.053.535,7.254,7.254,0,0,0,.791-3.315A7.355,7.355,0,0,0,41.221,12.8V6.059h1.6V9.13a.59.59,0,0,0,.462.576,10.635,10.635,0,0,1,3.381,1.4.59.59,0,0,0,.733-.081L49.573,8.85l2.668,2.663-2.176,2.172a.59.59,0,0,0-.081.734,10.589,10.589,0,0,1,1.4,3.374.59.59,0,0,0,.576.461H55.04v3.766Z" transform="translate(-18.92)" fill="#a854f3"/>
        <path id="Trazado_880018" data-name="Trazado 880018" d="M51.068,51.226h3.59a.785.785,0,0,0,.784-.784v-3.59a.785.785,0,0,0-.784-.784h-3.59a.785.785,0,0,0-.784.784v3.59A.785.785,0,0,0,51.068,51.226Zm.4-3.978h2.8v2.8h-2.8Z" transform="translate(-47.817 -42.443)" fill="#a854f3"/>
        <path id="Trazado_880019" data-name="Trazado 880019" d="M128.66,51.226h3.59a.785.785,0,0,0,.784-.784v-3.59a.785.785,0,0,0-.784-.784h-3.59a.785.785,0,0,0-.784.784v3.59A.785.785,0,0,0,128.66,51.226Zm.4-3.978h2.8v2.8h-2.8Z" transform="translate(-119.305 -42.443)" fill="#a854f3"/>
        <path id="Trazado_880020" data-name="Trazado 880020" d="M206.254,51.226h3.59a.785.785,0,0,0,.784-.784v-3.59a.785.785,0,0,0-.784-.784h-3.59a.785.785,0,0,0-.784.784v3.59A.785.785,0,0,0,206.254,51.226Zm.4-3.978h2.8v2.8h-2.8Z" transform="translate(-190.795 -42.443)" fill="#a854f3"/>
        <path id="Trazado_880021" data-name="Trazado 880021" d="M50.284,135.27a.785.785,0,0,0,.784.784h3.59a.785.785,0,0,0,.784-.784v-3.59a.785.785,0,0,0-.784-.784h-3.59a.785.785,0,0,0-.784.784Zm1.18-3.194h2.8v2.8h-2.8Z" transform="translate(-47.817 -120.599)" fill="#a854f3"/>
        <path id="Trazado_880022" data-name="Trazado 880022" d="M127.876,135.27a.785.785,0,0,0,.784.784h3.59a.785.785,0,0,0,.784-.784v-3.59a.785.785,0,0,0-.784-.784h-3.59a.785.785,0,0,0-.784.784Zm1.18-3.194h2.8v2.8h-2.8Z" transform="translate(-119.305 -120.599)" fill="#a854f3"/>
        <path id="Trazado_880023" data-name="Trazado 880023" d="M205.469,135.27a.785.785,0,0,0,.784.784h3.59a.785.785,0,0,0,.784-.784v-3.59a.785.785,0,0,0-.784-.784h-3.59a.785.785,0,0,0-.784.784Zm1.181-3.194h2.8v2.8h-2.8Z" transform="translate(-190.794 -120.599)" fill="#a854f3"/>
      </g>
    </g>
  </g>
</svg>
