<svg xmlns="http://www.w3.org/2000/svg" width="170" height="163" viewBox="0 0 170 163">
  <g id="Grupo_1104191" data-name="Grupo 1104191" transform="translate(-200 -19964)">
    <rect id="Rectángulo_403856" data-name="Rectángulo 403856" width="170" height="163" rx="10" transform="translate(200 19964)" fill="#debefb"/>
    <circle id="Elipse_11764" data-name="Elipse 11764" cx="45.5" cy="45.5" r="45.5" transform="translate(219 19977)" fill="#00ffdf"/>
    <g id="Elipse_11765" data-name="Elipse 11765" transform="translate(289 20059)" fill="none" stroke="#0b47db" stroke-width="1">
      <circle cx="18.5" cy="18.5" r="18.5" stroke="none"/>
      <circle cx="18.5" cy="18.5" r="18" fill="none"/>
    </g>
    <g id="Grupo_1104190" data-name="Grupo 1104190" transform="translate(244.285 20004.328)">
      <path id="Trazado_880408" data-name="Trazado 880408" d="M82.4,73.764H11.546a4.053,4.053,0,0,1-4.054-4.053V12.046a4.054,4.054,0,0,1,4.054-4.054H82.4a4.053,4.053,0,0,1,4.053,4.054V69.711A4.053,4.053,0,0,1,82.4,73.764Zm0,0" transform="translate(-6.301 -6.301)" fill="#ffd86e"/>
      <path id="Trazado_880409" data-name="Trazado 880409" d="M456.329,12.049V69.714a4.053,4.053,0,0,1-4.053,4.053h-4.952a4.053,4.053,0,0,0,4.053-4.053V12.049A4.053,4.053,0,0,0,447.324,8h4.952A4.053,4.053,0,0,1,456.329,12.049Zm0,0" transform="translate(-376.179 -6.304)" fill="#ffb509"/>
      <path id="Trazado_880410" data-name="Trazado 880410" d="M86.451,360.129H7.493v5.713a4.053,4.053,0,0,0,4.054,4.053H82.4a4.053,4.053,0,0,0,4.053-4.053Zm0,0" transform="translate(-6.302 -302.431)" fill="#838383"/>
      <path id="Trazado_880411" data-name="Trazado 880411" d="M456.329,360.129v5.713a4.053,4.053,0,0,1-4.053,4.053h-4.952a4.053,4.053,0,0,0,4.053-4.053v-5.713Zm0,0" transform="translate(-376.179 -302.431)" fill="#5a5a5a"/>
      <path id="Trazado_880412" data-name="Trazado 880412" d="M87.007,21.82H8.047V12.045A4.053,4.053,0,0,1,12.1,7.992H82.954a4.053,4.053,0,0,1,4.053,4.053Zm0,0" transform="translate(-6.768 -6.301)" fill="#acacac"/>
      <path id="Trazado_880413" data-name="Trazado 880413" d="M456.42,12.048v9.776h-5.042V12.048A4.053,4.053,0,0,0,447.324,8h5.042A4.053,4.053,0,0,1,456.42,12.048Zm0,0" transform="translate(-376.18 -6.304)" fill="#9c9c9c"/>
      <path id="Trazado_880414" data-name="Trazado 880414" d="M186.277,421.531h22.088v6.658H186.277Zm0,0" transform="translate(-156.651 -354.068)" fill="#5a5a5a"/>
      <path id="Trazado_880415" data-name="Trazado 880415" d="M173.477,469.921h-36.4a.8.8,0,0,1-.795-.795v-2.575a3.162,3.162,0,0,1,3.162-3.162h31.668a3.162,3.162,0,0,1,3.161,3.162v2.575a.794.794,0,0,1-.795.795Zm0,0" transform="translate(-114.606 -389.269)" fill="#838383"/>
      <path id="Trazado_880416" data-name="Trazado 880416" d="M339.407,466.555v2.576a.8.8,0,0,1-.795.795h-2.8v-3.37a3.162,3.162,0,0,0-3.16-3.16h3.6A3.161,3.161,0,0,1,339.407,466.555Zm0,0" transform="translate(-279.742 -389.273)" fill="#5a5a5a"/>
      <path id="Trazado_880417" data-name="Trazado 880417" d="M295.477,275.613h25.807V280.5H295.477Zm0,0" transform="translate(-248.483 -231.357)" fill="#64dcfc"/>
      <path id="Trazado_880418" data-name="Trazado 880418" d="M295.477,357.273h25.807v4.892H295.477Zm0,0" transform="translate(-248.483 -300.03)" fill="#64dcfc"/>
      <path id="Trazado_880419" data-name="Trazado 880419" d="M438.551,275.613H441.6V280.5h-3.051Zm0,0" transform="translate(-368.801 -231.357)" fill="#00d1fc"/>
      <path id="Trazado_880420" data-name="Trazado 880420" d="M438.551,357.273H441.6v4.892h-3.051Zm0,0" transform="translate(-368.801 -300.03)" fill="#00d1fc"/>
      <g id="Grupo_1104190-2" data-name="Grupo 1104190" transform="translate(43.705 36.159)">
        <path id="Trazado_880421" data-name="Trazado 880421" d="M306.03,232.8h-30.08a1.152,1.152,0,0,1-1.152-1.152v-5.792a1.153,1.153,0,0,1,1.152-1.152h30.08a1.153,1.153,0,0,1,1.152,1.152v5.792A1.152,1.152,0,0,1,306.03,232.8Zm0,0" transform="translate(-274.797 -224.707)" fill="#0396fd"/>
        <path id="Trazado_880422" data-name="Trazado 880422" d="M306.03,314.463h-30.08a1.152,1.152,0,0,1-1.152-1.152v-5.792a1.153,1.153,0,0,1,1.152-1.152h30.08a1.153,1.153,0,0,1,1.152,1.152v5.792A1.152,1.152,0,0,1,306.03,314.463Zm0,0" transform="translate(-274.797 -293.379)" fill="#0396fd"/>
        <path id="Trazado_880423" data-name="Trazado 880423" d="M306.03,396.124h-30.08a1.152,1.152,0,0,1-1.152-1.152V389.18a1.152,1.152,0,0,1,1.152-1.152h30.08a1.152,1.152,0,0,1,1.152,1.152v5.792A1.152,1.152,0,0,1,306.03,396.124Zm0,0" transform="translate(-274.797 -362.052)" fill="#0396fd"/>
      </g>
      <path id="Trazado_880424" data-name="Trazado 880424" d="M458.192,225.863v5.792a1.151,1.151,0,0,1-1.152,1.152h-2.673a1.151,1.151,0,0,0,1.152-1.152v-5.792a1.151,1.151,0,0,0-1.152-1.152h2.673A1.151,1.151,0,0,1,458.192,225.863Zm0,0" transform="translate(-382.102 -188.551)" fill="#0077f0"/>
      <path id="Trazado_880425" data-name="Trazado 880425" d="M458.192,307.519v5.792a1.151,1.151,0,0,1-1.152,1.152h-2.673a1.151,1.151,0,0,0,1.152-1.152v-5.792a1.151,1.151,0,0,0-1.152-1.152h2.673A1.151,1.151,0,0,1,458.192,307.519Zm0,0" transform="translate(-382.102 -257.22)" fill="#0077f0"/>
      <path id="Trazado_880426" data-name="Trazado 880426" d="M458.192,389.183v5.792a1.152,1.152,0,0,1-1.152,1.152h-2.673a1.152,1.152,0,0,0,1.152-1.152v-5.792a1.151,1.151,0,0,0-1.152-1.152h2.673A1.151,1.151,0,0,1,458.192,389.183Zm0,0" transform="translate(-382.102 -325.896)" fill="#0077f0"/>
      <path id="Trazado_880427" data-name="Trazado 880427" d="M45.377,39.059a2.306,2.306,0,1,1-2.306-2.306A2.306,2.306,0,0,1,45.377,39.059Zm0,0" transform="translate(-34.282 -30.488)" fill="#ff6b81"/>
      <path id="Trazado_880428" data-name="Trazado 880428" d="M101.362,39.059a2.306,2.306,0,1,1-2.306-2.306A2.306,2.306,0,0,1,101.362,39.059Zm0,0" transform="translate(-81.363 -30.488)" fill="#ffd86e"/>
      <path id="Trazado_880429" data-name="Trazado 880429" d="M157.349,39.059a2.306,2.306,0,1,1-2.306-2.306A2.306,2.306,0,0,1,157.349,39.059Zm0,0" transform="translate(-128.446 -30.488)" fill="#80e0dc"/>
      <path id="Trazado_880430" data-name="Trazado 880430" d="M49.16,39.064a2.3,2.3,0,0,1-3.895,1.667A2.3,2.3,0,0,0,46.8,36.76a.529.529,0,0,1,.054,0,2.3,2.3,0,0,1,2.3,2.306Zm0,0" transform="translate(-38.067 -30.491)" fill="#ff435f"/>
      <path id="Trazado_880431" data-name="Trazado 880431" d="M105.142,39.064a2.305,2.305,0,0,1-3.9,1.667,2.3,2.3,0,0,0,1.538-3.971.488.488,0,0,1,.052,0,2.3,2.3,0,0,1,2.306,2.306Zm0,0" transform="translate(-85.144 -30.491)" fill="#ffb509"/>
      <path id="Trazado_880432" data-name="Trazado 880432" d="M161.131,39.064a2.306,2.306,0,0,1-3.9,1.667,2.3,2.3,0,0,0,1.536-3.971.53.53,0,0,1,.054,0,2.306,2.306,0,0,1,2.306,2.306Zm0,0" transform="translate(-132.227 -30.491)" fill="#00a8b0"/>
      <path id="Trazado_880433" data-name="Trazado 880433" d="M37.359,136.778a1.192,1.192,0,1,0,1.686-1.686L36.15,132.2l2.894-2.893a1.192,1.192,0,1,0-1.686-1.686l-3.736,3.736a1.192,1.192,0,0,0,0,1.686Zm0,0" transform="translate(-27.982 -106.608)"/>
      <path id="Trazado_880434" data-name="Trazado 880434" d="M116.174,132.2l-2.894,2.894a1.192,1.192,0,1,0,1.686,1.686l3.737-3.737a1.191,1.191,0,0,0,0-1.685l-3.737-3.737a1.192,1.192,0,0,0-1.685,1.686Zm0,0" transform="translate(-94.97 -106.605)"/>
      <path id="Trazado_880435" data-name="Trazado 880435" d="M77.173,137.04a1.192,1.192,0,0,0,1.545-.673l2.936-7.473a1.192,1.192,0,1,0-2.218-.872L76.5,135.495a1.192,1.192,0,0,0,.673,1.545Zm0,0" transform="translate(-64.264 -106.604)"/>
      <path id="Trazado_880436" data-name="Trazado 880436" d="M38.707,220.6h8.029a1.192,1.192,0,0,0,0-2.384H38.707a1.192,1.192,0,0,0,0,2.384Zm0,0" transform="translate(-31.549 -183.088)"/>
      <path id="Trazado_880437" data-name="Trazado 880437" d="M130.819,218.215H116.7a1.192,1.192,0,0,0,0,2.384h14.115a1.192,1.192,0,1,0,0-2.384Zm0,0" transform="translate(-97.14 -183.088)"/>
      <path id="Trazado_880438" data-name="Trazado 880438" d="M38.707,252.2h3.42a1.192,1.192,0,0,0,0-2.384h-3.42a1.192,1.192,0,0,0,0,2.384Zm0,0" transform="translate(-31.549 -209.667)"/>
      <path id="Trazado_880439" data-name="Trazado 880439" d="M178.039,249.82a1.192,1.192,0,0,0,0,2.384h2.083a1.192,1.192,0,1,0,0-2.384Zm0,0" transform="translate(-148.721 -209.667)"/>
      <path id="Trazado_880440" data-name="Trazado 880440" d="M97.925,251.012a1.192,1.192,0,0,0-1.192-1.192H86.5a1.192,1.192,0,0,0,0,2.384h10.23A1.192,1.192,0,0,0,97.925,251.012Zm0,0" transform="translate(-71.744 -209.667)"/>
      <path id="Trazado_880441" data-name="Trazado 880441" d="M213.7,251.012a1.192,1.192,0,0,0,1.192,1.192h3.9a1.192,1.192,0,1,0,0-2.384h-3.9A1.192,1.192,0,0,0,213.7,251.012Zm0,0" transform="translate(-179.715 -209.667)"/>
      <path id="Trazado_880442" data-name="Trazado 880442" d="M166.591,151.662h4.115a1.192,1.192,0,1,0,0-2.384h-4.115a1.192,1.192,0,1,0,0,2.384Zm0,0" transform="translate(-139.093 -125.115)"/>
      <path id="Trazado_880443" data-name="Trazado 880443" d="M221.438,151.662h25.106a1.192,1.192,0,0,0,0-2.384H221.438a1.192,1.192,0,1,0,0,2.384Zm0,0" transform="translate(-185.217 -125.115)"/>
      <path id="Trazado_880444" data-name="Trazado 880444" d="M301.545,182.246h-10.17a1.192,1.192,0,0,0,0,2.384h10.17a1.192,1.192,0,0,0,0-2.384Zm0,0" transform="translate(-244.031 -152.84)"/>
      <path id="Trazado_880445" data-name="Trazado 880445" d="M248.914,182.246h-3.5a1.192,1.192,0,0,0,0,2.384h3.5a1.192,1.192,0,0,0,0-2.384Zm0,0" transform="translate(-205.383 -152.84)"/>
      <path id="Trazado_880446" data-name="Trazado 880446" d="M166.591,184.63h8.564a1.192,1.192,0,0,0,0-2.384h-8.564a1.192,1.192,0,1,0,0,2.384Zm0,0" transform="translate(-139.093 -152.84)"/>
      <path id="Trazado_880447" data-name="Trazado 880447" d="M108.467,281.16h-8.028a1.192,1.192,0,1,0,0,2.383h8.028a1.192,1.192,0,0,0,0-2.383Zm0,0" transform="translate(-83.462 -236.022)"/>
      <path id="Trazado_880448" data-name="Trazado 880448" d="M44.875,281.16H38.707a1.192,1.192,0,1,0,0,2.383h6.168a1.192,1.192,0,1,0,0-2.383Zm0,0" transform="translate(-31.549 -236.022)"/>
      <path id="Trazado_880449" data-name="Trazado 880449" d="M186.969,281.16H176.481a1.192,1.192,0,1,0,0,2.383h10.488a1.192,1.192,0,1,0,0-2.383Zm0,0" transform="translate(-147.411 -236.022)"/>
      <path id="Trazado_880450" data-name="Trazado 880450" d="M301.274,242.668h-5.735a1.192,1.192,0,0,0,0,2.384h5.735a1.192,1.192,0,0,0,0-2.384Zm0,0" transform="translate(-247.533 -203.652)"/>
      <path id="Trazado_880451" data-name="Trazado 880451" d="M394.168,245.052h8.1a1.192,1.192,0,1,0,0-2.384h-8.1a1.192,1.192,0,0,0,0,2.384Zm0,0" transform="translate(-330.476 -203.652)"/>
      <path id="Trazado_880452" data-name="Trazado 880452" d="M358.9,242.668h-1.855a1.192,1.192,0,1,0,0,2.384H358.9a1.192,1.192,0,0,0,0-2.384Zm0,0" transform="translate(-299.259 -203.652)"/>
      <path id="Trazado_880453" data-name="Trazado 880453" d="M295.539,326.712h5.735a1.192,1.192,0,0,0,0-2.383h-5.735a1.192,1.192,0,1,0,0,2.383Zm0,0" transform="translate(-247.533 -272.325)"/>
      <path id="Trazado_880454" data-name="Trazado 880454" d="M394.168,326.712h8.1a1.192,1.192,0,1,0,0-2.383h-8.1a1.192,1.192,0,1,0,0,2.383Zm0,0" transform="translate(-330.476 -272.325)"/>
      <path id="Trazado_880455" data-name="Trazado 880455" d="M357.051,326.712h1.855a1.192,1.192,0,1,0,0-2.383h-1.855a1.192,1.192,0,0,0,0,2.383Zm0,0" transform="translate(-299.262 -272.325)"/>
      <path id="Trazado_880456" data-name="Trazado 880456" d="M301.274,405.988h-5.735a1.192,1.192,0,0,0,0,2.383h5.735a1.192,1.192,0,1,0,0-2.383Zm0,0" transform="translate(-247.533 -340.997)"/>
      <path id="Trazado_880457" data-name="Trazado 880457" d="M402.264,405.988h-8.1a1.192,1.192,0,0,0,0,2.383h8.1a1.192,1.192,0,1,0,0-2.383Zm0,0" transform="translate(-330.475 -340.997)"/>
      <path id="Trazado_880458" data-name="Trazado 880458" d="M358.9,405.988h-1.855a1.192,1.192,0,1,0,0,2.383H358.9a1.192,1.192,0,1,0,0-2.383Zm0,0" transform="translate(-299.259 -340.997)"/>
      <path id="Trazado_880459" data-name="Trazado 880459" d="M76.186.5H5.245A5.251,5.251,0,0,0,0,5.745V63.41a5.251,5.251,0,0,0,5.245,5.245H9.73a1.192,1.192,0,1,0,0-2.383H5.245A2.865,2.865,0,0,1,2.383,63.41V58.889H45.8v2.054h-.945a2.346,2.346,0,0,0-2.344,2.344v2.985H16.976a1.192,1.192,0,0,0,0,2.383H28.435v4.274h-3.6a4.358,4.358,0,0,0-4.353,4.353v2.575a1.988,1.988,0,0,0,1.986,1.986h36.4a1.988,1.988,0,0,0,1.986-1.986V77.283A4.358,4.358,0,0,0,56.5,72.929h-3.6V71.423H74.938a2.346,2.346,0,0,0,2.343-2.344v-.561a5.253,5.253,0,0,0,4.059-5.108l.09-57.665A5.25,5.25,0,0,0,76.186.5ZM44.9,56.052V50.339h30v5.713Zm3.288-8.1V45.448H71.609v2.507Zm23.423,10.48v2.508H48.186V58.435ZM30.818,68.655h11.7v.424a2.346,2.346,0,0,0,2.344,2.343h5.665v1.507h-19.7ZM56.5,75.313a1.972,1.972,0,0,1,1.969,1.969V79.46H22.866V77.283a1.972,1.972,0,0,1,1.97-1.969ZM74.9,69.039h-30V63.327h30Zm4.059-5.629a2.862,2.862,0,0,1-1.676,2.6V63.287a2.347,2.347,0,0,0-2.344-2.343h-.945V58.889h4.965Zm0-6.9H77.243c.024-.135.039-6.207.039-6.207a2.347,2.347,0,0,0-2.344-2.344h-.945V45.448h.945A2.347,2.347,0,0,0,77.282,43.1V37.312a2.347,2.347,0,0,0-2.344-2.344H68.206a1.192,1.192,0,0,0,0,2.384H74.9v5.713h-30V37.351H60.791a1.192,1.192,0,0,0,0-2.384H44.857a2.347,2.347,0,0,0-2.344,2.344V43.1a2.347,2.347,0,0,0,2.344,2.344H45.8v2.507h-.945A2.347,2.347,0,0,0,42.513,50.3s.015,6.072.039,6.207H2.383V16.711H78.957Zm0-42.178H2.471V5.745A2.865,2.865,0,0,1,5.332,2.884H76.1a2.865,2.865,0,0,1,2.862,2.862Zm0,0"/>
      <path id="Trazado_880460" data-name="Trazado 880460" d="M36.771,29.262a3.5,3.5,0,1,0,3.5,3.5A3.5,3.5,0,0,0,36.771,29.262Zm0,4.611a1.114,1.114,0,1,1,1.114-1.114A1.115,1.115,0,0,1,36.771,33.873Zm0,0" transform="translate(-27.982 -24.187)"/>
      <path id="Trazado_880461" data-name="Trazado 880461" d="M92.756,29.262a3.5,3.5,0,1,0,3.5,3.5A3.5,3.5,0,0,0,92.756,29.262Zm0,4.611a1.114,1.114,0,1,1,1.114-1.114A1.115,1.115,0,0,1,92.756,33.873Zm0,0" transform="translate(-75.062 -24.187)"/>
      <path id="Trazado_880462" data-name="Trazado 880462" d="M148.743,29.262a3.5,3.5,0,1,0,3.5,3.5A3.5,3.5,0,0,0,148.743,29.262Zm0,4.611a1.114,1.114,0,1,1,1.114-1.114A1.115,1.115,0,0,1,148.743,33.873Zm0,0" transform="translate(-122.145 -24.187)"/>
    </g>
  </g>
</svg>
