<svg xmlns="http://www.w3.org/2000/svg" width="275" height="130" viewBox="0 0 275 130">
  <g id="Grupo_1104213" data-name="Grupo 1104213" transform="translate(-1020 -8569)">
    <path id="Rectángulo_404066" data-name="Rectángulo 404066" d="M14,0H261a14,14,0,0,1,14,14V130a0,0,0,0,1,0,0H0a0,0,0,0,1,0,0V14A14,14,0,0,1,14,0Z" transform="translate(1020 8569)" fill="#aec4fa"/>
    <g id="Grupo_1103847" data-name="Grupo 1103847" transform="translate(715)">
      <circle id="Elipse_11750" data-name="Elipse 11750" cx="50.5" cy="50.5" r="50.5" transform="translate(392 8584)" fill="#00ffdf"/>
      <g id="Grupo_1103850" data-name="Grupo 1103850" transform="translate(418.049 8609.575)">
        <path id="Trazado_879857" data-name="Trazado 879857" d="M52.476,47.491H9.926a2.434,2.434,0,0,1-2.435-2.434V10.427A2.434,2.434,0,0,1,9.926,7.992H52.476a2.434,2.434,0,0,1,2.434,2.435V45.057A2.434,2.434,0,0,1,52.476,47.491Zm0,0" transform="translate(-6.777 -6.777)" fill="#ffd86e"/>
        <path id="Trazado_879858" data-name="Trazado 879858" d="M452.732,10.43V45.061a2.434,2.434,0,0,1-2.434,2.434h-2.974a2.434,2.434,0,0,0,2.434-2.434V10.43A2.434,2.434,0,0,0,447.324,8H450.3A2.434,2.434,0,0,1,452.732,10.43Zm0,0" transform="translate(-404.598 -6.78)" fill="#ffb509"/>
        <path id="Trazado_879859" data-name="Trazado 879859" d="M54.911,360.129H7.493v3.431a2.434,2.434,0,0,0,2.435,2.434H52.477a2.434,2.434,0,0,0,2.434-2.434Zm0,0" transform="translate(-6.778 -325.279)" fill="#838383"/>
        <path id="Trazado_879860" data-name="Trazado 879860" d="M452.732,360.129v3.431a2.434,2.434,0,0,1-2.434,2.434h-2.974a2.434,2.434,0,0,0,2.434-2.434v-3.431Zm0,0" transform="translate(-404.598 -325.279)" fill="#5a5a5a"/>
        <path id="Trazado_879861" data-name="Trazado 879861" d="M55.467,16.3H8.047v-5.87a2.434,2.434,0,0,1,2.434-2.434H53.032a2.434,2.434,0,0,1,2.434,2.434Zm0,0" transform="translate(-7.279 -6.777)" fill="#acacac"/>
        <path id="Trazado_879862" data-name="Trazado 879862" d="M452.787,10.429V16.3h-3.028V10.429A2.434,2.434,0,0,0,447.325,8h3.028A2.434,2.434,0,0,1,452.787,10.429Zm0,0" transform="translate(-404.599 -6.78)" fill="#9c9c9c"/>
        <path id="Trazado_879863" data-name="Trazado 879863" d="M186.277,421.531h13.265v4H186.277Zm0,0" transform="translate(-168.485 -380.816)" fill="#5a5a5a"/>
        <path id="Trazado_879864" data-name="Trazado 879864" d="M158.619,467.313H136.758a.477.477,0,0,1-.477-.477v-1.546a1.9,1.9,0,0,1,1.9-1.9H157.2a1.9,1.9,0,0,1,1.9,1.9v1.546a.477.477,0,0,1-.477.477Zm0,0" transform="translate(-123.264 -418.678)" fill="#838383"/>
        <path id="Trazado_879865" data-name="Trazado 879865" d="M336.707,465.293v1.547a.477.477,0,0,1-.477.477h-1.684v-2.024a1.9,1.9,0,0,0-1.9-1.9h2.161A1.9,1.9,0,0,1,336.707,465.293Zm0,0" transform="translate(-300.876 -418.682)" fill="#5a5a5a"/>
        <path id="Trazado_879866" data-name="Trazado 879866" d="M295.477,275.613h15.5v2.937h-15.5Zm0,0" transform="translate(-267.255 -248.836)" fill="#64dcfc"/>
        <path id="Trazado_879867" data-name="Trazado 879867" d="M295.477,357.273h15.5v2.938h-15.5Zm0,0" transform="translate(-267.255 -322.696)" fill="#64dcfc"/>
        <path id="Trazado_879868" data-name="Trazado 879868" d="M438.551,275.613h1.832v2.937h-1.832Zm0,0" transform="translate(-396.663 -248.836)" fill="#00d1fc"/>
        <path id="Trazado_879869" data-name="Trazado 879869" d="M438.551,357.273h1.832v2.938h-1.832Zm0,0" transform="translate(-396.663 -322.696)" fill="#00d1fc"/>
        <g id="Grupo_1103849" data-name="Grupo 1103849" transform="translate(26.247 21.915)">
          <path id="Trazado_879870" data-name="Trazado 879870" d="M293.554,229.569H275.489a.692.692,0,0,1-.692-.692V225.4a.692.692,0,0,1,.692-.692h18.065a.692.692,0,0,1,.692.692v3.478A.692.692,0,0,1,293.554,229.569Zm0,0" transform="translate(-274.797 -224.707)" fill="#0396fd"/>
          <path id="Trazado_879871" data-name="Trazado 879871" d="M293.554,311.229H275.489a.692.692,0,0,1-.692-.692v-3.478a.692.692,0,0,1,.692-.692h18.065a.692.692,0,0,1,.692.692v3.478A.692.692,0,0,1,293.554,311.229Zm0,0" transform="translate(-274.797 -298.567)" fill="#0396fd"/>
          <path id="Trazado_879872" data-name="Trazado 879872" d="M293.554,392.89H275.489a.692.692,0,0,1-.692-.692V388.72a.692.692,0,0,1,.692-.692h18.065a.692.692,0,0,1,.692.692V392.2A.692.692,0,0,1,293.554,392.89Zm0,0" transform="translate(-274.797 -372.428)" fill="#0396fd"/>
        </g>
        <path id="Trazado_879873" data-name="Trazado 879873" d="M456.664,225.4v3.478a.691.691,0,0,1-.692.692h-1.605a.691.691,0,0,0,.692-.692V225.4a.691.691,0,0,0-.692-.692h1.605A.691.691,0,0,1,456.664,225.4Zm0,0" transform="translate(-410.969 -202.795)" fill="#0077f0"/>
        <path id="Trazado_879874" data-name="Trazado 879874" d="M456.664,307.059v3.478a.691.691,0,0,1-.692.692h-1.605a.691.691,0,0,0,.692-.692v-3.478a.691.691,0,0,0-.692-.692h1.605A.691.691,0,0,1,456.664,307.059Zm0,0" transform="translate(-410.969 -276.652)" fill="#0077f0"/>
        <path id="Trazado_879875" data-name="Trazado 879875" d="M456.664,388.723V392.2a.692.692,0,0,1-.692.692h-1.605a.692.692,0,0,0,.692-.692v-3.478a.691.691,0,0,0-.692-.692h1.605A.691.691,0,0,1,456.664,388.723Zm0,0" transform="translate(-410.969 -350.516)" fill="#0077f0"/>
        <path id="Trazado_879876" data-name="Trazado 879876" d="M43.535,38.138a1.385,1.385,0,1,1-1.385-1.385A1.385,1.385,0,0,1,43.535,38.138Zm0,0" transform="translate(-36.872 -32.791)" fill="#ff6b81"/>
        <path id="Trazado_879877" data-name="Trazado 879877" d="M99.519,38.138a1.385,1.385,0,1,1-1.385-1.385A1.385,1.385,0,0,1,99.519,38.138Zm0,0" transform="translate(-87.509 -32.791)" fill="#ffd86e"/>
        <path id="Trazado_879878" data-name="Trazado 879878" d="M155.507,38.138a1.385,1.385,0,1,1-1.385-1.385A1.385,1.385,0,0,1,155.507,38.138Zm0,0" transform="translate(-138.149 -32.791)" fill="#80e0dc"/>
        <path id="Trazado_879879" data-name="Trazado 879879" d="M47.6,38.143a1.384,1.384,0,0,1-2.339,1,1.383,1.383,0,0,0,.923-2.385h.032A1.384,1.384,0,0,1,47.6,38.143Zm0,0" transform="translate(-40.942 -32.795)" fill="#ff435f"/>
        <path id="Trazado_879880" data-name="Trazado 879880" d="M103.586,38.143a1.384,1.384,0,0,1-2.34,1,1.383,1.383,0,0,0,.924-2.385h.031a1.384,1.384,0,0,1,1.385,1.385Zm0,0" transform="translate(-91.576 -32.795)" fill="#ffb509"/>
        <path id="Trazado_879881" data-name="Trazado 879881" d="M159.574,38.143a1.385,1.385,0,0,1-2.34,1,1.383,1.383,0,0,0,.923-2.385h.032a1.385,1.385,0,0,1,1.385,1.385Zm0,0" transform="translate(-142.216 -32.795)" fill="#00a8b0"/>
        <path id="Trazado_879882" data-name="Trazado 879882" d="M35.727,132.98a.716.716,0,0,0,1.012-1.012L35,130.23l1.738-1.738a.716.716,0,1,0-1.012-1.012l-2.244,2.244a.716.716,0,0,0,0,1.012Zm0,0" transform="translate(-30.096 -114.662)"/>
        <path id="Trazado_879883" data-name="Trazado 879883" d="M114.878,130.226l-1.738,1.738a.716.716,0,1,0,1.012,1.012l2.244-2.244a.715.715,0,0,0,0-1.012l-2.244-2.244a.716.716,0,0,0-1.012,1.012Zm0,0" transform="translate(-102.145 -114.659)"/>
        <path id="Trazado_879884" data-name="Trazado 879884" d="M76.871,133.135a.716.716,0,0,0,.928-.4l1.763-4.488a.716.716,0,1,0-1.332-.523l-1.763,4.488A.716.716,0,0,0,76.871,133.135Zm0,0" transform="translate(-69.119 -114.657)"/>
        <path id="Trazado_879885" data-name="Trazado 879885" d="M38.231,219.646h4.822a.716.716,0,0,0,0-1.432H38.231a.716.716,0,0,0,0,1.432Zm0,0" transform="translate(-33.933 -196.92)"/>
        <path id="Trazado_879886" data-name="Trazado 879886" d="M124.7,218.215h-8.477a.716.716,0,0,0,0,1.432H124.7a.716.716,0,1,0,0-1.432Zm0,0" transform="translate(-104.479 -196.92)"/>
        <path id="Trazado_879887" data-name="Trazado 879887" d="M38.231,251.252h2.054a.716.716,0,0,0,0-1.432H38.231a.716.716,0,0,0,0,1.432Zm0,0" transform="translate(-33.933 -225.507)"/>
        <path id="Trazado_879888" data-name="Trazado 879888" d="M177.563,249.82a.716.716,0,0,0,0,1.432h1.251a.716.716,0,1,0,0-1.432Zm0,0" transform="translate(-159.957 -225.506)"/>
        <path id="Trazado_879889" data-name="Trazado 879889" d="M92.887,250.536a.716.716,0,0,0-.716-.716H86.028a.716.716,0,0,0,0,1.432h6.144A.716.716,0,0,0,92.887,250.536Zm0,0" transform="translate(-77.164 -225.507)"/>
        <path id="Trazado_879890" data-name="Trazado 879890" d="M213.7,250.536a.716.716,0,0,0,.716.716h2.343a.716.716,0,1,0,0-1.432h-2.343A.716.716,0,0,0,213.7,250.536Zm0,0" transform="translate(-193.292 -225.507)"/>
        <path id="Trazado_879891" data-name="Trazado 879891" d="M166.115,150.709h2.471a.716.716,0,1,0,0-1.432h-2.471a.716.716,0,1,0,0,1.432Zm0,0" transform="translate(-149.601 -134.567)"/>
        <path id="Trazado_879892" data-name="Trazado 879892" d="M220.962,150.709h15.078a.716.716,0,0,0,0-1.432H220.962a.716.716,0,1,0,0,1.432Zm0,0" transform="translate(-199.21 -134.567)"/>
        <path id="Trazado_879893" data-name="Trazado 879893" d="M297.007,182.246H290.9a.716.716,0,0,0,0,1.432h6.108a.716.716,0,0,0,0-1.432Zm0,0" transform="translate(-262.467 -164.387)"/>
        <path id="Trazado_879894" data-name="Trazado 879894" d="M247.041,182.246h-2.1a.716.716,0,0,0,0,1.432h2.1a.716.716,0,0,0,0-1.432Zm0,0" transform="translate(-220.899 -164.387)"/>
        <path id="Trazado_879895" data-name="Trazado 879895" d="M166.115,183.677h5.143a.716.716,0,0,0,0-1.432h-5.143a.716.716,0,1,0,0,1.432Zm0,0" transform="translate(-149.601 -164.386)"/>
        <path id="Trazado_879896" data-name="Trazado 879896" d="M104.784,281.16H99.962a.716.716,0,1,0,0,1.431h4.821a.716.716,0,1,0,0-1.431Zm0,0" transform="translate(-89.767 -253.853)"/>
        <path id="Trazado_879897" data-name="Trazado 879897" d="M41.935,281.16h-3.7a.716.716,0,0,0,0,1.431h3.7a.716.716,0,0,0,0-1.431Zm0,0" transform="translate(-33.933 -253.853)"/>
        <path id="Trazado_879898" data-name="Trazado 879898" d="M182.3,281.16h-6.3a.716.716,0,1,0,0,1.431h6.3a.716.716,0,1,0,0-1.431Zm0,0" transform="translate(-158.547 -253.853)"/>
        <path id="Trazado_879899" data-name="Trazado 879899" d="M298.507,242.668h-3.444a.716.716,0,0,0,0,1.432h3.444a.716.716,0,0,0,0-1.432Zm0,0" transform="translate(-266.233 -219.037)"/>
        <path id="Trazado_879900" data-name="Trazado 879900" d="M393.692,244.1h4.862a.716.716,0,1,0,0-1.432h-4.862a.716.716,0,0,0,0,1.432Zm0,0" transform="translate(-355.442 -219.037)"/>
        <path id="Trazado_879901" data-name="Trazado 879901" d="M357.686,242.668h-1.114a.716.716,0,1,0,0,1.432h1.114a.716.716,0,0,0,0-1.432Zm0,0" transform="translate(-321.867 -219.037)"/>
        <path id="Trazado_879902" data-name="Trazado 879902" d="M295.063,325.76h3.444a.716.716,0,0,0,0-1.431h-3.444a.716.716,0,1,0,0,1.431Zm0,0" transform="translate(-266.234 -292.898)"/>
        <path id="Trazado_879903" data-name="Trazado 879903" d="M393.692,325.76h4.862a.716.716,0,1,0,0-1.431h-4.862a.716.716,0,0,0,0,1.431Zm0,0" transform="translate(-355.442 -292.898)"/>
        <path id="Trazado_879904" data-name="Trazado 879904" d="M356.575,325.76h1.114a.716.716,0,1,0,0-1.431h-1.114a.716.716,0,0,0,0,1.431Zm0,0" transform="translate(-321.87 -292.898)"/>
        <path id="Trazado_879905" data-name="Trazado 879905" d="M298.507,405.988h-3.444a.716.716,0,1,0,0,1.431h3.444a.716.716,0,0,0,0-1.431Zm0,0" transform="translate(-266.233 -366.758)"/>
        <path id="Trazado_879906" data-name="Trazado 879906" d="M398.554,405.988h-4.862a.716.716,0,1,0,0,1.431h4.862a.716.716,0,1,0,0-1.431Zm0,0" transform="translate(-355.442 -366.758)"/>
        <path id="Trazado_879907" data-name="Trazado 879907" d="M357.686,405.988h-1.114a.716.716,0,1,0,0,1.431h1.114a.716.716,0,1,0,0-1.431Zm0,0" transform="translate(-321.867 -366.758)"/>
        <path id="Trazado_879908" data-name="Trazado 879908" d="M45.754.5H3.15A3.154,3.154,0,0,0,0,3.65V38.281a3.154,3.154,0,0,0,3.15,3.15H5.843a.716.716,0,0,0,0-1.431H3.15a1.72,1.72,0,0,1-1.719-1.719V35.565H27.506V36.8h-.567a1.409,1.409,0,0,0-1.408,1.408V40H10.195a.716.716,0,0,0,0,1.431h6.882V44H14.915A2.617,2.617,0,0,0,12.3,46.612v1.546a1.194,1.194,0,0,0,1.193,1.193H35.355a1.194,1.194,0,0,0,1.193-1.193V46.612A2.617,2.617,0,0,0,33.933,44H31.772v-.9H45a1.409,1.409,0,0,0,1.407-1.408v-.337a3.154,3.154,0,0,0,2.438-3.067L48.9,3.65A3.153,3.153,0,0,0,45.754.5ZM26.963,33.862V30.431H44.98v3.431ZM28.938,29V27.493H43V29ZM43,35.293V36.8H28.938V35.293Zm-24.5,6.138h7.024v.255a1.409,1.409,0,0,0,1.408,1.407h3.4V44H18.507Zm15.426,4a1.184,1.184,0,0,1,1.183,1.183v1.308H13.732V46.612a1.184,1.184,0,0,1,1.183-1.183ZM44.98,41.661H26.963v-3.43H44.98Zm2.438-3.38a1.719,1.719,0,0,1-1.006,1.562V38.206A1.409,1.409,0,0,0,45,36.8h-.567V35.565h2.981Zm0-4.146h-1.03c.015-.081.024-3.727.024-3.727A1.409,1.409,0,0,0,45,29h-.567V27.493H45a1.41,1.41,0,0,0,1.408-1.408V22.607A1.41,1.41,0,0,0,45,21.2H40.961a.716.716,0,0,0,0,1.432H44.98v3.431H26.963V22.631h9.545a.716.716,0,0,0,0-1.432H26.939a1.409,1.409,0,0,0-1.408,1.408v3.478a1.409,1.409,0,0,0,1.408,1.408h.567V29h-.567a1.409,1.409,0,0,0-1.408,1.408s.009,3.646.024,3.727H1.431v-23.9H47.417Zm0-25.33H1.484V3.65A1.72,1.72,0,0,1,3.2,1.931H45.7A1.72,1.72,0,0,1,47.418,3.65Zm0,0" transform="translate(0 0)"/>
        <path id="Trazado_879909" data-name="Trazado 879909" d="M35.374,29.262a2.1,2.1,0,1,0,2.1,2.1A2.1,2.1,0,0,0,35.374,29.262Zm0,2.769a.669.669,0,1,1,.669-.669A.67.67,0,0,1,35.374,32.031Zm0,0" transform="translate(-30.096 -26.015)"/>
        <path id="Trazado_879910" data-name="Trazado 879910" d="M91.358,29.262a2.1,2.1,0,1,0,2.1,2.1A2.1,2.1,0,0,0,91.358,29.262Zm0,2.769a.669.669,0,1,1,.669-.669A.67.67,0,0,1,91.358,32.031Zm0,0" transform="translate(-80.733 -26.015)"/>
        <path id="Trazado_879911" data-name="Trazado 879911" d="M147.346,29.262a2.1,2.1,0,1,0,2.1,2.1A2.1,2.1,0,0,0,147.346,29.262Zm0,2.769a.669.669,0,1,1,.669-.669A.67.67,0,0,1,147.346,32.031Zm0,0" transform="translate(-131.373 -26.015)"/>
      </g>
    </g>
  </g>
</svg>
