<svg id="Grupo_1103350" data-name="Grupo 1103350" xmlns="http://www.w3.org/2000/svg" xmlns:xlink="http://www.w3.org/1999/xlink" width="118.611" height="199.703" viewBox="0 0 118.611 199.703">
  <defs>
    <clipPath id="clip-path">
      <rect id="Rect치ngulo_403039" data-name="Rect치ngulo 403039" width="118.611" height="156.1" fill="#12263f"/>
    </clipPath>
    <filter id="Elipse_11625" x="-51.707" y="18.827" width="336.63" height="324.592" filterUnits="userSpaceOnUse">
      <feOffset dx="9.39" dy="9.39" input="SourceAlpha"/>
      <feGaussianBlur stdDeviation="25.04" result="blur"/>
      <feFlood flood-opacity="0.078"/>
      <feComposite operator="in" in2="blur"/>
      <feComposite in="SourceGraphic"/>
    </filter>
    <clipPath id="clip-path-2">
      <rect id="Rect치ngulo_401063" data-name="Rect치ngulo 401063" width="107.247" height="199.702" fill="#12263f" opacity="0.4"/>
    </clipPath>
    <filter id="Elipse_11447" x="-47.518" y="-61.049" width="341.36" height="340.6" filterUnits="userSpaceOnUse">
      <feOffset dx="9.39" dy="9.39" input="SourceAlpha"/>
      <feGaussianBlur stdDeviation="25.04" result="blur-2"/>
      <feFlood flood-opacity="0.078"/>
      <feComposite operator="in" in2="blur-2"/>
      <feComposite in="SourceGraphic"/>
    </filter>
  </defs>
  <g id="Enmascarar_grupo_1098749" data-name="Enmascarar grupo 1098749" transform="translate(0 43.603)" clip-path="url(#clip-path)">
    <g transform="matrix(1, 0, 0, 1, 0, -43.6)" filter="url(#Elipse_11625)">
      <ellipse id="Elipse_11625-2" data-name="Elipse 11625" cx="93.195" cy="87.176" rx="93.195" ry="87.176" transform="translate(14.02 84.56)" fill="#fff" opacity="0.3"/>
    </g>
    <ellipse id="Elipse_11626" data-name="Elipse 11626" cx="33" cy="30.992" rx="33" ry="30.992" transform="translate(74.611 17.844)" fill="none" stroke="#fff" stroke-width="10" opacity="0.4"/>
    <path id="Trazado_877973" data-name="Trazado 877973" d="M163.312,434.824l1.325-1.592-5.158-3.815,5.158-3.815-1.325-1.591L156,429.417Zm14.936-1.592-5.158-3.815,5.158-3.815-1.325-1.591-7.309,5.406,7.309,5.406Zm14.3,0-1.327-.982-3.83-2.833,5.158-3.815-1.325-1.591-7.309,5.406,7.309,5.406Z" transform="translate(-152.943 -290.935)" fill="#3a1d71" fill-rule="evenodd"/>
  </g>
  <g id="Enmascarar_grupo_1098653" data-name="Enmascarar grupo 1098653" transform="translate(11.364)" opacity="0.2" clip-path="url(#clip-path-2)">
    <g transform="matrix(1, 0, 0, 1, -11.36, 0)" filter="url(#Elipse_11447)">
      <ellipse id="Elipse_11447-2" data-name="Elipse 11447" cx="95.56" cy="95.18" rx="95.56" ry="95.18" transform="translate(18.21 4.68)" fill="#fff"/>
    </g>
  </g>
</svg>
