<svg xmlns="http://www.w3.org/2000/svg" width="275" height="130" viewBox="0 0 275 130">
  <g id="Grupo_1104214" data-name="Grupo 1104214" transform="translate(-4107 3124)">
    <path id="Rectángulo_404067" data-name="Rectángulo 404067" d="M14,0H261a14,14,0,0,1,14,14V130a0,0,0,0,1,0,0H0a0,0,0,0,1,0,0V14A14,14,0,0,1,14,0Z" transform="translate(4107 -3124)" fill="#aec4fa"/>
    <g id="Grupo_1103851" data-name="Grupo 1103851" transform="translate(3802 -11693)">
      <circle id="Elipse_11750" data-name="Elipse 11750" cx="50.5" cy="50.5" r="50.5" transform="translate(392 8584)" fill="#00ffdf"/>
      <g id="Page-1" transform="translate(417.605 8608.604)">
        <g id="_002---Open-Book" data-name="002---Open-Book" transform="translate(0 0)">
          <path id="Rectangle-path" d="M26,29h6.772V45.93H26Z" transform="translate(-3.991 -4.452)" fill="#c81e1e"/>
          <path id="Shape" d="M32.772,19.847v4.233H26V19.847A.847.847,0,0,1,26.847,19h5.079A.847.847,0,0,1,32.772,19.847Z" transform="translate(-3.991 -2.917)" fill="#c81e1e"/>
          <path id="Shape-2" data-name="Shape" d="M32.772,53v4.233a.846.846,0,0,1-.847.847H26.847A.846.846,0,0,1,26,57.233V53Z" transform="translate(-3.991 -8.136)" fill="#c81e1e"/>
          <path id="Shape-3" data-name="Shape" d="M22.163,18.414V50.428a.847.847,0,0,1-1.185.77L1.508,42.632A.839.839,0,0,1,1,41.862V9.847a.841.841,0,0,1,1.185-.77l.83.364,18.64,8.2a.83.83,0,0,1,.508.77Z" transform="translate(-0.153 -1.382)" fill="#f44335"/>
          <path id="Shape-4" data-name="Shape" d="M21.658,17.643l-18.64-8.2-.83-.364a.835.835,0,0,0-1.164.6l18.094,7.966a.83.83,0,0,1,.508.77V50.428a.809.809,0,0,1-.021.169l1.376.605a.847.847,0,0,0,1.185-.77V18.413a.83.83,0,0,0-.508-.77Z" transform="translate(-0.157 -1.382)" fill="#c81e1e"/>
          <path id="Shape-5" data-name="Shape" d="M55.163,9.847V41.862a.839.839,0,0,1-.508.77L35.185,51.2A.847.847,0,0,1,34,50.428V18.414a.83.83,0,0,1,.508-.77l18.64-8.2.83-.364a.841.841,0,0,1,1.185.77Z" transform="translate(-5.219 -1.382)" fill="#c81e1e"/>
          <path id="Shape-6" data-name="Shape" d="M52.534,8.851l-18.64,8.2a.83.83,0,0,0-.508.77v-.1a.847.847,0,0,0-.847-.847H30v-2.54s.008-.059.025-.169c.406-1.566,6.247-5.739,14.365-8.033,1.312-.372,2.683-.694,4.1-.948A1.71,1.71,0,0,1,50.1,5.8Z" transform="translate(-4.605 -0.793)" fill="#ffe0b2"/>
          <path id="Shape-7" data-name="Shape" d="M50.415,5.8a1.71,1.71,0,0,0-1.608-.618c-.447.08-.882.179-1.321.272a1.693,1.693,0,0,1,.389.346l2.438,3.047L32.077,16.876h.781a.847.847,0,0,1,.847.847v.1a.83.83,0,0,1,.508-.77l18.64-8.2Z" transform="translate(-4.924 -0.793)" fill="#dfc49c"/>
          <path id="Shape-8" data-name="Shape" d="M25.914,14.337v2.54h-2.54a.847.847,0,0,0-.847.847v.1a.83.83,0,0,0-.508-.77L3.38,8.851,5.818,5.8a1.71,1.71,0,0,1,1.608-.618c1.414.254,2.785.576,4.1.948,8.118,2.294,13.959,6.467,14.365,8.033.017.11.025.169.025.169Z" transform="translate(-0.519 -0.793)" fill="#ffe0b2"/>
          <path id="Shape-9" data-name="Shape" d="M27.365,13.528C26.959,11.962,21.118,7.789,13,5.495V1C25.511,3.345,27.187,12.191,27.365,13.528Z" transform="translate(-1.995 -0.154)" fill="#dfc49c"/>
          <path id="Shape-10" data-name="Shape" d="M44.4,1V5.495c-8.118,2.294-13.959,6.467-14.365,8.033C30.208,12.191,31.884,3.345,44.4,1Z" transform="translate(-4.61 -0.154)" fill="#dfc49c"/>
          <path id="Shape-11" data-name="Shape" d="M52.391,26.465,38,33.237V24.772L52.391,18Z" transform="translate(-5.833 -2.763)" fill="#f57c00"/>
          <path id="Shape-12" data-name="Shape" d="M5,26.465l14.391,6.772V24.772L5,18Z" transform="translate(-0.767 -2.763)" fill="#ff9801"/>
          <path id="Rectangle-path-2" data-name="Rectangle-path" d="M26,25h6.772v3.386H26Z" transform="translate(-3.991 -3.838)" fill="#ffdc00"/>
          <path id="Rectangle-path-3" data-name="Rectangle-path" d="M31,25h2.54v3.386H31Z" transform="translate(-4.758 -3.838)" fill="#fec108"/>
          <path id="Rectangle-path-4" data-name="Rectangle-path" d="M26,49h6.772v3.386H26Z" transform="translate(-3.991 -7.522)" fill="#ffdc00"/>
          <path id="Rectangle-path-5" data-name="Rectangle-path" d="M31,49h2.54v3.386H31Z" transform="translate(-4.758 -7.522)" fill="#fec108"/>
          <g id="Grupo_1103852" data-name="Grupo 1103852">
            <path id="Shape-13" data-name="Shape" d="M50.022,7.048a1.693,1.693,0,0,0-1.608-.132l-.234.1L46.149,4.48a2.53,2.53,0,0,0-2.42-.919c-1.049.188-2.083.418-3.1.677V.847a.847.847,0,0,0-.306-.652.855.855,0,0,0-.7-.18c-9.275,1.739-12.865,7-14.234,10.372C24.022,7.012,20.431,1.752,11.16.014a.857.857,0,0,0-.7.18.846.846,0,0,0-.306.652v3.4c-1.016-.262-2.049-.492-3.1-.677a2.54,2.54,0,0,0-2.42.921L2.609,7.026l-.234-.1A1.693,1.693,0,0,0,0,8.465V40.476a1.693,1.693,0,0,0,1.011,1.549l19.47,8.567a1.62,1.62,0,0,0,1.471-.069,1.675,1.675,0,0,0,.9.267h5.079a1.675,1.675,0,0,0,.9-.267,1.68,1.68,0,0,0,.789.213,1.7,1.7,0,0,0,.683-.144l19.47-8.567a1.693,1.693,0,0,0,1.011-1.55V8.465a1.688,1.688,0,0,0-.768-1.417ZM44.027,5.23a.852.852,0,0,1,.8.311l1.75,2.185L28.944,15.483c-.025.01-.042.03-.067.041a1.685,1.685,0,0,0-.943-.288H26.242V13.575c.356-1.193,7.393-6.486,17.786-8.345ZM27.935,16.93v3.386H22.856V16.93Zm-5.079,5.079h5.079V23.7H22.856Zm0,3.386h5.079V40.632H22.856Zm0,16.93h5.079v1.693H22.856ZM38.939,1.886V4.713a39.574,39.574,0,0,0-11.625,5.507C28.7,7.373,31.844,3.5,38.939,1.886Zm-27.088,0c7.09,1.608,10.237,5.481,11.622,8.333A39.568,39.568,0,0,0,11.851,4.713ZM5.963,5.54a.852.852,0,0,1,.8-.311c10.374,1.856,17.4,7.133,17.777,8.29l.013.085v1.633h-1.7a1.685,1.685,0,0,0-.943.288c-.025-.012-.043-.031-.068-.042L4.213,7.725ZM1.693,40.476V8.465l19.47,8.567V49.043ZM22.856,49.1V45.711h5.079V49.1Zm6.772-.054V17.033L49.1,8.465V40.476Z" transform="translate(0 0)"/>
            <path id="Shape-14" data-name="Shape" d="M52.691,17.132a.847.847,0,0,0-.814-.052L37.486,23.852a.846.846,0,0,0-.486.766v8.465a.847.847,0,0,0,1.207.766L52.6,27.078a.846.846,0,0,0,.486-.766V17.846a.847.847,0,0,0-.393-.714Zm-1.3,8.642-12.7,5.975V25.156l12.7-5.975Z" transform="translate(-5.679 -2.61)"/>
            <path id="Shape-15" data-name="Shape" d="M19.6,23.857,5.207,17.085A.847.847,0,0,0,4,17.847v8.465a.847.847,0,0,0,.486.766L18.876,33.85a.847.847,0,0,0,1.207-.766V24.619a.847.847,0,0,0-.486-.762ZM18.391,31.75l-12.7-5.975V19.181l12.7,5.975Z" transform="translate(-0.614 -2.611)"/>
            <path id="Shape-16" data-name="Shape" d="M19.6,38.857,5.207,32.085a.847.847,0,1,0-.721,1.532L18.876,40.39a.847.847,0,0,0,.721-1.532Z" transform="translate(-0.614 -4.913)"/>
            <path id="Shape-17" data-name="Shape" d="M18.189,43.192,7.223,38.028a.847.847,0,1,0-.715,1.534l10.966,5.164a.847.847,0,1,0,.721-1.531Z" transform="translate(-0.921 -5.824)"/>
            <path id="Shape-18" data-name="Shape" d="M51.876,32.085,37.486,38.857a.847.847,0,1,0,.721,1.532L52.6,33.618a.847.847,0,0,0-.721-1.532Z" transform="translate(-5.679 -4.913)"/>
            <path id="Shape-19" data-name="Shape" d="M50.479,38.03,39.515,43.191a.846.846,0,0,0,.721,1.531L51.2,39.559a.847.847,0,1,0-.72-1.531Z" transform="translate(-5.993 -5.824)"/>
          </g>
        </g>
      </g>
    </g>
  </g>
</svg>
