<svg xmlns="http://www.w3.org/2000/svg" width="50" height="50" viewBox="0 0 50 50">
  <g id="Grupo_1104216" data-name="Grupo 1104216" transform="translate(-495 -5127)">
    <circle id="Elipse_11715" data-name="Elipse 11715" cx="25" cy="25" r="25" transform="translate(495 5127)" fill="#00ffdf"/>
    <path id="Trazado_880544" data-name="Trazado 880544" d="M9.712,17H.782V15.066L4.9,10.742A4.909,4.909,0,0,0,6.416,7.991a1.913,1.913,0,0,0-.36-1.257A1.287,1.287,0,0,0,5.01,6.3a1.3,1.3,0,0,0-1.1.576,2.366,2.366,0,0,0-.422,1.437H.519a4.2,4.2,0,0,1,.589-2.175,4.129,4.129,0,0,1,1.635-1.56A4.856,4.856,0,0,1,5.08,4.019a4.777,4.777,0,0,1,3.195.958A3.42,3.42,0,0,1,9.4,7.728,4,4,0,0,1,9.114,9.2a6.456,6.456,0,0,1-.875,1.5,22.029,22.029,0,0,1-1.912,2.1L4.676,14.715H9.712Z" transform="translate(515 5141)" fill="#12263f"/>
  </g>
</svg>
