<svg xmlns="http://www.w3.org/2000/svg" width="60" height="60" viewBox="0 0 60 60">
  <g id="Grupo_1103613" data-name="Grupo 1103613" transform="translate(-495 -2425)">
    <circle id="Elipse_11572" data-name="Elipse 11572" cx="30" cy="30" r="30" transform="translate(495 2425)" fill="#00ffdf"/>
    <g id="Grupo_1104055" data-name="Grupo 1104055" transform="translate(506.131 2414.074)">
      <g id="Grupo_1104054" data-name="Grupo 1104054" transform="translate(0 24.188)">
        <path id="Trazado_880325" data-name="Trazado 880325" d="M181.792,105.839a.541.541,0,0,0-.756-.125l-2.31,1.656a.542.542,0,0,0,0,.88l2.31,1.655a.542.542,0,0,0,.631-.88l-1.7-1.215,1.7-1.215A.542.542,0,0,0,181.792,105.839Z" transform="translate(-165.612 -99.734)" fill="#0b47db"/>
        <path id="Trazado_880326" data-name="Trazado 880326" d="M286.6,109.781a.541.541,0,0,0,.756.125l2.31-1.655a.542.542,0,0,0,0-.88l-2.31-1.656a.542.542,0,1,0-.631.88l1.7,1.215-1.7,1.215A.542.542,0,0,0,286.6,109.781Z" transform="translate(-265.813 -99.734)" fill="#0b47db"/>
        <path id="Trazado_880327" data-name="Trazado 880327" d="M239.205,110.006a.542.542,0,0,0,.5-.328l1.42-3.311a.542.542,0,0,0-1-.427l-1.42,3.311a.542.542,0,0,0,.5.755Z" transform="translate(-221.432 -99.733)" fill="#0b47db"/>
        <path id="Trazado_880328" data-name="Trazado 880328" d="M179.042,187.554H189.15a.542.542,0,0,0,0-1.083H179.042a.542.542,0,0,0,0,1.083Z" transform="translate(-165.612 -174.754)" fill="#0b47db"/>
        <path id="Trazado_880329" data-name="Trazado 880329" d="M179.042,223.554H189.15a.542.542,0,1,0,0-1.083H179.042a.542.542,0,1,0,0,1.083Z" transform="translate(-165.612 -208.154)" fill="#0b47db"/>
        <path id="Trazado_880330" data-name="Trazado 880330" d="M39.678,431.442H36a.542.542,0,1,0,0,1.083h3.676a.542.542,0,1,0,0-1.083Z" transform="translate(-32.9 -402.037)" fill="#0b47db"/>
        <path id="Trazado_880331" data-name="Trazado 880331" d="M35.46,399.251a.541.541,0,0,0,.542.542h3.676a.542.542,0,1,0,0-1.083H36A.541.541,0,0,0,35.46,399.251Z" transform="translate(-32.9 -371.668)" fill="#0b47db"/>
        <path id="Trazado_880332" data-name="Trazado 880332" d="M35.46,366.519a.541.541,0,0,0,.542.542h2.363a.542.542,0,1,0,0-1.083H36A.541.541,0,0,0,35.46,366.519Z" transform="translate(-32.9 -341.299)" fill="#0b47db"/>
        <path id="Trazado_880333" data-name="Trazado 880333" d="M227.259,431.442h-3.676a.542.542,0,1,0,0,1.083h3.676a.542.542,0,1,0,0-1.083Z" transform="translate(-206.937 -402.037)" fill="#0b47db"/>
        <path id="Trazado_880334" data-name="Trazado 880334" d="M227.259,398.709h-3.676a.542.542,0,1,0,0,1.083h3.676a.542.542,0,1,0,0-1.083Z" transform="translate(-206.937 -371.668)" fill="#0b47db"/>
        <path id="Trazado_880335" data-name="Trazado 880335" d="M223.584,367.06h2.363a.542.542,0,1,0,0-1.083h-2.363a.542.542,0,1,0,0,1.083Z" transform="translate(-206.938 -341.299)" fill="#0b47db"/>
        <path id="Trazado_880336" data-name="Trazado 880336" d="M411.164,432.525h3.676a.542.542,0,1,0,0-1.083h-3.676a.542.542,0,0,0,0,1.083Z" transform="translate(-380.975 -402.037)" fill="#0b47db"/>
        <path id="Trazado_880337" data-name="Trazado 880337" d="M411.164,399.792h3.676a.542.542,0,1,0,0-1.083h-3.676a.542.542,0,0,0,0,1.083Z" transform="translate(-380.975 -371.668)" fill="#0b47db"/>
        <path id="Trazado_880338" data-name="Trazado 880338" d="M411.164,367.06h2.363a.542.542,0,0,0,0-1.083h-2.363a.542.542,0,0,0,0,1.083Z" transform="translate(-380.975 -341.299)" fill="#0b47db"/>
        <path id="Trazado_880339" data-name="Trazado 880339" d="M194.949,324.968a1.256,1.256,0,0,0-.885-.362h-5.22a1.265,1.265,0,0,0-1.264,1.264v9.257a1.265,1.265,0,0,0,1.264,1.264H196.2a1.265,1.265,0,0,0,1.264-1.264v-7.165a1.271,1.271,0,0,0-.379-.9Zm1.429,10.159a.181.181,0,0,1-.181.181h-7.353a.181.181,0,0,1-.18-.181V325.87a.181.181,0,0,1,.18-.181h5.22a.18.18,0,0,1,.126.052l2.133,2.092a.182.182,0,0,1,.054.129Z" transform="translate(-174.037 -302.915)" fill="#0b47db"/>
        <path id="Trazado_880340" data-name="Trazado 880340" d="M36.589,48.333,34.456,46.24a1.256,1.256,0,0,0-.885-.361h-.358V35.271a1.626,1.626,0,0,0-1.625-1.625H26.364V26.535a2.349,2.349,0,0,0-2.347-2.347H12.95A2.349,2.349,0,0,0,10.6,26.535v7.112H5.379a1.626,1.626,0,0,0-1.625,1.625V45.879H1.264A1.265,1.265,0,0,0,0,47.143V56.4a1.265,1.265,0,0,0,1.264,1.264H8.616A1.265,1.265,0,0,0,9.88,56.4V49.235a1.271,1.271,0,0,0-.379-.9L7.368,46.241a1.257,1.257,0,0,0-.885-.362H4.838V35.271a.542.542,0,0,1,.542-.542H10.6v1.7a.542.542,0,1,0,1.083,0V28.989h2.682a.542.542,0,1,0,0-1.083H11.687V26.535a1.265,1.265,0,0,1,1.264-1.264H24.018a1.265,1.265,0,0,1,1.264,1.264v1.372H16.9a.542.542,0,1,0,0,1.083h8.386v11a1.265,1.265,0,0,1-1.264,1.264H12.95a1.265,1.265,0,0,1-1.264-1.264V38.953a.542.542,0,1,0-1.083,0v1.031a2.349,2.349,0,0,0,2.347,2.347H24.018a2.349,2.349,0,0,0,2.347-2.347V34.73h5.224a.542.542,0,0,1,.542.542V45.879H28.351a1.265,1.265,0,0,0-1.264,1.264v4.446a.542.542,0,0,0,1.083,0V47.143a.181.181,0,0,1,.181-.181h5.22a.179.179,0,0,1,.126.052l2.133,2.092a.181.181,0,0,1,.054.129V56.4a.181.181,0,0,1-.181.181H28.351a.181.181,0,0,1-.181-.181V54.116a.542.542,0,1,0-1.083,0V56.4a1.265,1.265,0,0,0,1.264,1.264H35.7A1.265,1.265,0,0,0,36.968,56.4V49.235a1.271,1.271,0,0,0-.379-.9ZM6.61,47.014l2.133,2.092a.181.181,0,0,1,.054.129V56.4a.181.181,0,0,1-.181.181H1.264a.181.181,0,0,1-.181-.181V47.143a.181.181,0,0,1,.181-.181h5.22A.179.179,0,0,1,6.61,47.014Z" transform="translate(0 -24.188)" fill="#0b47db"/>
      </g>
    </g>
  </g>
</svg>
