<svg xmlns="http://www.w3.org/2000/svg" xmlns:xlink="http://www.w3.org/1999/xlink" width="106.136" height="106.136" viewBox="0 0 106.136 106.136">
  <defs>
    <filter id="Elipse_9685" x="0" y="0" width="106.136" height="106.136" filterUnits="userSpaceOnUse">
      <feOffset dy="3" input="SourceAlpha"/>
      <feGaussianBlur stdDeviation="3" result="blur"/>
      <feFlood flood-opacity="0.161"/>
      <feComposite operator="in" in2="blur"/>
      <feComposite in="SourceGraphic"/>
    </filter>
  </defs>
  <g id="Grupo_1103382" data-name="Grupo 1103382" transform="translate(-737.932 -9747.46)">
    <circle id="Elipse_11310" data-name="Elipse 11310" cx="50" cy="50" r="50" transform="translate(741 9747.527)" fill="#fff"/>
    <g id="Grupo_1098210" data-name="Grupo 1098210" transform="translate(746.932 9753.46)">
      <g transform="matrix(1, 0, 0, 1, -9, -6)" filter="url(#Elipse_9685)">
        <g id="Elipse_9685-2" data-name="Elipse 9685" transform="translate(9 6)" fill="#f2e5fd" stroke="#a854f3" stroke-width="5">
          <circle cx="44.068" cy="44.068" r="44.068" stroke="none"/>
          <circle cx="44.068" cy="44.068" r="41.568" fill="none"/>
        </g>
      </g>
    </g>
    <path id="Trazado_879348" data-name="Trazado 879348" d="M45.469,23.235a22.645,22.645,0,0,1-3.852,12.621,1.776,1.776,0,0,1-2.953-1.974,19.134,19.134,0,0,0,2.649-15.443,1.776,1.776,0,0,1,3.44-.886,22.817,22.817,0,0,1,.716,5.683ZM32.657,39.655a19.183,19.183,0,1,1,.968-32.213,1.776,1.776,0,0,0,2.019-2.923A22.736,22.736,0,0,0,6.659,39.311,22.743,22.743,0,0,0,34.5,42.694a1.776,1.776,0,1,0-1.841-3.038Zm-9.751-11.27a1.013,1.013,0,0,1-.748-.283l-9.3-8.82a1.776,1.776,0,0,0-2.444,2.577l9.3,8.819a4.536,4.536,0,0,0,3.147,1.26c.063,0,.126,0,.189,0a4.54,4.54,0,0,0,3.225-1.52c.021-.023.041-.047.061-.072L45.077,7.031A1.776,1.776,0,0,0,42.308,4.8L23.6,28.071a1.015,1.015,0,0,1-.7.314Zm0,0" transform="translate(768.266 9774.292)" fill="#a854f3"/>
  </g>
</svg>
