<svg xmlns="http://www.w3.org/2000/svg" width="60" height="60" viewBox="0 0 60 60">
  <g id="Grupo_1103614" data-name="Grupo 1103614" transform="translate(-495 -2425)">
    <circle id="Elipse_11572" data-name="Elipse 11572" cx="30" cy="30" r="30" transform="translate(495 2425)" fill="#00ffdf"/>
    <g id="Grupo_1104062" data-name="Grupo 1104062" transform="translate(505.586 2415.639)">
      <g id="Grupo_1104061" data-name="Grupo 1104061" transform="translate(0 21.584)">
        <path id="Trazado_880358" data-name="Trazado 880358" d="M368.158,131.373a.569.569,0,1,0,0-1.138h-.078a.569.569,0,1,0,0,1.138Z" transform="translate(-339.641 -121.995)" fill="#0b47db"/>
        <path id="Trazado_880359" data-name="Trazado 880359" d="M395.826,131.373a.569.569,0,1,0,0-1.138h-.078a.569.569,0,0,0,0,1.138Z" transform="translate(-365.211 -121.995)" fill="#0b47db"/>
        <path id="Trazado_880360" data-name="Trazado 880360" d="M423.494,131.373a.569.569,0,1,0,0-1.138h-.078a.569.569,0,1,0,0,1.138Z" transform="translate(-390.781 -121.995)" fill="#0b47db"/>
        <path id="Trazado_880361" data-name="Trazado 880361" d="M123.569,209.722h.355a.569.569,0,1,0,0-1.138h-.355a.569.569,0,1,0,0,1.138Z" transform="translate(-113.672 -194.403)" fill="#0b47db"/>
        <path id="Trazado_880362" data-name="Trazado 880362" d="M123.569,252.972h.355a.569.569,0,1,0,0-1.138h-.355a.569.569,0,0,0,0,1.138Z" transform="translate(-113.672 -234.373)" fill="#0b47db"/>
        <path id="Trazado_880363" data-name="Trazado 880363" d="M364.368,209.722a.569.569,0,0,0,0-1.138h-3.3a.569.569,0,0,0,0,1.138Z" transform="translate(-333.161 -194.403)" fill="#0b47db"/>
        <path id="Trazado_880364" data-name="Trazado 880364" d="M179.953,208.584H167.927a.569.569,0,1,0,0,1.138h12.027a.569.569,0,0,0,0-1.138Z" transform="translate(-154.666 -194.403)" fill="#0b47db"/>
        <path id="Trazado_880365" data-name="Trazado 880365" d="M167.927,252.972h5.87a.569.569,0,1,0,0-1.138h-5.87a.569.569,0,0,0,0,1.138Z" transform="translate(-154.666 -234.373)" fill="#0b47db"/>
        <path id="Trazado_880366" data-name="Trazado 880366" d="M277.761,252.4a.569.569,0,0,0,.569.569H287.9a.569.569,0,0,0,0-1.138H278.33A.569.569,0,0,0,277.761,252.4Z" transform="translate(-256.697 -234.373)" fill="#0b47db"/>
        <path id="Trazado_880367" data-name="Trazado 880367" d="M123.569,296.222h.355a.569.569,0,1,0,0-1.138h-.355a.569.569,0,1,0,0,1.138Z" transform="translate(-113.672 -274.343)" fill="#0b47db"/>
        <path id="Trazado_880368" data-name="Trazado 880368" d="M123.569,339.472h.355a.569.569,0,0,0,0-1.138h-.355a.569.569,0,0,0,0,1.138Z" transform="translate(-113.672 -314.313)" fill="#0b47db"/>
        <path id="Trazado_880369" data-name="Trazado 880369" d="M123.569,382.722h.355a.569.569,0,1,0,0-1.138h-.355a.569.569,0,1,0,0,1.138Z" transform="translate(-113.672 -354.283)" fill="#0b47db"/>
        <path id="Trazado_880370" data-name="Trazado 880370" d="M167.927,296.222h17.946a.569.569,0,1,0,0-1.138H167.927a.569.569,0,1,0,0,1.138Z" transform="translate(-154.666 -274.343)" fill="#0b47db"/>
        <path id="Trazado_880371" data-name="Trazado 880371" d="M167.927,339.472h9.422a.569.569,0,0,0,0-1.138h-9.422a.569.569,0,0,0,0,1.138Z" transform="translate(-154.666 -314.313)" fill="#0b47db"/>
        <path id="Trazado_880372" data-name="Trazado 880372" d="M167.927,382.722h9.422a.569.569,0,0,0,0-1.138h-9.422a.569.569,0,1,0,0,1.138Z" transform="translate(-154.666 -354.283)" fill="#0b47db"/>
        <path id="Trazado_880373" data-name="Trazado 880373" d="M360.373,390.249a.569.569,0,0,0-.8-.044l-1.794,1.606a.569.569,0,0,0,0,.848l1.794,1.606a.569.569,0,0,0,.759-.848l-1.321-1.182,1.321-1.182a.569.569,0,0,0,.044-.8Z" transform="translate(-330.468 -362.116)" fill="#0b47db"/>
        <path id="Trazado_880374" data-name="Trazado 880374" d="M447.959,392.234a.569.569,0,0,0-.189-.424l-1.794-1.606a.569.569,0,0,0-.759.847l1.321,1.182-1.321,1.182a.569.569,0,0,0,.759.848l1.794-1.606A.569.569,0,0,0,447.959,392.234Z" transform="translate(-411.278 -362.115)" fill="#0b47db"/>
        <path id="Trazado_880375" data-name="Trazado 880375" d="M404.993,380.339l-1.344,4.749a.569.569,0,1,0,1.095.31l1.344-4.749a.569.569,0,0,0-1.095-.31Z" transform="translate(-373.018 -352.749)" fill="#0b47db"/>
        <path id="Trazado_880376" data-name="Trazado 880376" d="M37.5,46.267H35.614V29.2a1.708,1.708,0,0,0-1.706-1.706H19.035a.569.569,0,1,0,0,1.138H33.907a.569.569,0,0,1,.569.569v2.956H13.027a.956.956,0,0,0-.278-.726l-.68-.68c.014-.032.027-.064.04-.1h.962a.96.96,0,0,0,.959-.959V28.63h2.351a.569.569,0,1,0,0-1.138H14.029a.96.96,0,0,0-.959-.947h-.962l-.04-.1.68-.68a.961.961,0,0,0,0-1.357L11.2,22.865a.959.959,0,0,0-1.357,0l-.68.68-.1-.04v-.962a.961.961,0,0,0-.959-.959H5.921a.96.96,0,0,0-.959.959v.962l-.1.04-.68-.68a.959.959,0,0,0-1.357,0L1.281,24.412a.961.961,0,0,0,0,1.357l.68.68c-.014.032-.027.064-.04.1H.959A.96.96,0,0,0,0,27.5v2.188a.961.961,0,0,0,.959.959h.962l.04.1-.68.68a.961.961,0,0,0,0,1.357l1.547,1.547a.959.959,0,0,0,1.357,0l.68-.68.1.04v.962a.96.96,0,0,0,.528.856v8.553a.569.569,0,0,0,1.138,0V35.614H8.109a.96.96,0,0,0,.959-.959v-.962l.1-.04.68.68a.959.959,0,0,0,1.357,0l1.04-1.04H34.476V46.267H26.3a1.329,1.329,0,0,0-1.327,1.327V52.9H7.2a.569.569,0,0,1-.569-.569V46.717a.569.569,0,0,0-1.138,0v5.618A1.708,1.708,0,0,0,7.2,54.042H24.971v1.769A1.329,1.329,0,0,0,26.3,57.138h6.615a.569.569,0,0,0,0-1.138H26.3a.19.19,0,0,1-.19-.19V47.594a.19.19,0,0,1,.19-.19H37.5a.19.19,0,0,1,.19.19v8.217a.19.19,0,0,1-.19.19H35.567a.569.569,0,0,0,0,1.138H37.5a1.329,1.329,0,0,0,1.327-1.327V47.594A1.329,1.329,0,0,0,37.5,46.267ZM10.523,33.4l-.641-.641A.968.968,0,0,0,8.8,32.568c-.082.037-.166.072-.25.1a.968.968,0,0,0-.623.9v.906H6.1v-.906a.968.968,0,0,0-.623-.9c-.084-.032-.168-.067-.25-.1a.967.967,0,0,0-1.079.193l-.641.641-1.3-1.3.641-.641a.968.968,0,0,0,.193-1.079c-.037-.082-.072-.166-.1-.249a.968.968,0,0,0-.9-.623H1.138V27.683h.906a.968.968,0,0,0,.9-.623c.032-.083.067-.167.1-.25a.968.968,0,0,0-.193-1.079l-.641-.641,1.3-1.3.641.641a.967.967,0,0,0,1.079.193c.082-.037.166-.072.25-.1a.968.968,0,0,0,.623-.9v-.905H7.931v.906a.968.968,0,0,0,.623.9c.083.032.167.067.25.1a.967.967,0,0,0,1.079-.193l.641-.641,1.3,1.3-.641.641a.968.968,0,0,0-.193,1.079c.037.082.072.166.1.249a.968.968,0,0,0,.9.623h.906v1.832h-.906a.968.968,0,0,0-.9.623c-.032.083-.067.167-.1.25a.968.968,0,0,0,.193,1.079l.641.641-.214.214h0Z" transform="translate(0 -21.584)" fill="#0b47db"/>
        <path id="Trazado_880377" data-name="Trazado 880377" d="M57.844,76.584a2.844,2.844,0,1,0,2.844,2.844A2.847,2.847,0,0,0,57.844,76.584Zm0,4.55a1.706,1.706,0,1,1,1.706-1.706A1.708,1.708,0,0,1,57.844,81.134Z" transform="translate(-50.829 -72.413)" fill="#0b47db"/>
      </g>
    </g>
  </g>
</svg>
