<svg xmlns="http://www.w3.org/2000/svg" width="70" height="70" viewBox="0 0 70 70">
  <g id="Grupo_1103933" data-name="Grupo 1103933" transform="translate(-515 -526)">
    <circle id="Elipse_11440" data-name="Elipse 11440" cx="35" cy="35" r="35" transform="translate(515 526)" fill="#00ffdf"/>
    <g id="Grupo_1100297" data-name="Grupo 1100297" transform="translate(522.307 538.877)">
      <g id="Grupo_1100292" data-name="Grupo 1100292" transform="translate(6.097 5.05)">
        <g id="Grupo_1100291" data-name="Grupo 1100291">
          <path id="Trazado_875656" data-name="Trazado 875656" d="M43.364,69.535,42.5,70.4a4.555,4.555,0,0,1-.348.31A18.02,18.02,0,1,1,31.6,61.023h0a4.774,4.774,0,0,1,.664-.844l.446-.446a19.577,19.577,0,1,0,10.65,9.8Z" transform="translate(-6.097 -58.434)" fill="#a854f3"/>
        </g>
      </g>
      <g id="Grupo_1100294" data-name="Grupo 1100294" transform="translate(12.454 10.876)">
        <g id="Grupo_1100293" data-name="Grupo 1100293">
          <path id="Trazado_875657" data-name="Trazado 875657" d="M104.911,133.528h-1.781a11.654,11.654,0,1,1-5.185-4.928v-1.741a13.241,13.241,0,1,0,6.967,6.669Z" transform="translate(-79.654 -125.86)" fill="#a854f3"/>
        </g>
      </g>
      <g id="Grupo_1100296" data-name="Grupo 1100296" transform="translate(19.341 0)">
        <g id="Grupo_1100295" data-name="Grupo 1100295" transform="translate(0 0)">
          <path id="Trazado_875658" data-name="Trazado 875658" d="M189.176,6.55a1.2,1.2,0,0,0-.522-.51,1.7,1.7,0,0,0-.612-.172l-3.783-.377a.567.567,0,0,1-.448-.449l-.379-3.784a1.566,1.566,0,0,0-.3-.808,1.158,1.158,0,0,0-.386-.327A1.123,1.123,0,0,0,182.238,0a1.274,1.274,0,0,0-.582.148,1.782,1.782,0,0,0-.432.323L173.59,8.105a3.416,3.416,0,0,0-.7,1.1,3.439,3.439,0,0,0-.281,1.272v4.36a1.842,1.842,0,0,0,.2.827l-3.285,3.383a6.336,6.336,0,1,0,1.142,1.1l3.4-3.5a1.907,1.907,0,0,0,.391.043h4.363a3.729,3.729,0,0,0,2.37-.982l7.633-7.633a1.776,1.776,0,0,0,.322-.432,1.266,1.266,0,0,0,.148-.581A1.1,1.1,0,0,0,189.176,6.55ZM165.709,28.885a4.767,4.767,0,1,1,2.7-8.69l-3.272,3.37a.795.795,0,0,0,1.14,1.107l3.27-3.367a4.758,4.758,0,0,1-3.84,7.58Zm8.49-14.648v-3.76a1.914,1.914,0,0,1,.16-.664,1.89,1.89,0,0,1,.356-.582l7.2-7.2.317,3.17a1.988,1.988,0,0,0,.164.6Zm5.874.349a1.934,1.934,0,0,1-.582.356,1.913,1.913,0,0,1-.664.16h-3.253l7.95-8.187a2,2,0,0,0,.577.158l3.169.316Z" transform="translate(-159.352 0)" fill="#a854f3"/>
        </g>
      </g>
    </g>
  </g>
</svg>
