<svg xmlns="http://www.w3.org/2000/svg" width="90" height="90" viewBox="0 0 90 90">
  <g id="Grupo_1103414" data-name="Grupo 1103414" transform="translate(6686 2275)">
    <rect id="Rectángulo_403687" data-name="Rectángulo 403687" width="90" height="90" rx="10" transform="translate(-6686 -2275)" fill="#00ffdf"/>
    <g id="code_x2C__coding_x2C__programming_x2C__setting_x2C__gear_x2C__cogwheel" transform="translate(-6673 -2261.967)">
      <g id="XMLID_1072_" transform="translate(1 2)">
        <g id="XMLID_1097_" transform="translate(4.133 14.467)">
          <g id="Grupo_1103415" data-name="Grupo 1103415">
            <path id="Trazado_879383" data-name="Trazado 879383" d="M55.7,46.2a1.034,1.034,0,0,1-1.033-1.033V12.1a1.035,1.035,0,0,0-1.033-1.033H6.1A1.035,1.035,0,0,0,5.067,12.1V45.167a1.033,1.033,0,0,1-2.067,0V12.1A3.1,3.1,0,0,1,6.1,9H53.633a3.1,3.1,0,0,1,3.1,3.1V45.167A1.034,1.034,0,0,1,55.7,46.2Z" transform="translate(-3 -9)" fill="#3a1d71"/>
          </g>
        </g>
        <g id="XMLID_1096_" transform="translate(16.533 28.57)">
          <g id="Grupo_1103416" data-name="Grupo 1103416">
            <path id="Trazado_879384" data-name="Trazado 879384" d="M16.355,28.951a1.03,1.03,0,0,1-.68-.256l-6.322-5.53a1.031,1.031,0,0,1,0-1.554l6.322-5.53a1.033,1.033,0,0,1,1.36,1.556L11.6,22.388l5.431,4.753a1.032,1.032,0,0,1-.68,1.81Z" transform="translate(-9 -15.824)" fill="#3a1d71"/>
          </g>
        </g>
        <g id="XMLID_1095_" transform="translate(27.146 25.636)">
          <g id="Grupo_1103417" data-name="Grupo 1103417">
            <path id="Trazado_879385" data-name="Trazado 879385" d="M15.168,33.4a1,1,0,0,1-.327-.054,1.032,1.032,0,0,1-.653-1.306L19.83,15.11a1.034,1.034,0,0,1,1.961.653L16.15,32.7A1.04,1.04,0,0,1,15.168,33.4Z" transform="translate(-14.135 -14.404)" fill="#3a1d71"/>
          </g>
        </g>
        <g id="XMLID_1088_" transform="translate(37.078 28.567)">
          <g id="Grupo_1103418" data-name="Grupo 1103418">
            <path id="Trazado_879386" data-name="Trazado 879386" d="M19.975,28.953a1.034,1.034,0,0,1-.68-1.812l5.431-4.751-5.431-4.753a1.033,1.033,0,0,1,1.36-1.556l6.322,5.53a1.033,1.033,0,0,1,0,1.556L20.655,28.7a1.012,1.012,0,0,1-.68.256Z" transform="translate(-18.941 -15.823)" fill="#3a1d71"/>
          </g>
        </g>
        <g id="XMLID_1068_" transform="translate(0 53.733)">
          <g id="Grupo_1103419" data-name="Grupo 1103419">
            <path id="Trazado_879387" data-name="Trazado 879387" d="M57.833,34.2H6.167A5.173,5.173,0,0,1,1,29.033,1.034,1.034,0,0,1,2.033,28H24.767a1.033,1.033,0,0,1,0,2.067H3.244a3.1,3.1,0,0,0,2.922,2.067H57.833a3.1,3.1,0,0,0,2.922-2.067H39.233a1.033,1.033,0,1,1,0-2.067H61.967A1.034,1.034,0,0,1,63,29.033,5.173,5.173,0,0,1,57.833,34.2Z" transform="translate(-1 -28)" fill="#3a1d71"/>
          </g>
        </g>
        <g id="XMLID_956_" transform="translate(17.567)">
          <g id="XMLID_1154_">
            <g id="Grupo_1103420" data-name="Grupo 1103420">
              <path id="Trazado_879388" data-name="Trazado 879388" d="M35.333,18.533A1.034,1.034,0,0,1,34.3,17.5V14.673l-2.1-.463a1.036,1.036,0,0,1-.783-.769,9.168,9.168,0,0,0-1.077-2.6,1.029,1.029,0,0,1,.014-1.091l1.164-1.821L30.437,6.853,28.617,8.018a1.029,1.029,0,0,1-1.091.012,8.574,8.574,0,0,0-2.581-1.054,1.037,1.037,0,0,1-.787-.787l-.465-2.122H22.175L21.71,6.189a1.034,1.034,0,0,1-.787.787,8.574,8.574,0,0,0-2.581,1.054,1.033,1.033,0,0,1-1.091-.012L15.429,6.853,14.352,7.929,15.516,9.75a1.033,1.033,0,0,1,.014,1.091,8.616,8.616,0,0,0-1.054,2.583,1.031,1.031,0,0,1-.789.785l-2.935.641a1.032,1.032,0,0,1-.438-2.017l2.313-.506a10.615,10.615,0,0,1,.816-1.986l-1.277-2A1.032,1.032,0,0,1,12.3,7.057L14.557,4.8a1.035,1.035,0,0,1,1.288-.141l2,1.277a10.541,10.541,0,0,1,1.988-.814l.506-2.315A1.029,1.029,0,0,1,21.342,2h3.181a1.033,1.033,0,0,1,1.009.812l.506,2.315a10.6,10.6,0,0,1,1.988.814l2-1.277a1.035,1.035,0,0,1,1.288.141l2.253,2.253A1.032,1.032,0,0,1,33.7,8.345l-1.277,2a11.018,11.018,0,0,1,.825,1.986l2.3.506a1.03,1.03,0,0,1,.814,1.009V17.5a1.034,1.034,0,0,1-1.033,1.033Z" transform="translate(-9.5 -2)" fill="#3a1d71"/>
            </g>
          </g>
          <g id="XMLID_2396_" transform="translate(7.233 7.233)">
            <g id="Grupo_1103421" data-name="Grupo 1103421">
              <path id="Trazado_879389" data-name="Trazado 879389" d="M14.44,14.748a1.03,1.03,0,0,1-.951-.63,6.2,6.2,0,1,1,11.425-.006,1.034,1.034,0,0,1-1.905-.8,4.133,4.133,0,1,0-7.618,0,1.034,1.034,0,0,1-.951,1.436Z" transform="translate(-13 -5.5)" fill="#3a1d71"/>
            </g>
          </g>
        </g>
      </g>
      <g id="XMLID_3413_" transform="translate(42.333 49.43)">
        <g id="XMLID_3420_">
          <g id="Grupo_1103422" data-name="Grupo 1103422">
            <path id="Trazado_879390" data-name="Trazado 879390" d="M22.033,27.12A1.034,1.034,0,0,1,21,26.087a1.127,1.127,0,0,1,1.033-1.137.95.95,0,0,1,1.033.93v.207a1.034,1.034,0,0,1-1.033,1.033Z" transform="translate(-21 -24.95)" fill="#3a1d71"/>
          </g>
        </g>
        <g id="XMLID_3419_" transform="translate(4.133)">
          <g id="Grupo_1103423" data-name="Grupo 1103423">
            <path id="Trazado_879391" data-name="Trazado 879391" d="M24.033,27.12A1.034,1.034,0,0,1,23,26.087a1.127,1.127,0,0,1,1.033-1.137.95.95,0,0,1,1.033.93v.207a1.034,1.034,0,0,1-1.033,1.033Z" transform="translate(-23 -24.95)" fill="#3a1d71"/>
          </g>
        </g>
        <g id="XMLID_3414_" transform="translate(8.267)">
          <g id="Grupo_1103424" data-name="Grupo 1103424">
            <path id="Trazado_879392" data-name="Trazado 879392" d="M26.033,27.12A1.034,1.034,0,0,1,25,26.087a1.127,1.127,0,0,1,1.033-1.137.95.95,0,0,1,1.033.93v.207a1.034,1.034,0,0,1-1.033,1.033Z" transform="translate(-25 -24.95)" fill="#3a1d71"/>
          </g>
        </g>
      </g>
    </g>
  </g>
</svg>
