<svg xmlns="http://www.w3.org/2000/svg" xmlns:xlink="http://www.w3.org/1999/xlink" width="190" height="91" viewBox="0 0 190 91">
  <defs>
    <clipPath id="clip-path">
      <rect width="57" height="39" fill="none"/>
    </clipPath>
  </defs>
  <g id="Grupo_1103326" data-name="Grupo 1103326" transform="translate(-1230 -821.848)">
    <rect id="Rectángulo_401078" data-name="Rectángulo 401078" width="168" height="63" rx="10" transform="translate(1252 849.848)" fill="#e8eefe"/>
    <g id="Cuadrícula_de_repetición_14" data-name="Cuadrícula de repetición 14" transform="translate(1230 873.848)" clip-path="url(#clip-path)">
      <g transform="translate(-180 -1074)">
        <circle id="Elipse_9675" data-name="Elipse 9675" cx="3" cy="3" r="3" transform="translate(180 1074)" fill="#a854f3"/>
        <circle id="Elipse_9676" data-name="Elipse 9676" cx="3" cy="3" r="3" transform="translate(195 1074)" fill="#a854f3"/>
        <circle id="Elipse_9677" data-name="Elipse 9677" cx="3" cy="3" r="3" transform="translate(212 1074)" fill="#a854f3"/>
        <circle id="Elipse_9678" data-name="Elipse 9678" cx="3" cy="3" r="3" transform="translate(227 1074)" fill="#a854f3"/>
        <circle id="Elipse_9679" data-name="Elipse 9679" cx="3" cy="3" r="3" transform="translate(244 1074)" fill="#a854f3"/>
        <circle id="Elipse_9680" data-name="Elipse 9680" cx="3" cy="3" r="3" transform="translate(259 1074)" fill="#a854f3"/>
      </g>
      <g transform="translate(-180 -1058)">
        <circle id="Elipse_9675-2" data-name="Elipse 9675" cx="3" cy="3" r="3" transform="translate(180 1074)" fill="#a854f3"/>
        <circle id="Elipse_9676-2" data-name="Elipse 9676" cx="3" cy="3" r="3" transform="translate(195 1074)" fill="#a854f3"/>
        <circle id="Elipse_9677-2" data-name="Elipse 9677" cx="3" cy="3" r="3" transform="translate(212 1074)" fill="#a854f3"/>
        <circle id="Elipse_9678-2" data-name="Elipse 9678" cx="3" cy="3" r="3" transform="translate(227 1074)" fill="#a854f3"/>
        <circle id="Elipse_9679-2" data-name="Elipse 9679" cx="3" cy="3" r="3" transform="translate(244 1074)" fill="#a854f3"/>
        <circle id="Elipse_9680-2" data-name="Elipse 9680" cx="3" cy="3" r="3" transform="translate(259 1074)" fill="#a854f3"/>
      </g>
      <g transform="translate(-180 -1042)">
        <circle id="Elipse_9675-3" data-name="Elipse 9675" cx="3" cy="3" r="3" transform="translate(180 1074)" fill="#a854f3"/>
        <circle id="Elipse_9676-3" data-name="Elipse 9676" cx="3" cy="3" r="3" transform="translate(195 1074)" fill="#a854f3"/>
        <circle id="Elipse_9677-3" data-name="Elipse 9677" cx="3" cy="3" r="3" transform="translate(212 1074)" fill="#a854f3"/>
        <circle id="Elipse_9678-3" data-name="Elipse 9678" cx="3" cy="3" r="3" transform="translate(227 1074)" fill="#a854f3"/>
        <circle id="Elipse_9679-3" data-name="Elipse 9679" cx="3" cy="3" r="3" transform="translate(244 1074)" fill="#a854f3"/>
        <circle id="Elipse_9680-3" data-name="Elipse 9680" cx="3" cy="3" r="3" transform="translate(259 1074)" fill="#a854f3"/>
      </g>
    </g>
    <g id="Grupo_1099979" data-name="Grupo 1099979" transform="translate(1156.6 716.047)">
      <g id="Layer_x0020_1" transform="translate(168.4 105.8)">
        <g id="_319707120" transform="translate(0 0)">
          <g id="Grupo_1099977" data-name="Grupo 1099977" transform="translate(0.853 0.906)">
            <g id="Grupo_1099976" data-name="Grupo 1099976">
              <path id="_224388096" d="M176.477,109.2h5.969l11.619,3.464,11.619-3.464h5.969a4.879,4.879,0,0,1,4.877,4.877v68.488a4.879,4.879,0,0,1-4.877,4.877H176.477a4.879,4.879,0,0,1-4.877-4.877V114.077A4.9,4.9,0,0,1,176.477,109.2Z" transform="translate(-171.6 -109.2)" fill="#5c5e71" fill-rule="evenodd"/>
              <path id="_224387952" d="M176.549,109.2h35.177a4.879,4.879,0,0,1,4.877,4.877v68.488a4.879,4.879,0,0,1-4.877,4.877h-35.15a4.879,4.879,0,0,1-4.877-4.877V114.077A4.856,4.856,0,0,1,176.549,109.2Z" transform="translate(-171.673 -109.2)" fill="#e4eaf8" fill-rule="evenodd"/>
              <path id="_224387928" d="M195.973,161.1h5.969a.773.773,0,0,1,.773.773v5.969a.773.773,0,0,1-.773.773h-5.969a.773.773,0,0,1-.773-.773v-5.969A.791.791,0,0,1,195.973,161.1Z" transform="translate(-188.911 -147.269)" fill="#e04141" fill-rule="evenodd"/>
              <path id="_224387544" d="M242.742,161.1h6a.773.773,0,0,1,.773.773v5.969a.773.773,0,0,1-.773.773h-5.969a.773.773,0,0,1-.773-.773v-5.969A.735.735,0,0,1,242.742,161.1Z" transform="translate(-223.235 -147.269)" fill="#e04141" fill-rule="evenodd"/>
              <path id="_224387640" d="M289.373,161.1h5.969a.773.773,0,0,1,.773.773v5.969a.773.773,0,0,1-.773.773h-5.969a.773.773,0,0,1-.773-.773v-5.969A.791.791,0,0,1,289.373,161.1Z" transform="translate(-257.421 -147.269)" fill="#e04141" fill-rule="evenodd"/>
              <path id="_224388168" d="M195.973,215.8h5.969a.773.773,0,0,1,.773.773v5.943a.773.773,0,0,1-.773.773h-5.969a.773.773,0,0,1-.773-.773v-5.969A.787.787,0,0,1,195.973,215.8Z" transform="translate(-188.911 -187.392)" fill="#29af5c" fill-rule="evenodd"/>
              <path id="_221312312" d="M242.742,215.8h6a.773.773,0,0,1,.773.773v5.943a.773.773,0,0,1-.773.773h-5.969a.773.773,0,0,1-.773-.773v-5.969A.728.728,0,0,1,242.742,215.8Z" transform="translate(-223.235 -187.392)" fill="#29af5c" fill-rule="evenodd"/>
              <path id="_221311952" d="M289.373,215.8h5.969a.773.773,0,0,1,.773.773v5.943a.773.773,0,0,1-.773.773h-5.969a.773.773,0,0,1-.773-.773v-5.969A.787.787,0,0,1,289.373,215.8Z" transform="translate(-257.421 -187.392)" fill="#29af5c" fill-rule="evenodd"/>
              <path id="_221312288" d="M195.973,270.4h5.969a.773.773,0,0,1,.773.773v5.969a.773.773,0,0,1-.773.773h-5.969a.773.773,0,0,1-.773-.773v-5.969A.773.773,0,0,1,195.973,270.4Z" transform="translate(-188.911 -227.442)" fill="#659bf6" fill-rule="evenodd"/>
              <path id="_221311904" d="M242.742,270.4h6a.773.773,0,0,1,.773.773v5.969a.773.773,0,0,1-.773.773h-5.969a.773.773,0,0,1-.773-.773v-5.969A.721.721,0,0,1,242.742,270.4Z" transform="translate(-223.235 -227.442)" fill="#659bf6" fill-rule="evenodd"/>
              <path id="_221311400" d="M289.373,270.4h5.969a.773.773,0,0,1,.773.773v5.969a.773.773,0,0,1-.773.773h-5.969a.773.773,0,0,1-.773-.773v-5.969A.773.773,0,0,1,289.373,270.4Z" transform="translate(-257.421 -227.442)" fill="#659bf6" fill-rule="evenodd"/>
              <path id="_221311304" d="M195.973,352h5.969a.773.773,0,0,1,.773.773v5.969a.773.773,0,0,1-.773.773h-5.969a.773.773,0,0,1-.773-.773v-5.969A.81.81,0,0,1,195.973,352Z" transform="translate(-188.911 -287.296)" fill="#af66da" fill-rule="evenodd"/>
              <path id="_221310416" d="M242.742,352h6a.773.773,0,0,1,.773.773v5.969a.773.773,0,0,1-.773.773h-5.969a.773.773,0,0,1-.773-.773v-5.969A.75.75,0,0,1,242.742,352Z" transform="translate(-223.235 -287.296)" fill="#af66da" fill-rule="evenodd"/>
              <path id="_221311088" d="M289.373,352h5.969a.773.773,0,0,1,.773.773v5.969a.773.773,0,0,1-.773.773h-5.969a.773.773,0,0,1-.773-.773v-5.969A.81.81,0,0,1,289.373,352Z" transform="translate(-257.421 -287.296)" fill="#af66da" fill-rule="evenodd"/>
              <path id="_221310608" d="M212.4,109.2h23.238v3.917a3.924,3.924,0,0,1-3.917,3.917h-15.4a3.924,3.924,0,0,1-3.917-3.917Z" transform="translate(-201.527 -109.2)" fill="#4a4c59" fill-rule="evenodd"/>
            </g>
            <path id="_221311160" d="M238.379,120.7a.879.879,0,1,0,0,1.759h8.128a.879.879,0,0,0,0-1.759Z" transform="translate(-219.938 -117.635)" fill="#7b7d86"/>
            <path id="_221310632" d="M280.906,122.359a.879.879,0,0,0,0-1.759h-.027a.88.88,0,1,0,.027,1.759Z" transform="translate(-251.113 -117.562)" fill="#7b7d86"/>
            <path id="_221310896" d="M226.106,122.359a.879.879,0,1,0,0-1.759h-.027a.887.887,0,0,0-.879.879A.929.929,0,0,0,226.106,122.359Z" transform="translate(-210.916 -117.562)" fill="#7b7d86"/>
          </g>
          <g id="Grupo_1099978" data-name="Grupo 1099978">
            <path id="_319707432" d="M229.4,115.494H214a4.811,4.811,0,0,1-4.8-4.8v-3.917a.879.879,0,1,1,1.759,0V110.7A3.037,3.037,0,0,0,214,113.735h15.4a3.037,3.037,0,0,0,3.038-3.038v-3.917a.879.879,0,1,1,1.759,0V110.7a4.828,4.828,0,0,1-4.8,4.8Z" transform="translate(-198.327 -105.873)" fill-rule="evenodd"/>
            <path id="_319706328" d="M174.13,107.559a3.992,3.992,0,0,0-4,4v68.488a3.992,3.992,0,0,0,4,4h35.177a4.009,4.009,0,0,0,4-4V111.556a3.992,3.992,0,0,0-4-4Zm35.2,78.241H174.156a5.766,5.766,0,0,1-5.756-5.756V111.556a5.766,5.766,0,0,1,5.756-5.756h35.177a5.766,5.766,0,0,1,5.756,5.756v68.488A5.715,5.715,0,0,1,209.333,185.8Z" transform="translate(-168.4 -105.8)" fill-rule="evenodd"/>
            <path id="_319706184" d="M246.407,122.359h-8.128a.879.879,0,0,1,0-1.759h8.128a.879.879,0,0,1,0,1.759Z" transform="translate(-219.012 -116.656)" fill-rule="evenodd"/>
            <path id="_319706256" d="M280.979,122.359a.87.87,0,0,1-.879-.879.879.879,0,0,1,1.759,0A.905.905,0,0,1,280.979,122.359Z" transform="translate(-250.333 -116.656)" fill-rule="evenodd"/>
            <path id="_319706688" d="M226.179,122.359a.87.87,0,0,1-.879-.879.879.879,0,0,1,1.759,0A.854.854,0,0,1,226.179,122.359Z" transform="translate(-210.137 -116.656)" fill-rule="evenodd"/>
            <path id="_319706568" d="M193.779,165.488h5.756v-5.756h-5.756Zm5.916,1.732h-5.969a1.632,1.632,0,0,1-1.626-1.626v-5.969A1.632,1.632,0,0,1,193.726,158h5.969a1.632,1.632,0,0,1,1.626,1.626v5.969A1.65,1.65,0,0,1,199.695,167.221Z" transform="translate(-185.784 -144.089)" fill-rule="evenodd"/>
            <path id="_319706664" d="M240.432,165.488h5.756v-5.756h-5.756Zm5.863,1.732h-5.969a1.632,1.632,0,0,1-1.626-1.626v-5.969A1.632,1.632,0,0,1,240.326,158h5.969a1.632,1.632,0,0,1,1.626,1.626v5.969A1.6,1.6,0,0,1,246.295,167.221Z" transform="translate(-219.966 -144.089)" fill-rule="evenodd"/>
            <path id="_319706520" d="M287.232,165.488h5.756v-5.756h-5.756Zm5.863,1.732h-5.969a1.632,1.632,0,0,1-1.626-1.626v-5.969A1.632,1.632,0,0,1,287.126,158h5.969a1.632,1.632,0,0,1,1.626,1.626v5.969A1.632,1.632,0,0,1,293.095,167.221Z" transform="translate(-254.294 -144.089)" fill-rule="evenodd"/>
            <path id="_319706472" d="M193.779,219.988h5.756v-5.756h-5.756Zm5.916,1.732h-5.969a1.632,1.632,0,0,1-1.626-1.626v-5.969a1.632,1.632,0,0,1,1.626-1.626h5.969a1.632,1.632,0,0,1,1.626,1.626v5.969A1.65,1.65,0,0,1,199.695,221.721Z" transform="translate(-185.784 -184.066)" fill-rule="evenodd"/>
            <path id="_319706784" d="M240.432,219.988h5.756v-5.756h-5.756Zm5.863,1.732h-5.969a1.632,1.632,0,0,1-1.626-1.626v-5.969a1.632,1.632,0,0,1,1.626-1.626h5.969a1.632,1.632,0,0,1,1.626,1.626v5.969A1.6,1.6,0,0,1,246.295,221.721Z" transform="translate(-219.966 -184.066)" fill-rule="evenodd"/>
            <path id="_319706352" d="M287.232,219.988h5.756v-5.756h-5.756Zm5.863,1.732h-5.969a1.632,1.632,0,0,1-1.626-1.626v-5.969a1.632,1.632,0,0,1,1.626-1.626h5.969a1.632,1.632,0,0,1,1.626,1.626v5.969A1.632,1.632,0,0,1,293.095,221.721Z" transform="translate(-254.294 -184.066)" fill-rule="evenodd"/>
            <path id="_319707792" d="M193.779,274.635h5.756v-5.756h-5.756Zm5.916,1.785h-5.969a1.632,1.632,0,0,1-1.626-1.626v-5.969a1.632,1.632,0,0,1,1.626-1.626h5.969a1.632,1.632,0,0,1,1.626,1.626v5.969A1.668,1.668,0,0,1,199.695,276.421Z" transform="translate(-185.784 -224.189)" fill-rule="evenodd"/>
            <path id="_319708104" d="M240.432,274.635h5.756v-5.756h-5.756Zm5.863,1.785h-5.969a1.632,1.632,0,0,1-1.626-1.626v-5.969a1.632,1.632,0,0,1,1.626-1.626h5.969a1.632,1.632,0,0,1,1.626,1.626v5.969A1.615,1.615,0,0,1,246.295,276.421Z" transform="translate(-219.966 -224.189)" fill-rule="evenodd"/>
            <path id="_319707744" d="M287.232,274.635h5.756v-5.756h-5.756Zm5.863,1.785h-5.969a1.632,1.632,0,0,1-1.626-1.626v-5.969a1.632,1.632,0,0,1,1.626-1.626h5.969a1.632,1.632,0,0,1,1.626,1.626v5.969A1.65,1.65,0,0,1,293.095,276.421Z" transform="translate(-254.294 -224.189)" fill-rule="evenodd"/>
            <path id="_319708008" d="M193.779,356.388h5.756v-5.756h-5.756Zm5.916,1.732h-5.969a1.632,1.632,0,0,1-1.626-1.626v-5.969a1.632,1.632,0,0,1,1.626-1.626h5.969a1.632,1.632,0,0,1,1.626,1.626v5.969A1.65,1.65,0,0,1,199.695,358.121Z" transform="translate(-185.784 -284.116)" fill-rule="evenodd"/>
            <path id="_319707720" d="M240.432,356.388h5.756v-5.756h-5.756Zm5.863,1.732h-5.969a1.632,1.632,0,0,1-1.626-1.626v-5.969a1.632,1.632,0,0,1,1.626-1.626h5.969a1.632,1.632,0,0,1,1.626,1.626v5.969A1.6,1.6,0,0,1,246.295,358.121Z" transform="translate(-219.966 -284.116)" fill-rule="evenodd"/>
            <path id="_319707336" d="M287.232,356.388h5.756v-5.756h-5.756Zm5.863,1.732h-5.969a1.632,1.632,0,0,1-1.626-1.626v-5.969a1.632,1.632,0,0,1,1.626-1.626h5.969a1.632,1.632,0,0,1,1.626,1.626v5.969A1.632,1.632,0,0,1,293.095,358.121Z" transform="translate(-254.294 -284.116)" fill-rule="evenodd"/>
          </g>
        </g>
      </g>
    </g>
  </g>
</svg>
