<svg xmlns="http://www.w3.org/2000/svg" width="90" height="90" viewBox="0 0 90 90">
  <g id="Grupo_1103425" data-name="Grupo 1103425" transform="translate(6686 2275)">
    <rect id="Rectángulo_403687" data-name="Rectángulo 403687" width="90" height="90" rx="10" transform="translate(-6686 -2275)" fill="#00ffdf"/>
    <g id="Grupo_1103426" data-name="Grupo 1103426" transform="translate(-6670.626 -2259.626)">
      <path id="Trazado_879393" data-name="Trazado 879393" d="M7.811,3.472a.868.868,0,1,0,.868.868A.868.868,0,0,0,7.811,3.472Zm-3.472,0a.868.868,0,1,0,.868.868A.868.868,0,0,0,4.34,3.472Zm6.944,0a.868.868,0,1,0,.868.868A.868.868,0,0,0,11.283,3.472ZM29.626,19.1a5.661,5.661,0,1,0,5.661,5.661A5.667,5.667,0,0,0,29.626,19.1Zm0,9.586a3.925,3.925,0,1,1,3.925-3.925A3.929,3.929,0,0,1,29.626,28.69Zm8.3-13.4-1.311.758a11.074,11.074,0,0,0-2.954-1.711V12.817a1.127,1.127,0,0,0-1.126-1.126H26.712a1.127,1.127,0,0,0-1.126,1.126v1.518a11.076,11.076,0,0,0-2.954,1.711l-1.311-.758a1.126,1.126,0,0,0-1.539.412l-2.915,5.059A1.128,1.128,0,0,0,17.28,22.3l1.313.759a11.284,11.284,0,0,0,0,3.421l-1.313.76a1.128,1.128,0,0,0-.412,1.536l2.915,5.059a1.126,1.126,0,0,0,1.539.412l1.311-.758A11.073,11.073,0,0,0,25.586,35.2v1.518a1.127,1.127,0,0,0,1.126,1.126H32.54a1.127,1.127,0,0,0,1.126-1.126V35.2a11.076,11.076,0,0,0,2.954-1.711l1.311.758a1.126,1.126,0,0,0,1.539-.412l2.915-5.059a1.128,1.128,0,0,0-.412-1.536l-1.313-.759a11.283,11.283,0,0,0,0-3.421l1.313-.76a1.128,1.128,0,0,0,.412-1.536L39.469,15.7a1.126,1.126,0,0,0-1.539-.412Zm2.645,5.81-1.155.668a1.126,1.126,0,0,0-.54,1.189,9.539,9.539,0,0,1,0,3.621,1.126,1.126,0,0,0,.54,1.189l1.155.668-2.305,4-1.153-.667a1.125,1.125,0,0,0-1.3.128A9.369,9.369,0,0,1,32.69,33.7a1.126,1.126,0,0,0-.76,1.064V36.1H27.322V34.768a1.126,1.126,0,0,0-.76-1.064,9.37,9.37,0,0,1-3.124-1.809,1.126,1.126,0,0,0-1.3-.128l-1.153.667-2.305-4,1.155-.668a1.126,1.126,0,0,0,.54-1.189,9.539,9.539,0,0,1,0-3.621,1.126,1.126,0,0,0-.54-1.189L18.676,21.1l2.305-4,1.153.667a1.126,1.126,0,0,0,1.3-.128,9.369,9.369,0,0,1,3.123-1.809,1.126,1.126,0,0,0,.76-1.064V13.428H31.93v1.335a1.126,1.126,0,0,0,.76,1.064,9.37,9.37,0,0,1,3.124,1.809,1.125,1.125,0,0,0,1.3.128L38.27,17.1ZM54.912,0H4.34A4.345,4.345,0,0,0,0,4.34V44.265A4.345,4.345,0,0,0,4.34,48.6H22.407a6.3,6.3,0,0,1-.685,4.239l-1.9,3.394a2.04,2.04,0,0,0,1.767,3.014H37.662a2.049,2.049,0,0,0,1.767-3.014l-1.9-3.393a6.3,6.3,0,0,1-.685-4.239H54.912a4.345,4.345,0,0,0,4.34-4.34V4.34A4.345,4.345,0,0,0,54.912,0ZM1.736,4.34a2.607,2.607,0,0,1,2.6-2.6H22.266A2.934,2.934,0,0,0,22,2.951V5.728a1.216,1.216,0,0,1-1.215,1.215H1.736ZM37.915,57.085a.279.279,0,0,1-.253.431H21.59a.279.279,0,0,1-.253-.431l1.9-3.394a8.046,8.046,0,0,0,.929-5.087h10.92a8.046,8.046,0,0,0,.929,5.087Zm19.6-12.82a2.607,2.607,0,0,1-2.6,2.6H4.34a2.607,2.607,0,0,1-2.6-2.6V42.587h55.78Zm0-3.414H1.736V8.679H20.789A2.954,2.954,0,0,0,23.74,5.728V2.951a1.216,1.216,0,0,1,1.215-1.215H34.3a1.216,1.216,0,0,1,1.215,1.215V5.728a2.954,2.954,0,0,0,2.951,2.951H57.516Zm0-33.908H38.463a1.216,1.216,0,0,1-1.215-1.215V2.951a2.934,2.934,0,0,0-.263-1.215H54.912a2.607,2.607,0,0,1,2.6,2.6ZM46.651,23.1v3.931a.868.868,0,0,0,1.736,0V22.946a1.5,1.5,0,0,0-.859-1.345,4.591,4.591,0,0,1-2.62-4.132,4.537,4.537,0,0,1,1.744-3.592v2.515a1.382,1.382,0,0,0,1.381,1.381H51.14a1.382,1.382,0,0,0,1.381-1.381V14.065a4.567,4.567,0,0,1-.932,7.454,1.487,1.487,0,0,0-.8,1.318V34.9a1.2,1.2,0,0,1-1.226,1.2,1.206,1.206,0,0,1-1.173-1.2V31.086a.868.868,0,0,0-1.736,0V34.9a2.953,2.953,0,0,0,2.937,2.935A2.935,2.935,0,0,0,52.521,34.9V22.988a6.3,6.3,0,0,0,.01-11.034,1.176,1.176,0,0,0-1.746,1.029v3.053h-2.4V12.868a1.176,1.176,0,0,0-1.7-1.054,6.268,6.268,0,0,0-3.518,5.655A6.334,6.334,0,0,0,46.651,23.1ZM12.832,11.954a1.176,1.176,0,0,0-1.746,1.029v3.053h-2.4V12.868a1.176,1.176,0,0,0-1.7-1.054,6.268,6.268,0,0,0-3.518,5.655A6.335,6.335,0,0,0,6.951,23.1V34.9a2.952,2.952,0,0,0,2.871,2.934,2.935,2.935,0,0,0,3-2.935V22.988a6.37,6.37,0,0,0,1.984-1.719.868.868,0,1,0-1.384-1.048,4.619,4.619,0,0,1-1.532,1.3,1.487,1.487,0,0,0-.8,1.318V34.9A1.2,1.2,0,0,1,9.86,36.1a1.206,1.206,0,0,1-1.173-1.2V22.946A1.5,1.5,0,0,0,7.828,21.6a4.591,4.591,0,0,1-2.62-4.132,4.537,4.537,0,0,1,1.744-3.592v2.515a1.382,1.382,0,0,0,1.381,1.381h3.109a1.382,1.382,0,0,0,1.381-1.381V14.065a4.567,4.567,0,0,1,1.494,2.89.868.868,0,1,0,1.725-.193,6.314,6.314,0,0,0-3.21-4.808Z" fill="#3a1d71"/>
    </g>
  </g>
</svg>
