<svg xmlns="http://www.w3.org/2000/svg" xmlns:xlink="http://www.w3.org/1999/xlink" width="106.136" height="106.136" viewBox="0 0 106.136 106.136">
  <defs>
    <filter id="Elipse_9685" x="0" y="0" width="106.136" height="106.136" filterUnits="userSpaceOnUse">
      <feOffset dy="3" input="SourceAlpha"/>
      <feGaussianBlur stdDeviation="3" result="blur"/>
      <feFlood flood-opacity="0.161"/>
      <feComposite operator="in" in2="blur"/>
      <feComposite in="SourceGraphic"/>
    </filter>
  </defs>
  <g id="Grupo_1103379" data-name="Grupo 1103379" transform="translate(-737.932 -9747.46)">
    <circle id="Elipse_11310" data-name="Elipse 11310" cx="50" cy="50" r="50" transform="translate(741 9747.527)" fill="#fff"/>
    <g id="Grupo_1098210" data-name="Grupo 1098210" transform="translate(746.932 9753.46)">
      <g transform="matrix(1, 0, 0, 1, -9, -6)" filter="url(#Elipse_9685)">
        <g id="Elipse_9685-2" data-name="Elipse 9685" transform="translate(9 6)" fill="#f2e5fd" stroke="#a854f3" stroke-width="5">
          <circle cx="44.068" cy="44.068" r="44.068" stroke="none"/>
          <circle cx="44.068" cy="44.068" r="41.568" fill="none"/>
        </g>
      </g>
    </g>
    <path id="Trazado_879331" data-name="Trazado 879331" d="M11.659,33.06H5.052a.984.984,0,0,0-.984.984v11.32a.984.984,0,0,0,.984.984h6.607a.984.984,0,0,0,.984-.984V34.044a.984.984,0,0,0-.984-.984Zm-.984,11.32H6.037V35.028h4.638v9.351ZM22.558,22.469H15.951a.984.984,0,0,0-.984.984V45.107a.984.984,0,0,0,.984.984h6.607a.984.984,0,0,0,.984-.984V23.453A.984.984,0,0,0,22.558,22.469Zm-.984,21.654H16.936V24.437h4.638ZM33.457,26.071H26.85a.984.984,0,0,0-.984.984V44.849a.984.984,0,0,0,.984.984h6.607a.984.984,0,0,0,.984-.984V27.055A.984.984,0,0,0,33.457,26.071Zm-.984,17.794H27.835V28.04h4.638ZM44.357,16.037H37.749a.984.984,0,0,0-.984.984V44.592a.984.984,0,0,0,.984.984h6.607a.984.984,0,0,0,.984-.984V17.021A.984.984,0,0,0,44.357,16.037Zm-.984,27.571H38.734v-25.6h4.638ZM7.709,28.225A3.708,3.708,0,0,0,11.048,22.9l6.165-5.4a3.7,3.7,0,0,0,5.09-.985l4.151,1.453c-.006.084-.01.168-.01.252a3.709,3.709,0,1,0,7.067-1.574l5.463-4.667a3.711,3.711,0,1,0-1.279-1.5l-5.463,4.667a3.7,3.7,0,0,0-5.127.961l-4.151-1.453c.006-.084.01-.168.01-.252a3.709,3.709,0,1,0-7.049,1.614l-6.165,5.4a3.709,3.709,0,1,0-2.042,6.8ZM41.053,7.174a1.741,1.741,0,1,1-1.741,1.741A1.743,1.743,0,0,1,41.053,7.174Zm-10.9,9.312a1.741,1.741,0,1,1-1.741,1.741A1.743,1.743,0,0,1,30.154,16.486Zm-10.9-3.816a1.741,1.741,0,1,1-1.741,1.741A1.743,1.743,0,0,1,19.255,12.67ZM7.709,22.775a1.741,1.741,0,1,1-1.741,1.741A1.743,1.743,0,0,1,7.709,22.775Z" transform="translate(766.33 9771.752)" fill="#a854f3"/>
  </g>
</svg>
