<svg xmlns="http://www.w3.org/2000/svg" width="90" height="90" viewBox="0 0 90 90">
  <g id="Grupo_1103413" data-name="Grupo 1103413" transform="translate(6686 2275)">
    <rect id="Rectángulo_403687" data-name="Rectángulo 403687" width="90" height="90" rx="10" transform="translate(-6686 -2275)" fill="#00ffdf"/>
    <g id="Grupo_1103412" data-name="Grupo 1103412" transform="translate(-6671 -2260.5)">
      <path id="Trazado_879353" data-name="Trazado 879353" d="M36.326,134.375a.891.891,0,0,0,1.26-1.26l-2.163-2.163,2.163-2.162a.891.891,0,1,0-1.26-1.26l-2.792,2.792a.891.891,0,0,0,0,1.26Zm0,0" transform="translate(-29.319 -111.704)" fill="#3a1d71"/>
      <path id="Trazado_879354" data-name="Trazado 879354" d="M115.354,130.95l-2.163,2.163a.891.891,0,1,0,1.26,1.26l2.793-2.793a.89.89,0,0,0,0-1.259l-2.793-2.793a.89.89,0,1,0-1.259,1.26Zm0,0" transform="translate(-99.509 -111.7)" fill="#3a1d71"/>
      <path id="Trazado_879355" data-name="Trazado 879355" d="M76.982,134.57a.89.89,0,0,0,1.155-.5l2.194-5.585a.89.89,0,1,0-1.657-.651l-2.194,5.585A.891.891,0,0,0,76.982,134.57Zm0,0" transform="translate(-67.335 -111.699)" fill="#3a1d71"/>
      <path id="Trazado_879356" data-name="Trazado 879356" d="M38.406,220h6a.891.891,0,0,0,0-1.781h-6a.891.891,0,0,0,0,1.781Zm0,0" transform="translate(-33.057 -191.839)" fill="#3a1d71"/>
      <path id="Trazado_879357" data-name="Trazado 879357" d="M126.95,218.215H116.4a.891.891,0,0,0,0,1.781H126.95a.891.891,0,1,0,0-1.781Zm0,0" transform="translate(-101.783 -191.839)" fill="#3a1d71"/>
      <path id="Trazado_879358" data-name="Trazado 879358" d="M38.406,251.6h2.556a.891.891,0,0,0,0-1.781H38.406a.891.891,0,0,0,0,1.781Zm0,0" transform="translate(-33.057 -219.689)" fill="#3a1d71"/>
      <path id="Trazado_879359" data-name="Trazado 879359" d="M177.738,249.82a.891.891,0,0,0,0,1.781h1.556a.891.891,0,1,0,0-1.781Zm0,0" transform="translate(-155.83 -219.688)" fill="#3a1d71"/>
      <path id="Trazado_879360" data-name="Trazado 879360" d="M94.738,250.711a.891.891,0,0,0-.89-.89H86.2a.891.891,0,0,0,0,1.781h7.645A.891.891,0,0,0,94.738,250.711Zm0,0" transform="translate(-75.173 -219.689)" fill="#3a1d71"/>
      <path id="Trazado_879361" data-name="Trazado 879361" d="M213.7,250.711a.891.891,0,0,0,.89.891h2.915a.891.891,0,1,0,0-1.781h-2.915A.891.891,0,0,0,213.7,250.711Zm0,0" transform="translate(-188.304 -219.689)" fill="#3a1d71"/>
      <path id="Trazado_879362" data-name="Trazado 879362" d="M166.29,151.059h3.075a.891.891,0,1,0,0-1.781H166.29a.891.891,0,1,0,0,1.781Zm0,0" transform="translate(-145.741 -131.095)" fill="#3a1d71"/>
      <path id="Trazado_879363" data-name="Trazado 879363" d="M221.137,151.059H239.9a.891.891,0,0,0,0-1.781H221.137a.891.891,0,1,0,0,1.781Zm0,0" transform="translate(-194.07 -131.095)" fill="#3a1d71"/>
      <path id="Trazado_879364" data-name="Trazado 879364" d="M298.674,182.246h-7.6a.891.891,0,0,0,0,1.781h7.6a.891.891,0,0,0,0-1.781Zm0,0" transform="translate(-255.695 -160.145)" fill="#3a1d71"/>
      <path id="Trazado_879365" data-name="Trazado 879365" d="M247.729,182.246h-2.612a.891.891,0,0,0,0,1.781h2.612a.891.891,0,0,0,0-1.781Zm0,0" transform="translate(-215.2 -160.145)" fill="#3a1d71"/>
      <path id="Trazado_879366" data-name="Trazado 879366" d="M166.29,184.027h6.4a.891.891,0,0,0,0-1.781h-6.4a.891.891,0,1,0,0,1.781Zm0,0" transform="translate(-145.741 -160.145)" fill="#3a1d71"/>
      <path id="Trazado_879367" data-name="Trazado 879367" d="M106.136,281.16h-6a.89.89,0,1,0,0,1.781h6a.89.89,0,1,0,0-1.781Zm0,0" transform="translate(-87.451 -247.303)" fill="#3a1d71"/>
      <path id="Trazado_879368" data-name="Trazado 879368" d="M43.015,281.16H38.406a.89.89,0,1,0,0,1.781h4.609a.89.89,0,1,0,0-1.781Zm0,0" transform="translate(-33.057 -247.303)" fill="#3a1d71"/>
      <path id="Trazado_879369" data-name="Trazado 879369" d="M184.017,281.16H176.18a.89.89,0,1,0,0,1.781h7.837a.89.89,0,0,0,0-1.781Zm0,0" transform="translate(-154.456 -247.303)" fill="#3a1d71"/>
      <path id="Trazado_879370" data-name="Trazado 879370" d="M299.523,242.668h-4.286a.891.891,0,0,0,0,1.781h4.286a.891.891,0,0,0,0-1.781Zm0,0" transform="translate(-259.364 -213.386)" fill="#3a1d71"/>
      <path id="Trazado_879371" data-name="Trazado 879371" d="M393.867,244.449h6.05a.891.891,0,1,0,0-1.781h-6.05a.891.891,0,0,0,0,1.781Zm0,0" transform="translate(-346.271 -213.386)" fill="#3a1d71"/>
      <path id="Trazado_879372" data-name="Trazado 879372" d="M358.133,242.668h-1.386a.891.891,0,1,0,0,1.781h1.386a.891.891,0,0,0,0-1.781Zm0,0" transform="translate(-313.562 -213.386)" fill="#3a1d71"/>
      <path id="Trazado_879373" data-name="Trazado 879373" d="M295.238,326.11h4.286a.89.89,0,1,0,0-1.781h-4.286a.89.89,0,1,0,0,1.781Zm0,0" transform="translate(-259.365 -285.341)" fill="#3a1d71"/>
      <path id="Trazado_879374" data-name="Trazado 879374" d="M393.867,326.11h6.05a.89.89,0,1,0,0-1.781h-6.05a.89.89,0,0,0,0,1.781Zm0,0" transform="translate(-346.271 -285.341)" fill="#3a1d71"/>
      <path id="Trazado_879375" data-name="Trazado 879375" d="M356.75,326.11h1.386a.89.89,0,1,0,0-1.781H356.75a.89.89,0,0,0,0,1.781Zm0,0" transform="translate(-313.566 -285.341)" fill="#3a1d71"/>
      <path id="Trazado_879376" data-name="Trazado 879376" d="M299.523,405.988h-4.286a.89.89,0,1,0,0,1.781h4.286a.89.89,0,1,0,0-1.781Zm0,0" transform="translate(-259.364 -357.295)" fill="#3a1d71"/>
      <path id="Trazado_879377" data-name="Trazado 879377" d="M399.917,405.988h-6.05a.89.89,0,1,0,0,1.781h6.05a.89.89,0,1,0,0-1.781Zm0,0" transform="translate(-346.271 -357.295)" fill="#3a1d71"/>
      <path id="Trazado_879378" data-name="Trazado 879378" d="M358.133,405.988h-1.386a.89.89,0,1,0,0,1.781h1.386a.89.89,0,0,0,0-1.781Zm0,0" transform="translate(-313.562 -357.295)" fill="#3a1d71"/>
      <path id="Trazado_879379" data-name="Trazado 879379" d="M56.932.5H3.919A3.924,3.924,0,0,0,0,4.42V47.511a3.924,3.924,0,0,0,3.92,3.919H7.271a.89.89,0,0,0,0-1.781H3.919a2.141,2.141,0,0,1-2.138-2.138V44.133H34.227v1.535h-.706a1.753,1.753,0,0,0-1.752,1.752v2.23H12.686a.89.89,0,0,0,0,1.781h8.563v3.194H18.559a3.257,3.257,0,0,0-3.253,3.253V59.8a1.486,1.486,0,0,0,1.484,1.484h27.2A1.486,1.486,0,0,0,45.477,59.8V57.878a3.257,3.257,0,0,0-3.253-3.253H39.535V53.5H56a1.753,1.753,0,0,0,1.751-1.752v-.419a3.925,3.925,0,0,0,3.034-3.817l.067-43.092A3.923,3.923,0,0,0,56.932.5ZM33.551,42.012V37.744H55.969v4.269Zm2.457-6.05V34.088h17.5v1.874Zm17.5,7.831v1.874h-17.5V43.793ZM23.029,51.431h8.74v.317A1.753,1.753,0,0,0,33.521,53.5h4.233v1.126H23.029Zm19.2,4.976A1.473,1.473,0,0,1,43.7,57.878v1.627H17.087V57.878a1.474,1.474,0,0,1,1.472-1.472Zm13.745-4.689H33.55V47.449H55.969ZM59,47.511a2.139,2.139,0,0,1-1.252,1.943V47.419A1.754,1.754,0,0,0,56,45.668h-.706V44.133H59Zm0-5.159H57.721c.018-.1.029-4.638.029-4.638A1.754,1.754,0,0,0,56,35.962h-.706V34.088H56a1.754,1.754,0,0,0,1.752-1.752V28.008A1.754,1.754,0,0,0,56,26.257h-5.03a.891.891,0,0,0,0,1.781h5v4.269H33.55V28.038H45.427a.891.891,0,0,0,0-1.781H33.521a1.754,1.754,0,0,0-1.752,1.752v4.328a1.754,1.754,0,0,0,1.752,1.752h.706v1.874h-.706a1.754,1.754,0,0,0-1.752,1.752s.011,4.537.029,4.638H1.781V12.614H59Zm0-31.519H1.846V4.419A2.141,2.141,0,0,1,3.985,2.281h52.88A2.141,2.141,0,0,1,59,4.42Zm0,0" fill="#3a1d71"/>
      <path id="Trazado_879380" data-name="Trazado 879380" d="M35.887,29.262A2.614,2.614,0,1,0,38.5,31.875,2.616,2.616,0,0,0,35.887,29.262Zm0,3.446a.832.832,0,1,1,.832-.832A.833.833,0,0,1,35.887,32.707Zm0,0" transform="translate(-29.319 -25.343)" fill="#3a1d71"/>
      <path id="Trazado_879381" data-name="Trazado 879381" d="M91.872,29.262a2.614,2.614,0,1,0,2.613,2.613A2.617,2.617,0,0,0,91.872,29.262Zm0,3.446a.832.832,0,1,1,.832-.832A.833.833,0,0,1,91.872,32.707Zm0,0" transform="translate(-78.65 -25.343)" fill="#3a1d71"/>
      <path id="Trazado_879382" data-name="Trazado 879382" d="M147.859,29.262a2.614,2.614,0,1,0,2.614,2.613A2.616,2.616,0,0,0,147.859,29.262Zm0,3.446a.832.832,0,1,1,.832-.832A.833.833,0,0,1,147.859,32.707Zm0,0" transform="translate(-127.983 -25.343)" fill="#3a1d71"/>
    </g>
  </g>
</svg>
