<svg xmlns="http://www.w3.org/2000/svg" xmlns:xlink="http://www.w3.org/1999/xlink" width="501" height="322" viewBox="0 0 501 322">
  <defs>
    <clipPath id="clip-path">
      <rect id="Rectángulo_403526" data-name="Rectángulo 403526" width="487" height="307" rx="21" transform="translate(879 1089.838)" fill="#8722e2"/>
    </clipPath>
  </defs>
  <g id="Grupo_1103176" data-name="Grupo 1103176" transform="translate(3658.074 10612.162)">
    <rect id="Rectángulo_403523" data-name="Rectángulo 403523" width="472" height="297" rx="21" transform="translate(-3629.074 -10587.162)" fill="#8722e2"/>
    <g id="Enmascarar_grupo_1098811" data-name="Enmascarar grupo 1098811" transform="translate(-4537.074 -11702)" clip-path="url(#clip-path)">
      <rect id="Rectángulo_403524" data-name="Rectángulo 403524" width="487" height="307" rx="21" transform="translate(879 1089.838)" fill="#fff"/>
      <g id="Grupo_1103169" data-name="Grupo 1103169" transform="translate(4826.074 11105)">
        <rect id="Rectángulo_403513" data-name="Rectángulo 403513" width="102" height="40" rx="10" transform="translate(-3754 -9958)" fill="#d6e1fd"/>
        <rect id="Rectángulo_403527" data-name="Rectángulo 403527" width="102" height="40" rx="10" transform="translate(-3754 -9783)" fill="#d6e1fd"/>
        <path id="Trazado_880524" data-name="Trazado 880524" d="M13.254,12.242A1.235,1.235,0,0,0,12.9,11.09a5.335,5.335,0,0,0-1.691-.863A7.8,7.8,0,0,1,8.289,8.719a2.465,2.465,0,0,1-.746-2.312,3,3,0,0,1,1.4-2.152,5.177,5.177,0,0,1,2.914-.793,4.455,4.455,0,0,1,3.008.926,2.586,2.586,0,0,1,.8,2.559l-.016.047H13.434a1.411,1.411,0,0,0-.4-1.277,1.96,1.96,0,0,0-1.43-.5,2.116,2.116,0,0,0-1.2.336,1.167,1.167,0,0,0-.57.836A1.1,1.1,0,0,0,10.2,7.5a7.217,7.217,0,0,0,1.941.879,6.817,6.817,0,0,1,2.73,1.48,2.624,2.624,0,0,1,.66,2.371,2.963,2.963,0,0,1-1.4,2.176,5.424,5.424,0,0,1-2.965.762A5.588,5.588,0,0,1,8,14.316a2.4,2.4,0,0,1-.969-2.637l.016-.047H9.262A1.245,1.245,0,0,0,9.793,13a3.061,3.061,0,0,0,1.625.41,2.286,2.286,0,0,0,1.227-.328A1.192,1.192,0,0,0,13.254,12.242Zm6.8,2.922A3.361,3.361,0,0,1,17.258,14a3.71,3.71,0,0,1-.668-2.98l.047-.312a5.35,5.35,0,0,1,1.48-3.129,4.072,4.072,0,0,1,3.012-1.184,2.829,2.829,0,0,1,2.438,1.047,3.7,3.7,0,0,1,.523,2.8l-.172,1.18H18.871l-.016.039a1.957,1.957,0,0,0,.32,1.418,1.6,1.6,0,0,0,1.359.535,4.993,4.993,0,0,0,1.266-.141,9.4,9.4,0,0,0,1.2-.422l.352,1.438a5.365,5.365,0,0,1-1.418.617A6.622,6.622,0,0,1,20.051,15.164Zm.82-7.016a1.462,1.462,0,0,0-1.109.473,2.765,2.765,0,0,0-.641,1.246l.016.047H21.9l.031-.172a1.857,1.857,0,0,0-.141-1.176A.973.973,0,0,0,20.871,8.148Zm9.242.359-.828-.023a1.642,1.642,0,0,0-.863.219,1.722,1.722,0,0,0-.6.617L27,15H24.73l1.227-8.453h2.117L28,7.789a3.168,3.168,0,0,1,.914-1.035,1.971,1.971,0,0,1,1.148-.363,1.659,1.659,0,0,1,.309.027q.145.027.285.066Zm4.039,3.344.031.773.047.008.273-.781,2.164-5.3h2.383L34.949,15H32.77L31.121,6.547H33.5ZM41.215,15H38.934L40.7,2.813H42.98Zm5.563.164A3.361,3.361,0,0,1,43.984,14a3.71,3.71,0,0,1-.668-2.98l.047-.312a5.35,5.35,0,0,1,1.48-3.129,4.072,4.072,0,0,1,3.012-1.184,2.829,2.829,0,0,1,2.438,1.047,3.7,3.7,0,0,1,.523,2.8l-.172,1.18H45.6l-.016.039a1.957,1.957,0,0,0,.32,1.418,1.6,1.6,0,0,0,1.359.535,4.993,4.993,0,0,0,1.266-.141,9.4,9.4,0,0,0,1.2-.422l.352,1.438a5.365,5.365,0,0,1-1.418.617A6.622,6.622,0,0,1,46.777,15.164Zm.82-7.016a1.462,1.462,0,0,0-1.109.473,2.765,2.765,0,0,0-.641,1.246l.016.047h2.766l.031-.172a1.857,1.857,0,0,0-.141-1.176A.973.973,0,0,0,47.6,8.148Zm8.078-3.672-.3,2.07H56.8l-.234,1.6H55.145l-.625,4.3a.887.887,0,0,0,.1.711.65.65,0,0,0,.52.2,2.284,2.284,0,0,0,.313-.02,2.514,2.514,0,0,0,.313-.066l-.047,1.648a5.04,5.04,0,0,1-.7.176,4.184,4.184,0,0,1-.719.059,2.116,2.116,0,0,1-1.711-.656,2.538,2.538,0,0,1-.352-2.047l.625-4.312H51.629l.234-1.6H53.09l.3-2.07Z" transform="translate(-3734 -9947)" fill="#12263f"/>
        <path id="Trazado_880526" data-name="Trazado 880526" d="M6.3,3.625a4.059,4.059,0,0,1,3.211,1.34,4.041,4.041,0,0,1,.883,3.41l-.273,1.883A5.363,5.363,0,0,1,8.277,13.7,5.42,5.42,0,0,1,4.652,15H.676L2.324,3.625ZM4.355,5.383,3.215,13.25H4.9a2.6,2.6,0,0,0,1.918-.844,3.785,3.785,0,0,0,1.02-2.148l.273-1.9a2.963,2.963,0,0,0-.379-2.152,1.917,1.917,0,0,0-1.691-.824ZM16,15a2.968,2.968,0,0,1-.105-.582,5.226,5.226,0,0,1-.012-.676,3.9,3.9,0,0,1-1.078,1.02,2.608,2.608,0,0,1-1.43.4,2.5,2.5,0,0,1-1.93-.687,2.165,2.165,0,0,1-.469-1.859,2.655,2.655,0,0,1,1.238-1.937,5.344,5.344,0,0,1,2.895-.672h1.273l.1-.672a1.2,1.2,0,0,0-.184-.953,1.106,1.106,0,0,0-.9-.328,1.421,1.421,0,0,0-.891.27,1.068,1.068,0,0,0-.414.738H11.9l-.008-.047a2.552,2.552,0,0,1,1.2-1.863,4.6,4.6,0,0,1,2.7-.762,3.341,3.341,0,0,1,2.332.77,2.327,2.327,0,0,1,.645,2.191l-.508,3.492a5.949,5.949,0,0,0-.074,1.125A5.6,5.6,0,0,0,18.324,15Zm-1.82-1.523a2.178,2.178,0,0,0,1.1-.3,1.969,1.969,0,0,0,.75-.691l.172-1.187H14.926a1.723,1.723,0,0,0-1.145.363,1.361,1.361,0,0,0-.5.879.76.76,0,0,0,.172.688A.979.979,0,0,0,14.184,13.477Zm9.7-9-.3,2.07H25l-.234,1.6H23.348l-.625,4.3a.887.887,0,0,0,.1.711.65.65,0,0,0,.52.2,2.284,2.284,0,0,0,.313-.02,2.514,2.514,0,0,0,.313-.066l-.047,1.648a5.04,5.04,0,0,1-.7.176,4.184,4.184,0,0,1-.719.059,2.116,2.116,0,0,1-1.711-.656,2.538,2.538,0,0,1-.352-2.047l.625-4.312H19.832l.234-1.6h1.227l.3-2.07ZM30.09,15a2.968,2.968,0,0,1-.105-.582,5.226,5.226,0,0,1-.012-.676,3.9,3.9,0,0,1-1.078,1.02,2.608,2.608,0,0,1-1.43.4,2.5,2.5,0,0,1-1.93-.687,2.165,2.165,0,0,1-.469-1.859A2.655,2.655,0,0,1,26.3,10.68a5.344,5.344,0,0,1,2.895-.672h1.273l.1-.672a1.2,1.2,0,0,0-.184-.953,1.106,1.106,0,0,0-.9-.328,1.421,1.421,0,0,0-.891.27,1.068,1.068,0,0,0-.414.738h-2.2l-.008-.047a2.552,2.552,0,0,1,1.2-1.863,4.6,4.6,0,0,1,2.7-.762,3.341,3.341,0,0,1,2.332.77,2.327,2.327,0,0,1,.645,2.191l-.508,3.492a5.949,5.949,0,0,0-.074,1.125A5.6,5.6,0,0,0,32.41,15Zm-1.82-1.523a2.178,2.178,0,0,0,1.1-.3,1.969,1.969,0,0,0,.75-.691l.172-1.187H29.012a1.723,1.723,0,0,0-1.145.363,1.361,1.361,0,0,0-.5.879.76.76,0,0,0,.172.688A.979.979,0,0,0,28.27,13.477Zm13.68-2.469a5.661,5.661,0,0,1-1.281,3.043,3.333,3.333,0,0,1-2.6,1.113,2.268,2.268,0,0,1-1.234-.32,2.209,2.209,0,0,1-.8-.93L35.676,15h-1.93L35.512,2.813h2.273l-.672,4.633a3.349,3.349,0,0,1,1-.781,2.669,2.669,0,0,1,1.211-.273,2.38,2.38,0,0,1,2.254,1.223,5.077,5.077,0,0,1,.395,3.23Zm-2.25-.164a4.213,4.213,0,0,0-.078-1.969,1.075,1.075,0,0,0-1.133-.711,1.814,1.814,0,0,0-.918.23,2.063,2.063,0,0,0-.684.645L36.371,12.6a1.116,1.116,0,0,0,.492.59,1.744,1.744,0,0,0,.883.2,1.518,1.518,0,0,0,1.313-.629,3.969,3.969,0,0,0,.617-1.754ZM47.715,15a2.968,2.968,0,0,1-.105-.582,5.226,5.226,0,0,1-.012-.676,3.9,3.9,0,0,1-1.078,1.02,2.608,2.608,0,0,1-1.43.4,2.5,2.5,0,0,1-1.93-.687,2.165,2.165,0,0,1-.469-1.859A2.655,2.655,0,0,1,43.93,10.68a5.344,5.344,0,0,1,2.895-.672H48.1l.1-.672a1.2,1.2,0,0,0-.184-.953,1.106,1.106,0,0,0-.9-.328,1.421,1.421,0,0,0-.891.27,1.068,1.068,0,0,0-.414.738h-2.2l-.008-.047a2.552,2.552,0,0,1,1.2-1.863,4.6,4.6,0,0,1,2.7-.762,3.341,3.341,0,0,1,2.332.77,2.327,2.327,0,0,1,.645,2.191l-.508,3.492a5.949,5.949,0,0,0-.074,1.125A5.6,5.6,0,0,0,50.035,15Zm-1.82-1.523a2.178,2.178,0,0,0,1.1-.3,1.969,1.969,0,0,0,.75-.691l.172-1.187H46.637a1.723,1.723,0,0,0-1.145.363,1.361,1.361,0,0,0-.5.879.76.76,0,0,0,.172.688A.979.979,0,0,0,45.895,13.477Zm10.414-.82a.665.665,0,0,0-.27-.645,3.385,3.385,0,0,0-1.285-.473,4.649,4.649,0,0,1-2.125-.9,1.721,1.721,0,0,1-.547-1.633,2.747,2.747,0,0,1,1.18-1.863,4.2,4.2,0,0,1,2.563-.754,3.565,3.565,0,0,1,2.441.77,1.95,1.95,0,0,1,.676,1.9l-.016.047h-2.2a1.018,1.018,0,0,0-.215-.832,1.143,1.143,0,0,0-.9-.316,1.458,1.458,0,0,0-.9.273.994.994,0,0,0-.418.672.658.658,0,0,0,.242.641,3.3,3.3,0,0,0,1.289.438A4.721,4.721,0,0,1,58,10.9a1.784,1.784,0,0,1,.535,1.668A2.67,2.67,0,0,1,57.3,14.449a4.719,4.719,0,0,1-2.684.715,3.458,3.458,0,0,1-2.527-.863,2.086,2.086,0,0,1-.684-1.941l.023-.047h2.086a1.041,1.041,0,0,0,.309.984,1.648,1.648,0,0,0,1.059.3,1.741,1.741,0,0,0,.992-.254A.969.969,0,0,0,56.309,12.656Zm7,2.508A3.361,3.361,0,0,1,60.516,14a3.71,3.71,0,0,1-.668-2.98l.047-.312a5.35,5.35,0,0,1,1.48-3.129,4.072,4.072,0,0,1,3.012-1.184,2.829,2.829,0,0,1,2.438,1.047,3.7,3.7,0,0,1,.523,2.8l-.172,1.18H62.129l-.016.039a1.957,1.957,0,0,0,.32,1.418,1.6,1.6,0,0,0,1.359.535,4.993,4.993,0,0,0,1.266-.141,9.4,9.4,0,0,0,1.2-.422l.352,1.438a5.365,5.365,0,0,1-1.418.617A6.622,6.622,0,0,1,63.309,15.164Zm.82-7.016a1.462,1.462,0,0,0-1.109.473,2.765,2.765,0,0,0-.641,1.246l.016.047H65.16l.031-.172a1.857,1.857,0,0,0-.141-1.176A.973.973,0,0,0,64.129,8.148Z" transform="translate(-3554 -9896)" fill="#12263f"/>
        <path id="Trazado_880525" data-name="Trazado 880525" d="M7.191,3.625H9.465L8.324,11.477a4.167,4.167,0,0,1-1.418,2.707,4.225,4.225,0,0,1-2.809.98,3.78,3.78,0,0,1-2.707-.895,2.742,2.742,0,0,1-.668-2.582l.023-.047H2.965a1.6,1.6,0,0,0,.242,1.352,1.463,1.463,0,0,0,1.141.422,1.448,1.448,0,0,0,1.09-.523,2.6,2.6,0,0,0,.613-1.414ZM9.879,15,11.527,3.625h3.727a4.87,4.87,0,0,1,3,.789,2.289,2.289,0,0,1,.8,2.328,2.876,2.876,0,0,1-.605,1.406,3,3,0,0,1-1.316.922,2.036,2.036,0,0,1,1.457.93,2.554,2.554,0,0,1,.293,1.688,3.475,3.475,0,0,1-1.43,2.488,5.482,5.482,0,0,1-3.18.824Zm3.008-5.031L12.41,13.25h2.117a2.35,2.35,0,0,0,1.43-.4,1.7,1.7,0,0,0,.656-1.164,1.489,1.489,0,0,0-.277-1.281,1.764,1.764,0,0,0-1.348-.437Zm.227-1.578h1.531a2.514,2.514,0,0,0,1.445-.379,1.541,1.541,0,0,0,.664-1.09,1.217,1.217,0,0,0-.328-1.172A2.221,2.221,0,0,0,15,5.383H13.551ZM25.691,3.625A4.059,4.059,0,0,1,28.9,4.965a4.041,4.041,0,0,1,.883,3.41l-.273,1.883A5.363,5.363,0,0,1,27.668,13.7,5.42,5.42,0,0,1,24.043,15H20.066L21.715,3.625ZM23.746,5.383,22.605,13.25h1.688a2.6,2.6,0,0,0,1.918-.844,3.785,3.785,0,0,0,1.02-2.148l.273-1.9a2.963,2.963,0,0,0-.379-2.152,1.917,1.917,0,0,0-1.691-.824Zm15.977,5.852.016.047a4.147,4.147,0,0,1-1.516,2.871,5.172,5.172,0,0,1-3.3,1.012,3.776,3.776,0,0,1-3.09-1.324,4.154,4.154,0,0,1-.785-3.395l.32-2.258a5.57,5.57,0,0,1,1.715-3.426,4.86,4.86,0,0,1,3.418-1.3,4.231,4.231,0,0,1,3.078,1.023,3.064,3.064,0,0,1,.75,2.852l-.023.047H38.082A2.056,2.056,0,0,0,37.8,5.742a1.942,1.942,0,0,0-1.551-.523,2.177,2.177,0,0,0-1.711.832,4.044,4.044,0,0,0-.891,2.121l-.328,2.273A3.21,3.21,0,0,0,33.6,12.6a1.686,1.686,0,0,0,1.57.816,2.278,2.278,0,0,0,1.6-.539,2.678,2.678,0,0,0,.754-1.641Z" transform="translate(-3628 -9949)" fill="#12263f"/>
        <path id="Trazado_880520" data-name="Trazado 880520" d="M.406,15,2.055,3.625H5.781a4.87,4.87,0,0,1,3,.789,2.289,2.289,0,0,1,.8,2.328A2.876,2.876,0,0,1,8.98,8.148a3,3,0,0,1-1.316.922A2.036,2.036,0,0,1,9.121,10a2.554,2.554,0,0,1,.293,1.688,3.475,3.475,0,0,1-1.43,2.488A5.482,5.482,0,0,1,4.8,15ZM3.414,9.969,2.938,13.25H5.055a2.35,2.35,0,0,0,1.43-.4,1.7,1.7,0,0,0,.656-1.164,1.489,1.489,0,0,0-.277-1.281,1.764,1.764,0,0,0-1.348-.437Zm.227-1.578H5.172a2.514,2.514,0,0,0,1.445-.379,1.541,1.541,0,0,0,.664-1.09A1.217,1.217,0,0,0,6.953,5.75a2.221,2.221,0,0,0-1.43-.367H4.078Zm12.188.117L15,8.484a1.642,1.642,0,0,0-.863.219,1.722,1.722,0,0,0-.6.617L12.719,15H10.445l1.227-8.453h2.117l-.078,1.242a3.168,3.168,0,0,1,.914-1.035,1.971,1.971,0,0,1,1.148-.363,1.659,1.659,0,0,1,.309.027q.145.027.285.066Zm.211,2.188a5.257,5.257,0,0,1,1.5-3.117,4.264,4.264,0,0,1,3.1-1.187A3.2,3.2,0,0,1,23.375,7.6a4.032,4.032,0,0,1,.641,3.094l-.023.164a5.283,5.283,0,0,1-1.508,3.125,4.277,4.277,0,0,1-3.1,1.18,3.209,3.209,0,0,1-2.742-1.207,3.989,3.989,0,0,1-.625-3.1Zm2.25.164a3.448,3.448,0,0,0,.133,1.867,1.191,1.191,0,0,0,1.211.688,1.649,1.649,0,0,0,1.387-.707,4,4,0,0,0,.691-1.848l.023-.164a3.415,3.415,0,0,0-.145-1.848,1.19,1.19,0,0,0-1.207-.7A1.641,1.641,0,0,0,19,8.867a3.979,3.979,0,0,0-.684,1.828Zm14.172.984h.047l1.789-5.3h2.219L33.141,15H31.234l-.859-4.867-.047-.008L28.047,15h-1.9l-.922-8.453h2.219l.266,5.273.047.008,2.352-5.281h1.523Zm8.9.813a.665.665,0,0,0-.27-.645,3.385,3.385,0,0,0-1.285-.473,4.649,4.649,0,0,1-2.125-.9,1.721,1.721,0,0,1-.547-1.633,2.747,2.747,0,0,1,1.18-1.863,4.2,4.2,0,0,1,2.563-.754,3.565,3.565,0,0,1,2.441.77,1.95,1.95,0,0,1,.676,1.9l-.016.047h-2.2a1.018,1.018,0,0,0-.215-.832,1.143,1.143,0,0,0-.9-.316,1.458,1.458,0,0,0-.9.273.994.994,0,0,0-.418.672.658.658,0,0,0,.242.641,3.3,3.3,0,0,0,1.289.438,4.721,4.721,0,0,1,2.184.918,1.784,1.784,0,0,1,.535,1.668,2.67,2.67,0,0,1-1.238,1.879,4.719,4.719,0,0,1-2.684.715,3.458,3.458,0,0,1-2.527-.863,2.086,2.086,0,0,1-.684-1.941l.023-.047h2.086a1.041,1.041,0,0,0,.309.984,1.648,1.648,0,0,0,1.059.3,1.741,1.741,0,0,0,.992-.254A.969.969,0,0,0,41.359,12.656Zm7,2.508A3.361,3.361,0,0,1,45.566,14a3.71,3.71,0,0,1-.668-2.98l.047-.312a5.35,5.35,0,0,1,1.48-3.129,4.072,4.072,0,0,1,3.012-1.184,2.829,2.829,0,0,1,2.438,1.047,3.7,3.7,0,0,1,.523,2.8l-.172,1.18H47.18l-.016.039a1.957,1.957,0,0,0,.32,1.418,1.6,1.6,0,0,0,1.359.535,4.993,4.993,0,0,0,1.266-.141,9.4,9.4,0,0,0,1.2-.422l.352,1.438a5.365,5.365,0,0,1-1.418.617A6.622,6.622,0,0,1,48.359,15.164Zm.82-7.016a1.462,1.462,0,0,0-1.109.473,2.765,2.765,0,0,0-.641,1.246l.016.047h2.766l.031-.172A1.857,1.857,0,0,0,50.1,8.566.973.973,0,0,0,49.18,8.148Zm9.242.359-.828-.023a1.642,1.642,0,0,0-.863.219,1.722,1.722,0,0,0-.6.617L55.313,15H53.039l1.227-8.453h2.117L56.3,7.789a3.168,3.168,0,0,1,.914-1.035,1.971,1.971,0,0,1,1.148-.363,1.659,1.659,0,0,1,.309.027q.145.027.285.066Z" transform="translate(-3930 -9860)" fill="#12263f"/>
        <path id="Trazado_880523" data-name="Trazado 880523" d="M3.352,10.453,2.7,15H.406L2.055,3.625H6.031a4.193,4.193,0,0,1,2.891.891A2.622,2.622,0,0,1,9.7,6.984,2.9,2.9,0,0,1,9.008,8.52a3.971,3.971,0,0,1-1.516,1.02,2.071,2.071,0,0,1,1.3,1A2.827,2.827,0,0,1,9,12.234l-.117.836a4,4,0,0,0-.016,1,1.164,1.164,0,0,0,.328.766L9.172,15H6.82a1.082,1.082,0,0,1-.281-.816,7.448,7.448,0,0,1,.07-1.129l.117-.8a1.616,1.616,0,0,0-.273-1.332,1.559,1.559,0,0,0-1.25-.465ZM3.6,8.7H5.258a2.4,2.4,0,0,0,1.48-.41,1.752,1.752,0,0,0,.66-1.2,1.492,1.492,0,0,0-.293-1.25,1.7,1.7,0,0,0-1.332-.453H4.086ZM14,15.164A3.361,3.361,0,0,1,11.207,14a3.71,3.71,0,0,1-.668-2.98l.047-.312a5.35,5.35,0,0,1,1.48-3.129,4.072,4.072,0,0,1,3.012-1.184,2.829,2.829,0,0,1,2.438,1.047,3.7,3.7,0,0,1,.523,2.8l-.172,1.18H12.82l-.016.039a1.957,1.957,0,0,0,.32,1.418,1.6,1.6,0,0,0,1.359.535,4.993,4.993,0,0,0,1.266-.141,9.4,9.4,0,0,0,1.2-.422l.352,1.438a5.365,5.365,0,0,1-1.418.617A6.622,6.622,0,0,1,14,15.164Zm.82-7.016a1.462,1.462,0,0,0-1.109.473,2.765,2.765,0,0,0-.641,1.246l.016.047h2.766l.031-.172a1.857,1.857,0,0,0-.141-1.176A.973.973,0,0,0,14.82,8.148Zm8.8,4.508a.665.665,0,0,0-.27-.645,3.385,3.385,0,0,0-1.285-.473,4.649,4.649,0,0,1-2.125-.9,1.721,1.721,0,0,1-.547-1.633,2.747,2.747,0,0,1,1.18-1.863,4.2,4.2,0,0,1,2.563-.754,3.565,3.565,0,0,1,2.441.77,1.95,1.95,0,0,1,.676,1.9l-.016.047h-2.2a1.018,1.018,0,0,0-.215-.832,1.143,1.143,0,0,0-.9-.316,1.458,1.458,0,0,0-.9.273.994.994,0,0,0-.418.672.658.658,0,0,0,.242.641,3.3,3.3,0,0,0,1.289.438,4.721,4.721,0,0,1,2.184.918,1.784,1.784,0,0,1,.535,1.668,2.67,2.67,0,0,1-1.238,1.879,4.719,4.719,0,0,1-2.684.715,3.458,3.458,0,0,1-2.527-.863,2.086,2.086,0,0,1-.684-1.941l.023-.047H20.82a1.041,1.041,0,0,0,.309.984,1.648,1.648,0,0,0,1.059.3,1.741,1.741,0,0,0,.992-.254A.969.969,0,0,0,23.617,12.656Zm8.672,1.117A3.447,3.447,0,0,1,31.148,14.8a2.975,2.975,0,0,1-1.453.359,2.219,2.219,0,0,1-1.945-.91,3.9,3.9,0,0,1-.359-2.809l.711-4.9h2.273l-.711,4.914a2.546,2.546,0,0,0,.07,1.531.948.948,0,0,0,.883.4,2.366,2.366,0,0,0,.953-.184,1.982,1.982,0,0,0,.719-.527l.9-6.133h2.281L34.242,15H32.352ZM38.359,15H36.078L37.844,2.813h2.281ZM44.453,4.477l-.3,2.07h1.43l-.234,1.6H43.922l-.625,4.3a.887.887,0,0,0,.1.711.65.65,0,0,0,.52.2,2.284,2.284,0,0,0,.313-.02,2.514,2.514,0,0,0,.313-.066l-.047,1.648a5.04,5.04,0,0,1-.7.176,4.184,4.184,0,0,1-.719.059,2.116,2.116,0,0,1-1.711-.656,2.538,2.538,0,0,1-.352-2.047l.625-4.312H40.406l.234-1.6h1.227l.3-2.07ZM.406,32,2.055,20.625H5.781a4.87,4.87,0,0,1,3,.789,2.289,2.289,0,0,1,.8,2.328,2.876,2.876,0,0,1-.605,1.406,3,3,0,0,1-1.316.922A2.036,2.036,0,0,1,9.121,27a2.554,2.554,0,0,1,.293,1.688,3.475,3.475,0,0,1-1.43,2.488A5.482,5.482,0,0,1,4.8,32Zm3.008-5.031L2.938,30.25H5.055a2.35,2.35,0,0,0,1.43-.4,1.7,1.7,0,0,0,.656-1.164,1.489,1.489,0,0,0-.277-1.281,1.764,1.764,0,0,0-1.348-.437Zm.227-1.578H5.172a2.514,2.514,0,0,0,1.445-.379,1.541,1.541,0,0,0,.664-1.09,1.217,1.217,0,0,0-.328-1.172,2.221,2.221,0,0,0-1.43-.367H4.078Zm10.477,6.773A3.361,3.361,0,0,1,11.324,31a3.71,3.71,0,0,1-.668-2.98L10.7,27.7a5.35,5.35,0,0,1,1.48-3.129A4.072,4.072,0,0,1,15.2,23.391a2.829,2.829,0,0,1,2.438,1.047,3.7,3.7,0,0,1,.523,2.8l-.172,1.18H12.938l-.016.039a1.957,1.957,0,0,0,.32,1.418,1.6,1.6,0,0,0,1.359.535,4.993,4.993,0,0,0,1.266-.141,9.4,9.4,0,0,0,1.2-.422l.352,1.438A5.365,5.365,0,0,1,16,31.906,6.622,6.622,0,0,1,14.117,32.164Zm.82-7.016a1.462,1.462,0,0,0-1.109.473,2.765,2.765,0,0,0-.641,1.246l.016.047h2.766L16,26.742a1.857,1.857,0,0,0-.141-1.176A.973.973,0,0,0,14.938,25.148ZM23.734,32a2.968,2.968,0,0,1-.105-.582,5.226,5.226,0,0,1-.012-.676,3.9,3.9,0,0,1-1.078,1.02,2.608,2.608,0,0,1-1.43.4,2.5,2.5,0,0,1-1.93-.687,2.165,2.165,0,0,1-.469-1.859,2.655,2.655,0,0,1,1.238-1.937,5.344,5.344,0,0,1,2.895-.672h1.273l.1-.672a1.2,1.2,0,0,0-.184-.953,1.106,1.106,0,0,0-.9-.328,1.421,1.421,0,0,0-.891.27,1.068,1.068,0,0,0-.414.738h-2.2l-.008-.047a2.552,2.552,0,0,1,1.2-1.863,4.6,4.6,0,0,1,2.7-.762,3.341,3.341,0,0,1,2.332.77,2.327,2.327,0,0,1,.645,2.191l-.508,3.492a5.949,5.949,0,0,0-.074,1.125A5.6,5.6,0,0,0,26.055,32Zm-1.82-1.523a2.178,2.178,0,0,0,1.1-.3,1.969,1.969,0,0,0,.75-.691l.172-1.187H22.656a1.723,1.723,0,0,0-1.145.363,1.361,1.361,0,0,0-.5.879.76.76,0,0,0,.172.688A.979.979,0,0,0,21.914,30.477Zm8.719-5.742a3.689,3.689,0,0,1,1.176-.992,3.048,3.048,0,0,1,1.441-.352,2.151,2.151,0,0,1,1.863.832,3.572,3.572,0,0,1,.355,2.6L34.719,32H32.43l.75-5.172a1.9,1.9,0,0,0-.125-1.3,1.022,1.022,0,0,0-.9-.367,2.122,2.122,0,0,0-1.641.742L29.633,32H27.352l1.227-8.453H30.7Z" transform="translate(-3676 -9870)" fill="#12263f"/>
        <path id="Trazado_880519" data-name="Trazado 880519" d="M5.352,10.4H2.727L1.93,15H.453L2.43,3.625l3.563.008a4.876,4.876,0,0,1,1.434.23A3.017,3.017,0,0,1,8.535,4.5a2.58,2.58,0,0,1,.684,1.039,3.3,3.3,0,0,1,.148,1.449A3.2,3.2,0,0,1,9.1,8.055a3.433,3.433,0,0,1-.566.875,3.856,3.856,0,0,1-.8.684,4.825,4.825,0,0,1-.98.48l1.766,4.8-.008.1H6.945ZM2.938,9.172l2.156.008a3.487,3.487,0,0,0,.992-.141,2.755,2.755,0,0,0,.855-.418,2.422,2.422,0,0,0,.633-.687A2.36,2.36,0,0,0,7.9,6.984a2.291,2.291,0,0,0-.047-.9,1.527,1.527,0,0,0-.363-.656,1.645,1.645,0,0,0-.645-.406,2.867,2.867,0,0,0-.883-.156L3.688,4.859Zm10.445,5.984a3.229,3.229,0,0,1-1.5-.355,2.9,2.9,0,0,1-1.02-.9,3.588,3.588,0,0,1-.551-1.289,4.959,4.959,0,0,1-.09-1.516l.039-.336A5.9,5.9,0,0,1,10.5,9.68a5.8,5.8,0,0,1,.434-1.031,5.01,5.01,0,0,1,.629-.91,4.188,4.188,0,0,1,.813-.723,3.766,3.766,0,0,1,.977-.473,3.4,3.4,0,0,1,1.129-.152,2.832,2.832,0,0,1,1.453.387,2.593,2.593,0,0,1,.9.945,3.62,3.62,0,0,1,.418,1.316,5.789,5.789,0,0,1-.008,1.5l-.094.648H11.633a3.463,3.463,0,0,0,0,.984,2.508,2.508,0,0,0,.293.887,1.849,1.849,0,0,0,.613.648,1.821,1.821,0,0,0,.961.27,2.5,2.5,0,0,0,1.289-.3,4.153,4.153,0,0,0,1.039-.824l.813.688A3.649,3.649,0,0,1,16,14.25a3.82,3.82,0,0,1-.777.512,3.689,3.689,0,0,1-.883.3A4.308,4.308,0,0,1,13.383,15.156ZM14.4,7.57a1.907,1.907,0,0,0-.957.188,2.521,2.521,0,0,0-.734.559,3.623,3.623,0,0,0-.543.789,6.152,6.152,0,0,0-.375.895l4.109.016.031-.141a2.888,2.888,0,0,0,.008-.82,1.968,1.968,0,0,0-.242-.73,1.548,1.548,0,0,0-.508-.531A1.521,1.521,0,0,0,14.4,7.57Zm4.18,3.18a7.082,7.082,0,0,1,.211-1.066,6.4,6.4,0,0,1,.379-1.023,5.24,5.24,0,0,1,.547-.91,3.644,3.644,0,0,1,.727-.73,3.246,3.246,0,0,1,.918-.48,3.207,3.207,0,0,1,1.117-.156,3.248,3.248,0,0,1,1.219.258,2.382,2.382,0,0,1,.961.766l.258-.859h1.3l-2.031,11.7H22.781l.766-4.031a3.479,3.479,0,0,1-1.082.711,3.139,3.139,0,0,1-1.277.227,2.5,2.5,0,0,1-.992-.2,2.36,2.36,0,0,1-.738-.508,2.737,2.737,0,0,1-.508-.73,4.109,4.109,0,0,1-.3-.883,5.319,5.319,0,0,1-.125-.957,6.132,6.132,0,0,1,.035-.957Zm1.4.172q-.031.312-.039.656a4.217,4.217,0,0,0,.039.68,3.472,3.472,0,0,0,.152.645,1.738,1.738,0,0,0,.3.543,1.5,1.5,0,0,0,.477.383,1.548,1.548,0,0,0,.691.156,2.175,2.175,0,0,0,.633-.074,2.349,2.349,0,0,0,.559-.234,2.856,2.856,0,0,0,.492-.363,3.934,3.934,0,0,0,.434-.469l.734-4.156a1.993,1.993,0,0,0-.676-.812,1.849,1.849,0,0,0-1.012-.3,2.105,2.105,0,0,0-1.141.27,2.683,2.683,0,0,0-.82.75,3.827,3.827,0,0,0-.527,1.039A6.386,6.386,0,0,0,20,10.758Zm12.375,3.242a3.125,3.125,0,0,1-1.152.77,3.655,3.655,0,0,1-1.371.223,2.388,2.388,0,0,1-1.145-.277,1.96,1.96,0,0,1-.719-.7,2.644,2.644,0,0,1-.344-1,4.8,4.8,0,0,1-.02-1.18l.906-5.461h1.414l-.914,5.484a3.68,3.68,0,0,0-.016.676,1.668,1.668,0,0,0,.148.6,1.106,1.106,0,0,0,.367.438,1.181,1.181,0,0,0,.648.188,2.654,2.654,0,0,0,1.348-.289,2.689,2.689,0,0,0,1-.937l1.063-6.156h1.414L33.508,15H32.172Zm6.859.992a3.229,3.229,0,0,1-1.5-.355,2.9,2.9,0,0,1-1.02-.9,3.588,3.588,0,0,1-.551-1.289,4.959,4.959,0,0,1-.09-1.516l.039-.336a5.9,5.9,0,0,1,.23-1.078,5.8,5.8,0,0,1,.434-1.031,5.009,5.009,0,0,1,.629-.91,4.188,4.188,0,0,1,.813-.723,3.766,3.766,0,0,1,.977-.473A3.4,3.4,0,0,1,40.3,6.391a2.832,2.832,0,0,1,1.453.387,2.593,2.593,0,0,1,.9.945,3.62,3.62,0,0,1,.418,1.316,5.789,5.789,0,0,1-.008,1.5l-.094.648H37.461a3.463,3.463,0,0,0,0,.984,2.508,2.508,0,0,0,.293.887,1.849,1.849,0,0,0,.613.648,1.821,1.821,0,0,0,.961.27,2.5,2.5,0,0,0,1.289-.3,4.153,4.153,0,0,0,1.039-.824l.813.688a3.649,3.649,0,0,1-.641.711,3.82,3.82,0,0,1-.777.512,3.689,3.689,0,0,1-.883.3A4.308,4.308,0,0,1,39.211,15.156ZM40.227,7.57a1.907,1.907,0,0,0-.957.188,2.521,2.521,0,0,0-.734.559,3.623,3.623,0,0,0-.543.789,6.151,6.151,0,0,0-.375.895l4.109.016.031-.141a2.888,2.888,0,0,0,.008-.82,1.968,1.968,0,0,0-.242-.73,1.548,1.548,0,0,0-.508-.531A1.521,1.521,0,0,0,40.227,7.57Zm8.992,5.141a.953.953,0,0,0-.086-.6,1.14,1.14,0,0,0-.375-.4,2.124,2.124,0,0,0-.543-.254q-.3-.094-.582-.164-.469-.117-.949-.289a3.592,3.592,0,0,1-.863-.441A2.129,2.129,0,0,1,45.2,9.9a1.752,1.752,0,0,1-.211-.977,2.212,2.212,0,0,1,.336-1.1,2.75,2.75,0,0,1,.773-.8,3.5,3.5,0,0,1,1.043-.48,4.007,4.007,0,0,1,1.137-.152,3.6,3.6,0,0,1,1.121.188,2.716,2.716,0,0,1,.918.52,2.363,2.363,0,0,1,.609.828,2.538,2.538,0,0,1,.2,1.113l-1.406-.008a1.453,1.453,0,0,0-.1-.594,1.262,1.262,0,0,0-.312-.453,1.418,1.418,0,0,0-.48-.289,1.88,1.88,0,0,0-.605-.109,2.355,2.355,0,0,0-.613.066,1.913,1.913,0,0,0-.566.234,1.524,1.524,0,0,0-.434.4,1.264,1.264,0,0,0-.223.578.808.808,0,0,0,.031.395.846.846,0,0,0,.188.3,1.106,1.106,0,0,0,.293.215,2.81,2.81,0,0,0,.359.152q.191.066.383.113t.355.094a9.008,9.008,0,0,1,.965.309,3.567,3.567,0,0,1,.863.469,2.12,2.12,0,0,1,.605.7,1.85,1.85,0,0,1,.191,1,2.332,2.332,0,0,1-.355,1.152,2.712,2.712,0,0,1-.8.8,3.508,3.508,0,0,1-1.082.465,4.439,4.439,0,0,1-1.191.133,3.824,3.824,0,0,1-1.176-.2,3.058,3.058,0,0,1-.984-.539,2.457,2.457,0,0,1-.9-2.031l1.414.008a1.664,1.664,0,0,0,.129.676,1.415,1.415,0,0,0,.352.492,1.479,1.479,0,0,0,.531.3,2.178,2.178,0,0,0,.684.1,2.863,2.863,0,0,0,.641-.059,2.257,2.257,0,0,0,.609-.215,1.556,1.556,0,0,0,.48-.391A1.153,1.153,0,0,0,49.219,12.711ZM55.813,4.5l-.359,2.047h1.539l-.2,1.117H55.266l-.883,5.258a1.868,1.868,0,0,0-.008.379.839.839,0,0,0,.086.313.508.508,0,0,0,.211.215.753.753,0,0,0,.367.078,2.541,2.541,0,0,0,.344-.023q.172-.023.344-.055l-.109,1.18a3.847,3.847,0,0,1-1.031.141,1.621,1.621,0,0,1-.809-.2,1.438,1.438,0,0,1-.512-.5,1.959,1.959,0,0,1-.25-.715,3.4,3.4,0,0,1-.023-.832l.859-5.234H52.359l.2-1.117h1.492L54.406,4.5Z" transform="translate(-3847 -9963)" fill="#12263f"/>
        <path id="Trazado_880521" data-name="Trazado 880521" d="M5.352,10.4H2.727L1.93,15H.453L2.43,3.625l3.563.008a4.876,4.876,0,0,1,1.434.23A3.017,3.017,0,0,1,8.535,4.5a2.58,2.58,0,0,1,.684,1.039,3.3,3.3,0,0,1,.148,1.449A3.2,3.2,0,0,1,9.1,8.055a3.433,3.433,0,0,1-.566.875,3.856,3.856,0,0,1-.8.684,4.825,4.825,0,0,1-.98.48l1.766,4.8-.008.1H6.945ZM2.938,9.172l2.156.008a3.487,3.487,0,0,0,.992-.141,2.755,2.755,0,0,0,.855-.418,2.422,2.422,0,0,0,.633-.687A2.36,2.36,0,0,0,7.9,6.984a2.291,2.291,0,0,0-.047-.9,1.527,1.527,0,0,0-.363-.656,1.645,1.645,0,0,0-.645-.406,2.867,2.867,0,0,0-.883-.156L3.688,4.859Zm10.445,5.984a3.229,3.229,0,0,1-1.5-.355,2.9,2.9,0,0,1-1.02-.9,3.588,3.588,0,0,1-.551-1.289,4.959,4.959,0,0,1-.09-1.516l.039-.336A5.9,5.9,0,0,1,10.5,9.68a5.8,5.8,0,0,1,.434-1.031,5.01,5.01,0,0,1,.629-.91,4.188,4.188,0,0,1,.813-.723,3.766,3.766,0,0,1,.977-.473,3.4,3.4,0,0,1,1.129-.152,2.832,2.832,0,0,1,1.453.387,2.593,2.593,0,0,1,.9.945,3.62,3.62,0,0,1,.418,1.316,5.789,5.789,0,0,1-.008,1.5l-.094.648H11.633a3.463,3.463,0,0,0,0,.984,2.508,2.508,0,0,0,.293.887,1.849,1.849,0,0,0,.613.648,1.821,1.821,0,0,0,.961.27,2.5,2.5,0,0,0,1.289-.3,4.153,4.153,0,0,0,1.039-.824l.813.688A3.649,3.649,0,0,1,16,14.25a3.82,3.82,0,0,1-.777.512,3.689,3.689,0,0,1-.883.3A4.308,4.308,0,0,1,13.383,15.156ZM14.4,7.57a1.907,1.907,0,0,0-.957.188,2.521,2.521,0,0,0-.734.559,3.623,3.623,0,0,0-.543.789,6.152,6.152,0,0,0-.375.895l4.109.016.031-.141a2.888,2.888,0,0,0,.008-.82,1.968,1.968,0,0,0-.242-.73,1.548,1.548,0,0,0-.508-.531A1.521,1.521,0,0,0,14.4,7.57Zm8.992,5.141a.953.953,0,0,0-.086-.6,1.14,1.14,0,0,0-.375-.4,2.124,2.124,0,0,0-.543-.254q-.3-.094-.582-.164-.469-.117-.949-.289a3.592,3.592,0,0,1-.863-.441,2.129,2.129,0,0,1-.617-.668,1.752,1.752,0,0,1-.211-.977,2.212,2.212,0,0,1,.336-1.1,2.75,2.75,0,0,1,.773-.8,3.5,3.5,0,0,1,1.043-.48,4.007,4.007,0,0,1,1.137-.152,3.6,3.6,0,0,1,1.121.188,2.716,2.716,0,0,1,.918.52,2.363,2.363,0,0,1,.609.828,2.538,2.538,0,0,1,.2,1.113L23.9,9.031a1.453,1.453,0,0,0-.1-.594,1.262,1.262,0,0,0-.312-.453A1.418,1.418,0,0,0,23,7.7a1.88,1.88,0,0,0-.605-.109,2.355,2.355,0,0,0-.613.066,1.913,1.913,0,0,0-.566.234,1.524,1.524,0,0,0-.434.4,1.264,1.264,0,0,0-.223.578.808.808,0,0,0,.031.395.846.846,0,0,0,.188.3,1.106,1.106,0,0,0,.293.215,2.81,2.81,0,0,0,.359.152q.191.066.383.113t.355.094a9.008,9.008,0,0,1,.965.309A3.567,3.567,0,0,1,24,10.91a2.12,2.12,0,0,1,.605.7,1.85,1.85,0,0,1,.191,1,2.332,2.332,0,0,1-.355,1.152,2.712,2.712,0,0,1-.8.8,3.508,3.508,0,0,1-1.082.465,4.439,4.439,0,0,1-1.191.133,3.824,3.824,0,0,1-1.176-.2,3.057,3.057,0,0,1-.984-.539,2.457,2.457,0,0,1-.9-2.031l1.414.008a1.664,1.664,0,0,0,.129.676,1.415,1.415,0,0,0,.352.492,1.479,1.479,0,0,0,.531.3,2.178,2.178,0,0,0,.684.1,2.863,2.863,0,0,0,.641-.059,2.257,2.257,0,0,0,.609-.215,1.556,1.556,0,0,0,.48-.391A1.153,1.153,0,0,0,23.391,12.711Zm10.516-1.9a7.591,7.591,0,0,1-.2,1.043,6.447,6.447,0,0,1-.363,1.016,5.169,5.169,0,0,1-.531.91,3.66,3.66,0,0,1-.711.734,3.191,3.191,0,0,1-.9.488,3,3,0,0,1-1.09.16,3.586,3.586,0,0,1-1.246-.246,2.451,2.451,0,0,1-1-.746L27.1,18.25H25.688l2.031-11.7L29,6.539l-.156.945a3.519,3.519,0,0,1,1.129-.828,3.144,3.144,0,0,1,1.379-.266,2.668,2.668,0,0,1,1,.2,2.262,2.262,0,0,1,.734.5,2.558,2.558,0,0,1,.492.734,4.145,4.145,0,0,1,.281.887,5.583,5.583,0,0,1,.105.965,7.833,7.833,0,0,1-.035.965Zm-1.391-.164q.031-.312.035-.656a4.538,4.538,0,0,0-.043-.68,2.962,2.962,0,0,0-.16-.637,1.843,1.843,0,0,0-.309-.535,1.443,1.443,0,0,0-.484-.375,1.714,1.714,0,0,0-.687-.156,2.119,2.119,0,0,0-1.2.309,3.416,3.416,0,0,0-.914.855l-.711,4.055a1.866,1.866,0,0,0,.668.848,1.909,1.909,0,0,0,1.043.309,2.07,2.07,0,0,0,1.129-.27,2.719,2.719,0,0,0,.816-.746,3.78,3.78,0,0,0,.527-1.031,6.293,6.293,0,0,0,.27-1.125Zm2.906.1a6.158,6.158,0,0,1,.246-1.121,5.613,5.613,0,0,1,.449-1.039,4.91,4.91,0,0,1,.645-.9,4.089,4.089,0,0,1,.828-.7,3.871,3.871,0,0,1,1-.453,3.774,3.774,0,0,1,1.168-.145,3.129,3.129,0,0,1,1.523.395,2.969,2.969,0,0,1,1.016.969,3.81,3.81,0,0,1,.527,1.359,5.28,5.28,0,0,1,.059,1.559l-.016.18A5.871,5.871,0,0,1,42.41,12.5a4.987,4.987,0,0,1-.906,1.387,4.137,4.137,0,0,1-1.312.949,3.723,3.723,0,0,1-1.676.324A3.145,3.145,0,0,1,37,14.77a2.923,2.923,0,0,1-1.012-.957,3.823,3.823,0,0,1-.531-1.344,5.1,5.1,0,0,1-.062-1.547Zm1.4.172a5.253,5.253,0,0,0-.035.68,4.271,4.271,0,0,0,.063.688,2.994,2.994,0,0,0,.184.637,1.85,1.85,0,0,0,.332.531,1.563,1.563,0,0,0,.508.371,1.823,1.823,0,0,0,.707.156,2.162,2.162,0,0,0,1.148-.254,2.809,2.809,0,0,0,.855-.73,3.854,3.854,0,0,0,.57-1.02,5.193,5.193,0,0,0,.293-1.129l.023-.172A5.29,5.29,0,0,0,41.5,10a4.369,4.369,0,0,0-.062-.7,3.145,3.145,0,0,0-.184-.648,1.831,1.831,0,0,0-.336-.543,1.616,1.616,0,0,0-.516-.379,1.808,1.808,0,0,0-.711-.16,2.115,2.115,0,0,0-1.152.262,2.832,2.832,0,0,0-.848.746,3.928,3.928,0,0,0-.562,1.035,5.48,5.48,0,0,0-.289,1.137Zm9.953-4.383-.2,1.07a4.182,4.182,0,0,1,1.164-.9,2.93,2.93,0,0,1,1.43-.32,2.416,2.416,0,0,1,1.129.266A1.9,1.9,0,0,1,51,7.324a2.493,2.493,0,0,1,.336.973,4.809,4.809,0,0,1,.016,1.164L50.43,15H49.016l.93-5.562a2.968,2.968,0,0,0,.008-.711,1.462,1.462,0,0,0-.184-.574,1.034,1.034,0,0,0-.414-.391,1.517,1.517,0,0,0-.691-.152,2.044,2.044,0,0,0-.687.1,2.486,2.486,0,0,0-.6.289,2.908,2.908,0,0,0-.516.438,4.694,4.694,0,0,0-.434.535L45.383,15H43.969l1.469-8.453Zm11.055,6.172a.953.953,0,0,0-.086-.6,1.14,1.14,0,0,0-.375-.4,2.124,2.124,0,0,0-.543-.254q-.3-.094-.582-.164-.469-.117-.949-.289a3.592,3.592,0,0,1-.863-.441,2.129,2.129,0,0,1-.617-.668,1.752,1.752,0,0,1-.211-.977,2.212,2.212,0,0,1,.336-1.1,2.75,2.75,0,0,1,.773-.8,3.5,3.5,0,0,1,1.043-.48,4.007,4.007,0,0,1,1.137-.152,3.6,3.6,0,0,1,1.121.188,2.716,2.716,0,0,1,.918.52,2.363,2.363,0,0,1,.609.828,2.538,2.538,0,0,1,.2,1.113l-1.406-.008a1.453,1.453,0,0,0-.1-.594,1.262,1.262,0,0,0-.312-.453,1.418,1.418,0,0,0-.48-.289,1.88,1.88,0,0,0-.605-.109,2.355,2.355,0,0,0-.613.066,1.913,1.913,0,0,0-.566.234,1.524,1.524,0,0,0-.434.4A1.264,1.264,0,0,0,55,8.867a.808.808,0,0,0,.031.395.846.846,0,0,0,.188.3,1.106,1.106,0,0,0,.293.215,2.81,2.81,0,0,0,.359.152q.191.066.383.113t.355.094a9.008,9.008,0,0,1,.965.309,3.567,3.567,0,0,1,.863.469,2.12,2.12,0,0,1,.605.7,1.85,1.85,0,0,1,.191,1,2.332,2.332,0,0,1-.355,1.152,2.712,2.712,0,0,1-.8.8A3.508,3.508,0,0,1,57,15.023a4.439,4.439,0,0,1-1.191.133,3.824,3.824,0,0,1-1.176-.2,3.058,3.058,0,0,1-.984-.539,2.457,2.457,0,0,1-.9-2.031l1.414.008a1.664,1.664,0,0,0,.129.676,1.415,1.415,0,0,0,.352.492,1.479,1.479,0,0,0,.531.3,2.178,2.178,0,0,0,.684.1,2.863,2.863,0,0,0,.641-.059A2.257,2.257,0,0,0,57.1,13.7a1.556,1.556,0,0,0,.48-.391A1.153,1.153,0,0,0,57.828,12.711ZM64.2,15.156a3.229,3.229,0,0,1-1.5-.355,2.9,2.9,0,0,1-1.02-.9,3.588,3.588,0,0,1-.551-1.289,4.959,4.959,0,0,1-.09-1.516l.039-.336a5.9,5.9,0,0,1,.23-1.078,5.8,5.8,0,0,1,.434-1.031,5.009,5.009,0,0,1,.629-.91,4.188,4.188,0,0,1,.813-.723,3.766,3.766,0,0,1,.977-.473,3.4,3.4,0,0,1,1.129-.152,2.832,2.832,0,0,1,1.453.387,2.593,2.593,0,0,1,.9.945,3.619,3.619,0,0,1,.418,1.316,5.789,5.789,0,0,1-.008,1.5l-.094.648H62.445a3.463,3.463,0,0,0,0,.984,2.508,2.508,0,0,0,.293.887,1.849,1.849,0,0,0,.613.648,1.821,1.821,0,0,0,.961.27,2.5,2.5,0,0,0,1.289-.3,4.153,4.153,0,0,0,1.039-.824l.813.688a3.649,3.649,0,0,1-.641.711,3.82,3.82,0,0,1-.777.512,3.689,3.689,0,0,1-.883.3A4.308,4.308,0,0,1,64.2,15.156ZM65.211,7.57a1.907,1.907,0,0,0-.957.188,2.521,2.521,0,0,0-.734.559,3.623,3.623,0,0,0-.543.789A6.151,6.151,0,0,0,62.6,10l4.109.016.031-.141a2.888,2.888,0,0,0,.008-.82,1.968,1.968,0,0,0-.242-.73A1.548,1.548,0,0,0,66,7.793,1.521,1.521,0,0,0,65.211,7.57Z" transform="translate(-3847 -9760)" fill="#12263f"/>
        <path id="Trazado_880522" data-name="Trazado 880522" d="M23.652,3.625h2.273l-1.141,7.852a4.167,4.167,0,0,1-1.418,2.707,4.225,4.225,0,0,1-2.809.98,3.78,3.78,0,0,1-2.707-.895,2.742,2.742,0,0,1-.668-2.582l.023-.047h2.219a1.6,1.6,0,0,0,.242,1.352,1.463,1.463,0,0,0,1.141.422,1.448,1.448,0,0,0,1.09-.523,2.6,2.6,0,0,0,.613-1.414Zm9.234,8.617a1.235,1.235,0,0,0-.355-1.152,5.335,5.335,0,0,0-1.691-.863,7.8,7.8,0,0,1-2.918-1.508,2.465,2.465,0,0,1-.746-2.312,3,3,0,0,1,1.4-2.152,5.177,5.177,0,0,1,2.914-.793,4.455,4.455,0,0,1,3.008.926,2.586,2.586,0,0,1,.8,2.559l-.016.047H33.066a1.411,1.411,0,0,0-.4-1.277,1.96,1.96,0,0,0-1.43-.5,2.116,2.116,0,0,0-1.2.336,1.167,1.167,0,0,0-.57.836A1.1,1.1,0,0,0,29.836,7.5a7.217,7.217,0,0,0,1.941.879,6.817,6.817,0,0,1,2.73,1.48,2.624,2.624,0,0,1,.66,2.371,2.963,2.963,0,0,1-1.4,2.176,5.424,5.424,0,0,1-2.965.762,5.588,5.588,0,0,1-3.164-.848,2.4,2.4,0,0,1-.969-2.637l.016-.047h2.211A1.245,1.245,0,0,0,29.426,13a3.061,3.061,0,0,0,1.625.41,2.286,2.286,0,0,0,1.227-.328A1.192,1.192,0,0,0,32.887,12.242Zm6.164-1.367L38.457,15H36.176L37.824,3.625h4.352a3.943,3.943,0,0,1,2.918,1.008,2.935,2.935,0,0,1,.777,2.625A3.947,3.947,0,0,1,44.359,9.9a5.125,5.125,0,0,1-3.23.977Zm.258-1.758h2.07a2.1,2.1,0,0,0,2.2-1.844,1.74,1.74,0,0,0-.293-1.363,1.633,1.633,0,0,0-1.371-.527h-2.07Z" transform="translate(-3734 -9772)" fill="#12263f"/>
        <g id="Grupo_1103169-2" data-name="Grupo 1103169" transform="translate(-4462 -10481)">
          <circle id="Elipse_11685" data-name="Elipse 11685" cx="42.5" cy="42.5" r="42.5" transform="translate(600 588)" fill="#00ffdf"/>
          <g id="Grupo_1103198" data-name="Grupo 1103198" transform="translate(619.722 607.722)">
            <path id="Trazado_879230" data-name="Trazado 879230" d="M117.78,102h21.354a1.785,1.785,0,0,1,1.779,1.779v16.282a1.785,1.785,0,0,1-1.779,1.779H117.78A1.785,1.785,0,0,1,116,120.065V103.783A1.785,1.785,0,0,1,117.78,102Z" transform="translate(-105.68 -92.928)" fill="#a4fbc4" fill-rule="evenodd"/>
            <g id="Grupo_1103197" data-name="Grupo 1103197" transform="translate(0 0)">
              <path id="Trazado_879231" data-name="Trazado 879231" d="M44.665,39.327h-.89V10.855a2.672,2.672,0,0,0-2.669-2.669H39.683V.89a.89.89,0,0,0-.89-.89H6.762a.89.89,0,0,0-.89.89v7.3H4.449A2.672,2.672,0,0,0,1.78,10.855V39.327H.89a.89.89,0,0,0-.89.89v2.669a2.672,2.672,0,0,0,2.669,2.669H42.886a2.672,2.672,0,0,0,2.669-2.669V40.217A.89.89,0,0,0,44.665,39.327ZM41.106,9.966a.891.891,0,0,1,.89.89V35.768H39.683V9.966ZM7.652,5.783H37.9V35.768H7.652Zm30.251-4V4H7.652V1.78ZM4.449,9.966H5.872v25.8H3.559V10.855a.891.891,0,0,1,.89-.89Zm-.89,27.582H42v1.78H28.116a.89.89,0,0,0-.89.89h-8.9a.89.89,0,0,0-.89-.89H3.559Zm40.217,5.339a.891.891,0,0,1-.89.89H2.669a.891.891,0,0,1-.89-.89V41.106H16.788a1.781,1.781,0,0,0,1.541.89h8.9a1.78,1.78,0,0,0,1.541-.89H43.776Z" transform="translate(0 0)" fill="#020288"/>
              <path id="Trazado_879232" data-name="Trazado 879232" d="M226.194,176.328A.89.89,0,0,0,227.41,176l3.6-6.241a.89.89,0,0,0-1.541-.89l-3.6,6.241A.89.89,0,0,0,226.194,176.328Z" transform="translate(-205.663 -153.44)" fill="#020288"/>
              <path id="Trazado_879233" data-name="Trazado 879233" d="M155.315,176.188a.89.89,0,0,0,1.258-1.258l-2.491-2.491,2.491-2.491a.89.89,0,0,0-1.258-1.258l-3.121,3.121a.89.89,0,0,0,0,1.258Z" transform="translate(-138.415 -153.442)" fill="#020288"/>
              <path id="Trazado_879234" data-name="Trazado 879234" d="M305.257,176.189a.89.89,0,0,0,1.258,0l3.121-3.121a.89.89,0,0,0,0-1.258l-3.121-3.121a.89.89,0,0,0-1.258,1.258l2.491,2.491-2.491,2.491A.89.89,0,0,0,305.257,176.189Z" transform="translate(-277.859 -153.443)" fill="#020288"/>
              <path id="Trazado_879235" data-name="Trazado 879235" d="M131.8,355H106.891a.89.89,0,0,0,0,1.78H131.8A.89.89,0,0,0,131.8,355Z" transform="translate(-96.57 -323.412)" fill="#020288"/>
            </g>
          </g>
        </g>
        <g id="Grupo_1103175" data-name="Grupo 1103175" transform="translate(-4478 -10570)">
          <circle id="Elipse_11686" data-name="Elipse 11686" cx="42.5" cy="42.5" r="42.5" transform="translate(915 588)" fill="#00ffdf"/>
          <g id="Grupo_1103128" data-name="Grupo 1103128" transform="translate(933 606)">
            <g id="Grupo_1103133" data-name="Grupo 1103133" transform="translate(0 3.622)">
              <g id="Grupo_1103128-2" data-name="Grupo 1103128" transform="translate(0.002 31.531)">
                <path id="Trazado_879113" data-name="Trazado 879113" d="M17.477,360.742c-4.946-.035-16.781-.687-17.446-5.09a.856.856,0,0,1,1.708-.114c1.439,2.752,11.306,3.517,15.738,3.491,4.435.025,14.3-.738,15.738-3.491a.856.856,0,1,1,1.708.113C34.275,360.047,22.41,360.711,17.477,360.742Z" transform="translate(-0.029 -354.739)" fill="#020288"/>
              </g>
              <g id="Grupo_1103129" data-name="Grupo 1103129" transform="translate(0.002 22.767)">
                <path id="Trazado_879114" data-name="Trazado 879114" d="M17.477,274.015C12.531,273.98.7,273.327.031,268.925a.856.856,0,0,1,1.708-.113c1.439,2.752,11.306,3.517,15.738,3.492,4.435.025,14.3-.738,15.738-3.491a.856.856,0,1,1,1.708.113C34.275,273.32,22.41,273.984,17.477,274.015Z" transform="translate(-0.029 -268.012)" fill="#020288"/>
              </g>
              <g id="Grupo_1103130" data-name="Grupo 1103130" transform="translate(0.004 14.009)">
                <path id="Trazado_879115" data-name="Trazado 879115" d="M17.492,187.348c-4.939-.034-16.783-.688-17.446-5.09a.856.856,0,0,1,1.708-.114c.027.4.964,1.4,4.321,2.266,6.216,1.713,18.3,1.626,24.084-.363a.856.856,0,0,1,.532,1.627A45.5,45.5,0,0,1,17.492,187.348Z" transform="translate(-0.045 -181.351)" fill="#020288"/>
              </g>
              <g id="Grupo_1103131" data-name="Grupo 1103131" transform="translate(0.004 4.443)">
                <path id="Trazado_879116" data-name="Trazado 879116" d="M17.492,100.62C12.556,100.586.707,99.932.046,95.53a.856.856,0,0,1,1.708-.113c.027.4.964,1.4,4.321,2.266,4.852,1.3,12.857,1.55,18.437.809a.856.856,0,1,1,.213,1.7,58.466,58.466,0,0,1-7.233.429Z" transform="translate(-0.045 -94.623)" fill="#020288"/>
              </g>
              <g id="Grupo_1103132" data-name="Grupo 1103132">
                <path id="Trazado_879117" data-name="Trazado 879117" d="M17.451,89.016C12.557,88.994.341,88.183,0,82.991c0,0,0-34.255,0-34.255,0-1.89,1.85-3.409,5.5-4.517,5.457-1.715,14.545-1.941,20.618-.779,1.114.254.858,2.107-.267,1.951-5.838-1.119-14.685-.907-19.915.739-3.34,1.014-4.222,2.149-4.222,2.607V82.991c0,.458.882,1.593,4.222,2.607,6,1.909,17.036,1.909,23.032,0,3.34-1.014,4.222-2.149,4.222-2.607V61A.864.864,0,1,1,34.9,61V82.991c-.336,5.195-12.566,6-17.45,6.025Z" transform="translate(0 -42.718)" fill="#020288"/>
              </g>
            </g>
            <path id="Trazado_879118" data-name="Trazado 879118" d="M277.6,21.3a10.5,10.5,0,0,0,10.481-10.481c-.536-13.883-20.428-13.879-20.962,0A10.5,10.5,0,0,0,277.6,21.3Z" transform="translate(-238.085 -0.407)" fill="#e2c4ff" fill-rule="evenodd"/>
            <g id="Grupo_1103134" data-name="Grupo 1103134" transform="translate(31.478 2.568)">
              <path id="Trazado_879119" data-name="Trazado 879119" d="M311.665,37.487l-1.08-3.323a.856.856,0,0,0-1.027-.565l-1.528.393a6.122,6.122,0,0,0-1.665-1.211l-.1-1.574a.856.856,0,0,0-.854-.8H301.92a.856.856,0,0,0-.854.8l-.1,1.574a6.116,6.116,0,0,0-1.664,1.211l-1.528-.393a.856.856,0,0,0-1.027.565l-1.08,3.323a.856.856,0,0,0,.5,1.061l1.467.58a6.09,6.09,0,0,0,.636,1.958l-.845,1.331a.856.856,0,0,0,.219,1.151l2.826,2.053a.856.856,0,0,0,1.163-.147l1-1.215a6.154,6.154,0,0,0,2.059,0l1,1.215a.856.856,0,0,0,1.163.147l2.826-2.053a.856.856,0,0,0,.219-1.151l-.845-1.331a6.093,6.093,0,0,0,.636-1.958l1.467-.58a.856.856,0,0,0,.5-1.061Zm-3.081.24a.856.856,0,0,0-.54.752,4.372,4.372,0,0,1-.7,2.158.856.856,0,0,0-.005.926l.694,1.093-1.525,1.108-.824-1a.856.856,0,0,0-.881-.282,4.434,4.434,0,0,1-2.272,0,.856.856,0,0,0-.881.282l-.824,1L299.3,42.655l.694-1.092a.856.856,0,0,0-.005-.926,4.374,4.374,0,0,1-.7-2.158.856.856,0,0,0-.54-.752l-1.2-.476.583-1.793,1.254.323a.856.856,0,0,0,.878-.29,4.4,4.4,0,0,1,1.837-1.336.856.856,0,0,0,.547-.746l.081-1.291h1.885l.081,1.291a.856.856,0,0,0,.547.746,4.4,4.4,0,0,1,1.837,1.336.856.856,0,0,0,.878.29l1.254-.323.583,1.793Z" transform="translate(-295.625 -30.406)" fill="#020288"/>
              <path id="Trazado_879120" data-name="Trazado 879120" d="M361.759,91.626a2.6,2.6,0,1,0,2.6,2.6A2.606,2.606,0,0,0,361.759,91.626Zm0,3.493a.891.891,0,1,1,.891-.891A.892.892,0,0,1,361.759,95.119Z" transform="translate(-353.718 -86.386)" fill="#020288"/>
            </g>
          </g>
        </g>
        <path id="Trazado_879195" data-name="Trazado 879195" d="M-3820-9893v-46.078h64.11" fill="none" stroke="#0b47db" stroke-linecap="round" stroke-width="3"/>
        <path id="Trazado_879196" data-name="Trazado 879196" d="M-3820-9939.078V-9893h64.11" transform="translate(0 133.039)" fill="none" stroke="#0b47db" stroke-linecap="round" stroke-width="3"/>
        <path id="Trazado_879200" data-name="Trazado 879200" d="M-3820-9939.078V-9811" transform="translate(93.423 23.039)" fill="none" stroke="#0b47db" stroke-linecap="round" stroke-width="3"/>
        <path id="Trazado_879201" data-name="Trazado 879201" d="M-3820-9939.078v37.879" transform="translate(121 23.039)" fill="none" stroke="#0b47db" stroke-linecap="round" stroke-width="3"/>
        <path id="Trazado_879197" data-name="Trazado 879197" d="M10,0V10H0Z" transform="translate(-3767.071 -9939) rotate(-45)" fill="#0b47db"/>
        <path id="Trazado_879198" data-name="Trazado 879198" d="M10,0V10H0Z" transform="translate(-3767.071 -9759.961) rotate(-45)" fill="#0b47db"/>
        <path id="Trazado_879199" data-name="Trazado 879199" d="M10,0V10H0Z" transform="translate(-3726.577 -9797.143) rotate(45)" fill="#0b47db"/>
        <path id="Trazado_879202" data-name="Trazado 879202" d="M10,0V10H0Z" transform="translate(-3699 -9887.694) rotate(45)" fill="#0b47db"/>
        <g id="Grupo_1103172" data-name="Grupo 1103172">
          <path id="Trazado_879205" data-name="Trazado 879205" d="M-3820-9939.078v38.912" transform="translate(121 112.205)" fill="none" stroke="#0b47db" stroke-linecap="round" stroke-width="3"/>
          <path id="Trazado_879204" data-name="Trazado 879204" d="M10,0V10H0Z" transform="translate(-3699 -9797.143) rotate(45)" fill="#0b47db"/>
          <path id="Trazado_879206" data-name="Trazado 879206" d="M10,10V0H0Z" transform="translate(-3706.071 -9824.423) rotate(-45)" fill="#0b47db"/>
        </g>
        <g id="Grupo_1103173" data-name="Grupo 1103173">
          <path id="Trazado_879205-2" data-name="Trazado 879205" d="M-3820-9939.078v16.121" transform="translate(6291.699 -13759) rotate(-90)" fill="none" stroke="#0b47db" stroke-linecap="round" stroke-width="3"/>
          <path id="Trazado_879206-2" data-name="Trazado 879206" d="M10,10V0H0Z" transform="translate(-3644.929 -9931.929) rotate(-135)" fill="#0b47db"/>
        </g>
        <g id="Grupo_1103174" data-name="Grupo 1103174" transform="translate(-7215 -19878) rotate(180)">
          <path id="Trazado_879205-3" data-name="Trazado 879205" d="M-3820-9939.078v16.121" transform="translate(6291.699 -13759) rotate(-90)" fill="none" stroke="#0b47db" stroke-linecap="round" stroke-width="3"/>
          <path id="Trazado_879206-3" data-name="Trazado 879206" d="M10,10V0H0Z" transform="translate(-3644.929 -9931.929) rotate(-135)" fill="#0b47db"/>
        </g>
        <g id="Grupo_1103171" data-name="Grupo 1103171" transform="translate(5885.125 -5494.808) rotate(-45)">
          <ellipse id="Elipse_11700" data-name="Elipse 11700" cx="18" cy="11" rx="18" ry="11" transform="translate(-3714 -9869)" fill="#debefb"/>
          <path id="Trazado_879203" data-name="Trazado 879203" d="M18,0c-.02-.035.034,4.71,0,10.536C17.974,15.71,18.221,22,18,22,8.059,22,0,17.075,0,11S8.059,0,18,0Z" transform="translate(-3714 -9869)" fill="#a854f3"/>
        </g>
      </g>
    </g>
  </g>
</svg>
