<svg xmlns="http://www.w3.org/2000/svg" width="90" height="90" viewBox="0 0 90 90">
  <g id="Grupo_1103427" data-name="Grupo 1103427" transform="translate(6686 2275)">
    <rect id="Rectángulo_403687" data-name="Rectángulo 403687" width="90" height="90" rx="10" transform="translate(-6686 -2275)" fill="#00ffdf"/>
    <g id="Grupo_1103428" data-name="Grupo 1103428" transform="translate(-6671.548 -2260.548)">
      <path id="Trazado_879394" data-name="Trazado 879394" d="M59.008,12.763h-1.89V2.841A2.844,2.844,0,0,0,54.277,0H42.67a.895.895,0,1,0,0,1.79H54.277a1.052,1.052,0,0,1,1.051,1.051V7.595H5.768V2.841A1.053,1.053,0,0,1,6.82,1.79H38.493a.895.895,0,0,0,0-1.79H6.82A2.844,2.844,0,0,0,3.978,2.841v9.922H2.088A2.091,2.091,0,0,0,0,14.852v7.3a.895.895,0,1,0,1.79,0v-7.3a.3.3,0,0,1,.3-.3h1.89V39.478A2.844,2.844,0,0,0,6.82,42.319H54.277a2.844,2.844,0,0,0,2.841-2.841v-5.5a.895.895,0,0,0-1.79,0v5.5a1.053,1.053,0,0,1-1.051,1.051H43.1V37.611a1.276,1.276,0,0,0-1.111-1.262l-1.095-.14a10.9,10.9,0,0,0-.567-1.369L41,33.965a1.276,1.276,0,0,0-.107-1.678l-2.94-2.94a1.275,1.275,0,0,0-1.678-.107l-.874.675a10.9,10.9,0,0,0-1.369-.567l-.14-1.095a1.275,1.275,0,0,0-1.262-1.111H28.469a1.275,1.275,0,0,0-1.262,1.111l-.14,1.095a10.9,10.9,0,0,0-1.369.567l-.874-.675a1.276,1.276,0,0,0-1.678.107L20.2,32.287a1.275,1.275,0,0,0-.107,1.678l.675.874a10.877,10.877,0,0,0-.567,1.369l-1.1.141A1.275,1.275,0,0,0,18,37.611v2.918H6.82a1.052,1.052,0,0,1-1.051-1.051V9.385h49.56V29.8a.895.895,0,1,0,1.79,0V14.553h1.89a.3.3,0,0,1,.3.3v29.42H1.79V26.33a.895.895,0,0,0-1.79,0V48.264a2.091,2.091,0,0,0,2.088,2.088H9.347a.895.895,0,1,0,0-1.79H2.088a.3.3,0,0,1-.3-.3v-2.2H59.307v2.2a.3.3,0,0,1-.3.3H13.524a.895.895,0,1,0,0,1.79H20.7l-2.621,4.893H14.44a1.493,1.493,0,0,0-1.492,1.492v2.869A1.493,1.493,0,0,0,14.44,61.1H46.381a1.493,1.493,0,0,0,1.492-1.492V56.736a1.493,1.493,0,0,0-1.492-1.492H43.017L40.4,50.352H59.008A2.091,2.091,0,0,0,61.1,48.264V14.852a2.091,2.091,0,0,0-2.088-2.088ZM36.048,40.529h-11a5.562,5.562,0,1,1,11,0ZM19.79,38.066l.971-.124a1.277,1.277,0,0,0,1.057-.9,9.094,9.094,0,0,1,.686-1.655,1.277,1.277,0,0,0-.112-1.383l-.6-.775,2.3-2.3.775.6a1.277,1.277,0,0,0,1.383.112,9.088,9.088,0,0,1,1.656-.686,1.278,1.278,0,0,0,.9-1.057l.124-.971h3.248l.124.971a1.278,1.278,0,0,0,.9,1.057,9.09,9.09,0,0,1,1.655.686,1.277,1.277,0,0,0,1.383-.112l.775-.6,2.3,2.3-.6.775a1.277,1.277,0,0,0-.112,1.382,9.077,9.077,0,0,1,.686,1.655,1.277,1.277,0,0,0,1.057.9l.971.124v2.463H37.852a7.352,7.352,0,1,0-14.607,0H19.79ZM46.083,57.035v2.272H14.738V57.035ZM24.6,55.245a10.593,10.593,0,0,1,11.887,0Zm16.382,0H39.28a12.354,12.354,0,0,0-17.464,0H20.11l2.621-4.893H38.366Z" transform="translate(0 0)" fill="#3a1d71"/>
      <path id="Trazado_879395" data-name="Trazado 879395" d="M189.906,119.379a1.145,1.145,0,0,0-1.065.734l-2.959,7.769a.895.895,0,1,0,1.673.637l.532-1.4H191.7l.526,1.395a.895.895,0,0,0,1.675-.632l-2.932-7.768A1.144,1.144,0,0,0,189.906,119.379Zm-1.137,5.952,1.134-2.977,1.123,2.977Z" transform="translate(-163.65 -105.134)" fill="#3a1d71"/>
      <path id="Trazado_879396" data-name="Trazado 879396" d="M306.564,129.035a.894.894,0,0,0,1.155-.518l.532-1.4h3.615l.526,1.395a.895.895,0,0,0,1.675-.632l-2.932-7.768a1.139,1.139,0,0,0-2.13,0l-2.959,7.769A.9.9,0,0,0,306.564,129.035Zm3.5-6.682,1.123,2.977h-2.257Z" transform="translate(-269.474 -105.133)" fill="#3a1d71"/>
      <path id="Trazado_879397" data-name="Trazado 879397" d="M140.616,120.274v6.335a.709.709,0,0,1-.355.626c-.414.23-.883-.206-.914-.235a.895.895,0,0,0-1.263,1.268A2.845,2.845,0,0,0,140,129.1a2.3,2.3,0,0,0,1.126-.3,2.5,2.5,0,0,0,1.276-2.191v-6.335a.895.895,0,1,0-1.79,0Z" transform="translate(-121.377 -105.134)" fill="#3a1d71"/>
      <path id="Trazado_879398" data-name="Trazado 879398" d="M252.1,129.092a1.133,1.133,0,0,0,1.077-.777l2.576-7.762a.895.895,0,0,0-1.7-.564l-1.968,5.931-2.065-5.942a.895.895,0,1,0-1.691.588l2.7,7.765a1.136,1.136,0,0,0,1.072.762Z" transform="translate(-218.651 -105.131)" fill="#3a1d71"/>
      <path id="Trazado_879399" data-name="Trazado 879399" d="M88.135,126.581a.9.9,0,0,0-1.266,0l-3.261,3.261a.9.9,0,0,0,0,1.266l3.261,3.261a.895.895,0,1,0,1.266-1.266l-2.629-2.628,2.629-2.628A.9.9,0,0,0,88.135,126.581Z" transform="translate(-73.401 -111.245)" fill="#3a1d71"/>
      <path id="Trazado_879400" data-name="Trazado 879400" d="M386.585,134.37a.9.9,0,0,0,1.266,0l3.261-3.261a.9.9,0,0,0,0-1.266l-3.261-3.261a.895.895,0,1,0-1.266,1.266l2.629,2.628-2.629,2.628A.9.9,0,0,0,386.585,134.37Z" transform="translate(-340.223 -111.245)" fill="#3a1d71"/>
      <circle id="Elipse_11720" data-name="Elipse 11720" cx="0.895" cy="0.895" r="0.895" transform="translate(8.104 3.797)" fill="#3a1d71"/>
      <circle id="Elipse_11721" data-name="Elipse 11721" cx="0.895" cy="0.895" r="0.895" transform="translate(12.175 3.797)" fill="#3a1d71"/>
      <circle id="Elipse_11722" data-name="Elipse 11722" cx="0.895" cy="0.895" r="0.895" transform="translate(16.247 3.797)" fill="#3a1d71"/>
    </g>
  </g>
</svg>
