<svg xmlns="http://www.w3.org/2000/svg" width="490" height="163" viewBox="0 0 490 163">
  <g id="Grupo_1103437" data-name="Grupo 1103437" transform="translate(-390 -11867)">
    <rect id="Rectángulo_403698" data-name="Rectángulo 403698" width="110" height="163" rx="10" transform="translate(770 11867)" fill="#3a1d71"/>
    <path id="Trazado_879425" data-name="Trazado 879425" d="M18.76,102.267a.7.7,0,0,0-.518-.234h-3.8a.558.558,0,0,1-.536-.577V.773A.747.747,0,0,0,13.189,0H5.8a.747.747,0,0,0-.719.773V101.457a.558.558,0,0,1-.536.577H.732a.745.745,0,0,0-.732.758.8.8,0,0,0,.217.568l8.755,9.41a.678.678,0,0,0,1.019,0l8.755-9.41A.814.814,0,0,0,18.76,102.267Z" transform="translate(580 11978.018) rotate(90)" fill="#0b47db"/>
    <path id="Trazado_879426" data-name="Trazado 879426" d="M18.76,10.733a.7.7,0,0,1-.518.234h-3.8a.558.558,0,0,0-.536.577V112.227a.747.747,0,0,1-.719.773H5.8a.747.747,0,0,1-.719-.773V11.543a.558.558,0,0,0-.536-.577H.732A.745.745,0,0,1,0,10.209.8.8,0,0,1,.217,9.64L8.972.231a.678.678,0,0,1,1.019,0l8.755,9.41A.814.814,0,0,1,18.76,10.733Z" transform="translate(580 11888.018) rotate(90)" fill="#0b47db"/>
    <path id="Trazado_879427" data-name="Trazado 879427" d="M18.76,70.733a.7.7,0,0,1-.518.234h-3.8a.558.558,0,0,0-.536.577v40.684a.747.747,0,0,1-.719.773H5.8a.747.747,0,0,1-.719-.773V71.543a.558.558,0,0,0-.536-.577H.732A.745.745,0,0,1,0,70.209a.8.8,0,0,1,.217-.568l8.755-9.41a.678.678,0,0,1,1.019,0l8.755,9.41A.814.814,0,0,1,18.76,70.733Z" transform="translate(657.982 12040) rotate(180)" fill="#0b47db"/>
    <path id="Trazado_879429" data-name="Trazado 879429" d="M18.76,70.733a.7.7,0,0,1-.518.234h-3.8a.558.558,0,0,0-.536.577v40.684a.747.747,0,0,1-.719.773H5.8a.747.747,0,0,1-.719-.773V71.543a.558.558,0,0,0-.536-.577H.732A.745.745,0,0,1,0,70.209a.8.8,0,0,1,.217-.568l8.755-9.41a.678.678,0,0,1,1.019,0l8.755,9.41A.814.814,0,0,1,18.76,70.733Z" transform="translate(828 11882.518) rotate(90)" fill="#0b47db"/>
    <path id="Trazado_879430" data-name="Trazado 879430" d="M18.76,70.733a.7.7,0,0,1-.518.234h-3.8a.558.558,0,0,0-.536.577v40.684a.747.747,0,0,1-.719.773H5.8a.747.747,0,0,1-.719-.773V71.543a.558.558,0,0,0-.536-.577H.732A.745.745,0,0,1,0,70.209a.8.8,0,0,1,.217-.568l8.755-9.41a.678.678,0,0,1,1.019,0l8.755,9.41A.814.814,0,0,1,18.76,70.733Z" transform="translate(645 11901.482) rotate(-90)" fill="#0b47db"/>
    <rect id="Rectángulo_403696" data-name="Rectángulo 403696" width="114" height="50" rx="10" transform="translate(591 11867)" fill="#debefb"/>
    <rect id="Rectángulo_403697" data-name="Rectángulo 403697" width="114" height="50" rx="10" transform="translate(591 11980)" fill="#f0c518"/>
    <path id="Trazado_880536" data-name="Trazado 880536" d="M14.844,11.211A4.025,4.025,0,0,1,13.488,14.1a4.76,4.76,0,0,1-3.223,1.055,4.28,4.28,0,0,1-3.441-1.473A6.038,6.038,0,0,1,5.57,9.641v-.7a6.819,6.819,0,0,1,.578-2.891A4.332,4.332,0,0,1,7.8,4.137a4.629,4.629,0,0,1,2.5-.668,4.637,4.637,0,0,1,3.172,1.055,4.326,4.326,0,0,1,1.391,2.961H12.516a2.376,2.376,0,0,0-.613-1.6,2.271,2.271,0,0,0-1.605-.5,1.991,1.991,0,0,0-1.754.84,4.707,4.707,0,0,0-.6,2.605V9.7a5.038,5.038,0,0,0,.559,2.7,1.954,1.954,0,0,0,1.762.852,2.314,2.314,0,0,0,1.621-.5,2.241,2.241,0,0,0,.613-1.535Zm1.039-.516a5.013,5.013,0,0,1,.484-2.242A3.546,3.546,0,0,1,17.762,6.93a4.069,4.069,0,0,1,2.113-.539,3.849,3.849,0,0,1,2.793,1.047,4.2,4.2,0,0,1,1.207,2.844l.016.578A4.418,4.418,0,0,1,22.8,13.98a3.775,3.775,0,0,1-2.914,1.176,3.793,3.793,0,0,1-2.918-1.172,4.5,4.5,0,0,1-1.09-3.187Zm2.258.16a3.16,3.16,0,0,0,.453,1.843,1.628,1.628,0,0,0,2.578.008,3.457,3.457,0,0,0,.461-2.015,3.128,3.128,0,0,0-.461-1.831,1.5,1.5,0,0,0-1.3-.649,1.474,1.474,0,0,0-1.281.646A3.516,3.516,0,0,0,18.141,10.856Zm9.219-4.309.07.977a2.951,2.951,0,0,1,2.43-1.133,2.453,2.453,0,0,1,2,.789,3.682,3.682,0,0,1,.672,2.359V15H30.273V9.581a1.47,1.47,0,0,0-.312-1.045,1.4,1.4,0,0,0-1.039-.325,1.553,1.553,0,0,0-1.43.814V15H25.234V6.547Zm9.586-2.078V6.547h1.445V8.2H36.945v4.219a1.007,1.007,0,0,0,.18.672.9.9,0,0,0,.688.2,3.6,3.6,0,0,0,.664-.055v1.711a4.648,4.648,0,0,1-1.367.2,2.156,2.156,0,0,1-2.422-2.4V8.2H33.453V6.547h1.234V4.469Zm7.453,4.2a6.134,6.134,0,0,0-.812-.062,1.654,1.654,0,0,0-1.68.867V15H39.648V6.547h2.133l.063,1.008a2.092,2.092,0,0,1,1.883-1.164,2.366,2.366,0,0,1,.7.1Zm.453,2.031a5.013,5.013,0,0,1,.484-2.242A3.546,3.546,0,0,1,46.73,6.93a4.069,4.069,0,0,1,2.113-.539,3.849,3.849,0,0,1,2.793,1.047,4.2,4.2,0,0,1,1.207,2.844l.016.578a4.418,4.418,0,0,1-1.086,3.121,4.209,4.209,0,0,1-5.832,0,4.5,4.5,0,0,1-1.09-3.187Zm2.258.16a3.16,3.16,0,0,0,.453,1.843,1.628,1.628,0,0,0,2.578.008,3.457,3.457,0,0,0,.461-2.015,3.128,3.128,0,0,0-.461-1.831,1.5,1.5,0,0,0-1.3-.649,1.474,1.474,0,0,0-1.281.646A3.516,3.516,0,0,0,47.109,10.856ZM56.633,15H54.367V3h2.266Zm6.758,0a2.507,2.507,0,0,1-.227-.758,2.732,2.732,0,0,1-2.133.914,3,3,0,0,1-2.059-.719,2.312,2.312,0,0,1-.816-1.812,2.389,2.389,0,0,1,1-2.062,4.915,4.915,0,0,1,2.879-.727H63.07V9.352a1.393,1.393,0,0,0-.3-.937,1.183,1.183,0,0,0-.949-.352,1.345,1.345,0,0,0-.895.273.929.929,0,0,0-.324.75H58.344A2.268,2.268,0,0,1,58.8,7.727a3,3,0,0,1,1.281-.98,4.669,4.669,0,0,1,1.859-.355,3.689,3.689,0,0,1,2.48.785,2.747,2.747,0,0,1,.918,2.207v3.664a4.041,4.041,0,0,0,.336,1.82V15Zm-1.867-1.57a1.945,1.945,0,0,0,.922-.223,1.462,1.462,0,0,0,.625-.6V11.156h-.844q-1.7,0-1.8,1.172l-.008.133a.9.9,0,0,0,.3.7A1.153,1.153,0,0,0,61.523,13.43Zm5.2-2.719a5.094,5.094,0,0,1,.887-3.148,2.877,2.877,0,0,1,2.426-1.172,2.589,2.589,0,0,1,2.039.922V3h2.266V15H72.3l-.109-.9a2.657,2.657,0,0,1-2.172,1.055,2.869,2.869,0,0,1-2.395-1.176A5.258,5.258,0,0,1,66.719,10.711Zm2.258.161a3.355,3.355,0,0,0,.414,1.829,1.348,1.348,0,0,0,1.2.636,1.51,1.51,0,0,0,1.477-.887V9.1a1.489,1.489,0,0,0-1.461-.887Q68.977,8.211,68.977,10.872Zm6.758-.176a5.013,5.013,0,0,1,.484-2.242A3.546,3.546,0,0,1,77.613,6.93a4.069,4.069,0,0,1,2.113-.539A3.849,3.849,0,0,1,82.52,7.438a4.2,4.2,0,0,1,1.207,2.844l.016.578a4.418,4.418,0,0,1-1.086,3.121,4.209,4.209,0,0,1-5.832,0,4.5,4.5,0,0,1-1.09-3.187Zm2.258.16a3.16,3.16,0,0,0,.453,1.843,1.628,1.628,0,0,0,2.578.008,3.457,3.457,0,0,0,.461-2.015,3.128,3.128,0,0,0-.461-1.831,1.5,1.5,0,0,0-1.3-.649,1.474,1.474,0,0,0-1.281.646A3.516,3.516,0,0,0,77.992,10.856ZM89.883,8.664A6.134,6.134,0,0,0,89.07,8.6a1.654,1.654,0,0,0-1.68.867V15H85.133V6.547h2.133l.063,1.008a2.092,2.092,0,0,1,1.883-1.164,2.366,2.366,0,0,1,.7.1ZM17.77,28.375a11.791,11.791,0,0,1,1.91-5.234,7.279,7.279,0,0,1,3.082-2.734l.047.008.25,1.133a6.907,6.907,0,0,0-2.066,2.469,12.687,12.687,0,0,0-1.3,4.344l-.023.2a11.194,11.194,0,0,0,.07,4.379A4.805,4.805,0,0,0,21.121,35.4l-.578,1.117H20.5a4.87,4.87,0,0,1-2.3-2.766,9.829,9.829,0,0,1-.453-5.2Zm11.477,1.867a1.235,1.235,0,0,0-.355-1.152,5.335,5.335,0,0,0-1.691-.863,7.8,7.8,0,0,1-2.918-1.508,2.465,2.465,0,0,1-.746-2.312,3,3,0,0,1,1.4-2.152,5.177,5.177,0,0,1,2.914-.793,4.455,4.455,0,0,1,3.008.926,2.586,2.586,0,0,1,.8,2.559l-.016.047H29.426a1.411,1.411,0,0,0-.4-1.277,1.96,1.96,0,0,0-1.43-.5,2.116,2.116,0,0,0-1.2.336,1.167,1.167,0,0,0-.57.836A1.1,1.1,0,0,0,26.2,25.5a7.217,7.217,0,0,0,1.941.879,6.817,6.817,0,0,1,2.73,1.48,2.624,2.624,0,0,1,.66,2.371,2.963,2.963,0,0,1-1.4,2.176,5.424,5.424,0,0,1-2.965.762A5.588,5.588,0,0,1,24,32.316a2.4,2.4,0,0,1-.969-2.637l.016-.047h2.211A1.245,1.245,0,0,0,25.785,31a3.061,3.061,0,0,0,1.625.41,2.286,2.286,0,0,0,1.227-.328A1.192,1.192,0,0,0,29.246,30.242Zm6.8,2.922A3.361,3.361,0,0,1,33.25,32a3.71,3.71,0,0,1-.668-2.98l.047-.312a5.35,5.35,0,0,1,1.48-3.129,4.072,4.072,0,0,1,3.012-1.184,2.829,2.829,0,0,1,2.438,1.047,3.7,3.7,0,0,1,.523,2.8l-.172,1.18H34.863l-.016.039a1.957,1.957,0,0,0,.32,1.418,1.6,1.6,0,0,0,1.359.535,4.993,4.993,0,0,0,1.266-.141,9.4,9.4,0,0,0,1.2-.422l.352,1.438a5.365,5.365,0,0,1-1.418.617A6.622,6.622,0,0,1,36.043,33.164Zm.82-7.016a1.462,1.462,0,0,0-1.109.473,2.765,2.765,0,0,0-.641,1.246l.016.047h2.766l.031-.172a1.857,1.857,0,0,0-.141-1.176A.973.973,0,0,0,36.863,26.148Zm9.242.359-.828-.023a1.642,1.642,0,0,0-.863.219,1.722,1.722,0,0,0-.6.617L43,33H40.723l1.227-8.453h2.117l-.078,1.242a3.168,3.168,0,0,1,.914-1.035,1.971,1.971,0,0,1,1.148-.363,1.659,1.659,0,0,1,.309.027q.145.027.285.066Zm4.039,3.344.031.773.047.008.273-.781,2.164-5.3h2.383L50.941,33h-2.18l-1.648-8.453H49.5ZM57.207,33H54.926l1.766-12.187h2.281Zm5.563.164A3.361,3.361,0,0,1,59.977,32a3.71,3.71,0,0,1-.668-2.98l.047-.312a5.35,5.35,0,0,1,1.48-3.129,4.072,4.072,0,0,1,3.012-1.184,2.829,2.829,0,0,1,2.438,1.047,3.7,3.7,0,0,1,.523,2.8l-.172,1.18H61.59l-.016.039a1.957,1.957,0,0,0,.32,1.418,1.6,1.6,0,0,0,1.359.535,4.993,4.993,0,0,0,1.266-.141,9.4,9.4,0,0,0,1.2-.422l.352,1.438a5.365,5.365,0,0,1-1.418.617A6.622,6.622,0,0,1,62.77,33.164Zm.82-7.016a1.462,1.462,0,0,0-1.109.473,2.765,2.765,0,0,0-.641,1.246l.016.047h2.766l.031-.172a1.857,1.857,0,0,0-.141-1.176A.973.973,0,0,0,63.59,26.148Zm8.078-3.672-.3,2.07h1.43l-.234,1.6H71.137l-.625,4.3a.887.887,0,0,0,.1.711.65.65,0,0,0,.52.2,2.283,2.283,0,0,0,.313-.02,2.515,2.515,0,0,0,.313-.066l-.047,1.648a5.04,5.04,0,0,1-.7.176,4.184,4.184,0,0,1-.719.059,2.116,2.116,0,0,1-1.711-.656,2.538,2.538,0,0,1-.352-2.047l.625-4.312H67.621l.234-1.6h1.227l.3-2.07Zm5.766,6.07a11.55,11.55,0,0,1-1.957,5.2,7.5,7.5,0,0,1-3.152,2.777l-.047-.008L72.012,35.4a7.043,7.043,0,0,0,2.059-2.477,12.77,12.77,0,0,0,1.316-4.359l.023-.2a11.078,11.078,0,0,0-.09-4.371,4.964,4.964,0,0,0-1.363-2.473l.586-1.109h.047a4.95,4.95,0,0,1,2.355,2.8,9.67,9.67,0,0,1,.512,5.164Z" transform="translate(601 11873)" fill="#12263f"/>
    <path id="Trazado_880534" data-name="Trazado 880534" d="M34.262,12.18,36.84,3.625h2.609L35.488,15H33.043L29.1,3.625h2.6ZM42.754,15H40.488V6.547h2.266Zm-2.4-10.641a1.112,1.112,0,0,1,.34-.836,1.465,1.465,0,0,1,1.848,0,1.105,1.105,0,0,1,.344.836,1.108,1.108,0,0,1-.348.844,1.448,1.448,0,0,1-1.836,0A1.108,1.108,0,0,1,40.355,4.359Zm8.836,8.3a.727.727,0,0,0-.41-.652,4.659,4.659,0,0,0-1.316-.426q-3.016-.633-3.016-2.562a2.323,2.323,0,0,1,.934-1.879,3.766,3.766,0,0,1,2.441-.754,4.053,4.053,0,0,1,2.574.758,2.388,2.388,0,0,1,.965,1.969H49.105a1.092,1.092,0,0,0-.312-.8A1.322,1.322,0,0,0,47.816,8a1.351,1.351,0,0,0-.883.258.814.814,0,0,0-.312.656.7.7,0,0,0,.355.605,3.657,3.657,0,0,0,1.2.4A9.8,9.8,0,0,1,49.6,10.3a2.336,2.336,0,0,1,1.789,2.273,2.2,2.2,0,0,1-.992,1.871,4.28,4.28,0,0,1-2.562.715,4.47,4.47,0,0,1-1.887-.379,3.166,3.166,0,0,1-1.293-1.039,2.414,2.414,0,0,1-.469-1.426h2.141a1.179,1.179,0,0,0,.445.922,1.766,1.766,0,0,0,1.109.32,1.635,1.635,0,0,0,.98-.246A.766.766,0,0,0,49.191,12.664Zm6.352-8.2V6.547h1.445V8.2H55.543v4.219a1.007,1.007,0,0,0,.18.672.9.9,0,0,0,.688.2,3.6,3.6,0,0,0,.664-.055v1.711a4.648,4.648,0,0,1-1.367.2,2.156,2.156,0,0,1-2.422-2.4V8.2H52.051V6.547h1.234V4.469ZM63.145,15a2.507,2.507,0,0,1-.227-.758,2.732,2.732,0,0,1-2.133.914,3,3,0,0,1-2.059-.719,2.312,2.312,0,0,1-.816-1.812,2.389,2.389,0,0,1,1-2.062,4.915,4.915,0,0,1,2.879-.727h1.039V9.352a1.393,1.393,0,0,0-.3-.937,1.183,1.183,0,0,0-.949-.352,1.345,1.345,0,0,0-.895.273.929.929,0,0,0-.324.75H58.1a2.268,2.268,0,0,1,.453-1.359,3,3,0,0,1,1.281-.98,4.669,4.669,0,0,1,1.859-.355,3.689,3.689,0,0,1,2.48.785,2.747,2.747,0,0,1,.918,2.207v3.664a4.041,4.041,0,0,0,.336,1.82V15Zm-1.867-1.57a1.945,1.945,0,0,0,.922-.223,1.462,1.462,0,0,0,.625-.6V11.156H61.98q-1.7,0-1.8,1.172l-.008.133a.9.9,0,0,0,.3.7A1.153,1.153,0,0,0,61.277,13.43ZM28.293,28.375a11.99,11.99,0,0,1,.477-3.406,8.989,8.989,0,0,1,1.406-2.863,5.251,5.251,0,0,1,2.016-1.73l.438,1.219A5.438,5.438,0,0,0,30.848,24.2a12.082,12.082,0,0,0-.641,4.125v.242a12.313,12.313,0,0,0,.633,4.141,5.544,5.544,0,0,0,1.789,2.648l-.437,1.2a5.253,5.253,0,0,1-1.98-1.684,8.838,8.838,0,0,1-1.4-2.785,11.918,11.918,0,0,1-.516-3.3Zm10.25-6.75h2.344V29.5a3.766,3.766,0,0,1-.48,1.918A3.261,3.261,0,0,1,39.051,32.7a4.235,4.235,0,0,1-1.977.453,4.025,4.025,0,0,1-2.812-.918,3.335,3.335,0,0,1-1.008-2.6h2.359a1.829,1.829,0,0,0,.352,1.234,1.407,1.407,0,0,0,1.109.4,1.343,1.343,0,0,0,1.07-.461,1.948,1.948,0,0,0,.4-1.312Zm10.25,8.391A1.2,1.2,0,0,0,48.324,29a6.148,6.148,0,0,0-1.687-.75,11.963,11.963,0,0,1-1.93-.777,3.153,3.153,0,0,1-1.937-2.82A2.747,2.747,0,0,1,43.289,23a3.389,3.389,0,0,1,1.492-1.129,5.616,5.616,0,0,1,2.184-.406,5.112,5.112,0,0,1,2.172.441,3.458,3.458,0,0,1,1.48,1.246,3.261,3.261,0,0,1,.527,1.828H48.8a1.534,1.534,0,0,0-.492-1.215,2.023,2.023,0,0,0-1.383-.434,2.162,2.162,0,0,0-1.336.363,1.146,1.146,0,0,0-.477.957,1.1,1.1,0,0,0,.559.93,6.311,6.311,0,0,0,1.645.7,7.106,7.106,0,0,1,2.914,1.492A2.972,2.972,0,0,1,51.145,30a2.737,2.737,0,0,1-1.117,2.316,4.891,4.891,0,0,1-3.008.84,5.808,5.808,0,0,1-2.391-.48,3.783,3.783,0,0,1-1.645-1.316,3.371,3.371,0,0,1-.566-1.937H44.77q0,1.883,2.25,1.883a2.189,2.189,0,0,0,1.3-.34A1.106,1.106,0,0,0,48.793,30.016Zm6.281-1.023V33H52.73V21.625h4.438a5.134,5.134,0,0,1,2.254.469,3.454,3.454,0,0,1,1.5,1.332,3.714,3.714,0,0,1,.523,1.965A3.266,3.266,0,0,1,60.3,28.027a4.767,4.767,0,0,1-3.168.965Zm0-1.9h2.094a2.059,2.059,0,0,0,1.418-.437,1.591,1.591,0,0,0,.488-1.25,1.876,1.876,0,0,0-.492-1.352,1.839,1.839,0,0,0-1.359-.531H55.074Zm11.719,1.461a11.377,11.377,0,0,1-.508,3.4,9.225,9.225,0,0,1-1.461,2.883,5.264,5.264,0,0,1-2.039,1.719l-.437-1.2a5.494,5.494,0,0,0,1.75-2.578,11.939,11.939,0,0,0,.664-4.008v-.414a12.209,12.209,0,0,0-.637-4.117,5.727,5.727,0,0,0-1.777-2.672l.438-1.2a5.265,5.265,0,0,1,2,1.672,9.106,9.106,0,0,1,1.461,2.82,11.3,11.3,0,0,1,.543,3.336Z" transform="translate(601 11986)" fill="#12263f"/>
    <path id="Trazado_880532" data-name="Trazado 880532" d="M7.8,8.508l-.828-.023a1.642,1.642,0,0,0-.863.219,1.722,1.722,0,0,0-.6.617L4.691,15H2.418L3.645,6.547H5.762L5.684,7.789A3.168,3.168,0,0,1,6.6,6.754a1.971,1.971,0,0,1,1.148-.363,1.659,1.659,0,0,1,.309.027q.145.027.285.066Zm3.641,6.656A3.361,3.361,0,0,1,8.648,14a3.71,3.71,0,0,1-.668-2.98l.047-.312a5.35,5.35,0,0,1,1.48-3.129A4.072,4.072,0,0,1,12.52,6.391a2.829,2.829,0,0,1,2.438,1.047,3.7,3.7,0,0,1,.523,2.8l-.172,1.18H10.262l-.016.039a1.957,1.957,0,0,0,.32,1.418,1.6,1.6,0,0,0,1.359.535,4.993,4.993,0,0,0,1.266-.141,9.4,9.4,0,0,0,1.2-.422l.352,1.438a5.365,5.365,0,0,1-1.418.617A6.622,6.622,0,0,1,11.441,15.164Zm.82-7.016a1.462,1.462,0,0,0-1.109.473,2.765,2.765,0,0,0-.641,1.246l.016.047h2.766l.031-.172a1.857,1.857,0,0,0-.141-1.176A.973.973,0,0,0,12.262,8.148Zm8.8,4.508a.665.665,0,0,0-.27-.645,3.385,3.385,0,0,0-1.285-.473,4.649,4.649,0,0,1-2.125-.9,1.721,1.721,0,0,1-.547-1.633,2.747,2.747,0,0,1,1.18-1.863,4.2,4.2,0,0,1,2.563-.754,3.565,3.565,0,0,1,2.441.77,1.95,1.95,0,0,1,.676,1.9l-.016.047h-2.2a1.018,1.018,0,0,0-.215-.832,1.143,1.143,0,0,0-.9-.316,1.458,1.458,0,0,0-.9.273.994.994,0,0,0-.418.672.658.658,0,0,0,.242.641,3.3,3.3,0,0,0,1.289.438,4.721,4.721,0,0,1,2.184.918,1.784,1.784,0,0,1,.535,1.668,2.67,2.67,0,0,1-1.238,1.879,4.719,4.719,0,0,1-2.684.715,3.458,3.458,0,0,1-2.527-.863,2.086,2.086,0,0,1-.684-1.941l.023-.047h2.086a1.041,1.041,0,0,0,.309.984,1.648,1.648,0,0,0,1.059.3,1.741,1.741,0,0,0,.992-.254A.969.969,0,0,0,21.059,12.656Zm11.516-1.648a5.586,5.586,0,0,1-1.3,3.035,3.351,3.351,0,0,1-2.586,1.121,2.354,2.354,0,0,1-1.129-.254,2.107,2.107,0,0,1-.785-.746l-.594,4.086H23.9l1.7-11.7h2.055l-.008,1a3.327,3.327,0,0,1,1.023-.855,2.687,2.687,0,0,1,1.273-.3,2.384,2.384,0,0,1,2.234,1.234,5,5,0,0,1,.422,3.219Zm-2.258-.164A3.941,3.941,0,0,0,30.2,8.895a1.089,1.089,0,0,0-1.113-.73,1.83,1.83,0,0,0-.9.219A2.028,2.028,0,0,0,27.512,9l-.531,3.688a1.167,1.167,0,0,0,.5.539,1.75,1.75,0,0,0,.859.188,1.555,1.555,0,0,0,1.3-.656,3.738,3.738,0,0,0,.652-1.75Zm3.359-.148a5.257,5.257,0,0,1,1.5-3.117,4.264,4.264,0,0,1,3.1-1.187A3.2,3.2,0,0,1,41.012,7.6a4.032,4.032,0,0,1,.641,3.094l-.023.164a5.283,5.283,0,0,1-1.508,3.125,4.277,4.277,0,0,1-3.1,1.18,3.209,3.209,0,0,1-2.742-1.207,3.989,3.989,0,0,1-.625-3.1Zm2.25.164a3.448,3.448,0,0,0,.133,1.867,1.191,1.191,0,0,0,1.211.688,1.649,1.649,0,0,0,1.387-.707,4,4,0,0,0,.691-1.848l.023-.164a3.415,3.415,0,0,0-.145-1.848,1.19,1.19,0,0,0-1.207-.7,1.641,1.641,0,0,0-1.387.719,3.979,3.979,0,0,0-.684,1.828Zm9.75-3.125a3.689,3.689,0,0,1,1.176-.992,3.048,3.048,0,0,1,1.441-.352,2.151,2.151,0,0,1,1.863.832,3.572,3.572,0,0,1,.355,2.6L49.762,15H47.473l.75-5.172a1.9,1.9,0,0,0-.125-1.3,1.022,1.022,0,0,0-.9-.367,2.122,2.122,0,0,0-1.641.742L44.676,15H42.395l1.227-8.453h2.125ZM56.4,12.656a.665.665,0,0,0-.27-.645,3.385,3.385,0,0,0-1.285-.473,4.649,4.649,0,0,1-2.125-.9,1.721,1.721,0,0,1-.547-1.633,2.747,2.747,0,0,1,1.18-1.863,4.2,4.2,0,0,1,2.563-.754,3.565,3.565,0,0,1,2.441.77,1.95,1.95,0,0,1,.676,1.9l-.016.047h-2.2a1.018,1.018,0,0,0-.215-.832,1.143,1.143,0,0,0-.9-.316,1.458,1.458,0,0,0-.9.273.994.994,0,0,0-.418.672.658.658,0,0,0,.242.641,3.3,3.3,0,0,0,1.289.438,4.721,4.721,0,0,1,2.184.918,1.784,1.784,0,0,1,.535,1.668,2.67,2.67,0,0,1-1.238,1.879,4.719,4.719,0,0,1-2.684.715A3.458,3.458,0,0,1,52.18,14.3a2.086,2.086,0,0,1-.684-1.941l.023-.047h2.086a1.041,1.041,0,0,0,.309.984,1.648,1.648,0,0,0,1.059.3,1.741,1.741,0,0,0,.992-.254A.969.969,0,0,0,56.4,12.656Zm7,2.508A3.361,3.361,0,0,1,60.609,14a3.71,3.71,0,0,1-.668-2.98l.047-.312a5.35,5.35,0,0,1,1.48-3.129A4.072,4.072,0,0,1,64.48,6.391a2.829,2.829,0,0,1,2.438,1.047,3.7,3.7,0,0,1,.523,2.8l-.172,1.18H62.223l-.016.039a1.957,1.957,0,0,0,.32,1.418,1.6,1.6,0,0,0,1.359.535,4.993,4.993,0,0,0,1.266-.141,9.4,9.4,0,0,0,1.2-.422l.352,1.438a5.365,5.365,0,0,1-1.418.617A6.622,6.622,0,0,1,63.4,15.164Zm.82-7.016a1.462,1.462,0,0,0-1.109.473,2.765,2.765,0,0,0-.641,1.246l.016.047h2.766l.031-.172a1.857,1.857,0,0,0-.141-1.176A.973.973,0,0,0,64.223,8.148Z" transform="translate(489 11961)" fill="#12263f"/>
    <path id="Trazado_880529" data-name="Trazado 880529" d="M13.7,8.508l-.828-.023A1.642,1.642,0,0,0,12,8.7a1.722,1.722,0,0,0-.6.617L10.586,15H8.313L9.539,6.547h2.117l-.078,1.242a3.168,3.168,0,0,1,.914-1.035,1.971,1.971,0,0,1,1.148-.363,1.659,1.659,0,0,1,.309.027q.145.027.285.066Zm3.641,6.656A3.361,3.361,0,0,1,14.543,14a3.71,3.71,0,0,1-.668-2.98l.047-.312A5.35,5.35,0,0,1,15.4,7.574a4.072,4.072,0,0,1,3.012-1.184,2.829,2.829,0,0,1,2.438,1.047,3.7,3.7,0,0,1,.523,2.8l-.172,1.18H16.156l-.016.039a1.957,1.957,0,0,0,.32,1.418,1.6,1.6,0,0,0,1.359.535,4.993,4.993,0,0,0,1.266-.141,9.4,9.4,0,0,0,1.2-.422l.352,1.438a5.365,5.365,0,0,1-1.418.617A6.622,6.622,0,0,1,17.336,15.164Zm.82-7.016a1.462,1.462,0,0,0-1.109.473,2.765,2.765,0,0,0-.641,1.246l.016.047h2.766l.031-.172a1.857,1.857,0,0,0-.141-1.176A.973.973,0,0,0,18.156,8.148Zm4.109,2.7A6.245,6.245,0,0,1,23.6,7.594a3.3,3.3,0,0,1,2.613-1.2,2.115,2.115,0,0,1,1.176.316,2.321,2.321,0,0,1,.793.9l.367-1.062h1.938l-1.7,11.7H26.508l.586-4.039a3.118,3.118,0,0,1-.984.711,2.865,2.865,0,0,1-1.187.242,2.446,2.446,0,0,1-2.238-1.148,4.376,4.376,0,0,1-.441-3.008Zm2.25.164a3.3,3.3,0,0,0,.117,1.77,1.105,1.105,0,0,0,1.125.637,1.965,1.965,0,0,0,.891-.2,1.925,1.925,0,0,0,.672-.562l.531-3.719a1.272,1.272,0,0,0-.492-.582,1.51,1.51,0,0,0-.82-.207,1.534,1.534,0,0,0-1.32.754,4.63,4.63,0,0,0-.68,1.941Zm11.891,2.766A3.447,3.447,0,0,1,35.266,14.8a2.975,2.975,0,0,1-1.453.359,2.219,2.219,0,0,1-1.945-.91,3.9,3.9,0,0,1-.359-2.809l.711-4.9h2.273l-.711,4.914a2.546,2.546,0,0,0,.07,1.531.948.948,0,0,0,.883.4,2.366,2.366,0,0,0,.953-.184,1.982,1.982,0,0,0,.719-.527l.9-6.133h2.281L38.359,15H36.469Zm7.359,1.391A3.361,3.361,0,0,1,40.973,14a3.71,3.71,0,0,1-.668-2.98l.047-.312a5.35,5.35,0,0,1,1.48-3.129,4.072,4.072,0,0,1,3.012-1.184,2.829,2.829,0,0,1,2.438,1.047,3.7,3.7,0,0,1,.523,2.8l-.172,1.18H42.586l-.016.039a1.957,1.957,0,0,0,.32,1.418,1.6,1.6,0,0,0,1.359.535,4.993,4.993,0,0,0,1.266-.141,9.4,9.4,0,0,0,1.2-.422l.352,1.438a5.365,5.365,0,0,1-1.418.617A6.622,6.622,0,0,1,43.766,15.164Zm.82-7.016a1.462,1.462,0,0,0-1.109.473,2.765,2.765,0,0,0-.641,1.246l.016.047h2.766l.031-.172a1.857,1.857,0,0,0-.141-1.176A.973.973,0,0,0,44.586,8.148Zm8.8,4.508a.665.665,0,0,0-.27-.645,3.385,3.385,0,0,0-1.285-.473,4.649,4.649,0,0,1-2.125-.9,1.721,1.721,0,0,1-.547-1.633,2.747,2.747,0,0,1,1.18-1.863A4.2,4.2,0,0,1,52.9,6.391a3.565,3.565,0,0,1,2.441.77,1.95,1.95,0,0,1,.676,1.9L56,9.109H53.8a1.018,1.018,0,0,0-.215-.832,1.143,1.143,0,0,0-.9-.316,1.458,1.458,0,0,0-.9.273.994.994,0,0,0-.418.672.658.658,0,0,0,.242.641,3.3,3.3,0,0,0,1.289.438,4.721,4.721,0,0,1,2.184.918,1.784,1.784,0,0,1,.535,1.668,2.67,2.67,0,0,1-1.238,1.879,4.719,4.719,0,0,1-2.684.715A3.458,3.458,0,0,1,49.16,14.3a2.086,2.086,0,0,1-.684-1.941l.023-.047h2.086a1.041,1.041,0,0,0,.309.984,1.648,1.648,0,0,0,1.059.3,1.741,1.741,0,0,0,.992-.254A.969.969,0,0,0,53.383,12.656Zm7.531-8.18-.3,2.07h1.43l-.234,1.6H60.383l-.625,4.3a.887.887,0,0,0,.1.711.65.65,0,0,0,.52.2,2.284,2.284,0,0,0,.313-.02A2.514,2.514,0,0,0,61,13.281l-.047,1.648a5.04,5.04,0,0,1-.7.176,4.184,4.184,0,0,1-.719.059,2.116,2.116,0,0,1-1.711-.656,2.538,2.538,0,0,1-.352-2.047L58.1,8.148H56.867l.234-1.6h1.227l.3-2.07Z" transform="translate(489 11871)" fill="#12263f"/>
    <path id="Trazado_880533" data-name="Trazado 880533" d="M34.363,10.719h1.289v1.82H34.363V15H32.105V12.539H27.441l-.1-1.422,4.742-7.492h2.281Zm-4.773,0h2.516V6.7l-.148.258Z" transform="translate(492 11991)" fill="#12263f"/>
    <path id="Trazado_880531" data-name="Trazado 880531" d="M33.168,15H30.91V6.285l-2.7.832V5.3l4.711-1.687h.242Z" transform="translate(492 11901)" fill="#12263f"/>
    <path id="Trazado_880535" data-name="Trazado 880535" d="M6.98,8.313h1.2a1.7,1.7,0,0,0,1.273-.43,1.574,1.574,0,0,0,.414-1.141,1.392,1.392,0,0,0-.41-1.07,1.59,1.59,0,0,0-1.129-.383,1.666,1.666,0,0,0-1.086.355,1.137,1.137,0,0,0-.437.926H4.551a2.777,2.777,0,0,1,.48-1.6A3.2,3.2,0,0,1,6.375,3.867a4.485,4.485,0,0,1,1.9-.4,4.253,4.253,0,0,1,2.828.863,2.945,2.945,0,0,1,1.023,2.379,2.394,2.394,0,0,1-.477,1.438A3.1,3.1,0,0,1,10.4,9.156a2.826,2.826,0,0,1,1.434,1.031,2.8,2.8,0,0,1,.473,1.625,2.994,2.994,0,0,1-1.105,2.43,4.445,4.445,0,0,1-2.926.914,4.214,4.214,0,0,1-2.785-.9A2.934,2.934,0,0,1,4.41,11.883H6.668a1.308,1.308,0,0,0,.48,1.047,1.771,1.771,0,0,0,1.184.406,1.779,1.779,0,0,0,1.262-.426,1.47,1.47,0,0,0,.457-1.129q0-1.7-1.875-1.7H6.98Z" transform="translate(655 11942)" fill="#12263f"/>
    <path id="Trazado_880537" data-name="Trazado 880537" d="M12.48,15h-7.8V13.453l3.68-3.922A9.078,9.078,0,0,0,9.484,8.086a2.322,2.322,0,0,0,.363-1.172,1.738,1.738,0,0,0-.383-1.191,1.382,1.382,0,0,0-1.094-.434,1.49,1.49,0,0,0-1.207.527A2.089,2.089,0,0,0,6.723,7.2H4.457a3.729,3.729,0,0,1,.5-1.9,3.5,3.5,0,0,1,1.4-1.348A4.262,4.262,0,0,1,8.41,3.469a4.036,4.036,0,0,1,2.73.844A2.985,2.985,0,0,1,12.113,6.7a3.825,3.825,0,0,1-.437,1.719,9.551,9.551,0,0,1-1.5,2.039L7.59,13.18H12.48Z" transform="translate(729 11897)" fill="#12263f"/>
    <g id="Icon_ion-md-cube" data-name="Icon ion-md-cube" transform="translate(385.75 11892.228)">
      <path id="Trazado_879422" data-name="Trazado 879422" d="M58.01,11.82a2.5,2.5,0,0,0-1.015.2L21.634,30.356h-.02a5.02,5.02,0,0,0-2.489,4.261V71.63a2.4,2.4,0,0,0,2.529,2.29,2.724,2.724,0,0,0,1.215-.279.435.435,0,0,0,.1-.06L57.751,55.124l.06-.02a5.054,5.054,0,0,0,2.728-4.4V14.109A2.413,2.413,0,0,0,58.01,11.82Z" transform="translate(28.712 17.38)" fill="#3a1d71"/>
      <path id="Trazado_879423" data-name="Trazado 879423" d="M84.064,19.472,47.887,3.206a11.429,11.429,0,0,0-3.305-.956,11.234,11.234,0,0,0-3.285.956L5.08,19.472s-1.593.657-1.593,1.891c0,1.314,1.653,2.29,1.653,2.29L42.073,43.126a6.276,6.276,0,0,0,5.037-.02L84.024,23.614a2.885,2.885,0,0,0,1.493-2.29c.02-1.254-1.453-1.852-1.453-1.852Z" transform="translate(2.168 3)" fill="#3a1d71"/>
      <path id="Trazado_879424" data-name="Trazado 879424" d="M41.174,30.369,5.794,12.012a2.8,2.8,0,0,0-1.015-.2A2.413,2.413,0,0,0,2.25,14.1V50.7a5.054,5.054,0,0,0,2.728,4.4l.04.02L39.8,73.574a2.634,2.634,0,0,0,1.314.338,2.427,2.427,0,0,0,2.529-2.29V34.63a4.976,4.976,0,0,0-2.469-4.261Z" transform="translate(2 17.367)" fill="#3a1d71"/>
    </g>
    <path id="Trazado_880530" data-name="Trazado 880530" d="M9.688-3.609A4.185,4.185,0,0,1,8.355-.824a4.365,4.365,0,0,1-2.98.98,4.008,4.008,0,0,1-3.23-1.445A5.815,5.815,0,0,1,.93-5.156V-6.25A6.481,6.481,0,0,1,1.5-9.039,4.231,4.231,0,0,1,3.1-10.887a4.47,4.47,0,0,1,2.406-.645A4.11,4.11,0,0,1,8.414-10.52a4.235,4.235,0,0,1,1.273,2.8H8.18a3.268,3.268,0,0,0-.848-1.975A2.565,2.565,0,0,0,5.508-10.3,2.684,2.684,0,0,0,3.254-9.241a4.882,4.882,0,0,0-.816,3.026v1.1a5.018,5.018,0,0,0,.773,2.948A2.5,2.5,0,0,0,5.375-1.07a2.887,2.887,0,0,0,1.918-.566A3.143,3.143,0,0,0,8.18-3.609ZM13.078,0H11.633V-12h1.445Zm3.883,0H15.516V-8.453h1.445ZM15.4-10.7a.863.863,0,0,1,.215-.594.807.807,0,0,1,.637-.242.819.819,0,0,1,.641.242.854.854,0,0,1,.219.594.826.826,0,0,1-.219.586.834.834,0,0,1-.641.234.821.821,0,0,1-.637-.234A.834.834,0,0,1,15.4-10.7ZM22.781.156a3.693,3.693,0,0,1-2.8-1.129,4.19,4.19,0,0,1-1.078-3.02v-.266a5.073,5.073,0,0,1,.48-2.246A3.748,3.748,0,0,1,20.73-8.051,3.378,3.378,0,0,1,22.6-8.609a3.166,3.166,0,0,1,2.563,1.086,4.7,4.7,0,0,1,.914,3.109v.6H20.352a3,3,0,0,0,.73,2.02,2.3,2.3,0,0,0,1.777.77,2.517,2.517,0,0,0,1.3-.312,3.259,3.259,0,0,0,.93-.828l.883.688A3.55,3.55,0,0,1,22.781.156ZM22.6-7.422a1.928,1.928,0,0,0-1.469.637A3.1,3.1,0,0,0,20.4-5h4.234v-.109a2.753,2.753,0,0,0-.594-1.707A1.815,1.815,0,0,0,22.6-7.422Zm6.516-1.031.047,1.063A3.08,3.08,0,0,1,31.7-8.609q2.68,0,2.7,3.023V0H32.953V-5.594a1.946,1.946,0,0,0-.418-1.352,1.675,1.675,0,0,0-1.277-.437,2.086,2.086,0,0,0-1.234.375,2.546,2.546,0,0,0-.828.984V0H27.75V-8.453ZM38.539-10.5v2.047h1.578v1.117H38.539v5.249a1.173,1.173,0,0,0,.211.763.888.888,0,0,0,.719.254,3.5,3.5,0,0,0,.688-.094V0a4.215,4.215,0,0,1-1.109.155A1.8,1.8,0,0,1,37.586-.43a2.517,2.517,0,0,1-.492-1.664V-7.336H35.555V-8.453h1.539V-10.5ZM45.313.156a3.693,3.693,0,0,1-2.8-1.129,4.19,4.19,0,0,1-1.078-3.02v-.266a5.073,5.073,0,0,1,.48-2.246,3.748,3.748,0,0,1,1.344-1.547,3.378,3.378,0,0,1,1.871-.559A3.166,3.166,0,0,1,47.7-7.523a4.7,4.7,0,0,1,.914,3.109v.6H42.883a3,3,0,0,0,.73,2.02,2.3,2.3,0,0,0,1.777.77,2.517,2.517,0,0,0,1.3-.312,3.259,3.259,0,0,0,.93-.828l.883.688A3.55,3.55,0,0,1,45.313.156Zm-.18-7.578a1.928,1.928,0,0,0-1.469.637A3.1,3.1,0,0,0,42.93-5h4.234v-.109a2.753,2.753,0,0,0-.594-1.707A1.815,1.815,0,0,0,45.133-7.422Z" transform="translate(408 11923)" fill="#fff"/>
    <path id="Trazado_880538" data-name="Trazado 880538" d="M12.07,3.625l2.922,8.25L17.9,3.625h3.078V15H18.625V11.891l.234-5.367L15.789,15H14.18L11.117,6.531l.234,5.359V15H9.008V3.625ZM22.523,10.7a5.013,5.013,0,0,1,.484-2.242A3.546,3.546,0,0,1,24.4,6.93a4.069,4.069,0,0,1,2.113-.539,3.849,3.849,0,0,1,2.793,1.047,4.2,4.2,0,0,1,1.207,2.844l.016.578a4.418,4.418,0,0,1-1.086,3.121,3.775,3.775,0,0,1-2.914,1.176,3.793,3.793,0,0,1-2.918-1.172,4.5,4.5,0,0,1-1.09-3.187Zm2.258.16a3.16,3.16,0,0,0,.453,1.843,1.628,1.628,0,0,0,2.578.008,3.457,3.457,0,0,0,.461-2.015,3.128,3.128,0,0,0-.461-1.831,1.5,1.5,0,0,0-1.3-.649,1.474,1.474,0,0,0-1.281.646A3.516,3.516,0,0,0,24.781,10.856Zm6.789-.145a5.094,5.094,0,0,1,.887-3.148,2.877,2.877,0,0,1,2.426-1.172,2.589,2.589,0,0,1,2.039.922V3h2.266V15H37.148l-.109-.9a2.657,2.657,0,0,1-2.172,1.055,2.869,2.869,0,0,1-2.395-1.176A5.258,5.258,0,0,1,31.57,10.711Zm2.258.161a3.355,3.355,0,0,0,.414,1.829,1.348,1.348,0,0,0,1.2.636,1.51,1.51,0,0,0,1.477-.887V9.1a1.489,1.489,0,0,0-1.461-.887Q33.828,8.211,33.828,10.872Zm11,4.285A4.15,4.15,0,0,1,41.8,14.016a4.054,4.054,0,0,1-1.168-3.039v-.219a5.106,5.106,0,0,1,.492-2.277A3.612,3.612,0,0,1,42.52,6.934a3.914,3.914,0,0,1,2.059-.543,3.508,3.508,0,0,1,2.73,1.094,4.444,4.444,0,0,1,1,3.1v.922H42.922a2.1,2.1,0,0,0,.66,1.328,2,2,0,0,0,1.395.5,2.437,2.437,0,0,0,2.039-.945l1.109,1.242a3.389,3.389,0,0,1-1.375,1.121A4.511,4.511,0,0,1,44.828,15.156ZM44.57,8.211a1.411,1.411,0,0,0-1.09.455,2.357,2.357,0,0,0-.535,1.3h3.141V9.788a1.681,1.681,0,0,0-.406-1.165A1.456,1.456,0,0,0,44.57,8.211ZM51.969,15H49.7V3h2.266Zm1.508-4.3a5.013,5.013,0,0,1,.484-2.242A3.546,3.546,0,0,1,55.355,6.93a4.069,4.069,0,0,1,2.113-.539,3.849,3.849,0,0,1,2.793,1.047,4.2,4.2,0,0,1,1.207,2.844l.016.578A4.418,4.418,0,0,1,60.4,13.98a4.209,4.209,0,0,1-5.832,0,4.5,4.5,0,0,1-1.09-3.187Zm2.258.16a3.16,3.16,0,0,0,.453,1.843,1.628,1.628,0,0,0,2.578.008,3.457,3.457,0,0,0,.461-2.015,3.128,3.128,0,0,0-.461-1.831,1.5,1.5,0,0,0-1.3-.649,1.474,1.474,0,0,0-1.281.646A3.516,3.516,0,0,0,55.734,10.856Zm-46,16.519a11.99,11.99,0,0,1,.477-3.406,8.989,8.989,0,0,1,1.406-2.863,5.251,5.251,0,0,1,2.016-1.73l.438,1.219A5.438,5.438,0,0,0,12.285,23.2a12.082,12.082,0,0,0-.641,4.125v.242a12.313,12.313,0,0,0,.633,4.141,5.544,5.544,0,0,0,1.789,2.648l-.437,1.2a5.253,5.253,0,0,1-1.98-1.684,8.838,8.838,0,0,1-1.4-2.785,11.918,11.918,0,0,1-.516-3.3ZM15.395,32V20.625h3.984a5.232,5.232,0,0,1,3.141.793,2.712,2.712,0,0,1,1.07,2.324,2.57,2.57,0,0,1-.43,1.473,2.482,2.482,0,0,1-1.2.934,2.4,2.4,0,0,1,1.379.883,2.61,2.61,0,0,1,.5,1.625A3,3,0,0,1,22.8,31.141,4.713,4.713,0,0,1,19.816,32Zm2.344-4.953v3.07h2.008a1.938,1.938,0,0,0,1.293-.395,1.353,1.353,0,0,0,.465-1.09,1.428,1.428,0,0,0-1.617-1.586Zm0-1.656h1.734q1.773-.031,1.773-1.414a1.307,1.307,0,0,0-.449-1.113,2.363,2.363,0,0,0-1.418-.34H17.738ZM25.605,32V20.625H29.59a5.232,5.232,0,0,1,3.141.793,2.712,2.712,0,0,1,1.07,2.324,2.57,2.57,0,0,1-.43,1.473,2.482,2.482,0,0,1-1.2.934,2.4,2.4,0,0,1,1.379.883,2.61,2.61,0,0,1,.5,1.625,3,3,0,0,1-1.047,2.484A4.713,4.713,0,0,1,30.027,32Zm2.344-4.953v3.07h2.008a1.938,1.938,0,0,0,1.293-.395,1.353,1.353,0,0,0,.465-1.09A1.428,1.428,0,0,0,30.1,27.047Zm0-1.656h1.734q1.773-.031,1.773-1.414a1.307,1.307,0,0,0-.449-1.113,2.363,2.363,0,0,0-1.418-.34H27.949ZM35.816,32V20.625h3.5A5.315,5.315,0,0,1,42,21.3a4.712,4.712,0,0,1,1.848,1.922,5.928,5.928,0,0,1,.664,2.832v.523a5.945,5.945,0,0,1-.652,2.82,4.672,4.672,0,0,1-1.84,1.914A5.355,5.355,0,0,1,39.34,32Zm2.344-9.477v7.594h1.133a2.545,2.545,0,0,0,2.1-.9,4.06,4.06,0,0,0,.742-2.57v-.6a4.124,4.124,0,0,0-.719-2.629,2.537,2.537,0,0,0-2.1-.895ZM46.215,32V20.625h3.5A5.315,5.315,0,0,1,52.4,21.3a4.712,4.712,0,0,1,1.848,1.922,5.928,5.928,0,0,1,.664,2.832v.523a5.945,5.945,0,0,1-.652,2.82,4.672,4.672,0,0,1-1.84,1.914,5.355,5.355,0,0,1-2.68.688Zm2.344-9.477v7.594h1.133a2.545,2.545,0,0,0,2.1-.9,4.06,4.06,0,0,0,.742-2.57v-.6a4.124,4.124,0,0,0-.719-2.629,2.537,2.537,0,0,0-2.1-.895Zm11.8,5.031a11.377,11.377,0,0,1-.508,3.4,9.225,9.225,0,0,1-1.461,2.883,5.264,5.264,0,0,1-2.039,1.719l-.437-1.2a5.494,5.494,0,0,0,1.75-2.578,11.939,11.939,0,0,0,.664-4.008v-.414a12.208,12.208,0,0,0-.637-4.117A5.727,5.727,0,0,0,55.91,20.57l.438-1.2a5.265,5.265,0,0,1,2,1.672,9.106,9.106,0,0,1,1.461,2.82,11.3,11.3,0,0,1,.543,3.336Z" transform="translate(790 11931)" fill="#fff"/>
  </g>
</svg>
