<svg xmlns="http://www.w3.org/2000/svg" width="60" height="60" viewBox="0 0 60 60">
  <g id="Grupo_1103615" data-name="Grupo 1103615" transform="translate(-495 -2425)">
    <circle id="Elipse_11572" data-name="Elipse 11572" cx="30" cy="30" r="30" transform="translate(495 2425)" fill="#00ffdf"/>
    <g id="Grupo_1104060" data-name="Grupo 1104060" transform="translate(507.154 2433.159)">
      <g id="Grupo_1104059" data-name="Grupo 1104059" transform="translate(0 3.22)">
        <path id="Trazado_880343" data-name="Trazado 880343" d="M59.324,208.576v-.925c0-.345.387-.636.845-.636a.523.523,0,1,0,0-1.045,1.8,1.8,0,0,0-1.891,1.681v.874a.522.522,0,0,1-.38.445.523.523,0,0,0,0,.989.522.522,0,0,1,.38.446v.874a1.8,1.8,0,0,0,1.891,1.681.523.523,0,0,0,0-1.045c-.458,0-.845-.291-.845-.636v-.925a.521.521,0,0,0-.008-.093,1.731,1.731,0,0,0-.345-.8,1.731,1.731,0,0,0,.345-.8A.522.522,0,0,0,59.324,208.576Z" transform="translate(-53.533 -191.836)" fill="#0b47db"/>
        <path id="Trazado_880344" data-name="Trazado 880344" d="M348.341,296.371a.523.523,0,1,0,0,1.045c.458,0,.845.291.845.636v.925a.517.517,0,0,0,.008.093,1.091,1.091,0,0,1,0,1.593.517.517,0,0,0-.008.093v.925c0,.345-.387.636-.845.636a.523.523,0,1,0,0,1.045,1.8,1.8,0,0,0,1.891-1.681v-.874a.522.522,0,0,1,.38-.445.523.523,0,0,0,0-.989.522.522,0,0,1-.38-.445v-.874A1.8,1.8,0,0,0,348.341,296.371Z" transform="translate(-323.572 -275.935)" fill="#0b47db"/>
        <path id="Trazado_880345" data-name="Trazado 880345" d="M124.07,224.594h1.665a.523.523,0,0,0,0-1.045H124.07a.523.523,0,1,0,0,1.045Z" transform="translate(-114.935 -208.19)" fill="#0b47db"/>
        <path id="Trazado_880346" data-name="Trazado 880346" d="M124.07,382.715H136.6a.523.523,0,1,0,0-1.045H124.07a.523.523,0,1,0,0,1.045Z" transform="translate(-114.935 -355.288)" fill="#0b47db"/>
        <path id="Trazado_880347" data-name="Trazado 880347" d="M124.07,287.842h1.665a.523.523,0,0,0,0-1.045H124.07a.523.523,0,1,0,0,1.045Z" transform="translate(-114.935 -267.029)" fill="#0b47db"/>
        <path id="Trazado_880348" data-name="Trazado 880348" d="M124.07,319.466h1.665a.523.523,0,0,0,0-1.045H124.07a.523.523,0,1,0,0,1.045Z" transform="translate(-114.935 -296.448)" fill="#0b47db"/>
        <path id="Trazado_880349" data-name="Trazado 880349" d="M230.127,350.045a.523.523,0,1,0,0,1.045h1.665a.523.523,0,1,0,0-1.045Z" transform="translate(-213.598 -325.868)" fill="#0b47db"/>
        <path id="Trazado_880350" data-name="Trazado 880350" d="M124.07,351.09h4.944a.523.523,0,1,0,0-1.045H124.07a.523.523,0,1,0,0,1.045Z" transform="translate(-114.935 -325.868)" fill="#0b47db"/>
        <path id="Trazado_880351" data-name="Trazado 880351" d="M183.223,286.8a.523.523,0,1,0,0,1.045h1.665a.523.523,0,1,0,0-1.045Z" transform="translate(-169.964 -267.029)" fill="#0b47db"/>
        <path id="Trazado_880352" data-name="Trazado 880352" d="M241.483,287.32a.523.523,0,0,0-.523-.523h-4.709a.523.523,0,1,0,0,1.045h4.709A.523.523,0,0,0,241.483,287.32Z" transform="translate(-219.296 -267.029)" fill="#0b47db"/>
        <path id="Trazado_880353" data-name="Trazado 880353" d="M194.721,223.549h-11.5a.523.523,0,1,0,0,1.045h11.5a.523.523,0,1,0,0-1.045Z" transform="translate(-169.964 -208.19)" fill="#0b47db"/>
        <path id="Trazado_880354" data-name="Trazado 880354" d="M124.07,256.218H136.6a.523.523,0,1,0,0-1.045H124.07a.523.523,0,1,0,0,1.045Z" transform="translate(-114.935 -237.609)" fill="#0b47db"/>
        <path id="Trazado_880355" data-name="Trazado 880355" d="M58.068,449.937a.523.523,0,0,0,.523-.523v-1.437a.523.523,0,1,0-1.045,0v1.437A.523.523,0,0,0,58.068,449.937Z" transform="translate(-53.534 -416.487)" fill="#0b47db"/>
        <path id="Trazado_880356" data-name="Trazado 880356" d="M34.812,8.855h-.933a5.68,5.68,0,0,0-.43-1.038l.66-.66a.88.88,0,0,0,0-1.243L33,4.8a.879.879,0,0,0-1.243,0l-.66.66a5.682,5.682,0,0,0-1.038-.43V4.1a.88.88,0,0,0-.879-.879H27.6a.88.88,0,0,0-.879.879v.933a5.68,5.68,0,0,0-1.038.43l-.66-.66a.879.879,0,0,0-1.243,0L22.672,5.914a.88.88,0,0,0,0,1.243l.66.66a5.68,5.68,0,0,0-.43,1.038h-.933a.88.88,0,0,0-.879.879v.911H1.607A1.609,1.609,0,0,0,0,12.252V24.739a.523.523,0,0,0,1.045,0V15.618H23.163l.621.621a.88.88,0,0,0,1.243,0l.66-.66a5.673,5.673,0,0,0,1.038.43v.933a.88.88,0,0,0,.879.879h1.572a.88.88,0,0,0,.879-.879V16.01c.1-.031.2-.066.3-.1V32.395H1.045V27.151a.523.523,0,0,0-1.045,0v9.7a1.609,1.609,0,0,0,1.607,1.607H29.8a1.609,1.609,0,0,0,1.607-1.607V15.89l.349.349a.88.88,0,0,0,1.243,0l1.112-1.112a.88.88,0,0,0,0-1.243l-.66-.66a5.68,5.68,0,0,0,.43-1.038h.933a.88.88,0,0,0,.879-.879V9.735a.88.88,0,0,0-.879-.879Zm-4.452,28a.562.562,0,0,1-.562.562H1.607a.562.562,0,0,1-.562-.562V33.44H30.36v3.416ZM22.672,13.884a.873.873,0,0,0-.258.622c0,.019,0,.037,0,.055H1.045V12.252a.562.562,0,0,1,.562-.562H21.179a.879.879,0,0,0,.79.5H22.9a5.678,5.678,0,0,0,.43,1.038Zm11.974-2.743H33.477a.523.523,0,0,0-.51.409,4.65,4.65,0,0,1-.613,1.48.523.523,0,0,0,.072.65l.827.827-.877.877-.827-.827a.523.523,0,0,0-.65-.072,4.649,4.649,0,0,1-1.48.613.523.523,0,0,0-.409.51v1.169h-1.24V15.607a.523.523,0,0,0-.409-.51,4.65,4.65,0,0,1-1.48-.613.523.523,0,0,0-.65.072l-.827.827-.877-.877.827-.827a.523.523,0,0,0,.072-.65,4.649,4.649,0,0,1-.613-1.48.523.523,0,0,0-.51-.409H22.135V9.9H23.3a.523.523,0,0,0,.51-.409,4.648,4.648,0,0,1,.613-1.48.523.523,0,0,0-.072-.65l-.827-.827.877-.877.827.827a.523.523,0,0,0,.65.072,4.649,4.649,0,0,1,1.48-.613.523.523,0,0,0,.409-.51V4.265h1.24V5.435a.523.523,0,0,0,.409.51,4.649,4.649,0,0,1,1.48.613.523.523,0,0,0,.65-.072l.827-.827.877.877-.827.827a.523.523,0,0,0-.072.65,4.649,4.649,0,0,1,.613,1.48.523.523,0,0,0,.51.409h1.169v1.24Z" transform="translate(0 -3.22)" fill="#0b47db"/>
        <path id="Trazado_880357" data-name="Trazado 880357" d="M361.2,57.444a.523.523,0,0,0-.225.7,2.586,2.586,0,0,1,.2,1.759,1.6,1.6,0,0,0-1.095-.432h-4c0-.086,0-.172,0-.259a2.616,2.616,0,0,1,2.455-2.458,2.586,2.586,0,0,1,.95.129.523.523,0,1,0,.328-.993,3.633,3.633,0,0,0-1.332-.181,3.642,3.642,0,0,0,.2,7.278,3.587,3.587,0,0,0,3.107-1.806,3.71,3.71,0,0,0,.118-3.516A.523.523,0,0,0,361.2,57.444Zm-2.392,4.5a2.571,2.571,0,0,1-1.97-.757,2.606,2.606,0,0,1-.484-.666h3.727a.562.562,0,0,1,.557.493A2.482,2.482,0,0,1,358.81,61.943Z" transform="translate(-330.286 -52.05)" fill="#0b47db"/>
      </g>
    </g>
  </g>
</svg>
