<svg xmlns="http://www.w3.org/2000/svg" width="90" height="90" viewBox="0 0 90 90">
  <g id="Grupo_1103429" data-name="Grupo 1103429" transform="translate(6686 2275)">
    <rect id="Rectángulo_403687" data-name="Rectángulo 403687" width="90" height="90" rx="10" transform="translate(-6686 -2275)" fill="#00ffdf"/>
    <g id="Grupo_1103430" data-name="Grupo 1103430" transform="translate(-6671.04 -2268.829)">
      <path id="Trazado_879401" data-name="Trazado 879401" d="M54.506,16.436H53.5V13.563a3.61,3.61,0,0,0-3.606-3.606H19.641a.88.88,0,1,0,0,1.76h30.25a1.848,1.848,0,0,1,1.846,1.845v2.873H8.343V13.563a1.848,1.848,0,0,1,1.845-1.845h5.568a.88.88,0,1,0,0-1.76H10.189a3.61,3.61,0,0,0-3.606,3.606v2.873H5.574A5.58,5.58,0,0,0,0,22.01V54.751a5.58,5.58,0,0,0,5.574,5.574H21.467L19.673,65.94H17.738a.88.88,0,1,0,0,1.76h24.6a.88.88,0,1,0,0-1.76H40.407l-1.794-5.615H54.506a5.58,5.58,0,0,0,5.574-5.574V22.009A5.58,5.58,0,0,0,54.506,16.436ZM21.521,65.94l1.785-5.586H36.775l1.785,5.586ZM54.506,18.2a3.818,3.818,0,0,1,3.814,3.814V49.058H53.5V18.2Zm-2.77,0V49.058H48.113V47.123a1.964,1.964,0,0,0-2.262-1.941l-1.283.2a.2.2,0,0,1-.226-.144,15,15,0,0,0-.89-2.143.2.2,0,0,1,.063-.25l1.048-.769A1.964,1.964,0,0,0,44.79,39.1L40.849,35.16a1.964,1.964,0,0,0-2.972.227l-.768,1.048a.2.2,0,0,1-.25.063,14.991,14.991,0,0,0-2.143-.89.206.206,0,0,1-.144-.226l.2-1.283a1.964,1.964,0,0,0-1.941-2.262H27.253A1.964,1.964,0,0,0,25.312,34.1l.2,1.283a.206.206,0,0,1-.144.226,15.013,15.013,0,0,0-2.144.89.2.2,0,0,1-.25-.063L22.2,35.387a1.964,1.964,0,0,0-2.972-.227L15.29,39.1a1.964,1.964,0,0,0,.227,2.972l1.048.769a.2.2,0,0,1,.063.25,15,15,0,0,0-.89,2.144.207.207,0,0,1-.226.144l-1.283-.2a1.964,1.964,0,0,0-2.262,1.941v1.934H8.343V18.2ZM41.822,49.058H39.911a9.848,9.848,0,0,0-1.63-4.648.88.88,0,0,0-1.463.978,8.093,8.093,0,0,1,1.324,3.67h-16.2a8.149,8.149,0,0,1,12.045-6.278.88.88,0,0,0,.853-1.539A9.91,9.91,0,0,0,20.17,49.058H13.727V47.123a.2.2,0,0,1,.235-.2l1.283.2a1.959,1.959,0,0,0,2.166-1.337,13.238,13.238,0,0,1,.785-1.891,1.952,1.952,0,0,0-.59-2.469l-1.048-.768a.2.2,0,0,1-.024-.308L20.475,36.4a.2.2,0,0,1,.308.024l.769,1.048a1.952,1.952,0,0,0,2.469.59,13.235,13.235,0,0,1,1.891-.785,1.96,1.96,0,0,0,1.337-2.166l-.2-1.283a.2.2,0,0,1,.2-.235h5.573a.2.2,0,0,1,.2.235l-.2,1.283a1.96,1.96,0,0,0,1.337,2.166,13.245,13.245,0,0,1,1.891.785,1.952,1.952,0,0,0,2.469-.59l.769-1.048A.2.2,0,0,1,39.6,36.4l3.941,3.941a.2.2,0,0,1-.023.308l-1.048.769a1.952,1.952,0,0,0-.59,2.469,13.234,13.234,0,0,1,.785,1.891,1.96,1.96,0,0,0,2.166,1.337l1.283-.2a.2.2,0,0,1,.235.2v1.934H41.822ZM5.574,18.2H6.583V49.058H1.76V22.009A3.818,3.818,0,0,1,5.574,18.2ZM54.506,58.564H5.574A3.818,3.818,0,0,1,1.76,54.751V50.818H58.32v3.933A3.818,3.818,0,0,1,54.506,58.564Z" fill="#3a1d71"/>
      <path id="Trazado_879402" data-name="Trazado 879402" d="M244.44,383.68h-1.515a.88.88,0,0,0,0,1.76h1.515a.88.88,0,1,0,0-1.76Z" transform="translate(-213.642 -329.869)" fill="#3a1d71"/>
      <path id="Trazado_879403" data-name="Trazado 879403" d="M334.96,41.018a.88.88,0,0,0,0-1.76h-.824a.88.88,0,0,0,0,1.76Z" transform="translate(-294.15 -25.863)" fill="#3a1d71"/>
      <path id="Trazado_879404" data-name="Trazado 879404" d="M365.84,41.018a.88.88,0,0,0,0-1.76h-.824a.88.88,0,0,0,0,1.76Z" transform="translate(-321.407 -25.863)" fill="#3a1d71"/>
      <path id="Trazado_879405" data-name="Trazado 879405" d="M396.722,41.018a.88.88,0,0,0,0-1.76H395.9a.88.88,0,0,0,0,1.76Z" transform="translate(-348.665 -25.863)" fill="#3a1d71"/>
      <path id="Trazado_879406" data-name="Trazado 879406" d="M280.652,117.017a.88.88,0,0,0,1.245,0l2.374-2.374a.88.88,0,0,0,0-1.245l-2.374-2.374a.88.88,0,1,0-1.245,1.245l1.752,1.752-1.752,1.752a.88.88,0,0,0,0,1.245Z" transform="translate(-247.492 -88.981)" fill="#3a1d71"/>
      <path id="Trazado_879407" data-name="Trazado 879407" d="M199.007,117.017a.88.88,0,1,0,1.245-1.245l-1.752-1.752,1.752-1.752a.88.88,0,1,0-1.245-1.245l-2.374,2.374a.88.88,0,0,0,0,1.245Z" transform="translate(-173.332 -88.981)" fill="#3a1d71"/>
      <path id="Trazado_879408" data-name="Trazado 879408" d="M244.168,117.247a.879.879,0,0,0,1.065-.643l1.173-4.748a.88.88,0,0,0-1.709-.422l-1.173,4.748A.88.88,0,0,0,244.168,117.247Z" transform="translate(-214.926 -88.978)" fill="#3a1d71"/>
    </g>
  </g>
</svg>
