<svg xmlns="http://www.w3.org/2000/svg" width="90" height="90" viewBox="0 0 90 90">
  <g id="Grupo_1103432" data-name="Grupo 1103432" transform="translate(6686 2275)">
    <rect id="Rectángulo_403687" data-name="Rectángulo 403687" width="90" height="90" rx="10" transform="translate(-6686 -2275)" fill="#00ffdf"/>
    <g id="Grupo_1103433" data-name="Grupo 1103433" transform="translate(-6676.315 -2295.971)">
      <path id="Trazado_879409" data-name="Trazado 879409" d="M249.535,72.3a1.035,1.035,0,0,0,1.035-1.035V69.6a1.035,1.035,0,1,0-2.069,0v1.659A1.035,1.035,0,0,0,249.535,72.3Z" transform="translate(-214.22 -28.454)" fill="#3a1d71"/>
      <path id="Trazado_879410" data-name="Trazado 879410" d="M286.467,91.792a1.035,1.035,0,0,0,1.457-.132l1.062-1.274a1.035,1.035,0,1,0-1.589-1.325l-1.062,1.274A1.035,1.035,0,0,0,286.467,91.792Z" transform="translate(-246.628 -45.798)" fill="#3a1d71"/>
      <path id="Trazado_879411" data-name="Trazado 879411" d="M204.509,91.66a1.035,1.035,0,1,0,1.589-1.325l-1.062-1.274a1.035,1.035,0,0,0-1.589,1.325Z" transform="translate(-175.175 -45.798)" fill="#3a1d71"/>
      <path id="Trazado_879412" data-name="Trazado 879412" d="M211.767,114.571a1.879,1.879,0,0,0,.5,1.963l1.408,1.329-.358,1.9a1.891,1.891,0,0,0,2.77,2.013l1.7-.929,1.7.929a1.894,1.894,0,0,0,2.77-2.013l-.358-1.9,1.408-1.329a1.894,1.894,0,0,0-1.058-3.257l-1.92-.247-.829-1.75a1.894,1.894,0,0,0-3.424,0l-.828,1.75-1.92.247A1.879,1.879,0,0,0,211.767,114.571Zm3.839.5a1.886,1.886,0,0,0,1.47-1.068l.711-1.5.711,1.5a1.886,1.886,0,0,0,1.47,1.068l1.648.212-1.209,1.141a1.887,1.887,0,0,0-.562,1.728l.307,1.633-1.458-.8a1.886,1.886,0,0,0-1.817,0l-1.458.8.307-1.633a1.886,1.886,0,0,0-.562-1.728l-1.209-1.141Z" transform="translate(-182.472 -64.339)" fill="#3a1d71"/>
      <path id="Trazado_879413" data-name="Trazado 879413" d="M68.216,85.069h-.832V51.694a7.262,7.262,0,0,0-7.253-7.253H48.215a13.8,13.8,0,0,0-26.7,5.018c0,.257.011.512.028.767H12.654A3.8,3.8,0,0,0,8.86,54.02v31.05H5.315V51.694A5.19,5.19,0,0,1,10.5,46.51h7.222a1.035,1.035,0,1,0,0-2.069H10.5a7.262,7.262,0,0,0-7.253,7.253V85.069H2.414A2.417,2.417,0,0,0,0,87.483v2.64A6.264,6.264,0,0,0,6.257,96.38H45.768a1.035,1.035,0,1,0,0-2.069H6.257a4.192,4.192,0,0,1-4.188-4.188v-2.64a.345.345,0,0,1,.345-.345h65.8a.345.345,0,0,1,.345.345v2.64a4.192,4.192,0,0,1-4.188,4.188H50.6a1.035,1.035,0,1,0,0,2.069H64.373a6.264,6.264,0,0,0,6.257-6.257v-2.64A2.417,2.417,0,0,0,68.216,85.069ZM35.226,37.632a11.73,11.73,0,0,1,11.819,11.73,11.768,11.768,0,0,1-3.767,8.613,11.253,11.253,0,0,0-2.915,4.834l-10.1,0a11.405,11.405,0,0,0-2.935-4.856,11.62,11.62,0,0,1-3.742-8.507A11.745,11.745,0,0,1,35.226,37.632Zm5.22,27.247a.083.083,0,0,1,.082.083v2.932a.083.083,0,0,1-.083.083H30.185a.083.083,0,0,1-.083-.083V64.96a.08.08,0,0,1,.024-.059.078.078,0,0,1,.058-.024l10.262,0Zm-1.155,5.168a2.574,2.574,0,0,1-2.5,1.977H33.84a2.574,2.574,0,0,1-2.5-1.977ZM10.93,85.069V54.02A1.726,1.726,0,0,1,12.654,52.3h9.18a13.864,13.864,0,0,0,4.083,7.171,9.423,9.423,0,0,1,2.473,4.3,2.138,2.138,0,0,0-.357,1.189v2.934a2.153,2.153,0,0,0,1.184,1.92,4.644,4.644,0,0,0,4.624,4.279h2.95a4.644,4.644,0,0,0,4.624-4.279,2.153,2.153,0,0,0,1.184-1.92V64.962a2.14,2.14,0,0,0-.361-1.192,9.282,9.282,0,0,1,2.447-4.276A13.847,13.847,0,0,0,48.8,52.3h9.18A1.726,1.726,0,0,1,59.7,54.02V85.07H10.93Zm50.84,0V54.02a3.8,3.8,0,0,0-3.794-3.794h-8.89c.018-.287.029-.575.029-.864a13.931,13.931,0,0,0-.294-2.852H60.13a5.19,5.19,0,0,1,5.184,5.184V85.069Z" fill="#3a1d71"/>
      <path id="Trazado_879414" data-name="Trazado 879414" d="M108.988,258.29h6.623a1.035,1.035,0,0,0,0-2.069h-6.623a1.035,1.035,0,1,0,0,2.069Z" transform="translate(-93.061 -190.219)" fill="#3a1d71"/>
      <path id="Trazado_879415" data-name="Trazado 879415" d="M108.988,290.972H117.2a1.035,1.035,0,1,0,0-2.069h-8.214a1.035,1.035,0,1,0,0,2.069Z" transform="translate(-93.061 -218.393)" fill="#3a1d71"/>
      <path id="Trazado_879416" data-name="Trazado 879416" d="M120.592,321.584h-11.6a1.035,1.035,0,1,0,0,2.069h11.6a1.035,1.035,0,1,0,0-2.069Z" transform="translate(-93.061 -246.565)" fill="#3a1d71"/>
      <path id="Trazado_879417" data-name="Trazado 879417" d="M120.592,354.266h-11.6a1.035,1.035,0,1,0,0,2.069h11.6a1.035,1.035,0,1,0,0-2.069Z" transform="translate(-93.061 -274.739)" fill="#3a1d71"/>
      <path id="Trazado_879418" data-name="Trazado 879418" d="M348.691,256.221h-6.623a1.035,1.035,0,0,0,0,2.069h6.623a1.035,1.035,0,0,0,0-2.069Z" transform="translate(-293.988 -190.219)" fill="#3a1d71"/>
      <path id="Trazado_879419" data-name="Trazado 879419" d="M338.75,288.9h-8.214a1.035,1.035,0,1,0,0,2.069h8.214a1.035,1.035,0,1,0,0-2.069Z" transform="translate(-284.047 -218.393)" fill="#3a1d71"/>
      <path id="Trazado_879420" data-name="Trazado 879420" d="M317.567,321.584h-11.6a1.035,1.035,0,0,0,0,2.069h11.6a1.035,1.035,0,1,0,0-2.069Z" transform="translate(-262.863 -246.565)" fill="#3a1d71"/>
      <path id="Trazado_879421" data-name="Trazado 879421" d="M317.567,354.266h-11.6a1.035,1.035,0,0,0,0,2.069h11.6a1.035,1.035,0,1,0,0-2.069Z" transform="translate(-262.863 -274.739)" fill="#3a1d71"/>
    </g>
  </g>
</svg>
