<svg xmlns="http://www.w3.org/2000/svg" width="60" height="60" viewBox="0 0 60 60">
  <g id="Grupo_1103202" data-name="Grupo 1103202" transform="translate(-405 -1662)">
    <circle id="Elipse_11666" data-name="Elipse 11666" cx="30" cy="30" r="30" transform="translate(405 1662)" fill="#debefb"/>
    <g id="Grupo_1103210" data-name="Grupo 1103210" transform="translate(406.778 1663.838)">
      <path id="Trazado_878595" data-name="Trazado 878595" d="M45.835,17.728h-.847a5.871,5.871,0,1,0-8.743,0H28.222V11.2a.652.652,0,0,0-.652-.652H24.961a.652.652,0,0,0-.652.652v6.523h-.652V8.6A.652.652,0,0,0,23,7.943H20.394a.652.652,0,0,0-.652.652v9.133H19.09V13.162a.652.652,0,0,0-.652-.652H15.828a.652.652,0,0,0-.652.652v4.566H10.609A2.612,2.612,0,0,0,8,20.337v19.57a2.612,2.612,0,0,0,2.609,2.609H24.056l-.87,2.609H21.047a.652.652,0,0,0-.652.652v1.3H13.871a.652.652,0,0,0,0,1.3h28.7a.652.652,0,0,0,0-1.3H36.05v-1.3a.652.652,0,0,0-.652-.652H33.259l-.87-2.609H45.835a2.612,2.612,0,0,0,2.609-2.609V20.337A2.612,2.612,0,0,0,45.835,17.728ZM41.269,9.295a4.575,4.575,0,0,1,3.867,3.867H41.269Zm-.382,5.171h4.249a4.563,4.563,0,0,1-7.252,3Zm-4.836-.652a4.573,4.573,0,0,1,3.914-4.519v4.249l-3,3a4.542,4.542,0,0,1-.911-2.733ZM25.613,11.857h1.3V24.251h-1.3Zm-1.957,7.176h.652v5.219h-.652ZM21.047,9.248h1.3v15h-1.3ZM19.09,19.033h.652v5.219H19.09ZM16.48,13.814h1.3V24.251h-1.3ZM34.746,46.431v.652H21.7v-.652Zm-10.185-1.3.87-2.609h5.582l.87,2.609ZM47.14,39.907a1.306,1.306,0,0,1-1.3,1.3H10.609a1.306,1.306,0,0,1-1.3-1.3V38.6H47.14Zm0-2.609H9.3V20.337a1.306,1.306,0,0,1,1.3-1.3h4.566v5.219h-.652V20.337a.652.652,0,0,0-.652-.652H11.262a.652.652,0,0,0-.652.652V24.9a.652.652,0,0,0,.652.652H32.136a.652.652,0,0,0,.652-.652V20.337a.652.652,0,0,0-.652-.652H29.527a.652.652,0,0,0-.652.652v3.914h-.652V19.033h9.71a5.849,5.849,0,0,0,5.369,0h2.534a1.306,1.306,0,0,1,1.3,1.3ZM13.219,20.99v3.262h-1.3V20.99Zm16.961,3.262V20.99h1.3v3.262Z" transform="translate(0 0)" fill="#3a1d71"/>
      <path id="Trazado_878596" data-name="Trazado 878596" d="M44.566,392H40.652a.652.652,0,0,0,0,1.3h3.914a.652.652,0,0,0,0-1.3Z" transform="translate(-29.391 -352.745)" fill="#3a1d71"/>
      <path id="Trazado_878597" data-name="Trazado 878597" d="M113.3,392h-.652a.652.652,0,0,0,0,1.3h.652a.652.652,0,0,0,0-1.3Z" transform="translate(-95.52 -352.745)" fill="#3a1d71"/>
      <path id="Trazado_878598" data-name="Trazado 878598" d="M336.652,163.914a.65.65,0,0,0,.461-.191l2.418-2.418h5.6a.652.652,0,1,0,0-1.3h-5.871a.652.652,0,0,0-.461.191l-2.609,2.609a.652.652,0,0,0,.461,1.114Z" transform="translate(-301.254 -139.663)" fill="#3a1d71"/>
      <path id="Trazado_878599" data-name="Trazado 878599" d="M73.242,244.566a1.957,1.957,0,0,0-1.692.976l-6.829-3.984a1.957,1.957,0,0,0-3.841.049l-6.872,5.154a1.955,1.955,0,0,0-3.382.178l-6.792-2.83a1.958,1.958,0,1,0-.16,1.346l6.792,2.83a1.957,1.957,0,0,0,3.828-.108l6.872-5.154a1.955,1.955,0,0,0,3.332-.086l6.829,3.984a1.957,1.957,0,1,0,1.916-2.356Zm-30.66,0a.654.654,0,1,1-.655-.656.654.654,0,0,1,.655.656Zm9.785,3.911a.653.653,0,0,1-.652-.652v0a.652.652,0,1,1,.652.656ZM62.8,242.609a.652.652,0,1,1,.652-.652A.652.652,0,0,1,62.8,242.609Zm10.437,4.566a.652.652,0,1,1,.652-.652A.652.652,0,0,1,73.242,247.176Z" transform="translate(-29.364 -213.139)" fill="#3a1d71"/>
      <path id="Trazado_878600" data-name="Trazado 878600" d="M325.219,344h-4.566a.652.652,0,0,0,0,1.3h4.566a.652.652,0,1,0,0-1.3Z" transform="translate(-286.559 -308.659)" fill="#3a1d71"/>
      <path id="Trazado_878601" data-name="Trazado 878601" d="M354.609,320h-1.957a.652.652,0,0,0,0,1.3h1.957a.652.652,0,1,0,0-1.3Z" transform="translate(-315.95 -286.616)" fill="#3a1d71"/>
      <path id="Trazado_878602" data-name="Trazado 878602" d="M40.652,233.3h7.176a.652.652,0,0,0,0-1.3H40.652a.652.652,0,0,0,0,1.3Z" transform="translate(-29.391 -205.792)" fill="#3a1d71"/>
      <path id="Trazado_878603" data-name="Trazado 878603" d="M152.652,233.3h.652a.652.652,0,1,0,0-1.3h-.652a.652.652,0,1,0,0,1.3Z" transform="translate(-132.258 -205.792)" fill="#3a1d71"/>
    </g>
  </g>
</svg>
