<svg xmlns="http://www.w3.org/2000/svg" width="641" height="195" viewBox="0 0 641 195">
  <g id="Grupo_1103537" data-name="Grupo 1103537" transform="translate(-495 -3978)">
    <rect id="Rectángulo_403780" data-name="Rectángulo 403780" width="135.5" height="165.5" rx="10" transform="translate(715.5 4007)" fill="#beb4d0"/>
    <path id="Trazado_880535" data-name="Trazado 880535" d="M24.949,15H23.48l.914-5.258H18.84L17.926,15H16.457L18.434,3.625H19.9l-.852,4.891H24.6l.852-4.891h1.477Zm3.961,0H27.5l1.469-8.453h1.406Zm.336-10.672a.886.886,0,0,1,.234-.609.826.826,0,0,1,.594-.258.841.841,0,0,1,.34.051.755.755,0,0,1,.438.438.917.917,0,0,1,.059.332.834.834,0,0,1-.836.852.779.779,0,0,1-.6-.211A.764.764,0,0,1,29.246,4.328Zm9.648,6.484a7.591,7.591,0,0,1-.2,1.043,6.209,6.209,0,0,1-.367,1.016,5.353,5.353,0,0,1-.535.91,3.713,3.713,0,0,1-.707.734,3.121,3.121,0,0,1-.9.488,3.033,3.033,0,0,1-1.094.16,3.221,3.221,0,0,1-1.289-.289,2.359,2.359,0,0,1-.984-.859L32.527,15h-1.3L33.309,3h1.414l-.852,4.484a3.366,3.366,0,0,1,1.109-.828,3.08,3.08,0,0,1,1.359-.266,2.668,2.668,0,0,1,1,.2,2.262,2.262,0,0,1,.734.5,2.558,2.558,0,0,1,.492.734,4.145,4.145,0,0,1,.281.887,5.583,5.583,0,0,1,.105.965,6.911,6.911,0,0,1-.043.965ZM37.5,10.648a6.481,6.481,0,0,0,.047-.656,4.912,4.912,0,0,0-.031-.68,3.106,3.106,0,0,0-.141-.637,1.739,1.739,0,0,0-.289-.535,1.373,1.373,0,0,0-.473-.375,1.7,1.7,0,0,0-.691-.156,2.214,2.214,0,0,0-.7.09,2.44,2.44,0,0,0-.6.273,2.631,2.631,0,0,0-.512.426,4.335,4.335,0,0,0-.43.539l-.633,3.68a2.117,2.117,0,0,0,.656.953,1.772,1.772,0,0,0,1.1.367,1.987,1.987,0,0,0,1.117-.258,2.588,2.588,0,0,0,.789-.734,3.764,3.764,0,0,0,.5-1.02,6.155,6.155,0,0,0,.254-1.113Zm6.016,4.508a3.229,3.229,0,0,1-1.5-.355A2.9,2.9,0,0,1,41,13.9a3.588,3.588,0,0,1-.551-1.289,4.959,4.959,0,0,1-.09-1.516l.039-.336a5.9,5.9,0,0,1,.23-1.078,5.8,5.8,0,0,1,.434-1.031,5.009,5.009,0,0,1,.629-.91,4.188,4.188,0,0,1,.813-.723,3.766,3.766,0,0,1,.977-.473,3.4,3.4,0,0,1,1.129-.152,2.832,2.832,0,0,1,1.453.387,2.593,2.593,0,0,1,.9.945,3.62,3.62,0,0,1,.418,1.316,5.789,5.789,0,0,1-.008,1.5l-.094.648H41.77a3.463,3.463,0,0,0,0,.984,2.508,2.508,0,0,0,.293.887,1.849,1.849,0,0,0,.613.648,1.821,1.821,0,0,0,.961.27,2.5,2.5,0,0,0,1.289-.3,4.153,4.153,0,0,0,1.039-.824l.813.688a3.649,3.649,0,0,1-.641.711,3.82,3.82,0,0,1-.777.512,3.689,3.689,0,0,1-.883.3A4.308,4.308,0,0,1,43.52,15.156ZM44.535,7.57a1.907,1.907,0,0,0-.957.188,2.521,2.521,0,0,0-.734.559,3.623,3.623,0,0,0-.543.789,6.151,6.151,0,0,0-.375.895l4.109.016.031-.141a2.888,2.888,0,0,0,.008-.82,1.968,1.968,0,0,0-.242-.73,1.548,1.548,0,0,0-.508-.531A1.521,1.521,0,0,0,44.535,7.57Zm9.031.266a5.626,5.626,0,0,0-.664-.07,2.338,2.338,0,0,0-1.238.32,2.8,2.8,0,0,0-.9.906L49.723,15H48.309l1.469-8.453,1.367-.008-.211.984a3.41,3.41,0,0,1,.914-.844,2.137,2.137,0,0,1,1.2-.3,1.637,1.637,0,0,1,.344.035q.164.035.328.082Zm2.875-1.3-.2,1.07a4.182,4.182,0,0,1,1.164-.9,2.93,2.93,0,0,1,1.43-.32,2.416,2.416,0,0,1,1.129.266,1.9,1.9,0,0,1,.707.668A2.493,2.493,0,0,1,61,8.3a4.809,4.809,0,0,1,.016,1.164L60.1,15H58.684l.93-5.562a2.968,2.968,0,0,0,.008-.711,1.462,1.462,0,0,0-.184-.574,1.034,1.034,0,0,0-.414-.391,1.517,1.517,0,0,0-.691-.152,2.044,2.044,0,0,0-.687.1,2.486,2.486,0,0,0-.6.289,2.908,2.908,0,0,0-.516.438,4.694,4.694,0,0,0-.434.535L55.051,15H53.637l1.469-8.453ZM67.418,15a1.893,1.893,0,0,1-.055-.445,4.326,4.326,0,0,1,.023-.445,4.514,4.514,0,0,1-1.133.77,2.923,2.923,0,0,1-1.336.277,2.882,2.882,0,0,1-.992-.184,2.357,2.357,0,0,1-.8-.5,2.161,2.161,0,0,1-.516-.766,2.276,2.276,0,0,1-.148-.992,2.59,2.59,0,0,1,.426-1.352,2.918,2.918,0,0,1,.957-.879,4.286,4.286,0,0,1,1.281-.477,6.93,6.93,0,0,1,1.4-.145L68,9.875,68.1,9.2a2,2,0,0,0-.031-.668,1.255,1.255,0,0,0-.25-.52,1.192,1.192,0,0,0-.465-.34,1.774,1.774,0,0,0-.66-.129,2.374,2.374,0,0,0-.648.074,2.086,2.086,0,0,0-.59.25,1.75,1.75,0,0,0-.465.422,1.435,1.435,0,0,0-.266.59L63.3,8.891a2.191,2.191,0,0,1,.41-1.105A3.079,3.079,0,0,1,64.563,7a3.834,3.834,0,0,1,1.105-.469,4.48,4.48,0,0,1,1.164-.145,3.457,3.457,0,0,1,1.16.215,2.426,2.426,0,0,1,.879.566,2.225,2.225,0,0,1,.527.887A2.906,2.906,0,0,1,69.5,9.227l-.648,3.93a6.4,6.4,0,0,0-.082.859,3.046,3.046,0,0,0,.1.852L68.855,15ZM65.2,13.906a2.431,2.431,0,0,0,.691-.082,2.611,2.611,0,0,0,.629-.262,3.1,3.1,0,0,0,.551-.406,3.444,3.444,0,0,0,.457-.516l.3-1.742-1.07-.008a7.38,7.38,0,0,0-.9.059,3.3,3.3,0,0,0-.891.234,2.033,2.033,0,0,0-.707.492,1.443,1.443,0,0,0-.355.832,1.331,1.331,0,0,0,.043.574,1.146,1.146,0,0,0,.254.438,1.128,1.128,0,0,0,.426.281A1.686,1.686,0,0,0,65.2,13.906ZM74.535,4.5l-.359,2.047h1.539l-.2,1.117H73.988l-.883,5.258a1.868,1.868,0,0,0-.008.379.839.839,0,0,0,.086.313.508.508,0,0,0,.211.215.753.753,0,0,0,.367.078,2.541,2.541,0,0,0,.344-.023q.172-.023.344-.055l-.109,1.18a3.847,3.847,0,0,1-1.031.141,1.621,1.621,0,0,1-.809-.2,1.438,1.438,0,0,1-.512-.5,1.959,1.959,0,0,1-.25-.715,3.4,3.4,0,0,1-.023-.832l.859-5.234H71.082l.2-1.117H72.77L73.129,4.5Zm4.922,10.656a3.229,3.229,0,0,1-1.5-.355,2.9,2.9,0,0,1-1.02-.9,3.588,3.588,0,0,1-.551-1.289,4.958,4.958,0,0,1-.09-1.516l.039-.336a5.9,5.9,0,0,1,.23-1.078A5.8,5.8,0,0,1,77,8.648a5.01,5.01,0,0,1,.629-.91,4.188,4.188,0,0,1,.813-.723,3.766,3.766,0,0,1,.977-.473,3.4,3.4,0,0,1,1.129-.152A2.832,2.832,0,0,1,82,6.777a2.593,2.593,0,0,1,.9.945,3.619,3.619,0,0,1,.418,1.316,5.789,5.789,0,0,1-.008,1.5l-.094.648H77.707a3.463,3.463,0,0,0,0,.984,2.508,2.508,0,0,0,.293.887,1.849,1.849,0,0,0,.613.648,1.821,1.821,0,0,0,.961.27,2.5,2.5,0,0,0,1.289-.3,4.153,4.153,0,0,0,1.039-.824l.813.688a3.649,3.649,0,0,1-.641.711,3.82,3.82,0,0,1-.777.512,3.689,3.689,0,0,1-.883.3A4.308,4.308,0,0,1,79.457,15.156ZM80.473,7.57a1.907,1.907,0,0,0-.957.188,2.521,2.521,0,0,0-.734.559,3.623,3.623,0,0,0-.543.789,6.152,6.152,0,0,0-.375.895l4.109.016L82,9.875a2.888,2.888,0,0,0,.008-.82,1.968,1.968,0,0,0-.242-.73,1.548,1.548,0,0,0-.508-.531A1.521,1.521,0,0,0,80.473,7.57Z" transform="translate(732.5 4080)" fill="#12263f"/>
    <g id="Grupo_1103515" data-name="Grupo 1103515" transform="translate(-10 2889.512)">
      <g id="Grupo_1103506" data-name="Grupo 1103506" transform="translate(10521.873 -2490.929) rotate(-90)">
        <path id="Trazado_879205" data-name="Trazado 879205" d="M-3820-9939.078v24.418" transform="translate(121 112.205)" fill="none" stroke="#0b47db" stroke-linecap="round" stroke-width="3"/>
        <path id="Trazado_879204" data-name="Trazado 879204" d="M10,0V10H0Z" transform="translate(-3699 -9811.637) rotate(45)" fill="#0b47db"/>
      </g>
      <g id="Grupo_1103507" data-name="Grupo 1103507" transform="translate(695 1198.632) rotate(-90)">
        <path id="Trazado_879205-2" data-name="Trazado 879205" d="M0,24.418V0" transform="translate(7.071 4.961)" fill="none" stroke="#0b47db" stroke-linecap="round" stroke-width="3"/>
        <path id="Trazado_879204-2" data-name="Trazado 879204" d="M10,10V0H0Z" transform="translate(0 7.071) rotate(-45)" fill="#0b47db"/>
      </g>
    </g>
    <g id="Grupo_1103526" data-name="Grupo 1103526" transform="translate(157.621 2889.512)">
      <g id="Grupo_1103506-2" data-name="Grupo 1103506" transform="translate(10521.873 -2490.929) rotate(-90)">
        <path id="Trazado_879205-3" data-name="Trazado 879205" d="M-3820-9939.078v24.418" transform="translate(121 112.205)" fill="none" stroke="#0b47db" stroke-linecap="round" stroke-width="3"/>
        <path id="Trazado_879204-3" data-name="Trazado 879204" d="M10,0V10H0Z" transform="translate(-3699 -9811.637) rotate(45)" fill="#0b47db"/>
      </g>
      <g id="Grupo_1103507-2" data-name="Grupo 1103507" transform="translate(695 1198.632) rotate(-90)">
        <path id="Trazado_879205-4" data-name="Trazado 879205" d="M0,24.418V0" transform="translate(7.071 4.961)" fill="none" stroke="#0b47db" stroke-linecap="round" stroke-width="3"/>
        <path id="Trazado_879204-4" data-name="Trazado 879204" d="M10,10V0H0Z" transform="translate(0 7.071) rotate(-45)" fill="#0b47db"/>
      </g>
    </g>
    <path id="Rectángulo_403792" data-name="Rectángulo 403792" d="M5,0H247.453a5,5,0,0,1,5,5V39a0,0,0,0,1,0,0H0a0,0,0,0,1,0,0V5A5,5,0,0,1,5,0Z" transform="translate(883.121 4007)" fill="#aec4fa"/>
    <path id="Rectángulo_403794" data-name="Rectángulo 403794" d="M0,0H252.453a0,0,0,0,1,0,0V34a5,5,0,0,1-5,5H5a5,5,0,0,1-5-5V0A0,0,0,0,1,0,0Z" transform="translate(883.121 4133.5)" fill="#aec4fa"/>
    <rect id="Rectángulo_403779" data-name="Rectángulo 403779" width="190" height="93" transform="translate(495 4048)" fill="#debefb"/>
    <path id="Rectángulo_403790" data-name="Rectángulo 403790" d="M0,0H190a0,0,0,0,1,0,0V25a5,5,0,0,1-5,5H5a5,5,0,0,1-5-5V0A0,0,0,0,1,0,0Z" transform="translate(495 4143)" fill="#debefb"/>
    <path id="Rectángulo_403789" data-name="Rectángulo 403789" d="M5,0H185a5,5,0,0,1,5,5V40a0,0,0,0,1,0,0H0a0,0,0,0,1,0,0V5A5,5,0,0,1,5,0Z" transform="translate(495 4006)" fill="#3a1d71"/>
    <path id="Trazado_880533" data-name="Trazado 880533" d="M5.523,14.164a3.125,3.125,0,0,1-1.152.77A3.655,3.655,0,0,1,3,15.156a2.388,2.388,0,0,1-1.145-.277,1.96,1.96,0,0,1-.719-.7,2.644,2.644,0,0,1-.344-1,4.8,4.8,0,0,1-.02-1.18L1.68,6.547H3.094L2.18,12.031a3.68,3.68,0,0,0-.016.676,1.668,1.668,0,0,0,.148.6,1.106,1.106,0,0,0,.367.438,1.181,1.181,0,0,0,.648.188,2.654,2.654,0,0,0,1.348-.289,2.689,2.689,0,0,0,1-.937L6.734,6.547H8.148L6.68,15H5.344Zm8.57-1.453a.953.953,0,0,0-.086-.6,1.14,1.14,0,0,0-.375-.4,2.124,2.124,0,0,0-.543-.254q-.3-.094-.582-.164-.469-.117-.949-.289a3.592,3.592,0,0,1-.863-.441,2.129,2.129,0,0,1-.617-.668,1.752,1.752,0,0,1-.211-.977,2.212,2.212,0,0,1,.336-1.1,2.75,2.75,0,0,1,.773-.8,3.5,3.5,0,0,1,1.043-.48,4.007,4.007,0,0,1,1.137-.152,3.6,3.6,0,0,1,1.121.188,2.716,2.716,0,0,1,.918.52,2.363,2.363,0,0,1,.609.828,2.538,2.538,0,0,1,.2,1.113L14.6,9.031a1.453,1.453,0,0,0-.1-.594,1.262,1.262,0,0,0-.312-.453,1.418,1.418,0,0,0-.48-.289,1.88,1.88,0,0,0-.605-.109,2.355,2.355,0,0,0-.613.066,1.913,1.913,0,0,0-.566.234,1.524,1.524,0,0,0-.434.4,1.264,1.264,0,0,0-.223.578.808.808,0,0,0,.031.395.846.846,0,0,0,.188.3,1.106,1.106,0,0,0,.293.215,2.81,2.81,0,0,0,.359.152q.191.066.383.113t.355.094a9.008,9.008,0,0,1,.965.309,3.567,3.567,0,0,1,.863.469,2.12,2.12,0,0,1,.605.7,1.85,1.85,0,0,1,.191,1,2.332,2.332,0,0,1-.355,1.152,2.712,2.712,0,0,1-.8.8,3.508,3.508,0,0,1-1.082.465,4.439,4.439,0,0,1-1.191.133,3.824,3.824,0,0,1-1.176-.2,3.057,3.057,0,0,1-.984-.539,2.457,2.457,0,0,1-.9-2.031l1.414.008a1.664,1.664,0,0,0,.129.676,1.415,1.415,0,0,0,.352.492,1.479,1.479,0,0,0,.531.3,2.178,2.178,0,0,0,.684.1,2.863,2.863,0,0,0,.641-.059,2.257,2.257,0,0,0,.609-.215,1.556,1.556,0,0,0,.48-.391A1.153,1.153,0,0,0,14.094,12.711Zm6.367,2.445a3.229,3.229,0,0,1-1.5-.355,2.9,2.9,0,0,1-1.02-.9,3.588,3.588,0,0,1-.551-1.289,4.959,4.959,0,0,1-.09-1.516l.039-.336a5.9,5.9,0,0,1,.23-1.078,5.8,5.8,0,0,1,.434-1.031,5.01,5.01,0,0,1,.629-.91,4.188,4.188,0,0,1,.813-.723,3.766,3.766,0,0,1,.977-.473,3.4,3.4,0,0,1,1.129-.152,2.832,2.832,0,0,1,1.453.387,2.593,2.593,0,0,1,.9.945,3.62,3.62,0,0,1,.418,1.316,5.789,5.789,0,0,1-.008,1.5l-.094.648H18.711a3.463,3.463,0,0,0,0,.984,2.508,2.508,0,0,0,.293.887,1.849,1.849,0,0,0,.613.648,1.821,1.821,0,0,0,.961.27,2.5,2.5,0,0,0,1.289-.3,4.153,4.153,0,0,0,1.039-.824l.813.688a3.649,3.649,0,0,1-.641.711,3.82,3.82,0,0,1-.777.512,3.689,3.689,0,0,1-.883.3A4.308,4.308,0,0,1,20.461,15.156ZM21.477,7.57a1.907,1.907,0,0,0-.957.188,2.521,2.521,0,0,0-.734.559,3.623,3.623,0,0,0-.543.789,6.152,6.152,0,0,0-.375.895l4.109.016.031-.141a2.888,2.888,0,0,0,.008-.82,1.968,1.968,0,0,0-.242-.73,1.548,1.548,0,0,0-.508-.531A1.521,1.521,0,0,0,21.477,7.57Zm9.031.266a5.626,5.626,0,0,0-.664-.07,2.338,2.338,0,0,0-1.238.32,2.8,2.8,0,0,0-.9.906L26.664,15H25.25l1.469-8.453,1.367-.008-.211.984a3.41,3.41,0,0,1,.914-.844,2.137,2.137,0,0,1,1.2-.3,1.637,1.637,0,0,1,.344.035q.164.035.328.082ZM32.367,15H30.906L32.883,3.625h1.461Zm2.914-4.242A7.321,7.321,0,0,1,35.488,9.7a6.191,6.191,0,0,1,.375-1.02,5.373,5.373,0,0,1,.547-.914,3.686,3.686,0,0,1,.727-.738,3.294,3.294,0,0,1,.91-.488,3.059,3.059,0,0,1,1.1-.16,3.182,3.182,0,0,1,1.211.262,2.414,2.414,0,0,1,.961.77L42.133,3h1.414L41.469,15H40.18l.148-.906a3.268,3.268,0,0,1-1.109.809,3.189,3.189,0,0,1-1.359.254,2.487,2.487,0,0,1-.973-.207,2.318,2.318,0,0,1-.723-.512,2.827,2.827,0,0,1-.5-.738,4.057,4.057,0,0,1-.3-.883,5.483,5.483,0,0,1-.121-.953,6.587,6.587,0,0,1,.027-.941Zm1.4.164a5.607,5.607,0,0,0-.043.648,4.753,4.753,0,0,0,.039.672,3.2,3.2,0,0,0,.148.633,1.742,1.742,0,0,0,.293.535,1.437,1.437,0,0,0,.473.375,1.566,1.566,0,0,0,.684.152,2.057,2.057,0,0,0,.668-.074,2.393,2.393,0,0,0,.578-.254,2.586,2.586,0,0,0,.5-.4,4.835,4.835,0,0,0,.434-.508L41.125,8.8a1.918,1.918,0,0,0-.66-.863,1.836,1.836,0,0,0-1.043-.324,2.088,2.088,0,0,0-1.133.266,2.642,2.642,0,0,0-.8.734,3.8,3.8,0,0,0-.52,1.02A5.762,5.762,0,0,0,36.7,10.75Zm11.039,3.344a.874.874,0,0,1,.867-.906.846.846,0,0,1,.633.234.807.807,0,0,1,.242.625.844.844,0,0,1-.258.621.929.929,0,0,1-.625.254.894.894,0,0,1-.348-.051.768.768,0,0,1-.273-.168.752.752,0,0,1-.176-.266A.918.918,0,0,1,47.719,14.266Zm1.2-6.9a.874.874,0,0,1,.867-.906.846.846,0,0,1,.633.234.807.807,0,0,1,.242.625.844.844,0,0,1-.258.621.929.929,0,0,1-.625.254.894.894,0,0,1-.348-.051.768.768,0,0,1-.273-.168.752.752,0,0,1-.176-.266A.918.918,0,0,1,48.914,7.367ZM57.172,15H55.711L57.688,3.625h1.461Zm5.313-8.461-.2,1.07a4.182,4.182,0,0,1,1.164-.9,2.93,2.93,0,0,1,1.43-.32A2.416,2.416,0,0,1,66,6.656a1.9,1.9,0,0,1,.707.668,2.493,2.493,0,0,1,.336.973,4.809,4.809,0,0,1,.016,1.164L66.141,15H64.727l.93-5.562a2.968,2.968,0,0,0,.008-.711,1.462,1.462,0,0,0-.184-.574,1.034,1.034,0,0,0-.414-.391,1.517,1.517,0,0,0-.691-.152,2.044,2.044,0,0,0-.687.1,2.486,2.486,0,0,0-.6.289,2.908,2.908,0,0,0-.516.438,4.694,4.694,0,0,0-.434.535L61.094,15H59.68l1.469-8.453ZM72.055,4.5,71.7,6.547h1.539l-.2,1.117H71.508l-.883,5.258a1.868,1.868,0,0,0-.008.379.839.839,0,0,0,.086.313.508.508,0,0,0,.211.215.753.753,0,0,0,.367.078,2.541,2.541,0,0,0,.344-.023q.172-.023.344-.055l-.109,1.18a3.847,3.847,0,0,1-1.031.141,1.621,1.621,0,0,1-.809-.2,1.438,1.438,0,0,1-.512-.5,1.959,1.959,0,0,1-.25-.715,3.4,3.4,0,0,1-.023-.832l.859-5.234H68.6l.2-1.117h1.492L70.648,4.5ZM5.523,36.164a3.125,3.125,0,0,1-1.152.77A3.655,3.655,0,0,1,3,37.156a2.388,2.388,0,0,1-1.145-.277,1.96,1.96,0,0,1-.719-.7,2.644,2.644,0,0,1-.344-1,4.8,4.8,0,0,1-.02-1.18l.906-5.461H3.094L2.18,34.031a3.68,3.68,0,0,0-.016.676,1.668,1.668,0,0,0,.148.6,1.106,1.106,0,0,0,.367.438,1.181,1.181,0,0,0,.648.188,2.654,2.654,0,0,0,1.348-.289,2.689,2.689,0,0,0,1-.937l1.063-6.156H8.148L6.68,37H5.344Zm8.57-1.453a.953.953,0,0,0-.086-.6,1.14,1.14,0,0,0-.375-.4,2.124,2.124,0,0,0-.543-.254q-.3-.094-.582-.164-.469-.117-.949-.289a3.592,3.592,0,0,1-.863-.441,2.129,2.129,0,0,1-.617-.668,1.752,1.752,0,0,1-.211-.977,2.212,2.212,0,0,1,.336-1.1,2.75,2.75,0,0,1,.773-.8,3.5,3.5,0,0,1,1.043-.48,4.007,4.007,0,0,1,1.137-.152,3.6,3.6,0,0,1,1.121.188,2.716,2.716,0,0,1,.918.52,2.363,2.363,0,0,1,.609.828,2.538,2.538,0,0,1,.2,1.113L14.6,31.031a1.453,1.453,0,0,0-.1-.594,1.262,1.262,0,0,0-.312-.453,1.418,1.418,0,0,0-.48-.289,1.88,1.88,0,0,0-.605-.109,2.355,2.355,0,0,0-.613.066,1.913,1.913,0,0,0-.566.234,1.524,1.524,0,0,0-.434.4,1.264,1.264,0,0,0-.223.578.808.808,0,0,0,.031.395.846.846,0,0,0,.188.3,1.106,1.106,0,0,0,.293.215,2.811,2.811,0,0,0,.359.152q.191.066.383.113t.355.094a9.008,9.008,0,0,1,.965.309,3.567,3.567,0,0,1,.863.469,2.12,2.12,0,0,1,.605.7,1.85,1.85,0,0,1,.191,1,2.332,2.332,0,0,1-.355,1.152,2.712,2.712,0,0,1-.8.8,3.508,3.508,0,0,1-1.082.465,4.439,4.439,0,0,1-1.191.133,3.824,3.824,0,0,1-1.176-.2,3.057,3.057,0,0,1-.984-.539,2.457,2.457,0,0,1-.9-2.031l1.414.008a1.664,1.664,0,0,0,.129.676,1.415,1.415,0,0,0,.352.492,1.479,1.479,0,0,0,.531.3,2.178,2.178,0,0,0,.684.1,2.863,2.863,0,0,0,.641-.059,2.257,2.257,0,0,0,.609-.215,1.556,1.556,0,0,0,.48-.391A1.153,1.153,0,0,0,14.094,34.711Zm6.367,2.445a3.229,3.229,0,0,1-1.5-.355,2.9,2.9,0,0,1-1.02-.9,3.588,3.588,0,0,1-.551-1.289,4.959,4.959,0,0,1-.09-1.516l.039-.336a5.9,5.9,0,0,1,.23-1.078,5.8,5.8,0,0,1,.434-1.031,5.01,5.01,0,0,1,.629-.91,4.188,4.188,0,0,1,.813-.723,3.766,3.766,0,0,1,.977-.473,3.4,3.4,0,0,1,1.129-.152,2.832,2.832,0,0,1,1.453.387,2.593,2.593,0,0,1,.9.945,3.62,3.62,0,0,1,.418,1.316,5.789,5.789,0,0,1-.008,1.5l-.094.648H18.711a3.463,3.463,0,0,0,0,.984,2.508,2.508,0,0,0,.293.887,1.849,1.849,0,0,0,.613.648,1.821,1.821,0,0,0,.961.27,2.5,2.5,0,0,0,1.289-.3,4.153,4.153,0,0,0,1.039-.824l.813.688a3.649,3.649,0,0,1-.641.711,3.82,3.82,0,0,1-.777.512,3.689,3.689,0,0,1-.883.3A4.308,4.308,0,0,1,20.461,37.156Zm1.016-7.586a1.907,1.907,0,0,0-.957.188,2.521,2.521,0,0,0-.734.559,3.623,3.623,0,0,0-.543.789,6.152,6.152,0,0,0-.375.895l4.109.016.031-.141a2.888,2.888,0,0,0,.008-.82,1.968,1.968,0,0,0-.242-.73,1.548,1.548,0,0,0-.508-.531A1.521,1.521,0,0,0,21.477,29.57Zm9.031.266a5.625,5.625,0,0,0-.664-.07,2.338,2.338,0,0,0-1.238.32,2.8,2.8,0,0,0-.9.906L26.664,37H25.25l1.469-8.453,1.367-.008-.211.984a3.41,3.41,0,0,1,.914-.844,2.137,2.137,0,0,1,1.2-.3,1.637,1.637,0,0,1,.344.035q.164.035.328.082ZM39.289,37H37.867L33.8,28.172,32.273,37H30.8l1.977-11.375H34.2l4.07,8.867L39.8,25.625h1.461Zm7.57,0a1.894,1.894,0,0,1-.055-.445,4.326,4.326,0,0,1,.023-.445,4.514,4.514,0,0,1-1.133.77,2.923,2.923,0,0,1-1.336.277,2.882,2.882,0,0,1-.992-.184,2.357,2.357,0,0,1-.8-.5,2.161,2.161,0,0,1-.516-.766,2.276,2.276,0,0,1-.148-.992,2.59,2.59,0,0,1,.426-1.352,2.918,2.918,0,0,1,.957-.879,4.286,4.286,0,0,1,1.281-.477,6.93,6.93,0,0,1,1.4-.145l1.477.008.094-.672a2,2,0,0,0-.031-.668,1.255,1.255,0,0,0-.25-.52,1.192,1.192,0,0,0-.465-.34,1.774,1.774,0,0,0-.66-.129,2.374,2.374,0,0,0-.648.074,2.086,2.086,0,0,0-.59.25,1.75,1.75,0,0,0-.465.422,1.435,1.435,0,0,0-.266.59l-1.422.008a2.191,2.191,0,0,1,.41-1.105A3.079,3.079,0,0,1,44,29a3.834,3.834,0,0,1,1.105-.469,4.48,4.48,0,0,1,1.164-.145,3.457,3.457,0,0,1,1.16.215,2.426,2.426,0,0,1,.879.566,2.225,2.225,0,0,1,.527.887,2.906,2.906,0,0,1,.105,1.176l-.648,3.93a6.4,6.4,0,0,0-.082.859,3.046,3.046,0,0,0,.1.852L48.3,37Zm-2.219-1.094a2.431,2.431,0,0,0,.691-.082,2.611,2.611,0,0,0,.629-.262,3.1,3.1,0,0,0,.551-.406,3.444,3.444,0,0,0,.457-.516l.3-1.742-1.07-.008a7.38,7.38,0,0,0-.9.059,3.3,3.3,0,0,0-.891.234,2.033,2.033,0,0,0-.707.492,1.443,1.443,0,0,0-.355.832,1.331,1.331,0,0,0,.043.574,1.146,1.146,0,0,0,.254.438,1.128,1.128,0,0,0,.426.281A1.686,1.686,0,0,0,44.641,35.906Zm8.391-7.367-.18.945a3.525,3.525,0,0,1,1.16-.828,3.431,3.431,0,0,1,2.094-.18,2.275,2.275,0,0,1,.617.242,1.827,1.827,0,0,1,.832,1.031A4.22,4.22,0,0,1,58.8,28.742a3.168,3.168,0,0,1,1.563-.352,2.659,2.659,0,0,1,1.16.258,1.969,1.969,0,0,1,.75.652,2.46,2.46,0,0,1,.375.961,4.144,4.144,0,0,1,.027,1.184L61.742,37H60.336l.922-5.57a2.943,2.943,0,0,0,0-.742,1.318,1.318,0,0,0-.211-.574,1.086,1.086,0,0,0-.453-.371,1.821,1.821,0,0,0-.727-.141,2.08,2.08,0,0,0-.762.125,2.315,2.315,0,0,0-.656.367,2.227,2.227,0,0,0-.5.566,2.282,2.282,0,0,0-.293.723L56.7,37H55.273l.938-5.562a2.564,2.564,0,0,0-.008-.723,1.358,1.358,0,0,0-.223-.57,1.18,1.18,0,0,0-.453-.379,1.662,1.662,0,0,0-.707-.148,2.168,2.168,0,0,0-1.219.3,2.8,2.8,0,0,0-.883.9L51.648,37H50.234L51.7,28.547Zm14.4,8.617a3.229,3.229,0,0,1-1.5-.355,2.9,2.9,0,0,1-1.02-.9,3.588,3.588,0,0,1-.551-1.289,4.958,4.958,0,0,1-.09-1.516l.039-.336a5.9,5.9,0,0,1,.23-1.078,5.8,5.8,0,0,1,.434-1.031,5.01,5.01,0,0,1,.629-.91,4.188,4.188,0,0,1,.813-.723,3.766,3.766,0,0,1,.977-.473,3.4,3.4,0,0,1,1.129-.152,2.832,2.832,0,0,1,1.453.387,2.593,2.593,0,0,1,.9.945,3.619,3.619,0,0,1,.418,1.316,5.789,5.789,0,0,1-.008,1.5l-.094.648H65.68a3.463,3.463,0,0,0,0,.984,2.508,2.508,0,0,0,.293.887,1.849,1.849,0,0,0,.613.648,1.821,1.821,0,0,0,.961.27,2.5,2.5,0,0,0,1.289-.3,4.153,4.153,0,0,0,1.039-.824l.813.688a3.649,3.649,0,0,1-.641.711,3.82,3.82,0,0,1-.777.512,3.689,3.689,0,0,1-.883.3A4.308,4.308,0,0,1,67.43,37.156Zm1.016-7.586a1.907,1.907,0,0,0-.957.188,2.521,2.521,0,0,0-.734.559,3.623,3.623,0,0,0-.543.789,6.152,6.152,0,0,0-.375.895l4.109.016.031-.141a2.888,2.888,0,0,0,.008-.82,1.968,1.968,0,0,0-.242-.73,1.548,1.548,0,0,0-.508-.531A1.521,1.521,0,0,0,68.445,29.57Zm7.789,6.7a.874.874,0,0,1,.867-.906.846.846,0,0,1,.633.234.807.807,0,0,1,.242.625.844.844,0,0,1-.258.621.929.929,0,0,1-.625.254.894.894,0,0,1-.348-.051.768.768,0,0,1-.273-.168.752.752,0,0,1-.176-.266A.918.918,0,0,1,76.234,36.266Zm1.2-6.9a.874.874,0,0,1,.867-.906.846.846,0,0,1,.633.234.807.807,0,0,1,.242.625.844.844,0,0,1-.258.621.929.929,0,0,1-.625.254.894.894,0,0,1-.348-.051.768.768,0,0,1-.273-.168.752.752,0,0,1-.176-.266A.918.918,0,0,1,77.43,29.367Zm13.1,4.7a1.448,1.448,0,0,0-.121-.863,1.7,1.7,0,0,0-.512-.586,3.227,3.227,0,0,0-.746-.4q-.418-.16-.824-.293a10.453,10.453,0,0,1-1.164-.469,4.471,4.471,0,0,1-1.031-.668,2.954,2.954,0,0,1-.715-.922,2.41,2.41,0,0,1-.215-1.246,2.911,2.911,0,0,1,.434-1.379,3.422,3.422,0,0,1,.957-1,4.218,4.218,0,0,1,1.293-.594,5.2,5.2,0,0,1,1.434-.187,4.212,4.212,0,0,1,1.41.262,3.38,3.38,0,0,1,1.129.691,2.965,2.965,0,0,1,.73,1.078,3.4,3.4,0,0,1,.223,1.414H91.344a2.068,2.068,0,0,0-.484-1.617,2.137,2.137,0,0,0-1.594-.594,3.447,3.447,0,0,0-.9.1,2.553,2.553,0,0,0-.793.344,2.127,2.127,0,0,0-.6.594,1.877,1.877,0,0,0-.3.859,1.223,1.223,0,0,0,.145.8,1.9,1.9,0,0,0,.527.563,3.2,3.2,0,0,0,.73.387q.4.152.762.27a10.7,10.7,0,0,1,1.223.492,4.355,4.355,0,0,1,1.039.684,2.833,2.833,0,0,1,.7.957,2.668,2.668,0,0,1,.2,1.3,2.9,2.9,0,0,1-.453,1.4,3.356,3.356,0,0,1-.98.973,4.289,4.289,0,0,1-1.316.563,5.567,5.567,0,0,1-1.461.164,4.622,4.622,0,0,1-1.461-.246,3.76,3.76,0,0,1-1.219-.68,3.111,3.111,0,0,1-.82-1.078,3.058,3.058,0,0,1-.258-1.457L85.5,33.7a2.133,2.133,0,0,0,.129.965,1.812,1.812,0,0,0,.484.688,2.143,2.143,0,0,0,.762.422,3.282,3.282,0,0,0,.969.152,4.012,4.012,0,0,0,.91-.09,2.678,2.678,0,0,0,.832-.324,2.1,2.1,0,0,0,.629-.582A1.847,1.847,0,0,0,90.531,34.07Zm6.391-7.57-.359,2.047H98.1l-.2,1.117H96.375l-.883,5.258a1.868,1.868,0,0,0-.008.379.839.839,0,0,0,.086.313.508.508,0,0,0,.211.215.753.753,0,0,0,.367.078,2.541,2.541,0,0,0,.344-.023q.172-.023.344-.055l-.109,1.18a3.847,3.847,0,0,1-1.031.141,1.621,1.621,0,0,1-.809-.2,1.438,1.438,0,0,1-.512-.5,1.959,1.959,0,0,1-.25-.715A3.4,3.4,0,0,1,94.1,34.9l.859-5.234H93.469l.2-1.117h1.492l.359-2.047Zm6.672,3.336a5.625,5.625,0,0,0-.664-.07,2.338,2.338,0,0,0-1.238.32,2.8,2.8,0,0,0-.9.906L99.75,37H98.336L99.8,28.547l1.367-.008-.211.984a3.41,3.41,0,0,1,.914-.844,2.137,2.137,0,0,1,1.2-.3,1.637,1.637,0,0,1,.344.035q.164.035.328.082ZM105.2,37h-1.406l1.469-8.453h1.406Zm.336-10.672a.886.886,0,0,1,.234-.609.826.826,0,0,1,.594-.258.841.841,0,0,1,.34.051.755.755,0,0,1,.438.438.917.917,0,0,1,.059.332.834.834,0,0,1-.836.852.779.779,0,0,1-.6-.211A.764.764,0,0,1,105.531,26.328Zm4.781,2.211-.2,1.07a4.182,4.182,0,0,1,1.164-.9,2.93,2.93,0,0,1,1.43-.32,2.416,2.416,0,0,1,1.129.266,1.9,1.9,0,0,1,.707.668,2.493,2.493,0,0,1,.336.973,4.809,4.809,0,0,1,.016,1.164L113.969,37h-1.414l.93-5.562a2.968,2.968,0,0,0,.008-.711,1.462,1.462,0,0,0-.184-.574,1.034,1.034,0,0,0-.414-.391,1.517,1.517,0,0,0-.691-.152,2.044,2.044,0,0,0-.687.1,2.486,2.486,0,0,0-.6.289,2.908,2.908,0,0,0-.516.438,4.7,4.7,0,0,0-.434.535L108.922,37h-1.414l1.469-8.453Zm6.25,4.219a8.588,8.588,0,0,1,.211-1.055,6.072,6.072,0,0,1,.371-1.023,5.46,5.46,0,0,1,.543-.918,3.562,3.562,0,0,1,.719-.734,3.278,3.278,0,0,1,.91-.484,3.089,3.089,0,0,1,1.105-.16,3.125,3.125,0,0,1,1.254.281,2.386,2.386,0,0,1,.965.828l.281-.945h1.3l-1.406,8.273a4.566,4.566,0,0,1-.441,1.445,3.855,3.855,0,0,1-.848,1.125,3.6,3.6,0,0,1-1.2.719,4.01,4.01,0,0,1-1.5.227,3.793,3.793,0,0,1-.836-.109,3.9,3.9,0,0,1-.789-.285,3.4,3.4,0,0,1-.7-.457,2.966,2.966,0,0,1-.559-.625l.8-.867a2.817,2.817,0,0,0,.863.84,2.284,2.284,0,0,0,1.16.324,2.631,2.631,0,0,0,.98-.145,2.349,2.349,0,0,0,.773-.457,2.549,2.549,0,0,0,.555-.719,3.415,3.415,0,0,0,.324-.93l.156-.75a3.508,3.508,0,0,1-1.1.758,3.119,3.119,0,0,1-1.312.242,2.548,2.548,0,0,1-.98-.207,2.325,2.325,0,0,1-.73-.508,2.692,2.692,0,0,1-.5-.734,4.176,4.176,0,0,1-.3-.887,5.3,5.3,0,0,1-.117-.953,7.08,7.08,0,0,1,.031-.945Zm1.406.164a5.577,5.577,0,0,0-.043.645,4.8,4.8,0,0,0,.039.672,3.3,3.3,0,0,0,.145.633,1.739,1.739,0,0,0,.289.535,1.373,1.373,0,0,0,.473.375,1.684,1.684,0,0,0,.684.156A2.129,2.129,0,0,0,120.8,35.6a3.542,3.542,0,0,0,.934-.906l.664-3.883a1.925,1.925,0,0,0-.656-.871,1.861,1.861,0,0,0-1.039-.332,2.088,2.088,0,0,0-1.133.266,2.623,2.623,0,0,0-.8.738,3.778,3.778,0,0,0-.516,1.023,5.942,5.942,0,0,0-.258,1.121ZM5.523,58.164a3.125,3.125,0,0,1-1.152.77A3.655,3.655,0,0,1,3,59.156a2.388,2.388,0,0,1-1.145-.277,1.96,1.96,0,0,1-.719-.7,2.644,2.644,0,0,1-.344-1,4.8,4.8,0,0,1-.02-1.18l.906-5.461H3.094L2.18,56.031a3.68,3.68,0,0,0-.016.676,1.668,1.668,0,0,0,.148.6,1.106,1.106,0,0,0,.367.438,1.181,1.181,0,0,0,.648.188,2.654,2.654,0,0,0,1.348-.289,2.689,2.689,0,0,0,1-.937l1.063-6.156H8.148L6.68,59H5.344Zm8.57-1.453a.953.953,0,0,0-.086-.6,1.14,1.14,0,0,0-.375-.4,2.124,2.124,0,0,0-.543-.254q-.3-.094-.582-.164-.469-.117-.949-.289a3.592,3.592,0,0,1-.863-.441,2.129,2.129,0,0,1-.617-.668,1.752,1.752,0,0,1-.211-.977,2.212,2.212,0,0,1,.336-1.1,2.75,2.75,0,0,1,.773-.8,3.5,3.5,0,0,1,1.043-.48,4.008,4.008,0,0,1,1.137-.152,3.6,3.6,0,0,1,1.121.188,2.716,2.716,0,0,1,.918.52,2.363,2.363,0,0,1,.609.828,2.538,2.538,0,0,1,.2,1.113L14.6,53.031a1.453,1.453,0,0,0-.1-.594,1.262,1.262,0,0,0-.312-.453,1.418,1.418,0,0,0-.48-.289,1.88,1.88,0,0,0-.605-.109,2.355,2.355,0,0,0-.613.066,1.913,1.913,0,0,0-.566.234,1.524,1.524,0,0,0-.434.4,1.264,1.264,0,0,0-.223.578.808.808,0,0,0,.031.395.846.846,0,0,0,.188.3,1.106,1.106,0,0,0,.293.215,2.81,2.81,0,0,0,.359.152q.191.066.383.113t.355.094a9.008,9.008,0,0,1,.965.309,3.567,3.567,0,0,1,.863.469,2.12,2.12,0,0,1,.605.7,1.85,1.85,0,0,1,.191,1,2.332,2.332,0,0,1-.355,1.152,2.712,2.712,0,0,1-.8.8,3.508,3.508,0,0,1-1.082.465,4.439,4.439,0,0,1-1.191.133,3.824,3.824,0,0,1-1.176-.2,3.057,3.057,0,0,1-.984-.539,2.457,2.457,0,0,1-.9-2.031l1.414.008a1.664,1.664,0,0,0,.129.676,1.415,1.415,0,0,0,.352.492,1.479,1.479,0,0,0,.531.3,2.178,2.178,0,0,0,.684.1,2.863,2.863,0,0,0,.641-.059,2.257,2.257,0,0,0,.609-.215,1.556,1.556,0,0,0,.48-.391A1.153,1.153,0,0,0,14.094,56.711Zm6.367,2.445a3.229,3.229,0,0,1-1.5-.355,2.9,2.9,0,0,1-1.02-.9,3.588,3.588,0,0,1-.551-1.289,4.959,4.959,0,0,1-.09-1.516l.039-.336a5.9,5.9,0,0,1,.23-1.078,5.8,5.8,0,0,1,.434-1.031,5.009,5.009,0,0,1,.629-.91,4.188,4.188,0,0,1,.813-.723,3.766,3.766,0,0,1,.977-.473,3.4,3.4,0,0,1,1.129-.152,2.832,2.832,0,0,1,1.453.387,2.593,2.593,0,0,1,.9.945,3.62,3.62,0,0,1,.418,1.316,5.789,5.789,0,0,1-.008,1.5l-.094.648H18.711a3.463,3.463,0,0,0,0,.984,2.508,2.508,0,0,0,.293.887,1.849,1.849,0,0,0,.613.648,1.821,1.821,0,0,0,.961.27,2.5,2.5,0,0,0,1.289-.3,4.153,4.153,0,0,0,1.039-.824l.813.688a3.649,3.649,0,0,1-.641.711,3.82,3.82,0,0,1-.777.512,3.689,3.689,0,0,1-.883.3A4.308,4.308,0,0,1,20.461,59.156Zm1.016-7.586a1.907,1.907,0,0,0-.957.188,2.521,2.521,0,0,0-.734.559,3.623,3.623,0,0,0-.543.789,6.152,6.152,0,0,0-.375.895l4.109.016.031-.141a2.888,2.888,0,0,0,.008-.82,1.968,1.968,0,0,0-.242-.73,1.548,1.548,0,0,0-.508-.531A1.521,1.521,0,0,0,21.477,51.57Zm9.031.266a5.626,5.626,0,0,0-.664-.07,2.338,2.338,0,0,0-1.238.32,2.8,2.8,0,0,0-.9.906L26.664,59H25.25l1.469-8.453,1.367-.008-.211.984a3.41,3.41,0,0,1,.914-.844,2.137,2.137,0,0,1,1.2-.3,1.637,1.637,0,0,1,.344.035q.164.035.328.082Zm2.531,2.711L32.266,59H30.8l1.977-11.375,3.977.008a4.4,4.4,0,0,1,1.414.25,3.087,3.087,0,0,1,1.1.668,2.723,2.723,0,0,1,.68,1.063,3.341,3.341,0,0,1,.156,1.434,3.813,3.813,0,0,1-.453,1.563,3.465,3.465,0,0,1-.961,1.1,4.012,4.012,0,0,1-1.344.641,6.052,6.052,0,0,1-1.6.207Zm.211-1.227,2.531.008a3.765,3.765,0,0,0,1.039-.141,2.683,2.683,0,0,0,.871-.422,2.351,2.351,0,0,0,.629-.707,2.575,2.575,0,0,0,.32-1,2.27,2.27,0,0,0-.047-.891,1.672,1.672,0,0,0-.359-.68,1.713,1.713,0,0,0-.637-.441,2.489,2.489,0,0,0-.879-.176l-2.7-.008ZM45.5,59a1.894,1.894,0,0,1-.055-.445,4.326,4.326,0,0,1,.023-.445,4.514,4.514,0,0,1-1.133.77A2.923,2.923,0,0,1,43,59.156a2.882,2.882,0,0,1-.992-.184,2.357,2.357,0,0,1-.8-.5,2.161,2.161,0,0,1-.516-.766,2.276,2.276,0,0,1-.148-.992,2.59,2.59,0,0,1,.426-1.352,2.918,2.918,0,0,1,.957-.879,4.286,4.286,0,0,1,1.281-.477,6.93,6.93,0,0,1,1.4-.145l1.477.008.094-.672a2,2,0,0,0-.031-.668,1.255,1.255,0,0,0-.25-.52,1.192,1.192,0,0,0-.465-.34,1.774,1.774,0,0,0-.66-.129,2.374,2.374,0,0,0-.648.074,2.086,2.086,0,0,0-.59.25,1.75,1.75,0,0,0-.465.422,1.435,1.435,0,0,0-.266.59l-1.422.008a2.191,2.191,0,0,1,.41-1.105A3.079,3.079,0,0,1,42.645,51a3.834,3.834,0,0,1,1.105-.469,4.48,4.48,0,0,1,1.164-.145,3.457,3.457,0,0,1,1.16.215,2.426,2.426,0,0,1,.879.566,2.225,2.225,0,0,1,.527.887,2.906,2.906,0,0,1,.105,1.176l-.648,3.93a6.4,6.4,0,0,0-.082.859,3.046,3.046,0,0,0,.1.852L46.938,59Zm-2.219-1.094a2.431,2.431,0,0,0,.691-.082,2.611,2.611,0,0,0,.629-.262,3.1,3.1,0,0,0,.551-.406,3.444,3.444,0,0,0,.457-.516l.3-1.742-1.07-.008a7.38,7.38,0,0,0-.9.059,3.3,3.3,0,0,0-.891.234,2.033,2.033,0,0,0-.707.492,1.443,1.443,0,0,0-.355.832,1.331,1.331,0,0,0,.043.574,1.146,1.146,0,0,0,.254.438,1.128,1.128,0,0,0,.426.281A1.686,1.686,0,0,0,43.281,57.906Zm10.82-1.2a.953.953,0,0,0-.086-.6,1.14,1.14,0,0,0-.375-.4,2.124,2.124,0,0,0-.543-.254q-.3-.094-.582-.164-.469-.117-.949-.289a3.592,3.592,0,0,1-.863-.441,2.129,2.129,0,0,1-.617-.668,1.752,1.752,0,0,1-.211-.977,2.212,2.212,0,0,1,.336-1.1,2.75,2.75,0,0,1,.773-.8,3.5,3.5,0,0,1,1.043-.48,4.008,4.008,0,0,1,1.137-.152,3.6,3.6,0,0,1,1.121.188,2.716,2.716,0,0,1,.918.52,2.363,2.363,0,0,1,.609.828,2.538,2.538,0,0,1,.2,1.113l-1.406-.008a1.453,1.453,0,0,0-.1-.594,1.262,1.262,0,0,0-.312-.453,1.418,1.418,0,0,0-.48-.289,1.88,1.88,0,0,0-.605-.109,2.355,2.355,0,0,0-.613.066,1.913,1.913,0,0,0-.566.234,1.524,1.524,0,0,0-.434.4,1.264,1.264,0,0,0-.223.578.808.808,0,0,0,.031.395.846.846,0,0,0,.188.3,1.106,1.106,0,0,0,.293.215,2.81,2.81,0,0,0,.359.152q.191.066.383.113t.355.094a9.008,9.008,0,0,1,.965.309,3.567,3.567,0,0,1,.863.469,2.12,2.12,0,0,1,.605.7,1.85,1.85,0,0,1,.191,1,2.332,2.332,0,0,1-.355,1.152,2.712,2.712,0,0,1-.8.8,3.508,3.508,0,0,1-1.082.465,4.439,4.439,0,0,1-1.191.133,3.824,3.824,0,0,1-1.176-.2,3.058,3.058,0,0,1-.984-.539,2.457,2.457,0,0,1-.9-2.031l1.414.008a1.664,1.664,0,0,0,.129.676,1.415,1.415,0,0,0,.352.492,1.479,1.479,0,0,0,.531.3,2.178,2.178,0,0,0,.684.1,2.863,2.863,0,0,0,.641-.059,2.257,2.257,0,0,0,.609-.215,1.556,1.556,0,0,0,.48-.391A1.153,1.153,0,0,0,54.1,56.711Zm8.078,0a.953.953,0,0,0-.086-.6,1.14,1.14,0,0,0-.375-.4,2.124,2.124,0,0,0-.543-.254q-.3-.094-.582-.164-.469-.117-.949-.289a3.592,3.592,0,0,1-.863-.441,2.129,2.129,0,0,1-.617-.668,1.752,1.752,0,0,1-.211-.977,2.212,2.212,0,0,1,.336-1.1,2.75,2.75,0,0,1,.773-.8,3.5,3.5,0,0,1,1.043-.48,4.008,4.008,0,0,1,1.137-.152,3.6,3.6,0,0,1,1.121.188,2.716,2.716,0,0,1,.918.52,2.363,2.363,0,0,1,.609.828,2.538,2.538,0,0,1,.2,1.113l-1.406-.008a1.453,1.453,0,0,0-.1-.594,1.262,1.262,0,0,0-.312-.453,1.418,1.418,0,0,0-.48-.289,1.88,1.88,0,0,0-.605-.109,2.355,2.355,0,0,0-.613.066,1.913,1.913,0,0,0-.566.234,1.524,1.524,0,0,0-.434.4,1.264,1.264,0,0,0-.223.578.808.808,0,0,0,.031.395.846.846,0,0,0,.188.3,1.106,1.106,0,0,0,.293.215,2.81,2.81,0,0,0,.359.152q.191.066.383.113t.355.094a9.008,9.008,0,0,1,.965.309,3.567,3.567,0,0,1,.863.469,2.12,2.12,0,0,1,.605.7,1.85,1.85,0,0,1,.191,1,2.332,2.332,0,0,1-.355,1.152,2.712,2.712,0,0,1-.8.8,3.508,3.508,0,0,1-1.082.465,4.439,4.439,0,0,1-1.191.133,3.824,3.824,0,0,1-1.176-.2A3.058,3.058,0,0,1,58,58.422a2.457,2.457,0,0,1-.9-2.031l1.414.008a1.664,1.664,0,0,0,.129.676,1.415,1.415,0,0,0,.352.492,1.479,1.479,0,0,0,.531.3,2.178,2.178,0,0,0,.684.1,2.863,2.863,0,0,0,.641-.059,2.257,2.257,0,0,0,.609-.215,1.556,1.556,0,0,0,.48-.391A1.153,1.153,0,0,0,62.18,56.711ZM72.625,57l2.7-6.453h1.461L72.93,59H71.781l-.875-6.391L67.859,59H66.711L65.8,50.547h1.352l.516,6.3,3-6.3H71.8Zm4.539-2.25a6.158,6.158,0,0,1,.246-1.121,5.613,5.613,0,0,1,.449-1.039,4.91,4.91,0,0,1,.645-.9,4.089,4.089,0,0,1,.828-.7,3.871,3.871,0,0,1,1-.453,3.774,3.774,0,0,1,1.168-.145,3.129,3.129,0,0,1,1.523.395,2.969,2.969,0,0,1,1.016.969,3.809,3.809,0,0,1,.527,1.359,5.28,5.28,0,0,1,.059,1.559l-.016.18a5.87,5.87,0,0,1-.457,1.645,4.987,4.987,0,0,1-.906,1.387,4.137,4.137,0,0,1-1.312.949,3.723,3.723,0,0,1-1.676.324,3.145,3.145,0,0,1-1.512-.387,2.923,2.923,0,0,1-1.012-.957,3.823,3.823,0,0,1-.531-1.344,5.1,5.1,0,0,1-.062-1.547Zm1.4.172a5.254,5.254,0,0,0-.035.68,4.271,4.271,0,0,0,.063.688,2.994,2.994,0,0,0,.184.637,1.85,1.85,0,0,0,.332.531,1.563,1.563,0,0,0,.508.371,1.824,1.824,0,0,0,.707.156,2.162,2.162,0,0,0,1.148-.254,2.809,2.809,0,0,0,.855-.73,3.854,3.854,0,0,0,.57-1.02,5.193,5.193,0,0,0,.293-1.129l.023-.172A5.291,5.291,0,0,0,83.246,54a4.368,4.368,0,0,0-.062-.7A3.145,3.145,0,0,0,83,52.652a1.832,1.832,0,0,0-.336-.543,1.616,1.616,0,0,0-.516-.379,1.808,1.808,0,0,0-.711-.16,2.115,2.115,0,0,0-1.152.262,2.832,2.832,0,0,0-.848.746,3.928,3.928,0,0,0-.562,1.035,5.481,5.481,0,0,0-.289,1.137Zm12.406-3.086a5.626,5.626,0,0,0-.664-.07,2.338,2.338,0,0,0-1.238.32,2.8,2.8,0,0,0-.9.906L87.125,59H85.711l1.469-8.453,1.367-.008-.211.984a3.41,3.41,0,0,1,.914-.844,2.137,2.137,0,0,1,1.2-.3,1.637,1.637,0,0,1,.344.035q.164.035.328.082Zm.328,2.922A7.322,7.322,0,0,1,91.5,53.7a6.19,6.19,0,0,1,.375-1.02,5.374,5.374,0,0,1,.547-.914,3.686,3.686,0,0,1,.727-.738,3.294,3.294,0,0,1,.91-.488,3.059,3.059,0,0,1,1.1-.16,3.183,3.183,0,0,1,1.211.262,2.414,2.414,0,0,1,.961.77L98.148,47h1.414L97.484,59H96.2l.148-.906a3.268,3.268,0,0,1-1.109.809,3.189,3.189,0,0,1-1.359.254,2.487,2.487,0,0,1-.973-.207,2.318,2.318,0,0,1-.723-.512,2.827,2.827,0,0,1-.5-.738,4.057,4.057,0,0,1-.3-.883,5.483,5.483,0,0,1-.121-.953,6.586,6.586,0,0,1,.027-.941Zm1.4.164a5.607,5.607,0,0,0-.043.648,4.753,4.753,0,0,0,.039.672,3.2,3.2,0,0,0,.148.633,1.742,1.742,0,0,0,.293.535,1.437,1.437,0,0,0,.473.375,1.566,1.566,0,0,0,.684.152,2.057,2.057,0,0,0,.668-.074,2.393,2.393,0,0,0,.578-.254,2.586,2.586,0,0,0,.5-.4,4.834,4.834,0,0,0,.434-.508l.672-3.906a1.918,1.918,0,0,0-.66-.863,1.836,1.836,0,0,0-1.043-.324,2.088,2.088,0,0,0-1.133.266,2.642,2.642,0,0,0-.8.734,3.8,3.8,0,0,0-.52,1.02,5.762,5.762,0,0,0-.262,1.121Zm21.5,1.148a1.448,1.448,0,0,0-.121-.863,1.7,1.7,0,0,0-.512-.586,3.227,3.227,0,0,0-.746-.4q-.418-.16-.824-.293a10.452,10.452,0,0,1-1.164-.469,4.471,4.471,0,0,1-1.031-.668,2.954,2.954,0,0,1-.715-.922,2.41,2.41,0,0,1-.215-1.246,2.911,2.911,0,0,1,.434-1.379,3.422,3.422,0,0,1,.957-1,4.218,4.218,0,0,1,1.293-.594,5.2,5.2,0,0,1,1.434-.187,4.212,4.212,0,0,1,1.41.262,3.38,3.38,0,0,1,1.129.691,2.965,2.965,0,0,1,.73,1.078,3.4,3.4,0,0,1,.223,1.414h-1.469a2.068,2.068,0,0,0-.484-1.617,2.137,2.137,0,0,0-1.594-.594,3.447,3.447,0,0,0-.9.1,2.553,2.553,0,0,0-.793.344,2.127,2.127,0,0,0-.6.594,1.877,1.877,0,0,0-.3.859,1.223,1.223,0,0,0,.145.8,1.9,1.9,0,0,0,.527.563,3.2,3.2,0,0,0,.73.387q.4.152.762.27a10.7,10.7,0,0,1,1.223.492,4.355,4.355,0,0,1,1.039.684,2.833,2.833,0,0,1,.7.957,2.668,2.668,0,0,1,.2,1.3,2.9,2.9,0,0,1-.453,1.4,3.356,3.356,0,0,1-.98.973,4.289,4.289,0,0,1-1.316.563,5.567,5.567,0,0,1-1.461.164,4.622,4.622,0,0,1-1.461-.246,3.76,3.76,0,0,1-1.219-.68,3.111,3.111,0,0,1-.82-1.078A3.058,3.058,0,0,1,107.7,55.7l1.469.008a2.133,2.133,0,0,0,.129.965,1.812,1.812,0,0,0,.484.688,2.143,2.143,0,0,0,.762.422,3.282,3.282,0,0,0,.969.152,4.012,4.012,0,0,0,.91-.09,2.678,2.678,0,0,0,.832-.324,2.1,2.1,0,0,0,.629-.582A1.847,1.847,0,0,0,114.2,56.07Zm6.391-7.57-.359,2.047h1.539l-.2,1.117h-1.531l-.883,5.258a1.868,1.868,0,0,0-.008.379.839.839,0,0,0,.086.313.508.508,0,0,0,.211.215.753.753,0,0,0,.367.078,2.541,2.541,0,0,0,.344-.023q.172-.023.344-.055l-.109,1.18a3.847,3.847,0,0,1-1.031.141,1.621,1.621,0,0,1-.809-.2,1.438,1.438,0,0,1-.512-.5,1.959,1.959,0,0,1-.25-.715,3.4,3.4,0,0,1-.023-.832l.859-5.234h-1.492l.2-1.117h1.492l.359-2.047Zm6.672,3.336a5.626,5.626,0,0,0-.664-.07,2.338,2.338,0,0,0-1.238.32,2.8,2.8,0,0,0-.9.906L123.414,59H122l1.469-8.453,1.367-.008-.211.984a3.41,3.41,0,0,1,.914-.844,2.137,2.137,0,0,1,1.2-.3,1.637,1.637,0,0,1,.344.035q.164.035.328.082Zm1.6,7.164h-1.406l1.469-8.453h1.406Zm.336-10.672a.886.886,0,0,1,.234-.609.826.826,0,0,1,.594-.258.841.841,0,0,1,.34.051.755.755,0,0,1,.438.438.917.917,0,0,1,.059.332.834.834,0,0,1-.836.852.779.779,0,0,1-.6-.211A.764.764,0,0,1,129.2,48.328Zm4.781,2.211-.2,1.07a4.182,4.182,0,0,1,1.164-.9,2.93,2.93,0,0,1,1.43-.32,2.416,2.416,0,0,1,1.129.266,1.9,1.9,0,0,1,.707.668,2.492,2.492,0,0,1,.336.973,4.809,4.809,0,0,1,.016,1.164L137.633,59h-1.414l.93-5.562a2.968,2.968,0,0,0,.008-.711,1.462,1.462,0,0,0-.184-.574,1.034,1.034,0,0,0-.414-.391,1.517,1.517,0,0,0-.691-.152,2.044,2.044,0,0,0-.687.1,2.486,2.486,0,0,0-.6.289,2.908,2.908,0,0,0-.516.438,4.693,4.693,0,0,0-.434.535L132.586,59h-1.414l1.469-8.453Zm6.25,4.219a8.588,8.588,0,0,1,.211-1.055,6.073,6.073,0,0,1,.371-1.023,5.46,5.46,0,0,1,.543-.918,3.562,3.562,0,0,1,.719-.734,3.278,3.278,0,0,1,.91-.484,3.089,3.089,0,0,1,1.105-.16,3.125,3.125,0,0,1,1.254.281,2.386,2.386,0,0,1,.965.828l.281-.945h1.3l-1.406,8.273a4.566,4.566,0,0,1-.441,1.445,3.855,3.855,0,0,1-.848,1.125,3.6,3.6,0,0,1-1.2.719,4.01,4.01,0,0,1-1.5.227,3.794,3.794,0,0,1-.836-.109,3.9,3.9,0,0,1-.789-.285,3.4,3.4,0,0,1-.7-.457,2.966,2.966,0,0,1-.559-.625l.8-.867a2.817,2.817,0,0,0,.863.84,2.284,2.284,0,0,0,1.16.324,2.63,2.63,0,0,0,.98-.145,2.349,2.349,0,0,0,.773-.457,2.549,2.549,0,0,0,.555-.719,3.414,3.414,0,0,0,.324-.93l.156-.75a3.507,3.507,0,0,1-1.1.758,3.119,3.119,0,0,1-1.312.242,2.548,2.548,0,0,1-.98-.207,2.325,2.325,0,0,1-.73-.508,2.692,2.692,0,0,1-.5-.734,4.176,4.176,0,0,1-.3-.887,5.3,5.3,0,0,1-.117-.953,7.079,7.079,0,0,1,.031-.945Zm1.406.164a5.577,5.577,0,0,0-.043.645,4.8,4.8,0,0,0,.039.672,3.3,3.3,0,0,0,.145.633,1.739,1.739,0,0,0,.289.535,1.373,1.373,0,0,0,.473.375,1.684,1.684,0,0,0,.684.156,2.129,2.129,0,0,0,1.246-.336,3.542,3.542,0,0,0,.934-.906l.664-3.883a1.925,1.925,0,0,0-.656-.871,1.861,1.861,0,0,0-1.039-.332,2.088,2.088,0,0,0-1.133.266,2.623,2.623,0,0,0-.8.738,3.778,3.778,0,0,0-.516,1.023,5.942,5.942,0,0,0-.258,1.121Z" transform="translate(514 4059)" fill="#12263f"/>
    <path id="Trazado_880534" data-name="Trazado 880534" d="M56.57,14.242a.905.905,0,0,1,.223-.625.848.848,0,0,1,.668-.25.874.874,0,0,1,.676.25.887.887,0,0,1,.23.625.839.839,0,0,1-.23.6.89.89,0,0,1-.676.242.8.8,0,0,1-.891-.844Zm4.211,0A.905.905,0,0,1,61,13.617a.848.848,0,0,1,.668-.25.874.874,0,0,1,.676.25.887.887,0,0,1,.23.625.839.839,0,0,1-.23.6.89.89,0,0,1-.676.242.8.8,0,0,1-.891-.844Zm4.211,0a.905.905,0,0,1,.223-.625.848.848,0,0,1,.668-.25.874.874,0,0,1,.676.25.887.887,0,0,1,.23.625.839.839,0,0,1-.23.6.89.89,0,0,1-.676.242.8.8,0,0,1-.891-.844Zm4.211,0a.905.905,0,0,1,.223-.625.848.848,0,0,1,.668-.25.874.874,0,0,1,.676.25.887.887,0,0,1,.23.625.839.839,0,0,1-.23.6.89.89,0,0,1-.676.242.8.8,0,0,1-.891-.844Zm4.211,0a.905.905,0,0,1,.223-.625.848.848,0,0,1,.668-.25.874.874,0,0,1,.676.25.887.887,0,0,1,.23.625.839.839,0,0,1-.23.6.89.89,0,0,1-.676.242.8.8,0,0,1-.891-.844Zm4.211,0a.905.905,0,0,1,.223-.625.848.848,0,0,1,.668-.25.874.874,0,0,1,.676.25.887.887,0,0,1,.23.625.839.839,0,0,1-.23.6.89.89,0,0,1-.676.242.8.8,0,0,1-.891-.844Zm4.211,0a.905.905,0,0,1,.223-.625.848.848,0,0,1,.668-.25.874.874,0,0,1,.676.25.887.887,0,0,1,.23.625.839.839,0,0,1-.23.6.89.89,0,0,1-.676.242.8.8,0,0,1-.891-.844Zm4.211,0a.905.905,0,0,1,.223-.625.848.848,0,0,1,.668-.25.874.874,0,0,1,.676.25.887.887,0,0,1,.23.625.839.839,0,0,1-.23.6.89.89,0,0,1-.676.242.8.8,0,0,1-.891-.844Zm4.211,0a.905.905,0,0,1,.223-.625.848.848,0,0,1,.668-.25.874.874,0,0,1,.676.25.887.887,0,0,1,.23.625.839.839,0,0,1-.23.6.89.89,0,0,1-.676.242.8.8,0,0,1-.891-.844Zm4.211,0a.905.905,0,0,1,.223-.625.848.848,0,0,1,.668-.25.874.874,0,0,1,.676.25.887.887,0,0,1,.23.625.839.839,0,0,1-.23.6.89.89,0,0,1-.676.242.8.8,0,0,1-.891-.844Z" transform="translate(514 4145)" fill="#12263f"/>
    <path id="Trazado_880531" data-name="Trazado 880531" d="M18.859,11.211A4.025,4.025,0,0,1,17.5,14.1a4.76,4.76,0,0,1-3.223,1.055,4.28,4.28,0,0,1-3.441-1.473A6.038,6.038,0,0,1,9.586,9.641v-.7a6.819,6.819,0,0,1,.578-2.891,4.332,4.332,0,0,1,1.652-1.918,4.629,4.629,0,0,1,2.5-.668,4.637,4.637,0,0,1,3.172,1.055,4.326,4.326,0,0,1,1.391,2.961H16.531a2.376,2.376,0,0,0-.613-1.6,2.271,2.271,0,0,0-1.605-.5,1.991,1.991,0,0,0-1.754.84,4.707,4.707,0,0,0-.6,2.605V9.7a5.038,5.038,0,0,0,.559,2.7,1.954,1.954,0,0,0,1.762.852,2.314,2.314,0,0,0,1.621-.5,2.241,2.241,0,0,0,.613-1.535ZM22.633,15H20.367V3h2.266Zm6.758,0a2.507,2.507,0,0,1-.227-.758,2.732,2.732,0,0,1-2.133.914,3,3,0,0,1-2.059-.719,2.312,2.312,0,0,1-.816-1.812,2.389,2.389,0,0,1,1-2.062,4.915,4.915,0,0,1,2.879-.727H29.07V9.352a1.393,1.393,0,0,0-.3-.937,1.183,1.183,0,0,0-.949-.352,1.345,1.345,0,0,0-.895.273.929.929,0,0,0-.324.75H24.344A2.268,2.268,0,0,1,24.8,7.727a3,3,0,0,1,1.281-.98,4.669,4.669,0,0,1,1.859-.355,3.689,3.689,0,0,1,2.48.785,2.747,2.747,0,0,1,.918,2.207v3.664a4.041,4.041,0,0,0,.336,1.82V15Zm-1.867-1.57a1.945,1.945,0,0,0,.922-.223,1.462,1.462,0,0,0,.625-.6V11.156h-.844q-1.7,0-1.8,1.172l-.008.133a.9.9,0,0,0,.3.7A1.153,1.153,0,0,0,27.523,13.43Zm10.125-.766a.727.727,0,0,0-.41-.652,4.659,4.659,0,0,0-1.316-.426q-3.016-.633-3.016-2.562a2.323,2.323,0,0,1,.934-1.879,3.766,3.766,0,0,1,2.441-.754,4.053,4.053,0,0,1,2.574.758,2.388,2.388,0,0,1,.965,1.969H37.563a1.092,1.092,0,0,0-.312-.8A1.322,1.322,0,0,0,36.273,8a1.351,1.351,0,0,0-.883.258.814.814,0,0,0-.312.656.7.7,0,0,0,.355.605,3.657,3.657,0,0,0,1.2.4,9.8,9.8,0,0,1,1.422.379,2.336,2.336,0,0,1,1.789,2.273,2.2,2.2,0,0,1-.992,1.871,4.28,4.28,0,0,1-2.562.715,4.47,4.47,0,0,1-1.887-.379,3.166,3.166,0,0,1-1.293-1.039,2.414,2.414,0,0,1-.469-1.426h2.141a1.179,1.179,0,0,0,.445.922,1.766,1.766,0,0,0,1.109.32,1.635,1.635,0,0,0,.98-.246A.766.766,0,0,0,37.648,12.664Zm8.227,0a.727.727,0,0,0-.41-.652,4.659,4.659,0,0,0-1.316-.426q-3.016-.633-3.016-2.562a2.323,2.323,0,0,1,.934-1.879,3.766,3.766,0,0,1,2.441-.754,4.053,4.053,0,0,1,2.574.758,2.388,2.388,0,0,1,.965,1.969H45.789a1.092,1.092,0,0,0-.312-.8A1.322,1.322,0,0,0,44.5,8a1.351,1.351,0,0,0-.883.258.814.814,0,0,0-.312.656.7.7,0,0,0,.355.605,3.657,3.657,0,0,0,1.2.4,9.8,9.8,0,0,1,1.422.379A2.336,2.336,0,0,1,48.07,12.57a2.2,2.2,0,0,1-.992,1.871,4.28,4.28,0,0,1-2.562.715,4.47,4.47,0,0,1-1.887-.379,3.166,3.166,0,0,1-1.293-1.039,2.414,2.414,0,0,1-.469-1.426h2.141a1.179,1.179,0,0,0,.445.922,1.766,1.766,0,0,0,1.109.32,1.635,1.635,0,0,0,.98-.246A.766.766,0,0,0,45.875,12.664ZM58.727,3.625h1.508V11.68a3.336,3.336,0,0,1-.98,2.555,3.66,3.66,0,0,1-2.613.922A3.762,3.762,0,0,1,54,14.289a3.132,3.132,0,0,1-.945-2.43h1.5a2.086,2.086,0,0,0,.535,1.523,2.073,2.073,0,0,0,1.551.547,2.012,2.012,0,0,0,1.5-.586,2.27,2.27,0,0,0,.582-1.641Zm10.172,8.4H64.133L63.063,15H61.516L65.859,3.625h1.313L71.523,15H69.984ZM64.586,10.8h3.867l-1.937-5.32Zm11.555,2.211,3.25-9.383h1.641L76.813,15H75.484L71.273,3.625h1.633Zm12.109-.984H83.484L82.414,15H80.867L85.211,3.625h1.313L90.875,15H89.336ZM83.938,10.8H87.8l-1.937-5.32Z" transform="translate(541 3975)" fill="#12263f"/>
    <path id="Trazado_880532" data-name="Trazado 880532" d="M31.918,3.625v7.492A3.836,3.836,0,0,1,30.75,14.07a4.5,4.5,0,0,1-3.191,1.086A4.553,4.553,0,0,1,24.395,14.1a3.77,3.77,0,0,1-1.2-2.9V3.625h2.344v7.508a2.167,2.167,0,0,0,.535,1.629,2.054,2.054,0,0,0,1.48.512q1.977,0,2.008-2.078V3.625Zm6.352,9.039a.727.727,0,0,0-.41-.652,4.659,4.659,0,0,0-1.316-.426q-3.016-.633-3.016-2.562a2.323,2.323,0,0,1,.934-1.879A3.766,3.766,0,0,1,36.9,6.391a4.053,4.053,0,0,1,2.574.758,2.388,2.388,0,0,1,.965,1.969H38.184a1.092,1.092,0,0,0-.312-.8A1.322,1.322,0,0,0,36.895,8a1.351,1.351,0,0,0-.883.258.814.814,0,0,0-.312.656.7.7,0,0,0,.355.605,3.657,3.657,0,0,0,1.2.4,9.8,9.8,0,0,1,1.422.379,2.336,2.336,0,0,1,1.789,2.273,2.2,2.2,0,0,1-.992,1.871,4.28,4.28,0,0,1-2.562.715,4.47,4.47,0,0,1-1.887-.379,3.166,3.166,0,0,1-1.293-1.039,2.414,2.414,0,0,1-.469-1.426H35.4a1.179,1.179,0,0,0,.445.922,1.766,1.766,0,0,0,1.109.32,1.635,1.635,0,0,0,.98-.246A.766.766,0,0,0,38.27,12.664Zm8.711,1.477a2.831,2.831,0,0,1-2.312,1.016,2.67,2.67,0,0,1-2.074-.781,3.335,3.335,0,0,1-.73-2.289V6.547h2.258v5.467q0,1.322,1.2,1.322a1.63,1.63,0,0,0,1.578-.8V6.547h2.266V15H47.043ZM55.77,15a2.507,2.507,0,0,1-.227-.758,2.732,2.732,0,0,1-2.133.914,3,3,0,0,1-2.059-.719,2.312,2.312,0,0,1-.816-1.812,2.389,2.389,0,0,1,1-2.062,4.915,4.915,0,0,1,2.879-.727h1.039V9.352a1.393,1.393,0,0,0-.3-.937,1.183,1.183,0,0,0-.949-.352,1.345,1.345,0,0,0-.895.273.929.929,0,0,0-.324.75H50.723a2.268,2.268,0,0,1,.453-1.359,3,3,0,0,1,1.281-.98,4.669,4.669,0,0,1,1.859-.355,3.689,3.689,0,0,1,2.48.785,2.747,2.747,0,0,1,.918,2.207v3.664a4.041,4.041,0,0,0,.336,1.82V15ZM53.9,13.43a1.945,1.945,0,0,0,.922-.223,1.462,1.462,0,0,0,.625-.6V11.156h-.844q-1.7,0-1.8,1.172l-.008.133a.9.9,0,0,0,.3.7A1.153,1.153,0,0,0,53.9,13.43ZM64.2,8.664a6.134,6.134,0,0,0-.812-.062,1.654,1.654,0,0,0-1.68.867V15H59.449V6.547h2.133l.063,1.008a2.092,2.092,0,0,1,1.883-1.164,2.366,2.366,0,0,1,.7.1ZM67.668,15H65.4V6.547h2.266ZM65.27,4.359a1.112,1.112,0,0,1,.34-.836,1.465,1.465,0,0,1,1.848,0,1.105,1.105,0,0,1,.344.836,1.108,1.108,0,0,1-.348.844,1.448,1.448,0,0,1-1.836,0A1.108,1.108,0,0,1,65.27,4.359ZM69.176,10.7a5.013,5.013,0,0,1,.484-2.242A3.546,3.546,0,0,1,71.055,6.93a4.069,4.069,0,0,1,2.113-.539,3.849,3.849,0,0,1,2.793,1.047,4.2,4.2,0,0,1,1.207,2.844l.016.578A4.418,4.418,0,0,1,76.1,13.98a4.209,4.209,0,0,1-5.832,0,4.5,4.5,0,0,1-1.09-3.187Zm2.258.16a3.16,3.16,0,0,0,.453,1.843,1.628,1.628,0,0,0,2.578.008,3.457,3.457,0,0,0,.461-2.015,3.128,3.128,0,0,0-.461-1.831,1.5,1.5,0,0,0-1.3-.649,1.474,1.474,0,0,0-1.281.646A3.516,3.516,0,0,0,71.434,10.856Z" transform="translate(540 4019)" fill="#fff"/>
    <rect id="Rectángulo_403793" data-name="Rectángulo 403793" width="253" height="84" transform="translate(883 4048)" fill="#d6e1fd"/>
    <path id="Trazado_880538" data-name="Trazado 880538" d="M27.785,5.523H24.3V15H21.957V5.523H18.52v-1.9h9.266ZM32.559,15a2.507,2.507,0,0,1-.227-.758,2.732,2.732,0,0,1-2.133.914,3,3,0,0,1-2.059-.719,2.312,2.312,0,0,1-.816-1.812,2.389,2.389,0,0,1,1-2.062A4.915,4.915,0,0,1,31.2,9.836h1.039V9.352a1.393,1.393,0,0,0-.3-.937,1.183,1.183,0,0,0-.949-.352,1.345,1.345,0,0,0-.895.273.929.929,0,0,0-.324.75H27.512a2.268,2.268,0,0,1,.453-1.359,3,3,0,0,1,1.281-.98,4.669,4.669,0,0,1,1.859-.355,3.689,3.689,0,0,1,2.48.785A2.747,2.747,0,0,1,34.5,9.383v3.664a4.041,4.041,0,0,0,.336,1.82V15Zm-1.867-1.57a1.945,1.945,0,0,0,.922-.223,1.462,1.462,0,0,0,.625-.6V11.156h-.844q-1.7,0-1.8,1.172l-.008.133a.9.9,0,0,0,.3.7A1.153,1.153,0,0,0,30.691,13.43Zm13.164-2.578a5.119,5.119,0,0,1-.867,3.168,2.872,2.872,0,0,1-2.422,1.137,2.639,2.639,0,0,1-2.2-1.055l-.1.9H36.238V3H38.5V7.3a2.571,2.571,0,0,1,2.055-.914,2.9,2.9,0,0,1,2.426,1.137,5.126,5.126,0,0,1,.879,3.2ZM41.6,10.679A3.381,3.381,0,0,0,41.191,8.8a1.372,1.372,0,0,0-1.211-.592A1.489,1.489,0,0,0,38.5,9.1v3.346a1.509,1.509,0,0,0,1.5.893,1.4,1.4,0,0,0,1.438-1.081A5.6,5.6,0,0,0,41.6,10.679ZM47.629,15H45.363V3h2.266Zm6.758,0a2.507,2.507,0,0,1-.227-.758,2.732,2.732,0,0,1-2.133.914,3,3,0,0,1-2.059-.719,2.312,2.312,0,0,1-.816-1.812,2.389,2.389,0,0,1,1-2.062,4.915,4.915,0,0,1,2.879-.727h1.039V9.352a1.393,1.393,0,0,0-.3-.937,1.183,1.183,0,0,0-.949-.352,1.345,1.345,0,0,0-.895.273.929.929,0,0,0-.324.75H49.34a2.268,2.268,0,0,1,.453-1.359,3,3,0,0,1,1.281-.98,4.669,4.669,0,0,1,1.859-.355,3.689,3.689,0,0,1,2.48.785,2.747,2.747,0,0,1,.918,2.207v3.664a4.041,4.041,0,0,0,.336,1.82V15ZM52.52,13.43a1.945,1.945,0,0,0,.922-.223,1.462,1.462,0,0,0,.625-.6V11.156h-.844q-1.7,0-1.8,1.172l-.008.133a.9.9,0,0,0,.3.7A1.153,1.153,0,0,0,52.52,13.43ZM62.2,15V3.625h3.984a5.232,5.232,0,0,1,3.141.793,2.712,2.712,0,0,1,1.07,2.324,2.57,2.57,0,0,1-.43,1.473,2.482,2.482,0,0,1-1.2.934,2.4,2.4,0,0,1,1.379.883,2.61,2.61,0,0,1,.5,1.625,3,3,0,0,1-1.047,2.484A4.713,4.713,0,0,1,66.621,15Zm2.344-4.953v3.07h2.008a1.938,1.938,0,0,0,1.293-.395,1.353,1.353,0,0,0,.465-1.09,1.428,1.428,0,0,0-1.617-1.586Zm0-1.656h1.734q1.773-.031,1.773-1.414A1.307,1.307,0,0,0,67.6,5.863a2.363,2.363,0,0,0-1.418-.34H64.543ZM72.41,15V3.625h3.5a5.315,5.315,0,0,1,2.684.676,4.712,4.712,0,0,1,1.848,1.922,5.928,5.928,0,0,1,.664,2.832v.523a5.945,5.945,0,0,1-.652,2.82,4.672,4.672,0,0,1-1.84,1.914,5.355,5.355,0,0,1-2.68.688Zm2.344-9.477v7.594h1.133a2.545,2.545,0,0,0,2.1-.9,4.06,4.06,0,0,0,.742-2.57v-.6a4.124,4.124,0,0,0-.719-2.629,2.537,2.537,0,0,0-2.1-.895Z" transform="translate(961 3975)" fill="#12263f"/>
    <path id="Trazado_880537" data-name="Trazado 880537" d="M9.625,3.625v7.492A3.836,3.836,0,0,1,8.457,14.07a4.5,4.5,0,0,1-3.191,1.086A4.553,4.553,0,0,1,2.1,14.1a3.77,3.77,0,0,1-1.2-2.9V3.625H3.25v7.508a2.167,2.167,0,0,0,.535,1.629,2.054,2.054,0,0,0,1.48.512q1.977,0,2.008-2.078V3.625Zm6.352,9.039a.727.727,0,0,0-.41-.652,4.659,4.659,0,0,0-1.316-.426q-3.016-.633-3.016-2.562a2.323,2.323,0,0,1,.934-1.879,3.766,3.766,0,0,1,2.441-.754,4.053,4.053,0,0,1,2.574.758,2.388,2.388,0,0,1,.965,1.969H15.891a1.092,1.092,0,0,0-.312-.8A1.322,1.322,0,0,0,14.6,8a1.351,1.351,0,0,0-.883.258.814.814,0,0,0-.312.656.7.7,0,0,0,.355.605,3.657,3.657,0,0,0,1.2.4,9.8,9.8,0,0,1,1.422.379,2.336,2.336,0,0,1,1.789,2.273,2.2,2.2,0,0,1-.992,1.871,4.28,4.28,0,0,1-2.562.715,4.47,4.47,0,0,1-1.887-.379,3.166,3.166,0,0,1-1.293-1.039,2.414,2.414,0,0,1-.469-1.426h2.141a1.179,1.179,0,0,0,.445.922,1.766,1.766,0,0,0,1.109.32,1.635,1.635,0,0,0,.98-.246A.766.766,0,0,0,15.977,12.664Zm8.711,1.477a2.831,2.831,0,0,1-2.312,1.016,2.67,2.67,0,0,1-2.074-.781,3.335,3.335,0,0,1-.73-2.289V6.547h2.258v5.467q0,1.322,1.2,1.322a1.63,1.63,0,0,0,1.578-.8V6.547h2.266V15H24.75ZM33.477,15a2.507,2.507,0,0,1-.227-.758,2.732,2.732,0,0,1-2.133.914,3,3,0,0,1-2.059-.719,2.312,2.312,0,0,1-.816-1.812,2.389,2.389,0,0,1,1-2.062,4.915,4.915,0,0,1,2.879-.727h1.039V9.352a1.393,1.393,0,0,0-.3-.937,1.183,1.183,0,0,0-.949-.352,1.345,1.345,0,0,0-.895.273.929.929,0,0,0-.324.75H28.43a2.268,2.268,0,0,1,.453-1.359,3,3,0,0,1,1.281-.98,4.669,4.669,0,0,1,1.859-.355,3.689,3.689,0,0,1,2.48.785,2.747,2.747,0,0,1,.918,2.207v3.664a4.041,4.041,0,0,0,.336,1.82V15Zm-1.867-1.57a1.945,1.945,0,0,0,.922-.223,1.462,1.462,0,0,0,.625-.6V11.156h-.844q-1.7,0-1.8,1.172l-.008.133a.9.9,0,0,0,.3.7A1.153,1.153,0,0,0,31.609,13.43Zm10.3-4.766a6.134,6.134,0,0,0-.812-.062,1.654,1.654,0,0,0-1.68.867V15H37.156V6.547h2.133l.063,1.008a2.092,2.092,0,0,1,1.883-1.164,2.366,2.366,0,0,1,.7.1ZM45.375,15H43.109V6.547h2.266Zm-2.4-10.641a1.112,1.112,0,0,1,.34-.836,1.465,1.465,0,0,1,1.848,0,1.105,1.105,0,0,1,.344.836,1.108,1.108,0,0,1-.348.844,1.448,1.448,0,0,1-1.836,0A1.108,1.108,0,0,1,42.977,4.359ZM46.883,10.7a5.013,5.013,0,0,1,.484-2.242A3.546,3.546,0,0,1,48.762,6.93a4.069,4.069,0,0,1,2.113-.539,3.849,3.849,0,0,1,2.793,1.047,4.2,4.2,0,0,1,1.207,2.844l.016.578A4.418,4.418,0,0,1,53.8,13.98a4.209,4.209,0,0,1-5.832,0,4.5,4.5,0,0,1-1.09-3.187Zm2.258.16a3.16,3.16,0,0,0,.453,1.843,1.628,1.628,0,0,0,2.578.008,3.457,3.457,0,0,0,.461-2.015,3.128,3.128,0,0,0-.461-1.831,1.5,1.5,0,0,0-1.3-.649,1.474,1.474,0,0,0-1.281.646A3.516,3.516,0,0,0,49.141,10.856Z" transform="translate(924 4017)" fill="#12263f"/>
    <path id="Trazado_880539" data-name="Trazado 880539" d="M2.859,15H.578L2.227,3.625H4.508ZM8.117,7.734a3.689,3.689,0,0,1,1.176-.992,3.048,3.048,0,0,1,1.441-.352,2.151,2.151,0,0,1,1.863.832,3.572,3.572,0,0,1,.355,2.6L12.2,15H9.914l.75-5.172a1.9,1.9,0,0,0-.125-1.3,1.022,1.022,0,0,0-.9-.367A2.122,2.122,0,0,0,8,8.906L7.117,15H4.836L6.063,6.547H8.188Zm6.039,3.109a6.245,6.245,0,0,1,1.332-3.25,3.3,3.3,0,0,1,2.613-1.2,2.064,2.064,0,0,1,1.09.281,2.3,2.3,0,0,1,.777.8l.68-4.656h2.289L21.172,15H19.227l-.047-1.039a3.411,3.411,0,0,1-1.07.895,2.77,2.77,0,0,1-1.3.309,2.446,2.446,0,0,1-2.238-1.148,4.376,4.376,0,0,1-.441-3.008Zm2.25.164a3.217,3.217,0,0,0,.121,1.758,1.116,1.116,0,0,0,1.129.625,1.909,1.909,0,0,0,.887-.2,1.971,1.971,0,0,0,.684-.594l.523-3.586a1.389,1.389,0,0,0-.5-.621,1.433,1.433,0,0,0-.816-.223,1.537,1.537,0,0,0-1.32.746,4.567,4.567,0,0,0-.68,1.934Zm10.219,4.156A3.361,3.361,0,0,1,23.832,14a3.71,3.71,0,0,1-.668-2.98l.047-.312a5.35,5.35,0,0,1,1.48-3.129A4.072,4.072,0,0,1,27.7,6.391a2.829,2.829,0,0,1,2.438,1.047,3.7,3.7,0,0,1,.523,2.8l-.172,1.18H25.445l-.016.039a1.957,1.957,0,0,0,.32,1.418,1.6,1.6,0,0,0,1.359.535,4.993,4.993,0,0,0,1.266-.141,9.4,9.4,0,0,0,1.2-.422l.352,1.438a5.365,5.365,0,0,1-1.418.617A6.622,6.622,0,0,1,26.625,15.164Zm.82-7.016a1.462,1.462,0,0,0-1.109.473A2.765,2.765,0,0,0,25.7,9.867l.016.047h2.766l.031-.172a1.857,1.857,0,0,0-.141-1.176A.973.973,0,0,0,27.445,8.148ZM35.32,9.227l.047.008,1.688-2.687h2.578l-3.156,4.18L38.492,15h-2.57l-.977-2.8L33.156,15H30.578l3.25-4.273-1.945-4.18h2.563Zm7.523,5.938A3.361,3.361,0,0,1,40.051,14a3.71,3.71,0,0,1-.668-2.98l.047-.312a5.35,5.35,0,0,1,1.48-3.129,4.072,4.072,0,0,1,3.012-1.184,2.829,2.829,0,0,1,2.438,1.047,3.7,3.7,0,0,1,.523,2.8l-.172,1.18H41.664l-.016.039a1.957,1.957,0,0,0,.32,1.418,1.6,1.6,0,0,0,1.359.535,4.993,4.993,0,0,0,1.266-.141,9.4,9.4,0,0,0,1.2-.422l.352,1.438a5.365,5.365,0,0,1-1.418.617A6.622,6.622,0,0,1,42.844,15.164Zm.82-7.016a1.462,1.462,0,0,0-1.109.473,2.765,2.765,0,0,0-.641,1.246l.016.047H44.7l.031-.172a1.857,1.857,0,0,0-.141-1.176A.973.973,0,0,0,43.664,8.148Zm8.8,4.508a.665.665,0,0,0-.27-.645,3.385,3.385,0,0,0-1.285-.473,4.649,4.649,0,0,1-2.125-.9,1.721,1.721,0,0,1-.547-1.633,2.747,2.747,0,0,1,1.18-1.863,4.2,4.2,0,0,1,2.563-.754,3.565,3.565,0,0,1,2.441.77,1.95,1.95,0,0,1,.676,1.9l-.016.047h-2.2a1.018,1.018,0,0,0-.215-.832,1.143,1.143,0,0,0-.9-.316,1.458,1.458,0,0,0-.9.273.994.994,0,0,0-.418.672.658.658,0,0,0,.242.641,3.3,3.3,0,0,0,1.289.438,4.721,4.721,0,0,1,2.184.918,1.784,1.784,0,0,1,.535,1.668,2.67,2.67,0,0,1-1.238,1.879,4.719,4.719,0,0,1-2.684.715,3.458,3.458,0,0,1-2.527-.863,2.086,2.086,0,0,1-.684-1.941l.023-.047h2.086a1.041,1.041,0,0,0,.309.984,1.648,1.648,0,0,0,1.059.3,1.741,1.741,0,0,0,.992-.254A.969.969,0,0,0,52.461,12.656Z" transform="translate(924 4143.5)" fill="#12263f"/>
    <g id="Icon_core-window-restore" data-name="Icon core-window-restore" transform="translate(889.352 4012.75)">
      <path id="Trazado_879489" data-name="Trazado 879489" d="M18.292,10.758H2.368a1.227,1.227,0,0,0-1.226,1.226V26.337a1.227,1.227,0,0,0,1.226,1.226H18.292a1.227,1.227,0,0,0,1.226-1.226V11.984a1.227,1.227,0,0,0-1.226-1.226Zm-.409,1.635V14.7H2.777v-2.31ZM2.777,25.928V16.337H17.884v9.592Z" transform="translate(0 -2.327)" fill="#3a1d71"/>
      <path id="Trazado_879490" data-name="Trazado 879490" d="M26.571,2.25H10.226A1.227,1.227,0,0,0,9,3.476V6.8h1.635V3.885H26.163V17.939H23.3v1.635h3.269A1.227,1.227,0,0,0,27.8,18.347V3.476A1.227,1.227,0,0,0,26.571,2.25Z" transform="translate(-2.149)" fill="#3a1d71"/>
    </g>
    <path id="Trazado_880536" data-name="Trazado 880536" d="M5.523,14.164a3.125,3.125,0,0,1-1.152.77A3.655,3.655,0,0,1,3,15.156a2.388,2.388,0,0,1-1.145-.277,1.96,1.96,0,0,1-.719-.7,2.644,2.644,0,0,1-.344-1,4.8,4.8,0,0,1-.02-1.18L1.68,6.547H3.094L2.18,12.031a3.68,3.68,0,0,0-.016.676,1.668,1.668,0,0,0,.148.6,1.106,1.106,0,0,0,.367.438,1.181,1.181,0,0,0,.648.188,2.654,2.654,0,0,0,1.348-.289,2.689,2.689,0,0,0,1-.937L6.734,6.547H8.148L6.68,15H5.344Zm8.57-1.453a.953.953,0,0,0-.086-.6,1.14,1.14,0,0,0-.375-.4,2.124,2.124,0,0,0-.543-.254q-.3-.094-.582-.164-.469-.117-.949-.289a3.592,3.592,0,0,1-.863-.441,2.129,2.129,0,0,1-.617-.668,1.752,1.752,0,0,1-.211-.977,2.212,2.212,0,0,1,.336-1.1,2.75,2.75,0,0,1,.773-.8,3.5,3.5,0,0,1,1.043-.48,4.007,4.007,0,0,1,1.137-.152,3.6,3.6,0,0,1,1.121.188,2.716,2.716,0,0,1,.918.52,2.363,2.363,0,0,1,.609.828,2.538,2.538,0,0,1,.2,1.113L14.6,9.031a1.453,1.453,0,0,0-.1-.594,1.262,1.262,0,0,0-.312-.453,1.418,1.418,0,0,0-.48-.289,1.88,1.88,0,0,0-.605-.109,2.355,2.355,0,0,0-.613.066,1.913,1.913,0,0,0-.566.234,1.524,1.524,0,0,0-.434.4,1.264,1.264,0,0,0-.223.578.808.808,0,0,0,.031.395.846.846,0,0,0,.188.3,1.106,1.106,0,0,0,.293.215,2.81,2.81,0,0,0,.359.152q.191.066.383.113t.355.094a9.008,9.008,0,0,1,.965.309,3.567,3.567,0,0,1,.863.469,2.12,2.12,0,0,1,.605.7,1.85,1.85,0,0,1,.191,1,2.332,2.332,0,0,1-.355,1.152,2.712,2.712,0,0,1-.8.8,3.508,3.508,0,0,1-1.082.465,4.439,4.439,0,0,1-1.191.133,3.824,3.824,0,0,1-1.176-.2,3.057,3.057,0,0,1-.984-.539,2.457,2.457,0,0,1-.9-2.031l1.414.008a1.664,1.664,0,0,0,.129.676,1.415,1.415,0,0,0,.352.492,1.479,1.479,0,0,0,.531.3,2.178,2.178,0,0,0,.684.1,2.863,2.863,0,0,0,.641-.059,2.257,2.257,0,0,0,.609-.215,1.556,1.556,0,0,0,.48-.391A1.153,1.153,0,0,0,14.094,12.711Zm6.367,2.445a3.229,3.229,0,0,1-1.5-.355,2.9,2.9,0,0,1-1.02-.9,3.588,3.588,0,0,1-.551-1.289,4.959,4.959,0,0,1-.09-1.516l.039-.336a5.9,5.9,0,0,1,.23-1.078,5.8,5.8,0,0,1,.434-1.031,5.01,5.01,0,0,1,.629-.91,4.188,4.188,0,0,1,.813-.723,3.766,3.766,0,0,1,.977-.473,3.4,3.4,0,0,1,1.129-.152,2.832,2.832,0,0,1,1.453.387,2.593,2.593,0,0,1,.9.945,3.62,3.62,0,0,1,.418,1.316,5.789,5.789,0,0,1-.008,1.5l-.094.648H18.711a3.463,3.463,0,0,0,0,.984,2.508,2.508,0,0,0,.293.887,1.849,1.849,0,0,0,.613.648,1.821,1.821,0,0,0,.961.27,2.5,2.5,0,0,0,1.289-.3,4.153,4.153,0,0,0,1.039-.824l.813.688a3.649,3.649,0,0,1-.641.711,3.82,3.82,0,0,1-.777.512,3.689,3.689,0,0,1-.883.3A4.308,4.308,0,0,1,20.461,15.156ZM21.477,7.57a1.907,1.907,0,0,0-.957.188,2.521,2.521,0,0,0-.734.559,3.623,3.623,0,0,0-.543.789,6.152,6.152,0,0,0-.375.895l4.109.016.031-.141a2.888,2.888,0,0,0,.008-.82,1.968,1.968,0,0,0-.242-.73,1.548,1.548,0,0,0-.508-.531A1.521,1.521,0,0,0,21.477,7.57Zm9.031.266a5.626,5.626,0,0,0-.664-.07,2.338,2.338,0,0,0-1.238.32,2.8,2.8,0,0,0-.9.906L26.664,15H25.25l1.469-8.453,1.367-.008-.211.984a3.41,3.41,0,0,1,.914-.844,2.137,2.137,0,0,1,1.2-.3,1.637,1.637,0,0,1,.344.035q.164.035.328.082ZM32.367,15H30.906L32.883,3.625h1.461Zm2.914-4.242A7.321,7.321,0,0,1,35.488,9.7a6.191,6.191,0,0,1,.375-1.02,5.373,5.373,0,0,1,.547-.914,3.686,3.686,0,0,1,.727-.738,3.294,3.294,0,0,1,.91-.488,3.059,3.059,0,0,1,1.1-.16,3.182,3.182,0,0,1,1.211.262,2.414,2.414,0,0,1,.961.77L42.133,3h1.414L41.469,15H40.18l.148-.906a3.268,3.268,0,0,1-1.109.809,3.189,3.189,0,0,1-1.359.254,2.487,2.487,0,0,1-.973-.207,2.318,2.318,0,0,1-.723-.512,2.827,2.827,0,0,1-.5-.738,4.057,4.057,0,0,1-.3-.883,5.483,5.483,0,0,1-.121-.953,6.587,6.587,0,0,1,.027-.941Zm1.4.164a5.607,5.607,0,0,0-.043.648,4.753,4.753,0,0,0,.039.672,3.2,3.2,0,0,0,.148.633,1.742,1.742,0,0,0,.293.535,1.437,1.437,0,0,0,.473.375,1.566,1.566,0,0,0,.684.152,2.057,2.057,0,0,0,.668-.074,2.393,2.393,0,0,0,.578-.254,2.586,2.586,0,0,0,.5-.4,4.835,4.835,0,0,0,.434-.508L41.125,8.8a1.918,1.918,0,0,0-.66-.863,1.836,1.836,0,0,0-1.043-.324,2.088,2.088,0,0,0-1.133.266,2.642,2.642,0,0,0-.8.734,3.8,3.8,0,0,0-.52,1.02A5.762,5.762,0,0,0,36.7,10.75ZM49.414,15H47.953L49.93,3.625h1.461Zm11.219,0H59.211L55.148,6.172,53.617,15H52.141L54.117,3.625h1.422l4.07,8.867,1.539-8.867h1.461ZM72.445,4.859H68.906L67.148,15H65.688L67.445,4.859H63.906l.219-1.234h8.539ZM5.523,36.164a3.125,3.125,0,0,1-1.152.77A3.655,3.655,0,0,1,3,37.156a2.388,2.388,0,0,1-1.145-.277,1.96,1.96,0,0,1-.719-.7,2.644,2.644,0,0,1-.344-1,4.8,4.8,0,0,1-.02-1.18l.906-5.461H3.094L2.18,34.031a3.68,3.68,0,0,0-.016.676,1.668,1.668,0,0,0,.148.6,1.106,1.106,0,0,0,.367.438,1.181,1.181,0,0,0,.648.188,2.654,2.654,0,0,0,1.348-.289,2.689,2.689,0,0,0,1-.937l1.063-6.156H8.148L6.68,37H5.344Zm8.57-1.453a.953.953,0,0,0-.086-.6,1.14,1.14,0,0,0-.375-.4,2.124,2.124,0,0,0-.543-.254q-.3-.094-.582-.164-.469-.117-.949-.289a3.592,3.592,0,0,1-.863-.441,2.129,2.129,0,0,1-.617-.668,1.752,1.752,0,0,1-.211-.977,2.212,2.212,0,0,1,.336-1.1,2.75,2.75,0,0,1,.773-.8,3.5,3.5,0,0,1,1.043-.48,4.007,4.007,0,0,1,1.137-.152,3.6,3.6,0,0,1,1.121.188,2.716,2.716,0,0,1,.918.52,2.363,2.363,0,0,1,.609.828,2.538,2.538,0,0,1,.2,1.113L14.6,31.031a1.453,1.453,0,0,0-.1-.594,1.262,1.262,0,0,0-.312-.453,1.418,1.418,0,0,0-.48-.289,1.88,1.88,0,0,0-.605-.109,2.355,2.355,0,0,0-.613.066,1.913,1.913,0,0,0-.566.234,1.524,1.524,0,0,0-.434.4,1.264,1.264,0,0,0-.223.578.808.808,0,0,0,.031.395.846.846,0,0,0,.188.3,1.106,1.106,0,0,0,.293.215,2.811,2.811,0,0,0,.359.152q.191.066.383.113t.355.094a9.008,9.008,0,0,1,.965.309,3.567,3.567,0,0,1,.863.469,2.12,2.12,0,0,1,.605.7,1.85,1.85,0,0,1,.191,1,2.332,2.332,0,0,1-.355,1.152,2.712,2.712,0,0,1-.8.8,3.508,3.508,0,0,1-1.082.465,4.439,4.439,0,0,1-1.191.133,3.824,3.824,0,0,1-1.176-.2,3.057,3.057,0,0,1-.984-.539,2.457,2.457,0,0,1-.9-2.031l1.414.008a1.664,1.664,0,0,0,.129.676,1.415,1.415,0,0,0,.352.492,1.479,1.479,0,0,0,.531.3,2.178,2.178,0,0,0,.684.1,2.863,2.863,0,0,0,.641-.059,2.257,2.257,0,0,0,.609-.215,1.556,1.556,0,0,0,.48-.391A1.153,1.153,0,0,0,14.094,34.711Zm6.367,2.445a3.229,3.229,0,0,1-1.5-.355,2.9,2.9,0,0,1-1.02-.9,3.588,3.588,0,0,1-.551-1.289,4.959,4.959,0,0,1-.09-1.516l.039-.336a5.9,5.9,0,0,1,.23-1.078,5.8,5.8,0,0,1,.434-1.031,5.01,5.01,0,0,1,.629-.91,4.188,4.188,0,0,1,.813-.723,3.766,3.766,0,0,1,.977-.473,3.4,3.4,0,0,1,1.129-.152,2.832,2.832,0,0,1,1.453.387,2.593,2.593,0,0,1,.9.945,3.62,3.62,0,0,1,.418,1.316,5.789,5.789,0,0,1-.008,1.5l-.094.648H18.711a3.463,3.463,0,0,0,0,.984,2.508,2.508,0,0,0,.293.887,1.849,1.849,0,0,0,.613.648,1.821,1.821,0,0,0,.961.27,2.5,2.5,0,0,0,1.289-.3,4.153,4.153,0,0,0,1.039-.824l.813.688a3.649,3.649,0,0,1-.641.711,3.82,3.82,0,0,1-.777.512,3.689,3.689,0,0,1-.883.3A4.308,4.308,0,0,1,20.461,37.156Zm1.016-7.586a1.907,1.907,0,0,0-.957.188,2.521,2.521,0,0,0-.734.559,3.623,3.623,0,0,0-.543.789,6.152,6.152,0,0,0-.375.895l4.109.016.031-.141a2.888,2.888,0,0,0,.008-.82,1.968,1.968,0,0,0-.242-.73,1.548,1.548,0,0,0-.508-.531A1.521,1.521,0,0,0,21.477,29.57Zm9.031.266a5.625,5.625,0,0,0-.664-.07,2.338,2.338,0,0,0-1.238.32,2.8,2.8,0,0,0-.9.906L26.664,37H25.25l1.469-8.453,1.367-.008-.211.984a3.41,3.41,0,0,1,.914-.844,2.137,2.137,0,0,1,1.2-.3,1.637,1.637,0,0,1,.344.035q.164.035.328.082Zm2.875-1.3-.2,1.07a4.182,4.182,0,0,1,1.164-.9,2.93,2.93,0,0,1,1.43-.32,2.416,2.416,0,0,1,1.129.266,1.9,1.9,0,0,1,.707.668,2.493,2.493,0,0,1,.336.973,4.809,4.809,0,0,1,.016,1.164L37.039,37H35.625l.93-5.562a2.968,2.968,0,0,0,.008-.711,1.462,1.462,0,0,0-.184-.574,1.034,1.034,0,0,0-.414-.391,1.517,1.517,0,0,0-.691-.152,2.044,2.044,0,0,0-.687.1,2.486,2.486,0,0,0-.6.289,2.908,2.908,0,0,0-.516.438,4.694,4.694,0,0,0-.434.535L31.992,37H30.578l1.469-8.453ZM44.359,37a1.894,1.894,0,0,1-.055-.445,4.326,4.326,0,0,1,.023-.445,4.514,4.514,0,0,1-1.133.77,2.923,2.923,0,0,1-1.336.277,2.882,2.882,0,0,1-.992-.184,2.357,2.357,0,0,1-.8-.5,2.161,2.161,0,0,1-.516-.766,2.276,2.276,0,0,1-.148-.992,2.59,2.59,0,0,1,.426-1.352,2.918,2.918,0,0,1,.957-.879,4.286,4.286,0,0,1,1.281-.477,6.93,6.93,0,0,1,1.4-.145l1.477.008.094-.672a2,2,0,0,0-.031-.668,1.255,1.255,0,0,0-.25-.52,1.192,1.192,0,0,0-.465-.34,1.774,1.774,0,0,0-.66-.129,2.374,2.374,0,0,0-.648.074,2.086,2.086,0,0,0-.59.25,1.75,1.75,0,0,0-.465.422,1.435,1.435,0,0,0-.266.59l-1.422.008a2.191,2.191,0,0,1,.41-1.105A3.079,3.079,0,0,1,41.5,29a3.834,3.834,0,0,1,1.105-.469,4.48,4.48,0,0,1,1.164-.145,3.457,3.457,0,0,1,1.16.215,2.426,2.426,0,0,1,.879.566,2.225,2.225,0,0,1,.527.887,2.906,2.906,0,0,1,.105,1.176l-.648,3.93a6.4,6.4,0,0,0-.082.859,3.046,3.046,0,0,0,.1.852L45.8,37Zm-2.219-1.094a2.431,2.431,0,0,0,.691-.082,2.611,2.611,0,0,0,.629-.262,3.1,3.1,0,0,0,.551-.406,3.444,3.444,0,0,0,.457-.516l.3-1.742-1.07-.008a7.38,7.38,0,0,0-.9.059,3.3,3.3,0,0,0-.891.234,2.033,2.033,0,0,0-.707.492,1.443,1.443,0,0,0-.355.832,1.331,1.331,0,0,0,.043.574,1.146,1.146,0,0,0,.254.438,1.128,1.128,0,0,0,.426.281A1.686,1.686,0,0,0,42.141,35.906Zm8.391-7.367-.18.945a3.525,3.525,0,0,1,1.16-.828,3.431,3.431,0,0,1,2.094-.18,2.275,2.275,0,0,1,.617.242,1.827,1.827,0,0,1,.832,1.031A4.22,4.22,0,0,1,56.3,28.742a3.168,3.168,0,0,1,1.563-.352,2.659,2.659,0,0,1,1.16.258,1.969,1.969,0,0,1,.75.652,2.46,2.46,0,0,1,.375.961,4.144,4.144,0,0,1,.027,1.184L59.242,37H57.836l.922-5.57a2.943,2.943,0,0,0,0-.742,1.318,1.318,0,0,0-.211-.574,1.086,1.086,0,0,0-.453-.371,1.821,1.821,0,0,0-.727-.141,2.08,2.08,0,0,0-.762.125,2.315,2.315,0,0,0-.656.367,2.227,2.227,0,0,0-.5.566,2.282,2.282,0,0,0-.293.723L54.2,37H52.773l.938-5.562a2.564,2.564,0,0,0-.008-.723,1.358,1.358,0,0,0-.223-.57,1.18,1.18,0,0,0-.453-.379,1.662,1.662,0,0,0-.707-.148,2.168,2.168,0,0,0-1.219.3,2.8,2.8,0,0,0-.883.9L49.148,37H47.734L49.2,28.547Zm14.4,8.617a3.229,3.229,0,0,1-1.5-.355,2.9,2.9,0,0,1-1.02-.9,3.588,3.588,0,0,1-.551-1.289,4.959,4.959,0,0,1-.09-1.516l.039-.336a5.9,5.9,0,0,1,.23-1.078,5.8,5.8,0,0,1,.434-1.031,5.009,5.009,0,0,1,.629-.91,4.188,4.188,0,0,1,.813-.723,3.766,3.766,0,0,1,.977-.473,3.4,3.4,0,0,1,1.129-.152,2.832,2.832,0,0,1,1.453.387,2.593,2.593,0,0,1,.9.945,3.619,3.619,0,0,1,.418,1.316,5.789,5.789,0,0,1-.008,1.5l-.094.648H63.18a3.463,3.463,0,0,0,0,.984,2.508,2.508,0,0,0,.293.887,1.849,1.849,0,0,0,.613.648,1.821,1.821,0,0,0,.961.27,2.5,2.5,0,0,0,1.289-.3,4.153,4.153,0,0,0,1.039-.824l.813.688a3.649,3.649,0,0,1-.641.711,3.82,3.82,0,0,1-.777.512,3.689,3.689,0,0,1-.883.3A4.308,4.308,0,0,1,64.93,37.156Zm1.016-7.586a1.907,1.907,0,0,0-.957.188,2.521,2.521,0,0,0-.734.559,3.623,3.623,0,0,0-.543.789,6.151,6.151,0,0,0-.375.895l4.109.016.031-.141a2.888,2.888,0,0,0,.008-.82,1.968,1.968,0,0,0-.242-.73,1.548,1.548,0,0,0-.508-.531A1.521,1.521,0,0,0,65.945,29.57Zm11.938,5.422L82.5,25.625h1.656L78.281,37h-1.3l-2.3-11.375h1.539Zm11.984-.961H85.258L83.7,37h-1.57l6.18-11.375H89.6L91.852,37H90.406ZM85.906,32.8h3.742l-.945-5.3Zm12.414-.4H95.7L94.9,37H93.422L95.4,25.625l3.563.008a4.876,4.876,0,0,1,1.434.23,3.017,3.017,0,0,1,1.109.633,2.58,2.58,0,0,1,.684,1.039,3.3,3.3,0,0,1,.148,1.449,3.2,3.2,0,0,1-.266,1.07,3.433,3.433,0,0,1-.566.875,3.856,3.856,0,0,1-.8.684,4.825,4.825,0,0,1-.98.48l1.766,4.8-.008.1H99.914Zm-2.414-1.227,2.156.008a3.487,3.487,0,0,0,.992-.141,2.755,2.755,0,0,0,.855-.418,2.422,2.422,0,0,0,.633-.687,2.36,2.36,0,0,0,.324-.949,2.291,2.291,0,0,0-.047-.9,1.527,1.527,0,0,0-.363-.656,1.645,1.645,0,0,0-.645-.406,2.867,2.867,0,0,0-.883-.156l-2.273-.008Zm15.828,2.2a4.94,4.94,0,0,1-.574,1.59,4.272,4.272,0,0,1-2.391,1.953,4.82,4.82,0,0,1-1.676.238,3.681,3.681,0,0,1-1.281-.238,3.178,3.178,0,0,1-1.672-1.48,4.932,4.932,0,0,1-.426-1.086,5.694,5.694,0,0,1-.18-1.207,6.966,6.966,0,0,1,.059-1.254l.164-1.141a8.168,8.168,0,0,1,.566-2,6.147,6.147,0,0,1,1.07-1.7,4.938,4.938,0,0,1,1.566-1.172,4.486,4.486,0,0,1,2.055-.41,3.832,3.832,0,0,1,1.512.309,3.143,3.143,0,0,1,1.094.8,3.437,3.437,0,0,1,.672,1.2,5.275,5.275,0,0,1,.254,1.516h-1.461a5.19,5.19,0,0,0-.137-1,2.356,2.356,0,0,0-.359-.812,1.781,1.781,0,0,0-.645-.555,2.269,2.269,0,0,0-.992-.223,3.071,3.071,0,0,0-1.047.141,3.038,3.038,0,0,0-.863.441,3.447,3.447,0,0,0-.687.676,4.975,4.975,0,0,0-.523.844,6.137,6.137,0,0,0-.371.949,7.6,7.6,0,0,0-.227.988l-.172,1.164q-.055.414-.07.867a5.378,5.378,0,0,0,.043.895,4.242,4.242,0,0,0,.2.844,2.4,2.4,0,0,0,.391.715,1.876,1.876,0,0,0,.629.5,2.142,2.142,0,0,0,.91.207,3.321,3.321,0,0,0,1.164-.145,2.579,2.579,0,0,0,.891-.5,3.016,3.016,0,0,0,.652-.812,5.069,5.069,0,0,0,.441-1.074Zm10,3.625h-1.469l.914-5.258h-5.555L114.711,37h-1.469l1.977-11.375h1.469l-.852,4.891h5.547l.852-4.891h1.477Zm9.43-2.969h-4.609L125,37h-1.57l6.18-11.375H130.9L133.148,37H131.7ZM127.2,32.8h3.742l-.945-5.3Zm12.414-.4h-2.625l-.8,4.6h-1.477L136.7,25.625l3.563.008a4.876,4.876,0,0,1,1.434.23,3.017,3.017,0,0,1,1.109.633,2.58,2.58,0,0,1,.684,1.039,3.3,3.3,0,0,1,.148,1.449,3.2,3.2,0,0,1-.266,1.07,3.433,3.433,0,0,1-.566.875,3.856,3.856,0,0,1-.8.684,4.825,4.825,0,0,1-.98.48l1.766,4.8-.008.1h-1.562ZM137.2,31.172l2.156.008a3.487,3.487,0,0,0,.992-.141,2.756,2.756,0,0,0,.855-.418,2.422,2.422,0,0,0,.633-.687,2.36,2.36,0,0,0,.324-.949,2.291,2.291,0,0,0-.047-.9,1.527,1.527,0,0,0-.363-.656,1.645,1.645,0,0,0-.645-.406,2.867,2.867,0,0,0-.883-.156l-2.273-.008Zm11.617,1.242a14.779,14.779,0,0,1,.316-1.574,15.269,15.269,0,0,1,.508-1.605,13.162,13.162,0,0,1,.7-1.551,10.139,10.139,0,0,1,.914-1.418,8.279,8.279,0,0,1,1.133-1.2,6.4,6.4,0,0,1,1.363-.906l.211.969A7.388,7.388,0,0,0,152.48,26.6a10.086,10.086,0,0,0-1.074,1.773,12.1,12.1,0,0,0-.727,1.961,17.754,17.754,0,0,0-.437,2.043l-.016.117q-.086.563-.137,1.2t-.047,1.313a11.638,11.638,0,0,0,.086,1.344,7.791,7.791,0,0,0,.27,1.3,5.816,5.816,0,0,0,.5,1.176,3.8,3.8,0,0,0,.777.973l-.352.875a4.764,4.764,0,0,1-1.066-1.016,6.613,6.613,0,0,1-.762-1.266A7.691,7.691,0,0,1,149,36.957a11.226,11.226,0,0,1-.254-1.516,12.279,12.279,0,0,1-.055-1.512,12.932,12.932,0,0,1,.113-1.43Zm6.109-1.141,1.547-5.648h5.672l-.242,1.336h-4.445l-.937,3.109a3.491,3.491,0,0,1,.9-.375,3.577,3.577,0,0,1,.969-.117,2.662,2.662,0,0,1,1.332.328,2.574,2.574,0,0,1,.887.844,3.308,3.308,0,0,1,.461,1.191,4.814,4.814,0,0,1,.055,1.371,5,5,0,0,1-.391,1.543,3.979,3.979,0,0,1-.832,1.234,3.687,3.687,0,0,1-1.227.809,3.844,3.844,0,0,1-1.574.266,3.371,3.371,0,0,1-1.266-.254,2.734,2.734,0,0,1-.941-.656,2.929,2.929,0,0,1-.6-.992A3.894,3.894,0,0,1,154.07,34h1.32a2.907,2.907,0,0,0,.129.777,1.888,1.888,0,0,0,.328.621,1.536,1.536,0,0,0,.543.422,1.879,1.879,0,0,0,.781.164,2.138,2.138,0,0,0,1.016-.2,2.371,2.371,0,0,0,.766-.594,2.938,2.938,0,0,0,.508-.863,3.951,3.951,0,0,0,.242-1,3.153,3.153,0,0,0-.016-.887,2.168,2.168,0,0,0-.273-.773,1.615,1.615,0,0,0-.555-.555,1.739,1.739,0,0,0-.867-.23,2.382,2.382,0,0,0-1.016.176,4.14,4.14,0,0,0-.883.527Zm14.961.867q-.094.617-.242,1.23a8.651,8.651,0,0,1-.375,1.18,5.69,5.69,0,0,1-.547,1.047,3.7,3.7,0,0,1-.762.836,3.232,3.232,0,0,1-1.016.547,3.839,3.839,0,0,1-1.3.176,3.037,3.037,0,0,1-1.187-.238,2.4,2.4,0,0,1-.82-.594,2.681,2.681,0,0,1-.508-.859,4.735,4.735,0,0,1-.25-1.039,7.064,7.064,0,0,1-.051-1.133q.02-.582.09-1.145l.258-1.734a12.415,12.415,0,0,1,.234-1.227,8.057,8.057,0,0,1,.379-1.168,5.576,5.576,0,0,1,.555-1.031,3.628,3.628,0,0,1,.766-.816,3.326,3.326,0,0,1,1.008-.531,3.842,3.842,0,0,1,1.293-.172,3.17,3.17,0,0,1,1.191.23,2.351,2.351,0,0,1,.824.578,2.608,2.608,0,0,1,.508.844,4.6,4.6,0,0,1,.25,1.023,6.939,6.939,0,0,1,.051,1.125q-.02.582-.09,1.145Zm-1.109-1.984q.039-.328.074-.707a6.749,6.749,0,0,0,.027-.762,4.072,4.072,0,0,0-.082-.742,2.036,2.036,0,0,0-.246-.645,1.335,1.335,0,0,0-.465-.461,1.538,1.538,0,0,0-.746-.191,2.179,2.179,0,0,0-.859.129,2.018,2.018,0,0,0-.656.406,2.624,2.624,0,0,0-.484.613,4.466,4.466,0,0,0-.344.75,6.647,6.647,0,0,0-.23.816q-.09.418-.145.809l-.328,2.211q-.039.312-.074.7a7.077,7.077,0,0,0-.027.781,4.333,4.333,0,0,0,.082.766,2.174,2.174,0,0,0,.246.668,1.415,1.415,0,0,0,.461.484,1.435,1.435,0,0,0,.742.2,1.989,1.989,0,0,0,.867-.133,2.113,2.113,0,0,0,.656-.426,2.652,2.652,0,0,0,.484-.637,4.855,4.855,0,0,0,.344-.777,6.666,6.666,0,0,0,.227-.832q.086-.422.141-.8Zm6.289,2.273A15.413,15.413,0,0,1,174.758,34a13.9,13.9,0,0,1-1.215,3.148,9.949,9.949,0,0,1-.914,1.414,8.433,8.433,0,0,1-1.137,1.2,6.493,6.493,0,0,1-1.359.91l-.219-.9A7.473,7.473,0,0,0,171.4,38.3a10.018,10.018,0,0,0,1.078-1.793,12.364,12.364,0,0,0,.727-1.984,18.307,18.307,0,0,0,.438-2.055l.016-.117q.078-.555.133-1.2t.047-1.312a12.483,12.483,0,0,0-.09-1.352,7.874,7.874,0,0,0-.27-1.309,5.693,5.693,0,0,0-.5-1.176,3.909,3.909,0,0,0-.77-.969l.367-.875a4.806,4.806,0,0,1,1.066,1.012,6.317,6.317,0,0,1,.758,1.266,7.983,7.983,0,0,1,.488,1.438,11.213,11.213,0,0,1,.254,1.52,12.406,12.406,0,0,1,.055,1.52,12.709,12.709,0,0,1-.113,1.426ZM5.523,58.164a3.125,3.125,0,0,1-1.152.77A3.655,3.655,0,0,1,3,59.156a2.388,2.388,0,0,1-1.145-.277,1.96,1.96,0,0,1-.719-.7,2.644,2.644,0,0,1-.344-1,4.8,4.8,0,0,1-.02-1.18l.906-5.461H3.094L2.18,56.031a3.68,3.68,0,0,0-.016.676,1.668,1.668,0,0,0,.148.6,1.106,1.106,0,0,0,.367.438,1.181,1.181,0,0,0,.648.188,2.654,2.654,0,0,0,1.348-.289,2.689,2.689,0,0,0,1-.937l1.063-6.156H8.148L6.68,59H5.344Zm8.57-1.453a.953.953,0,0,0-.086-.6,1.14,1.14,0,0,0-.375-.4,2.124,2.124,0,0,0-.543-.254q-.3-.094-.582-.164-.469-.117-.949-.289a3.592,3.592,0,0,1-.863-.441,2.129,2.129,0,0,1-.617-.668,1.752,1.752,0,0,1-.211-.977,2.212,2.212,0,0,1,.336-1.1,2.75,2.75,0,0,1,.773-.8,3.5,3.5,0,0,1,1.043-.48,4.008,4.008,0,0,1,1.137-.152,3.6,3.6,0,0,1,1.121.188,2.716,2.716,0,0,1,.918.52,2.363,2.363,0,0,1,.609.828,2.538,2.538,0,0,1,.2,1.113L14.6,53.031a1.453,1.453,0,0,0-.1-.594,1.262,1.262,0,0,0-.312-.453,1.418,1.418,0,0,0-.48-.289,1.88,1.88,0,0,0-.605-.109,2.355,2.355,0,0,0-.613.066,1.913,1.913,0,0,0-.566.234,1.524,1.524,0,0,0-.434.4,1.264,1.264,0,0,0-.223.578.808.808,0,0,0,.031.395.846.846,0,0,0,.188.3,1.106,1.106,0,0,0,.293.215,2.81,2.81,0,0,0,.359.152q.191.066.383.113t.355.094a9.008,9.008,0,0,1,.965.309,3.567,3.567,0,0,1,.863.469,2.12,2.12,0,0,1,.605.7,1.85,1.85,0,0,1,.191,1,2.332,2.332,0,0,1-.355,1.152,2.712,2.712,0,0,1-.8.8,3.508,3.508,0,0,1-1.082.465,4.439,4.439,0,0,1-1.191.133,3.824,3.824,0,0,1-1.176-.2,3.057,3.057,0,0,1-.984-.539,2.457,2.457,0,0,1-.9-2.031l1.414.008a1.664,1.664,0,0,0,.129.676,1.415,1.415,0,0,0,.352.492,1.479,1.479,0,0,0,.531.3,2.178,2.178,0,0,0,.684.1,2.863,2.863,0,0,0,.641-.059,2.257,2.257,0,0,0,.609-.215,1.556,1.556,0,0,0,.48-.391A1.153,1.153,0,0,0,14.094,56.711Zm6.367,2.445a3.229,3.229,0,0,1-1.5-.355,2.9,2.9,0,0,1-1.02-.9,3.588,3.588,0,0,1-.551-1.289,4.959,4.959,0,0,1-.09-1.516l.039-.336a5.9,5.9,0,0,1,.23-1.078,5.8,5.8,0,0,1,.434-1.031,5.009,5.009,0,0,1,.629-.91,4.188,4.188,0,0,1,.813-.723,3.766,3.766,0,0,1,.977-.473,3.4,3.4,0,0,1,1.129-.152,2.832,2.832,0,0,1,1.453.387,2.593,2.593,0,0,1,.9.945,3.62,3.62,0,0,1,.418,1.316,5.789,5.789,0,0,1-.008,1.5l-.094.648H18.711a3.463,3.463,0,0,0,0,.984,2.508,2.508,0,0,0,.293.887,1.849,1.849,0,0,0,.613.648,1.821,1.821,0,0,0,.961.27,2.5,2.5,0,0,0,1.289-.3,4.153,4.153,0,0,0,1.039-.824l.813.688a3.649,3.649,0,0,1-.641.711,3.82,3.82,0,0,1-.777.512,3.689,3.689,0,0,1-.883.3A4.308,4.308,0,0,1,20.461,59.156Zm1.016-7.586a1.907,1.907,0,0,0-.957.188,2.521,2.521,0,0,0-.734.559,3.623,3.623,0,0,0-.543.789,6.152,6.152,0,0,0-.375.895l4.109.016.031-.141a2.888,2.888,0,0,0,.008-.82,1.968,1.968,0,0,0-.242-.73,1.548,1.548,0,0,0-.508-.531A1.521,1.521,0,0,0,21.477,51.57Zm9.031.266a5.626,5.626,0,0,0-.664-.07,2.338,2.338,0,0,0-1.238.32,2.8,2.8,0,0,0-.9.906L26.664,59H25.25l1.469-8.453,1.367-.008-.211.984a3.41,3.41,0,0,1,.914-.844,2.137,2.137,0,0,1,1.2-.3,1.637,1.637,0,0,1,.344.035q.164.035.328.082Zm7.727,2.977a7.591,7.591,0,0,1-.2,1.043,6.447,6.447,0,0,1-.363,1.016,5.169,5.169,0,0,1-.531.91,3.66,3.66,0,0,1-.711.734,3.191,3.191,0,0,1-.9.488,3,3,0,0,1-1.09.16,3.586,3.586,0,0,1-1.246-.246,2.451,2.451,0,0,1-1-.746L31.43,62.25H30.016l2.031-11.7,1.281-.008-.156.945a3.519,3.519,0,0,1,1.129-.828,3.144,3.144,0,0,1,1.379-.266,2.668,2.668,0,0,1,1,.2,2.262,2.262,0,0,1,.734.5,2.558,2.558,0,0,1,.492.734,4.145,4.145,0,0,1,.281.887,5.583,5.583,0,0,1,.105.965,7.833,7.833,0,0,1-.035.965Zm-1.391-.164q.031-.312.035-.656a4.538,4.538,0,0,0-.043-.68,2.962,2.962,0,0,0-.16-.637,1.843,1.843,0,0,0-.309-.535,1.443,1.443,0,0,0-.484-.375,1.714,1.714,0,0,0-.687-.156,2.119,2.119,0,0,0-1.2.309,3.416,3.416,0,0,0-.914.855l-.711,4.055a1.866,1.866,0,0,0,.668.848,1.909,1.909,0,0,0,1.043.309,2.07,2.07,0,0,0,1.129-.27,2.719,2.719,0,0,0,.816-.746,3.78,3.78,0,0,0,.527-1.031,6.293,6.293,0,0,0,.27-1.125ZM44.508,59a1.894,1.894,0,0,1-.055-.445,4.326,4.326,0,0,1,.023-.445,4.514,4.514,0,0,1-1.133.77,2.923,2.923,0,0,1-1.336.277,2.882,2.882,0,0,1-.992-.184,2.357,2.357,0,0,1-.8-.5,2.161,2.161,0,0,1-.516-.766,2.276,2.276,0,0,1-.148-.992,2.59,2.59,0,0,1,.426-1.352,2.918,2.918,0,0,1,.957-.879,4.286,4.286,0,0,1,1.281-.477,6.93,6.93,0,0,1,1.4-.145l1.477.008.094-.672a2,2,0,0,0-.031-.668,1.255,1.255,0,0,0-.25-.52,1.192,1.192,0,0,0-.465-.34,1.774,1.774,0,0,0-.66-.129,2.374,2.374,0,0,0-.648.074,2.086,2.086,0,0,0-.59.25,1.75,1.75,0,0,0-.465.422,1.435,1.435,0,0,0-.266.59l-1.422.008a2.191,2.191,0,0,1,.41-1.105A3.079,3.079,0,0,1,41.652,51a3.834,3.834,0,0,1,1.105-.469,4.48,4.48,0,0,1,1.164-.145,3.457,3.457,0,0,1,1.16.215,2.426,2.426,0,0,1,.879.566,2.225,2.225,0,0,1,.527.887,2.906,2.906,0,0,1,.105,1.176l-.648,3.93a6.4,6.4,0,0,0-.082.859,3.046,3.046,0,0,0,.1.852L45.945,59Zm-2.219-1.094a2.431,2.431,0,0,0,.691-.082,2.611,2.611,0,0,0,.629-.262,3.1,3.1,0,0,0,.551-.406,3.444,3.444,0,0,0,.457-.516l.3-1.742-1.07-.008a7.38,7.38,0,0,0-.9.059,3.3,3.3,0,0,0-.891.234,2.033,2.033,0,0,0-.707.492,1.443,1.443,0,0,0-.355.832,1.331,1.331,0,0,0,.043.574,1.146,1.146,0,0,0,.254.438,1.128,1.128,0,0,0,.426.281A1.686,1.686,0,0,0,42.289,57.906Zm10.82-1.2a.953.953,0,0,0-.086-.6,1.14,1.14,0,0,0-.375-.4,2.124,2.124,0,0,0-.543-.254q-.3-.094-.582-.164-.469-.117-.949-.289a3.592,3.592,0,0,1-.863-.441,2.129,2.129,0,0,1-.617-.668,1.752,1.752,0,0,1-.211-.977,2.212,2.212,0,0,1,.336-1.1,2.75,2.75,0,0,1,.773-.8,3.5,3.5,0,0,1,1.043-.48,4.008,4.008,0,0,1,1.137-.152,3.6,3.6,0,0,1,1.121.188,2.716,2.716,0,0,1,.918.52,2.363,2.363,0,0,1,.609.828,2.538,2.538,0,0,1,.2,1.113l-1.406-.008a1.453,1.453,0,0,0-.1-.594,1.262,1.262,0,0,0-.312-.453,1.418,1.418,0,0,0-.48-.289,1.88,1.88,0,0,0-.605-.109,2.355,2.355,0,0,0-.613.066,1.913,1.913,0,0,0-.566.234,1.524,1.524,0,0,0-.434.4,1.264,1.264,0,0,0-.223.578.808.808,0,0,0,.031.395.846.846,0,0,0,.188.3,1.106,1.106,0,0,0,.293.215,2.81,2.81,0,0,0,.359.152q.191.066.383.113t.355.094a9.008,9.008,0,0,1,.965.309,3.567,3.567,0,0,1,.863.469,2.12,2.12,0,0,1,.605.7,1.85,1.85,0,0,1,.191,1,2.332,2.332,0,0,1-.355,1.152,2.712,2.712,0,0,1-.8.8,3.508,3.508,0,0,1-1.082.465,4.439,4.439,0,0,1-1.191.133,3.824,3.824,0,0,1-1.176-.2,3.058,3.058,0,0,1-.984-.539,2.457,2.457,0,0,1-.9-2.031l1.414.008a1.664,1.664,0,0,0,.129.676,1.415,1.415,0,0,0,.352.492,1.479,1.479,0,0,0,.531.3,2.178,2.178,0,0,0,.684.1,2.863,2.863,0,0,0,.641-.059,2.257,2.257,0,0,0,.609-.215,1.556,1.556,0,0,0,.48-.391A1.153,1.153,0,0,0,53.109,56.711Zm8.078,0a.953.953,0,0,0-.086-.6,1.14,1.14,0,0,0-.375-.4,2.124,2.124,0,0,0-.543-.254q-.3-.094-.582-.164-.469-.117-.949-.289a3.592,3.592,0,0,1-.863-.441,2.129,2.129,0,0,1-.617-.668,1.752,1.752,0,0,1-.211-.977,2.212,2.212,0,0,1,.336-1.1,2.75,2.75,0,0,1,.773-.8,3.5,3.5,0,0,1,1.043-.48,4.008,4.008,0,0,1,1.137-.152,3.6,3.6,0,0,1,1.121.188,2.716,2.716,0,0,1,.918.52,2.363,2.363,0,0,1,.609.828,2.538,2.538,0,0,1,.2,1.113L61.7,53.031a1.453,1.453,0,0,0-.1-.594,1.262,1.262,0,0,0-.312-.453,1.418,1.418,0,0,0-.48-.289,1.88,1.88,0,0,0-.605-.109,2.355,2.355,0,0,0-.613.066,1.913,1.913,0,0,0-.566.234,1.524,1.524,0,0,0-.434.4,1.264,1.264,0,0,0-.223.578.808.808,0,0,0,.031.395.846.846,0,0,0,.188.3,1.106,1.106,0,0,0,.293.215,2.81,2.81,0,0,0,.359.152q.191.066.383.113t.355.094a9.008,9.008,0,0,1,.965.309,3.567,3.567,0,0,1,.863.469,2.12,2.12,0,0,1,.605.7,1.85,1.85,0,0,1,.191,1,2.332,2.332,0,0,1-.355,1.152,2.712,2.712,0,0,1-.8.8,3.508,3.508,0,0,1-1.082.465,4.439,4.439,0,0,1-1.191.133,3.824,3.824,0,0,1-1.176-.2A3.058,3.058,0,0,1,57,58.422a2.457,2.457,0,0,1-.9-2.031l1.414.008a1.664,1.664,0,0,0,.129.676,1.415,1.415,0,0,0,.352.492,1.479,1.479,0,0,0,.531.3,2.178,2.178,0,0,0,.684.1,2.863,2.863,0,0,0,.641-.059,2.257,2.257,0,0,0,.609-.215,1.556,1.556,0,0,0,.48-.391A1.153,1.153,0,0,0,61.188,56.711ZM71.633,57l2.7-6.453h1.461L71.938,59H70.789l-.875-6.391L66.867,59H65.719L64.8,50.547h1.352l.516,6.3,3-6.3h1.141Zm4.539-2.25a6.158,6.158,0,0,1,.246-1.121,5.613,5.613,0,0,1,.449-1.039,4.91,4.91,0,0,1,.645-.9,4.089,4.089,0,0,1,.828-.7,3.871,3.871,0,0,1,1-.453,3.774,3.774,0,0,1,1.168-.145,3.129,3.129,0,0,1,1.523.395,2.969,2.969,0,0,1,1.016.969,3.809,3.809,0,0,1,.527,1.359,5.28,5.28,0,0,1,.059,1.559l-.016.18A5.87,5.87,0,0,1,83.16,56.5a4.987,4.987,0,0,1-.906,1.387,4.137,4.137,0,0,1-1.312.949,3.723,3.723,0,0,1-1.676.324,3.145,3.145,0,0,1-1.512-.387,2.923,2.923,0,0,1-1.012-.957,3.823,3.823,0,0,1-.531-1.344,5.1,5.1,0,0,1-.062-1.547Zm1.4.172a5.254,5.254,0,0,0-.035.68,4.271,4.271,0,0,0,.063.688,2.994,2.994,0,0,0,.184.637,1.85,1.85,0,0,0,.332.531,1.563,1.563,0,0,0,.508.371,1.824,1.824,0,0,0,.707.156,2.162,2.162,0,0,0,1.148-.254,2.809,2.809,0,0,0,.855-.73,3.854,3.854,0,0,0,.57-1.02,5.193,5.193,0,0,0,.293-1.129l.023-.172A5.291,5.291,0,0,0,82.254,54a4.368,4.368,0,0,0-.062-.7,3.145,3.145,0,0,0-.184-.648,1.832,1.832,0,0,0-.336-.543,1.616,1.616,0,0,0-.516-.379,1.808,1.808,0,0,0-.711-.16,2.115,2.115,0,0,0-1.152.262,2.832,2.832,0,0,0-.848.746,3.928,3.928,0,0,0-.562,1.035,5.481,5.481,0,0,0-.289,1.137Zm12.406-3.086a5.626,5.626,0,0,0-.664-.07,2.338,2.338,0,0,0-1.238.32,2.8,2.8,0,0,0-.9.906L86.133,59H84.719l1.469-8.453,1.367-.008-.211.984a3.41,3.41,0,0,1,.914-.844,2.137,2.137,0,0,1,1.2-.3,1.637,1.637,0,0,1,.344.035q.164.035.328.082Zm.328,2.922a7.322,7.322,0,0,1,.207-1.055,6.19,6.19,0,0,1,.375-1.02,5.374,5.374,0,0,1,.547-.914,3.686,3.686,0,0,1,.727-.738,3.294,3.294,0,0,1,.91-.488,3.059,3.059,0,0,1,1.1-.16,3.183,3.183,0,0,1,1.211.262,2.414,2.414,0,0,1,.961.77L97.156,47H98.57L96.492,59H95.2l.148-.906a3.268,3.268,0,0,1-1.109.809,3.189,3.189,0,0,1-1.359.254,2.487,2.487,0,0,1-.973-.207,2.318,2.318,0,0,1-.723-.512,2.827,2.827,0,0,1-.5-.738,4.057,4.057,0,0,1-.3-.883,5.483,5.483,0,0,1-.121-.953,6.586,6.586,0,0,1,.027-.941Zm1.4.164a5.607,5.607,0,0,0-.043.648,4.753,4.753,0,0,0,.039.672,3.2,3.2,0,0,0,.148.633,1.742,1.742,0,0,0,.293.535,1.437,1.437,0,0,0,.473.375,1.566,1.566,0,0,0,.684.152,2.057,2.057,0,0,0,.668-.074,2.393,2.393,0,0,0,.578-.254,2.586,2.586,0,0,0,.5-.4,4.834,4.834,0,0,0,.434-.508l.672-3.906a1.918,1.918,0,0,0-.66-.863,1.836,1.836,0,0,0-1.043-.324,2.088,2.088,0,0,0-1.133.266,2.642,2.642,0,0,0-.8.734,3.8,3.8,0,0,0-.52,1.02,5.762,5.762,0,0,0-.262,1.121Zm15.188,2.07,4.617-9.367h1.656L107.289,59h-1.3l-2.3-11.375h1.539Zm11.984-.961h-4.609L112.711,59h-1.57l6.18-11.375h1.289L120.859,59h-1.445ZM114.914,54.8h3.742l-.945-5.3Zm12.414-.4H124.7l-.8,4.6H122.43l1.977-11.375,3.563.008a4.876,4.876,0,0,1,1.434.23,3.017,3.017,0,0,1,1.109.633,2.58,2.58,0,0,1,.684,1.039,3.3,3.3,0,0,1,.148,1.449,3.2,3.2,0,0,1-.266,1.07,3.433,3.433,0,0,1-.566.875,3.856,3.856,0,0,1-.8.684,4.825,4.825,0,0,1-.98.48l1.766,4.8-.008.1h-1.562Zm-2.414-1.227,2.156.008a3.487,3.487,0,0,0,.992-.141,2.756,2.756,0,0,0,.855-.418,2.422,2.422,0,0,0,.633-.687,2.36,2.36,0,0,0,.324-.949,2.291,2.291,0,0,0-.047-.9,1.527,1.527,0,0,0-.363-.656,1.645,1.645,0,0,0-.645-.406,2.867,2.867,0,0,0-.883-.156l-2.273-.008Zm15.828,2.2a4.94,4.94,0,0,1-.574,1.59,4.272,4.272,0,0,1-2.391,1.953,4.82,4.82,0,0,1-1.676.238,3.68,3.68,0,0,1-1.281-.238,3.178,3.178,0,0,1-1.672-1.48,4.932,4.932,0,0,1-.426-1.086,5.7,5.7,0,0,1-.18-1.207,6.965,6.965,0,0,1,.059-1.254l.164-1.141a8.168,8.168,0,0,1,.566-2,6.147,6.147,0,0,1,1.07-1.7,4.938,4.938,0,0,1,1.566-1.172,4.486,4.486,0,0,1,2.055-.41,3.832,3.832,0,0,1,1.512.309,3.143,3.143,0,0,1,1.094.8,3.437,3.437,0,0,1,.672,1.2,5.276,5.276,0,0,1,.254,1.516h-1.461a5.191,5.191,0,0,0-.137-1,2.356,2.356,0,0,0-.359-.812,1.781,1.781,0,0,0-.645-.555,2.269,2.269,0,0,0-.992-.223,3.071,3.071,0,0,0-1.047.141,3.039,3.039,0,0,0-.863.441,3.447,3.447,0,0,0-.687.676,4.975,4.975,0,0,0-.523.844,6.137,6.137,0,0,0-.371.949,7.6,7.6,0,0,0-.227.988L134.07,53.9q-.055.414-.07.867a5.377,5.377,0,0,0,.043.895,4.242,4.242,0,0,0,.2.844,2.4,2.4,0,0,0,.391.715,1.876,1.876,0,0,0,.629.5,2.142,2.142,0,0,0,.91.207,3.321,3.321,0,0,0,1.164-.145,2.579,2.579,0,0,0,.891-.5,3.016,3.016,0,0,0,.652-.812,5.068,5.068,0,0,0,.441-1.074Zm10,3.625h-1.469l.914-5.258h-5.555L143.719,59H142.25l1.977-11.375H145.7l-.852,4.891h5.547l.852-4.891h1.477Zm9.43-2.969h-4.609L154.008,59h-1.57l6.18-11.375h1.289L162.156,59h-1.445ZM156.211,54.8h3.742l-.945-5.3Zm12.414-.4H166l-.8,4.6h-1.477L165.7,47.625l3.563.008a4.876,4.876,0,0,1,1.434.23,3.017,3.017,0,0,1,1.109.633,2.58,2.58,0,0,1,.684,1.039,3.3,3.3,0,0,1,.148,1.449,3.2,3.2,0,0,1-.266,1.07,3.433,3.433,0,0,1-.566.875,3.856,3.856,0,0,1-.8.684,4.825,4.825,0,0,1-.98.48l1.766,4.8-.008.1h-1.562Zm-2.414-1.227,2.156.008a3.487,3.487,0,0,0,.992-.141,2.756,2.756,0,0,0,.855-.418,2.422,2.422,0,0,0,.633-.687,2.36,2.36,0,0,0,.324-.949,2.291,2.291,0,0,0-.047-.9,1.527,1.527,0,0,0-.363-.656,1.645,1.645,0,0,0-.645-.406,2.867,2.867,0,0,0-.883-.156l-2.273-.008Zm11.617,1.242a14.779,14.779,0,0,1,.316-1.574,15.269,15.269,0,0,1,.508-1.605,13.162,13.162,0,0,1,.7-1.551,10.139,10.139,0,0,1,.914-1.418,8.279,8.279,0,0,1,1.133-1.2,6.4,6.4,0,0,1,1.363-.906l.211.969a7.388,7.388,0,0,0-1.488,1.473,10.086,10.086,0,0,0-1.074,1.773,12.1,12.1,0,0,0-.727,1.961,17.754,17.754,0,0,0-.437,2.043l-.016.117q-.086.563-.137,1.2t-.047,1.313a11.638,11.638,0,0,0,.086,1.344,7.791,7.791,0,0,0,.27,1.3,5.816,5.816,0,0,0,.5,1.176,3.8,3.8,0,0,0,.777.973l-.352.875a4.764,4.764,0,0,1-1.066-1.016,6.613,6.613,0,0,1-.762-1.266,7.691,7.691,0,0,1-.492-1.434,11.226,11.226,0,0,1-.254-1.516,12.279,12.279,0,0,1-.055-1.512,12.932,12.932,0,0,1,.113-1.43Zm6.109-1.141,1.547-5.648h5.672l-.242,1.336h-4.445l-.937,3.109a3.491,3.491,0,0,1,.9-.375,3.577,3.577,0,0,1,.969-.117,2.662,2.662,0,0,1,1.332.328,2.574,2.574,0,0,1,.887.844,3.308,3.308,0,0,1,.461,1.191,4.814,4.814,0,0,1,.055,1.371,5,5,0,0,1-.391,1.543,3.979,3.979,0,0,1-.832,1.234,3.687,3.687,0,0,1-1.227.809,3.844,3.844,0,0,1-1.574.266,3.371,3.371,0,0,1-1.266-.254,2.734,2.734,0,0,1-.941-.656,2.929,2.929,0,0,1-.6-.992A3.894,3.894,0,0,1,183.078,56h1.32a2.907,2.907,0,0,0,.129.777,1.888,1.888,0,0,0,.328.621,1.536,1.536,0,0,0,.543.422,1.879,1.879,0,0,0,.781.164,2.138,2.138,0,0,0,1.016-.2,2.371,2.371,0,0,0,.766-.594,2.938,2.938,0,0,0,.508-.863,3.951,3.951,0,0,0,.242-1,3.153,3.153,0,0,0-.016-.887,2.168,2.168,0,0,0-.273-.773,1.615,1.615,0,0,0-.555-.555,1.739,1.739,0,0,0-.867-.23,2.382,2.382,0,0,0-1.016.176,4.14,4.14,0,0,0-.883.527Zm14.961.867q-.094.617-.242,1.23a8.651,8.651,0,0,1-.375,1.18,5.69,5.69,0,0,1-.547,1.047,3.7,3.7,0,0,1-.762.836,3.232,3.232,0,0,1-1.016.547,3.839,3.839,0,0,1-1.3.176,3.037,3.037,0,0,1-1.187-.238,2.4,2.4,0,0,1-.82-.594,2.681,2.681,0,0,1-.508-.859,4.735,4.735,0,0,1-.25-1.039,7.064,7.064,0,0,1-.051-1.133q.02-.582.09-1.145l.258-1.734a12.415,12.415,0,0,1,.234-1.227,8.057,8.057,0,0,1,.379-1.168,5.576,5.576,0,0,1,.555-1.031,3.628,3.628,0,0,1,.766-.816,3.326,3.326,0,0,1,1.008-.531,3.842,3.842,0,0,1,1.293-.172,3.17,3.17,0,0,1,1.191.23,2.351,2.351,0,0,1,.824.578,2.608,2.608,0,0,1,.508.844,4.6,4.6,0,0,1,.25,1.023,6.939,6.939,0,0,1,.051,1.125q-.02.582-.09,1.145Zm-1.109-1.984q.039-.328.074-.707a6.749,6.749,0,0,0,.027-.762,4.072,4.072,0,0,0-.082-.742,2.036,2.036,0,0,0-.246-.645,1.335,1.335,0,0,0-.465-.461,1.538,1.538,0,0,0-.746-.191,2.179,2.179,0,0,0-.859.129,2.018,2.018,0,0,0-.656.406,2.624,2.624,0,0,0-.484.613,4.466,4.466,0,0,0-.344.75,6.647,6.647,0,0,0-.23.816q-.09.418-.145.809l-.328,2.211q-.039.312-.074.7a7.077,7.077,0,0,0-.027.781,4.333,4.333,0,0,0,.082.766,2.174,2.174,0,0,0,.246.668,1.415,1.415,0,0,0,.461.484,1.435,1.435,0,0,0,.742.2,1.989,1.989,0,0,0,.867-.133,2.113,2.113,0,0,0,.656-.426,2.652,2.652,0,0,0,.484-.637,4.855,4.855,0,0,0,.344-.777,6.666,6.666,0,0,0,.227-.832q.086-.422.141-.8Zm6.289,2.273A15.413,15.413,0,0,1,203.766,56a13.9,13.9,0,0,1-1.215,3.148,9.949,9.949,0,0,1-.914,1.414,8.433,8.433,0,0,1-1.137,1.2,6.493,6.493,0,0,1-1.359.91l-.219-.9a7.473,7.473,0,0,0,1.484-1.48,10.018,10.018,0,0,0,1.078-1.793,12.364,12.364,0,0,0,.727-1.984,18.307,18.307,0,0,0,.438-2.055l.016-.117q.078-.555.133-1.2t.047-1.312a12.483,12.483,0,0,0-.09-1.352,7.874,7.874,0,0,0-.27-1.309,5.693,5.693,0,0,0-.5-1.176,3.909,3.909,0,0,0-.77-.969l.367-.875a4.806,4.806,0,0,1,1.066,1.012,6.317,6.317,0,0,1,.758,1.266,7.983,7.983,0,0,1,.488,1.438,11.213,11.213,0,0,1,.254,1.52,12.406,12.406,0,0,1,.055,1.52,12.709,12.709,0,0,1-.113,1.426Z" transform="translate(905 4059)" fill="#12263f"/>
  </g>
</svg>
