<svg xmlns="http://www.w3.org/2000/svg" width="63.792" height="63.792" viewBox="0 0 63.792 63.792">
  <g id="Grupo_1103620" data-name="Grupo 1103620" transform="translate(0 0.001)">
    <path id="Trazado_879512" data-name="Trazado 879512" d="M11.219,49.332a5.2,5.2,0,0,0-2.513.641,29.417,29.417,0,0,1,29.045-46.9A1.246,1.246,0,0,0,38.245.632,32.133,32.133,0,0,0,31.9,0,31.9,31.9,0,0,0,6.863,51.662a5.235,5.235,0,1,0,4.356-2.33ZM13.157,56.5a2.741,2.741,0,1,1,.8-1.938A2.722,2.722,0,0,1,13.157,56.5Zm0,0" transform="translate(0)" fill="#fff"/>
    <path id="Trazado_879513" data-name="Trazado 879513" d="M229.805,40.185a5.222,5.222,0,1,0-1.842,1.69,29.417,29.417,0,0,1-28.989,46.91,1.246,1.246,0,0,0-.489,2.444,32.155,32.155,0,0,0,6.289.62,31.9,31.9,0,0,0,25.031-51.664Zm-6.293-.963a2.742,2.742,0,1,1,1.938.8,2.723,2.723,0,0,1-1.938-.8Zm0,0" transform="translate(-172.879 -28.058)" fill="#fff"/>
    <path id="Trazado_879514" data-name="Trazado 879514" d="M91.521,118.106a1.246,1.246,0,0,0,1.246,1.246h7.79a1.246,1.246,0,0,0,1.246-1.246V115.69a19.511,19.511,0,0,0,4.676-1.938l1.705,1.705a1.245,1.245,0,0,0,1.762,0l5.506-5.51a1.246,1.246,0,0,0,0-1.762l-1.7-1.7a19.51,19.51,0,0,0,1.938-4.676h2.406a1.246,1.246,0,0,0,1.246-1.246v-7.79a1.246,1.246,0,0,0-1.246-1.246h-2.407a19.514,19.514,0,0,0-1.938-4.676l1.694-1.694a1.246,1.246,0,0,0,0-1.763l-5.511-5.506a1.246,1.246,0,0,0-1.762,0l-1.692,1.692a19.511,19.511,0,0,0-4.676-1.938V75.246A1.246,1.246,0,0,0,100.557,74h-7.79a1.246,1.246,0,0,0-1.246,1.246v2.394a19.494,19.494,0,0,0-4.676,1.938l-1.692-1.692a1.246,1.246,0,0,0-1.762,0l-5.51,5.507a1.245,1.245,0,0,0,0,1.762l1.694,1.694a19.508,19.508,0,0,0-1.938,4.676h-2.4a1.246,1.246,0,0,0-1.246,1.245l0,7.79a1.245,1.245,0,0,0,1.246,1.246h2.406a19.511,19.511,0,0,0,1.938,4.676l-1.7,1.7a1.246,1.246,0,0,0,0,1.762l5.506,5.51a1.246,1.246,0,0,0,.881.366h0a1.246,1.246,0,0,0,.881-.365l1.7-1.705a19.527,19.527,0,0,0,4.676,1.938Zm-4.187-6.974a1.246,1.246,0,0,0-1.557.165l-1.517,1.517-3.745-3.748,1.516-1.516a1.246,1.246,0,0,0,.165-1.557,17.054,17.054,0,0,1-2.36-5.7,1.246,1.246,0,0,0-1.218-.984h-2.14l0-5.3h2.137a1.246,1.246,0,0,0,1.218-.984,17.055,17.055,0,0,1,2.36-5.7,1.246,1.246,0,0,0-.165-1.557l-1.506-1.506,3.748-3.745,1.5,1.5a1.247,1.247,0,0,0,1.557.165,17.047,17.047,0,0,1,5.7-2.36,1.247,1.247,0,0,0,.984-1.218V76.492h5.3v2.127a1.245,1.245,0,0,0,.984,1.218,17.061,17.061,0,0,1,5.7,2.36,1.245,1.245,0,0,0,1.557-.165l1.5-1.5,3.748,3.745-1.506,1.506a1.246,1.246,0,0,0-.165,1.557,17.066,17.066,0,0,1,2.36,5.7,1.245,1.245,0,0,0,1.218.984h2.141v5.3h-2.141a1.246,1.246,0,0,0-1.218.984,17.051,17.051,0,0,1-2.36,5.7,1.246,1.246,0,0,0,.165,1.557l1.516,1.516-3.745,3.748-1.517-1.517a1.246,1.246,0,0,0-1.557-.165,17.066,17.066,0,0,1-5.7,2.36,1.246,1.246,0,0,0-.984,1.218v2.15h-5.3v-2.15a1.247,1.247,0,0,0-.984-1.218A17.055,17.055,0,0,1,87.333,111.132Zm0,0" transform="translate(-64.767 -64.781)" fill="#fff"/>
    <path id="Trazado_879515" data-name="Trazado 879515" d="M193.961,183.666a10.295,10.295,0,1,0-10.295,10.295A10.307,10.307,0,0,0,193.961,183.666Zm-18.1,0a7.8,7.8,0,1,1,7.8,7.8A7.812,7.812,0,0,1,175.863,183.666Zm0,0" transform="translate(-151.771 -151.771)" fill="#fff"/>
    <path id="Trazado_879516" data-name="Trazado 879516" d="M339.324,20.3a1.247,1.247,0,1,0-.88-.365A1.255,1.255,0,0,0,339.324,20.3Zm0,0" transform="translate(-295.956 -15.59)" fill="#fff"/>
    <path id="Trazado_879517" data-name="Trazado 879517" d="M155.6,474.359a1.246,1.246,0,1,0,.881.365A1.256,1.256,0,0,0,155.6,474.359Zm0,0" transform="translate(-135.127 -415.258)" fill="#fff"/>
  </g>
</svg>
