<svg xmlns="http://www.w3.org/2000/svg" width="60" height="60" viewBox="0 0 60 60">
  <g id="Grupo_1103208" data-name="Grupo 1103208" transform="translate(-405 -1662)">
    <circle id="Elipse_11666" data-name="Elipse 11666" cx="30" cy="30" r="30" transform="translate(405 1662)" fill="#debefb"/>
    <g id="Grupo_1103994" data-name="Grupo 1103994" transform="translate(415.672 1644.196)">
      <g id="Grupo_1103993" data-name="Grupo 1103993" transform="translate(0 30.801)">
        <g id="Grupo_1103992" data-name="Grupo 1103992" transform="translate(0 0)">
          <path id="Trazado_880212" data-name="Trazado 880212" d="M111.029,99.191a11.826,11.826,0,0,0-3.731.6.568.568,0,1,0,.358,1.078,10.712,10.712,0,1,1-2.275,1.067.568.568,0,0,0-.6-.964,11.842,11.842,0,1,0,6.248-1.781Z" transform="translate(-91.701 -94.027)" fill="#3a1d71"/>
          <path id="Trazado_880213" data-name="Trazado 880213" d="M375.435,37.8a.568.568,0,0,0,.8-.075l3.751-4.526h2a1.831,1.831,0,1,0,0-1.135h-2.266a.568.568,0,0,0-.437.205L375.361,37a.568.568,0,0,0,.075.8Zm8.29-5.864a.7.7,0,1,1-.7.7A.7.7,0,0,1,383.725,31.936Z" transform="translate(-346.899 -30.801)" fill="#3a1d71"/>
          <path id="Trazado_880214" data-name="Trazado 880214" d="M436.082,231.746a1.834,1.834,0,0,0-1.741,1.264h-1.911a.568.568,0,0,0,0,1.135h1.911a1.831,1.831,0,1,0,1.741-2.4Zm0,2.527a.7.7,0,1,1,.7-.7A.7.7,0,0,1,436.082,234.273Z" transform="translate(-399.257 -216.574)" fill="#3a1d71"/>
          <path id="Trazado_880215" data-name="Trazado 880215" d="M383.724,390.232a1.834,1.834,0,0,0-1.741,1.263h-2l-3.751-4.526a.568.568,0,0,0-.874.725l3.921,4.731a.568.568,0,0,0,.437.205h2.266a1.831,1.831,0,1,0,1.741-2.4Zm0,2.527a.7.7,0,1,1,.7-.7A.7.7,0,0,1,383.724,392.759Z" transform="translate(-346.898 -359.889)" fill="#3a1d71"/>
          <path id="Trazado_880216" data-name="Trazado 880216" d="M10.121,386.9a.568.568,0,0,0-.8.075L5.571,391.5h-2a1.831,1.831,0,1,0,0,1.135H5.838a.568.568,0,0,0,.437-.205L10.2,387.7A.568.568,0,0,0,10.121,386.9Zm-8.29,5.864a.7.7,0,1,1,.7-.7A.7.7,0,0,1,1.831,392.76Z" transform="translate(0 -359.889)" fill="#3a1d71"/>
          <path id="Trazado_880217" data-name="Trazado 880217" d="M1.831,34.464A1.834,1.834,0,0,0,3.572,33.2h2l3.751,4.526A.568.568,0,0,0,10.2,37L6.275,32.271a.568.568,0,0,0-.437-.205H3.572a1.831,1.831,0,1,0-1.741,2.4Zm0-2.527a.7.7,0,1,1-.7.7A.7.7,0,0,1,1.831,31.937Z" transform="translate(0 -30.802)" fill="#3a1d71"/>
          <path id="Trazado_880218" data-name="Trazado 880218" d="M1.831,235.408a1.834,1.834,0,0,0,1.741-1.264H5.483a.568.568,0,1,0,0-1.135H3.572a1.831,1.831,0,1,0-1.741,2.4Zm0-2.527a.7.7,0,1,1-.7.7.7.7,0,0,1,.7-.7Z" transform="translate(0 -216.574)" fill="#3a1d71"/>
          <path id="Trazado_880219" data-name="Trazado 880219" d="M151.013,141.423h-1.875a.994.994,0,0,0-.993.993v1.154a6.722,6.722,0,0,0-1.3.54l-.816-.816a.994.994,0,0,0-1.4,0L143.3,144.62a.994.994,0,0,0,0,1.4l.816.816a6.715,6.715,0,0,0-.54,1.3h-1.154a.994.994,0,0,0-.993.993v1.875a.994.994,0,0,0,.993.993h1.154a6.719,6.719,0,0,0,.54,1.3l-.816.816a.993.993,0,0,0,0,1.4l1.326,1.326a.993.993,0,0,0,1.4,0l.816-.816a6.716,6.716,0,0,0,1.3.54v1.154a.994.994,0,0,0,.993.993h1.875a.994.994,0,0,0,.993-.993v-1.154a6.724,6.724,0,0,0,1.3-.54l.816.816a.994.994,0,0,0,1.4,0l1.326-1.326a.993.993,0,0,0,0-1.4l-.816-.816a6.714,6.714,0,0,0,.54-1.3h1.154a.994.994,0,0,0,.993-.993v-1.875a.994.994,0,0,0-.993-.993H156.58a6.72,6.72,0,0,0-.54-1.3l.816-.816a.994.994,0,0,0,0-1.4l-1.326-1.326a.994.994,0,0,0-1.4,0l-.816.816a6.723,6.723,0,0,0-1.3-.54v-1.154A.994.994,0,0,0,151.013,141.423ZM153.1,145.3a.568.568,0,0,0,.706-.078l1.026-1.026,1.124,1.124-1.026,1.026a.568.568,0,0,0-.078.706,5.6,5.6,0,0,1,.739,1.782.568.568,0,0,0,.554.444h1.45v1.59h-1.45a.568.568,0,0,0-.554.444,5.6,5.6,0,0,1-.739,1.782.568.568,0,0,0,.078.705l1.026,1.026-1.124,1.124-1.026-1.026a.568.568,0,0,0-.706-.078,5.6,5.6,0,0,1-1.782.739.568.568,0,0,0-.444.554v1.45h-1.59v-1.45a.568.568,0,0,0-.444-.554,5.6,5.6,0,0,1-1.782-.739.568.568,0,0,0-.705.078l-1.026,1.026-1.124-1.124,1.026-1.026a.568.568,0,0,0,.078-.705,5.6,5.6,0,0,1-.739-1.782.568.568,0,0,0-.554-.444h-1.45v-1.59h1.45a.568.568,0,0,0,.554-.444,5.6,5.6,0,0,1,.739-1.782.568.568,0,0,0-.078-.706l-1.026-1.026,1.124-1.124,1.026,1.026a.568.568,0,0,0,.705.078,5.6,5.6,0,0,1,1.782-.739.568.568,0,0,0,.444-.554v-1.45h1.59v1.45a.568.568,0,0,0,.444.554A5.6,5.6,0,0,1,153.1,145.3Z" transform="translate(-130.747 -133.071)" fill="#3a1d71"/>
          <path id="Trazado_880220" data-name="Trazado 880220" d="M203.287,199.223a4.287,4.287,0,0,0,.23,8.568q.106,0,.213-.005a.568.568,0,0,0-.056-1.134,3.152,3.152,0,0,1-3.309-3.311,3.146,3.146,0,1,1,5.32,2.421.568.568,0,0,0,.806.8,4.49,4.49,0,0,0,1.277-2.908,4.163,4.163,0,0,0-1.155-3.11A4.292,4.292,0,0,0,203.287,199.223Z" transform="translate(-184.183 -186.502)" fill="#3a1d71"/>
        </g>
      </g>
    </g>
  </g>
</svg>
