<svg xmlns="http://www.w3.org/2000/svg" width="70" height="70" viewBox="0 0 70 70">
  <g id="Grupo_1103543" data-name="Grupo 1103543" transform="translate(-195 -1219)">
    <circle id="Elipse_11440" data-name="Elipse 11440" cx="35" cy="35" r="35" transform="translate(195 1219)" fill="#00ffdf"/>
    <path id="Trazado_879493" data-name="Trazado 879493" d="M0,64.928C0,65.8.63,67.045,3.632,68a25.6,25.6,0,0,0,7.4,1.011A23.16,23.16,0,0,0,18.2,68c2.8-.95,3.382-2.193,3.382-3.069V58.662h0V53.15h3.495v11.38a.755.755,0,0,0,.755.755H30.9v2.357a.755.755,0,0,0,.755.755h6.222a.755.755,0,0,0,.755-.755V61.418a.755.755,0,0,0-.755-.755H31.657a.755.755,0,0,0-.755.755v2.357H26.586V53.15h4.249c.022,0,.044,0,.066,0v2.36a.755.755,0,0,0,.755.755h6.222a.755.755,0,0,0,.755-.755V49.284a.755.755,0,0,0-.755-.755H31.657a.755.755,0,0,0-.755.755v2.36c-.022,0-.044,0-.066,0H26.586V41.015H30.9v2.357a.755.755,0,0,0,.755.755h6.222a.755.755,0,0,0,.755-.755V37.149a.755.755,0,0,0-.755-.755H31.657a.755.755,0,0,0-.755.755v2.356h-5.07a.755.755,0,0,0-.755.755V51.64H21.583V46.129h0V39.862c0-2.681-5.31-4.084-10.555-4.084C5.682,35.778,0,37.209,0,39.862ZM11.028,50.213c3.534,0,7.1-.637,9.046-1.873v4.054h0c0,.417-.73,1.086-2.359,1.64a21.637,21.637,0,0,1-6.687.935,24.053,24.053,0,0,1-6.937-.94c-2.039-.649-2.58-1.352-2.581-1.634V48.269c2.044,1.273,5.86,1.944,9.518,1.944ZM1.509,46.129V42c2.044,1.274,5.86,1.944,9.518,1.944,3.534,0,7.1-.637,9.046-1.873v4.055c0,.417-.73,1.086-2.359,1.64a21.637,21.637,0,0,1-6.687.935,24.053,24.053,0,0,1-6.937-.94c-2.04-.65-2.58-1.353-2.581-1.635Zm9.518,10.35c3.534,0,7.1-.637,9.046-1.873v4.055c0,.417-.73,1.086-2.359,1.64a21.637,21.637,0,0,1-6.687.935A24.053,24.053,0,0,1,4.09,60.3c-2.037-.649-2.579-1.351-2.581-1.634V54.535c2.044,1.273,5.86,1.944,9.518,1.944ZM4.09,38.227a24.053,24.053,0,0,1,6.937-.94,21.637,21.637,0,0,1,6.687.935c1.629.554,2.359,1.223,2.359,1.64s-.729,1.086-2.359,1.64a21.637,21.637,0,0,1-6.687.935A24.053,24.053,0,0,1,4.09,41.5c-2.042-.65-2.581-1.354-2.581-1.635s.539-.985,2.581-1.636ZM17.715,66.568a21.637,21.637,0,0,1-6.687.935,24.053,24.053,0,0,1-6.937-.94c-2.042-.65-2.581-1.354-2.581-1.635V60.8c2.044,1.274,5.86,1.944,9.518,1.944,3.534,0,7.1-.637,9.046-1.873v4.055C20.073,65.345,19.344,66.014,17.715,66.568Zm14.7-4.4h4.713v4.713H32.411Zm0-12.134h4.713v4.713H32.411Zm0-12.134h4.713v4.713H32.411Z" transform="translate(210.809 1201.435)" fill="#a854f3"/>
  </g>
</svg>
