<svg xmlns="http://www.w3.org/2000/svg" width="40" height="40" viewBox="0 0 40 40">
  <g id="Grupo_1104213" data-name="Grupo 1104213" transform="translate(-390 -12082)">
    <path id="Rectángulo_403760" data-name="Rectángulo 403760" d="M10,0H40a0,0,0,0,1,0,0V40a0,0,0,0,1,0,0H0a0,0,0,0,1,0,0V10A10,10,0,0,1,10,0Z" transform="translate(390 12082)" fill="#00ffdf"/>
    <path id="Trazado_880515" data-name="Trazado 880515" d="M3.877,10.514H5.43A1.614,1.614,0,0,0,7.275,8.707,1.562,1.562,0,0,0,6.836,7.56,1.666,1.666,0,0,0,5.6,7.115,1.784,1.784,0,0,0,4.458,7.5a1.162,1.162,0,0,0-.483.947H.684a3.369,3.369,0,0,1,.625-2A4.127,4.127,0,0,1,3.042,5.069a5.926,5.926,0,0,1,2.437-.493A5.823,5.823,0,0,1,9.209,5.66a3.6,3.6,0,0,1,1.357,2.979A3,3,0,0,1,10,10.372,4,4,0,0,1,8.369,11.7a3.823,3.823,0,0,1,1.777,1.245,3.279,3.279,0,0,1,.645,2.065,3.669,3.669,0,0,1-1.465,3.047A6.08,6.08,0,0,1,5.479,19.2a6.306,6.306,0,0,1-2.593-.532,4.062,4.062,0,0,1-1.812-1.475,3.834,3.834,0,0,1-.615-2.144H3.77A1.482,1.482,0,0,0,4.3,16.178a1.862,1.862,0,0,0,1.3.479,1.95,1.95,0,0,0,1.387-.483A1.616,1.616,0,0,0,7.5,14.938a1.889,1.889,0,0,0-.537-1.523,2.245,2.245,0,0,0-1.484-.449h-1.6Z" transform="translate(404 12090)" fill="#12263f"/>
  </g>
</svg>
