<svg xmlns="http://www.w3.org/2000/svg" width="104" height="104" viewBox="0 0 104 104">
  <g id="Grupo_1103145" data-name="Grupo 1103145" transform="translate(-1141 -5505)">
    <g id="Grupo_1102853" data-name="Grupo 1102853" transform="translate(1143 5507)">
      <circle id="Elipse_11549" data-name="Elipse 11549" cx="50" cy="50" r="50" transform="translate(0)" fill="#fff" stroke="#8722e2" stroke-width="4"/>
    </g>
    <g id="Database" transform="translate(1166.94 5530.938)">
      <path id="Trazado_879159" data-name="Trazado 879159" d="M30.544,10.772a57.273,57.273,0,0,1-22.171,0C-6.034,7.514,2.228,1,19.459,1,36.885,1,44.81,7.58,30.544,10.772Z" transform="translate(0.085 0.086)" fill="#f5f7ff"/>
      <path id="Trazado_879160" data-name="Trazado 879160" d="M15.5,1.065c15.732.684,21.715,6.721,8.371,9.706A48.749,48.749,0,0,1,15.5,11.792a54.58,54.58,0,0,0,13.8-1.021C44.869,7.3,33.871.262,15.5,1.065Z" transform="translate(1.329 0.086)" fill="#ccd3eb"/>
      <path id="Trazado_879161" data-name="Trazado 879161" d="M37.915,6v8.686c0,1.227-1.379,2.356-3.7,3.257C23.714,22.08,1,19.887,1,14.686V6c0,1.77,2.9,3.344,7.372,4.343C20.3,12.992,37.915,10.517,37.915,6Z" transform="translate(0.086 0.514)" fill="#96a1c3"/>
      <path id="Trazado_879162" data-name="Trazado 879162" d="M31.244,9.843v4.842c0,1.227-1.379,2.356-3.7,3.257-6.167,2.421-17.176,2.171-9.326,2.171,6.037,0,11.389-.847,14.755-2.171,2.323-.9,3.7-2.03,3.7-3.257V6C36.672,7.5,34.588,8.855,31.244,9.843Z" transform="translate(1.328 0.514)" fill="#647499"/>
      <path id="Trazado_879163" data-name="Trazado 879163" d="M36.405,22.429a11.389,11.389,0,0,1-2.237,1.086,9.424,9.424,0,0,0-4.2,1.194C14.777,28.335-8.305,22.049,4.713,17c7.361,2.9,22.16,2.888,29.51,0C38.794,18.77,38.642,20.974,36.405,22.429Z" transform="translate(0.075 1.457)" fill="#f5f7ff"/>
      <path id="Trazado_879164" data-name="Trazado 879164" d="M32.971,17a24.44,24.44,0,0,1-3.387,1.01c2.291,1.477,2.1,3.149.141,4.4a11.389,11.389,0,0,1-2.237,1.086,9.424,9.424,0,0,0-4.2,1.194,48.184,48.184,0,0,1-7.806.9,55.155,55.155,0,0,0,13.235-.9,10.26,10.26,0,0,1,4.223-1.173c5.049-1.954,4.908-4.625.033-6.514Z" transform="translate(1.327 1.457)" fill="#ccd3eb"/>
      <path id="Trazado_879165" data-name="Trazado 879165" d="M24.886,33.876c-6.058.532-14.668.239-20.184-1.933-2.323-.9-3.7-2.03-3.7-3.257V20c0,1.77,2.9,3.344,7.372,4.343a57.251,57.251,0,0,0,21.584.119,9.772,9.772,0,0,0-5.07,9.413Z" transform="translate(0.086 1.715)" fill="#96a1c3"/>
      <path id="Trazado_879166" data-name="Trazado 879166" d="M35.293,20v3.822c-3.713-1.346-5.016.315-2.171-1.281C34.11,22.052,35.293,21.086,35.293,20Z" transform="translate(2.707 1.715)" fill="#647499"/>
      <path id="Trazado_879167" data-name="Trazado 879167" d="M27.854,39.089C9.353,41.64-6.542,35.343,4.706,31c5.537,2.171,14.115,2.465,20.227,1.933a9.641,9.641,0,0,0,2.921,6.156Z" transform="translate(0.082 2.658)" fill="#f5f7ff"/>
      <path id="Trazado_879168" data-name="Trazado 879168" d="M37.915,41.036v1.65c0,3-8.262,5.429-18.457,5.429S1,45.682,1,42.686V34c0,1.77,2.9,3.344,7.372,4.343a57.37,57.37,0,0,0,19.478.489,9.772,9.772,0,0,0,10.065,2.2Z" transform="translate(0.086 2.915)" fill="#96a1c3"/>
      <path id="Trazado_879169" data-name="Trazado 879169" d="M31.243,40.795V42.13c0,2.725-6.84,4.973-15.743,5.364.89,0,1.791.065,2.714.065,10.2,0,18.457-2.432,18.457-5.429V40.48A9.62,9.62,0,0,1,31.243,40.795Z" transform="translate(1.329 3.47)" fill="#647499"/>
      <path id="Trazado_879170" data-name="Trazado 879170" d="M42.544,32.772a9.772,9.772,0,0,1-9.772,9.772c-10.01,0-13.6-13.431-4.7-18.338a9.772,9.772,0,0,1,14.473,8.566Z" transform="translate(1.971 1.972)" fill="#f5f7ff"/>
      <path id="Trazado_879171" data-name="Trazado 879171" d="M36.248,23.68c7.448,7.6-.934,19.836-10.618,15.928A9.772,9.772,0,1,0,36.248,23.68Z" transform="translate(2.197 2.03)" fill="#ccd3eb"/>
      <path id="Trazado_879172" data-name="Trazado 879172" d="M47.875,45.7a2.171,2.171,0,0,1-3.062,1.976c-.478-.2-.076.119-8.024-7.828a9.587,9.587,0,0,0,3.062-3.062C47.973,44.911,47.875,44.51,47.875,45.7Z" transform="translate(3.154 3.154)" fill="#a854f3"/>
      <path id="Trazado_879173" data-name="Trazado 879173" d="M19.543,10.857a1.086,1.086,0,1,0,1.086,1.086A1.086,1.086,0,0,0,19.543,10.857Zm0,0a1.086,1.086,0,1,0,1.086,1.086A1.086,1.086,0,0,0,19.543,10.857Zm0,0a1.086,1.086,0,1,0,1.086,1.086A1.086,1.086,0,0,0,19.543,10.857Zm0,0a1.086,1.086,0,1,0,1.086,1.086A1.086,1.086,0,0,0,19.543,10.857Zm32.3,36.7a5.939,5.939,0,0,0-1.335-1.639,1.086,1.086,0,0,0-1.531,1.531l.641.651a1.086,1.086,0,0,1-1.238,1.726c-.141,0,.141.206-6.764-6.677a12.736,12.736,0,0,0,1.531-1.531l2.779,2.769a1.086,1.086,0,1,0,1.52-1.52l-3.105-3.116a10.684,10.684,0,0,0,0-10.043,1.086,1.086,0,0,0-2.041.532c0,.6,1.086,1.781,1.086,4.506a8.686,8.686,0,0,1-4.072,7.35c-5.906,3.746-13.257-1.01-13.257-6.6a8.686,8.686,0,0,1,8.686-9.435c4.473,0,5.309,2.931,6.6,1.639a1.086,1.086,0,0,0-.087-1.639,11.291,11.291,0,0,0-2.171-1.27c0-3.311.489-4.625-2.334-6.352,1.466-.89,2.334-1.976,2.334-3.235V6.514C39.086-2.171,0-2.171,0,6.514V15.2c0,1.259.869,2.345,2.334,3.257C.793,19.391,0,20.477,0,21.715V30.4c0,1.227.782,2.323,2.313,3.257C.782,34.591,0,35.688,0,36.915V45.6c0,4.278,9.826,6.514,19.543,6.514,1.086,0,2.237,0,3.333-.087a1.087,1.087,0,1,0-.119-2.171c-1.042.087-2.128.087-3.214.087-11.4,0-17.372-2.823-17.372-4.343V40.1a14.527,14.527,0,0,0,3.453,1.52A53.939,53.939,0,0,0,25.07,43.19c2.475-.3,1.911-.293,2.845,0a10.857,10.857,0,0,0,6.829,2.41c2.356,0,2.171-.575,2.171,0,0,1.086-3.377,3.018-9.913,3.887a1.095,1.095,0,0,0,.282,2.171c6.59-.912,11.8-2.942,11.8-6.058v-.923c.228-.1.445-.217.662-.337,7.318,7.329,7.242,7.6,8.881,7.774a3.257,3.257,0,0,0,3.214-4.56ZM2.171,15.2c0-6.124-.065-5.548.152-5.429,3.257,2.009,8.968,2.823,12.812,3.094a1.088,1.088,0,1,0,.13-2.171,45.427,45.427,0,0,1-6.58-.923C3.909,8.686,2.171,7.253,2.171,6.514c0-1.52,5.972-4.343,17.372-4.343S36.915,4.994,36.915,6.514c0,.738-1.737,2.171-6.514,3.257a45.428,45.428,0,0,1-6.514.912,1.086,1.086,0,1,0,0,2.171c2.606,0,8.86-1.086,11.78-2.508A10.1,10.1,0,0,0,36.915,9.7v5.5c0,.63-1.086,1.477-3.04,2.258-.217,0-4.3,2.085-14.332,2.085S5.429,17.459,5.212,17.459c-1.954-.782-3.04-1.629-3.04-2.258Zm0,15.2c0-6.124-.065-5.548.152-5.429a24.853,24.853,0,0,0,8.382,2.606,1.1,1.1,0,1,0,.3-2.171,19.546,19.546,0,0,1-2.323-.434C3.9,23.886,2.171,22.431,2.171,21.715c0-.467.717-1.281,2.638-2.085,7.6,2.769,21.867,2.779,29.467,0,.923.391,2.627,1.205,2.627,2.171-.206.89-2.074,1.748-2.921,2.1-2.79.174-3.789,1.151-4.864,1.325a56.459,56.459,0,0,1-13.832.651,1.089,1.089,0,1,0-.174,2.171,57.382,57.382,0,0,0,11.248-.217,10.727,10.727,0,0,0-2.475,6.764C11.943,35.427,2.171,32.572,2.171,30.4Zm6.514,9.772C3.9,39.086,2.171,37.631,2.171,36.915c0-.467.717-1.281,2.649-2.1,5.494,2.019,13.365,2.345,19.261,1.922a10.749,10.749,0,0,0,1.748,4.18,56.176,56.176,0,0,1-17.144-.749ZM19.543,13.029a1.086,1.086,0,1,0-1.086-1.086A1.086,1.086,0,0,0,19.543,13.029Zm0-2.171a1.086,1.086,0,1,0,1.086,1.086A1.086,1.086,0,0,0,19.543,10.857Zm0,0a1.086,1.086,0,1,0,1.086,1.086A1.086,1.086,0,0,0,19.543,10.857Zm0,0a1.086,1.086,0,1,0,1.086,1.086A1.086,1.086,0,0,0,19.543,10.857Zm0,0a1.086,1.086,0,1,0,1.086,1.086A1.086,1.086,0,0,0,19.543,10.857Z" transform="translate(0 0)" fill="#033c59"/>
    </g>
  </g>
</svg>
