<svg xmlns="http://www.w3.org/2000/svg" width="40" height="40" viewBox="0 0 40 40">
  <g id="Grupo_1104214" data-name="Grupo 1104214" transform="translate(-810 -12082)">
    <path id="Rectángulo_403761" data-name="Rectángulo 403761" d="M10,0H40a0,0,0,0,1,0,0V40a0,0,0,0,1,0,0H0a0,0,0,0,1,0,0V10A10,10,0,0,1,10,0Z" transform="translate(810 12082)" fill="#00ffdf"/>
    <path id="Trazado_880516" data-name="Trazado 880516" d="M9.561,13.443h1.445v2.539H9.561V19H6.27V15.982H.771l-.2-2.012L6.27,4.811V4.781H9.561Zm-5.85,0H6.27V9.068L6.064,9.4Z" transform="translate(824 12090)" fill="#12263f"/>
  </g>
</svg>
