<svg xmlns="http://www.w3.org/2000/svg" width="60" height="60" viewBox="0 0 60 60">
  <g id="Grupo_1103209" data-name="Grupo 1103209" transform="translate(-405 -1662)">
    <circle id="Elipse_11666" data-name="Elipse 11666" cx="30" cy="30" r="30" transform="translate(405 1662)" fill="#debefb"/>
    <g id="Grupo_1103211" data-name="Grupo 1103211" transform="translate(415.303 1671.006)">
      <path id="Trazado_879090" data-name="Trazado 879090" d="M37.087,7.739H26.909a2.316,2.316,0,0,0-1.177-1.575,2.31,2.31,0,0,0-.575-2.306L24.5,3.2A2.31,2.31,0,0,0,22.2,2.629,2.311,2.311,0,0,0,20.16,1.405h-.925A2.311,2.311,0,0,0,17.2,2.629a2.311,2.311,0,0,0-2.306.575l-.654.654a2.311,2.311,0,0,0-.575,2.306,2.316,2.316,0,0,0-1.177,1.575H2.308A2.311,2.311,0,0,0,0,10.048v20.8a2.311,2.311,0,0,0,2.308,2.308H15.971v2.819a3.852,3.852,0,0,0-3.625,3.84.769.769,0,0,0,.769.769H26.279a.77.77,0,0,0,.769-.769,3.852,3.852,0,0,0-3.625-3.84V33.154H27.3a.769.769,0,0,0,0-1.539H2.308a.77.77,0,0,1-.769-.769V29.277H37.856v1.569a.77.77,0,0,1-.769.769H34.311a.769.769,0,0,0,0,1.539h2.775a2.311,2.311,0,0,0,2.308-2.308v-20.8a2.311,2.311,0,0,0-2.308-2.308ZM25.378,39.045H14.017a2.312,2.312,0,0,1,2.176-1.539H23.2A2.312,2.312,0,0,1,25.378,39.045Zm-3.493-3.078H17.51V33.154h4.375ZM13.978,8.2a.77.77,0,0,1,.769-.769h.119a.769.769,0,0,0,.544-1.313l-.085-.085a.77.77,0,0,1,0-1.088l.654-.654a.77.77,0,0,1,1.088,0l.084.084a.769.769,0,0,0,1.314-.544V3.713a.77.77,0,0,1,.769-.769h.925a.77.77,0,0,1,.769.769v.119a.769.769,0,0,0,1.313.544l.084-.084a.77.77,0,0,1,1.088,0l.654.654a.77.77,0,0,1,0,1.088l-.084.084a.769.769,0,0,0,.544,1.313h.119a.77.77,0,0,1,.769.769v.925a.77.77,0,0,1-.769.769h-.119a.769.769,0,0,0-.544,1.313l.084.084a.77.77,0,0,1,0,1.088l-.654.654a.77.77,0,0,1-1.088,0l-.084-.084a.769.769,0,0,0-1.313.544v.119a.77.77,0,0,1-.769.769h-.925a.77.77,0,0,1-.769-.769V13.5a.769.769,0,0,0-1.314-.544l-.084.084a.77.77,0,0,1-1.088,0l-.654-.654a.77.77,0,0,1,0-1.088l.084-.084A.769.769,0,0,0,14.866,9.9h-.119a.77.77,0,0,1-.769-.769ZM1.539,27.738V10.048a.77.77,0,0,1,.769-.769H12.444a2.312,2.312,0,0,0,1.219,1.885,2.31,2.31,0,0,0,.575,2.306l.654.654A2.31,2.31,0,0,0,17.2,14.7a2.31,2.31,0,0,0,2.037,1.224h.925A2.31,2.31,0,0,0,22.2,14.7a2.311,2.311,0,0,0,2.306-.575l.654-.654a2.31,2.31,0,0,0,.575-2.306,2.312,2.312,0,0,0,1.219-1.885H37.087a.77.77,0,0,1,.769.769v17.69H1.539Z" fill="#3a1d71"/>
      <path id="Trazado_879091" data-name="Trazado 879091" d="M219.564,62.348a3.037,3.037,0,1,0-3.037-3.037A3.041,3.041,0,0,0,219.564,62.348Zm0-4.535a1.5,1.5,0,1,1-1.5,1.5A1.5,1.5,0,0,1,219.564,57.813Z" transform="translate(-199.867 -50.647)" fill="#3a1d71"/>
      <path id="Trazado_879092" data-name="Trazado 879092" d="M270.817,198.424a4.817,4.817,0,1,0,4.817,4.817A4.823,4.823,0,0,0,270.817,198.424Zm0,8.1a3.278,3.278,0,1,1,3.278-3.278A3.282,3.282,0,0,1,270.817,206.52Z" transform="translate(-245.533 -181.86)" fill="#3a1d71"/>
      <path id="Trazado_879093" data-name="Trazado 879093" d="M125.6,198.424a4.817,4.817,0,1,0,4.817,4.817A4.823,4.823,0,0,0,125.6,198.424Zm0,8.1a3.278,3.278,0,1,1,3.278-3.278A3.282,3.282,0,0,1,125.6,206.52Z" transform="translate(-111.489 -181.86)" fill="#3a1d71"/>
      <path id="Trazado_879094" data-name="Trazado 879094" d="M307.461,238.017a.77.77,0,0,0-1.088,0l-.475.475-.475-.475a.77.77,0,1,0-1.088,1.088l.475.475-.475.475a.769.769,0,1,0,1.088,1.088l.475-.475.475.475a.769.769,0,1,0,1.088-1.088l-.475-.475.475-.475a.769.769,0,0,0,0-1.088Z" transform="translate(-280.71 -218.199)" fill="#3a1d71"/>
      <path id="Trazado_879095" data-name="Trazado 879095" d="M159.9,239.035a.769.769,0,0,0-1.072.186l-.793,1.125-.375-.335a.769.769,0,0,0-1.026,1.147l1.019.912a.769.769,0,0,0,1.142-.13l1.291-1.832A.769.769,0,0,0,159.9,239.035Z" transform="translate(-144.349 -219.216)" fill="#3a1d71"/>
      <circle id="Elipse_11670" data-name="Elipse 11670" cx="0.769" cy="0.769" r="0.769" transform="translate(30.03 31.615)" fill="#3a1d71"/>
    </g>
  </g>
</svg>
