<svg xmlns="http://www.w3.org/2000/svg" width="55.047" height="45.155" viewBox="0 0 55.047 45.155">
  <g id="Grupo_1103623" data-name="Grupo 1103623" transform="translate(0.35 -46.244)">
    <path id="Trazado_879519" data-name="Trazado 879519" d="M125.13,166.336a1.583,1.583,0,0,0-.88,1.424v3.074a1.584,1.584,0,0,0,.88,1.424l1.782.887a11.807,11.807,0,0,0,.594,1.431l-.631,1.893a1.583,1.583,0,0,0,.385,1.629l2.174,2.174a1.584,1.584,0,0,0,1.629.385l1.888-.633a11.824,11.824,0,0,0,1.431.593l.892,1.784a1.583,1.583,0,0,0,1.424.88h3.074a1.584,1.584,0,0,0,1.424-.88l.887-1.782a11.808,11.808,0,0,0,1.431-.594l1.893.631a1.583,1.583,0,0,0,1.629-.385l2.174-2.174a1.584,1.584,0,0,0,.385-1.629l-.633-1.888a11.824,11.824,0,0,0,.593-1.431l1.784-.892a1.583,1.583,0,0,0,.88-1.424V167.76a1.584,1.584,0,0,0-.88-1.424l-1.782-.887a11.808,11.808,0,0,0-.594-1.431l.631-1.893a1.583,1.583,0,0,0-.385-1.629.8.8,0,0,0-1.126,1.126l-.631,1.893a1.577,1.577,0,0,0,.081,1.2,10.335,10.335,0,0,1,.516,1.243,1.576,1.576,0,0,0,.793.907l1.784.892v3.074l-1.784.892a1.576,1.576,0,0,0-.793.907,10.325,10.325,0,0,1-.515,1.243,1.576,1.576,0,0,0-.081,1.2l.631,1.893-2.174,2.174-1.893-.631a1.576,1.576,0,0,0-1.2.081,10.339,10.339,0,0,1-1.243.516,1.575,1.575,0,0,0-.907.793l-.892,1.784H136.7l-.892-1.784a1.576,1.576,0,0,0-.907-.793,10.327,10.327,0,0,1-1.243-.515,1.576,1.576,0,0,0-1.2-.081l-1.893.631-2.174-2.174.631-1.893a1.577,1.577,0,0,0-.081-1.2,10.336,10.336,0,0,1-.516-1.243,1.575,1.575,0,0,0-.793-.907l-1.784-.892V167.76l1.784-.892a1.576,1.576,0,0,0,.793-.907,10.326,10.326,0,0,1,.515-1.243,1.576,1.576,0,0,0,.081-1.2l-.631-1.893,2.174-2.174,1.893.631a1.577,1.577,0,0,0,1.2-.081,10.336,10.336,0,0,1,1.243-.516,1.575,1.575,0,0,0,.907-.793l.892-1.784h3.074l.892,1.784a1.576,1.576,0,0,0,.907.793,10.327,10.327,0,0,1,1.243.515,1.576,1.576,0,0,0,1.2.081l1.893-.631a.8.8,0,0,0-.131-1.587,1.591,1.591,0,0,0-.373.076l-1.888.633a11.828,11.828,0,0,0-1.431-.593l-.892-1.784a1.583,1.583,0,0,0-1.424-.88H136.7a1.584,1.584,0,0,0-1.424.88l-.887,1.782a11.8,11.8,0,0,0-1.431.594l-1.893-.631a1.584,1.584,0,0,0-1.629.385l-2.174,2.174a1.584,1.584,0,0,0-.385,1.629l.633,1.888a11.829,11.829,0,0,0-.593,1.431Z" transform="translate(-111.061 -97.178)" fill="#fff" stroke="#fff" stroke-width="0.7"/>
    <path id="Trazado_879520" data-name="Trazado 879520" d="M175.5,248.733a.8.8,0,0,0-1.126,0l-3.3,3.3a.8.8,0,0,0,0,1.126l3.3,3.3a.8.8,0,0,0,1.126-1.126l-2.734-2.734,2.734-2.734A.8.8,0,0,0,175.5,248.733Z" transform="translate(-152.71 -180.475)" fill="#fff" stroke="#fff" stroke-width="0.7"/>
    <path id="Trazado_879521" data-name="Trazado 879521" d="M295.327,256.454a.8.8,0,0,0,1.126,0l3.3-3.3a.8.8,0,0,0,0-1.126l-3.3-3.3a.8.8,0,0,0-1.126,1.126l2.734,2.734-2.734,2.734A.8.8,0,0,0,295.327,256.454Z" transform="translate(-263.77 -180.476)" fill="#fff" stroke="#fff" stroke-width="0.7"/>
    <path id="Trazado_879522" data-name="Trazado 879522" d="M237.417,248.582a.8.8,0,0,0-1.068.356l-3.3,6.594a.8.8,0,0,0,1.424.712l3.3-6.594A.8.8,0,0,0,237.417,248.582Z" transform="translate(-208.239 -180.473)" fill="#fff" stroke="#fff" stroke-width="0.7"/>
    <path id="Trazado_879523" data-name="Trazado 879523" d="M50.9,46.594H9.622a.8.8,0,1,0,0,1.592H50.9a1.86,1.86,0,0,1,1.858,1.858v3.145H1.592V50.044A1.86,1.86,0,0,1,3.45,48.186H5.907a.8.8,0,1,0,0-1.592H3.45A3.454,3.454,0,0,0,0,50.044V87.6a3.454,3.454,0,0,0,3.45,3.45H9.7a.8.8,0,1,0,0-1.592H3.45A1.86,1.86,0,0,1,1.592,87.6V54.781H52.755V87.6A1.86,1.86,0,0,1,50.9,89.457H13.413a.8.8,0,0,0,0,1.592H50.9a3.454,3.454,0,0,0,3.45-3.45V50.044A3.454,3.454,0,0,0,50.9,46.594Z" fill="#fff" stroke="#fff" stroke-width="0.7"/>
    <circle id="Elipse_11736" data-name="Elipse 11736" cx="0.796" cy="0.796" r="0.796" transform="translate(49.458 49.891)" fill="#fff" stroke="#fff" stroke-width="0.7"/>
    <circle id="Elipse_11737" data-name="Elipse 11737" cx="0.796" cy="0.796" r="0.796" transform="translate(46.16 49.891)" fill="#fff" stroke="#fff" stroke-width="0.7"/>
    <circle id="Elipse_11738" data-name="Elipse 11738" cx="0.796" cy="0.796" r="0.796" transform="translate(42.863 49.891)" fill="#fff" stroke="#fff" stroke-width="0.7"/>
  </g>
</svg>
