<svg xmlns="http://www.w3.org/2000/svg" width="70" height="70" viewBox="0 0 70 70">
  <g id="Grupo_1103545" data-name="Grupo 1103545" transform="translate(-1035 -1219)">
    <circle id="Elipse_11440" data-name="Elipse 11440" cx="35" cy="35" r="35" transform="translate(1035 1219)" fill="#00ffdf"/>
    <path id="Trazado_879495" data-name="Trazado 879495" d="M24.369,9.578A14.791,14.791,0,1,0,39.16,24.369,14.808,14.808,0,0,0,24.369,9.578Zm0,27.679A12.887,12.887,0,1,1,37.256,24.369,12.9,12.9,0,0,1,24.369,37.256ZM46.248,19.537a4.233,4.233,0,0,1-2.991-7.222,2.493,2.493,0,0,0,0-3.522L39.945,5.482a2.493,2.493,0,0,0-3.522,0,4.171,4.171,0,0,1-4.609.913A4.171,4.171,0,0,1,29.2,2.49,2.493,2.493,0,0,0,26.711,0H22.027a2.493,2.493,0,0,0-2.49,2.49,4.171,4.171,0,0,1-2.613,3.9,4.171,4.171,0,0,1-4.609-.913,2.493,2.493,0,0,0-3.522,0L5.482,8.793a2.49,2.49,0,0,0,0,3.522,4.171,4.171,0,0,1,.913,4.609,4.171,4.171,0,0,1-3.9,2.613A2.493,2.493,0,0,0,0,22.027V26.71A2.493,2.493,0,0,0,2.49,29.2a4.171,4.171,0,0,1,3.9,2.613,4.171,4.171,0,0,1-.913,4.609,2.491,2.491,0,0,0,0,3.522l3.312,3.312a2.49,2.49,0,0,0,3.522,0,4.231,4.231,0,0,1,7.222,2.992,2.493,2.493,0,0,0,2.49,2.49h4.683a2.493,2.493,0,0,0,2.49-2.49,4.233,4.233,0,0,1,7.222-2.991,2.491,2.491,0,0,0,3.522,0l3.312-3.312a2.49,2.49,0,0,0,0-3.522A4.233,4.233,0,0,1,46.248,29.2a2.493,2.493,0,0,0,2.49-2.49V22.028a2.493,2.493,0,0,0-2.49-2.49Zm.586,7.173a.587.587,0,0,1-.586.586A6.137,6.137,0,0,0,41.91,37.769a.587.587,0,0,1,0,.829L38.6,41.91a.586.586,0,0,1-.829,0A6.137,6.137,0,0,0,27.3,46.248a.587.587,0,0,1-.586.586H22.028a.587.587,0,0,1-.586-.586,6.04,6.04,0,0,0-3.787-5.667,6.227,6.227,0,0,0-2.387-.483,6.05,6.05,0,0,0-4.3,1.812.586.586,0,0,1-.829,0L6.828,38.6a.586.586,0,0,1,0-.829,6.038,6.038,0,0,0,1.326-6.684A6.038,6.038,0,0,0,2.49,27.3.587.587,0,0,1,1.9,26.71V22.027a.587.587,0,0,1,.586-.586,6.038,6.038,0,0,0,5.664-3.788,6.038,6.038,0,0,0-1.326-6.684.586.586,0,0,1,0-.829L10.14,6.828a.587.587,0,0,1,.829,0,6.038,6.038,0,0,0,6.684,1.326A6.038,6.038,0,0,0,21.441,2.49a.587.587,0,0,1,.586-.586h4.683a.587.587,0,0,1,.586.586,6.038,6.038,0,0,0,3.788,5.664,6.038,6.038,0,0,0,6.684-1.326.587.587,0,0,1,.829,0l3.312,3.312a.587.587,0,0,1,0,.829,6.137,6.137,0,0,0,4.338,10.472.587.587,0,0,1,.586.586v4.683ZM20.176,20.688l-3.681,3.681,3.681,3.681A.952.952,0,1,1,18.829,29.4l-4.354-4.354a.952.952,0,0,1,0-1.346l4.354-4.354a.952.952,0,1,1,1.346,1.346Zm9.733-1.346L34.263,23.7a.952.952,0,0,1,0,1.346L29.909,29.4a.952.952,0,0,1-1.346-1.346l3.681-3.681-3.681-3.681a.952.952,0,1,1,1.346-1.346Zm-3.172.838-2.971,8.976a.952.952,0,0,1-1.807-.6l2.971-8.976a.952.952,0,1,1,1.807.6Z" transform="translate(1045.631 1229.631)" fill="#a854f3"/>
  </g>
</svg>
