<svg xmlns="http://www.w3.org/2000/svg" width="51.382" height="56.721" viewBox="0 0 51.382 56.721">
  <g id="Grupo_1103624" data-name="Grupo 1103624" transform="translate(-24.1)">
    <path id="Trazado_879524" data-name="Trazado 879524" d="M380.4,54.6l3.56-3.56a1.662,1.662,0,1,0-2.35-2.35l-3.56,3.56a1.662,1.662,0,0,0,2.35,2.35Z" transform="translate(-314.307 -42.861)" fill="#fff"/>
    <path id="Trazado_879525" data-name="Trazado 879525" d="M46.516,48.687a1.662,1.662,0,0,0-2.679.468l-14.116,30-5.135,5.135a1.662,1.662,0,0,0,0,2.35l7.12,7.12a1.662,1.662,0,0,0,2.35,0l4.165-4.165,9.5,9.5a1.661,1.661,0,0,0,2.35,0l6.23-6.23a1.662,1.662,0,0,0,0-2.35l-6.765-6.765,19.647-9.246a1.662,1.662,0,0,0,.468-2.679ZM32.882,90.231l-4.77-4.77,2.99-2.99,4.77,4.77Zm19.9,1.46L48.9,95.57l-7.833-7.833,5.276-2.483ZM38.571,85.24,33.1,79.772,45.838,52.709l19.8,19.8Z" transform="translate(0 -42.861)" fill="#fff"/>
    <path id="Trazado_879526" data-name="Trazado 879526" d="M430.988,176.733h-3.56a1.662,1.662,0,1,0,0,3.324h3.56a1.662,1.662,0,1,0,0-3.324Z" transform="translate(-357.168 -157.154)" fill="#fff"/>
    <path id="Trazado_879527" data-name="Trazado 879527" d="M282.828,6.883a1.662,1.662,0,0,0,1.662-1.662V1.662a1.662,1.662,0,0,0-3.324,0v3.56A1.662,1.662,0,0,0,282.828,6.883Z" transform="translate(-228.587 0)" fill="#fff"/>
  </g>
</svg>
